<svg width="389" height="389" viewBox="0 0 389 389" fill="none" xmlns="http://www.w3.org/2000/svg">
<path d="M264.372 108.489H235.233V82.8028H209.326V57.1208H179.678V82.8028H154.008V108.489H124.767V119.902C124.767 119.902 136.153 123.126 148.322 126.933C193.605 141.101 195.938 140.997 240.293 126.933C240.293 126.933 264.221 119.595 264.322 119.902C264.423 120.208 264.372 108.489 264.372 108.489ZM177.155 105.45H162.13V90.4205H177.155V105.45ZM202.845 79.4499H188.122V64.7346H202.845V79.4499ZM228.632 105.341H213.707V90.4243H228.632V105.341Z" fill="#194F9C"/>
<path d="M47.5039 123.592C47.5039 123.592 91.774 123.049 128.326 135.622C163.476 147.729 173.236 152.697 194.525 152.697C219.656 152.697 258.963 136.111 267.628 133.472C274.474 131.384 286.55 125.629 341.655 123.592L323.377 138.618C323.377 138.618 289.267 137.803 244.329 157.299C244.329 157.299 216.171 168.398 194.513 167.994V182.884C194.513 182.884 218.205 182.345 237.29 176.252C256.374 170.159 291.172 157.027 304.424 157.299C304.424 157.299 292.689 165.836 278.424 178.146C257.717 196.066 228.36 219.893 194.513 219.571V197.37C194.513 197.37 181.482 196.92 165.409 192.632C148.012 187.975 107.696 171.494 80.6638 171.65L47.5039 123.592Z" fill="#194F9C"/>
<path d="M60.1546 319.334C61.8421 320.182 63.6992 320.639 65.5875 320.669C67.8383 320.669 69.0374 319.757 69.0374 318.341C69.0374 317.018 68.0051 316.245 65.3973 315.283C61.7961 314.065 59.4561 312.043 59.4561 308.93C59.4561 305.213 62.5373 302.392 67.6481 302.392C69.5466 302.362 71.4306 302.725 73.1819 303.459L72.0837 307.413C70.6691 306.74 69.1216 306.393 67.555 306.396C65.4361 306.396 64.4039 307.39 64.4039 308.473C64.4039 309.854 65.6302 310.471 68.4203 311.53C72.2466 312.947 74.0472 314.965 74.0472 317.98C74.0472 321.636 71.2493 324.717 65.3081 324.717C62.8323 324.717 60.3875 324.073 59.1689 323.366L60.1624 319.338L60.1546 319.334Z" fill="#194F9C"/>
<path d="M77.0625 301.553H81.9482V310.533H82.0103C82.5306 309.861 83.1932 309.312 83.9506 308.927C84.7358 308.519 85.6076 308.306 86.4924 308.306C89.5969 308.306 91.9835 310.467 91.9835 315.213V324.383H87.0861V315.741C87.0861 313.676 86.3799 312.248 84.556 312.248C84.021 312.246 83.4983 312.409 83.0598 312.715C82.6213 313.022 82.2886 313.456 82.1073 313.96C81.9879 314.319 81.9328 314.696 81.9443 315.073V324.368H77.0625V301.553Z" fill="#194F9C"/>
<path d="M100.948 304.309C100.948 305.64 99.9232 306.75 98.3127 306.75C96.7605 306.75 95.7399 305.64 95.7787 304.309C95.7399 302.9 96.7876 301.81 98.3399 301.81C98.6775 301.791 99.0153 301.843 99.3323 301.961C99.6492 302.079 99.9386 302.26 100.182 302.495C100.426 302.729 100.619 303.011 100.75 303.323C100.88 303.635 100.945 303.971 100.94 304.309H100.948ZM95.9028 324.383V308.674H100.785V324.383H95.9028Z" fill="#194F9C"/>
<path d="M104.708 313.936C104.708 311.88 104.638 310.106 104.584 308.674H108.818L109.043 310.855H109.113C110.277 309.187 112.062 308.306 114.344 308.306C117.786 308.306 120.867 311.302 120.867 316.308C120.867 322.035 117.239 324.736 113.738 324.736C111.833 324.736 110.358 323.96 109.652 322.936H109.594V330.74H104.708V313.936ZM109.594 317.654C109.595 317.998 109.63 318.341 109.699 318.679C109.843 319.331 110.203 319.915 110.721 320.338C111.238 320.76 111.883 320.996 112.551 321.007C114.674 321.007 115.931 319.222 115.931 316.556C115.931 314.076 114.802 312.155 112.621 312.155C111.927 312.174 111.259 312.429 110.729 312.876C110.198 313.324 109.835 313.938 109.699 314.619C109.634 314.905 109.599 315.196 109.594 315.489V317.67V317.654Z" fill="#194F9C"/>
<path d="M123.952 313.936C123.952 311.88 123.882 310.106 123.824 308.674H128.065L128.275 310.855H128.349C129.513 309.187 131.306 308.306 133.584 308.306C137.045 308.306 140.126 311.302 140.126 316.308C140.126 322.035 136.471 324.736 132.982 324.736C131.081 324.736 129.606 323.96 128.896 322.936H128.838V330.74H123.952V313.936ZM128.838 317.654C128.835 317.997 128.862 318.34 128.919 318.679C129.069 319.331 129.433 319.915 129.952 320.337C130.472 320.758 131.118 320.994 131.787 321.007C133.902 321.007 135.163 319.222 135.163 316.556C135.163 314.076 134.034 312.155 131.853 312.155C131.157 312.173 130.488 312.427 129.955 312.874C129.422 313.322 129.057 313.937 128.919 314.619C128.866 314.906 128.838 315.197 128.838 315.489V317.67V317.654Z" fill="#194F9C"/>
<path d="M148.198 304.309C148.198 305.64 147.174 306.75 145.571 306.75C145.238 306.763 144.907 306.709 144.595 306.59C144.284 306.472 144 306.292 143.76 306.062C143.52 305.831 143.329 305.554 143.199 305.248C143.068 304.942 143.001 304.612 143.001 304.28C143.001 303.947 143.068 303.617 143.199 303.311C143.329 303.005 143.52 302.728 143.76 302.497C144 302.267 144.284 302.087 144.595 301.969C144.907 301.85 145.238 301.796 145.571 301.809C147.162 301.809 148.183 302.9 148.187 304.309H148.198ZM143.153 324.383V308.674H148.086V324.383H143.153Z" fill="#194F9C"/>
<path d="M151.97 313.676C151.97 311.736 151.916 310.079 151.846 308.674H156.084L156.305 310.851H156.406C156.939 310.051 157.666 309.398 158.518 308.953C159.371 308.508 160.322 308.286 161.284 308.306C164.493 308.306 166.864 310.467 166.864 315.089V324.383H161.982V315.663C161.982 313.676 161.276 312.264 159.51 312.264C158.956 312.264 158.416 312.443 157.971 312.775C157.527 313.106 157.201 313.572 157.042 314.103C156.901 314.502 156.837 314.923 156.852 315.345V324.383H151.97V313.676Z" fill="#194F9C"/>
<path d="M185.813 308.674C185.728 309.699 185.685 310.983 185.685 313.331V322.09C185.685 325.128 185.08 327.604 183.287 329.207C181.572 330.65 179.247 331.147 176.938 331.147C174.885 331.147 172.704 330.701 171.226 329.89L172.219 326.211C173.625 326.99 175.203 327.406 176.81 327.422C179.115 327.422 180.85 326.141 180.85 323.242V322.225H180.799C179.887 323.564 178.358 324.274 176.558 324.274C172.704 324.274 169.903 321.139 169.903 316.583C169.903 311.538 173.217 308.325 177.066 308.325C179.185 308.325 180.539 309.26 181.335 310.553H181.413L181.556 308.694L185.813 308.674ZM180.799 315.089C180.814 314.786 180.782 314.482 180.706 314.189C180.338 312.908 179.422 312.008 178.091 312.008C176.298 312.008 174.885 313.61 174.885 316.498C174.885 318.826 176.049 320.654 178.091 320.654C178.676 320.65 179.243 320.455 179.707 320.098C180.171 319.742 180.506 319.243 180.66 318.679C180.77 318.261 180.817 317.829 180.799 317.398V315.089Z" fill="#194F9C"/>
<path d="M212.159 323.747C211.266 324.22 209.271 324.705 206.609 324.705C199.127 324.705 195.278 320.021 195.278 313.863C195.278 306.49 200.54 302.38 207.09 302.38C209.652 302.38 211.576 302.892 212.407 303.331L211.448 307.188C210.139 306.678 208.747 306.415 207.343 306.412C203.427 306.412 200.412 308.787 200.412 313.579C200.412 317.91 202.977 320.642 207.347 320.642C208.743 320.641 210.129 320.408 211.448 319.951L212.155 323.735L212.159 323.747Z" fill="#194F9C"/>
<path d="M230.184 316.37C230.184 322.082 226.078 324.736 221.856 324.736C217.254 324.736 213.707 321.694 213.707 316.637C213.707 311.581 217.106 308.306 222.116 308.306C226.921 308.306 230.196 311.624 230.196 316.37H230.184ZM218.771 316.505C218.771 319.222 219.935 321.248 221.973 321.248C223.913 321.248 225.104 319.334 225.104 316.505C225.104 314.177 224.208 311.783 221.973 311.783C219.644 311.783 218.771 314.189 218.771 316.505Z" fill="#194F9C"/>
<path d="M233.176 313.676C233.176 311.747 233.132 310.079 233.044 308.674H237.154L237.379 310.789H237.495C238.008 310.004 238.713 309.363 239.544 308.928C240.375 308.493 241.304 308.279 242.241 308.306C244.232 308.306 245.858 309.338 246.541 310.983H246.603C247.165 310.231 247.861 309.589 248.656 309.09C249.547 308.556 250.571 308.286 251.609 308.313C254.62 308.313 256.926 310.475 256.926 315.132V324.391H252.16V315.853C252.16 313.525 251.415 312.26 249.855 312.26C249.354 312.262 248.867 312.426 248.466 312.728C248.065 313.029 247.773 313.452 247.631 313.933C247.491 314.344 247.414 314.775 247.402 315.209V324.379H242.641V315.601C242.641 313.591 241.985 312.264 240.382 312.264C239.874 312.282 239.385 312.459 238.982 312.769C238.579 313.08 238.283 313.508 238.136 313.995C237.974 314.382 237.901 314.801 237.922 315.221V324.383H233.176V313.676Z" fill="#194F9C"/>
<path d="M260.845 313.936C260.845 311.88 260.752 310.106 260.717 308.674H264.951L265.145 310.855H265.207C266.371 309.187 268.168 308.306 270.457 308.306C273.857 308.306 277.004 311.302 277.004 316.308C277.004 322.035 273.337 324.736 269.836 324.736C267.939 324.736 266.48 323.96 265.758 322.936H265.707V330.74H260.845V313.936ZM265.719 317.654C265.714 317.997 265.736 318.339 265.785 318.679C265.939 319.332 266.307 319.916 266.829 320.338C267.352 320.759 268.001 320.995 268.672 321.007C270.779 321.007 272.029 319.222 272.029 316.556C272.029 314.076 270.911 312.155 268.73 312.155C268.033 312.171 267.361 312.424 266.826 312.872C266.291 313.319 265.924 313.936 265.785 314.619C265.738 314.907 265.716 315.198 265.719 315.489V317.67V317.654Z" fill="#194F9C"/>
<path d="M288.964 324.383L288.688 322.8H288.587C287.563 324.069 285.995 324.74 284.09 324.74C280.908 324.74 279.002 322.412 279.002 319.901C279.002 315.861 282.669 313.874 288.23 313.936V313.68C288.23 312.85 287.788 311.662 285.37 311.662C283.847 311.675 282.353 312.084 281.036 312.85L280.139 309.703C282.031 308.744 284.13 308.266 286.251 308.31C291.509 308.31 293.178 311.414 293.178 315.093V320.526C293.148 321.809 293.213 323.093 293.372 324.368L288.964 324.383ZM288.428 316.944C285.863 316.921 283.834 317.538 283.834 319.447C283.834 320.665 284.645 321.294 285.774 321.294C286.332 321.3 286.877 321.13 287.333 320.808C287.788 320.486 288.131 320.029 288.312 319.501C288.384 319.231 288.425 318.954 288.436 318.675V316.944H288.428Z" fill="#194F9C"/>
<path d="M297.028 313.676C297.028 311.736 296.958 310.079 296.904 308.674H301.137L301.327 310.851H301.459C301.987 310.053 302.708 309.4 303.555 308.955C304.403 308.51 305.349 308.287 306.306 308.306C309.523 308.306 311.929 310.467 311.929 315.089V324.383H307.04V315.663C307.04 313.676 306.333 312.264 304.591 312.264C304.033 312.267 303.491 312.446 303.042 312.777C302.593 313.107 302.26 313.572 302.092 314.103C301.955 314.502 301.891 314.923 301.906 315.345V324.383H297.028V313.676Z" fill="#194F9C"/>
<path d="M318.903 308.674L321.274 316.37C321.53 317.309 321.829 318.469 322.05 319.323H322.116C322.345 318.469 322.613 317.274 322.834 316.37L324.774 308.674H330.013L326.326 319.001C324.099 325.256 322.558 327.786 320.804 329.331C319.463 330.485 317.826 331.24 316.078 331.512L315.053 327.336C315.808 327.21 316.528 326.929 317.168 326.51C317.998 326.036 318.702 325.371 319.221 324.569C319.363 324.346 319.449 324.092 319.473 323.828C319.445 323.555 319.359 323.29 319.221 323.052L313.47 308.694L318.903 308.674Z" fill="#194F9C"/>
<path d="M53.5925 245.769H45.222C43.2622 245.769 41.9545 246.802 41.4306 248.75L35.0858 272.453C34.6705 273.962 34.232 275.887 33.7819 278.184H33.5064C32.7302 274.692 32.2995 272.81 32.218 272.526L25.8421 248.761C25.3687 246.821 24.0803 245.769 22.1167 245.769H13.6803C11.4179 245.769 10.1683 246.984 10.0752 249.285L8.37158 290.451H17.1418L18.5699 253.034H18.9308L26.692 281.883C27.2159 283.823 28.5469 284.871 30.5493 284.871H36.7583C38.6986 284.871 40.0219 283.838 40.5419 281.883L48.1829 253.034H48.6757L50.1503 290.051V290.439H58.9943L57.2053 249.285C57.1122 246.984 55.8665 245.769 53.6041 245.769H53.5925ZM84.5482 244.951C77.5631 244.951 72.6153 246.639 69.8406 249.995C67.066 253.352 65.6884 259.421 65.6884 268.114C65.6884 276.807 67.0815 282.923 69.8406 286.233C72.5997 289.543 77.5592 291.278 84.5482 291.278C91.5372 291.278 96.5393 289.589 99.2945 286.233C102.05 282.876 103.451 276.818 103.451 268.114C103.451 259.41 102.054 253.321 99.2945 249.995C96.5354 246.67 91.5333 244.951 84.5482 244.951ZM91.999 280.466C90.6834 282.589 88.1727 283.664 84.5482 283.664C80.9237 283.664 78.4711 282.589 77.175 280.466C75.8129 278.277 75.126 274.133 75.126 268.126C75.126 262.119 75.8129 257.99 77.175 255.793C78.4866 253.674 80.9741 252.595 84.5482 252.595C88.1222 252.595 90.6796 253.674 91.999 255.793C93.3572 257.99 94.0479 262.134 94.0479 268.126C94.0479 274.117 93.3572 278.27 91.999 280.466ZM138.896 271.576C138.095 270.801 137.152 270.188 136.118 269.771C138.652 269.259 140.542 268.161 141.745 266.5C143.087 264.637 143.766 261.932 143.766 258.479C143.766 253.488 142.525 249.992 140.068 248.071C137.612 246.15 133.502 245.215 127.763 245.215C120.778 245.215 115.279 245.405 111.429 245.785L111.041 245.835V290.463H119.943V272.852L127.561 272.922C130.014 272.922 131.577 274.117 132.338 276.539L135.982 290.451H145.517L141.337 276.228C140.887 274.238 140.064 272.67 138.881 271.572L138.896 271.576ZM133.215 264.14C132.237 265.041 130.336 265.514 127.569 265.553H119.951V252.58H127.569C130.347 252.58 132.245 253.022 133.223 253.868C134.201 254.714 134.67 256.433 134.67 258.96C134.67 261.486 134.181 263.228 133.215 264.125V264.14ZM193.473 278.239C193.384 278.883 193.26 279.865 193.112 281.207C192.98 282.29 192.883 283.148 192.802 283.722H192.142C191.96 282.003 191.669 280.136 191.261 278.157L185.751 248.664C185.625 247.85 185.212 247.108 184.587 246.573C183.978 246.041 183.194 245.754 182.386 245.766H174.47C172.576 245.766 171.4 246.767 171.067 248.657L165.552 278.068C165.265 279.511 164.931 281.413 164.567 283.703H163.961C163.756 281.347 163.523 279.434 163.282 278.083L157.954 246.115L157.904 245.766H148.59L156.406 287.886C156.546 288.649 156.981 289.327 157.616 289.772C158.259 290.223 159.028 290.46 159.813 290.447H168.249C169.066 290.466 169.867 290.212 170.523 289.725C171.154 289.27 171.584 288.589 171.722 287.824L177.303 257.26C177.47 256.321 177.737 254.722 178.079 252.452H178.669C178.991 254.598 179.251 256.177 179.445 257.26L185.095 287.839C185.44 289.547 186.612 290.455 188.502 290.455H197.012C197.79 290.466 198.551 290.23 199.186 289.78C199.799 289.31 200.231 288.642 200.408 287.89L208.227 245.773H198.914L193.481 278.227L193.473 278.239ZM223.455 253.791C223.843 253.333 224.592 253.104 225.628 253.104H243.553L243.987 246.208L243.576 246.173C239.637 245.835 232.99 245.661 223.816 245.661C220.774 245.661 218.329 246.437 216.548 247.989C214.766 249.541 213.831 251.695 213.777 254.392V281.859C213.816 284.552 214.751 286.702 216.548 288.262C218.344 289.822 220.774 290.591 223.816 290.591C233.001 290.591 239.649 290.416 243.576 290.075L243.987 290.047L243.553 283.183H225.624C224.588 283.183 223.851 282.957 223.447 282.496C223.044 282.034 222.803 281.161 222.803 279.919V270.567H241.166V263.628H222.807V256.364C222.807 255.118 223.02 254.253 223.455 253.779V253.791ZM279.514 274.544C279.514 276.485 279.608 278.759 279.794 281.242H279.771C279.383 280.319 278.824 279.077 278.121 277.548C277.345 275.852 276.891 274.866 276.767 274.56L264.566 248.451C264.246 247.677 263.748 246.989 263.111 246.445C262.428 245.975 261.61 245.742 260.783 245.781H254.508C252.226 245.781 251.015 246.945 251.015 249.122V290.451H259.847V260.807C259.866 258.836 259.77 256.865 259.56 254.904C260.273 256.965 261.122 258.976 262.102 260.923L274.683 287.781C275.459 289.551 276.705 290.451 278.451 290.451H284.877C287.109 290.451 288.292 289.287 288.292 287.11V245.769H279.514V274.533V274.544ZM325.911 274.544C325.911 276.485 326.012 278.759 326.202 281.242H326.175C325.787 280.319 325.22 279.077 324.518 277.548C323.742 275.852 323.299 274.866 323.16 274.56L310.963 248.451C310.647 247.674 310.148 246.986 309.508 246.445C308.825 245.975 308.007 245.742 307.179 245.781H300.908C298.627 245.781 297.416 246.945 297.416 249.122V290.451H306.264V260.807C306.278 258.835 306.179 256.865 305.969 254.904C306.672 256.966 307.517 258.977 308.495 260.923L321.088 287.781C321.864 289.551 323.125 290.451 324.856 290.451H331.282C333.509 290.451 334.693 289.287 334.693 287.11V245.769H325.923V274.533L325.911 274.544ZM367.182 248.179C366.739 246.604 365.587 245.769 363.844 245.769H355.928C354.193 245.769 353.033 246.604 352.606 248.168L338.993 290.466H348.201L351.907 278.08H367.876L371.567 290.466H380.787L367.182 248.179ZM354.096 270.687L358.419 256.092L359.37 252.661H360.464C360.561 253.081 360.798 254.008 361.368 256.1L365.684 270.687H354.096Z" fill="#E20613"/>
</svg>
