<?xml version="1.0" encoding="utf-8"?>
<!-- Generator: Adobe Illustrator 26.0.1, SVG Export Plug-In . SVG Version: 6.00 Build 0)  -->
<svg version="1.1" id="Слой_1" xmlns="http://www.w3.org/2000/svg" xmlns:xlink="http://www.w3.org/1999/xlink" x="0px" y="0px"
	 viewBox="0 0 283.5 283.5" style="enable-background:new 0 0 283.5 283.5;" xml:space="preserve">
<style type="text/css">
	.st0{fill:#183E75;}
	.st1{fill:#007EB7;}
	.st2{fill:url(#SVGID_1_);}
	.st3{fill:url(#SVGID_00000137092472807470935010000003281092072043164064_);}
	.st4{fill:url(#SVGID_00000003068902222183903000000002894842542869750193_);}
	.st5{fill:url(#SVGID_00000077322642342951074440000012313625716413338291_);}
	.st6{fill:url(#SVGID_00000047032160998543643250000015231487088956207010_);}
	.st7{fill:url(#SVGID_00000072244278122009007330000014595491099643590074_);}
	.st8{fill:url(#SVGID_00000076570117820089990370000017907986732341572026_);}
	.st9{fill:#00538B;}
</style>
<g>
	<polygon class="st0" points="18.1,134.3 7.7,125.2 7.8,176.6 18.2,172.4 	"/>
	<polygon class="st0" points="265.4,134.3 265.3,172.2 142,194.4 142,200.1 275.7,176.6 275.8,125.2 	"/>
	<polygon class="st1" points="47.8,166.8 242.4,166.8 142,186.2 	"/>
	<polygon class="st1" points="18.1,172.2 7.8,176.6 142,200.1 142,194.4 	"/>
	<linearGradient id="SVGID_1_" gradientUnits="userSpaceOnUse" x1="60.9382" y1="125.2505" x2="93.8106" y2="68.3138">
		<stop  offset="0" style="stop-color:#C51718"/>
		<stop  offset="1" style="stop-color:#921913"/>
	</linearGradient>
	<polygon class="st2" points="48.7,151.7 37.7,134.1 30.1,134.1 30.1,158.6 35.5,158.6 35.5,140.6 47.1,158.6 50.3,158.6 62,140.5 
		62,158.6 67.3,158.6 67.3,134.1 59.8,134.1 	"/>
	
		<linearGradient id="SVGID_00000067942798742842535930000011400316836171803551_" gradientUnits="userSpaceOnUse" x1="89.0835" y1="141.4063" x2="121.924" y2="84.5248">
		<stop  offset="0" style="stop-color:#C51718"/>
		<stop  offset="1" style="stop-color:#921913"/>
	</linearGradient>
	<path style="fill:url(#SVGID_00000067942798742842535930000011400316836171803551_);" d="M85.7,134.8c-6.2,0-9.8,0.7-11.4,2.2
		c-1.6,1.5-2.3,4.8-2.3,10.3c0,5.5,0.8,8.9,2.5,10.4c1.7,1.5,5.2,2.2,11.2,2.2c6,0,9.5-0.7,11.2-2.2c1.6-1.5,2.4-4.9,2.4-10.4
		c0-5.5-0.8-8.8-2.3-10.3C95.4,135.5,91.8,134.8,85.7,134.8z M94,147.4c0,4.9-0.7,6.1-1,6.4c-0.4,0.3-1.8,1.2-7.3,1.2
		c-5.3,0-6.9-0.9-7.4-1.4c-0.3-0.3-1-1.6-1-6.2c0-5.3,0.7-6.4,1-6.6c0.2-0.2,1.5-0.9,7.4-0.9c5.6,0,6.9,0.7,7.2,1
		C93.2,141,94,142.2,94,147.4z"/>
	
		<linearGradient id="SVGID_00000085227385862986465640000015082463384379137411_" gradientUnits="userSpaceOnUse" x1="109.2874" y1="152.9775" x2="142.1305" y2="96.0915">
		<stop  offset="0" style="stop-color:#C51718"/>
		<stop  offset="1" style="stop-color:#921913"/>
	</linearGradient>
	<path style="fill:url(#SVGID_00000085227385862986465640000015082463384379137411_);" d="M122.4,135.1h-19.3v24.5h5.3v-8.2h13.8
		c2.3,0,4.2-0.7,5.5-2.1c1.3-1.4,2-3.4,2-6c0-2.7-0.7-4.7-2-6.1C126.5,135.8,124.6,135.1,122.4,135.1z M124.4,143.2
		c0,1.2-0.2,2.1-0.6,2.5l0,0c-0.4,0.4-0.9,0.6-1.6,0.6h-13.8v-6.3h13.8c0.7,0,1.2,0.2,1.5,0.6C124.2,141.2,124.4,142.1,124.4,143.2z
		"/>
	
		<linearGradient id="SVGID_00000041258334835820038240000016386320876869931418_" gradientUnits="userSpaceOnUse" x1="133.6775" y1="166.9657" x2="166.5225" y2="110.0765">
		<stop  offset="0" style="stop-color:#C51718"/>
		<stop  offset="1" style="stop-color:#921913"/>
	</linearGradient>
	<path style="fill:url(#SVGID_00000041258334835820038240000016386320876869931418_);" d="M152,144.5h-13.9v-4.4h19.6v-5h-24.9v24.5
		H152c2.3,0,4.2-0.5,5.5-1.5c1.7-1.3,2.5-3.3,2.5-6c0-2.7-0.8-4.7-2.5-6C156.2,145,154.3,144.5,152,144.5z M154.7,152.1
		c0,0.8-0.2,1.4-0.7,1.8l0,0c-0.5,0.5-1.2,0.7-2,0.7h-13.8v-5H152c0.8,0,1.4,0.2,2,0.7C154.4,150.6,154.7,151.2,154.7,152.1z"/>
	
		<linearGradient id="SVGID_00000165952181262536209650000010556636058144669366_" gradientUnits="userSpaceOnUse" x1="162.5742" y1="183.5502" x2="195.4031" y2="126.6889">
		<stop  offset="0" style="stop-color:#C51718"/>
		<stop  offset="1" style="stop-color:#921913"/>
	</linearGradient>
	<path style="fill:url(#SVGID_00000165952181262536209650000010556636058144669366_);" d="M173.8,135.1L161,159.6h6l2.6-5h14.8
		l2.7,5h6l-12.9-24.5H173.8z M182,149.6h-9.8l4.9-9.5L182,149.6z"/>
	
		<linearGradient id="SVGID_00000004542815455634475140000002515719102665253034_" gradientUnits="userSpaceOnUse" x1="180.8061" y1="193.9751" x2="213.6479" y2="137.0914">
		<stop  offset="0" style="stop-color:#C51718"/>
		<stop  offset="1" style="stop-color:#921913"/>
	</linearGradient>
	<path style="fill:url(#SVGID_00000004542815455634475140000002515719102665253034_);" d="M221.3,142.3c0-2.3-0.8-4-2.3-5.3
		c-1.2-1-2.9-1.6-5.2-1.9c-1.3-0.2-3.4-0.3-6.2-0.3c-5.8,0-9.3,0.5-10.9,1.5c-1.8,1.1-2.7,3.6-2.7,7.6v1h5.3v-1c0-2,0.4-3.2,1.1-3.6
		c0.3-0.2,1.7-0.6,7.2-0.6c4.5,0,6.4,0.3,7.2,0.6c0.9,0.3,1.2,0.8,1.2,1.9c0,1.4-0.5,1.8-0.9,2c-0.4,0.2-1.2,0.4-3.1,0.4h-11.3v5
		H212c1.8,0,2.7,0.3,3.1,0.5c0.4,0.2,0.9,0.7,0.9,2.1c0,1.1-0.4,1.7-1.3,2c-0.8,0.3-2.7,0.6-7.1,0.6c-5.2,0-6.8-0.4-7.2-0.6
		c-0.7-0.3-1-1.6-1-3.5v-1H194v1c0,4,0.9,6.5,2.7,7.6c1.7,1,5.1,1.5,10.9,1.5c3.4,0,5.8-0.1,7.2-0.3c2.2-0.3,3.8-1,4.9-2.1
		c1.1-1.1,1.6-2.9,1.6-5.2c0-1.5-0.2-2.6-0.7-3.5c-0.3-0.5-0.6-1-1-1.4c0.4-0.4,0.8-0.9,1.1-1.4
		C221.1,145.1,221.3,143.9,221.3,142.3z"/>
	
		<linearGradient id="SVGID_00000159452640504417643640000016889926071449735065_" gradientUnits="userSpaceOnUse" x1="208.5523" y1="209.8874" x2="241.3811" y2="153.0262">
		<stop  offset="0" style="stop-color:#C51718"/>
		<stop  offset="1" style="stop-color:#921913"/>
	</linearGradient>
	<path style="fill:url(#SVGID_00000159452640504417643640000016889926071449735065_);" d="M241.4,135.1H235l-12.9,24.5h6l2.6-5h14.8
		l2.7,5h6L241.4,135.1z M243.1,149.6h-9.8l4.9-9.5L243.1,149.6z"/>
	<path class="st9" d="M266.4,124.7L225.8,107l-16-22.8c-0.4-0.5-1-0.8-1.8-0.8H75.4c-0.7,0-1.4,0.3-1.8,0.8l-16,22.8l-40.5,17.7
		l-0.3,0.1l0.1,47.9L142,195l124.4-22.2l0.1-47.9L266.4,124.7z M221.1,107H195l13.1-18.6L221.1,107z M204.6,86.7l-13.1,18.6
		l-13.1-18.6H204.6z M188,107h-26.2l13.1-18.6L188,107z M171.4,86.7l-13.1,18.6l-13.1-18.6H171.4z M141.8,88.4l13.1,18.6h-26.1
		L141.8,88.4z M138.2,86.7l-13.1,18.6l-13.1-18.6H138.2z M121.7,107H95.5l13.1-18.6L121.7,107z M105.1,86.7L92,105.4L78.9,86.7
		H105.1z M75.4,88.4L88.5,107H62.4L75.4,88.4z M56.9,111.6h169.7l3.5,9.3H53.4L56.9,111.6z M257.8,168.9L142,189.4L25.5,168.9
		l-0.1-43.7h232.4L257.8,168.9z"/>
</g>
</svg>
