<?xml version="1.0" encoding="utf-8"?>
<!-- Generator: Adobe Illustrator 26.0.1, SVG Export Plug-In . SVG Version: 6.00 Build 0)  -->
<svg version="1.1" id="Слой_1" xmlns="http://www.w3.org/2000/svg" xmlns:xlink="http://www.w3.org/1999/xlink" x="0px" y="0px"
	 viewBox="0 0 283.5 283.5" style="enable-background:new 0 0 283.5 283.5;" xml:space="preserve">
<style type="text/css">
	.st0{fill-rule:evenodd;clip-rule:evenodd;fill:#1754A4;}
	.st1{fill-rule:evenodd;clip-rule:evenodd;fill:#FFFFFF;}
	.st2{fill-rule:evenodd;clip-rule:evenodd;fill:#D8D9DA;}
	.st3{fill-rule:evenodd;clip-rule:evenodd;fill:#F5A11D;}
</style>
<path class="st0" d="M265.4,154.3v68H19.6v-67.5c10.4,3.6,19.5,7.7,40.7,3.9c10.6-1.9,18.9-7.1,29.5-7.8c23.7-1.4,35.3,14,63.6,8.1
	c19.4-4,26.1-11.3,46.7-7.2c4.2,0.8,9.1,3.4,13.9,4.7c9.7,2.7,21.5,5.5,33,3C254.7,158,260.4,156,265.4,154.3z"/>
<path class="st1" d="M47.7,186.5l-3.3,7h6.4L47.7,186.5z M33.3,205.1l11.6-27h5.6l11.5,27h-7.3l-2.4-5.7h-9.4l-2.3,5.7H33.3z"/>
<polygon class="st1" points="65,177.9 87.9,177.9 87.9,205.1 81.6,205.1 81.6,183.5 71.3,183.5 71.3,205.1 65,205.1 "/>
<polygon class="st1" points="112.7,199.6 112.7,205.1 93.6,205.1 93.6,177.9 112.4,177.9 112.4,183.5 99.9,183.5 99.9,188.7 
	110.6,188.7 110.6,193.8 99.9,193.8 99.9,199.6 "/>
<path class="st1" d="M126.6,187.4c-0.3,3.5-0.8,6.3-1.2,8.6c-0.5,2.3-1.2,4.2-2,5.6c-0.9,1.4-2,2.4-3.3,3c-1.3,0.6-3,0.9-5.1,0.9
	l-0.2-5.5c0.9-0.1,1.7-0.3,2.3-0.7c0.6-0.3,1.2-1,1.6-2c0.4-1,0.8-2.4,1.1-4.2c0.3-1.8,0.6-4.2,0.9-7.3l0.7-7.8h17.7v27.2h-6.3
	v-21.7H127L126.6,187.4z"/>
<path class="st1" d="M151,199.8h4.3c1.3,0,2.2-0.3,2.8-1c0.6-0.7,0.9-1.6,0.9-2.8c0-1.1-0.3-2-1-2.7c-0.6-0.7-1.6-1.1-2.8-1.1H151
	V199.8z M144.7,177.9h6.3v9.3h4.8c1.5,0,2.8,0.2,4,0.6c1.2,0.4,2.2,1,3,1.7c0.8,0.8,1.5,1.7,2,2.8c0.5,1.1,0.7,2.3,0.7,3.7
	c0,1.4-0.2,2.7-0.7,3.8c-0.4,1.1-1.1,2.1-1.9,2.9c-0.8,0.8-1.8,1.4-3,1.8c-1.1,0.4-2.4,0.6-3.8,0.6h-11.4V177.9z"/>
<path class="st1" d="M167.7,191.3c0-1.6,0.3-3.3,0.9-4.9c0.6-1.6,1.5-3.1,2.7-4.3c1.2-1.3,2.6-2.3,4.3-3.1c1.7-0.8,3.6-1.2,5.7-1.2
	c2.6,0,4.8,0.5,6.6,1.6c1.9,1.1,3.3,2.5,4.2,4.3l-4.8,3.4c-0.3-0.7-0.7-1.3-1.2-1.8c-0.5-0.5-1-0.9-1.6-1.1
	c-0.6-0.3-1.1-0.5-1.7-0.6c-0.6-0.1-1.2-0.2-1.7-0.2c-1.2,0-2.2,0.2-3.1,0.7c-0.9,0.5-1.6,1.1-2.2,1.9c-0.6,0.8-1,1.6-1.3,2.6
	c-0.3,1-0.4,2-0.4,2.9c0,1.1,0.2,2.1,0.5,3.1c0.3,1,0.8,1.9,1.4,2.6c0.6,0.8,1.4,1.4,2.3,1.8c0.9,0.4,1.9,0.7,3,0.7
	c0.6,0,1.1-0.1,1.7-0.2c0.6-0.1,1.2-0.4,1.7-0.7c0.5-0.3,1-0.7,1.5-1.1c0.5-0.5,0.8-1.1,1.1-1.7l5.1,3c-0.4,1-1,1.9-1.8,2.7
	c-0.8,0.8-1.7,1.5-2.8,2c-1,0.5-2.2,0.9-3.3,1.2c-1.2,0.3-2.3,0.4-3.5,0.4c-2,0-3.8-0.4-5.4-1.2c-1.7-0.8-3.1-1.9-4.3-3.2
	c-1.2-1.3-2.1-2.8-2.8-4.5C168,194.8,167.7,193,167.7,191.3z"/>
<polygon class="st1" points="202.4,195.4 215.2,177.9 219.9,177.9 219.9,205.1 213.6,205.1 213.6,188.1 200.9,205.1 196.1,205.1 
	196.1,177.9 202.4,177.9 "/>
<polygon class="st1" points="249,177.9 249,205.1 242.7,205.1 242.7,194 231.9,194 231.9,205.1 225.6,205.1 225.6,177.9 
	231.9,177.9 231.9,188.5 242.7,188.5 242.7,177.9 "/>
<g>
	<polygon class="st2" points="19,92.6 266,92.6 259.1,101.7 25.9,101.7 	"/>
	<polygon class="st2" points="31.2,108.6 253.8,108.6 246.8,117.7 38.2,117.7 	"/>
	<polygon class="st2" points="42.4,124.2 241.9,124.2 234.9,133.3 49.2,133.3 	"/>
	<path class="st1" d="M142.5,62.4c24.9,0,45.1,20.2,45.1,45.1c0,24.9-20.2,45.1-45.1,45.1c-24.9,0-45.1-20.2-45.1-45.1
		C97.4,82.6,117.6,62.4,142.5,62.4z"/>
	<path class="st3" d="M135.2,98.6l-18.9-18.9c-1.5-1.5-1.4-4,0.2-5.4c6.1-5,13.4-7.9,20.9-8.7c2.2-0.2,4,1.5,4,3.7V96
		c0,2.2-1.8,3.7-3.7,3.7C136.8,99.7,135.9,99.3,135.2,98.6z M143,96V69.3c0-2.2,1.8-3.9,4-3.7c7.9,0.8,15.1,3.9,20.9,8.6
		c1.7,1.4,1.8,3.9,0.3,5.5l-18.9,18.9c-0.7,0.8-1.7,1.1-2.6,1.1C144.8,99.7,143,98.2,143,96z M104.7,106c-2.2,0-3.9-1.8-3.7-4
		c0.8-7.9,3.9-15,8.6-20.9c1.4-1.7,3.9-1.8,5.5-0.3L134,99.7c2.3,2.3,0.7,6.3-2.6,6.3H104.7z M153,106c-3.3,0-4.9-3.9-2.6-6.3
		l18.9-18.9c1.5-1.5,4-1.4,5.4,0.2c5,6.1,7.9,13.4,8.7,20.9c0.2,2.2-1.5,4-3.7,4H153z"/>
	<path class="st3" d="M135.7,116.3l-18.9,18.9c-1.5,1.5-1.4,4,0.2,5.4c6.1,5,13.4,7.9,20.9,8.7c2.2,0.2,4-1.5,4-3.7v-26.7
		c0-2.2-1.8-3.7-3.7-3.7C137.4,115.3,136.4,115.6,135.7,116.3z M143.6,118.9v26.7c0,2.2,1.8,3.9,4,3.7c7.9-0.8,15-3.9,20.9-8.6
		c1.7-1.4,1.8-3.9,0.3-5.5l-18.9-18.9c-0.8-0.7-1.7-1.1-2.6-1.1C145.4,115.3,143.6,116.7,143.6,118.9z M105.3,108.9
		c-2.2,0-3.9,1.8-3.7,4c0.8,7.9,3.9,15,8.6,20.9c1.4,1.7,3.9,1.8,5.5,0.3l18.9-18.9c2.3-2.3,0.7-6.3-2.6-6.3H105.3z M153.6,108.9
		c-3.3,0-4.9,3.9-2.6,6.3l18.9,18.9c1.5,1.5,4,1.4,5.4-0.2c5-6.1,7.9-13.4,8.7-20.9c0.2-2.2-1.5-4-3.7-4H153.6z"/>
</g>
</svg>
