<?xml version="1.0" encoding="utf-8"?>
<!-- Generator: Adobe Illustrator 26.0.1, SVG Export Plug-In . SVG Version: 6.00 Build 0)  -->
<svg version="1.1" id="Слой_1" xmlns="http://www.w3.org/2000/svg" xmlns:xlink="http://www.w3.org/1999/xlink" x="0px" y="0px"
	 viewBox="0 0 283.5 283.5" style="enable-background:new 0 0 283.5 283.5;" xml:space="preserve">
<style type="text/css">
	.st0{fill-rule:evenodd;clip-rule:evenodd;fill:#FFFFFF;}
	.st1{fill:#222323;}
</style>
<path class="st0" d="M47.7,186.5l-3.3,7h6.4L47.7,186.5z M33.3,205.1l11.6-27h5.6l11.5,27h-7.3l-2.4-5.7h-9.4l-2.3,5.7H33.3z"/>
<g>
	<path class="st1" d="M12.1,87.7v14.4h1.5l12.6-14.4h5.7L18,102.6c6.1,0.7,8.4,4,10.3,8.4c1.4,3.3,2.4,6.3,4,9.2h-5.1
		c-1.3-2.2-2.4-5.1-3.3-7.7c-1.7-4.3-4-7.2-10.3-7.2h-1.5v14.9H7.4V87.7H12.1z"/>
	<path class="st1" d="M66,103.6c0,11.2-7.7,17.1-17.1,17.1c-9.7,0-16.6-6.7-16.6-16.5c0-10.3,7.3-17.1,17.1-17.1
		C59.5,87.2,66,94,66,103.6 M37.4,104.2c0,6.9,4.3,13.2,11.7,13.2c7.5,0,11.8-6.1,11.8-13.5c0-6.5-3.8-13.2-11.7-13.2
		C41.3,90.6,37.4,97,37.4,104.2"/>
	<path class="st1" d="M101.5,105.9c-0.3-4.5-0.6-10-0.5-14h-0.2c-1.3,3.8-2.8,7.9-4.6,12.4L89.6,120H86l-6-15.5
		c-1.7-4.6-3.2-8.8-4.3-12.6h-0.1c-0.1,4.1-0.4,9.5-0.7,14.4l-1,13.9h-4.5L72,87.7h6.1l6.3,15.7c1.5,4,2.8,7.6,3.7,11h0.2
		c0.9-3.3,2.2-6.8,3.9-11l6.6-15.7h6.1l2.3,32.5h-4.6L101.5,105.9z"/>
	<polygon class="st1" points="139.5,87.7 139.5,120.2 134.7,120.2 134.7,91.2 117.6,91.2 117.6,120.2 112.9,120.2 112.9,87.7 	"/>
	<path class="st1" d="M152.2,110l-3.8,10.2h-4.9L156,87.7h5.7l12.6,32.5h-5.1l-3.9-10.2H152.2z M164.3,106.7l-3.6-9.4
		c-0.8-2.1-1.4-4.1-1.9-5.9h-0.1c-0.5,1.9-1.1,3.9-1.9,5.9l-3.6,9.4H164.3z"/>
	<path class="st1" d="M8.5,129.1v2.9h0.3l2.6-2.9h1.2l-2.9,3c1.2,0.1,1.7,0.8,2.1,1.7c0.3,0.7,0.5,1.3,0.8,1.9h-1.1
		c-0.3-0.5-0.5-1-0.7-1.6c-0.3-0.9-0.8-1.5-2.1-1.5H8.5v3h-1v-6.6H8.5z"/>
	<path class="st1" d="M19.8,132.3c0,2.3-1.6,3.5-3.5,3.5c-2,0-3.4-1.4-3.4-3.4c0-2.1,1.5-3.5,3.5-3.5
		C18.5,129,19.8,130.4,19.8,132.3 M13.9,132.4c0,1.4,0.9,2.7,2.4,2.7c1.6,0,2.4-1.3,2.4-2.8c0-1.3-0.8-2.7-2.4-2.7
		C14.8,129.7,13.9,131,13.9,132.4"/>
	<polygon class="st1" points="22,129.1 22,131.9 25.7,131.9 25.7,129.1 26.7,129.1 26.7,135.7 25.7,135.7 25.7,132.6 22,132.6 
		22,135.7 21,135.7 21,129.1 	"/>
	<path class="st1" d="M33.6,135.5c-0.4,0.2-1.1,0.3-2,0.3c-2.1,0-3.8-1.2-3.8-3.4c0-2.1,1.6-3.5,4-3.5c0.9,0,1.5,0.2,1.8,0.3
		l-0.2,0.7c-0.4-0.2-0.9-0.3-1.5-0.3c-1.8,0-3,1-3,2.7c0,1.6,1.1,2.7,2.9,2.7c0.6,0,1.2-0.1,1.6-0.3L33.6,135.5z"/>
	<polygon class="st1" points="36.5,129.8 34.2,129.8 34.2,129.1 39.8,129.1 39.8,129.8 37.5,129.8 37.5,135.7 36.5,135.7 	"/>
	<path class="st1" d="M40.7,129.2c0.5-0.1,1.1-0.1,1.9-0.1c1,0,1.7,0.2,2.1,0.6c0.4,0.3,0.7,0.8,0.7,1.4c0,0.6-0.2,1.1-0.6,1.4
		c-0.5,0.5-1.4,0.7-2.3,0.7c-0.3,0-0.6,0-0.8-0.1v2.6h-1V129.2z M41.7,132.4c0.2,0,0.5,0.1,0.8,0.1c1.2,0,1.9-0.5,1.9-1.4
		c0-0.9-0.7-1.3-1.8-1.3c-0.4,0-0.8,0-0.9,0.1V132.4z"/>
	<path class="st1" d="M46.9,129.1l1.5,2.8c0.2,0.4,0.4,0.8,0.6,1.2h0c0.1-0.3,0.3-0.7,0.5-1.2l1.2-2.8h1l-1.6,3.4
		c-0.4,0.9-0.9,1.9-1.4,2.5c-0.5,0.5-1,0.8-1.7,0.8c-0.3,0-0.4,0-0.6-0.1l0.1-0.7c0.1,0,0.2,0,0.4,0c0.8,0,1.3-0.7,1.5-1.1
		c0.1-0.1,0.1-0.2,0-0.4l-2.5-4.5H46.9z"/>
	<path class="st1" d="M53.5,129.1v2.9h0.3l2.6-2.9h1.2l-2.9,3c1.2,0.1,1.7,0.8,2.1,1.7c0.3,0.7,0.5,1.3,0.8,1.9h-1.1
		c-0.3-0.5-0.5-1-0.7-1.6c-0.3-0.9-0.8-1.5-2.1-1.5h-0.3v3h-1v-6.6H53.5z"/>
	<polygon class="st1" points="60.4,129.8 58.1,129.8 58.1,129.1 63.7,129.1 63.7,129.8 61.4,129.8 61.4,135.7 60.4,135.7 	"/>
	<path class="st1" d="M70.8,132.3c0,2.3-1.6,3.5-3.5,3.5c-2,0-3.4-1.4-3.4-3.4c0-2.1,1.5-3.5,3.5-3.5
		C69.5,129,70.8,130.4,70.8,132.3 M64.9,132.4c0,1.4,0.9,2.7,2.4,2.7c1.6,0,2.4-1.3,2.4-2.8c0-1.3-0.8-2.7-2.4-2.7
		C65.7,129.7,64.9,131,64.9,132.4"/>
	<path class="st1" d="M72,129.2c0.5-0.1,1.1-0.1,1.9-0.1c1,0,1.7,0.2,2.1,0.6c0.4,0.3,0.7,0.8,0.7,1.4c0,0.6-0.2,1.1-0.6,1.4
		c-0.5,0.5-1.4,0.7-2.3,0.7c-0.3,0-0.6,0-0.8-0.1v2.6h-1V129.2z M73,132.4c0.2,0,0.5,0.1,0.8,0.1c1.2,0,1.9-0.5,1.9-1.4
		c0-0.9-0.7-1.3-1.8-1.3c-0.4,0-0.8,0-0.9,0.1V132.4z"/>
	<path class="st1" d="M83.3,135.5c-0.4,0.2-1.1,0.3-2,0.3c-2.1,0-3.8-1.2-3.8-3.4c0-2.1,1.6-3.5,4-3.5c0.9,0,1.5,0.2,1.8,0.3L83,130
		c-0.4-0.2-0.9-0.3-1.5-0.3c-1.8,0-3,1-3,2.7c0,1.6,1.1,2.7,2.9,2.7c0.6,0,1.2-0.1,1.6-0.3L83.3,135.5z"/>
	<path class="st1" d="M85.3,129.1v2.9h0.3l2.6-2.9h1.2l-2.9,3c1.2,0.1,1.7,0.8,2.1,1.7c0.3,0.7,0.5,1.3,0.8,1.9h-1.1
		c-0.3-0.5-0.5-1-0.7-1.6c-0.3-0.9-0.8-1.5-2.1-1.5h-0.3v3h-1v-6.6H85.3z"/>
	<path class="st1" d="M96.6,132.3c0,2.3-1.6,3.5-3.5,3.5c-2,0-3.4-1.4-3.4-3.4c0-2.1,1.5-3.5,3.5-3.5
		C95.3,129,96.6,130.4,96.6,132.3 M90.7,132.4c0,1.4,0.9,2.7,2.4,2.7c1.6,0,2.4-1.3,2.4-2.8c0-1.3-0.8-2.7-2.4-2.7
		C91.5,129.7,90.7,131,90.7,132.4"/>
	<polygon class="st1" points="101.7,132.6 98.8,132.6 98.8,135 102.1,135 102.1,135.7 97.8,135.7 97.8,129.1 101.9,129.1 
		101.9,129.8 98.8,129.8 98.8,131.9 101.7,131.9 	"/>
	<path class="st1" d="M11.8,140.9v0.7H8.5v1.8c0.2,0,0.7,0,0.9,0c0.7,0,1.4,0.1,2,0.4c0.6,0.3,1,0.8,1,1.6c0,0.6-0.2,1.1-0.6,1.4
		c-0.6,0.5-1.6,0.7-2.7,0.7c-0.7,0-1.2,0-1.5-0.1v-6.6H11.8z M8.5,146.8c0.2,0,0.5,0,0.8,0c0.6,0,1.2-0.2,1.6-0.5
		c0.3-0.2,0.4-0.6,0.4-1c0-0.5-0.2-0.9-0.6-1.1c-0.4-0.2-0.9-0.3-1.4-0.3c-0.2,0-0.5,0-0.8,0V146.8z"/>
	<path class="st1" d="M14.5,140.9v2.9h1.1c0.2-1.8,1.4-3,3.2-3c2,0,3.2,1.4,3.2,3.4c0,2.3-1.5,3.5-3.3,3.5c-1.8,0-3.1-1.2-3.2-3.2
		h-1.1v3h-1v-6.6H14.5z M21,144.2c0-1.3-0.7-2.7-2.2-2.7c-1.5,0-2.2,1.3-2.2,2.8c0,1.4,0.8,2.7,2.2,2.7
		C20.2,146.9,21,145.7,21,144.2"/>
	<path class="st1" d="M23.2,141c0.5-0.1,1.1-0.1,1.9-0.1c1,0,1.7,0.2,2.1,0.6c0.4,0.3,0.7,0.8,0.7,1.4c0,0.6-0.2,1.1-0.6,1.4
		c-0.5,0.5-1.4,0.7-2.3,0.7c-0.3,0-0.6,0-0.8-0.1v2.6h-1V141z M24.2,144.1c0.2,0,0.5,0.1,0.8,0.1c1.2,0,1.9-0.5,1.9-1.4
		c0-0.9-0.7-1.3-1.8-1.3c-0.4,0-0.8,0-0.9,0.1V144.1z"/>
	<path class="st1" d="M35.7,144.1c0,2.3-1.6,3.5-3.5,3.5c-2,0-3.4-1.4-3.4-3.4c0-2.1,1.5-3.5,3.5-3.5
		C34.3,140.8,35.7,142.1,35.7,144.1 M29.8,144.2c0,1.4,0.9,2.7,2.4,2.7c1.6,0,2.4-1.3,2.4-2.8c0-1.3-0.8-2.7-2.4-2.7
		C30.6,141.5,29.8,142.8,29.8,144.2"/>
	<path class="st1" d="M223.5,163l7.6-3.9l-1.6-3.2c-1.5,0.9-7.3,3.9-7.3,3.9c-0.4,0.2-0.6,0.2-0.8-0.3c-0.9-2.4-1.8-4.7-2.7-7
		c-4.5-11.9-14.1-37-14.1-37l-0.8-0.3c0,0,0.4-0.4,0.7-0.7c0.5-0.5,0.9-1,1.3-1.5l-3.1-1.6c-2.6,3-6.5,4.7-10.4,4.7
		c-7.3-0.1-13.1-5.7-13.1-12.8c-0.1-6.4,5.3-12.7,13.2-12.7c3,0,5.7,0.9,7.9,2.5l2.8-2.2c-1.1-0.9-2.4-1.6-3.8-2.3
		c-1.4-0.6-2.8-1-4.4-1.2c-0.5-0.1-0.7-0.1-0.7-0.1s0.1-2.8,0.1-2.8c0-0.8,0-1.6,0-2.4l-3.7,0c0,1.5,0.1,3.8,0.1,5.3
		c0,0-0.2,0-0.9,0.1c-9.9,1.5-16.3,11-13.5,20.5c0.8,2.6,2.1,4.8,4.1,6.7l-0.2,0.4c0,0-7.6,19.9-10.9,28.5
		c-4.4,11.8-9.8,26.7-14.2,38.5l3.7,1.7l-1.8,4.3l3.5,1.5l1.9-4.4l4.1,1.5c2.7-7.2,7-18.5,9.6-25.5c0.2-0.5,9.9,4,14.8,5.1
		c3.9,0.9,7.8,1.3,11.7,1.4c2.5,0,5.6-0.2,8.1-0.7c0,0,1.6,3.6,2.1,5.1c1.4,3.6,4.7,12.8,5.3,13.9l4.9-1.5c0,0.9-0.1,4-0.1,5.4h3.9
		c0-1.4,0-6.4,0-6.4l3.8-1.1c-0.3-0.8-5.6-13.7-7.4-18.4C222.9,163.6,222.9,163.3,223.5,163 M171.5,163.2c-2.3,6-4.6,12.1-6.8,18.1
		c-0.2,0.6-0.5,0.7-1.1,0.4c-1.2-0.5-2.4-0.9-3.7-1.3c-0.5-0.2-0.6-0.4-0.4-0.8c2.6-6.9,5.2-13.8,7.8-20.7
		c4-10.7,8.1-21.4,12.1-32.1c1-2.7,2.1-5.5,3.1-8.2c0.2-0.5,0.4-0.6,0.9-0.4c1.3,0.5,2.5,0.9,3.8,1.3c0.2,0.1,0.5,0.1,0.5,0.5
		c0,0.1-0.1,0.3-0.1,0.4C182.2,134.7,176.9,149,171.5,163.2 M202.6,164.2c-10.1,0-25.4-5.9-25.2-6.4c3.7-9.4,15.2-37.6,15.2-37.6
		s12.1,30.4,17,43.3C209.5,163.5,205.8,164.3,202.6,164.2 M212.9,162.4c-1-2.6-2-5.2-3-7.9c-4.2-11.1-8.4-22.2-12.6-33.3
		c-0.6-1.6-0.7-1.3,0.9-1.9c1-0.4,2-0.7,3-1.1c0.5-0.2,0.7-0.1,0.9,0.4c2.2,5.9,4.5,11.9,6.7,17.8c3.1,8.1,6.1,16.2,9.2,24.3
		c0.1,0.2,0.1,0.4,0.2,0.5c0,0.3-0.2,0.4-0.4,0.4c-1.4,0.5-2.8,0.9-4.2,1.3C213.1,163.1,213,162.7,212.9,162.4 M225.2,179.7
		c0,0.1,0.1,0.2,0.1,0.3c0,0.3-0.2,0.3-0.3,0.4c-1.4,0.5-2.8,1-4.1,1.5c-0.6,0.2-0.6-0.2-0.8-0.5c-1.2-3.2-2.4-6.3-3.6-9.5
		c-0.6-1.7-1.2-3.3-1.9-5c-0.2-0.4-0.1-0.6,0.4-0.8c1.3-0.3,2.6-0.7,3.9-1.2c0.5-0.2,0.8-0.1,0.9,0.4
		C221.6,170.2,223.4,175,225.2,179.7"/>
	<path class="st1" d="M149.9,84.2L149.9,84.2C149.9,84.2,149.9,84.2,149.9,84.2C149.9,84.2,149.9,84.2,149.9,84.2"/>
	<path class="st1" d="M146.7,86.4c0,0,0.1-0.1,0.1-0.1C146.8,86.3,146.8,86.3,146.7,86.4"/>
	<path class="st1" d="M142.9,89.5c0,0,0.1,0,0.1-0.1C142.9,89.5,142.9,89.5,142.9,89.5z"/>
	<path class="st1" d="M137.7,94.8C137.7,94.7,137.7,94.7,137.7,94.8C137.7,94.7,137.7,94.7,137.7,94.8"/>
	<path class="st1" d="M144.8,88c0,0,0.1-0.1,0.1-0.1C144.9,87.9,144.8,87.9,144.8,88z"/>
	<path class="st1" d="M147.5,85.4c0,0,0.1-0.1,0.1-0.1C147.6,85.3,147.5,85.3,147.5,85.4z"/>
	<path class="st1" d="M135.7,94.7C135.7,94.7,135.7,94.7,135.7,94.7C135.7,94.7,135.7,94.7,135.7,94.7
		C135.7,94.7,135.7,94.8,135.7,94.7C135.7,94.7,135.7,94.7,135.7,94.7"/>
	<path class="st1" d="M138.3,93.5L138.3,93.5C138.2,93.5,138.2,93.5,138.3,93.5C138.2,93.5,138.2,93.5,138.3,93.5"/>
	<path class="st1" d="M140.2,88.2L140.2,88.2c0,0.1,0,0.1-0.1,0.2C140.1,88.3,140.2,88.3,140.2,88.2"/>
	<path class="st1" d="M263.6,143.1v-0.8h-6.4c0-0.2,0-0.4,0-0.6c0-1.6-0.1-3.3-0.2-4.9l0,0.2l6.4-0.6l0-0.3l-6.4,0.6
		c-0.1-1.9-0.3-3.7-0.6-5.5l6.3-1.1l0-0.3l-6.3,1.1c-0.3-1.8-0.7-3.7-1.1-5.5l6.1-1.6l-0.1-0.3l-6.1,1.6c-0.5-1.8-1-3.6-1.6-5.3
		l5.9-2.2l-0.1-0.2l-5.9,2.2c-0.6-1.8-1.3-3.5-2.1-5.2l5.7-2.7l-0.1-0.2l-5.7,2.7c-0.7-1.6-1.5-3.2-2.4-4.8l5.5-3.2l-0.1-0.2
		l-0.1-0.1l-0.2-0.3l-5.4,3.1c-0.9-1.5-1.8-3.1-2.8-4.5l5.1-3.6l-0.2-0.2l-5.1,3.6c-1-1.5-2.1-3-3.3-4.5l4.8-4l-0.2-0.2l-4.8,4
		c-1.2-1.4-2.4-2.8-3.7-4.1l4.4-4.4l-0.2-0.2l-4.4,4.4c-0.2-0.2-0.4-0.4-0.6-0.6c-1.1-1.1-2.3-2.2-3.5-3.2l4-4.8l-0.2-0.2l-4,4.8
		c-1.4-1.2-2.9-2.4-4.4-3.5l3.6-5.1l-0.2-0.2l-3.6,5.1c-1.4-1-2.9-2-4.4-2.9l3.1-5.4l-0.7-0.4l-3.1,5.4c-1.5-0.9-3.1-1.7-4.7-2.5
		l2.6-5.6l-0.2-0.1l-2.6,5.6c-1.7-0.8-3.4-1.5-5.1-2.2l2.1-5.8l-0.2-0.1l-2.1,5.8c-1.7-0.7-3.5-1.2-5.3-1.7l1.6-6l-0.3-0.1l-1.6,6
		c-1.8-0.5-3.6-0.9-5.4-1.3l1.1-6.1l-0.3,0l-1.1,6.1c-1.8-0.3-3.7-0.6-5.5-0.8l0.5-6.2l-0.3,0l-0.5,6.2c-1.8-0.2-3.5-0.3-5.3-0.3
		v-6.2h-0.8V75c0,0-0.1,0-0.1,0c0,0.1,0,0.1,0,0.2c0,0,0.1,0,0.1,0v1.6h0.8v-1.6c1.8,0,3.5,0.1,5.3,0.3l0,0l0.3,0v0
		c1.8,0.2,3.7,0.5,5.5,0.8v0l0.3,0v0c1.8,0.3,3.6,0.8,5.4,1.3l0,0l0.3,0.1v0c1.8,0.5,3.5,1.1,5.3,1.7l0,0l0.3,0.1v0
		c1.7,0.7,3.4,1.4,5.1,2.2l0,0l0.2,0.1c1.6,0.8,3.2,1.6,4.7,2.5l-0.8,1.4l0.7,0.4l0.8-1.4c4.5,2.8,8.8,6.1,12.6,9.9
		c4.3,4.3,8,9.1,10.9,14.3l-1.3,0.7l0.4,0.7l1.3-0.7c5.4,9.7,8.2,20.7,8.2,32.1c0,0.2,0,0.4,0,0.6h-1.4v0.8h1.4
		c-0.2,11.6-3.4,22.7-9.1,32.4l-1.2-0.7l-0.4,0.7l1.2,0.7c-2.8,4.5-6.1,8.8-9.9,12.6c-4.3,4.3-9.1,7.9-14.2,10.8l-0.7-1.2l-0.7,0.4
		l0.7,1.2c-9.7,5.4-20.7,8.3-32.2,8.3c-0.2,0-0.3,0-0.5,0V207h-0.8v1.3c-11.6-0.2-22.7-3.4-32.4-9.1l0.7-1.2l-0.7-0.4l-0.7,1.2
		c-4.6-2.8-8.8-6.1-12.7-10c-4.3-4.3-7.9-9-10.8-14.1l1.2-0.7l-0.4-0.7l-1.2,0.7c-5.3-9.6-8.2-20.4-8.3-31.7h1.4v-0.8h-8v0.8h6.4
		c0,1.5,0.1,2.9,0.2,4.3l-6.4,0.6l0,0.3l6.4-0.6c0.1,1.9,0.4,3.7,0.7,5.5l-6.3,1.1l0,0.3l6.3-1.1c0.3,1.8,0.7,3.7,1.1,5.4l-6.2,1.6
		l0.1,0.3l6.1-1.7c0.5,1.8,1,3.6,1.6,5.3l-6,2.2l0.1,0.2l6-2.2c0.6,1.8,1.3,3.6,2.1,5.3l-0.1-0.1l-5.8,2.7l0.1,0.2l5.8-2.7
		c0.7,1.6,1.5,3.2,2.4,4.7l-5.5,3.2l0.1,0.2l0.1,0.1l0.2,0.3l5.5-3.2c2.9,5.1,6.5,9.9,10.8,14.2c3.9,3.9,8.2,7.2,12.8,10l-3.2,5.6
		l0.3,0.2l0.1,0.1l0.2,0.1l3.2-5.6c9.8,5.8,20.9,8.9,32.5,9.1v6.5h0.8v-6.4c0.2,0,0.3,0,0.5,0c11.5,0,22.5-2.9,32.2-8.3l3.2,5.6
		l0.2-0.1l0.1-0.1l0.3-0.2l-3.2-5.6c5.2-2.9,9.9-6.6,14.3-10.9c3.9-3.9,7.2-8.1,9.9-12.7l5.6,3.2l0.2-0.3l0.1-0.1l0.1-0.2l-5.6-3.2
		c4.9-8.3,7.9-17.5,8.9-27.2l0,0.2l6.4,0.6l0-0.3l-6.4-0.6c0.2-1.8,0.3-3.5,0.3-5.3H263.6z"/>
	<polygon class="st1" points="135.4,179.3 130.1,183 130.3,183.2 135.5,179.5 	"/>
	<polygon class="st1" points="138.8,184 133.9,188.1 134.1,188.3 139,184.2 	"/>
	
		<rect x="137.3" y="190.6" transform="matrix(0.7071 -0.7071 0.7071 0.7071 -93.6816 155.2235)" class="st1" width="6.4" height="0.3"/>
	<polygon class="st1" points="142.8,197.2 143,197.4 147.1,192.5 146.9,192.3 	"/>
	<polygon class="st1" points="147.8,201.2 148,201.3 151.7,196.1 151.5,195.9 	"/>
	<polygon class="st1" points="158.8,207.7 159,207.8 161.7,202 161.5,201.9 	"/>
	<polygon class="st1" points="164.6,210.2 164.9,210.3 167.1,204.3 166.8,204.2 	"/>
	<polygon class="st1" points="170.7,212.2 170.9,212.3 172.6,206.1 172.3,206.1 	"/>
	<polygon class="st1" points="176.9,213.7 177.1,213.7 178.3,207.4 178,207.4 	"/>
	<polygon class="st1" points="183.2,214.6 183.5,214.6 184,208.3 183.8,208.2 	"/>
	<polygon class="st1" points="195.4,208.4 195.9,214.8 196.2,214.8 195.6,208.4 	"/>
	<polygon class="st1" points="201.2,207.7 202.3,214 202.5,214 201.4,207.7 	"/>
	<polygon class="st1" points="206.9,206.6 208.5,212.7 208.8,212.7 207.1,206.5 	"/>
	<polygon class="st1" points="212.4,204.9 214.6,210.9 214.9,210.8 212.7,204.8 	"/>
	<polygon class="st1" points="217.8,202.8 220.5,208.5 220.8,208.4 218.1,202.7 	"/>
	<polygon class="st1" points="228,197.1 231.7,202.3 231.9,202.2 228.2,196.9 	"/>
	<polygon class="st1" points="232.7,193.6 236.8,198.5 237,198.4 232.9,193.5 	"/>
	
		<rect x="239.2" y="188.7" transform="matrix(0.7071 -0.7071 0.7071 0.7071 -65.6042 225.4689)" class="st1" width="0.3" height="6.4"/>
	<polygon class="st1" points="241,185.5 245.9,189.6 246.1,189.4 241.2,185.3 	"/>
	<polygon class="st1" points="244.6,181 249.9,184.6 250,184.4 244.8,180.8 	"/>
	<polygon class="st1" points="250.6,171 256.4,173.7 256.5,173.4 250.7,170.7 	"/>
	<polygon class="st1" points="252.9,165.6 258.9,167.8 259,167.6 253,165.4 	"/>
	<polygon class="st1" points="254.7,160.1 260.9,161.8 261,161.5 254.8,159.9 	"/>
	<polygon class="st1" points="256.1,154.5 262.4,155.6 262.4,155.3 256.1,154.2 	"/>
	<path class="st1" d="M190.8,56.4c-21.4,0-41,7.9-56,21h11c12.7-8.9,28.2-14.2,44.9-14.2c43.3,0,78.5,35.2,78.5,78.5
		c0,43.3-35.2,78.5-78.5,78.5s-78.5-35.2-78.5-78.5c0-0.1,0-0.2,0-0.3h-6.8c0,0.1,0,0.2,0,0.3c0,47.1,38.3,85.3,85.3,85.3
		s85.3-38.3,85.3-85.3C276.1,94.7,237.8,56.4,190.8,56.4"/>
	<path class="st1" d="M190.8,219.6c42.9,0,77.8-34.9,77.8-77.8s-34.9-77.8-77.8-77.8c-16.2,0-31.2,5-43.7,13.4h1.1h0.1h7.7
		c10.3-5.6,22.2-8.8,34.8-8.8c40.4,0,73.2,32.8,73.2,73.2c0,40.4-32.8,73.2-73.2,73.2s-73.2-32.8-73.2-73.2c0-0.1,0-0.2,0-0.3h-4
		h-0.6c0,0.1,0,0.2,0,0.3C112.9,184.7,147.9,219.6,190.8,219.6"/>
</g>
</svg>
