<?xml version="1.0" encoding="utf-8"?>
<!-- Generator: Adobe Illustrator 26.0.1, SVG Export Plug-In . SVG Version: 6.00 Build 0)  -->
<svg version="1.1" id="Слой_1" xmlns="http://www.w3.org/2000/svg" xmlns:xlink="http://www.w3.org/1999/xlink" x="0px" y="0px"
	 viewBox="0 0 283.5 283.5" style="enable-background:new 0 0 283.5 283.5;" xml:space="preserve">
<style type="text/css">
	.st0{fill:#1F4577;}
	.st1{clip-path:url(#SVGID_00000117641978494082328000000008133451285566069172_);}
	.st2{fill:#FFFFFF;}
	.st3{enable-background:new    ;}
	.st4{fill:#3891CE;}
	.st5{fill:#1D1D1B;}
</style>
<g>
	<circle class="st0" cx="92.9" cy="141.8" r="70.6"/>
	<g>
		<defs>
			<circle id="SVGID_1_" cx="91.9" cy="141.7" r="70.6"/>
		</defs>
		<clipPath id="SVGID_00000152974887639359931910000015615720035167895940_">
			<use xlink:href="#SVGID_1_"  style="overflow:visible;"/>
		</clipPath>
		<g style="clip-path:url(#SVGID_00000152974887639359931910000015615720035167895940_);">
			<path class="st2" d="M76.1,224.4c2.4-2.9,5.3-7.3,5.3-12.6c0-5.2-2.7-6.5-4-11.1c-2.5-9,4.7-17.4,20.1-45.2
				c0.8-1.4,2.2-3.9,3.3-7.4c3-9.2,2.3-17,2.2-18.8c-0.5-5.1-1.8-9.2-2.9-12c-5.6,0.6-11.3,1.3-17.1,2.2
				c-31.9,4.6-61.1,12.1-87.4,20.9v84C9.7,224.4,63.6,224.6,76.1,224.4z"/>
		</g>
	</g>
	<path class="st2" d="M100.9,122.8c-1.4-2.2-3.8-3-5.5-3.4c0,0,0.4-17.3,0.4-24.3c-4.8-1.2-9.3-1.4-13.7,0.3
		c-5.8,2.3-11.4,5.4-18.3,4.2c4.6,7.1,9.7,8.8,17.1,6.8c3.5-1,7.2-1.3,10.9-1.7c0.6-0.1,1.9,1.1,1.9,1.8c0.2,4.2,0.1,8.4,0.1,12.6
		c-3.1,0.1-5.7,0.2-8.4,0.4"/>
	<g>
		<g>
			<path class="st2" d="M128.3,184.4v-9.5h-12.7v9.5c0,11.6,9.4,21,21,21v-12.7C132,192.7,128.3,189,128.3,184.4z"/>
			<path class="st2" d="M156.6,174c-1.4-3.9-3.8-7.2-7.2-10.2l-8.3-7.2l-8.3,9.6l8.3,7.3l0,0c3.7,3.2,4.5,6.6,4.5,11
				c0,0.1,0,0.3,0,0.4c-0.2,3.5-2.6,6.5-5.8,7.5c-0.8,0.2-1.6,0.4-2.5,0.4h-0.7v12.7c0.4-0.1,6.6,0.6,12.9-3.9
				c5.4-3.8,8.9-10.1,8.9-17.1C158.3,180.3,157.8,177,156.6,174z"/>
			<path class="st2" d="M137.3,114.6h-0.7c-11.6,0-21,9.4-21,21h12.7c0-4.6,3.7-8.3,8.3-8.3h0.7V114.6z"/>
			<path class="st2" d="M141.1,156.6l-8.3-7.3L141.1,156.6z"/>
			<path class="st2" d="M141.1,156.6l-8.3-7.3c-2.9-2.5-4.5-6.1-4.5-10v-3.7h-12.7v3.7c0,7.5,3.2,14.6,8.9,19.5l8.3,7.3L141.1,156.6
				z"/>
			<path class="st2" d="M158.3,145.8h-12.7v-10.1c0-4.6-3.7-8.3-8.3-8.3h-0.7v-12.8h0.7c11.6,0,21,9.4,21,21V145.8z"/>
		</g>
		<g>
			<path class="st0" d="M179.6,184.4v-9.5h-12.7v9.5c0,11.6,9.4,21,21,21v-12.7C183.4,192.7,179.6,189,179.6,184.4z"/>
			<path class="st0" d="M208,174c-1.4-3.9-3.8-7.2-7.2-10.2l-8.3-7.2l-8.3,9.6l8.3,7.3l0,0c3.7,3.2,4.5,6.6,4.5,11
				c0,0.1,0,0.3,0,0.4c-0.2,3.5-2.6,6.5-5.8,7.5c-0.8,0.2-1.6,0.4-2.5,0.4H188v12.7c0.4-0.1,6.6,0.6,12.9-3.9
				c5.4-3.8,8.9-10.1,8.9-17.1C209.7,180.3,209.1,177,208,174z"/>
			<path class="st0" d="M188.7,114.6H188c-11.6,0-21,9.4-21,21h12.7c0-4.6,3.7-8.3,8.3-8.3h0.7V114.6z"/>
			<path class="st0" d="M192.5,156.6l-8.3-7.3L192.5,156.6z"/>
			<path class="st0" d="M192.5,156.6l-8.3-7.3c-2.9-2.5-4.5-6.1-4.5-10v-3.7H167v3.7c0,7.5,3.2,14.6,8.9,19.5l8.3,7.3L192.5,156.6z"
				/>
			<path class="st0" d="M209.7,145.8H197v-10.1c0-4.6-3.7-8.3-8.3-8.3H188v-12.8h0.7c11.6,0,21,9.4,21,21V145.8z"/>
		</g>
		<g>
			<rect x="219.5" y="135.5" class="st0" width="12.7" height="48.9"/>
			<rect x="219.5" y="160" class="st0" width="12.7" height="24.4"/>
			<path class="st0" d="M262.2,145.7h-12.7v-10.1c0-4.6-3.7-8.3-8.3-8.3h-0.7c-4.6,0-8.3,3.7-8.3,8.3h-12.7c0-11.6,9.4-21,21-21h0.7
				c11.6,0,21,9.4,21,21V145.7z"/>
			<path class="st0" d="M241.2,205.4h-0.7c-11.6,0-21-9.4-21-21h12.7c0,4.6,3.7,8.3,8.3,8.3h0.7c4.6,0,8.3-3.7,8.3-8.3v-8.9h12.7
				v8.9C262.2,196,252.8,205.4,241.2,205.4z"/>
		</g>
	</g>
</g>
<circle class="st0" cx="118.8" cy="466.4" r="70.6"/>
<g>
	<g>
		<circle class="st0" cx="118.8" cy="466.4" r="70.6"/>
		<g>
			<path class="st2" d="M102.9,549c2.4-2.9,5.3-7.3,5.3-12.6c0-5.2-2.7-6.5-4-11.1c-2.5-9,4.7-17.4,20.1-45.2
				c0.8-1.4,2.2-3.9,3.3-7.4c3-9.2,2.3-17,2.2-18.8c-0.5-5.1-1.8-9.2-2.9-12c-5.6,0.6-11.3,1.3-17.1,2.2
				c-31.9,4.6-61.1,12.1-87.4,20.9v84C36.5,549,90.4,549.2,102.9,549z"/>
		</g>
		<path class="st2" d="M129.9,451.1c-1.4-2.2-3.8-3-5.5-3.4c0,0,0.4-17.3,0.4-24.3c-4.8-1.2-9.3-1.4-13.7,0.3
			c-5.8,2.3-11.4,5.4-18.3,4.2c4.6,7.1,9.7,8.8,17.1,6.8c3.5-1,7.2-1.3,10.9-1.7c0.6-0.1,1.9,1.1,1.9,1.8c0.2,4.2,0.1,8.4,0.1,12.6
			c-3.1,0.1-5.7,0.2-8.4,0.4"/>
		<g>
			<g>
				<path class="st2" d="M153.1,508.1v-9.5h-12.7v9.5c0,11.6,9.4,21,21,21v-12.7C156.8,516.4,153.1,512.7,153.1,508.1z"/>
				<path class="st2" d="M181.3,497.7c-1.4-3.9-3.8-7.2-7.2-10.2l-8.3-7.2l-8.3,9.6l8.3,7.3l0,0c3.7,3.2,4.5,6.6,4.5,11
					c0,0.1,0,0.3,0,0.4c-0.2,3.5-2.6,6.5-5.8,7.5c-0.8,0.2-1.6,0.4-2.5,0.4h-0.7v12.7c0.4-0.1,6.6,0.6,12.9-3.9
					c5.4-3.8,8.9-10.1,8.9-17.1C183.1,504,182.6,500.7,181.3,497.7z"/>
				<path class="st2" d="M162.1,438.3h-0.7c-11.6,0-21,9.4-21,21h12.7c0-4.6,3.7-8.3,8.3-8.3h0.7V438.3z"/>
				<path class="st2" d="M165.8,480.3l-8.3-7.3L165.8,480.3z"/>
				<path class="st2" d="M165.8,480.3l-8.3-7.3c-2.9-2.5-4.5-6.1-4.5-10v-3.7h-12.7v3.7c0,7.5,3.2,14.6,8.9,19.5l8.3,7.3
					L165.8,480.3z"/>
				<path class="st2" d="M183.1,469.5h-12.7v-10.1c0-4.6-3.7-8.3-8.3-8.3h-0.7v-12.8h0.7c11.6,0,21,9.4,21,21V469.5z"/>
			</g>
			<g>
				<path class="st0" d="M204.3,508.1v-9.5h-12.7v9.5c0,11.6,9.4,21,21,21v-12.7C208.1,516.4,204.3,512.7,204.3,508.1z"/>
				<path class="st0" d="M232.8,497.7c-1.4-3.9-3.8-7.2-7.2-10.2l-8.3-7.2l-8.3,9.6l8.3,7.3l0,0c3.7,3.2,4.5,6.6,4.5,11
					c0,0.1,0,0.3,0,0.4c-0.2,3.5-2.6,6.5-5.8,7.5c-0.8,0.2-1.6,0.4-2.5,0.4h-0.7v12.7c0.4-0.1,6.6,0.6,12.9-3.9
					c5.4-3.8,8.9-10.1,8.9-17.1C234.4,504,233.8,500.7,232.8,497.7z"/>
				<path class="st0" d="M213.4,438.3h-0.7c-11.6,0-21,9.4-21,21h12.7c0-4.6,3.7-8.3,8.3-8.3h0.7V438.3z"/>
				<path class="st0" d="M217.2,480.3l-8.3-7.3L217.2,480.3z"/>
				<path class="st0" d="M217.2,480.3l-8.3-7.3c-2.9-2.5-4.5-6.1-4.5-10v-3.7h-12.7v3.7c0,7.5,3.2,14.6,8.9,19.5l8.3,7.3
					L217.2,480.3z"/>
				<path class="st0" d="M234.4,469.5h-12.7v-10.1c0-4.6-3.7-8.3-8.3-8.3h-0.7v-12.8h0.7c11.6,0,21,9.4,21,21V469.5z"/>
			</g>
			<g>
				<rect x="244.2" y="459.2" class="st0" width="12.7" height="48.9"/>
				<rect x="244.2" y="483.7" class="st0" width="12.7" height="24.4"/>
				<path class="st0" d="M287,469.4h-12.7v-10.1c0-4.6-3.7-8.3-8.3-8.3h-0.7c-4.6,0-8.3,3.7-8.3,8.3h-12.7c0-11.6,9.4-21,21-21h0.7
					c11.6,0,21,9.4,21,21V469.4z"/>
				<path class="st0" d="M266,529.1h-0.7c-11.6,0-21-9.4-21-21H257c0,4.6,3.7,8.3,8.3,8.3h0.7c4.6,0,8.3-3.7,8.3-8.3v-8.9H287v8.9
					C287,519.7,277.5,529.1,266,529.1z"/>
			</g>
		</g>
	</g>
	<g>
		<g class="st3">
			<path class="st0" d="M47.1,565.8c0,0.6,0,1.2,0.1,1.7s0.3,0.9,0.5,1.2s0.6,0.6,1,0.8s0.9,0.3,1.5,0.3c0.9,0,1.7-0.2,2.3-0.6
				c0.6-0.4,0.9-1.1,0.9-2.1c0-0.5-0.1-1-0.2-1.3c-0.1-0.4-0.3-0.6-0.5-0.9c-0.2-0.2-0.5-0.4-0.8-0.6s-0.7-0.3-1.1-0.5l-2.4-0.9
				c-0.4-0.1-0.7-0.3-1.1-0.6c-0.3-0.2-0.6-0.5-0.8-0.9c-0.2-0.3-0.4-0.8-0.6-1.2c-0.1-0.5-0.2-1-0.2-1.7s0.1-1.2,0.3-1.8
				s0.5-1,0.9-1.3c0.4-0.4,0.9-0.7,1.4-0.8c0.6-0.2,1.2-0.3,1.8-0.3c1.4,0,2.6,0.4,3.4,1.2c0.8,0.8,1.3,1.9,1.3,3.5h-1.9
				c0-0.9-0.2-1.6-0.7-2.2c-0.5-0.5-1.1-0.8-2.1-0.8c-0.5,0-0.9,0.1-1.3,0.2c-0.4,0.1-0.6,0.3-0.8,0.6c-0.2,0.2-0.4,0.5-0.5,0.8
				s-0.1,0.7-0.1,1c0,0.8,0.1,1.3,0.3,1.7s0.6,0.7,1.1,0.9l2.6,1c1.3,0.5,2.3,1.1,2.8,1.9c0.6,0.8,0.9,1.7,0.9,2.8
				c0,1.6-0.5,2.7-1.4,3.5s-2.1,1.2-3.7,1.2c-1.6,0-2.8-0.5-3.6-1.5s-1.3-2.4-1.3-4.2L47.1,565.8L47.1,565.8z"/>
			<path class="st0" d="M59.9,571.1h-1.8v-16.5h1.8V571.1z"/>
			<path class="st0" d="M65.2,569.4h6.7v1.7h-8.6v-16.5h1.8L65.2,569.4L65.2,569.4z"/>
			<path class="st0" d="M73.1,554.6l3.8,15.2l0,0l3.9-15.2h2l-4.7,16.5h-2.3l-4.7-16.5H73.1z"/>
			<path class="st0" d="M93.1,554.6v1.7h-6.4v5.4h6v1.7h-6v6.2h6.5v1.7h-8.3v-16.5h8.2C93.1,554.8,93.1,554.6,93.1,554.6z"/>
			<path class="st0" d="M105.8,559.2c0,1.1-0.2,2.1-0.7,2.9s-1.2,1.4-2.2,1.7l3.4,7.2h-2.1l-3.1-6.8h-3.2v6.8H96v-16.5h5
				c0.7,0,1.4,0.1,2,0.3s1.1,0.5,1.5,0.8c0.4,0.4,0.7,0.9,1,1.5C105.8,557.7,105.8,558.4,105.8,559.2z M97.8,562.6h3.2
				c0.4,0,0.7,0,1.1-0.1c0.3-0.1,0.6-0.3,0.9-0.5c0.3-0.3,0.5-0.6,0.6-1c0.2-0.4,0.2-1,0.2-1.6s-0.1-1.1-0.2-1.5s-0.4-0.7-0.6-1
				s-0.6-0.4-0.9-0.5c-0.4-0.1-0.7-0.1-1.1-0.1h-3.1L97.8,562.6L97.8,562.6z"/>
			<path class="st0" d="M115.8,565.8c0,0.6,0,1.2,0.1,1.7s0.3,0.9,0.5,1.2s0.6,0.6,1,0.8s0.9,0.3,1.5,0.3c0.9,0,1.7-0.2,2.3-0.6
				c0.6-0.4,0.9-1.1,0.9-2.1c0-0.5-0.1-1-0.2-1.3c-0.1-0.4-0.3-0.6-0.5-0.9c-0.2-0.2-0.5-0.4-0.8-0.6s-0.7-0.3-1.1-0.5l-2.4-0.9
				c-0.4-0.1-0.7-0.3-1.1-0.6c-0.3-0.2-0.6-0.5-0.8-0.9c-0.2-0.3-0.4-0.8-0.6-1.2c-0.1-0.5-0.2-1-0.2-1.7s0.1-1.2,0.3-1.8
				c0.2-0.6,0.5-1,0.9-1.3c0.4-0.4,0.9-0.7,1.4-0.8c0.6-0.2,1.2-0.3,1.8-0.3c1.4,0,2.6,0.4,3.4,1.2s1.3,1.9,1.3,3.5h-1.8
				c0-0.9-0.2-1.6-0.7-2.2c-0.5-0.5-1.1-0.8-2.1-0.8c-0.5,0-0.9,0.1-1.3,0.2c-0.4,0.1-0.6,0.3-0.8,0.6c-0.2,0.2-0.4,0.5-0.5,0.8
				s-0.1,0.7-0.1,1c0,0.8,0.1,1.3,0.3,1.7c0.2,0.4,0.6,0.7,1.1,0.9l2.6,1c1.3,0.5,2.3,1.1,2.8,1.9c0.6,0.8,0.9,1.7,0.9,2.8
				c0,1.6-0.5,2.7-1.4,3.5s-2.1,1.2-3.7,1.2s-2.8-0.5-3.6-1.5c-0.8-1-1.3-2.4-1.3-4.2L115.8,565.8L115.8,565.8z"/>
			<path class="st0" d="M128.5,561.6h6.3v-7h1.8v16.5h-1.7v-7.8h-6.3v7.8h-1.8v-16.5h1.8v7H128.5z"/>
			<path class="st0" d="M142.1,571.1h-1.8v-16.5h1.8V571.1z"/>
			<path class="st0" d="M147.2,571.1h-1.8v-16.5h4.6c0.7,0,1.4,0.1,2,0.3s1.1,0.5,1.6,0.8c0.4,0.4,0.8,0.9,1,1.4
				c0.2,0.6,0.4,1.3,0.4,2.1c0,1-0.1,1.8-0.4,2.4c-0.3,0.6-0.7,1.1-1.1,1.5c-0.5,0.4-1,0.6-1.7,0.8c-0.6,0.1-1.3,0.2-2.1,0.2h-2.4v7
				H147.2z M147.2,562.4h1.8c0.6,0,1.2,0,1.7-0.1s0.9-0.2,1.3-0.4c0.3-0.2,0.6-0.6,0.8-1s0.3-1,0.3-1.7c0-0.6-0.1-1.1-0.2-1.5
				c-0.2-0.4-0.4-0.7-0.7-0.9s-0.7-0.4-1.1-0.5c-0.4-0.1-0.9-0.1-1.5-0.1h-2.3v6.2H147.2z"/>
			<path class="st0" d="M159.8,571.1H158v-16.5h4.6c0.7,0,1.4,0.1,2,0.3s1.1,0.5,1.6,0.8c0.4,0.4,0.8,0.9,1,1.4
				c0.2,0.6,0.4,1.3,0.4,2.1c0,1-0.1,1.8-0.4,2.4c-0.3,0.6-0.7,1.1-1.1,1.5c-0.5,0.4-1,0.6-1.7,0.8c-0.6,0.1-1.3,0.2-2.1,0.2h-2.4v7
				H159.8z M159.8,562.4h1.8c0.6,0,1.2,0,1.7-0.1s0.9-0.2,1.3-0.4c0.3-0.2,0.6-0.6,0.8-1s0.3-1,0.3-1.7c0-0.6-0.1-1.1-0.2-1.5
				c-0.1-0.4-0.4-0.7-0.7-0.9s-0.7-0.4-1.1-0.5c-0.4-0.1-0.9-0.1-1.5-0.1h-2.3v6.2H159.8z"/>
			<path class="st0" d="M172.3,571.1h-1.8v-16.5h1.8V571.1z"/>
			<path class="st0" d="M178.8,554.6l4.7,13.5c0.1,0.3,0.2,0.6,0.3,0.8s0.2,0.6,0.3,1h0.1c0-0.3,0-0.6,0-0.9s0-0.6,0-0.9v-13.5h1.8
				v16.5h-3l-4.6-13.2c-0.1-0.4-0.3-0.8-0.4-1.2c-0.1-0.4-0.2-0.8-0.3-1.3l0,0c0,0.4,0,0.8,0,1.2s0,0.8,0,1.3v13.2h-1.8v-16.5
				L178.8,554.6L178.8,554.6z"/>
			<path class="st0" d="M193.9,562.6h5.5v8.5H198v-2.5l0,0c-0.2,0.9-0.7,1.7-1.4,2.1s-1.5,0.7-2.5,0.7c-1.2,0-2.1-0.2-2.8-0.7
				s-1.2-1.1-1.6-1.9c-0.3-0.8-0.6-1.7-0.7-2.7s-0.1-2-0.1-3.1c0-1,0.1-2,0.2-3.1c0.1-1,0.4-2,0.8-2.9c0.4-0.9,0.9-1.6,1.7-2.1
				c0.7-0.5,1.7-0.8,2.9-0.8c1.6,0,2.8,0.5,3.5,1.4s1.2,2.2,1.3,3.8h-1.9c0-1-0.2-1.8-0.7-2.5s-1.2-1-2.3-1c-0.8,0-1.5,0.2-1.9,0.6
				c-0.5,0.4-0.8,0.9-1.1,1.6s-0.4,1.4-0.5,2.3c-0.1,0.9-0.1,1.7-0.1,2.7s0,2,0.1,2.8s0.2,1.6,0.4,2.2c0.2,0.6,0.5,1.1,1,1.4
				c0.4,0.3,1,0.5,1.7,0.5c0.8,0,1.5-0.2,2-0.5s0.8-0.8,1.1-1.3c0.2-0.5,0.4-1.1,0.5-1.8s0.1-1.3,0.1-2h-3.8V562.6z"/>
			<path class="st0" d="M215.4,559.5c0-0.5,0-1-0.1-1.4s-0.3-0.8-0.5-1.1s-0.5-0.6-0.9-0.8s-0.9-0.3-1.4-0.3c-0.8,0-1.4,0.2-1.8,0.7
				c-0.4,0.5-0.8,1.1-1,1.8s-0.3,1.4-0.4,2.2c0,0.8-0.1,1.4-0.1,2c0,0.8,0,1.7,0.1,2.5s0.2,1.6,0.4,2.3s0.5,1.3,1,1.7
				c0.4,0.4,1,0.7,1.8,0.7c0.6,0,1.1-0.1,1.4-0.4c0.4-0.2,0.7-0.6,0.9-1s0.4-0.9,0.4-1.5c0.1-0.6,0.2-1.2,0.2-1.9h1.8
				c0,0.9-0.2,1.8-0.3,2.6s-0.4,1.4-0.8,2c-0.3,0.6-0.8,1-1.4,1.3c-0.6,0.3-1.3,0.5-2.2,0.5c-0.8,0-1.5-0.1-2.1-0.4s-1.1-0.6-1.4-1
				c-0.4-0.4-0.7-0.9-0.9-1.5s-0.4-1.2-0.5-1.9s-0.2-1.3-0.2-2s0-1.4,0-2s0-1.3,0.1-1.9c0-0.7,0.1-1.3,0.3-1.9
				c0.1-0.6,0.3-1.2,0.6-1.8s0.5-1,0.9-1.4s0.9-0.7,1.4-1c0.6-0.2,1.2-0.4,2-0.4s1.5,0.1,2.1,0.4s1.1,0.7,1.5,1.1
				c0.4,0.5,0.7,1,0.9,1.7c0.2,0.6,0.3,1.3,0.3,2.1L215.4,559.5L215.4,559.5z"/>
			<path class="st0" d="M223.4,554.6h2.4l4.6,16.5h-2l-1.3-4.7h-5.2l-1.2,4.7h-2L223.4,554.6z M224.6,555.9L224.6,555.9l-2.2,8.8
				h4.4L224.6,555.9z"/>
			<path class="st0" d="M233.8,565.8c0,0.6,0,1.2,0.1,1.7s0.3,0.9,0.5,1.2s0.6,0.6,1,0.8s0.9,0.3,1.5,0.3c0.9,0,1.7-0.2,2.3-0.6
				c0.6-0.4,0.9-1.1,0.9-2.1c0-0.5-0.1-1-0.2-1.3c-0.1-0.4-0.3-0.6-0.5-0.9c-0.2-0.2-0.5-0.4-0.8-0.6s-0.7-0.3-1.1-0.5l-2.4-0.9
				c-0.4-0.1-0.7-0.3-1.1-0.6c-0.3-0.2-0.6-0.5-0.8-0.9c-0.2-0.3-0.4-0.8-0.6-1.2c-0.1-0.5-0.2-1-0.2-1.7s0.1-1.2,0.3-1.8
				s0.5-1,0.9-1.3c0.4-0.4,0.9-0.7,1.4-0.8c0.6-0.2,1.2-0.3,1.8-0.3c1.4,0,2.6,0.4,3.4,1.2c0.8,0.8,1.3,1.9,1.3,3.5h-1.8
				c0-0.9-0.2-1.6-0.7-2.2c-0.5-0.5-1.1-0.8-2.1-0.8c-0.5,0-0.9,0.1-1.3,0.2c-0.4,0.1-0.6,0.3-0.8,0.6c-0.2,0.2-0.4,0.5-0.5,0.8
				s-0.1,0.7-0.1,1c0,0.8,0.1,1.3,0.3,1.7s0.6,0.7,1.1,0.9l2.6,1c1.3,0.5,2.3,1.1,2.8,1.9c0.6,0.8,0.9,1.7,0.9,2.8
				c0,1.6-0.5,2.7-1.4,3.5s-2.1,1.2-3.7,1.2c-1.6,0-2.8-0.5-3.6-1.5s-1.3-2.4-1.3-4.2L233.8,565.8L233.8,565.8z"/>
			<path class="st0" d="M246.8,571.1H245v-16.5h4.6c0.7,0,1.4,0.1,2,0.3s1.1,0.5,1.6,0.8c0.4,0.4,0.8,0.9,1,1.4
				c0.2,0.6,0.4,1.3,0.4,2.1c0,1-0.1,1.8-0.4,2.4c-0.3,0.6-0.7,1.1-1.1,1.5c-0.5,0.4-1,0.6-1.7,0.8c-0.6,0.1-1.3,0.2-2.1,0.2h-2.4v7
				H246.8z M246.8,562.4h1.8c0.6,0,1.2,0,1.7-0.1s0.9-0.2,1.3-0.4c0.3-0.2,0.6-0.6,0.8-1s0.3-1,0.3-1.7c0-0.6-0.1-1.1-0.2-1.5
				c-0.1-0.4-0.4-0.7-0.7-0.9s-0.7-0.4-1.1-0.5c-0.4-0.1-0.9-0.1-1.5-0.1h-2.3v6.2H246.8z"/>
			<path class="st0" d="M259.2,571.1h-1.8v-16.5h1.8V571.1z"/>
			<path class="st0" d="M266,554.6h2.4l4.6,16.5h-2l-1.3-4.7h-5.2l-1.2,4.7h-2L266,554.6z M267.2,555.9L267.2,555.9l-2.2,8.8h4.4
				L267.2,555.9z"/>
			<path class="st0" d="M278.2,554.6l4.7,13.5c0.1,0.3,0.2,0.6,0.3,0.8c0.1,0.2,0.2,0.6,0.3,1h0.1c0-0.3,0-0.6,0-0.9s0-0.6,0-0.9
				v-13.5h1.8v16.5h-3l-4.6-13.2c-0.1-0.4-0.3-0.8-0.4-1.2s-0.2-0.8-0.3-1.3l0,0c0,0.4,0,0.8,0,1.2s0,0.8,0,1.3v13.2h-1.8v-16.5
				L278.2,554.6L278.2,554.6z"/>
		</g>
	</g>
</g>
<g>
	<g>
		
			<text transform="matrix(1 0 0 1 -668.6748 384.1429)" class="st0" style="font-family:'GPN_HeliosCondensed-Regular'; font-size:54.6682px;">SILVER SHIPPING CASPIAN</text>
	</g>
	<g>
		<path class="st0" d="M-369.4-151.6c-10.6-4.3-33.3-3.2-45-0.2c0,5.2,0,10.5,0,15.7l0,0c0,2.9,0,5.8,0,8.7c0,0.6,0,1.3,0,1.9
			c0,20.5,0,31.7,0,52.2c4.5,0,9,0,13.5,0c0-16.7,0-21.2,0-37.9c0.8-1,2.1-2.6,4.1-3.8c9.2-5.5,21.1,1.6,30.4,4.2
			c17.7,5,30.1-13.4,41.3-30.7C-341.9-138.5-355.4-145.9-369.4-151.6z"/>
		<path class="st4" d="M-496.6,34c0.1-30.2,0.3-84.3,0.3-95.8c2,0,85.9-27.9,85.9-27.9s92.4,23.3,94.5,23.3c0,41.6,0,59.5,0,100.1
			C-317.5,34.3-495.1,34.4-496.6,34z"/>
		<g>
			<g>
				<polygon class="st5" points="-264.9,51.3 -265.1,51.5 -265.1,51.2 -264.9,51.1 				"/>
				<polygon class="st5" points="-531.7,51.2 -531.7,51.5 -531.9,51.3 -531.9,51.1 				"/>
				<polygon class="st5" points="-264.9,51.3 -265.1,51.5 -265.1,51.2 -264.9,51.1 				"/>
			</g>
		</g>
		<g>
			<path class="st0" d="M-650.9,202.6c1.5,3.6,2.3,7.6,2.4,11.4c0.3,19.5,0.4,39.1,0.5,58.6l74,8.9l167.2-8.9V-27.3
				c0,0-234.1,92.8-260.5,103.4c-20.5,8.3-27.1,21.7-19.5,40C-674.8,144.9-662.7,173.7-650.9,202.6z"/>
			<path class="st2" d="M-341,270.9c1-0.1,6.5,0.2,7.1-0.6c-4,0.6-4.5,0.6-1.6,0.2c1.2-0.2,2.4-0.4,3.5-0.6c4.8-0.9,9.5-2,14.2-3.1
				c9.6-2.3,19.1-4.9,28.8-6.5c23.6-4,46.6-4.1,70.2-0.1c15.3,2.6,30.1,7.4,44.7,12.4h5.4c0-17.6-0.1-44.3,0.2-58.9
				c0.1-4.2,1-8.6,2.7-12.5c14.6-33.1,29.6-66,44.1-99.1c7.7-17.5,0-31.9-20.2-38.9c-10.2-3.6-264.4-90.5-264.4-90.5v299.8h57
				C-346.6,271.6-343.8,271-341,270.9z"/>
		</g>
	</g>
	<path class="st4" d="M-704.7,236c0,0,71.3,84.2,200.4,71.1c126-12.7,187.3-40.6,293.7-33.4c84.2,5.7,125.2,28.1,125.2,28.1
		s-69.6-61.2-172.1-72.3c-105.8-11.4-244.8,49.1-336.2,40.2C-665.6,262.8-704.7,236-704.7,236z"/>
	<g>
		<g>
			<path class="st0" d="M-363.2,163.2v-12.9h-17.2v12.9c0,15.7,12.8,28.4,28.4,28.4v-17.2C-358.1,174.4-363.2,169.4-363.2,163.2z"/>
			<path class="st0" d="M-324.8,149c-2-5.3-5.1-9.8-9.8-13.8l-11.2-9.8l-11.3,12.9l11.3,9.8l0,0c5.1,4.4,6.1,8.9,6.1,14.9
				c0,0.2,0,0.4,0,0.6c-0.2,4.8-3.5,8.8-7.9,10.2c-1.1,0.3-2.2,0.5-3.3,0.5h-0.9v17.2c0.6-0.1,9,0.8,17.4-5.3
				c7.2-5.2,12-13.6,12-23.2C-322.5,157.7-323.2,153.2-324.8,149z"/>
			<path class="st0" d="M-350.9,68.7h-0.9c-15.7,0-28.4,12.8-28.4,28.4h17.2c0-6.2,5.1-11.3,11.3-11.3h0.9V68.7H-350.9z"/>
			<path class="st0" d="M-345.8,125.5l-11.3-9.8L-345.8,125.5z"/>
			<path class="st0" d="M-345.8,125.5l-11.3-9.8c-3.9-3.4-6.1-8.3-6.1-13.5v-5h-17.2v5c0,10.1,4.4,19.8,12,26.4l11.3,9.8
				L-345.8,125.5z"/>
			<path class="st0" d="M-322.5,110.9h-17.2V97.2c0-6.2-5.1-11.3-11.3-11.3h-0.9V68.7h0.9c15.7,0,28.4,12.8,28.4,28.4v13.8H-322.5z"
				/>
		</g>
		<g>
			<path class="st0" d="M-293.6,163.2v-12.9h-17.2v12.9c0,15.7,12.8,28.4,28.4,28.4v-17.2C-288.6,174.4-293.6,169.4-293.6,163.2z"/>
			<path class="st0" d="M-255.2,149c-2-5.3-5.1-9.8-9.8-13.8l-11.2-9.8l-11.3,12.9l11.3,9.8l0,0c5.1,4.4,6.1,8.9,6.1,14.9
				c0,0.2,0,0.4,0,0.6c-0.2,4.8-3.5,8.8-7.9,10.2c-1.1,0.3-2.2,0.5-3.3,0.5h-0.9v17.2c0.6-0.1,9,0.8,17.4-5.3
				c7.2-5.2,12-13.6,12-23.2C-253,157.7-253.7,153.2-255.2,149z"/>
			<path class="st0" d="M-281.4,68.7h-0.9c-15.7,0-28.4,12.8-28.4,28.4h17.2c0-6.2,5.1-11.3,11.3-11.3h0.9V68.7H-281.4z"/>
			<path class="st0" d="M-276.2,125.5l-11.3-9.8L-276.2,125.5z"/>
			<path class="st0" d="M-276.2,125.5l-11.3-9.8c-3.9-3.4-6.1-8.3-6.1-13.5v-5h-17.2v5c0,10.1,4.4,19.8,12,26.4l11.3,9.8
				L-276.2,125.5z"/>
			<path class="st0" d="M-253,110.9h-17.2V97.2c0-6.2-5.1-11.3-11.3-11.3h-0.9V68.7h0.9c15.7,0,28.4,12.8,28.4,28.4v13.8H-253z"/>
		</g>
		<g>
			<rect x="-239.7" y="97" class="st0" width="17.2" height="66.1"/>
			<rect x="-239.7" y="130.1" class="st0" width="17.2" height="33.1"/>
			<path class="st0" d="M-181.8,110.7H-199V97c0-6.2-5.1-11.3-11.3-11.3h-0.9c-6.2,0-11.3,5.1-11.3,11.3h-17.2
				c0-15.7,12.8-28.4,28.4-28.4h0.9c15.7,0,28.4,12.8,28.4,28.4v13.7H-181.8z"/>
			<path class="st0" d="M-210.3,191.6h-0.9c-15.7,0-28.4-12.8-28.4-28.4h17.2c0,6.2,5.1,11.3,11.3,11.3h0.9
				c6.2,0,11.3-5.1,11.3-11.3v-12h17.2v12C-181.8,178.8-194.6,191.6-210.3,191.6z"/>
		</g>
	</g>
</g>
</svg>
