<?xml version="1.0" encoding="utf-8"?>
<!-- Generator: Adobe Illustrator 26.0.1, SVG Export Plug-In . SVG Version: 6.00 Build 0)  -->
<svg version="1.1" id="Слой_1" xmlns="http://www.w3.org/2000/svg" xmlns:xlink="http://www.w3.org/1999/xlink" x="0px" y="0px"
	 viewBox="0 0 283.5 283.5" style="enable-background:new 0 0 283.5 283.5;" xml:space="preserve">
<style type="text/css">
	.st0{fill:#0367A3;}
	.st1{fill:#E5302B;}
	.st2{fill:#3C3C3B;stroke:#FFFFFF;stroke-width:1.3674;stroke-miterlimit:10;}
</style>
<g>
	<g>
		<path class="st0" d="M199.5,21.8L181,58.2h-60.4c0,0-40.5,3.2-65.2,72.3c-23.5,68.5,11.1,90.7,32.1,98.1l-16.9,30.9
			c0,0-67.6-5.4-67.6-94.6c0.2-15.3,2.4-30.4,8.8-50.8c0,0,24.5-84.1,102.5-91.8C138.2,21.1,199.5,21.8,199.5,21.8z"/>
		<path class="st0" d="M98.9,238.3h11.5c0,0,3.1-6.1-3.3-6.7c-6.3-0.4-15.3,8.7-13.2,17.4c2.5,7.2,17.5,1.7,17.5,2l-4.3,9.8
			c0,0-19.2,5.6-25.1-4.2c-6.8-9.2,8.7-38.7,34.2-33.8c0,0,12,2.1,1.6,22.5H96.4C96.4,245.5,97.1,240.4,98.9,238.3z"/>
		<path class="st0" d="M132.6,249.4c11.2,1.2,14.4-12.5,12.9-14.6c-1.8-2.9-7.5-2.3-8-2.2c-4.5,10.3-9.1,20.8-13.6,31.1h-11.5
			l17.6-40.5c0,0,13.9-0.4,18.5,0c9.3,0.7,9.2,4.6,10,6c2.4,8.4-6.9,25.4-20.4,29.2c-4.1,1.1-7.7,0.6-9.8,0.3L132.6,249.4z"/>
		<path class="st0" d="M189,222.9h-21.8l-16.9,38.5h24.9c4.3,0,8.7-2.6,12.3-7.9c5-7.2,0.2-12.7-1.8-11.5l0.2-0.4
			c0,0,7.6-1.1,10.8-10.2C200,221.9,189,222.9,189,222.9z M183.8,235.2c-0.5,1.7-3,2.7-3,2.7l0,0h-6.4l-3.3,7.5c0,0,4.3-0.3,5.7,0
			c1.6,0.4,1.8,1.7,1.8,1.9c0.2,1.8-1.3,4.1-4.9,5.4h-8.4l9-20.7h8.4C184.2,233.3,183.9,234.5,183.8,235.2z"/>
		<path class="st0" d="M187.1,261.4h11.4l6.2-14.2c0,0,11.4-10.6,15-11.7l-11,26h11l17-37.9h-11.8c0,0-6.6,3.2-13.5,8.9l3.7-8.9
			h-11.2L187.1,261.4z"/>
		<path class="st0" d="M260.1,233.1l4.5-10.2c0,0-6.4-1.9-14.3,0.7c-5.8,1.9-9.3,5.3-11,7c-7.3,7.2-13.9,20.8-8.9,27.7
			c0.8,1.2,2.7,3,6.8,3.9c1.8,0.3,4.2,0.5,7,0.1c1.5-0.2,2.7-0.4,3.9-0.8l4.3-9.9l0,0l0,0c0,0-6.2,2.6-9.9,0
			c-3.9-2.7,2.1-17.8,11.2-19.4C256.3,231.7,258.6,232.4,260.1,233.1z"/>
	</g>
	<polygon class="st1" points="120.7,62.8 43.8,227.6 90,227.6 126.8,149 152.7,180.2 189.7,180.2 161.6,145.9 163.6,145.9 
		279.5,19.7 233.2,19.7 139.2,121.9 167.6,62.8 	"/>
	<path class="st2" d="M280.4,82.7c-5.9-34.9-34.7-59-34.7-59l-130.6,81.7l10.1,27.4H78.6v15.8h28.3v10.9H94.2l-16.8,39.5h7.3
		c5.1-24.1,29.7-36.3,51.2-33.4c17.4,2.4,36.3,13.2,37.9,30.6h7.1l-15-36.7h-12v-11.5l8.9-6.6v-8.6H151l101-91.9L280.4,82.7z
		 M138.6,126.2L125.4,107l118.4-78.5l4.8,6.4L138.6,126.2z"/>
	<g>
		<path class="st1" d="M151.7,191c-0.6-2-1.9-3.3-2-3.4c-2.1-2.2-5-2.3-5.9-2.4h-27.7l-16.8,42.3H114c1.9-5.3,3.9-10.6,5.8-15.8
			c3.2,0.3,8.4,0.3,14.5-0.4c3.7-0.7,5.3-1.4,8.3-3.4C148.9,204,153.3,196.3,151.7,191z M136.6,198.1c-1.8,6.2-12.3,5.1-13,5.1
			l3.7-9.3C128.2,194.2,138.5,191.9,136.6,198.1z"/>
		<path class="st1" d="M174.3,185.2l-34.6,42.3h14.7l5.2-7l16-0.1l-0.2,7.1h15v-42.3L174.3,185.2L174.3,185.2z M176.6,211.3h-10.2
			l11-14.7L176.6,211.3z"/>
		<polygon class="st1" points="214.2,185.2 228.4,185.2 222.6,200 238.3,200 244.1,185.2 258.5,185.2 241.8,227.6 227.2,227.6 
			233.9,210.5 218.3,210.5 211.6,227.6 196.8,227.6 		"/>
	</g>
</g>
</svg>
