<?xml version="1.0" encoding="utf-8"?>
<!-- Generator: Adobe Illustrator 26.0.1, SVG Export Plug-In . SVG Version: 6.00 Build 0)  -->
<svg version="1.1" id="Слой_1" xmlns="http://www.w3.org/2000/svg" xmlns:xlink="http://www.w3.org/1999/xlink" x="0px" y="0px"
	 viewBox="0 0 283.5 283.5" style="enable-background:new 0 0 283.5 283.5;" xml:space="preserve">
<style type="text/css">
	.st0{fill-rule:evenodd;clip-rule:evenodd;fill:url(#SVGID_1_);}
	.st1{fill-rule:evenodd;clip-rule:evenodd;fill:url(#SVGID_00000117672390321042919240000002936101707945116586_);}
	.st2{fill-rule:evenodd;clip-rule:evenodd;fill:url(#SVGID_00000183937878670454009910000014289158929672884641_);}
	.st3{fill-rule:evenodd;clip-rule:evenodd;fill:url(#SVGID_00000076569915278580955680000012317163130324707503_);}
	.st4{fill-rule:evenodd;clip-rule:evenodd;fill:url(#SVGID_00000001630223046287422910000007628332599047430808_);}
	.st5{fill-rule:evenodd;clip-rule:evenodd;fill:url(#SVGID_00000132789186682601207760000017558086146697527706_);}
	.st6{fill-rule:evenodd;clip-rule:evenodd;fill:url(#SVGID_00000133505200516873286220000003248876926815183509_);}
	.st7{fill-rule:evenodd;clip-rule:evenodd;fill:url(#SVGID_00000023962270823919270250000013697816247102338984_);}
	.st8{fill-rule:evenodd;clip-rule:evenodd;fill:url(#SVGID_00000150071134096947205170000011288411189508124815_);}
	.st9{fill-rule:evenodd;clip-rule:evenodd;fill:url(#SVGID_00000020398890859470923490000016430164499419258508_);}
	.st10{fill-rule:evenodd;clip-rule:evenodd;fill:url(#SVGID_00000112626611835479633860000002391367695742466725_);}
	.st11{fill-rule:evenodd;clip-rule:evenodd;fill:url(#SVGID_00000112633865151587917190000005349242845360789694_);}
</style>
<g>
	<linearGradient id="SVGID_1_" gradientUnits="userSpaceOnUse" x1="-2.5288" y1="215.4612" x2="257.9299" y2="215.4612">
		<stop  offset="3.316330e-02" style="stop-color:#00527E"/>
		<stop  offset="0.3713" style="stop-color:#007190"/>
		<stop  offset="0.7743" style="stop-color:#008FA3"/>
		<stop  offset="1" style="stop-color:#009BAA"/>
	</linearGradient>
	<path class="st0" d="M268.1,210.3c0,2.6-0.8,4.8-2.4,6.5c-1.6,1.7-3.5,2.5-5.9,2.5c-2.4,0-4.4-0.8-6-2.5
		c-0.3-0.3-12.2-12.1-13.4-13.3c-4.5-4.2-9.1-8.5-16.2-9c-0.8-0.1-1.7-0.2-2.6-0.2c-4.5,0-8.2,1.5-11.2,4.6
		c-1.9,1.9-3.2,4.2-3.9,6.7c2.7,2.8,5,5.1,7,6.9h23.7c-2.3-2.2-4.7-4.3-7.1-6c0,0,0,0,0,0h-16.5c0.9-1.9,1.8-3.2,2.8-3.9
		c1.6-1.2,3.5-1.8,5.6-1.8c0.8,0,1.5,0.1,2.2,0.3c4.3,0.9,9.1,4.4,13.5,8.5c0,0,0,0,0,0c0.9,0.8,1.7,1.6,2.7,2.3
		c1.3,1.1,2.6,2.3,3.9,3.5v21.2h7.6v-14.3c1.5,1.4,3,2.4,4.5,3.1c1.5,0.6,3.1,0.9,4.9,0.9c3.9,0,7.3-1.5,10.2-4.6
		c2.5-2.6,3.9-5.8,4.2-9.5c-2.8-2.7-5.9-5.2-8.7-6.8C267.7,206.8,268.1,208.4,268.1,210.3z"/>
	
		<linearGradient id="SVGID_00000015350813647865026380000017420463442831992226_" gradientUnits="userSpaceOnUse" x1="-2.5288" y1="202.5548" x2="257.9299" y2="202.5548">
		<stop  offset="3.316330e-02" style="stop-color:#00527E"/>
		<stop  offset="0.3713" style="stop-color:#007190"/>
		<stop  offset="0.7743" style="stop-color:#008FA3"/>
		<stop  offset="1" style="stop-color:#009BAA"/>
	</linearGradient>
	<path style="fill-rule:evenodd;clip-rule:evenodd;fill:url(#SVGID_00000015350813647865026380000017420463442831992226_);" d="
		M261.4,194.3c-1.8,0-3.5,0.3-5.1,1c-1.6,0.7-3.1,1.7-4.5,3.1v-3.3h-7.6v8.5c2,1.8,4,3.8,5.8,5.7c0.5,0.5,1,1,1.5,1.5
		c0-0.2,0-0.4,0-0.5c0-2.6,0.8-4.8,2.4-6.4c1.6-1.6,3.6-2.3,6-2.5c4.9-0.2,8.1,1.2,12.9,5c0.6,0.5,3.6,3.4,4.5,4.2v-8.5
		C273.9,199,268.6,194.3,261.4,194.3z"/>
	
		<linearGradient id="SVGID_00000104678719277408976920000002431799836656065426_" gradientUnits="userSpaceOnUse" x1="-2.5288" y1="210.6884" x2="257.9299" y2="210.6884">
		<stop  offset="3.316330e-02" style="stop-color:#00527E"/>
		<stop  offset="0.3713" style="stop-color:#007190"/>
		<stop  offset="0.7743" style="stop-color:#008FA3"/>
		<stop  offset="1" style="stop-color:#009BAA"/>
	</linearGradient>
	<path style="fill-rule:evenodd;clip-rule:evenodd;fill:url(#SVGID_00000104678719277408976920000002431799836656065426_);" d="
		M222.8,219.5c-0.5,0.1-0.9,0.1-1.4,0.1c-1.1,0-2.3-0.2-3.4-0.8c-1.9-0.9-4.6-3-8-6.3c-1.3-1.4-2.9-3-4.6-4.9l-4.8-5.1v-7.5h-7.6
		v8.2c0.4,0.4,0.9,0.9,1.5,1.6l6.5,7c3.4,3.7,9.2,9.4,9.6,9.8c3,3,6.9,4.5,11.6,4.5c3.1,0,5.7-0.5,8-1.6c2.2-1.1,4.1-2.8,5.7-5
		l-6.4-3C227.5,218.4,225.3,219.3,222.8,219.5z"/>
	
		<linearGradient id="SVGID_00000047018823354575602760000017017429583295764122_" gradientUnits="userSpaceOnUse" x1="-2.5288" y1="204.9617" x2="257.9299" y2="204.9617">
		<stop  offset="3.316330e-02" style="stop-color:#00527E"/>
		<stop  offset="0.3713" style="stop-color:#007190"/>
		<stop  offset="0.7743" style="stop-color:#008FA3"/>
		<stop  offset="1" style="stop-color:#009BAA"/>
	</linearGradient>
	<path style="fill-rule:evenodd;clip-rule:evenodd;fill:url(#SVGID_00000047018823354575602760000017017429583295764122_);" d="
		M59.1,225.5c0.9-0.1,1.7-0.4,2.5-0.7c1.5-0.6,3-1.6,4.5-3.1v3.2h7.6v-10.2c-2.3-2.3-4.9-4.8-7.4-6.9c0.1,0.6,0.2,1.2,0.2,1.8
		c0,2.7-0.8,4.9-2.4,6.5c-1.5,1.6-3.4,2.4-5.7,2.5c-0.3,0-0.7,0.1-1,0.1c-1.2,0-2.6-0.2-4.3-0.9c-3.7-1.4-8-5.1-16.1-12.9v0v-2.9
		v-6.8c0,0,0-3.2-1.2-5.5c-1-1.8-2.2-3.2-3.8-4.2c-1.6-1-4.1-1.4-6.1-1.4c-1.9,0-3.7,0.4-5.3,1.1c-1.6,0.7-3.1,1.8-4.4,3.3l-1.2,1.6
		c0,0-1.2-3.8-6.6-5.1l0,0v0c-0.7-0.2-1.4-0.3-2.2-0.4v7.8c0,0,1.8,0.8,2.2,5.3v27h7.8V204c0-0.8,0.1-2.2,0.1-3.9
		c0.1-1.9,0.3-3.3,0.7-4.3c0.5-1.4,1.3-2.5,2.4-3.2c1.1-0.8,2.2-1.2,3.5-1.2c3.5,0,5.2,2.5,5.6,3.7c0.4,1.2,0.6,3.3,0.6,6v5l6.4,6
		c1.7,1.4,3.2,2.8,4.7,4.2c2.5,2.3,5.1,4.3,7.6,6.1c2.7,2,5.5,3.3,8.9,3.3c0.6,0,1.1,0,1.7-0.1C58.6,225.5,59,225.5,59.1,225.5z"/>
	
		<linearGradient id="SVGID_00000090270085759240759880000002646984253108195504_" gradientUnits="userSpaceOnUse" x1="-2.5288" y1="217.1155" x2="257.9299" y2="217.1155">
		<stop  offset="3.316330e-02" style="stop-color:#00527E"/>
		<stop  offset="0.3713" style="stop-color:#007190"/>
		<stop  offset="0.7743" style="stop-color:#008FA3"/>
		<stop  offset="1" style="stop-color:#009BAA"/>
	</linearGradient>
	<path style="fill-rule:evenodd;clip-rule:evenodd;fill:url(#SVGID_00000090270085759240759880000002646984253108195504_);" d="
		M29.2,224.9h7.9v-8.3c-2.1-1.8-4.9-4.3-7.9-7.2V224.9z"/>
	
		<linearGradient id="SVGID_00000145022852311753330750000013703547789927256767_" gradientUnits="userSpaceOnUse" x1="-2.5288" y1="210.2981" x2="257.9299" y2="210.2981">
		<stop  offset="3.316330e-02" style="stop-color:#00527E"/>
		<stop  offset="0.3713" style="stop-color:#007190"/>
		<stop  offset="0.7743" style="stop-color:#008FA3"/>
		<stop  offset="1" style="stop-color:#009BAA"/>
	</linearGradient>
	<path style="fill-rule:evenodd;clip-rule:evenodd;fill:url(#SVGID_00000145022852311753330750000013703547789927256767_);" d="
		M181.5,205.6v-10.5h-7.6v8.4c3.7,3.4,7.6,6.9,9.9,8.9h9.1v13.1h7.6v-10.3c-3.7-3.9-7.2-7.7-9-9.6H181.5z"/>
	
		<linearGradient id="SVGID_00000010311307617263847220000014532257231274290587_" gradientUnits="userSpaceOnUse" x1="-2.5288" y1="214.868" x2="257.9299" y2="214.868">
		<stop  offset="3.316330e-02" style="stop-color:#00527E"/>
		<stop  offset="0.3713" style="stop-color:#007190"/>
		<stop  offset="0.7743" style="stop-color:#008FA3"/>
		<stop  offset="1" style="stop-color:#009BAA"/>
	</linearGradient>
	<path style="fill-rule:evenodd;clip-rule:evenodd;fill:url(#SVGID_00000010311307617263847220000014532257231274290587_);" d="
		M104.2,205.2c0.7,1.3,1,2.8,1,4.5c0,2.6-0.8,4.8-2.4,6.5c-1.6,1.7-3.5,2.5-5.9,2.5c-1.2,0-2.3-0.2-3.3-0.5
		c-0.6-0.2-1.3-0.4-2.1-0.7c-3.4-1.3-7.3-4.6-14.1-11.1c-0.8-0.6-1.5-1.3-2.3-1.9c-0.5-0.4-1-0.8-1.4-1.2v-8.6h-7.6v3
		c0,0-3.2-2.2-4.4-2.8c-1.6-0.7-3.3-1-5.1-1c-4,0-7.3,1.5-10.1,4.5c-2.1,2.3-3.4,5.1-3.9,8.4c3.4,3.2,6,5.5,8.1,7
		c-0.5-1.2-0.8-2.5-0.8-4c0-2.6,0.8-4.7,2.3-6.4c1-1.1,2.2-1.8,3.5-2.1c5.8-1.4,13,5.2,19.1,11.2c1.4,1.1,2.6,2.3,3.9,3.4
		c0.9,0.8,1.7,1.6,2.6,2.3V236h7.6v-12.6c1.6,0.7,3.3,1.3,5,1.7c1.4,0.4,2.8,0.6,4.3,0.6c3.9,0,7.3-1.5,10.2-4.6
		c2.4-2.5,3.7-5.5,4.1-9C109.9,209.4,107,207.1,104.2,205.2z"/>
	
		<linearGradient id="SVGID_00000123412851179919439750000009377820339865333159_" gradientUnits="userSpaceOnUse" x1="-2.5288" y1="209.3147" x2="257.9299" y2="209.3147">
		<stop  offset="3.316330e-02" style="stop-color:#00527E"/>
		<stop  offset="0.3713" style="stop-color:#007190"/>
		<stop  offset="0.7743" style="stop-color:#008FA3"/>
		<stop  offset="1" style="stop-color:#009BAA"/>
	</linearGradient>
	<path style="fill-rule:evenodd;clip-rule:evenodd;fill:url(#SVGID_00000123412851179919439750000009377820339865333159_);" d="
		M115.8,203.4c-2.8-2.6-9.7-9.7-17.3-9.7c-1.8,0-3.5,0.3-5.1,1c-1.6,0.7-3.1,1.7-4.5,3.1v-3.3h-7.6v12.1c3.3,3,5.7,5.2,7.8,6.7
		c-0.4-1.1-0.6-2.3-0.6-3.6c0-2.6,0.8-4.8,2.4-6.4c1.6-1.6,4.1-2.5,6-2.5c8.1,0,13.8,5.9,19.8,11.8c0.9,0.8,1.8,1.6,2.7,2.4v9.9h7.6
		v-11.5C127.1,213.4,117.1,204.6,115.8,203.4z"/>
	
		<linearGradient id="SVGID_00000067228244464014390250000015328134086393441186_" gradientUnits="userSpaceOnUse" x1="-2.5288" y1="214.8679" x2="257.9299" y2="214.8679">
		<stop  offset="3.316330e-02" style="stop-color:#00527E"/>
		<stop  offset="0.3713" style="stop-color:#007190"/>
		<stop  offset="0.7743" style="stop-color:#008FA3"/>
		<stop  offset="1" style="stop-color:#009BAA"/>
	</linearGradient>
	<path style="fill-rule:evenodd;clip-rule:evenodd;fill:url(#SVGID_00000067228244464014390250000015328134086393441186_);" d="
		M158.3,204.8v4.6v15.4h7.7v-13.6C163,208.3,160.8,206.2,158.3,204.8z"/>
	
		<linearGradient id="SVGID_00000170268159462734137540000017781824937430965919_" gradientUnits="userSpaceOnUse" x1="-2.5288" y1="209.5918" x2="257.9299" y2="209.5918">
		<stop  offset="3.316330e-02" style="stop-color:#00527E"/>
		<stop  offset="0.3713" style="stop-color:#007190"/>
		<stop  offset="0.7743" style="stop-color:#008FA3"/>
		<stop  offset="1" style="stop-color:#009BAA"/>
	</linearGradient>
	<path style="fill-rule:evenodd;clip-rule:evenodd;fill:url(#SVGID_00000170268159462734137540000017781824937430965919_);" d="
		M178.3,210.9L178.3,210.9c-0.9-0.8-1.7-1.5-2.5-2.3c-0.1-0.1-0.2-0.2-0.4-0.3c-0.2-0.1-0.3-0.3-0.5-0.4c-0.4-0.3-0.7-0.7-1.1-1v0
		c-1.6-1.5-3.1-3-4.4-4.3c-2.3-2.3-4.5-4.2-6.4-5.9c-0.5-0.5-1.1-1-1.8-1.4c-1.1-0.7-2.4-1.1-3.8-1.4c-0.7-0.1-1.4-0.2-2.1-0.2l0,0
		c-2,0-3.9,0.5-5.6,1.4c-1.8,0.9-3.2,2.3-4.5,4.1c-0.9-1.8-2.2-3.1-3.7-4.1c-1.5-0.9-3.2-1.4-5.1-1.4c-1.9,0-3.6,0.4-5.2,1.1
		c-1.6,0.7-3,1.8-4.3,3.2v-3.5h-7.6v8.8c3.1,3,5.6,5.2,7.6,6.9c0.1-2.3,0.3-4.1,0.8-5.3c0.5-1.4,1.3-2.4,2.3-3.2
		c1-0.8,2.2-1.1,3.5-1.1c1.1,0,2.1,0.3,2.9,0.9c0.8,0.6,1.4,1.5,1.8,2.7c0.4,1.2,0.6,3.2,0.6,5.9v14.7h7.7v-13.7
		c0-2.9,0.3-5,0.8-6.3c0.5-1.3,1.3-2.3,2.3-3.1c1-0.7,3-1.3,4.3-1.3c1.5,0,3,0.5,3.7,0.7c4.4,1.8,7,4.8,12.9,10.7
		c1.1,1,2.1,2.3,3.3,3.4v10.1h7.6v-11.9C180.6,212.9,179.5,212,178.3,210.9z"/>
	<g>
		
			<linearGradient id="SVGID_00000152223210366214592140000002592544923509250435_" gradientUnits="userSpaceOnUse" x1="77.3903" y1="98.6787" x2="257.8011" y2="98.6787">
			<stop  offset="3.316330e-02" style="stop-color:#00527E"/>
			<stop  offset="0.3713" style="stop-color:#007190"/>
			<stop  offset="0.7743" style="stop-color:#008FA3"/>
			<stop  offset="1" style="stop-color:#009BAA"/>
		</linearGradient>
		<path style="fill-rule:evenodd;clip-rule:evenodd;fill:url(#SVGID_00000152223210366214592140000002592544923509250435_);" d="
			M187.4,90.1l-32.9,12.2l10.4,8.3l25.5-9.5c0.1,0,0.2-0.1,0.3-0.1l8.2-3.1c-0.6-3.7-1.6-7.3-3-11L187.4,90.1
			C187.4,90.1,187.4,90.1,187.4,90.1z"/>
		
			<linearGradient id="SVGID_00000031191253635195772450000005152499311133064606_" gradientUnits="userSpaceOnUse" x1="-121.3423" y1="105.2126" x2="354.6772" y2="105.2126">
			<stop  offset="3.316330e-02" style="stop-color:#00527E"/>
			<stop  offset="0.3713" style="stop-color:#007190"/>
			<stop  offset="0.7743" style="stop-color:#008FA3"/>
			<stop  offset="1" style="stop-color:#009BAA"/>
		</linearGradient>
		<path style="fill-rule:evenodd;clip-rule:evenodd;fill:url(#SVGID_00000031191253635195772450000005152499311133064606_);" d="
			M199.7,103.6l-3.7,1.4l0-0.1l-5.5,2.1l-0.7,0.3c0,0,0,0,0,0l-0.5,0.2c-4.8,1.8-14.5,5.1-19.7,6.4c4.8,3.9,7.9,5.3,9,5.7
			c3.8,1.5,5.2,0.6,9.2-0.9c-3.9,13.4-13.4,25.1-26.9,31.2c-26.2,11.8-57.1-1.2-66.7-28.7c-0.4-1.2-0.8-2.3-1.1-3.5
			c6.2,4.9,21.5,17.4,27.1,21.8c11.2,9.2,14.6,7.3,25.4,1.7l0,0c-6,0.1-16.2-9-23.2-14.5c-2.9-2.3-22.5-18.3-30.8-25
			c0.1-1.9,0.4-3.8,0.7-5.7c7.9,6.3,33.4,26.2,45.2,35.4c10.8,8.9,14.1,7,24.5,1.6l0,0c-5.8,0.1-15.6-8.7-22.4-13.9
			c-3.5-2.7-33.9-26.4-43.8-34.2c0.8-1.8,1.7-3.5,2.7-5.1c9.9,7.9,40.7,32.4,54.7,43.4c11.2,9.2,14.6,7.3,25.4,1.7l0,0
			c-6,0.1-16.2-9-23.2-14.5c-3.2-2.5-37-29-50.2-39.4c4.1-4.3,9.1-7.9,14.7-10.5c21.4-9.9,46.1-3.1,59.7,14.7l-39.8,15.2l10.7,8.2
			l1.2-0.5c0,0,20.2-7.7,33.9-12.8c0,0,0,0,0,0l1.5-0.6c0.4-0.2,0.8-0.3,1.2-0.5l0.7-0.3l0,0l5-1.9c-14.3-28.6-46.6-43-76.1-30.6
			C83.5,66,70.4,109.7,95.1,141.6c12,15.4,31.1,23.7,50.5,21.6C178.3,159.5,201,132.4,199.7,103.6z"/>
	</g>
</g>
</svg>
