<svg width="2034" height="2110" viewBox="0 0 2034 2110" fill="none" xmlns="http://www.w3.org/2000/svg">
<path d="M1186.03 193.575V116.215" stroke="#194F9C" stroke-opacity="0.17" stroke-width="1.3548" stroke-miterlimit="10"/>
<path d="M689.329 326.937L650.428 260.019" stroke="#194F9C" stroke-opacity="0.17" stroke-width="1.3548" stroke-miterlimit="10"/>
<path d="M1721.15 2114.76L1682.72 2047.84" stroke="#194F9C" stroke-opacity="0.17" stroke-width="1.3548" stroke-miterlimit="10"/>
<path d="M325.938 690.481L258.573 652.038" stroke="#194F9C" stroke-opacity="0.17" stroke-width="1.3548" stroke-miterlimit="10"/>
<path d="M192.632 1187.39H115.305" stroke="#194F9C" stroke-opacity="0.17" stroke-width="1.3548" stroke-miterlimit="10"/>
<path d="M325.938 1684.29L258.573 1722.74" stroke="#194F9C" stroke-opacity="0.17" stroke-width="1.3548" stroke-miterlimit="10"/>
<path d="M689.329 2047.84L650.428 2114.76" stroke="#194F9C" stroke-opacity="0.17" stroke-width="1.3548" stroke-miterlimit="10"/>
<path d="M1721.15 260.019L1682.72 326.937" stroke="#194F9C" stroke-opacity="0.17" stroke-width="1.3548" stroke-miterlimit="10"/>
<path d="M1186.03 193.575V55.4659" stroke="#194F9C" stroke-opacity="0.17" stroke-width="1.3548" stroke-miterlimit="10"/>
<path d="M689.329 326.937L620.066 207.338" stroke="#194F9C" stroke-opacity="0.17" stroke-width="1.3548" stroke-miterlimit="10"/>
<path d="M1751.51 2167.44L1682.72 2047.84" stroke="#194F9C" stroke-opacity="0.17" stroke-width="1.3548" stroke-miterlimit="10"/>
<path d="M325.938 690.481L205.915 621.664" stroke="#194F9C" stroke-opacity="0.17" stroke-width="1.3548" stroke-miterlimit="10"/>
<path d="M192.632 1187.39H54.5815" stroke="#194F9C" stroke-opacity="0.17" stroke-width="1.3548" stroke-miterlimit="10"/>
<path d="M325.938 1684.29L205.915 1753.11" stroke="#194F9C" stroke-opacity="0.17" stroke-width="1.3548" stroke-miterlimit="10"/>
<path d="M689.329 2047.84L620.066 2167.44" stroke="#194F9C" stroke-opacity="0.17" stroke-width="1.3548" stroke-miterlimit="10"/>
<path d="M1751.51 207.338L1682.72 326.937" stroke="#194F9C" stroke-opacity="0.17" stroke-width="1.3548" stroke-miterlimit="10"/>
<path d="M1132.89 174.591L1130.05 117.639" stroke="#194F9C" stroke-opacity="0.17" stroke-width="1.3548" stroke-miterlimit="10"/>
<path d="M1079.76 178.862L1074.07 122.385" stroke="#194F9C" stroke-opacity="0.17" stroke-width="1.3548" stroke-miterlimit="10"/>
<path d="M1027.58 185.981L1018.56 129.504" stroke="#194F9C" stroke-opacity="0.17" stroke-width="1.3548" stroke-miterlimit="10"/>
<path d="M975.392 195.473L963.532 139.945" stroke="#194F9C" stroke-opacity="0.17" stroke-width="1.3548" stroke-miterlimit="10"/>
<path d="M923.683 207.813L908.976 152.759" stroke="#194F9C" stroke-opacity="0.17" stroke-width="1.3548" stroke-miterlimit="10"/>
<path d="M872.922 223L854.895 168.895" stroke="#194F9C" stroke-opacity="0.17" stroke-width="1.3548" stroke-miterlimit="10"/>
<path d="M822.635 240.56L802.236 187.405" stroke="#194F9C" stroke-opacity="0.17" stroke-width="1.3548" stroke-miterlimit="10"/>
<path d="M773.772 260.968L750.526 208.762" stroke="#194F9C" stroke-opacity="0.17" stroke-width="1.3548" stroke-miterlimit="10"/>
<path d="M725.858 283.748L699.766 232.966" stroke="#194F9C" stroke-opacity="0.17" stroke-width="1.3548" stroke-miterlimit="10"/>
<path d="M1671.81 2141.81L1648.57 2095.77" stroke="#194F9C" stroke-opacity="0.17" stroke-width="1.3548" stroke-miterlimit="10"/>
<path d="M678.892 309.377L650.428 260.019" stroke="#194F9C" stroke-opacity="0.17" stroke-width="1.3548" stroke-miterlimit="10"/>
<path d="M1721.15 2114.76L1695.53 2070.14" stroke="#194F9C" stroke-opacity="0.17" stroke-width="1.3548" stroke-miterlimit="10"/>
<path d="M633.824 336.904L602.988 288.969" stroke="#194F9C" stroke-opacity="0.17" stroke-width="1.3548" stroke-miterlimit="10"/>
<path d="M1769.06 2085.8L1741.07 2042.14" stroke="#194F9C" stroke-opacity="0.17" stroke-width="1.3548" stroke-miterlimit="10"/>
<path d="M590.179 366.804L556.497 320.767" stroke="#194F9C" stroke-opacity="0.17" stroke-width="1.3548" stroke-miterlimit="10"/>
<path d="M1815.08 2054.01L1784.72 2012.24" stroke="#194F9C" stroke-opacity="0.17" stroke-width="1.3548" stroke-miterlimit="10"/>
<path d="M547.957 399.551L512.377 354.938" stroke="#194F9C" stroke-opacity="0.17" stroke-width="1.3548" stroke-miterlimit="10"/>
<path d="M1859.67 2019.84L1827.41 1979.49" stroke="#194F9C" stroke-opacity="0.17" stroke-width="1.3548" stroke-miterlimit="10"/>
<path d="M507.634 433.722L469.682 391.483" stroke="#194F9C" stroke-opacity="0.17" stroke-width="1.3548" stroke-miterlimit="10"/>
<path d="M1902.37 1983.29L1867.74 1944.85" stroke="#194F9C" stroke-opacity="0.17" stroke-width="1.3548" stroke-miterlimit="10"/>
<path d="M469.207 470.266L428.883 429.925" stroke="#194F9C" stroke-opacity="0.17" stroke-width="1.3548" stroke-miterlimit="10"/>
<path d="M1942.69 1944.85L1906.64 1908.3" stroke="#194F9C" stroke-opacity="0.17" stroke-width="1.3548" stroke-miterlimit="10"/>
<path d="M432.678 508.709L390.457 470.741" stroke="#194F9C" stroke-opacity="0.17" stroke-width="1.3548" stroke-miterlimit="10"/>
<path d="M1981.59 1904.03L1943.17 1869.39" stroke="#194F9C" stroke-opacity="0.17" stroke-width="1.3548" stroke-miterlimit="10"/>
<path d="M398.047 549.05L353.928 513.455" stroke="#194F9C" stroke-opacity="0.17" stroke-width="1.3548" stroke-miterlimit="10"/>
<path d="M2018.12 1861.32L1977.8 1829.05" stroke="#194F9C" stroke-opacity="0.17" stroke-width="1.3548" stroke-miterlimit="10"/>
<path d="M365.788 591.289L319.771 557.593" stroke="#194F9C" stroke-opacity="0.17" stroke-width="1.3548" stroke-miterlimit="10"/>
<path d="M2051.81 1816.71L2010.53 1786.81" stroke="#194F9C" stroke-opacity="0.17" stroke-width="1.3548" stroke-miterlimit="10"/>
<path d="M335.901 634.953L287.986 604.104" stroke="#194F9C" stroke-opacity="0.17" stroke-width="1.3548" stroke-miterlimit="10"/>
<path d="M307.911 680.514L258.573 652.038" stroke="#194F9C" stroke-opacity="0.17" stroke-width="1.3548" stroke-miterlimit="10"/>
<path d="M282.768 727.025L232.007 700.922" stroke="#194F9C" stroke-opacity="0.17" stroke-width="1.3548" stroke-miterlimit="10"/>
<path d="M259.997 774.96L207.813 751.704" stroke="#194F9C" stroke-opacity="0.17" stroke-width="1.3548" stroke-miterlimit="10"/>
<path d="M239.598 823.843L186.465 803.436" stroke="#194F9C" stroke-opacity="0.17" stroke-width="1.3548" stroke-miterlimit="10"/>
<path d="M222.045 874.151L167.963 856.591" stroke="#194F9C" stroke-opacity="0.17" stroke-width="1.3548" stroke-miterlimit="10"/>
<path d="M206.864 924.933L151.833 910.221" stroke="#194F9C" stroke-opacity="0.17" stroke-width="1.3548" stroke-miterlimit="10"/>
<path d="M194.529 976.665L138.55 964.8" stroke="#194F9C" stroke-opacity="0.17" stroke-width="1.3548" stroke-miterlimit="10"/>
<path d="M185.041 1028.87L128.588 1019.85" stroke="#194F9C" stroke-opacity="0.17" stroke-width="1.3548" stroke-miterlimit="10"/>
<path d="M177.926 1081.55L120.998 1075.38" stroke="#194F9C" stroke-opacity="0.17" stroke-width="1.3548" stroke-miterlimit="10"/>
<path d="M173.656 1134.23L116.728 1131.38" stroke="#194F9C" stroke-opacity="0.17" stroke-width="1.3548" stroke-miterlimit="10"/>
<path d="M172.233 1187.39H115.305" stroke="#194F9C" stroke-opacity="0.17" stroke-width="1.3548" stroke-miterlimit="10"/>
<path d="M173.656 1240.54L116.728 1243.39" stroke="#194F9C" stroke-opacity="0.17" stroke-width="1.3548" stroke-miterlimit="10"/>
<path d="M177.926 1293.22L120.998 1299.39" stroke="#194F9C" stroke-opacity="0.17" stroke-width="1.3548" stroke-miterlimit="10"/>
<path d="M185.041 1345.9L128.588 1354.92" stroke="#194F9C" stroke-opacity="0.17" stroke-width="1.3548" stroke-miterlimit="10"/>
<path d="M194.529 1398.11L138.55 1409.97" stroke="#194F9C" stroke-opacity="0.17" stroke-width="1.3548" stroke-miterlimit="10"/>
<path d="M206.864 1449.84L151.833 1464.55" stroke="#194F9C" stroke-opacity="0.17" stroke-width="1.3548" stroke-miterlimit="10"/>
<path d="M222.045 1500.62L167.963 1518.18" stroke="#194F9C" stroke-opacity="0.17" stroke-width="1.3548" stroke-miterlimit="10"/>
<path d="M239.598 1550.93L186.465 1571.34" stroke="#194F9C" stroke-opacity="0.17" stroke-width="1.3548" stroke-miterlimit="10"/>
<path d="M259.997 1599.81L207.813 1623.07" stroke="#194F9C" stroke-opacity="0.17" stroke-width="1.3548" stroke-miterlimit="10"/>
<path d="M282.768 1647.75L232.007 1673.38" stroke="#194F9C" stroke-opacity="0.17" stroke-width="1.3548" stroke-miterlimit="10"/>
<path d="M307.911 1694.26L258.573 1722.74" stroke="#194F9C" stroke-opacity="0.17" stroke-width="1.3548" stroke-miterlimit="10"/>
<path d="M335.901 1739.82L287.986 1770.67" stroke="#194F9C" stroke-opacity="0.17" stroke-width="1.3548" stroke-miterlimit="10"/>
<path d="M365.788 1783.48L319.771 1816.71" stroke="#194F9C" stroke-opacity="0.17" stroke-width="1.3548" stroke-miterlimit="10"/>
<path d="M2051.81 557.593L2010.53 587.967" stroke="#194F9C" stroke-opacity="0.17" stroke-width="1.3548" stroke-miterlimit="10"/>
<path d="M398.047 1825.25L353.928 1861.32" stroke="#194F9C" stroke-opacity="0.17" stroke-width="1.3548" stroke-miterlimit="10"/>
<path d="M2018.12 513.455L1977.8 545.728" stroke="#194F9C" stroke-opacity="0.17" stroke-width="1.3548" stroke-miterlimit="10"/>
<path d="M432.678 1866.06L390.457 1904.03" stroke="#194F9C" stroke-opacity="0.17" stroke-width="1.3548" stroke-miterlimit="10"/>
<path d="M1981.59 470.741L1943.17 505.387" stroke="#194F9C" stroke-opacity="0.17" stroke-width="1.3548" stroke-miterlimit="10"/>
<path d="M469.207 1904.51L428.883 1944.85" stroke="#194F9C" stroke-opacity="0.17" stroke-width="1.3548" stroke-miterlimit="10"/>
<path d="M1942.69 429.925L1906.64 466.469" stroke="#194F9C" stroke-opacity="0.17" stroke-width="1.3548" stroke-miterlimit="10"/>
<path d="M507.634 1941.05L469.682 1983.29" stroke="#194F9C" stroke-opacity="0.17" stroke-width="1.3548" stroke-miterlimit="10"/>
<path d="M1902.37 391.483L1867.74 429.925" stroke="#194F9C" stroke-opacity="0.17" stroke-width="1.3548" stroke-miterlimit="10"/>
<path d="M547.957 1975.22L512.377 2019.84" stroke="#194F9C" stroke-opacity="0.17" stroke-width="1.3548" stroke-miterlimit="10"/>
<path d="M1859.67 354.938L1827.41 395.279" stroke="#194F9C" stroke-opacity="0.17" stroke-width="1.3548" stroke-miterlimit="10"/>
<path d="M590.179 2007.5L556.497 2054.01" stroke="#194F9C" stroke-opacity="0.17" stroke-width="1.3548" stroke-miterlimit="10"/>
<path d="M1815.08 320.767L1784.72 362.532" stroke="#194F9C" stroke-opacity="0.17" stroke-width="1.3548" stroke-miterlimit="10"/>
<path d="M633.824 2037.87L602.988 2085.8" stroke="#194F9C" stroke-opacity="0.17" stroke-width="1.3548" stroke-miterlimit="10"/>
<path d="M1769.06 288.969L1741.07 332.158" stroke="#194F9C" stroke-opacity="0.17" stroke-width="1.3548" stroke-miterlimit="10"/>
<path d="M678.892 2065.4L650.428 2114.76" stroke="#194F9C" stroke-opacity="0.17" stroke-width="1.3548" stroke-miterlimit="10"/>
<path d="M1721.15 260.019L1695.53 304.631" stroke="#194F9C" stroke-opacity="0.17" stroke-width="1.3548" stroke-miterlimit="10"/>
<path d="M725.858 2091.03L699.766 2141.81" stroke="#194F9C" stroke-opacity="0.17" stroke-width="1.3548" stroke-miterlimit="10"/>
<path d="M1671.81 232.966L1648.57 279.002" stroke="#194F9C" stroke-opacity="0.17" stroke-width="1.3548" stroke-miterlimit="10"/>
<path d="M1621.52 208.762L1600.18 256.222" stroke="#194F9C" stroke-opacity="0.17" stroke-width="1.3548" stroke-miterlimit="10"/>
<path d="M1569.34 187.405L1551.31 235.814" stroke="#194F9C" stroke-opacity="0.17" stroke-width="1.3548" stroke-miterlimit="10"/>
<path d="M1516.68 168.895L1501.03 217.779" stroke="#194F9C" stroke-opacity="0.17" stroke-width="1.3548" stroke-miterlimit="10"/>
<path d="M1463.08 152.759L1449.79 202.592" stroke="#194F9C" stroke-opacity="0.17" stroke-width="1.3548" stroke-miterlimit="10"/>
<path d="M1408.52 139.945L1397.61 190.252" stroke="#194F9C" stroke-opacity="0.17" stroke-width="1.3548" stroke-miterlimit="10"/>
<path d="M1353.49 129.504L1345.42 180.286" stroke="#194F9C" stroke-opacity="0.17" stroke-width="1.3548" stroke-miterlimit="10"/>
<path d="M1297.98 122.385L1292.29 173.641" stroke="#194F9C" stroke-opacity="0.17" stroke-width="1.3548" stroke-miterlimit="10"/>
<path d="M1242 117.639L1239.16 169.37" stroke="#194F9C" stroke-opacity="0.17" stroke-width="1.3548" stroke-miterlimit="10"/>
<path d="M1184.6 2097.67C1685.03 2097.67 2090.71 1691.82 2090.71 1191.18C2090.71 690.545 1685.03 284.698 1184.6 284.698C684.175 284.698 278.498 690.545 278.498 1191.18C278.498 1691.82 684.175 2097.67 1184.6 2097.67Z" stroke="#194F9C" stroke-opacity="0.17" stroke-width="0.6774" stroke-miterlimit="9.9999"/>
<path d="M1184.6 284.223V307.004" stroke="#194F9C" stroke-opacity="0.17" stroke-width="1.3548" stroke-miterlimit="10"/>
<path d="M1184.6 2075.36V2097.67" stroke="#194F9C" stroke-opacity="0.17" stroke-width="1.3548" stroke-miterlimit="10"/>
<path d="M874.345 339.277L881.935 360.159" stroke="#194F9C" stroke-opacity="0.17" stroke-width="1.3548" stroke-miterlimit="10"/>
<path d="M1486.79 2022.21L1494.39 2043.09" stroke="#194F9C" stroke-opacity="0.17" stroke-width="1.3548" stroke-miterlimit="10"/>
<path d="M602.039 496.369L616.271 513.93" stroke="#194F9C" stroke-opacity="0.17" stroke-width="1.3548" stroke-miterlimit="10"/>
<path d="M1752.46 1868.44L1767.17 1885.52" stroke="#194F9C" stroke-opacity="0.17" stroke-width="1.3548" stroke-miterlimit="10"/>
<path d="M399.47 737.941L418.921 748.856" stroke="#194F9C" stroke-opacity="0.17" stroke-width="1.3548" stroke-miterlimit="10"/>
<path d="M1949.81 1633.04L1969.26 1644.43" stroke="#194F9C" stroke-opacity="0.17" stroke-width="1.3548" stroke-miterlimit="10"/>
<path d="M291.781 1033.62L314.078 1037.41" stroke="#194F9C" stroke-opacity="0.17" stroke-width="1.3548" stroke-miterlimit="10"/>
<path d="M291.781 1348.75L314.078 1344.48" stroke="#194F9C" stroke-opacity="0.17" stroke-width="1.3548" stroke-miterlimit="10"/>
<path d="M399.47 1644.43L418.921 1633.04" stroke="#194F9C" stroke-opacity="0.17" stroke-width="1.3548" stroke-miterlimit="10"/>
<path d="M1949.81 748.856L1969.26 737.941" stroke="#194F9C" stroke-opacity="0.17" stroke-width="1.3548" stroke-miterlimit="10"/>
<path d="M602.039 1885.52L616.271 1868.44" stroke="#194F9C" stroke-opacity="0.17" stroke-width="1.3548" stroke-miterlimit="10"/>
<path d="M1752.46 513.93L1767.17 496.369" stroke="#194F9C" stroke-opacity="0.17" stroke-width="1.3548" stroke-miterlimit="10"/>
<path d="M874.345 2043.09L881.935 2022.21" stroke="#194F9C" stroke-opacity="0.17" stroke-width="1.3548" stroke-miterlimit="10"/>
<path d="M1486.79 360.159L1494.39 339.277" stroke="#194F9C" stroke-opacity="0.17" stroke-width="1.3548" stroke-miterlimit="10"/>
<path d="M1171.79 348.769C1171.79 343.548 1172.27 339.751 1173.22 336.429C1174.17 333.581 1175.59 331.208 1177.96 329.31C1179.86 327.412 1182.7 326.937 1185.55 326.937C1187.92 326.937 1189.82 327.412 1191.72 328.361C1193.62 329.31 1195.04 330.734 1195.99 332.158C1196.94 333.581 1197.89 335.954 1198.83 338.327C1199.31 340.7 1199.78 344.023 1199.78 348.294C1199.78 353.515 1199.31 357.311 1198.36 360.634C1197.41 363.481 1195.99 365.854 1193.62 367.753C1191.72 369.651 1188.87 370.126 1186.03 370.126C1181.76 370.126 1178.91 368.702 1176.54 365.854C1173.22 362.532 1171.79 356.837 1171.79 348.769ZM1177.01 348.769C1177.01 355.888 1177.96 360.634 1179.38 362.532C1180.81 364.43 1183.18 365.854 1185.55 365.854C1187.92 365.854 1189.82 364.905 1191.72 362.532C1193.14 360.159 1194.09 355.413 1194.09 348.769C1194.09 341.65 1193.14 336.904 1191.72 334.531C1190.3 332.158 1187.92 331.208 1185.55 331.208C1183.18 331.208 1181.28 332.158 1179.86 334.056C1177.96 336.904 1177.01 341.65 1177.01 348.769Z" fill="white"/>
<path d="M1212.12 2014.61H1217.34V2047.84C1218.76 2046.41 1220.18 2045.46 1222.08 2044.04C1223.98 2042.62 1225.88 2042.14 1227.77 2041.19V2046.41C1224.93 2047.84 1222.08 2049.26 1220.18 2051.63C1217.81 2053.53 1216.39 2055.43 1215.44 2057.33H1212.12V2014.61Z" fill="white"/>
<path d="M1190.3 2037.87C1192.67 2038.82 1194.09 2039.77 1195.04 2041.19C1195.99 2042.62 1196.46 2044.51 1196.46 2046.41C1196.46 2049.74 1195.51 2052.11 1193.14 2054.48C1190.77 2056.85 1187.92 2057.8 1184.13 2057.8C1180.33 2057.8 1177.49 2056.85 1175.11 2054.48C1172.74 2052.11 1171.79 2049.74 1171.79 2046.41C1171.79 2044.51 1172.27 2042.62 1173.22 2041.19C1174.17 2039.77 1176.06 2038.82 1177.96 2037.87C1175.11 2036.92 1173.22 2035.5 1171.79 2033.6C1170.37 2031.7 1169.9 2029.33 1169.9 2026.95C1169.9 2023.16 1171.32 2020.31 1173.69 2017.94C1176.06 2015.56 1179.86 2014.14 1183.65 2014.14C1187.45 2014.14 1191.24 2015.56 1193.62 2017.94C1195.99 2020.31 1197.41 2023.63 1197.41 2027.43C1197.41 2030.28 1196.94 2032.65 1195.51 2034.55C1195.04 2035.97 1193.14 2036.92 1190.3 2037.87ZM1193.14 2026.95C1193.14 2025.53 1192.67 2024.11 1192.19 2022.68C1191.24 2021.26 1190.3 2020.31 1188.87 2019.36C1187.45 2018.41 1186.03 2018.41 1184.13 2018.41C1181.76 2018.41 1179.38 2019.36 1177.96 2020.78C1176.54 2022.21 1175.59 2024.58 1175.59 2026.95C1175.59 2029.33 1176.54 2031.7 1177.96 2033.12C1179.38 2034.55 1181.76 2035.5 1184.13 2035.5C1186.5 2035.5 1188.87 2034.55 1190.3 2033.12C1191.72 2031.7 1193.14 2029.33 1193.14 2026.95ZM1191.72 2046.89C1191.72 2044.99 1191.24 2043.09 1189.82 2042.14C1188.4 2040.72 1186.97 2040.24 1184.6 2040.24C1182.7 2040.24 1180.81 2040.72 1179.86 2042.14C1178.44 2043.57 1177.96 2044.99 1177.96 2046.89C1177.96 2048.79 1178.44 2050.21 1179.86 2051.63C1181.28 2053.06 1182.7 2053.53 1184.6 2053.53C1186.5 2053.53 1188.4 2053.06 1189.35 2051.63C1190.77 2050.21 1191.72 2048.31 1191.72 2046.89Z" fill="white"/>
<path d="M1165.63 2035.5C1165.63 2040.72 1165.15 2044.51 1164.2 2047.84C1163.25 2050.68 1161.83 2053.06 1159.46 2054.96C1157.56 2056.85 1154.72 2057.33 1151.87 2057.33C1149.5 2057.33 1147.6 2056.85 1145.7 2055.9C1143.8 2054.96 1142.38 2053.53 1141.43 2052.11C1140.48 2050.68 1139.53 2048.31 1138.59 2045.94C1138.11 2043.57 1137.64 2040.24 1137.64 2035.97C1137.64 2030.75 1138.11 2026.95 1139.06 2023.63C1140.01 2020.78 1141.43 2018.41 1143.8 2016.51C1145.7 2014.61 1148.55 2014.14 1151.39 2014.14C1155.66 2014.14 1158.51 2015.56 1160.88 2018.41C1164.2 2021.73 1165.63 2027.9 1165.63 2035.5ZM1159.93 2035.5C1159.93 2028.38 1158.98 2023.63 1157.56 2021.73C1156.14 2019.84 1153.77 2018.41 1151.39 2018.41C1149.02 2018.41 1147.12 2019.36 1145.23 2021.73C1143.33 2024.11 1142.86 2028.85 1142.86 2035.5C1142.86 2042.62 1143.8 2047.36 1145.23 2049.74C1146.65 2052.11 1149.02 2053.06 1151.39 2053.06C1153.77 2053.06 1155.66 2052.11 1157.09 2050.21C1158.98 2047.36 1159.93 2042.62 1159.93 2035.5Z" fill="white"/>
<path d="M852.997 428.502L857.741 426.129C859.164 428.502 861.062 430.4 862.959 431.349C864.857 432.298 866.754 432.298 868.652 431.349C871.024 430.4 872.447 428.976 873.87 426.603C874.819 424.23 874.819 422.332 873.87 419.959C872.922 417.586 871.498 416.162 869.601 415.213C867.703 414.264 865.331 414.264 862.959 415.213C862.01 415.687 861.062 416.162 859.638 417.111L858.69 412.365C859.164 412.365 859.164 412.365 859.638 412.365C861.536 411.416 863.434 410.467 864.857 408.568C866.28 406.67 866.28 404.772 865.331 402.399C864.857 400.5 863.434 399.551 862.01 398.602C860.587 397.653 858.69 397.653 856.792 398.602C854.894 399.076 853.471 400.5 852.522 401.924C851.574 403.822 851.574 405.721 852.048 408.094L846.83 409.043C846.355 405.721 846.83 402.399 848.253 400.026C849.676 397.653 852.048 395.754 855.369 394.33C857.741 393.381 859.638 393.381 862.01 393.381C864.382 393.856 866.28 394.33 867.703 395.754C869.126 397.178 870.55 398.602 871.024 400.5C871.498 402.399 871.973 403.822 871.498 405.721C871.024 407.619 870.075 409.043 868.652 410.467C871.024 409.992 873.396 410.467 875.294 411.891C877.191 413.314 878.614 415.213 879.563 417.586C880.986 420.908 880.512 424.705 879.089 428.027C877.191 431.349 874.819 433.722 870.55 435.146C867.229 436.57 863.908 436.57 860.587 435.146C856.792 434.197 854.42 431.824 852.997 428.502Z" fill="white"/>
<path d="M903.757 422.332L900.437 412.84L882.884 419.009L881.461 414.263L890.474 381.516L894.269 380.092L903.757 406.195L908.976 404.297L910.399 409.043L905.181 410.941L908.501 420.433L903.757 422.332ZM898.539 408.094L891.897 390.059L885.73 412.84L898.539 408.094Z" fill="white"/>
<path d="M911.823 396.703C909.925 391.957 908.976 388.161 908.976 384.838C908.976 381.516 909.45 378.669 910.874 376.77C912.297 374.872 914.194 372.973 917.515 371.55C919.887 370.6 921.785 370.6 923.683 370.6C925.58 371.075 927.478 371.55 928.901 372.973C930.324 374.397 932.222 375.821 933.645 378.194C935.068 380.092 936.491 383.415 937.915 387.211C939.812 391.957 940.761 395.754 940.761 399.076C940.761 402.399 940.286 405.246 938.863 407.145C937.44 409.518 935.542 410.941 932.222 412.365C928.426 413.789 924.631 413.314 921.785 411.416C917.99 409.518 914.669 404.297 911.823 396.703ZM917.041 394.805C919.413 401.449 921.785 405.721 924.157 407.145C926.529 408.568 928.901 409.043 931.273 408.568C933.645 407.619 935.068 406.195 936.017 403.348C936.966 400.5 936.017 395.754 933.645 389.584C931.273 382.94 928.901 378.669 926.529 377.245C924.157 375.821 921.785 375.346 919.413 376.296C917.041 377.245 915.618 378.669 915.143 381.042C913.72 383.415 914.194 388.161 917.041 394.805Z" fill="white"/>
<path d="M1490.59 1954.34L1495.33 1952.44L1506.72 1983.77C1507.67 1982.34 1508.62 1980.44 1510.04 1978.55C1511.46 1976.65 1512.89 1975.22 1514.31 1974.27L1516.21 1979.02C1513.84 1981.39 1511.94 1983.77 1510.52 1986.14C1509.09 1988.51 1508.14 1990.88 1508.14 1993.26L1504.82 1994.21L1490.59 1954.34Z" fill="white"/>
<path d="M1463.55 1998.48L1468.29 1996.11C1469.24 1998 1470.67 1998.95 1471.61 1999.43C1473.51 2000.38 1475.41 2000.38 1477.31 1999.9C1478.73 1999.43 1480.15 1998.48 1481.1 1997.05C1482.05 1995.16 1483 1993.26 1483 1990.88C1483 1988.51 1482.53 1985.19 1481.1 1980.92C1480.63 1983.29 1479.68 1985.19 1478.26 1986.61C1476.83 1988.04 1475.41 1988.99 1473.51 1989.94C1470.19 1991.36 1466.87 1990.88 1464.02 1989.46C1460.7 1988.04 1458.33 1985.19 1457.38 1981.39C1456.43 1979.02 1455.96 1976.17 1456.43 1973.8C1456.91 1971.43 1457.86 1969.05 1459.28 1967.15C1460.7 1965.26 1462.6 1963.83 1464.97 1962.88C1469.24 1961.46 1473.04 1961.46 1476.83 1963.83C1480.63 1965.73 1483.47 1970.48 1486.32 1977.12C1489.17 1984.71 1489.64 1990.88 1488.22 1995.63C1486.8 1999.43 1483.95 2002.28 1479.68 2003.7C1476.36 2004.65 1473.51 2005.12 1471.14 2003.7C1467.34 2003.7 1464.97 2001.33 1463.55 1998.48ZM1477.31 1973.8C1476.83 1971.9 1475.88 1970.48 1474.46 1969.53C1473.04 1968.1 1471.61 1967.63 1470.19 1967.15C1468.77 1966.68 1466.87 1966.68 1465.45 1967.63C1463.55 1968.58 1461.65 1970 1461.18 1971.9C1460.23 1974.27 1460.23 1976.65 1461.65 1979.49C1462.6 1982.34 1464.02 1984.24 1466.4 1985.19C1468.29 1986.14 1470.67 1986.14 1473.04 1985.66C1475.41 1984.71 1476.83 1983.29 1477.78 1981.39C1478.26 1979.02 1478.26 1976.65 1477.31 1973.8Z" fill="white"/>
<path d="M1454.06 1989.94C1455.96 1994.68 1456.91 1998.48 1456.91 2001.8C1456.91 2005.12 1456.43 2007.97 1455.01 2009.87C1453.59 2011.77 1451.69 2013.67 1448.37 2015.09C1446 2016.04 1444.1 2016.04 1442.2 2016.04C1440.3 2015.56 1438.41 2015.09 1436.98 2013.67C1435.56 2012.24 1433.66 2010.82 1432.24 2008.44C1430.82 2006.55 1429.39 2003.22 1427.97 1999.43C1426.07 1994.68 1425.12 1990.88 1425.12 1987.56C1425.12 1984.24 1425.6 1981.39 1427.02 1979.49C1428.44 1977.12 1430.34 1975.7 1433.66 1974.27C1437.46 1972.85 1441.25 1973.32 1444.1 1975.22C1447.89 1977.6 1451.22 1982.34 1454.06 1989.94ZM1448.84 1991.83C1446.47 1985.19 1444.1 1980.92 1441.73 1979.49C1439.36 1978.07 1436.98 1977.6 1434.61 1978.07C1432.24 1979.02 1430.82 1980.44 1429.87 1983.29C1428.92 1986.14 1429.87 1990.88 1432.24 1997.05C1434.61 2003.7 1436.98 2007.97 1439.36 2009.39C1441.73 2010.82 1444.1 2011.29 1446.47 2010.34C1448.84 2009.39 1450.27 2007.97 1450.74 2005.6C1452.16 2003.22 1451.69 1998.48 1448.84 1991.83Z" fill="white"/>
<path d="M613.899 587.493L617.694 583.696C620.066 585.594 622.438 586.543 624.336 586.543C626.234 586.543 628.131 586.069 629.554 584.645C631.452 583.221 632.401 580.848 632.875 578.475C633.35 576.102 632.401 573.729 630.978 571.831C629.554 569.933 627.657 568.983 625.285 568.983C622.913 568.983 621.015 569.458 619.118 570.882C618.169 571.356 617.694 572.305 616.746 573.729L614.374 569.933C614.848 569.933 614.848 569.458 614.848 569.458C616.746 568.034 617.694 566.136 618.169 564.237C618.643 562.339 618.169 560.44 616.746 558.542C615.322 557.118 613.899 556.169 612.002 556.169C610.104 556.169 608.681 556.644 606.783 558.068C605.36 559.491 604.411 560.915 603.937 562.814C603.937 564.712 604.411 566.61 605.834 568.983L601.09 571.831C599.193 568.509 598.718 565.661 599.193 562.814C599.667 559.966 601.09 557.118 603.937 555.22C605.834 553.796 607.732 552.847 609.63 552.372C612.002 551.898 613.899 551.898 615.797 552.847C617.694 553.322 619.118 554.745 620.541 556.169C621.964 557.593 622.438 559.017 622.438 560.915C622.438 562.813 622.438 564.712 621.49 566.61C623.862 565.661 626.234 565.186 628.131 565.661C630.503 566.136 632.401 567.56 634.298 569.458C636.67 572.306 637.619 575.628 637.145 579.425C636.67 583.221 634.773 586.543 631.926 588.917C629.08 591.29 625.759 592.239 622.438 592.239C619.592 591.289 616.271 590.34 613.899 587.493Z" fill="white"/>
<path d="M664.186 553.321L667.506 557.118L645.684 575.153C644.735 574.204 644.261 573.255 643.786 571.831C643.312 569.932 642.838 567.559 642.838 565.186C642.838 562.813 643.312 559.491 643.786 555.694C644.735 549.999 645.21 545.253 645.21 542.88C645.21 540.032 644.261 538.134 642.838 536.71C641.414 535.286 639.991 534.337 637.619 534.337C635.722 534.337 633.824 534.812 631.926 536.236C630.029 537.66 629.08 539.558 628.606 541.931C628.606 543.829 629.08 546.202 630.978 548.101L626.708 550.948C624.336 547.626 623.387 544.304 623.862 541.456C624.336 538.134 626.234 535.286 629.08 532.913C632.401 530.066 635.247 529.117 638.568 529.117C641.889 529.117 644.735 530.54 646.633 533.388C647.582 534.812 648.53 536.236 649.005 538.134C649.479 540.032 649.954 541.931 649.479 544.304C649.479 546.677 649.005 550.474 648.056 555.22C647.582 559.491 647.107 561.864 647.107 563.288C647.107 564.712 647.107 565.661 647.107 567.085L664.186 553.321Z" fill="white"/>
<path d="M658.493 537.66C655.172 533.863 652.8 530.541 651.851 527.218C650.902 524.371 650.428 521.523 650.902 518.676C651.377 516.303 652.8 513.93 655.172 511.557C657.07 510.133 658.967 509.184 660.865 508.709C662.762 508.234 664.66 508.234 666.558 509.184C668.455 509.658 670.353 510.607 672.725 512.506C674.622 513.93 676.994 516.303 679.841 519.625C683.162 523.422 685.059 526.744 686.482 530.066C687.431 532.914 687.906 535.761 687.431 538.609C686.957 540.982 685.534 543.355 683.162 545.728C679.841 548.575 676.52 549.525 672.725 548.575C668.455 547.152 663.711 543.829 658.493 537.66ZM662.762 533.863C667.506 539.083 670.827 542.406 673.674 542.88C676.52 543.829 678.892 543.355 680.79 541.456C682.687 540.033 683.636 537.66 683.162 534.812C682.687 531.964 680.79 527.693 676.046 522.472C671.302 517.252 667.981 513.93 665.134 513.455C662.288 512.506 659.916 512.98 658.018 514.879C656.121 516.303 655.172 518.676 655.646 521.049C655.646 524.371 658.018 528.642 662.762 533.863Z" fill="white"/>
<path d="M1733.01 1802.47L1736.8 1799.15L1758.15 1824.77C1758.15 1822.88 1758.63 1820.98 1759.58 1818.6C1760.52 1816.23 1761 1814.33 1761.95 1812.91L1765.27 1816.71C1763.84 1819.55 1762.9 1822.4 1762.42 1825.25C1761.95 1828.1 1761.95 1830.47 1762.42 1832.84L1760.05 1835.22L1733.01 1802.47Z" fill="white"/>
<path d="M1710.24 1821.93L1716.88 1830L1731.11 1818.13L1734.43 1821.93L1737.28 1855.62L1733.96 1858.47L1716.4 1837.11L1712.14 1840.91L1708.81 1837.11L1713.08 1833.32L1706.44 1825.25L1710.24 1821.93ZM1719.73 1833.32L1732.06 1848.03L1729.69 1824.77L1719.73 1833.32Z" fill="white"/>
<path d="M1711.19 1848.5C1714.51 1852.3 1716.88 1855.62 1717.83 1858.95C1718.78 1861.79 1719.25 1864.64 1718.78 1867.49C1718.3 1869.86 1716.88 1872.23 1714.51 1874.61C1712.61 1876.03 1710.71 1876.98 1708.81 1877.46C1706.92 1877.93 1705.02 1877.93 1703.12 1876.98C1701.22 1876.51 1699.33 1875.56 1696.95 1873.66C1694.58 1871.76 1692.68 1869.86 1689.84 1866.54C1686.52 1862.74 1684.62 1859.42 1683.2 1856.1C1682.25 1853.25 1681.77 1850.4 1682.25 1847.56C1682.72 1845.18 1684.15 1842.81 1686.52 1840.44C1689.84 1837.59 1693.16 1836.64 1696.95 1837.59C1701.22 1839.01 1705.97 1842.33 1711.19 1848.5ZM1706.92 1851.83C1702.17 1846.61 1698.85 1843.28 1696.01 1842.81C1693.16 1841.86 1690.79 1842.33 1688.89 1844.23C1686.99 1845.66 1686.04 1848.03 1686.52 1850.88C1686.99 1853.73 1688.89 1858 1693.63 1863.22C1698.38 1868.44 1701.7 1871.76 1704.54 1872.23C1707.39 1872.71 1709.76 1872.71 1711.66 1870.81C1713.56 1869.39 1714.51 1867.01 1714.03 1864.64C1713.56 1861.79 1711.19 1857.52 1706.92 1851.83Z" fill="white"/>
<path d="M443.115 817.199L445.013 812.453C447.859 813.402 450.231 813.402 452.129 812.927C454.026 812.453 455.45 811.029 456.398 809.131C457.822 806.758 457.822 804.859 457.347 802.486C456.873 800.113 455.45 798.215 453.078 797.266C451.18 795.842 448.808 795.842 446.91 796.316C445.013 796.791 443.115 798.215 441.692 800.113C441.218 801.062 440.743 802.012 440.269 803.435L436.474 800.588C436.474 800.113 436.948 800.113 436.948 800.113C437.897 798.215 438.371 796.316 438.371 793.943C438.371 792.045 436.948 790.147 435.05 788.723C433.627 787.774 431.73 787.299 429.832 788.248C427.934 788.723 426.511 789.672 425.562 791.57C424.614 793.469 424.139 795.367 424.614 796.791C425.088 798.689 426.037 800.113 428.409 802.012L425.088 806.283C422.242 803.91 420.818 801.537 420.344 798.215C419.87 795.367 420.344 792.52 422.242 789.197C423.19 787.299 425.088 785.401 426.986 784.451C428.883 783.502 430.781 782.553 432.678 782.553C434.576 782.553 436.474 783.028 438.371 783.977C439.794 784.926 441.218 786.35 442.166 787.774C443.115 789.197 443.115 791.096 443.115 793.469C445.013 791.57 446.91 790.621 449.282 790.147C451.654 789.672 454.026 790.621 456.398 791.57C459.719 793.469 461.617 796.316 462.566 799.639C463.514 803.435 463.04 806.758 460.668 810.554C458.77 813.877 456.398 815.775 453.078 817.199C449.282 819.097 446.436 818.623 443.115 817.199Z" fill="white"/>
<path d="M451.18 783.977C446.91 781.604 443.59 778.756 441.218 776.383C438.846 774.01 437.897 771.637 437.422 768.79C436.948 765.942 437.422 763.569 439.32 760.722C440.269 758.823 441.692 757.399 443.59 755.976C445.013 755.026 446.91 754.552 449.282 754.077C451.18 754.077 453.552 754.077 455.924 755.026C458.296 755.501 461.617 756.925 464.938 759.298C469.207 761.671 472.528 764.044 474.9 766.891C477.272 769.264 478.221 771.637 478.695 774.485C479.17 777.333 478.695 779.706 476.798 782.553C474.9 786.35 472.054 788.248 468.258 788.723C463.514 789.672 457.822 787.774 451.18 783.977ZM453.552 779.231C459.719 782.553 463.989 784.452 466.835 783.977C469.682 783.502 471.579 782.553 473.002 780.655C474.426 778.756 474.426 776.383 473.002 773.536C471.579 771.163 468.258 767.841 462.091 764.518C455.924 761.196 451.654 759.298 448.808 759.772C445.962 760.247 444.064 761.196 442.641 763.569C441.218 765.468 441.218 767.841 442.641 770.214C444.064 772.587 447.859 775.434 453.552 779.231Z" fill="white"/>
<path d="M467.784 755.026C463.514 752.653 460.194 749.806 457.822 747.433C455.45 745.06 454.501 742.687 454.026 739.839C453.552 737.466 454.026 734.618 455.924 731.771C456.873 729.872 458.296 728.449 460.194 727.025C462.091 725.601 463.514 725.601 465.886 725.126C467.784 725.126 470.156 725.126 472.528 726.076C474.9 726.55 478.221 727.974 481.542 730.347C485.811 732.72 489.132 735.093 491.504 737.941C493.876 740.788 494.825 742.687 495.299 745.534C495.774 748.382 495.299 750.755 493.402 753.602C491.504 757.399 488.658 759.298 484.862 759.772C480.118 760.721 474.426 759.298 467.784 755.026ZM470.156 750.28C476.323 753.602 480.593 755.501 483.439 755.026C486.286 754.552 488.183 753.602 489.606 751.704C491.03 749.806 491.03 747.433 489.606 744.585C488.183 742.212 484.862 738.89 478.695 735.568C472.528 732.245 468.258 730.347 465.412 730.822C462.566 731.296 460.668 732.245 459.245 734.618C457.822 736.517 457.822 738.89 459.245 741.263C460.668 743.636 464.463 746.958 470.156 750.28Z" fill="white"/>
<path d="M1906.16 1577.51L1909.01 1572.76L1937.95 1589.37C1937.48 1587.47 1937.48 1585.58 1937.48 1583.2C1937.48 1580.83 1937.48 1578.93 1937.95 1577.03L1942.22 1579.41C1941.74 1582.73 1942.22 1585.58 1942.69 1588.42C1943.17 1591.27 1944.12 1593.64 1945.54 1595.54L1943.64 1598.39L1906.16 1577.51Z" fill="white"/>
<path d="M1890.03 1615.48L1885.77 1613.1L1900 1588.42C1900.95 1588.9 1901.9 1589.85 1902.84 1590.8C1904.27 1592.22 1905.22 1594.12 1906.16 1596.49C1907.11 1598.87 1907.59 1601.71 1908.54 1605.51C1909.49 1611.2 1910.43 1615.48 1911.86 1618.32C1912.81 1620.7 1914.23 1622.59 1916.13 1623.54C1918.02 1624.49 1919.92 1624.97 1921.82 1624.02C1923.72 1623.07 1925.62 1622.12 1926.56 1620.22C1927.99 1617.85 1927.99 1615.95 1927.51 1614.05C1927.04 1612.15 1925.61 1610.26 1923.24 1608.83L1926.56 1604.56C1929.88 1606.93 1931.78 1609.78 1932.26 1612.63C1932.73 1615.95 1932.26 1619.27 1930.36 1622.6C1928.46 1625.92 1925.62 1628.29 1922.77 1629.24C1919.45 1630.19 1916.6 1629.71 1913.75 1628.29C1912.33 1627.34 1910.91 1626.39 1909.96 1624.97C1909.01 1623.54 1908.06 1621.65 1907.11 1619.27C1906.16 1616.9 1905.69 1613.58 1904.74 1608.36C1903.79 1604.09 1903.32 1601.71 1903.32 1600.29C1902.84 1598.87 1902.37 1597.92 1901.89 1596.97L1890.03 1615.48Z" fill="white"/>
<path d="M1901.42 1628.29C1905.69 1630.66 1909.01 1633.51 1911.38 1635.88C1913.76 1638.26 1914.7 1640.63 1915.18 1643.48C1915.65 1646.32 1915.18 1648.7 1913.28 1651.55C1912.33 1653.44 1910.91 1654.87 1909.01 1656.29C1907.11 1657.72 1905.69 1657.72 1903.32 1658.19C1901.42 1658.19 1899.05 1658.19 1896.68 1657.24C1894.3 1656.77 1890.98 1655.34 1887.66 1652.97C1883.39 1650.6 1880.07 1648.22 1877.7 1645.38C1875.33 1643 1874.38 1640.63 1873.91 1637.78C1873.43 1634.93 1873.91 1632.56 1875.8 1629.71C1877.7 1625.92 1880.55 1624.02 1884.34 1623.54C1888.61 1622.59 1894.3 1624.49 1901.42 1628.29ZM1898.57 1633.04C1892.41 1629.71 1888.14 1627.82 1885.29 1628.29C1882.44 1628.76 1880.55 1629.71 1879.12 1631.61C1877.7 1633.51 1877.7 1635.88 1879.12 1638.73C1880.55 1641.1 1883.87 1644.43 1890.04 1647.75C1896.2 1651.07 1900.47 1652.97 1903.32 1652.49C1906.16 1652.02 1908.06 1651.07 1909.49 1648.7C1910.91 1646.8 1910.91 1644.43 1909.49 1642.05C1908.54 1639.68 1904.74 1636.36 1898.57 1633.04Z" fill="white"/>
<path d="M370.532 1067.31L375.276 1068.26L370.532 1096.26C369.109 1096.26 368.16 1095.79 367.211 1094.84C365.313 1093.89 363.89 1092.47 361.993 1090.57C360.095 1088.67 358.672 1086.3 356.774 1082.5C353.928 1077.28 351.556 1073.48 349.658 1071.58C347.761 1069.69 345.863 1068.26 343.965 1068.26C342.068 1067.79 340.17 1068.26 338.273 1069.69C336.849 1071.11 335.426 1072.53 334.952 1074.91C334.477 1077.28 334.952 1079.65 336.375 1081.08C337.798 1082.98 339.696 1083.92 342.068 1084.4L340.645 1089.62C336.849 1088.67 334.003 1086.77 332.105 1083.92C330.682 1081.08 329.733 1077.75 330.682 1073.96C331.157 1069.69 333.054 1066.84 335.901 1064.94C338.747 1063.04 341.593 1062.09 344.914 1063.04C346.812 1063.52 348.235 1063.99 349.658 1064.94C351.081 1065.89 352.505 1067.31 354.402 1069.21C356.3 1071.11 357.723 1074.43 360.569 1078.7C362.467 1082.03 363.89 1084.4 364.839 1085.82C365.788 1086.77 366.262 1087.72 367.211 1088.67L370.532 1067.31Z" fill="white"/>
<path d="M354.877 1050.7C353.928 1052.6 352.505 1054.02 350.607 1054.97C349.184 1055.92 347.286 1055.92 344.914 1055.45C342.068 1054.97 339.696 1053.55 337.798 1050.7C335.901 1047.85 335.426 1045.01 336.375 1041.21C336.849 1037.41 338.747 1034.57 341.119 1033.14C343.491 1031.24 346.337 1030.77 349.658 1031.24C351.556 1031.72 352.979 1032.19 354.402 1033.62C355.825 1035.04 356.3 1036.46 356.774 1038.84C358.197 1036.46 359.621 1034.57 361.993 1033.62C363.89 1032.67 366.262 1032.19 369.109 1032.67C372.904 1033.14 375.276 1035.04 377.648 1037.89C379.545 1040.74 380.494 1044.53 379.545 1048.8C378.597 1053.08 377.173 1055.92 374.327 1058.3C371.481 1060.19 368.16 1061.14 364.365 1060.67C361.518 1060.19 359.621 1059.24 357.723 1057.35C356.3 1055.92 355.351 1053.55 354.877 1050.7ZM345.863 1050.23C347.761 1050.7 349.658 1050.23 351.081 1049.28C352.505 1048.33 353.453 1046.91 353.928 1044.53C354.402 1042.63 353.928 1040.74 352.979 1039.31C352.03 1037.89 350.607 1036.94 348.709 1036.46C346.812 1035.99 344.914 1036.46 343.491 1037.41C342.068 1038.36 341.119 1039.79 340.645 1042.16C340.17 1044.06 340.645 1045.96 341.593 1047.38C342.542 1048.8 344.44 1050.23 345.863 1050.23ZM365.313 1055.45C366.737 1055.92 368.16 1055.45 369.583 1054.97C371.006 1054.5 372.429 1053.55 373.378 1052.6C374.327 1051.65 374.801 1049.75 375.276 1048.33C375.75 1045.96 375.276 1043.58 373.853 1041.68C372.429 1039.79 370.532 1038.84 368.16 1038.36C365.788 1037.89 363.416 1038.36 361.518 1039.79C359.621 1041.21 358.197 1043.11 358.197 1045.48C357.723 1047.85 358.197 1050.23 359.621 1052.13C361.044 1054.02 362.941 1054.97 365.313 1055.45Z" fill="white"/>
<path d="M361.518 1026.5C356.774 1025.55 352.505 1024.6 349.658 1022.7C346.812 1021.28 344.914 1019.38 343.491 1017.01C342.068 1014.63 341.593 1011.78 342.542 1008.94C343.017 1006.56 343.965 1004.67 344.914 1003.24C346.337 1001.82 347.761 1000.39 349.658 999.92C351.556 998.971 353.928 998.496 356.3 998.496C358.672 998.496 362.467 998.496 366.262 999.445C371.006 1000.39 375.276 1001.34 378.122 1003.24C380.969 1004.67 382.866 1006.56 384.289 1008.94C385.713 1011.31 386.187 1014.16 385.238 1017.01C384.289 1021.28 382.392 1024.12 379.071 1026.02C375.276 1027.45 369.109 1027.92 361.518 1026.5ZM362.467 1021.28C369.583 1022.7 374.327 1022.7 376.699 1021.28C379.071 1019.85 380.969 1018.43 380.969 1016.06C381.443 1013.68 380.494 1011.31 378.597 1009.41C376.699 1007.51 371.955 1005.62 365.313 1004.67C358.197 1003.24 353.453 1003.24 351.081 1004.67C348.709 1006.09 346.812 1007.51 346.812 1009.89C346.337 1012.26 347.286 1014.16 348.709 1016.06C350.607 1018.43 355.351 1019.85 362.467 1021.28Z" fill="white"/>
<path d="M1995.35 1306.51L1996.3 1301.29L2029.03 1306.99C2028.09 1305.56 2027.14 1303.66 2026.19 1301.29C2025.24 1298.92 2024.76 1297.02 2024.29 1295.6L2029.51 1296.54C2030.46 1299.87 2031.41 1302.71 2033.3 1305.09C2034.73 1307.46 2036.62 1309.36 2038.05 1310.78L2037.57 1314.11L1995.35 1306.51Z" fill="white"/>
<path d="M2013.85 1323.6C2018.6 1324.55 2022.87 1325.5 2025.71 1327.39C2028.56 1329.29 2030.46 1330.72 2031.88 1333.09C2033.3 1335.46 2033.3 1338.31 2032.83 1341.16C2032.36 1343.53 2031.41 1345.43 2030.46 1346.85C2029.03 1348.28 2027.61 1349.7 2025.71 1350.17C2023.82 1351.12 2021.44 1351.6 2019.07 1351.6C2016.7 1351.6 2012.9 1351.6 2009.11 1350.65C2004.37 1349.7 2000.1 1348.75 1997.25 1346.85C1994.4 1345.43 1992.51 1343.53 1991.08 1341.16C1989.66 1338.78 1989.18 1335.94 1990.13 1333.09C1991.08 1328.82 1992.98 1325.97 1996.3 1324.07C2000.1 1322.65 2005.79 1322.17 2013.85 1323.6ZM2012.91 1328.82C2005.79 1327.39 2001.05 1327.39 1998.67 1328.82C1996.3 1330.24 1994.4 1331.67 1994.4 1334.04C1994.4 1336.41 1994.88 1338.78 1996.78 1340.68C1998.67 1342.58 2003.42 1344.48 2010.06 1345.43C2017.17 1346.85 2021.92 1346.85 2024.29 1345.43C2026.66 1344 2028.56 1342.58 2028.56 1340.21C2029.03 1337.84 2028.09 1335.94 2026.66 1334.04C2024.29 1331.67 2019.55 1329.77 2012.91 1328.82Z" fill="white"/>
<path d="M2008.16 1356.34C2012.9 1357.29 2017.17 1358.24 2020.02 1360.14C2022.87 1361.57 2024.76 1363.46 2026.19 1365.84C2027.61 1368.21 2028.09 1371.06 2027.14 1373.9C2026.66 1376.28 2025.71 1378.18 2024.76 1379.6C2023.34 1381.02 2021.92 1382.45 2020.02 1382.92C2018.12 1383.87 2015.75 1384.35 2013.38 1384.35C2011.01 1384.35 2007.21 1384.35 2003.42 1383.4C1998.67 1382.45 1994.4 1381.5 1991.56 1379.6C1988.71 1378.18 1986.81 1376.28 1985.39 1373.9C1983.97 1371.53 1983.49 1368.68 1984.44 1365.84C1985.39 1361.57 1987.29 1358.72 1990.61 1356.82C1993.93 1354.92 2000.1 1354.92 2008.16 1356.34ZM2007.21 1361.57C2000.1 1360.14 1995.35 1360.14 1992.98 1361.57C1990.61 1362.99 1988.71 1364.41 1988.71 1366.79C1988.24 1369.16 1989.18 1371.53 1991.08 1373.43C1992.98 1375.33 1997.72 1377.23 2004.37 1378.18C2011.48 1379.6 2016.23 1379.6 2018.6 1378.18C2020.97 1376.75 2022.87 1375.33 2022.87 1372.96C2023.34 1370.58 2022.39 1368.68 2020.97 1366.79C2018.6 1364.41 2013.85 1362.51 2007.21 1361.57Z" fill="white"/>
<path d="M377.648 1353.5L382.392 1352.55L387.136 1380.55C385.713 1381.02 384.764 1381.02 383.341 1380.55C381.443 1380.07 379.071 1379.6 377.174 1378.18C375.276 1376.75 372.43 1374.85 369.583 1372.48C364.839 1368.68 361.518 1365.84 359.146 1364.89C356.774 1363.46 354.402 1363.46 352.505 1363.46C350.607 1363.94 348.71 1364.89 347.761 1366.79C346.812 1368.68 346.338 1370.58 346.812 1372.96C347.286 1375.33 348.235 1377.23 350.133 1378.65C352.03 1380.07 353.928 1380.07 356.774 1379.6L357.249 1384.82C353.454 1385.3 350.133 1384.35 347.286 1382.45C344.914 1380.55 343.017 1377.23 342.542 1373.43C342.068 1369.63 342.542 1365.84 344.44 1363.46C346.338 1360.62 348.71 1359.19 352.03 1358.24C353.928 1357.77 355.351 1357.77 357.249 1358.24C359.146 1358.72 361.044 1359.67 362.942 1360.62C364.839 1361.57 368.16 1363.94 371.955 1367.26C375.276 1370.11 377.174 1371.53 378.122 1372.48C379.071 1373.43 380.494 1373.9 381.443 1374.38L377.648 1353.5Z" fill="white"/>
<path d="M344.914 1325.97L346.338 1331.19C344.44 1332.14 343.017 1333.09 342.068 1334.04C340.645 1335.46 340.17 1337.36 340.645 1339.73C341.119 1341.16 341.594 1342.58 343.017 1344.01C344.44 1345.43 346.338 1346.38 348.71 1346.85C351.082 1347.33 354.402 1347.33 358.672 1346.38C356.774 1345.43 354.877 1344.01 353.454 1342.58C352.03 1341.16 351.556 1339.26 351.082 1337.36C350.607 1334.04 351.082 1330.72 353.454 1327.87C355.351 1325.02 358.672 1323.12 362.467 1322.65C365.314 1322.17 367.686 1322.17 370.058 1323.12C372.43 1324.07 374.327 1325.02 376.225 1326.92C377.648 1328.82 378.597 1330.72 379.071 1333.56C380.02 1337.84 379.071 1341.63 376.225 1344.95C373.378 1348.28 368.634 1350.65 361.518 1351.6C353.454 1353.02 347.286 1352.55 343.017 1350.17C339.222 1348.28 337.324 1344.95 336.375 1340.21C335.901 1336.89 336.375 1334.04 337.798 1331.67C339.696 1328.82 342.068 1326.92 344.914 1325.97ZM366.737 1344.01C368.634 1343.53 370.058 1343.06 371.481 1342.11C372.904 1341.16 373.853 1339.73 374.802 1338.31C375.276 1336.89 375.75 1335.46 375.276 1334.04C374.802 1331.67 373.853 1330.24 371.481 1328.82C369.583 1327.39 366.737 1327.39 363.89 1327.87C361.044 1328.34 358.672 1329.77 357.249 1331.19C355.826 1333.09 355.351 1334.99 355.826 1337.36C356.3 1339.73 357.249 1341.63 359.146 1343.06C361.993 1344.01 364.365 1344.48 366.737 1344.01Z" fill="white"/>
<path d="M354.877 1318.38C350.133 1319.33 345.863 1319.33 342.542 1318.85C339.222 1318.38 336.85 1317.43 334.952 1315.53C333.054 1313.63 331.631 1311.26 331.157 1308.41C330.682 1306.04 330.682 1304.14 331.631 1302.24C332.106 1300.34 333.529 1298.92 334.952 1297.49C336.375 1296.07 338.273 1294.65 340.645 1293.7C343.017 1292.75 346.338 1291.8 350.607 1290.85C355.351 1289.9 359.621 1289.9 362.942 1290.38C366.262 1290.85 368.634 1291.8 370.532 1293.7C372.43 1295.6 373.853 1297.97 374.327 1300.82C375.276 1305.09 374.327 1308.41 371.481 1311.26C368.634 1314.58 362.942 1316.95 354.877 1318.38ZM353.928 1313.16C361.044 1311.73 365.314 1310.31 367.211 1308.41C369.109 1306.51 370.058 1304.14 369.583 1301.77C369.109 1299.39 367.686 1297.49 365.314 1296.55C362.942 1295.6 358.198 1295.12 351.082 1296.55C343.966 1297.97 339.696 1299.39 337.798 1301.29C335.901 1303.19 334.952 1305.56 335.426 1307.94C335.901 1310.31 337.324 1312.21 339.222 1313.16C342.542 1314.11 347.286 1314.11 353.928 1313.16Z" fill="white"/>
<path d="M2011.96 1022.23C2012.43 1019.85 2013.38 1017.95 2014.33 1017.01C2015.75 1015.58 2017.17 1015.11 2019.07 1014.63C2021.92 1014.16 2024.76 1014.63 2027.14 1016.53C2029.51 1018.43 2030.93 1021.28 2031.88 1024.6C2032.36 1028.4 2031.88 1031.24 2030.46 1034.09C2028.56 1036.94 2026.19 1038.36 2023.34 1038.84C2021.44 1039.31 2019.55 1038.84 2018.12 1038.36C2016.7 1037.41 2015.28 1036.46 2013.85 1034.09C2013.38 1036.94 2012.43 1038.84 2011.01 1040.74C2009.58 1042.63 2007.21 1043.58 2004.84 1044.06C2001.04 1044.53 1998.2 1044.06 1994.88 1041.68C1992.03 1039.79 1990.13 1036.46 1989.66 1032.19C1988.71 1027.92 1989.66 1024.6 1991.56 1021.28C1993.45 1018.43 1996.3 1016.53 2000.1 1016.06C2002.94 1015.58 2005.31 1016.06 2007.21 1017.01C2009.58 1017.95 2011.01 1019.85 2011.96 1022.23ZM2001.04 1021.28C1999.62 1021.75 1998.2 1022.23 1996.78 1023.18C1995.35 1024.12 1994.4 1025.55 1993.93 1026.97C1993.45 1028.4 1993.45 1029.82 1993.45 1031.72C1993.93 1034.09 1994.88 1035.99 1996.78 1037.41C1998.67 1038.84 2000.57 1039.31 2003.42 1038.84C2005.79 1038.36 2007.69 1037.41 2009.11 1035.04C2010.53 1032.67 2011.01 1030.77 2010.53 1028.4C2010.06 1026.02 2009.11 1024.12 2007.21 1022.7C2005.79 1021.28 2003.42 1021.28 2001.04 1021.28ZM2020.97 1019.85C2019.07 1020.33 2017.65 1021.28 2016.23 1022.7C2015.28 1024.12 2014.8 1026.02 2015.28 1027.92C2015.75 1029.82 2016.7 1031.24 2018.12 1032.67C2019.55 1033.62 2021.44 1034.09 2022.87 1033.62C2024.76 1033.14 2026.19 1032.19 2027.14 1030.77C2028.09 1029.35 2028.56 1027.45 2028.09 1025.55C2027.61 1023.65 2026.66 1022.23 2025.24 1020.8C2024.29 1019.85 2022.39 1019.38 2020.97 1019.85Z" fill="white"/>
<path d="M2014.33 1047.38C2019.07 1046.43 2023.34 1046.43 2026.66 1046.91C2029.98 1047.38 2032.36 1048.33 2034.25 1050.23C2036.15 1052.13 2037.57 1054.5 2038.05 1057.35C2038.52 1059.72 2038.52 1061.62 2037.57 1063.52C2037.1 1065.41 2035.68 1066.84 2034.25 1068.26C2032.83 1069.69 2030.93 1071.11 2028.56 1072.06C2026.19 1073.01 2022.87 1073.96 2018.6 1074.91C2013.85 1075.86 2009.58 1075.86 2006.26 1075.38C2002.94 1074.91 2000.57 1073.96 1998.67 1072.06C1996.78 1070.16 1995.35 1067.79 1994.88 1064.94C1993.93 1060.67 1994.88 1057.35 1997.72 1054.5C2001.04 1051.18 2006.74 1048.8 2014.33 1047.38ZM2015.28 1052.6C2008.16 1054.02 2003.89 1055.45 2001.99 1057.35C2000.1 1059.24 1999.15 1061.62 1999.62 1063.99C2000.1 1066.36 2001.52 1068.26 2003.89 1069.21C2006.26 1070.64 2011.01 1070.64 2018.12 1069.21C2025.24 1067.79 2029.51 1066.36 2031.41 1064.47C2033.3 1062.57 2034.25 1060.19 2033.78 1057.82C2033.3 1055.45 2031.88 1053.55 2029.98 1052.6C2027.14 1051.65 2022.39 1051.65 2015.28 1052.6Z" fill="white"/>
<path d="M486.286 1617.85L490.555 1615.48L504.787 1640.16C503.838 1640.63 502.415 1641.1 501.466 1641.58C499.569 1642.05 497.197 1642.05 494.825 1641.58C492.453 1641.1 489.606 1640.16 485.811 1638.73C480.118 1636.83 475.849 1635.41 473.477 1634.93C470.63 1634.46 468.733 1634.93 466.835 1635.88C464.938 1636.83 463.989 1638.26 463.514 1640.63C463.04 1642.53 463.514 1644.9 464.463 1646.8C465.886 1649.17 467.31 1650.12 469.682 1651.07C472.054 1652.02 473.951 1651.07 476.323 1650.12L478.695 1654.87C474.9 1656.77 471.579 1656.77 468.733 1655.82C465.886 1654.87 463.04 1652.5 461.142 1649.17C459.245 1645.85 458.296 1642.05 459.245 1639.21C460.194 1635.88 462.091 1633.51 464.938 1632.09C466.361 1631.14 468.258 1630.66 469.682 1630.66C471.579 1630.66 473.477 1630.66 475.849 1631.14C478.221 1631.61 481.542 1632.56 486.286 1634.46C490.081 1635.88 492.927 1636.83 493.876 1636.83C495.299 1637.31 496.248 1637.31 497.671 1637.31L486.286 1617.85Z" fill="white"/>
<path d="M479.644 1596.02L470.63 1601.24L480.118 1617.37L475.849 1619.75L442.166 1616.9L439.794 1613.1L463.514 1599.34L460.668 1594.12L464.937 1591.75L467.784 1596.97L476.797 1591.75L479.644 1596.02ZM466.361 1603.61L449.757 1613.1L473.002 1615L466.361 1603.61Z" fill="white"/>
<path d="M453.077 1592.22C448.808 1594.59 445.013 1596.49 441.692 1596.97C438.371 1597.44 435.525 1597.44 433.153 1596.49C430.781 1595.54 428.883 1593.64 426.985 1591.27C426.037 1589.37 425.088 1587.47 425.088 1585.58C425.088 1583.68 425.562 1581.78 426.511 1579.88C427.46 1577.98 428.883 1576.08 430.781 1574.19C432.678 1572.29 435.525 1570.39 438.845 1568.49C443.115 1566.12 446.91 1564.22 450.231 1563.74C453.552 1563.27 456.398 1563.27 458.77 1564.22C461.142 1565.17 463.04 1567.07 464.937 1569.91C466.835 1573.71 467.309 1577.03 465.886 1580.36C464.463 1584.15 460.193 1588.42 453.077 1592.22ZM450.231 1587.47C456.398 1584.15 459.719 1580.83 461.142 1578.46C462.565 1576.08 462.091 1573.71 461.142 1571.34C459.719 1569.44 457.822 1568.02 454.975 1568.02C452.129 1567.54 447.859 1569.44 441.692 1572.76C435.525 1576.08 432.204 1579.41 430.781 1581.78C429.832 1584.15 429.832 1586.53 430.781 1588.9C432.204 1590.8 433.627 1592.22 436.473 1592.22C439.794 1592.7 444.064 1591.27 450.231 1587.47Z" fill="white"/>
<path d="M1919.45 763.569L1916.6 759.298C1918.02 757.874 1918.97 756.45 1919.45 755.501C1919.92 753.603 1919.92 751.704 1918.97 749.806C1918.02 748.382 1917.08 747.433 1915.65 746.484C1913.76 745.534 1911.38 745.534 1909.01 745.534C1906.64 746.009 1903.32 746.958 1899.52 749.331C1901.9 749.331 1903.79 750.28 1905.69 751.23C1907.59 752.179 1908.54 753.603 1909.96 755.501C1911.86 758.349 1911.86 761.671 1910.91 764.993C1909.96 768.315 1907.59 771.163 1904.27 773.061C1901.9 774.485 1899.52 774.96 1897.15 775.434C1894.78 775.434 1892.41 774.96 1890.04 774.01C1888.14 773.061 1886.24 771.163 1884.82 768.79C1882.44 764.993 1882.44 761.196 1883.87 756.925C1885.29 753.128 1889.09 748.857 1895.73 745.534C1902.84 741.263 1909.01 739.839 1913.76 740.314C1918.02 740.788 1921.35 743.161 1923.24 746.958C1925.14 749.806 1925.62 752.653 1925.14 755.501C1923.72 758.823 1921.82 761.196 1919.45 763.569ZM1892.88 754.077C1891.46 755.026 1890.04 755.976 1889.09 757.874C1888.14 759.298 1887.66 760.722 1887.66 762.62C1887.66 764.044 1888.14 765.942 1888.61 766.891C1889.56 768.79 1891.46 770.214 1893.83 770.688C1896.2 771.163 1898.57 770.688 1901.42 769.264C1903.79 767.841 1905.69 765.942 1906.16 763.569C1906.64 761.196 1906.64 759.298 1905.22 756.925C1904.27 755.026 1902.37 753.603 1900 753.128C1897.63 752.653 1895.25 752.653 1892.88 754.077Z" fill="white"/>
<path d="M1912.81 774.01C1917.08 771.637 1920.87 769.739 1924.19 769.264C1927.51 768.79 1930.36 768.79 1932.73 769.739C1935.1 770.688 1937 772.587 1938.9 774.96C1939.85 776.858 1940.8 778.756 1940.8 780.655C1940.8 782.553 1940.32 784.452 1939.37 786.35C1938.42 788.248 1937 790.147 1935.1 792.045C1933.21 793.944 1930.36 795.842 1927.04 797.74C1922.77 800.113 1918.97 802.012 1915.65 802.486C1912.33 802.961 1909.49 802.961 1907.11 802.012C1904.74 801.063 1902.84 799.164 1900.95 796.317C1899.05 792.52 1898.57 789.198 1900 785.875C1901.42 782.079 1905.69 778.282 1912.81 774.01ZM1915.18 778.756C1909.01 782.079 1905.69 785.401 1904.27 787.774C1902.84 790.147 1903.32 792.52 1904.27 794.893C1905.69 796.791 1907.59 798.215 1910.43 798.215C1913.28 798.69 1917.55 796.791 1923.72 793.469C1929.88 790.147 1933.21 786.825 1934.63 784.452C1935.58 782.079 1935.58 779.706 1934.63 777.333C1933.21 775.434 1931.78 774.01 1928.94 774.01C1926.09 773.536 1921.35 775.434 1915.18 778.756Z" fill="white"/>
<path d="M668.455 1832.37L671.776 1828.57L693.598 1846.61C692.65 1847.56 691.701 1848.5 690.752 1848.98C688.854 1849.93 686.957 1850.88 684.585 1850.88C682.213 1850.88 678.892 1851.35 675.097 1851.35C668.93 1851.35 664.66 1851.35 662.288 1852.3C659.442 1852.78 657.544 1854.2 656.595 1855.62C655.172 1857.05 654.698 1858.95 654.698 1861.32C654.698 1863.69 656.121 1865.12 657.544 1866.54C659.442 1867.96 661.339 1868.91 663.711 1868.91C665.609 1868.91 667.981 1867.49 669.404 1865.59L673.199 1869.39C670.353 1872.23 667.506 1873.66 664.186 1873.66C660.865 1873.66 658.018 1872.23 654.698 1869.86C651.377 1867.01 649.954 1864.17 649.479 1860.84C649.005 1857.52 649.954 1854.67 652.326 1852.3C653.274 1850.88 654.698 1849.93 656.595 1848.98C658.018 1848.03 660.39 1847.56 662.762 1847.08C665.134 1846.61 668.93 1846.61 673.674 1846.61C677.943 1846.61 680.315 1846.61 681.738 1846.61C683.162 1846.61 684.11 1846.13 685.059 1845.66L668.455 1832.37Z" fill="white"/>
<path d="M642.838 1811.01L646.158 1807.21L667.981 1825.25C667.032 1826.2 666.083 1827.15 665.134 1827.62C663.237 1828.57 661.339 1829.52 658.967 1829.52C656.595 1829.52 653.274 1830 649.479 1830C643.312 1830 639.042 1830 636.67 1830.94C633.824 1831.42 631.926 1832.84 630.978 1834.27C629.554 1835.69 629.08 1837.59 629.08 1839.96C629.08 1842.33 630.503 1843.76 631.926 1845.18C633.824 1846.61 635.722 1847.56 638.094 1847.56C639.991 1847.56 642.363 1846.13 643.786 1844.23L647.582 1848.03C644.735 1850.88 641.889 1852.3 638.568 1852.3C635.247 1852.3 632.401 1850.88 629.08 1848.5C625.759 1845.66 624.336 1842.81 623.862 1839.49C623.387 1836.17 624.336 1833.32 626.708 1830.94C627.657 1829.52 629.08 1828.57 630.978 1827.62C632.401 1826.67 634.773 1826.2 637.145 1825.72C639.517 1825.25 643.312 1825.25 648.056 1825.25C652.326 1825.25 654.698 1825.25 656.121 1825.25C657.544 1825.25 658.493 1824.77 659.442 1824.3L642.838 1811.01Z" fill="white"/>
<path d="M628.131 1819.55C624.81 1823.35 621.964 1826.2 619.117 1828.1C616.271 1830 613.425 1830.47 611.053 1830.47C608.206 1830.47 605.834 1829.52 603.462 1827.62C601.565 1826.2 600.616 1824.3 599.667 1822.88C598.718 1820.98 598.718 1819.08 598.718 1817.18C599.193 1815.28 599.667 1812.91 600.616 1810.54C601.565 1808.16 603.462 1805.32 606.309 1801.99C609.629 1798.2 612.476 1795.35 615.322 1793.93C618.169 1792.03 621.015 1791.55 623.387 1791.55C626.233 1791.55 628.605 1792.5 630.977 1794.4C634.298 1797.25 635.721 1800.1 635.721 1803.89C636.196 1808.16 633.349 1813.38 628.131 1819.55ZM624.336 1816.23C628.605 1811.01 630.977 1806.74 631.452 1803.89C631.452 1801.04 630.977 1798.67 629.08 1797.25C627.182 1795.82 624.81 1795.35 621.964 1795.82C619.117 1796.77 615.797 1799.62 611.053 1804.84C606.309 1810.06 603.937 1814.33 603.937 1817.18C603.937 1820.03 604.411 1822.4 606.309 1823.83C608.206 1825.25 610.104 1825.72 612.476 1825.25C615.797 1824.77 619.592 1821.45 624.336 1816.23Z" fill="white"/>
<path d="M1700.28 553.796L1706.92 545.728L1692.68 533.863L1696.01 530.066L1728.74 521.523L1732.06 524.371L1714.51 545.728L1718.78 549.525L1715.46 553.321L1711.19 549.525L1704.54 557.593L1700.28 553.796ZM1710.24 542.406L1722.57 527.693L1699.8 533.863L1710.24 542.406Z" fill="white"/>
<path d="M1726.37 548.101C1729.69 544.304 1732.53 541.456 1735.38 539.558C1738.23 537.66 1741.07 537.185 1743.45 537.185C1746.29 537.185 1748.66 538.134 1751.04 540.033C1752.93 541.456 1753.88 543.355 1754.83 544.779C1755.78 546.677 1755.78 548.575 1755.78 550.474C1755.31 552.372 1754.83 554.745 1753.88 557.118C1752.93 559.491 1751.04 562.339 1748.19 565.661C1744.87 569.458 1742.02 572.305 1739.18 573.729C1736.33 575.628 1733.48 576.102 1731.11 576.102C1728.74 576.102 1725.89 575.153 1723.52 573.255C1720.2 570.407 1718.78 567.559 1718.78 563.763C1718.78 559.491 1721.15 554.271 1726.37 548.101ZM1730.64 551.423C1725.89 556.644 1724 560.915 1723.52 563.763C1723.52 566.61 1724 568.983 1725.89 570.407C1727.79 571.831 1730.16 572.305 1733.01 571.831C1735.86 571.356 1739.18 568.034 1743.92 562.813C1748.66 557.593 1751.04 553.321 1751.04 550.474C1751.04 547.626 1750.56 545.253 1748.66 543.829C1746.77 542.406 1744.87 541.931 1742.5 542.406C1738.7 543.355 1734.91 546.202 1730.64 551.423Z" fill="white"/>
<path d="M921.785 1969.53L923.682 1964.78L950.249 1974.27C949.774 1975.7 949.3 1976.65 948.351 1977.6C946.928 1979.02 945.505 1980.44 943.133 1981.87C941.235 1983.29 937.914 1984.24 934.593 1985.66C928.901 1987.56 925.105 1989.46 922.733 1990.88C920.361 1992.31 918.938 1994.21 918.464 1996.11C917.515 1998 917.989 1999.9 918.938 2001.8C919.887 2003.7 921.31 2005.12 923.682 2005.6C926.054 2006.55 928.426 2006.55 930.324 2005.6C932.221 2004.65 933.645 2003.22 934.593 2000.38L939.337 2002.75C937.44 2006.55 935.068 2008.92 932.221 2009.87C929.375 2010.82 926.054 2010.82 922.259 2009.39C918.464 2007.97 915.617 2005.6 914.194 2002.75C912.771 1999.9 912.771 1996.58 913.72 1993.73C914.194 1992.31 915.143 1990.88 916.566 1989.46C917.989 1988.04 919.413 1987.09 921.785 1985.66C924.157 1984.71 927.477 1983.29 931.747 1981.39C935.542 1979.97 937.914 1979.02 939.337 1978.55C940.286 1978.07 941.709 1977.12 942.184 1976.65L921.785 1969.53Z" fill="white"/>
<path d="M911.348 1982.34C909.45 1987.09 907.553 1990.88 905.655 1993.26C903.757 1995.63 901.385 1997.53 899.013 1998.48C896.641 1999.43 893.795 1999.43 890.949 1998C888.577 1997.05 887.153 1996.11 885.73 1994.68C884.307 1993.26 883.358 1991.36 882.884 1989.46C882.409 1987.56 882.409 1985.19 882.409 1982.82C882.884 1980.44 883.358 1977.12 884.781 1972.85C886.679 1968.1 888.577 1964.31 890.474 1961.93C892.372 1959.56 894.744 1957.66 897.116 1956.71C899.488 1955.76 902.334 1955.76 905.181 1957.19C908.976 1958.61 911.348 1960.98 912.771 1964.78C914.669 1969.05 913.72 1974.75 911.348 1982.34ZM906.129 1980.44C908.501 1973.8 909.45 1969.05 908.501 1966.68C907.553 1963.83 906.129 1961.93 903.757 1961.46C901.385 1960.51 899.013 1960.98 896.641 1962.88C894.269 1964.31 891.897 1968.58 889.525 1975.22C887.153 1981.87 886.205 1986.61 887.153 1989.46C888.102 1992.31 889.525 1994.21 891.897 1994.68C894.269 1995.63 896.167 1995.16 898.539 1993.73C901.385 1991.36 903.757 1987.09 906.129 1980.44Z" fill="white"/>
<path d="M880.037 1970.95C878.14 1975.7 876.242 1979.49 874.345 1981.87C872.447 1984.24 870.075 1986.14 867.703 1987.09C865.331 1988.04 862.485 1988.04 859.638 1986.61C857.266 1985.66 855.843 1984.72 854.42 1983.29C852.997 1981.87 852.048 1979.97 851.573 1978.07C851.099 1976.17 851.099 1973.8 851.099 1971.43C851.574 1969.05 852.048 1965.73 853.471 1961.46C855.369 1956.71 857.266 1952.92 859.164 1950.54C861.062 1948.17 863.433 1946.27 865.805 1945.32C868.177 1944.37 871.024 1944.37 873.87 1945.8C877.666 1947.22 880.037 1949.59 881.461 1953.39C883.358 1957.66 882.884 1963.83 880.037 1970.95ZM874.819 1969.53C877.191 1962.88 878.14 1958.14 877.191 1955.76C876.242 1952.92 874.819 1951.02 872.447 1950.54C870.075 1949.59 867.703 1950.07 865.331 1951.97C862.959 1953.39 860.587 1957.66 858.215 1964.31C855.843 1970.95 854.894 1975.7 855.843 1978.55C856.792 1981.39 858.215 1983.29 860.587 1983.77C862.959 1984.71 864.857 1984.24 867.229 1982.82C870.075 1979.97 872.447 1975.7 874.819 1969.53Z" fill="white"/>
<path d="M1464.97 409.517L1463.08 414.263L1436.51 404.771C1436.98 403.348 1437.46 402.398 1438.41 401.449C1439.83 400.025 1441.25 398.602 1443.62 397.178C1445.52 395.754 1448.84 394.805 1452.16 393.381C1457.86 391.483 1461.65 389.584 1464.02 388.16C1466.4 386.737 1467.82 384.838 1468.29 382.94C1469.24 381.041 1468.77 379.143 1467.82 377.245C1466.87 375.346 1465.45 373.922 1463.08 373.448C1460.7 372.499 1458.33 372.499 1456.43 373.448C1454.54 374.397 1453.11 375.821 1452.16 378.668L1447.42 376.295C1449.32 372.499 1451.69 370.126 1454.54 369.176C1457.38 368.227 1460.7 368.227 1464.5 369.651C1468.29 371.075 1471.14 373.448 1472.56 376.295C1473.99 379.143 1473.99 382.465 1473.04 385.313C1472.56 386.737 1471.61 388.16 1470.19 389.584C1468.77 391.008 1467.34 391.957 1464.97 393.381C1462.6 394.33 1459.28 395.754 1455.01 397.652C1451.22 399.076 1448.84 400.025 1447.42 400.5C1446.47 400.975 1445.05 401.924 1444.57 402.398L1464.97 409.517Z" fill="white"/>
<path d="M1475.88 396.703C1477.78 391.957 1479.68 388.16 1481.58 385.787C1483.47 383.414 1485.85 381.516 1488.22 380.567C1490.59 379.618 1493.44 379.618 1496.28 381.041C1498.66 381.991 1500.08 382.94 1501.5 384.364C1502.92 385.787 1503.87 387.686 1504.35 389.584C1504.82 391.483 1504.82 393.856 1504.82 396.229C1504.35 398.602 1503.87 401.924 1502.45 406.195C1500.55 410.941 1498.66 414.738 1496.76 417.111C1494.86 419.484 1492.49 421.382 1490.12 422.332C1487.74 423.281 1484.9 423.281 1482.05 421.857C1478.26 420.433 1475.88 418.06 1474.46 414.263C1472.56 409.992 1473.04 404.297 1475.88 396.703ZM1480.63 398.602C1478.26 405.246 1477.31 409.992 1478.26 412.365C1479.2 415.213 1480.63 417.111 1483 417.586C1485.37 418.535 1487.74 418.06 1490.12 416.162C1492.49 414.738 1494.86 410.467 1497.23 403.822C1499.6 397.178 1500.55 392.432 1499.6 389.584C1498.66 386.737 1497.23 384.838 1494.86 384.364C1492.49 383.414 1490.59 383.889 1488.22 385.313C1485.85 387.686 1483.47 391.957 1480.63 398.602Z" fill="white"/>
<path d="M1184.6 1961.93C1610.1 1961.93 1955.03 1616.86 1955.03 1191.18C1955.03 765.51 1610.1 420.433 1184.6 420.433C759.108 420.433 414.177 765.51 414.177 1191.18C414.177 1616.86 759.108 1961.93 1184.6 1961.93Z" stroke="#194F9C" stroke-opacity="0.17" stroke-width="0.6774" stroke-miterlimit="9.9999"/>
<path d="M1184.6 1980.44C1620.31 1980.44 1973.53 1627.08 1973.53 1191.18C1973.53 755.287 1620.31 401.924 1184.6 401.924C748.89 401.924 395.675 755.287 395.675 1191.18C395.675 1627.08 748.89 1980.44 1184.6 1980.44Z" stroke="#194F9C" stroke-opacity="0.17" stroke-width="1.3548" stroke-miterlimit="9.9999"/>
<path d="M1187.45 511.557V797.266" stroke="#194F9C" stroke-opacity="0.17" stroke-width="0.3159" stroke-miterlimit="10"/>
<path d="M599.193 851.37L846.355 994.225" stroke="#194F9C" stroke-opacity="0.17" stroke-width="0.3159" stroke-miterlimit="10"/>
<path d="M599.193 1531L846.355 1388.14" stroke="#194F9C" stroke-opacity="0.17" stroke-width="0.3159" stroke-miterlimit="10"/>
<g opacity="0.38">
<path d="M1184.6 1575.61C1397.09 1575.61 1569.34 1403.28 1569.34 1190.71C1569.34 978.134 1397.09 805.808 1184.6 805.808C972.117 805.808 799.864 978.134 799.864 1190.71C799.864 1403.28 972.117 1575.61 1184.6 1575.61Z" stroke="#194F9C" stroke-opacity="0.17" stroke-width="0.6774" stroke-miterlimit="10.0003"/>
<path d="M1184.6 1585.1C1402.07 1585.1 1578.35 1408.74 1578.35 1191.18C1578.35 973.629 1402.07 797.266 1184.6 797.266C967.139 797.266 790.85 973.629 790.85 1191.18C790.85 1408.74 967.139 1585.1 1184.6 1585.1Z" stroke="#194F9C" stroke-opacity="0.17" stroke-width="1.3548" stroke-miterlimit="10"/>
<path d="M1187.45 1585.1V1870.81" stroke="#194F9C" stroke-opacity="0.17" stroke-width="0.3159" stroke-miterlimit="10"/>
<path d="M1528.54 1388.14L1776.18 1531" stroke="#194F9C" stroke-opacity="0.17" stroke-width="0.3159" stroke-miterlimit="10"/>
<path d="M1528.54 994.225L1776.18 851.37" stroke="#194F9C" stroke-opacity="0.17" stroke-width="0.3159" stroke-miterlimit="10"/>
</g>
</svg>
