<?xml version="1.0" encoding="utf-8"?>
<!-- Generator: Adobe Illustrator 26.0.1, SVG Export Plug-In . SVG Version: 6.00 Build 0)  -->
<svg version="1.1" id="Слой_1" xmlns="http://www.w3.org/2000/svg" xmlns:xlink="http://www.w3.org/1999/xlink" x="0px" y="0px"
	 viewBox="0 0 500 500" style="enable-background:new 0 0 500 500;" xml:space="preserve">
<style type="text/css">
	.st0{fill:none;stroke:#999999;stroke-width:1.3548;stroke-miterlimit:10;}
	.st1{fill:none;stroke:#999999;stroke-width:0.6774;stroke-miterlimit:9.9999;}
	.st2{enable-background:new    ;}
	.st3{fill:#999999;}
	.st4{fill:none;stroke:#999999;stroke-width:1.3548;stroke-miterlimit:9.9999;}
	.st5{fill:none;stroke:#999999;stroke-width:0.3159;stroke-miterlimit:10;}
	.st6{opacity:0.38;}
	.st7{fill:none;stroke:#999999;stroke-width:0.6774;stroke-miterlimit:10.0003;}
	.st8{fill:#C1C1C1;}
	.st9{fill:#9FA1AA;}
	.st10{fill:#263149;}
	.st11{fill:#DBDBDB;}
</style>
<g id="BACKGROUND">
</g>
<g id="OBJECTS">
	<g>
		<g>
			<line class="st0" x1="249.9" y1="40.6" x2="249.9" y2="24.3"/>
			<line class="st0" x1="249.9" y1="475.7" x2="249.9" y2="459.4"/>
			<line class="st0" x1="145.2" y1="68.7" x2="137" y2="54.6"/>
			<line class="st0" x1="362.7" y1="445.4" x2="354.6" y2="431.3"/>
			<line class="st0" x1="68.6" y1="145.3" x2="54.4" y2="137.2"/>
			<line class="st0" x1="445.3" y1="362.8" x2="431.2" y2="354.7"/>
			<line class="st0" x1="40.5" y1="250" x2="24.2" y2="250"/>
			<line class="st0" x1="475.5" y1="250" x2="459.3" y2="250"/>
			<line class="st0" x1="68.6" y1="354.7" x2="54.4" y2="362.8"/>
			<line class="st0" x1="445.3" y1="137.2" x2="431.2" y2="145.3"/>
			<line class="st0" x1="145.2" y1="431.3" x2="137" y2="445.4"/>
			<line class="st0" x1="362.7" y1="54.6" x2="354.6" y2="68.7"/>
			<line class="st0" x1="249.9" y1="40.6" x2="249.9" y2="11.5"/>
			<line class="st0" x1="249.9" y1="488.5" x2="249.9" y2="459.4"/>
			<line class="st0" x1="145.2" y1="68.7" x2="130.6" y2="43.5"/>
			<line class="st0" x1="369.1" y1="456.5" x2="354.6" y2="431.3"/>
			<line class="st0" x1="68.6" y1="145.3" x2="43.3" y2="130.8"/>
			<line class="st0" x1="456.4" y1="369.2" x2="431.2" y2="354.7"/>
			<line class="st0" x1="40.5" y1="250" x2="11.4" y2="250"/>
			<line class="st0" x1="488.4" y1="250" x2="459.3" y2="250"/>
			<line class="st0" x1="68.6" y1="354.7" x2="43.3" y2="369.2"/>
			<line class="st0" x1="456.4" y1="130.8" x2="431.2" y2="145.3"/>
			<line class="st0" x1="145.2" y1="431.3" x2="130.6" y2="456.5"/>
			<line class="st0" x1="369.1" y1="43.5" x2="354.6" y2="68.7"/>
			<line class="st0" x1="238.7" y1="36.6" x2="238.1" y2="24.6"/>
			<line class="st0" x1="261.7" y1="475.4" x2="261.1" y2="464.5"/>
			<line class="st0" x1="227.5" y1="37.5" x2="226.3" y2="25.6"/>
			<line class="st0" x1="273.5" y1="474.4" x2="272.3" y2="463.6"/>
			<line class="st0" x1="216.5" y1="39" x2="214.6" y2="27.1"/>
			<line class="st0" x1="285.2" y1="472.9" x2="283.5" y2="462.2"/>
			<line class="st0" x1="205.5" y1="41" x2="203" y2="29.3"/>
			<line class="st0" x1="296.8" y1="470.7" x2="294.5" y2="460.1"/>
			<line class="st0" x1="194.6" y1="43.6" x2="191.5" y2="32"/>
			<line class="st0" x1="308.3" y1="468" x2="305.5" y2="457.5"/>
			<line class="st0" x1="183.9" y1="46.8" x2="180.1" y2="35.4"/>
			<line class="st0" x1="319.6" y1="464.6" x2="316.3" y2="454.3"/>
			<line class="st0" x1="173.3" y1="50.5" x2="169" y2="39.3"/>
			<line class="st0" x1="330.7" y1="460.7" x2="326.9" y2="450.5"/>
			<line class="st0" x1="163" y1="54.8" x2="158.1" y2="43.8"/>
			<line class="st0" x1="341.7" y1="456.2" x2="337.2" y2="446.2"/>
			<line class="st0" x1="152.9" y1="59.6" x2="147.4" y2="48.9"/>
			<line class="st0" x1="352.3" y1="451.1" x2="347.4" y2="441.4"/>
			<line class="st0" x1="143" y1="65" x2="137" y2="54.6"/>
			<line class="st0" x1="362.7" y1="445.4" x2="357.3" y2="436"/>
			<line class="st0" x1="133.5" y1="70.8" x2="127" y2="60.7"/>
			<line class="st0" x1="372.8" y1="439.3" x2="366.9" y2="430.1"/>
			<line class="st0" x1="124.3" y1="77.1" x2="117.2" y2="67.4"/>
			<line class="st0" x1="382.5" y1="432.6" x2="376.1" y2="423.8"/>
			<line class="st0" x1="115.4" y1="84" x2="107.9" y2="74.6"/>
			<line class="st0" x1="391.9" y1="425.4" x2="385.1" y2="416.9"/>
			<line class="st0" x1="106.9" y1="91.2" x2="98.9" y2="82.3"/>
			<line class="st0" x1="400.9" y1="417.7" x2="393.6" y2="409.6"/>
			<line class="st0" x1="98.8" y1="98.9" x2="90.3" y2="90.4"/>
			<line class="st0" x1="409.4" y1="409.6" x2="401.8" y2="401.9"/>
			<line class="st0" x1="91.1" y1="107" x2="82.2" y2="99"/>
			<line class="st0" x1="417.6" y1="401" x2="409.5" y2="393.7"/>
			<line class="st0" x1="83.8" y1="115.5" x2="74.5" y2="108"/>
			<line class="st0" x1="425.3" y1="392" x2="416.8" y2="385.2"/>
			<line class="st0" x1="77" y1="124.4" x2="67.3" y2="117.3"/>
			<line class="st0" x1="432.4" y1="382.6" x2="423.7" y2="376.3"/>
			<line class="st0" x1="70.7" y1="133.6" x2="60.6" y2="127.1"/>
			<line class="st0" x1="439.1" y1="372.9" x2="430" y2="367"/>
			<line class="st0" x1="64.8" y1="143.2" x2="54.4" y2="137.2"/>
			<line class="st0" x1="445.3" y1="362.8" x2="435.9" y2="357.4"/>
			<line class="st0" x1="59.5" y1="153" x2="48.8" y2="147.5"/>
			<line class="st0" x1="450.9" y1="352.4" x2="441.3" y2="347.5"/>
			<line class="st0" x1="54.7" y1="163.1" x2="43.7" y2="158.2"/>
			<line class="st0" x1="456" y1="341.8" x2="446.1" y2="337.4"/>
			<line class="st0" x1="50.4" y1="173.4" x2="39.2" y2="169.1"/>
			<line class="st0" x1="460.6" y1="330.9" x2="450.4" y2="327"/>
			<line class="st0" x1="46.7" y1="184" x2="35.3" y2="180.3"/>
			<line class="st0" x1="464.5" y1="319.7" x2="454.2" y2="316.4"/>
			<line class="st0" x1="43.5" y1="194.7" x2="31.9" y2="191.6"/>
			<line class="st0" x1="467.9" y1="308.4" x2="457.4" y2="305.6"/>
			<line class="st0" x1="40.9" y1="205.6" x2="29.1" y2="203.1"/>
			<line class="st0" x1="470.6" y1="296.9" x2="460" y2="294.7"/>
			<line class="st0" x1="38.9" y1="216.6" x2="27" y2="214.7"/>
			<line class="st0" x1="472.8" y1="285.3" x2="462" y2="283.6"/>
			<line class="st0" x1="37.4" y1="227.7" x2="25.4" y2="226.4"/>
			<line class="st0" x1="474.3" y1="273.6" x2="463.5" y2="272.4"/>
			<line class="st0" x1="36.5" y1="238.8" x2="24.5" y2="238.2"/>
			<line class="st0" x1="475.2" y1="261.8" x2="464.4" y2="261.2"/>
			<line class="st0" x1="36.2" y1="250" x2="24.2" y2="250"/>
			<line class="st0" x1="475.5" y1="250" x2="464.7" y2="250"/>
			<line class="st0" x1="36.5" y1="261.2" x2="24.5" y2="261.8"/>
			<line class="st0" x1="475.2" y1="238.2" x2="464.4" y2="238.8"/>
			<line class="st0" x1="37.4" y1="272.3" x2="25.4" y2="273.6"/>
			<line class="st0" x1="474.3" y1="226.4" x2="463.5" y2="227.5"/>
			<line class="st0" x1="38.9" y1="283.4" x2="27" y2="285.3"/>
			<line class="st0" x1="472.8" y1="214.7" x2="462" y2="216.4"/>
			<line class="st0" x1="40.9" y1="294.4" x2="29.1" y2="296.9"/>
			<line class="st0" x1="470.6" y1="203.1" x2="460" y2="205.3"/>
			<line class="st0" x1="43.5" y1="305.3" x2="31.9" y2="308.4"/>
			<line class="st0" x1="467.9" y1="191.6" x2="457.4" y2="194.4"/>
			<line class="st0" x1="46.7" y1="316" x2="35.3" y2="319.7"/>
			<line class="st0" x1="464.5" y1="180.3" x2="454.2" y2="183.6"/>
			<line class="st0" x1="50.4" y1="326.6" x2="39.2" y2="330.9"/>
			<line class="st0" x1="460.6" y1="169.1" x2="450.4" y2="173"/>
			<line class="st0" x1="54.7" y1="336.9" x2="43.7" y2="341.8"/>
			<line class="st0" x1="456" y1="158.2" x2="446.1" y2="162.6"/>
			<line class="st0" x1="59.5" y1="347" x2="48.8" y2="352.4"/>
			<line class="st0" x1="450.9" y1="147.5" x2="441.3" y2="152.5"/>
			<line class="st0" x1="64.8" y1="356.8" x2="54.4" y2="362.8"/>
			<line class="st0" x1="445.3" y1="137.2" x2="435.9" y2="142.6"/>
			<line class="st0" x1="70.7" y1="366.4" x2="60.6" y2="372.9"/>
			<line class="st0" x1="439.1" y1="127.1" x2="430" y2="133"/>
			<line class="st0" x1="77" y1="375.6" x2="67.3" y2="382.6"/>
			<line class="st0" x1="432.4" y1="117.3" x2="423.7" y2="123.7"/>
			<line class="st0" x1="83.8" y1="384.4" x2="74.5" y2="392"/>
			<line class="st0" x1="425.3" y1="108" x2="416.8" y2="114.8"/>
			<line class="st0" x1="91.1" y1="393" x2="82.2" y2="401"/>
			<line class="st0" x1="417.6" y1="99" x2="409.5" y2="106.3"/>
			<line class="st0" x1="98.8" y1="401.1" x2="90.3" y2="409.6"/>
			<line class="st0" x1="409.4" y1="90.4" x2="401.8" y2="98.1"/>
			<line class="st0" x1="106.9" y1="408.8" x2="98.9" y2="417.7"/>
			<line class="st0" x1="400.9" y1="82.3" x2="393.6" y2="90.4"/>
			<line class="st0" x1="115.4" y1="416" x2="107.9" y2="425.4"/>
			<line class="st0" x1="391.9" y1="74.6" x2="385.1" y2="83.1"/>
			<line class="st0" x1="124.3" y1="422.8" x2="117.2" y2="432.6"/>
			<line class="st0" x1="382.5" y1="67.4" x2="376.1" y2="76.2"/>
			<line class="st0" x1="133.5" y1="429.2" x2="127" y2="439.3"/>
			<line class="st0" x1="372.8" y1="60.7" x2="366.9" y2="69.8"/>
			<line class="st0" x1="143" y1="435" x2="137" y2="445.4"/>
			<line class="st0" x1="362.7" y1="54.6" x2="357.3" y2="64"/>
			<line class="st0" x1="152.9" y1="440.4" x2="147.4" y2="451.1"/>
			<line class="st0" x1="352.3" y1="48.9" x2="347.4" y2="58.6"/>
			<line class="st0" x1="163" y1="445.2" x2="158.1" y2="456.2"/>
			<line class="st0" x1="341.7" y1="43.8" x2="337.2" y2="53.8"/>
			<line class="st0" x1="173.3" y1="449.5" x2="169" y2="460.7"/>
			<line class="st0" x1="330.7" y1="39.3" x2="326.9" y2="49.5"/>
			<line class="st0" x1="183.9" y1="453.2" x2="180.1" y2="464.6"/>
			<line class="st0" x1="319.6" y1="35.4" x2="316.3" y2="45.7"/>
			<line class="st0" x1="194.6" y1="456.4" x2="191.5" y2="468"/>
			<line class="st0" x1="308.3" y1="32" x2="305.5" y2="42.5"/>
			<line class="st0" x1="205.5" y1="459" x2="203" y2="470.7"/>
			<line class="st0" x1="296.8" y1="29.3" x2="294.5" y2="39.9"/>
			<line class="st0" x1="216.5" y1="461" x2="214.6" y2="472.9"/>
			<line class="st0" x1="285.2" y1="27.1" x2="283.5" y2="37.8"/>
			<line class="st0" x1="227.5" y1="462.5" x2="226.3" y2="474.4"/>
			<line class="st0" x1="273.5" y1="25.6" x2="272.3" y2="36.4"/>
			<line class="st0" x1="238.7" y1="463.4" x2="238.1" y2="475.4"/>
			<line class="st0" x1="261.7" y1="24.6" x2="261.1" y2="35.5"/>
		</g>
		<ellipse class="st1" cx="249.6" cy="250.8" rx="191" ry="191"/>
		<line class="st0" x1="249.6" y1="59.7" x2="249.6" y2="64.5"/>
		<line class="st0" x1="249.6" y1="437.1" x2="249.6" y2="441.8"/>
		<line class="st0" x1="184.2" y1="71.3" x2="185.8" y2="75.7"/>
		<line class="st0" x1="313.3" y1="425.9" x2="314.9" y2="430.3"/>
		<line class="st0" x1="126.8" y1="104.4" x2="129.8" y2="108.1"/>
		<line class="st0" x1="369.3" y1="393.5" x2="372.4" y2="397.1"/>
		<line class="st0" x1="84.1" y1="155.3" x2="88.2" y2="157.6"/>
		<line class="st0" x1="410.9" y1="343.9" x2="415" y2="346.3"/>
		<line class="st0" x1="61.4" y1="217.6" x2="66.1" y2="218.4"/>
		<line class="st0" x1="433.1" y1="283.1" x2="437.7" y2="284"/>
		<line class="st0" x1="61.4" y1="284" x2="66.1" y2="283.1"/>
		<line class="st0" x1="433.1" y1="218.4" x2="437.7" y2="217.6"/>
		<line class="st0" x1="84.1" y1="346.3" x2="88.2" y2="343.9"/>
		<line class="st0" x1="410.9" y1="157.6" x2="415" y2="155.3"/>
		<line class="st0" x1="126.8" y1="397.1" x2="129.8" y2="393.5"/>
		<line class="st0" x1="369.3" y1="108.1" x2="372.4" y2="104.4"/>
		<line class="st0" x1="184.2" y1="430.3" x2="185.8" y2="425.9"/>
		<line class="st0" x1="313.3" y1="75.7" x2="314.9" y2="71.3"/>
		<g class="st2">
			<path class="st3" d="M246.9,73.3c0-1.1,0.1-1.9,0.3-2.6c0.2-0.6,0.5-1.1,1-1.5c0.4-0.4,1-0.5,1.6-0.5c0.5,0,0.9,0.1,1.3,0.3
				s0.7,0.5,0.9,0.8s0.4,0.8,0.6,1.3c0.1,0.5,0.2,1.2,0.2,2.1c0,1.1-0.1,1.9-0.3,2.6c-0.2,0.6-0.5,1.1-1,1.5c-0.4,0.4-1,0.5-1.6,0.5
				c-0.9,0-1.5-0.3-2-0.9C247.2,76.2,246.9,75,246.9,73.3z M248,73.3c0,1.5,0.2,2.5,0.5,2.9s0.8,0.7,1.3,0.7c0.5,0,0.9-0.2,1.3-0.7
				c0.3-0.5,0.5-1.5,0.5-2.9c0-1.5-0.2-2.5-0.5-3c-0.3-0.5-0.8-0.7-1.3-0.7c-0.5,0-0.9,0.2-1.2,0.6C248.2,70.8,248,71.8,248,73.3z"
				/>
		</g>
		<g class="st2">
			<path class="st3" d="M255.4,424.3h1.1v7c0.3-0.3,0.6-0.5,1-0.8s0.8-0.4,1.2-0.6v1.1c-0.6,0.3-1.2,0.6-1.6,1.1
				c-0.5,0.4-0.8,0.8-1,1.2h-0.7V424.3z"/>
			<path class="st3" d="M250.8,429.2c0.5,0.2,0.8,0.4,1,0.7c0.2,0.3,0.3,0.7,0.3,1.1c0,0.7-0.2,1.2-0.7,1.7s-1.1,0.7-1.9,0.7
				c-0.8,0-1.4-0.2-1.9-0.7c-0.5-0.5-0.7-1-0.7-1.7c0-0.4,0.1-0.8,0.3-1.1c0.2-0.3,0.6-0.5,1-0.7c-0.6-0.2-1-0.5-1.3-0.9
				c-0.3-0.4-0.4-0.9-0.4-1.4c0-0.8,0.3-1.4,0.8-1.9c0.5-0.5,1.3-0.8,2.1-0.8s1.6,0.3,2.1,0.8c0.5,0.5,0.8,1.2,0.8,2
				c0,0.6-0.1,1.1-0.4,1.5C251.8,428.8,251.4,429,250.8,429.2z M251.4,426.9c0-0.3-0.1-0.6-0.2-0.9c-0.2-0.3-0.4-0.5-0.7-0.7
				c-0.3-0.2-0.6-0.2-1-0.2c-0.5,0-1,0.2-1.3,0.5c-0.3,0.3-0.5,0.8-0.5,1.3c0,0.5,0.2,1,0.5,1.3s0.8,0.5,1.3,0.5
				c0.5,0,1-0.2,1.3-0.5S251.4,427.4,251.4,426.9z M251.1,431.1c0-0.4-0.1-0.8-0.4-1c-0.3-0.3-0.6-0.4-1.1-0.4c-0.4,0-0.8,0.1-1,0.4
				c-0.3,0.3-0.4,0.6-0.4,1c0,0.4,0.1,0.7,0.4,1c0.3,0.3,0.6,0.4,1,0.4c0.4,0,0.8-0.1,1-0.4C250.9,431.8,251.1,431.4,251.1,431.1z"
				/>
			<path class="st3" d="M245.6,428.7c0,1.1-0.1,1.9-0.3,2.6c-0.2,0.6-0.5,1.1-1,1.5c-0.4,0.4-1,0.5-1.6,0.5c-0.5,0-0.9-0.1-1.3-0.3
				s-0.7-0.5-0.9-0.8s-0.4-0.8-0.6-1.3c-0.1-0.5-0.2-1.2-0.2-2.1c0-1.1,0.1-1.9,0.3-2.6c0.2-0.6,0.5-1.1,1-1.5
				c0.4-0.4,1-0.5,1.6-0.5c0.9,0,1.5,0.3,2,0.9C245.3,425.8,245.6,427.1,245.6,428.7z M244.4,428.7c0-1.5-0.2-2.5-0.5-2.9
				s-0.8-0.7-1.3-0.7c-0.5,0-0.9,0.2-1.3,0.7s-0.5,1.5-0.5,2.9c0,1.5,0.2,2.5,0.5,3c0.3,0.5,0.8,0.7,1.3,0.7c0.5,0,0.9-0.2,1.2-0.6
				C244.2,431.2,244.4,430.2,244.4,428.7z"/>
		</g>
		<g class="st2">
			<path class="st3" d="M179.7,90.1l1-0.5c0.3,0.5,0.7,0.9,1.1,1.1c0.4,0.2,0.8,0.2,1.2,0c0.5-0.2,0.8-0.5,1.1-1
				c0.2-0.5,0.2-0.9,0-1.4c-0.2-0.5-0.5-0.8-0.9-1c-0.4-0.2-0.9-0.2-1.4,0c-0.2,0.1-0.4,0.2-0.7,0.4l-0.2-1c0.1,0,0.1,0,0.2,0
				c0.4-0.2,0.8-0.4,1.1-0.8c0.3-0.4,0.3-0.8,0.1-1.3c-0.1-0.4-0.4-0.6-0.7-0.8c-0.3-0.2-0.7-0.2-1.1,0c-0.4,0.1-0.7,0.4-0.9,0.7
				c-0.2,0.4-0.2,0.8-0.1,1.3l-1.1,0.2c-0.1-0.7,0-1.4,0.3-1.9c0.3-0.5,0.8-0.9,1.5-1.2c0.5-0.2,0.9-0.2,1.4-0.2
				c0.5,0.1,0.9,0.2,1.2,0.5s0.6,0.6,0.7,1c0.1,0.4,0.2,0.7,0.1,1.1s-0.3,0.7-0.6,1c0.5-0.1,1,0,1.4,0.3c0.4,0.3,0.7,0.7,0.9,1.2
				c0.3,0.7,0.2,1.5-0.1,2.2c-0.4,0.7-0.9,1.2-1.8,1.5c-0.7,0.3-1.4,0.3-2.1,0C180.5,91.3,180,90.8,179.7,90.1z"/>
			<path class="st3" d="M190.4,88.8l-0.7-2l-3.7,1.3l-0.3-1l1.9-6.9l0.8-0.3l2,5.5l1.1-0.4l0.3,1l-1.1,0.4l0.7,2L190.4,88.8z
				 M189.3,85.8l-1.4-3.8l-1.3,4.8L189.3,85.8z"/>
			<path class="st3" d="M192.1,83.4c-0.4-1-0.6-1.8-0.6-2.5c0-0.7,0.1-1.3,0.4-1.7s0.7-0.8,1.4-1.1c0.5-0.2,0.9-0.2,1.3-0.2
				c0.4,0.1,0.8,0.2,1.1,0.5c0.3,0.3,0.7,0.6,1,1.1c0.3,0.4,0.6,1.1,0.9,1.9c0.4,1,0.6,1.8,0.6,2.5c0,0.7-0.1,1.3-0.4,1.7
				c-0.3,0.5-0.7,0.8-1.4,1.1c-0.8,0.3-1.6,0.2-2.2-0.2C193.4,86.1,192.7,85,192.1,83.4z M193.2,83c0.5,1.4,1,2.3,1.5,2.6
				c0.5,0.3,1,0.4,1.5,0.3c0.5-0.2,0.8-0.5,1-1.1s0-1.6-0.5-2.9c-0.5-1.4-1-2.3-1.5-2.6c-0.5-0.3-1-0.4-1.5-0.2
				c-0.5,0.2-0.8,0.5-0.9,1C192.5,80.6,192.6,81.6,193.2,83z"/>
		</g>
		<g class="st2">
			<path class="st3" d="M314.1,411.6l1-0.4l2.4,6.6c0.2-0.3,0.4-0.7,0.7-1.1c0.3-0.4,0.6-0.7,0.9-0.9l0.4,1c-0.5,0.5-0.9,1-1.2,1.5
				c-0.3,0.5-0.5,1-0.5,1.5l-0.7,0.2L314.1,411.6z"/>
			<path class="st3" d="M308.4,420.9l1-0.5c0.2,0.4,0.5,0.6,0.7,0.7c0.4,0.2,0.8,0.2,1.2,0.1c0.3-0.1,0.6-0.3,0.8-0.6
				c0.2-0.4,0.4-0.8,0.4-1.3c0-0.5-0.1-1.2-0.4-2.1c-0.1,0.5-0.3,0.9-0.6,1.2c-0.3,0.3-0.6,0.5-1,0.7c-0.7,0.3-1.4,0.2-2-0.1
				c-0.7-0.3-1.2-0.9-1.4-1.7c-0.2-0.5-0.3-1.1-0.2-1.6c0.1-0.5,0.3-1,0.6-1.4s0.7-0.7,1.2-0.9c0.9-0.3,1.7-0.3,2.5,0.2
				c0.8,0.4,1.4,1.4,2,2.8c0.6,1.6,0.7,2.9,0.4,3.9c-0.3,0.8-0.9,1.4-1.8,1.7c-0.7,0.2-1.3,0.3-1.8,0
				C309.2,422,308.7,421.5,308.4,420.9z M311.3,415.7c-0.1-0.4-0.3-0.7-0.6-0.9c-0.3-0.3-0.6-0.4-0.9-0.5c-0.3-0.1-0.7-0.1-1,0.1
				c-0.4,0.2-0.8,0.5-0.9,0.9c-0.2,0.5-0.2,1,0.1,1.6c0.2,0.6,0.5,1,1,1.2c0.4,0.2,0.9,0.2,1.4,0.1c0.5-0.2,0.8-0.5,1-0.9
				C311.5,416.8,311.5,416.3,311.3,415.7z"/>
			<path class="st3" d="M306.4,419.1c0.4,1,0.6,1.8,0.6,2.5c0,0.7-0.1,1.3-0.4,1.7s-0.7,0.8-1.4,1.1c-0.5,0.2-0.9,0.2-1.3,0.2
				c-0.4-0.1-0.8-0.2-1.1-0.5c-0.3-0.3-0.7-0.6-1-1.1c-0.3-0.4-0.6-1.1-0.9-1.9c-0.4-1-0.6-1.8-0.6-2.5c0-0.7,0.1-1.3,0.4-1.7
				c0.3-0.5,0.7-0.8,1.4-1.1c0.8-0.3,1.6-0.2,2.2,0.2C305.1,416.5,305.8,417.5,306.4,419.1z M305.3,419.5c-0.5-1.4-1-2.3-1.5-2.6
				c-0.5-0.3-1-0.4-1.5-0.3c-0.5,0.2-0.8,0.5-1,1.1s0,1.6,0.5,2.9c0.5,1.4,1,2.3,1.5,2.6c0.5,0.3,1,0.4,1.5,0.2
				c0.5-0.2,0.8-0.5,0.9-1C306,421.9,305.9,420.9,305.3,419.5z"/>
		</g>
		<g class="st2">
			<path class="st3" d="M129.3,123.6l0.8-0.8c0.5,0.4,1,0.6,1.4,0.6c0.4,0,0.8-0.1,1.1-0.4c0.4-0.3,0.6-0.8,0.7-1.3s-0.1-1-0.4-1.4
				c-0.3-0.4-0.7-0.6-1.2-0.6c-0.5,0-0.9,0.1-1.3,0.4c-0.2,0.1-0.3,0.3-0.5,0.6l-0.5-0.8c0.1,0,0.1-0.1,0.1-0.1
				c0.4-0.3,0.6-0.7,0.7-1.1c0.1-0.4,0-0.8-0.3-1.2c-0.3-0.3-0.6-0.5-1-0.5c-0.4,0-0.7,0.1-1.1,0.4c-0.3,0.3-0.5,0.6-0.6,1
				c0,0.4,0.1,0.8,0.4,1.3l-1,0.6c-0.4-0.7-0.5-1.3-0.4-1.9c0.1-0.6,0.4-1.2,1-1.6c0.4-0.3,0.8-0.5,1.2-0.6c0.5-0.1,0.9-0.1,1.3,0.1
				c0.4,0.1,0.7,0.4,1,0.7c0.3,0.3,0.4,0.6,0.4,1c0,0.4,0,0.8-0.2,1.2c0.5-0.2,1-0.3,1.4-0.2c0.5,0.1,0.9,0.4,1.3,0.8
				c0.5,0.6,0.7,1.3,0.6,2.1c-0.1,0.8-0.5,1.5-1.1,2c-0.6,0.5-1.3,0.7-2,0.7C130.5,124.4,129.8,124.2,129.3,123.6z"/>
			<path class="st3" d="M139.9,116.4l0.7,0.8l-4.6,3.8c-0.2-0.2-0.3-0.4-0.4-0.7c-0.1-0.4-0.2-0.9-0.2-1.4s0.1-1.2,0.2-2
				c0.2-1.2,0.3-2.2,0.3-2.7c0-0.6-0.2-1-0.5-1.3c-0.3-0.3-0.6-0.5-1.1-0.5c-0.4,0-0.8,0.1-1.2,0.4c-0.4,0.3-0.6,0.7-0.7,1.2
				c0,0.4,0.1,0.9,0.5,1.3l-0.9,0.6c-0.5-0.7-0.7-1.4-0.6-2c0.1-0.7,0.5-1.3,1.1-1.8c0.7-0.6,1.3-0.8,2-0.8c0.7,0,1.3,0.3,1.7,0.9
				c0.2,0.3,0.4,0.6,0.5,1c0.1,0.4,0.2,0.8,0.1,1.3c0,0.5-0.1,1.3-0.3,2.3c-0.1,0.9-0.2,1.4-0.2,1.7c0,0.3,0,0.5,0,0.8L139.9,116.4z
				"/>
			<path class="st3" d="M138.7,113.1c-0.7-0.8-1.2-1.5-1.4-2.2c-0.2-0.6-0.3-1.2-0.2-1.8c0.1-0.5,0.4-1,0.9-1.5
				c0.4-0.3,0.8-0.5,1.2-0.6c0.4-0.1,0.8-0.1,1.2,0.1c0.4,0.1,0.8,0.3,1.3,0.7c0.4,0.3,0.9,0.8,1.5,1.5c0.7,0.8,1.1,1.5,1.4,2.2
				c0.2,0.6,0.3,1.2,0.2,1.8c-0.1,0.5-0.4,1-0.9,1.5c-0.7,0.6-1.4,0.8-2.2,0.6C140.8,115.1,139.8,114.4,138.7,113.1z M139.6,112.3
				c1,1.1,1.7,1.8,2.3,1.9c0.6,0.2,1.1,0.1,1.5-0.3c0.4-0.3,0.6-0.8,0.5-1.4c-0.1-0.6-0.5-1.5-1.5-2.6c-1-1.1-1.7-1.8-2.3-1.9
				c-0.6-0.2-1.1-0.1-1.5,0.3c-0.4,0.3-0.6,0.8-0.5,1.3C138.1,110.3,138.6,111.2,139.6,112.3z"/>
		</g>
		<g class="st2">
			<path class="st3" d="M365.2,379.6l0.8-0.7l4.5,5.4c0-0.4,0.1-0.8,0.3-1.3c0.2-0.5,0.3-0.9,0.5-1.2l0.7,0.8
				c-0.3,0.6-0.5,1.2-0.6,1.8c-0.1,0.6-0.1,1.1,0,1.6l-0.5,0.5L365.2,379.6z"/>
			<path class="st3" d="M360.4,383.7l1.4,1.7l3-2.5l0.7,0.8l0.6,7.1l-0.7,0.6l-3.7-4.5l-0.9,0.8l-0.7-0.8l0.9-0.8l-1.4-1.7
				L360.4,383.7z M362.4,386.1l2.6,3.1l-0.5-4.9L362.4,386.1z"/>
			<path class="st3" d="M360.6,389.3c0.7,0.8,1.2,1.5,1.4,2.2c0.2,0.6,0.3,1.2,0.2,1.8c-0.1,0.5-0.4,1-0.9,1.5
				c-0.4,0.3-0.8,0.5-1.2,0.6s-0.8,0.1-1.2-0.1c-0.4-0.1-0.8-0.3-1.3-0.7s-0.9-0.8-1.5-1.5c-0.7-0.8-1.1-1.5-1.4-2.2
				c-0.2-0.6-0.3-1.2-0.2-1.8c0.1-0.5,0.4-1,0.9-1.5c0.7-0.6,1.4-0.8,2.2-0.6C358.5,387.3,359.5,388,360.6,389.3z M359.7,390
				c-1-1.1-1.7-1.8-2.3-1.9c-0.6-0.2-1.1-0.1-1.5,0.3c-0.4,0.3-0.6,0.8-0.5,1.4c0.1,0.6,0.5,1.5,1.5,2.6c1,1.1,1.7,1.8,2.3,1.9
				s1.1,0.1,1.5-0.3c0.4-0.3,0.6-0.8,0.5-1.3C361.1,392.1,360.6,391.2,359.7,390z"/>
		</g>
		<g class="st2">
			<path class="st3" d="M93.3,172l0.4-1c0.6,0.2,1.1,0.2,1.5,0.1c0.4-0.1,0.7-0.4,0.9-0.8c0.3-0.5,0.3-0.9,0.2-1.4
				c-0.1-0.5-0.4-0.9-0.9-1.1c-0.4-0.3-0.9-0.3-1.3-0.2s-0.8,0.4-1.1,0.8c-0.1,0.2-0.2,0.4-0.3,0.7l-0.8-0.6c0-0.1,0.1-0.1,0.1-0.1
				c0.2-0.4,0.3-0.8,0.3-1.3c0-0.4-0.3-0.8-0.7-1.1c-0.3-0.2-0.7-0.3-1.1-0.1c-0.4,0.1-0.7,0.3-0.9,0.7c-0.2,0.4-0.3,0.8-0.2,1.1
				c0.1,0.4,0.3,0.7,0.8,1.1l-0.7,0.9c-0.6-0.5-0.9-1-1-1.7c-0.1-0.6,0-1.2,0.4-1.9c0.2-0.4,0.6-0.8,1-1s0.8-0.4,1.2-0.4
				s0.8,0.1,1.2,0.3c0.3,0.2,0.6,0.5,0.8,0.8c0.2,0.3,0.2,0.7,0.2,1.2c0.4-0.4,0.8-0.6,1.3-0.7c0.5-0.1,1,0.1,1.5,0.3
				c0.7,0.4,1.1,1,1.3,1.7c0.2,0.8,0.1,1.5-0.4,2.3c-0.4,0.7-0.9,1.1-1.6,1.4C94.6,172.4,94,172.3,93.3,172z"/>
			<path class="st3" d="M95,165c-0.9-0.5-1.6-1.1-2.1-1.6c-0.5-0.5-0.7-1-0.8-1.6s0-1.1,0.4-1.7c0.2-0.4,0.5-0.7,0.9-1
				c0.3-0.2,0.7-0.3,1.2-0.4c0.4,0,0.9,0,1.4,0.2c0.5,0.1,1.2,0.4,1.9,0.9c0.9,0.5,1.6,1,2.1,1.6c0.5,0.5,0.7,1,0.8,1.6
				c0.1,0.6,0,1.1-0.4,1.7c-0.4,0.8-1,1.2-1.8,1.3C97.6,166.2,96.4,165.8,95,165z M95.5,164c1.3,0.7,2.2,1.1,2.8,1s1-0.3,1.3-0.7
				c0.3-0.4,0.3-0.9,0-1.5c-0.3-0.5-1-1.2-2.3-1.9c-1.3-0.7-2.2-1.1-2.8-1c-0.6,0.1-1,0.3-1.3,0.8c-0.3,0.4-0.3,0.9,0,1.4
				C93.5,162.6,94.3,163.2,95.5,164z"/>
			<path class="st3" d="M98.5,158.9c-0.9-0.5-1.6-1.1-2.1-1.6c-0.5-0.5-0.7-1-0.8-1.6c-0.1-0.5,0-1.1,0.4-1.7c0.2-0.4,0.5-0.7,0.9-1
				s0.7-0.3,1.2-0.4c0.4,0,0.9,0,1.4,0.2c0.5,0.1,1.2,0.4,1.9,0.9c0.9,0.5,1.6,1,2.1,1.6s0.7,1,0.8,1.6c0.1,0.6,0,1.1-0.4,1.7
				c-0.4,0.8-1,1.2-1.8,1.3C101.1,160.1,99.9,159.8,98.5,158.9z M99,157.9c1.3,0.7,2.2,1.1,2.8,1s1-0.3,1.3-0.7
				c0.3-0.4,0.3-0.9,0-1.5c-0.3-0.5-1-1.2-2.3-1.9c-1.3-0.7-2.2-1.1-2.8-1c-0.6,0.1-1,0.3-1.3,0.8c-0.3,0.4-0.3,0.9,0,1.4
				C97,156.5,97.8,157.2,99,157.9z"/>
		</g>
		<g class="st2">
			<path class="st3" d="M401.7,332.2l0.6-1l6.1,3.5c-0.1-0.4-0.1-0.8-0.1-1.3c0-0.5,0-0.9,0.1-1.3l0.9,0.5c-0.1,0.7,0,1.3,0.1,1.9
				c0.1,0.6,0.3,1.1,0.6,1.5l-0.4,0.6L401.7,332.2z"/>
			<path class="st3" d="M398.3,340.2l-0.9-0.5l3-5.2c0.2,0.1,0.4,0.3,0.6,0.5c0.3,0.3,0.5,0.7,0.7,1.2c0.2,0.5,0.3,1.1,0.5,1.9
				c0.2,1.2,0.4,2.1,0.7,2.7c0.2,0.5,0.5,0.9,0.9,1.1c0.4,0.2,0.8,0.3,1.2,0.1s0.8-0.4,1-0.8c0.3-0.5,0.3-0.9,0.2-1.3
				c-0.1-0.4-0.4-0.8-0.9-1.1l0.7-0.9c0.7,0.5,1.1,1.1,1.2,1.7c0.1,0.7,0,1.4-0.4,2.1c-0.4,0.7-1,1.2-1.6,1.4
				c-0.7,0.2-1.3,0.1-1.9-0.2c-0.3-0.2-0.6-0.4-0.8-0.7c-0.2-0.3-0.4-0.7-0.6-1.2c-0.2-0.5-0.3-1.2-0.5-2.3
				c-0.2-0.9-0.3-1.4-0.3-1.7c-0.1-0.3-0.2-0.5-0.3-0.7L398.3,340.2z"/>
			<path class="st3" d="M400.7,342.9c0.9,0.5,1.6,1.1,2.1,1.6c0.5,0.5,0.7,1,0.8,1.6s0,1.1-0.4,1.7c-0.2,0.4-0.5,0.7-0.9,1
				s-0.7,0.3-1.2,0.4c-0.4,0-0.9,0-1.4-0.2c-0.5-0.1-1.2-0.4-1.9-0.9c-0.9-0.5-1.6-1-2.1-1.6c-0.5-0.5-0.7-1-0.8-1.6
				c-0.1-0.6,0-1.1,0.4-1.7c0.4-0.8,1-1.2,1.8-1.3C398,341.7,399.2,342.1,400.7,342.9z M400.1,343.9c-1.3-0.7-2.2-1.1-2.8-1
				s-1,0.3-1.3,0.7c-0.3,0.4-0.3,0.9,0,1.5c0.3,0.5,1,1.2,2.3,1.9c1.3,0.7,2.2,1.1,2.8,1c0.6-0.1,1-0.3,1.3-0.8
				c0.3-0.4,0.3-0.9,0-1.4C402.2,345.3,401.4,344.6,400.1,343.9z"/>
		</g>
		<g class="st2">
			<path class="st3" d="M78,224.7l1,0.2l-1,5.9c-0.3,0-0.5-0.1-0.7-0.3c-0.4-0.2-0.7-0.5-1.1-0.9s-0.7-0.9-1.1-1.7
				c-0.6-1.1-1.1-1.9-1.5-2.3c-0.4-0.4-0.8-0.7-1.2-0.7c-0.4-0.1-0.8,0-1.2,0.3c-0.3,0.3-0.6,0.6-0.7,1.1c-0.1,0.5,0,1,0.3,1.3
				c0.3,0.4,0.7,0.6,1.2,0.7l-0.3,1.1c-0.8-0.2-1.4-0.6-1.8-1.2c-0.3-0.6-0.5-1.3-0.3-2.1c0.1-0.9,0.5-1.5,1.1-1.9
				c0.6-0.4,1.2-0.6,1.9-0.4c0.4,0.1,0.7,0.2,1,0.4c0.3,0.2,0.6,0.5,1,0.9s0.7,1.1,1.3,2c0.4,0.7,0.7,1.2,0.9,1.5
				c0.2,0.2,0.3,0.4,0.5,0.6L78,224.7z"/>
			<path class="st3" d="M74.7,221.2c-0.2,0.4-0.5,0.7-0.9,0.9c-0.3,0.2-0.7,0.2-1.2,0.1c-0.6-0.1-1.1-0.4-1.5-1s-0.5-1.2-0.3-2
				c0.1-0.8,0.5-1.4,1-1.7c0.5-0.4,1.1-0.5,1.8-0.4c0.4,0.1,0.7,0.2,1,0.5c0.3,0.3,0.4,0.6,0.5,1.1c0.3-0.5,0.6-0.9,1.1-1.1
				c0.4-0.2,0.9-0.3,1.5-0.2c0.8,0.1,1.3,0.5,1.8,1.1c0.4,0.6,0.6,1.4,0.4,2.3s-0.5,1.5-1.1,2c-0.6,0.4-1.3,0.6-2.1,0.5
				c-0.6-0.1-1-0.3-1.4-0.7C75,222.3,74.8,221.8,74.7,221.2z M72.8,221.1c0.4,0.1,0.8,0,1.1-0.2c0.3-0.2,0.5-0.5,0.6-1
				c0.1-0.4,0-0.8-0.2-1.1c-0.2-0.3-0.5-0.5-0.9-0.6c-0.4-0.1-0.8,0-1.1,0.2c-0.3,0.2-0.5,0.5-0.6,1c-0.1,0.4,0,0.8,0.2,1.1
				S72.5,221.1,72.8,221.1z M76.9,222.2c0.3,0.1,0.6,0,0.9-0.1c0.3-0.1,0.6-0.3,0.8-0.5s0.3-0.6,0.4-0.9c0.1-0.5,0-1-0.3-1.4
				c-0.3-0.4-0.7-0.6-1.2-0.7c-0.5-0.1-1,0-1.4,0.3c-0.4,0.3-0.7,0.7-0.7,1.2c-0.1,0.5,0,1,0.3,1.4C76,221.9,76.4,222.1,76.9,222.2z
				"/>
			<path class="st3" d="M76.1,216.1c-1-0.2-1.9-0.4-2.5-0.8c-0.6-0.3-1-0.7-1.3-1.2c-0.3-0.5-0.4-1.1-0.2-1.7
				c0.1-0.5,0.3-0.9,0.5-1.2c0.3-0.3,0.6-0.6,1-0.7c0.4-0.2,0.9-0.3,1.4-0.3c0.5,0,1.3,0,2.1,0.2c1,0.2,1.9,0.4,2.5,0.8
				c0.6,0.3,1,0.7,1.3,1.2c0.3,0.5,0.4,1.1,0.2,1.7c-0.2,0.9-0.6,1.5-1.3,1.9C79,216.3,77.7,216.4,76.1,216.1z M76.3,215
				c1.5,0.3,2.5,0.3,3,0c0.5-0.3,0.9-0.6,0.9-1.1c0.1-0.5-0.1-1-0.5-1.4c-0.4-0.4-1.4-0.8-2.8-1c-1.5-0.3-2.5-0.3-3,0
				c-0.5,0.3-0.9,0.6-0.9,1.1c-0.1,0.5,0.1,0.9,0.4,1.3C73.8,214.4,74.8,214.7,76.3,215z"/>
		</g>
		<g class="st2">
			<path class="st3" d="M420.5,275.1l0.2-1.1l6.9,1.2c-0.2-0.3-0.4-0.7-0.6-1.2c-0.2-0.5-0.3-0.9-0.4-1.2l1.1,0.2
				c0.2,0.7,0.4,1.3,0.8,1.8c0.3,0.5,0.7,0.9,1,1.2l-0.1,0.7L420.5,275.1z"/>
			<path class="st3" d="M424.4,278.7c1,0.2,1.9,0.4,2.5,0.8s1,0.7,1.3,1.2c0.3,0.5,0.3,1.1,0.2,1.7c-0.1,0.5-0.3,0.9-0.5,1.2
				c-0.3,0.3-0.6,0.6-1,0.7c-0.4,0.2-0.9,0.3-1.4,0.3c-0.5,0-1.3,0-2.1-0.2c-1-0.2-1.9-0.4-2.5-0.8c-0.6-0.3-1-0.7-1.3-1.2
				c-0.3-0.5-0.4-1.1-0.2-1.7c0.2-0.9,0.6-1.5,1.3-1.9C421.5,278.5,422.7,278.4,424.4,278.7z M424.2,279.8c-1.5-0.3-2.5-0.3-3,0
				c-0.5,0.3-0.9,0.6-0.9,1.1s0.1,1,0.5,1.4c0.4,0.4,1.4,0.8,2.8,1c1.5,0.3,2.5,0.3,3,0c0.5-0.3,0.9-0.6,0.9-1.1
				c0.1-0.5-0.1-0.9-0.4-1.3C426.6,280.4,425.6,280,424.2,279.8z"/>
			<path class="st3" d="M423.2,285.6c1,0.2,1.9,0.4,2.5,0.8c0.6,0.3,1,0.7,1.3,1.2c0.3,0.5,0.4,1.1,0.2,1.7
				c-0.1,0.5-0.3,0.9-0.5,1.2c-0.3,0.3-0.6,0.6-1,0.7c-0.4,0.2-0.9,0.3-1.4,0.3c-0.5,0-1.3,0-2.1-0.2c-1-0.2-1.9-0.4-2.5-0.8
				c-0.6-0.3-1-0.7-1.3-1.2c-0.3-0.5-0.4-1.1-0.2-1.7c0.2-0.9,0.6-1.5,1.3-1.9C420.2,285.3,421.5,285.3,423.2,285.6z M423,286.7
				c-1.5-0.3-2.5-0.3-3,0c-0.5,0.3-0.9,0.6-0.9,1.1c-0.1,0.5,0.1,1,0.5,1.4c0.4,0.4,1.4,0.8,2.8,1c1.5,0.3,2.5,0.3,3,0
				c0.5-0.3,0.9-0.6,0.9-1.1c0.1-0.5-0.1-0.9-0.4-1.3C425.4,287.3,424.4,286.9,423,286.7z"/>
		</g>
		<g class="st2">
			<path class="st3" d="M79.5,285l1-0.2l1,5.9c-0.3,0.1-0.5,0.1-0.8,0c-0.4-0.1-0.9-0.2-1.3-0.5c-0.4-0.3-1-0.7-1.6-1.2
				c-1-0.8-1.7-1.4-2.2-1.6c-0.5-0.3-1-0.3-1.4-0.3c-0.4,0.1-0.8,0.3-1,0.7c-0.2,0.4-0.3,0.8-0.2,1.3c0.1,0.5,0.3,0.9,0.7,1.2
				c0.4,0.3,0.8,0.3,1.4,0.2l0.1,1.1c-0.8,0.1-1.5-0.1-2.1-0.5c-0.5-0.4-0.9-1.1-1-1.9c-0.1-0.8,0-1.6,0.4-2.1
				c0.4-0.6,0.9-0.9,1.6-1.1c0.4-0.1,0.7-0.1,1.1,0c0.4,0.1,0.8,0.3,1.2,0.5s1.1,0.7,1.9,1.4c0.7,0.6,1.1,0.9,1.3,1.1
				c0.2,0.2,0.5,0.3,0.7,0.4L79.5,285z"/>
			<path class="st3" d="M72.6,279.2l0.3,1.1c-0.4,0.2-0.7,0.4-0.9,0.6c-0.3,0.3-0.4,0.7-0.3,1.2c0.1,0.3,0.2,0.6,0.5,0.9
				c0.3,0.3,0.7,0.5,1.2,0.6c0.5,0.1,1.2,0.1,2.1-0.1c-0.4-0.2-0.8-0.5-1.1-0.8c-0.3-0.3-0.4-0.7-0.5-1.1c-0.1-0.7,0-1.4,0.5-2
				c0.4-0.6,1.1-1,1.9-1.1c0.6-0.1,1.1-0.1,1.6,0.1c0.5,0.2,0.9,0.4,1.3,0.8c0.3,0.4,0.5,0.8,0.6,1.4c0.2,0.9,0,1.7-0.6,2.4
				c-0.6,0.7-1.6,1.2-3.1,1.4c-1.7,0.3-3,0.2-3.9-0.3c-0.8-0.4-1.2-1.1-1.4-2.1c-0.1-0.7,0-1.3,0.3-1.8
				C71.5,279.8,72,279.4,72.6,279.2z M77.2,283c0.4-0.1,0.7-0.2,1-0.4c0.3-0.2,0.5-0.5,0.7-0.8c0.1-0.3,0.2-0.6,0.1-0.9
				c-0.1-0.5-0.3-0.8-0.8-1.1c-0.4-0.3-1-0.3-1.6-0.2c-0.6,0.1-1.1,0.4-1.4,0.7c-0.3,0.4-0.4,0.8-0.3,1.3c0.1,0.5,0.3,0.9,0.7,1.2
				C76.2,283,76.7,283.1,77.2,283z"/>
			<path class="st3" d="M74.7,277.6c-1,0.2-1.9,0.2-2.6,0.1c-0.7-0.1-1.2-0.3-1.6-0.7c-0.4-0.4-0.7-0.9-0.8-1.5
				c-0.1-0.5-0.1-0.9,0.1-1.3c0.1-0.4,0.4-0.7,0.7-1c0.3-0.3,0.7-0.6,1.2-0.8c0.5-0.2,1.2-0.4,2.1-0.6c1-0.2,1.9-0.2,2.6-0.1
				c0.7,0.1,1.2,0.3,1.6,0.7c0.4,0.4,0.7,0.9,0.8,1.5c0.2,0.9,0,1.6-0.6,2.2C77.6,276.8,76.4,277.3,74.7,277.6z M74.5,276.5
				c1.5-0.3,2.4-0.6,2.8-1s0.6-0.9,0.5-1.4c-0.1-0.5-0.4-0.9-0.9-1.1s-1.5-0.3-3,0c-1.5,0.3-2.4,0.6-2.8,1s-0.6,0.9-0.5,1.4
				c0.1,0.5,0.4,0.9,0.8,1.1C72.1,276.7,73.1,276.7,74.5,276.5z"/>
		</g>
		<g class="st2">
			<path class="st3" d="M424,215.2c0.1-0.5,0.3-0.9,0.5-1.1c0.3-0.3,0.6-0.4,1-0.5c0.6-0.1,1.2,0,1.7,0.4c0.5,0.4,0.8,1,1,1.7
				c0.1,0.8,0,1.4-0.3,2c-0.4,0.6-0.9,0.9-1.5,1c-0.4,0.1-0.8,0-1.1-0.1c-0.3-0.2-0.6-0.4-0.9-0.9c-0.1,0.6-0.3,1-0.6,1.4
				c-0.3,0.4-0.8,0.6-1.3,0.7c-0.8,0.1-1.4,0-2.1-0.5c-0.6-0.4-1-1.1-1.1-2c-0.2-0.9,0-1.6,0.4-2.3c0.4-0.6,1-1,1.8-1.1
				c0.6-0.1,1.1,0,1.5,0.2C423.5,214.3,423.8,214.7,424,215.2z M421.7,215c-0.3,0.1-0.6,0.2-0.9,0.4c-0.3,0.2-0.5,0.5-0.6,0.8
				c-0.1,0.3-0.1,0.6-0.1,1c0.1,0.5,0.3,0.9,0.7,1.2c0.4,0.3,0.8,0.4,1.4,0.3c0.5-0.1,0.9-0.3,1.2-0.8s0.4-0.9,0.3-1.4
				c-0.1-0.5-0.3-0.9-0.7-1.2C422.7,215,422.2,215,421.7,215z M425.9,214.7c-0.4,0.1-0.7,0.3-1,0.6c-0.2,0.3-0.3,0.7-0.2,1.1
				c0.1,0.4,0.3,0.7,0.6,1c0.3,0.2,0.7,0.3,1,0.2c0.4-0.1,0.7-0.3,0.9-0.6c0.2-0.3,0.3-0.7,0.2-1.1c-0.1-0.4-0.3-0.7-0.6-1
				C426.6,214.7,426.2,214.6,425.9,214.7z"/>
			<path class="st3" d="M424.5,220.5c1-0.2,1.9-0.2,2.6-0.1c0.7,0.1,1.2,0.3,1.6,0.7c0.4,0.4,0.7,0.9,0.8,1.5
				c0.1,0.5,0.1,0.9-0.1,1.3c-0.1,0.4-0.4,0.7-0.7,1c-0.3,0.3-0.7,0.6-1.2,0.8c-0.5,0.2-1.2,0.4-2.1,0.6c-1,0.2-1.9,0.2-2.6,0.1
				c-0.7-0.1-1.2-0.3-1.6-0.7c-0.4-0.4-0.7-0.9-0.8-1.5c-0.2-0.9,0-1.6,0.6-2.2C421.7,221.3,422.9,220.8,424.5,220.5z M424.7,221.6
				c-1.5,0.3-2.4,0.6-2.8,1c-0.4,0.4-0.6,0.9-0.5,1.4c0.1,0.5,0.4,0.9,0.9,1.1c0.5,0.3,1.5,0.3,3,0c1.5-0.3,2.4-0.6,2.8-1
				c0.4-0.4,0.6-0.9,0.5-1.4c-0.1-0.5-0.4-0.9-0.8-1.1C427.2,221.4,426.2,221.4,424.7,221.6z"/>
		</g>
		<g class="st2">
			<path class="st3" d="M102.4,340.7l0.9-0.5l3,5.2c-0.2,0.1-0.5,0.2-0.7,0.3c-0.4,0.1-0.9,0.1-1.4,0c-0.5-0.1-1.1-0.3-1.9-0.6
				c-1.2-0.4-2.1-0.7-2.6-0.8c-0.6-0.1-1,0-1.4,0.2c-0.4,0.2-0.6,0.5-0.7,1c-0.1,0.4,0,0.9,0.2,1.3c0.3,0.5,0.6,0.7,1.1,0.9
				s0.9,0,1.4-0.2l0.5,1c-0.8,0.4-1.5,0.4-2.1,0.2s-1.2-0.7-1.6-1.4c-0.4-0.7-0.6-1.5-0.4-2.1c0.2-0.7,0.6-1.2,1.2-1.5
				c0.3-0.2,0.7-0.3,1-0.3c0.4,0,0.8,0,1.3,0.1s1.2,0.3,2.2,0.7c0.8,0.3,1.4,0.5,1.6,0.5c0.3,0.1,0.5,0.1,0.8,0.1L102.4,340.7z"/>
			<path class="st3" d="M101,336.1l-1.9,1.1l2,3.4l-0.9,0.5l-7.1-0.6l-0.5-0.8l5-2.9l-0.6-1.1l0.9-0.5l0.6,1.1l1.9-1.1L101,336.1z
				 M98.2,337.7l-3.5,2l4.9,0.4L98.2,337.7z"/>
			<path class="st3" d="M95.4,335.3c-0.9,0.5-1.7,0.9-2.4,1s-1.3,0.1-1.8-0.1c-0.5-0.2-0.9-0.6-1.3-1.1c-0.2-0.4-0.4-0.8-0.4-1.2
				c0-0.4,0.1-0.8,0.3-1.2c0.2-0.4,0.5-0.8,0.9-1.2c0.4-0.4,1-0.8,1.7-1.2c0.9-0.5,1.7-0.9,2.4-1c0.7-0.1,1.3-0.1,1.8,0.1
				c0.5,0.2,0.9,0.6,1.3,1.2c0.4,0.8,0.5,1.5,0.2,2.2C97.8,333.6,96.9,334.5,95.4,335.3z M94.8,334.3c1.3-0.7,2-1.4,2.3-1.9
				c0.3-0.5,0.2-1,0-1.5c-0.3-0.4-0.7-0.7-1.3-0.7c-0.6-0.1-1.5,0.3-2.8,1c-1.3,0.7-2,1.4-2.3,1.9c-0.2,0.5-0.2,1,0,1.5
				c0.3,0.4,0.6,0.7,1.2,0.7C92.6,335.4,93.5,335.1,94.8,334.3z"/>
		</g>
		<g class="st2">
			<path class="st3" d="M404.5,160.7l-0.6-0.9c0.3-0.3,0.5-0.6,0.6-0.8c0.1-0.4,0.1-0.8-0.1-1.2c-0.2-0.3-0.4-0.5-0.7-0.7
				c-0.4-0.2-0.9-0.2-1.4-0.2c-0.5,0.1-1.2,0.3-2,0.8c0.5,0,0.9,0.2,1.3,0.4s0.6,0.5,0.9,0.9c0.4,0.6,0.4,1.3,0.2,2
				c-0.2,0.7-0.7,1.3-1.4,1.7c-0.5,0.3-1,0.4-1.5,0.5c-0.5,0-1-0.1-1.5-0.3c-0.4-0.2-0.8-0.6-1.1-1.1c-0.5-0.8-0.5-1.6-0.2-2.5
				c0.3-0.8,1.1-1.7,2.5-2.4c1.5-0.9,2.8-1.2,3.8-1.1c0.9,0.1,1.6,0.6,2,1.4c0.4,0.6,0.5,1.2,0.4,1.8
				C405.4,159.7,405,160.2,404.5,160.7z M398.9,158.7c-0.3,0.2-0.6,0.4-0.8,0.8c-0.2,0.3-0.3,0.6-0.3,1c0,0.3,0.1,0.7,0.2,0.9
				c0.2,0.4,0.6,0.7,1.1,0.8c0.5,0.1,1,0,1.6-0.3c0.5-0.3,0.9-0.7,1-1.2c0.1-0.5,0.1-0.9-0.2-1.4c-0.2-0.4-0.6-0.7-1.1-0.8
				S399.4,158.4,398.9,158.7z"/>
			<path class="st3" d="M403.1,162.9c0.9-0.5,1.7-0.9,2.4-1s1.3-0.1,1.8,0.1c0.5,0.2,0.9,0.6,1.3,1.1c0.2,0.4,0.4,0.8,0.4,1.2
				c0,0.4-0.1,0.8-0.3,1.2c-0.2,0.4-0.5,0.8-0.9,1.2c-0.4,0.4-1,0.8-1.7,1.2c-0.9,0.5-1.7,0.9-2.4,1s-1.3,0.1-1.8-0.1
				c-0.5-0.2-0.9-0.6-1.3-1.2c-0.4-0.8-0.5-1.5-0.2-2.2C400.7,164.6,401.6,163.8,403.1,162.9z M403.6,163.9c-1.3,0.7-2,1.4-2.3,1.9
				s-0.2,1,0,1.5c0.3,0.4,0.7,0.7,1.3,0.7c0.6,0.1,1.5-0.3,2.8-1c1.3-0.7,2-1.4,2.3-1.9c0.2-0.5,0.2-1,0-1.5
				c-0.3-0.4-0.6-0.7-1.2-0.7C405.9,162.8,404.9,163.2,403.6,163.9z"/>
		</g>
		<g class="st2">
			<path class="st3" d="M140.8,385.9l0.7-0.8l4.6,3.8c-0.2,0.2-0.4,0.4-0.6,0.5c-0.4,0.2-0.8,0.4-1.3,0.4s-1.2,0.1-2,0.1
				c-1.3,0-2.2,0-2.7,0.2c-0.6,0.1-1,0.4-1.2,0.7c-0.3,0.3-0.4,0.7-0.4,1.2s0.3,0.8,0.6,1.1c0.4,0.3,0.8,0.5,1.3,0.5
				c0.4,0,0.9-0.3,1.2-0.7l0.8,0.8c-0.6,0.6-1.2,0.9-1.9,0.9c-0.7,0-1.3-0.3-2-0.8c-0.7-0.6-1-1.2-1.1-1.9c-0.1-0.7,0.1-1.3,0.6-1.8
				c0.2-0.3,0.5-0.5,0.9-0.7c0.3-0.2,0.8-0.3,1.3-0.4c0.5-0.1,1.3-0.1,2.3-0.1c0.9,0,1.4,0,1.7,0c0.3,0,0.5-0.1,0.7-0.2L140.8,385.9
				z"/>
			<path class="st3" d="M135.4,381.4l0.7-0.8l4.6,3.8c-0.2,0.2-0.4,0.4-0.6,0.5c-0.4,0.2-0.8,0.4-1.3,0.4s-1.2,0.1-2,0.1
				c-1.3,0-2.2,0-2.7,0.2c-0.6,0.1-1,0.4-1.2,0.7c-0.3,0.3-0.4,0.7-0.4,1.2s0.3,0.8,0.6,1.1c0.4,0.3,0.8,0.5,1.3,0.5
				c0.4,0,0.9-0.3,1.2-0.7l0.8,0.8c-0.6,0.6-1.2,0.9-1.9,0.9c-0.7,0-1.3-0.3-2-0.8c-0.7-0.6-1-1.2-1.1-1.9c-0.1-0.7,0.1-1.3,0.6-1.8
				c0.2-0.3,0.5-0.5,0.9-0.7c0.3-0.2,0.8-0.3,1.3-0.4c0.5-0.1,1.3-0.1,2.3-0.1c0.9,0,1.4,0,1.7,0c0.3,0,0.5-0.1,0.7-0.2L135.4,381.4
				z"/>
			<path class="st3" d="M132.3,383.2c-0.7,0.8-1.3,1.4-1.9,1.8c-0.6,0.4-1.2,0.5-1.7,0.5c-0.6,0-1.1-0.2-1.6-0.6
				c-0.4-0.3-0.6-0.7-0.8-1c-0.2-0.4-0.2-0.8-0.2-1.2c0.1-0.4,0.2-0.9,0.4-1.4c0.2-0.5,0.6-1.1,1.2-1.8c0.7-0.8,1.3-1.4,1.9-1.7
				c0.6-0.4,1.2-0.5,1.7-0.5c0.6,0,1.1,0.2,1.6,0.6c0.7,0.6,1,1.2,1,2C134,380.8,133.4,381.9,132.3,383.2z M131.5,382.5
				c0.9-1.1,1.4-2,1.5-2.6c0-0.6-0.1-1.1-0.5-1.4c-0.4-0.3-0.9-0.4-1.5-0.3c-0.6,0.2-1.3,0.8-2.3,1.9c-1,1.1-1.5,2-1.5,2.6
				s0.1,1.1,0.5,1.4c0.4,0.3,0.8,0.4,1.3,0.3C129.7,384.3,130.5,383.6,131.5,382.5z"/>
		</g>
		<g class="st2">
			<path class="st3" d="M358.3,116.5l1.4-1.7l-3-2.5l0.7-0.8l6.9-1.8l0.7,0.6l-3.7,4.5l0.9,0.8l-0.7,0.8l-0.9-0.8l-1.4,1.7
				L358.3,116.5z M360.4,114.1l2.6-3.1l-4.8,1.3L360.4,114.1z"/>
			<path class="st3" d="M363.8,115.3c0.7-0.8,1.3-1.4,1.9-1.8c0.6-0.4,1.2-0.5,1.7-0.5c0.6,0,1.1,0.2,1.6,0.6c0.4,0.3,0.6,0.7,0.8,1
				c0.2,0.4,0.2,0.8,0.2,1.2c-0.1,0.4-0.2,0.9-0.4,1.4c-0.2,0.5-0.6,1.1-1.2,1.8c-0.7,0.8-1.3,1.4-1.9,1.7c-0.6,0.4-1.2,0.5-1.7,0.5
				s-1.1-0.2-1.6-0.6c-0.7-0.6-1-1.2-1-2C362.2,117.7,362.7,116.6,363.8,115.3z M364.7,116c-1,1.1-1.4,2-1.5,2.6
				c0,0.6,0.1,1.1,0.5,1.4c0.4,0.3,0.9,0.4,1.5,0.3s1.3-0.8,2.3-1.9c1-1.1,1.5-2,1.5-2.6c0-0.6-0.1-1.1-0.5-1.4
				c-0.4-0.3-0.8-0.4-1.3-0.3C366.4,114.3,365.6,114.9,364.7,116z"/>
		</g>
		<g class="st2">
			<path class="st3" d="M194.2,414.8l0.4-1l5.6,2c-0.1,0.3-0.2,0.5-0.4,0.7c-0.3,0.3-0.6,0.6-1.1,0.9c-0.4,0.3-1.1,0.5-1.8,0.8
				c-1.2,0.4-2,0.8-2.5,1.1c-0.5,0.3-0.8,0.7-0.9,1.1c-0.2,0.4-0.1,0.8,0.1,1.2c0.2,0.4,0.5,0.7,1,0.8c0.5,0.2,1,0.2,1.4,0
				c0.4-0.2,0.7-0.5,0.9-1.1l1,0.5c-0.4,0.8-0.9,1.3-1.5,1.5c-0.6,0.2-1.3,0.2-2.1-0.1c-0.8-0.3-1.4-0.8-1.7-1.4
				c-0.3-0.6-0.3-1.3-0.1-1.9c0.1-0.3,0.3-0.6,0.6-0.9c0.3-0.3,0.6-0.5,1.1-0.8c0.5-0.2,1.2-0.5,2.1-0.9c0.8-0.3,1.3-0.5,1.6-0.6
				c0.2-0.1,0.5-0.3,0.6-0.4L194.2,414.8z"/>
			<path class="st3" d="M192,417.5c-0.4,1-0.8,1.8-1.2,2.3c-0.4,0.5-0.9,0.9-1.4,1.1c-0.5,0.2-1.1,0.2-1.7-0.1
				c-0.5-0.2-0.8-0.4-1.1-0.7c-0.3-0.3-0.5-0.7-0.6-1.1c-0.1-0.4-0.1-0.9-0.1-1.4c0.1-0.5,0.2-1.2,0.5-2.1c0.4-1,0.8-1.8,1.2-2.3
				s0.9-0.9,1.4-1.1c0.5-0.2,1.1-0.2,1.7,0.1c0.8,0.3,1.3,0.8,1.6,1.6C192.7,414.7,192.5,415.9,192,417.5z M190.9,417.1
				c0.5-1.4,0.7-2.4,0.5-2.9c-0.2-0.6-0.5-1-1-1.1c-0.5-0.2-1-0.1-1.5,0.3c-0.5,0.3-1,1.2-1.5,2.6c-0.5,1.4-0.7,2.4-0.5,3
				c0.2,0.6,0.5,1,1,1.1c0.5,0.2,0.9,0.1,1.4-0.2C189.9,419.4,190.4,418.5,190.9,417.1z"/>
			<path class="st3" d="M185.4,415.1c-0.4,1-0.8,1.8-1.2,2.3c-0.4,0.5-0.9,0.9-1.4,1.1c-0.5,0.2-1.1,0.2-1.7-0.1
				c-0.5-0.2-0.8-0.4-1.1-0.7c-0.3-0.3-0.5-0.7-0.6-1.1c-0.1-0.4-0.1-0.9-0.1-1.4c0.1-0.5,0.2-1.2,0.5-2.1c0.4-1,0.8-1.8,1.2-2.3
				s0.9-0.9,1.4-1.1c0.5-0.2,1.1-0.2,1.7,0.1c0.8,0.3,1.3,0.8,1.6,1.6C186.1,412.3,186,413.6,185.4,415.1z M184.3,414.8
				c0.5-1.4,0.7-2.4,0.5-2.9c-0.2-0.6-0.5-1-1-1.1c-0.5-0.2-1-0.1-1.5,0.3c-0.5,0.3-1,1.2-1.5,2.6c-0.5,1.4-0.7,2.4-0.5,3
				c0.2,0.6,0.5,1,1,1.1c0.5,0.2,0.9,0.1,1.4-0.2C183.3,417,183.8,416.1,184.3,414.8z"/>
		</g>
		<g class="st2">
			<path class="st3" d="M308.7,86.1l-0.4,1l-5.6-2c0.1-0.3,0.2-0.5,0.4-0.7c0.3-0.3,0.6-0.6,1.1-0.9c0.4-0.3,1.1-0.5,1.8-0.8
				c1.2-0.4,2-0.8,2.5-1.1c0.5-0.3,0.8-0.7,0.9-1.1c0.2-0.4,0.1-0.8-0.1-1.2s-0.5-0.7-1-0.8c-0.5-0.2-1-0.2-1.4,0
				c-0.4,0.2-0.7,0.5-0.9,1.1l-1-0.5c0.4-0.8,0.9-1.3,1.5-1.5c0.6-0.2,1.3-0.2,2.1,0.1c0.8,0.3,1.4,0.8,1.7,1.4
				c0.3,0.6,0.3,1.3,0.1,1.9c-0.1,0.3-0.3,0.6-0.6,0.9c-0.3,0.3-0.6,0.5-1.1,0.8c-0.5,0.2-1.2,0.5-2.1,0.9c-0.8,0.3-1.3,0.5-1.6,0.6
				c-0.2,0.1-0.5,0.3-0.6,0.4L308.7,86.1z"/>
			<path class="st3" d="M311,83.4c0.4-1,0.8-1.8,1.2-2.3c0.4-0.5,0.9-0.9,1.4-1.1c0.5-0.2,1.1-0.2,1.7,0.1c0.5,0.2,0.8,0.4,1.1,0.7
				c0.3,0.3,0.5,0.7,0.6,1.1c0.1,0.4,0.1,0.9,0.1,1.4c-0.1,0.5-0.2,1.2-0.5,2.1c-0.4,1-0.8,1.8-1.2,2.3s-0.9,0.9-1.4,1.1
				c-0.5,0.2-1.1,0.2-1.7-0.1c-0.8-0.3-1.3-0.8-1.6-1.6C310.3,86.2,310.4,85,311,83.4z M312,83.8c-0.5,1.4-0.7,2.4-0.5,2.9
				c0.2,0.6,0.5,1,1,1.1c0.5,0.2,1,0.1,1.5-0.3c0.5-0.3,1-1.2,1.5-2.6c0.5-1.4,0.7-2.4,0.5-3c-0.2-0.6-0.5-1-1-1.1
				c-0.5-0.2-0.9-0.1-1.4,0.2C313.1,81.5,312.6,82.4,312,83.8z"/>
		</g>
		<ellipse class="st1" cx="249.6" cy="250.8" rx="162.4" ry="162.4"/>
		<ellipse class="st4" cx="249.6" cy="250.8" rx="166.3" ry="166.3"/>
		<line class="st5" x1="250.2" y1="107.6" x2="250.2" y2="167.8"/>
		<line class="st5" x1="126.2" y1="179.2" x2="178.3" y2="209.3"/>
		<line class="st5" x1="126.2" y1="322.4" x2="178.3" y2="292.3"/>
		<g class="st6">
			<ellipse class="st7" cx="249.6" cy="250.7" rx="81.1" ry="81.1"/>
			<circle class="st0" cx="249.6" cy="250.8" r="83"/>
			<line class="st5" x1="250.2" y1="333.8" x2="250.2" y2="394"/>
			<line class="st5" x1="322.1" y1="292.3" x2="374.3" y2="322.4"/>
			<line class="st5" x1="322.1" y1="209.3" x2="374.3" y2="179.2"/>
			<g>
				<g>
					<polygon class="st8" points="256.2,258 243.6,242.6 310,200.9 					"/>
					<polygon class="st9" points="310,200.9 250,250.5 256.2,258 					"/>
					<polygon class="st8" points="243.5,242.6 256.2,258.1 189.7,299.7 					"/>
					<polygon class="st9" points="189.7,299.7 249.7,250.1 243.5,242.6 					"/>
				</g>
				<g>
					<polygon class="st8" points="257.5,243.9 242.1,256.6 200.5,190.2 					"/>
					<polygon class="st9" points="200.5,190.2 250,250.1 257.5,243.9 					"/>
					<polygon class="st8" points="242.2,256.7 257.6,244 299.3,310.4 					"/>
					<polygon class="st9" points="299.3,310.4 249.7,250.5 242.2,256.7 					"/>
				</g>
				<g>
					<polygon class="st8" points="248.6,264.5 251.3,236.2 360.1,261.1 					"/>
					<polygon class="st9" points="360.1,261.1 249.9,250.7 248.6,264.5 					"/>
					<polygon class="st8" points="251.2,236.2 248.4,264.4 139.6,239.5 					"/>
					<polygon class="st9" points="139.6,239.5 249.9,250 251.2,236.2 					"/>
				</g>
				<polygon class="st8" points="244,242.4 255.7,257.5 111.3,356.6 				"/>
				<polygon class="st10" points="255.7,257.5 244,242.4 388.5,143.3 				"/>
				<g>
					<polygon class="st8" points="264,251.6 235.7,248.9 260.7,140.1 					"/>
					<polygon class="st9" points="260.7,140.1 250.2,250.3 264,251.6 					"/>
					<polygon class="st8" points="235.7,249 264,251.8 239.1,360.6 					"/>
					<polygon class="st9" points="239.1,360.6 249.5,250.3 235.7,249 					"/>
				</g>
				<path class="st11" d="M241.3,239.1c6.2-4.8,15.1-3.6,19.8,2.6c4.8,6.2,3.6,15.1-2.6,19.8c-6.2,4.8-15.1,3.6-19.8-2.6
					C233.9,252.8,235.1,243.9,241.3,239.1z"/>
			</g>
		</g>
	</g>
</g>
</svg>
