<svg width="256" height="256" viewBox="0 0 256 256" fill="none" xmlns="http://www.w3.org/2000/svg">
<g id="ico_TAP">
<path id="Vector" d="M48.0001 76C48.0001 60.087 54.3215 44.8258 65.5737 33.5736C76.8259 22.3214 92.0871 16 108 16C123.913 16 139.174 22.3214 150.427 33.5736C161.679 44.8258 168 60.087 168 76C168 78.1217 167.157 80.1566 165.657 81.6569C164.157 83.1571 162.122 84 160 84C157.878 84 155.844 83.1571 154.343 81.6569C152.843 80.1566 152 78.1217 152 76C152 64.3305 147.364 53.1389 139.113 44.8873C130.861 36.6357 119.67 32 108 32C96.3306 32 85.139 36.6357 76.8874 44.8873C68.6358 53.1389 64.0001 64.3305 64.0001 76C64.0001 78.1217 63.1572 80.1566 61.6569 81.6569C60.1567 83.1571 58.1218 84 56.0001 84C53.8784 84 51.8435 83.1571 50.3432 81.6569C48.843 80.1566 48.0001 78.1217 48.0001 76ZM188 120C183.333 119.995 178.74 121.16 174.64 123.39C173.415 119.599 171.395 116.113 168.715 113.165C166.035 110.217 162.757 107.875 159.099 106.295C155.442 104.715 151.49 103.934 147.506 104.004C143.523 104.074 139.6 104.993 136 106.7V76C136 68.5739 133.05 61.452 127.799 56.201C122.548 50.95 115.426 48 108 48C100.574 48 93.4521 50.95 88.2011 56.201C82.9501 61.452 80.0001 68.5739 80.0001 76V156L76.1801 149.87C72.4445 143.45 66.3118 138.778 59.131 136.88C51.9502 134.982 44.3097 136.014 37.8901 139.75C31.4705 143.486 26.7978 149.618 24.9 156.799C23.0021 163.98 24.0345 171.62 27.7701 178.04L57.0901 228.04C57.5818 229.014 58.2675 229.877 59.1051 230.576C59.9426 231.275 60.9143 231.795 61.9603 232.105C63.0064 232.415 64.1047 232.507 65.1878 232.377C66.2709 232.246 67.3159 231.896 68.2585 231.346C69.2012 230.797 70.0215 230.061 70.6691 229.183C71.3167 228.305 71.778 227.304 72.0245 226.241C72.2709 225.179 72.2974 224.077 72.1024 223.003C71.9073 221.93 71.4947 220.908 70.8901 220L41.6001 170C40.7778 168.634 40.2359 167.118 40.006 165.541C39.7762 163.963 39.863 162.355 40.2614 160.812C40.6598 159.268 41.3619 157.819 42.3265 156.55C43.2911 155.28 44.499 154.216 45.8797 153.419C47.2603 152.621 48.7859 152.107 50.3675 151.906C51.949 151.705 53.5548 151.821 55.0909 152.248C56.6271 152.674 58.0629 153.403 59.3144 154.39C60.566 155.378 61.6081 156.605 62.3801 158L62.5201 158.23L81.2001 188.23C82.1172 189.71 83.4921 190.85 85.1161 191.478C86.7401 192.105 88.5245 192.186 90.1986 191.708C91.8726 191.229 93.3448 190.218 94.3919 188.827C95.4389 187.436 96.0035 185.741 96.0001 184V76C96.0001 72.8174 97.2644 69.7652 99.5148 67.5147C101.765 65.2643 104.818 64 108 64C111.183 64 114.235 65.2643 116.485 67.5147C118.736 69.7652 120 72.8174 120 76V144C120 146.122 120.843 148.157 122.343 149.657C123.844 151.157 125.878 152 128 152C130.122 152 132.157 151.157 133.657 149.657C135.157 148.157 136 146.122 136 144V132C136 128.817 137.264 125.765 139.515 123.515C141.765 121.264 144.818 120 148 120C151.183 120 154.235 121.264 156.485 123.515C158.736 125.765 160 128.817 160 132V152C160 154.122 160.843 156.157 162.343 157.657C163.844 159.157 165.878 160 168 160C170.122 160 172.157 159.157 173.657 157.657C175.157 156.157 176 154.122 176 152V148C176 144.817 177.264 141.765 179.515 139.515C181.765 137.264 184.817 136 188 136C191.183 136 194.235 137.264 196.485 139.515C198.736 141.765 200 144.817 200 148V184C200 205.61 192.9 220.3 192.84 220.42C191.892 222.318 191.737 224.514 192.408 226.526C193.08 228.538 194.523 230.202 196.42 231.15C197.53 231.711 198.756 232.002 200 232C201.486 232.001 202.943 231.588 204.208 230.807C205.473 230.027 206.495 228.909 207.16 227.58C207.53 226.85 216.01 209.58 216.01 184V148C216.01 144.322 215.286 140.68 213.878 137.283C212.47 133.885 210.407 130.798 207.806 128.197C205.204 125.597 202.117 123.535 198.718 122.129C195.32 120.722 191.678 119.999 188 120Z" fill="white" fill-opacity="0.76"/>
</g>
</svg>
