<svg width="111" height="112" viewBox="0 0 111 112" fill="none" xmlns="http://www.w3.org/2000/svg">
<g id="Group">
<path id="Vector" d="M55.8406 111.299C48.526 111.299 41.2112 109.811 34.5164 106.96C27.8217 104.109 21.6231 100.018 16.4161 94.8114C11.3331 89.6049 7.11792 83.4068 4.39044 76.7127C1.66297 70.0187 0.175189 62.7049 0.299166 55.3911C0.299166 48.0772 1.78688 40.8873 4.63834 34.1933C7.48979 27.4992 11.5811 21.425 16.7881 16.2185C21.9951 11.136 28.0699 7.04527 34.7646 4.31808C41.4594 1.59088 48.6498 0.227295 55.9644 0.227295C63.155 0.227295 70.4696 1.71486 77.0404 4.56602C83.7351 7.29322 89.8101 11.5079 94.8931 16.5904C99.9762 21.6729 104.067 27.8711 106.795 34.4412C109.522 41.1352 110.886 48.3251 110.886 55.515C110.886 62.7049 109.398 69.8948 106.671 76.4649C103.943 83.0349 99.8521 89.1091 94.769 94.1916C89.686 99.2741 83.6111 103.241 77.0404 105.968C70.4696 108.695 63.2791 110.059 56.0885 110.059C63.2791 110.059 70.3458 108.571 76.9166 105.844C83.4873 103.117 89.4381 99.0262 94.5211 93.9437C99.4802 88.8612 103.571 82.911 106.175 76.3409C108.902 69.7709 110.266 62.7049 110.266 55.6389C110.266 48.573 108.778 41.5072 106.051 34.9371C103.324 28.367 99.2323 22.4167 94.2732 17.4582C89.3142 12.4996 83.2391 8.53285 76.6684 5.80565C70.0976 3.07846 63.0312 1.71484 56.0885 1.83881C49.0218 1.83881 41.9551 3.32632 35.5083 6.05352C29.0615 8.78072 23.1107 12.7476 18.1516 17.7061C13.1926 22.6647 9.22528 28.6149 6.62177 35.185C4.01827 41.6311 2.65459 48.697 2.65459 55.6389C2.65459 62.5809 4.14237 69.6468 6.74587 76.0929C9.47335 82.539 13.4405 88.3653 18.3995 93.3239C23.3586 98.2824 29.3094 102.125 35.7562 104.853C42.203 107.456 49.1458 108.819 56.0885 108.819V111.299H55.8406Z" fill="url(#paint0_linear_179_4238)"/>
<path id="Vector_2" fill-rule="evenodd" clip-rule="evenodd" d="M55.5893 32.6177C46.3806 32.6177 38.946 40.0515 38.946 49.2592C38.946 49.6816 38.9459 50.0195 39.0304 50.4419C39.0304 50.5264 39.0304 50.6954 39.0304 50.7798C39.0304 51.0332 39.115 51.3711 39.115 51.6246C39.115 51.709 39.1148 51.8779 39.1993 51.9624C39.2838 52.3003 39.284 52.6383 39.3685 52.9762V53.0606C39.4529 53.3985 39.5373 53.7364 39.6217 54.1588C39.6217 54.2433 39.7063 54.4122 39.7063 54.4966C39.7908 54.7501 39.8753 55.0035 39.9598 55.2569C40.0443 55.3414 40.0442 55.5104 40.1287 55.5949C40.2132 55.8483 40.3821 56.1862 40.4666 56.4396C40.4666 56.5241 40.5511 56.524 40.5511 56.6085C40.7201 56.9464 40.8892 57.1999 41.0581 57.5378C41.1426 57.6223 41.1426 57.7067 41.2271 57.8756C41.3115 58.1291 41.4805 58.2981 41.6495 58.467C41.6495 58.5515 41.7338 58.6359 41.7338 58.6359L53.1391 75.362C54.5753 77.5583 55.5893 78.9099 55.5893 78.9099C55.5893 78.9099 56.5185 77.5583 58.0392 75.362L69.4445 58.6359C69.529 58.5515 69.529 58.467 69.529 58.467C69.698 58.2981 69.7825 58.0446 69.9515 57.8756C70.036 57.7912 70.0359 57.7068 70.1204 57.5378C70.2894 57.1999 70.4584 56.9464 70.6274 56.6085C70.6274 56.524 70.7117 56.5241 70.7117 56.4396C70.8807 56.1862 70.9653 55.8483 71.0498 55.5949C71.1343 55.5104 71.1342 55.3414 71.2187 55.2569C71.3032 55.0035 71.3877 54.7501 71.4722 54.4966C71.4722 54.4122 71.5566 54.2433 71.5566 54.1588C71.6411 53.8209 71.7256 53.483 71.8101 53.0606V52.9762C71.8945 52.6383 71.979 52.3003 71.979 51.9624C71.979 51.8779 71.9791 51.709 72.0636 51.6246C72.0636 51.3711 72.1479 51.0332 72.1479 50.7798C72.1479 50.6954 72.1479 50.5264 72.1479 50.4419C72.1479 50.0195 72.2325 49.6816 72.2325 49.2592C72.2325 40.0515 64.798 32.6177 55.5893 32.6177ZM55.5893 57.9602C51.0272 57.9602 47.3098 54.2433 47.3098 49.6816C47.3098 45.12 51.0272 41.4031 55.5893 41.4031C60.1514 41.4031 63.8687 45.12 63.8687 49.6816C63.8687 54.3277 60.1514 57.9602 55.5893 57.9602Z" fill="#004A9B"/>
</g>
<defs>
<linearGradient id="paint0_linear_179_4238" x1="-0.141817" y1="55.7631" x2="111.709" y2="55.7631" gradientUnits="userSpaceOnUse">
<stop stop-color="#D0202D"/>
<stop offset="1" stop-color="#EA202D" stop-opacity="0.6"/>
</linearGradient>
</defs>
</svg>
