<svg width="339" height="338" viewBox="0 0 339 338" fill="none" xmlns="http://www.w3.org/2000/svg">
<path d="M151.927 35.7105H139.922V29.7259C139.922 26.3346 142.523 23.7412 145.924 23.7412H151.927V35.7105Z" fill="#004A9B"/>
<path d="M163.582 35.7105H151.577V23.7412H157.579C160.981 23.7412 163.582 26.3346 163.582 29.7259V35.7105Z" fill="#004A9B"/>
<path d="M180.89 35.7105C184.205 35.7105 186.892 33.0311 186.892 29.7259C186.892 26.4206 184.205 23.7412 180.89 23.7412C177.575 23.7412 174.887 26.4206 174.887 29.7259C174.887 33.0311 177.575 35.7105 180.89 35.7105Z" fill="#004A9B"/>
<path d="M221.858 35.7105H209.853V29.7259C209.853 26.3346 212.454 23.7412 215.855 23.7412C219.257 23.7412 221.858 26.3346 221.858 29.7259V35.7105Z" fill="#004A9B"/>
<path d="M151.927 47.3311H145.924C142.523 47.3311 139.922 44.7378 139.922 41.3465V35.3618H151.927V47.3311Z" fill="#004A9B"/>
<path d="M157.579 47.3311H151.577V35.3618H163.582V41.3465C163.582 44.7378 160.981 47.3311 157.579 47.3311Z" fill="#004A9B"/>
<path d="M198.547 47.3311H186.543V41.3465C186.543 37.9552 189.144 35.3618 192.545 35.3618H198.547V47.3311Z" fill="#004A9B"/>
<path d="M210.203 35.3618H198.198V47.3311H210.203V35.3618Z" fill="#004A9B"/>
<path d="M221.858 35.3618H209.853V47.3311H221.858V35.3618Z" fill="#004A9B"/>
<path d="M128.616 58.9517H116.612V52.9671C116.612 49.5758 119.213 46.9824 122.614 46.9824H128.616V58.9517Z" fill="#004A9B"/>
<path d="M134.269 58.9517H128.267V46.9824H134.269C137.671 46.9824 140.272 49.5758 140.272 52.9671C140.272 56.3584 137.671 58.9517 134.269 58.9517Z" fill="#004A9B"/>
<path d="M169.235 58.9517C172.55 58.9517 175.237 56.2723 175.237 52.9671C175.237 49.6618 172.55 46.9824 169.235 46.9824C165.92 46.9824 163.232 49.6618 163.232 52.9671C163.232 56.2723 165.92 58.9517 169.235 58.9517Z" fill="#004A9B"/>
<path d="M192.545 58.9517C189.144 58.9517 186.543 56.3584 186.543 52.9671V46.9824H198.547V52.9671C198.547 56.3584 195.946 58.9517 192.545 58.9517Z" fill="#004A9B"/>
<path d="M215.855 58.9517C212.454 58.9517 209.853 56.3584 209.853 52.9671V46.9824H221.858V52.9671C221.858 56.3584 219.257 58.9517 215.855 58.9517Z" fill="#004A9B"/>
<path d="M128.616 58.6035H116.612V70.5728H128.616V58.6035Z" fill="#004A9B"/>
<path d="M157.579 70.5728C160.894 70.5728 163.582 67.8934 163.582 64.5882C163.582 61.2829 160.894 58.6035 157.579 58.6035C154.264 58.6035 151.577 61.2829 151.577 64.5882C151.577 67.8934 154.264 70.5728 157.579 70.5728Z" fill="#004A9B"/>
<path d="M128.616 70.2241H116.612V82.1934H128.616V70.2241Z" fill="#004A9B"/>
<path d="M151.927 82.1934H139.922V76.2088C139.922 72.8175 142.523 70.2241 145.924 70.2241C149.326 70.2241 151.927 72.8175 151.927 76.2088V82.1934Z" fill="#004A9B"/>
<path d="M186.892 82.1934H174.887V76.2088C174.887 72.8175 177.488 70.2241 180.89 70.2241C184.291 70.2241 186.892 72.8175 186.892 76.2088V82.1934Z" fill="#004A9B"/>
<path d="M221.858 82.1934H209.853V76.2088C209.853 72.8175 212.454 70.2241 215.855 70.2241C219.257 70.2241 221.858 72.8175 221.858 76.2088V82.1934Z" fill="#004A9B"/>
<path d="M128.616 81.8447H116.612V93.814H128.616V81.8447Z" fill="#004A9B"/>
<path d="M151.927 81.8447H139.922V93.814H151.927V81.8447Z" fill="#004A9B"/>
<path d="M157.579 93.814H151.577V81.8447H157.579C160.981 81.8447 163.582 84.4381 163.582 87.8294C163.582 91.2207 160.981 93.814 157.579 93.814Z" fill="#004A9B"/>
<path d="M186.892 93.814H180.89C177.488 93.814 174.887 91.2207 174.887 87.8294V81.8447H186.892V93.814Z" fill="#004A9B"/>
<path d="M198.547 81.8447H186.543V93.814H198.547V81.8447Z" fill="#004A9B"/>
<path d="M210.203 81.8447H198.198V93.814H210.203V81.8447Z" fill="#004A9B"/>
<path d="M221.858 81.8447H209.853V93.814H221.858V81.8447Z" fill="#004A9B"/>
<path d="M128.616 93.4653H116.612V105.435H128.616V93.4653Z" fill="#004A9B"/>
<path d="M145.924 105.435C142.523 105.435 139.922 102.841 139.922 99.45V93.4653H151.927V99.45C151.927 102.841 149.326 105.435 145.924 105.435Z" fill="#004A9B"/>
<path d="M169.235 105.435C172.55 105.435 175.237 102.755 175.237 99.45C175.237 96.1448 172.55 93.4653 169.235 93.4653C165.92 93.4653 163.232 96.1448 163.232 99.45C163.232 102.755 165.92 105.435 169.235 105.435Z" fill="#004A9B"/>
<path d="M192.545 105.435C189.144 105.435 186.543 102.841 186.543 99.45V93.4653H198.547V99.45C198.547 102.841 195.946 105.435 192.545 105.435Z" fill="#004A9B"/>
<path d="M215.855 105.435C212.454 105.435 209.853 102.841 209.853 99.45V93.4653H221.858V99.45C221.858 102.841 219.257 105.435 215.855 105.435Z" fill="#004A9B"/>
<path d="M122.614 117.055C119.213 117.055 116.612 114.462 116.612 111.071V105.086H128.616V111.071C128.616 114.462 126.015 117.055 122.614 117.055Z" fill="#004A9B"/>
<path d="M157.579 117.055C160.894 117.055 163.582 114.376 163.582 111.071C163.582 107.765 160.894 105.086 157.579 105.086C154.264 105.086 151.577 107.765 151.577 111.071C151.577 114.376 154.264 117.055 157.579 117.055Z" fill="#004A9B"/>
<path d="M180.89 117.055C184.205 117.055 186.892 114.376 186.892 111.071C186.892 107.765 184.205 105.086 180.89 105.086C177.575 105.086 174.887 107.765 174.887 111.071C174.887 114.376 177.575 117.055 180.89 117.055Z" fill="#004A9B"/>
<path d="M29.3726 128.676C32.6876 128.676 35.375 125.996 35.375 122.691C35.375 119.386 32.6876 116.707 29.3726 116.707C26.0576 116.707 23.3702 119.386 23.3702 122.691C23.3702 125.996 26.0576 128.676 29.3726 128.676Z" fill="#004A9B"/>
<path d="M58.6854 128.676H46.6805V122.691C46.6805 119.3 49.2816 116.707 52.683 116.707H58.6854V128.676Z" fill="#004A9B"/>
<path d="M70.3405 116.707H58.3357V128.676H70.3405V116.707Z" fill="#004A9B"/>
<path d="M81.9957 116.707H69.9908V128.676H81.9957V116.707Z" fill="#004A9B"/>
<path d="M93.6509 116.707H81.6461V128.676H93.6509V116.707Z" fill="#004A9B"/>
<path d="M99.3036 128.676H93.3012V116.707H99.3036C102.705 116.707 105.306 119.3 105.306 122.691C105.306 126.083 102.705 128.676 99.3036 128.676Z" fill="#004A9B"/>
<path d="M198.547 128.676H192.545C189.144 128.676 186.543 126.083 186.543 122.691C186.543 119.3 189.144 116.707 192.545 116.707H198.547V128.676Z" fill="#004A9B"/>
<path d="M204.2 128.676H198.198V116.707H204.2C207.602 116.707 210.203 119.3 210.203 122.691C210.203 126.083 207.602 128.676 204.2 128.676Z" fill="#004A9B"/>
<path d="M245.168 128.676H239.166C235.764 128.676 233.163 126.083 233.163 122.691C233.163 119.3 235.764 116.707 239.166 116.707H245.168V128.676Z" fill="#004A9B"/>
<path d="M256.823 116.707H244.818V128.676H256.823V116.707Z" fill="#004A9B"/>
<path d="M268.478 116.707H256.474V128.676H268.478V116.707Z" fill="#004A9B"/>
<path d="M280.134 116.707H268.129V128.676H280.134V116.707Z" fill="#004A9B"/>
<path d="M285.786 128.676H279.784V116.707H285.786C289.188 116.707 291.789 119.3 291.789 122.691C291.789 126.083 289.188 128.676 285.786 128.676Z" fill="#004A9B"/>
<path d="M58.6854 128.328H46.6805V140.297H58.6854V128.328Z" fill="#004A9B"/>
<path d="M110.959 140.297C114.274 140.297 116.961 137.618 116.961 134.312C116.961 131.007 114.274 128.328 110.959 128.328C107.644 128.328 104.956 131.007 104.956 134.312C104.956 137.618 107.644 140.297 110.959 140.297Z" fill="#004A9B"/>
<path d="M221.858 140.297H215.855C212.454 140.297 209.853 137.704 209.853 134.312C209.853 130.921 212.454 128.328 215.855 128.328H221.858V140.297Z" fill="#004A9B"/>
<path d="M233.513 140.297H221.508V128.328H227.51C230.912 128.328 233.513 130.921 233.513 134.312V140.297Z" fill="#004A9B"/>
<path d="M256.823 128.328H244.818V140.297H256.823V128.328Z" fill="#004A9B"/>
<path d="M303.444 140.297H291.439V134.312C291.439 130.921 294.04 128.328 297.442 128.328C300.843 128.328 303.444 130.921 303.444 134.312V140.297Z" fill="#004A9B"/>
<path d="M35.375 151.918H23.3702V145.933C23.3702 142.542 25.9712 139.948 29.3726 139.948C32.774 139.948 35.375 142.542 35.375 145.933V151.918Z" fill="#004A9B"/>
<path d="M52.683 151.918C49.2816 151.918 46.6805 149.324 46.6805 145.933V139.948H58.6854V145.933C58.6854 149.324 56.0843 151.918 52.683 151.918Z" fill="#004A9B"/>
<path d="M99.3036 151.918C102.619 151.918 105.306 149.238 105.306 145.933C105.306 142.628 102.619 139.948 99.3036 139.948C95.9886 139.948 93.3012 142.628 93.3012 145.933C93.3012 149.238 95.9886 151.918 99.3036 151.918Z" fill="#004A9B"/>
<path d="M128.616 151.918H122.614C119.213 151.918 116.612 149.324 116.612 145.933C116.612 142.542 119.213 139.948 122.614 139.948H128.616V151.918Z" fill="#004A9B"/>
<path d="M140.272 139.948H128.267V151.918H140.272V139.948Z" fill="#004A9B"/>
<path d="M145.924 151.918H139.922V139.948H145.924C149.326 139.948 151.927 142.542 151.927 145.933C151.927 149.324 149.326 151.918 145.924 151.918Z" fill="#004A9B"/>
<path d="M175.237 151.918H163.232V145.933C163.232 142.542 165.833 139.948 169.235 139.948C172.636 139.948 175.237 142.542 175.237 145.933V151.918Z" fill="#004A9B"/>
<path d="M204.2 151.918C207.515 151.918 210.203 149.238 210.203 145.933C210.203 142.628 207.515 139.948 204.2 139.948C200.885 139.948 198.198 142.628 198.198 145.933C198.198 149.238 200.885 151.918 204.2 151.918Z" fill="#004A9B"/>
<path d="M233.513 139.948H221.508V151.918H233.513V139.948Z" fill="#004A9B"/>
<path d="M245.168 139.948H233.163V151.918H245.168V139.948Z" fill="#004A9B"/>
<path d="M256.823 139.948H244.818V151.918H256.823V139.948Z" fill="#004A9B"/>
<path d="M274.131 151.918C277.446 151.918 280.134 149.238 280.134 145.933C280.134 142.628 277.446 139.948 274.131 139.948C270.816 139.948 268.129 142.628 268.129 145.933C268.129 149.238 270.816 151.918 274.131 151.918Z" fill="#004A9B"/>
<path d="M303.444 151.918H297.442C294.04 151.918 291.439 149.324 291.439 145.933V139.948H303.444V151.918Z" fill="#004A9B"/>
<path d="M315.099 151.918H303.094V139.948H309.097C312.498 139.948 315.099 142.542 315.099 145.933V151.918Z" fill="#004A9B"/>
<path d="M35.375 151.569H23.3702V163.538H35.375V151.569Z" fill="#004A9B"/>
<path d="M70.3405 163.538H58.3357V157.554C58.3357 154.162 60.9367 151.569 64.3381 151.569H70.3405V163.538Z" fill="#004A9B"/>
<path d="M81.9957 151.569H69.9908V163.538H81.9957V151.569Z" fill="#004A9B"/>
<path d="M93.6509 163.538H81.6461V151.569H87.6485C91.0498 151.569 93.6509 154.162 93.6509 157.554V163.538Z" fill="#004A9B"/>
<path d="M110.959 163.538C114.274 163.538 116.961 160.859 116.961 157.554C116.961 154.248 114.274 151.569 110.959 151.569C107.644 151.569 104.956 154.248 104.956 157.554C104.956 160.859 107.644 163.538 110.959 163.538Z" fill="#004A9B"/>
<path d="M163.582 163.538H157.579C154.178 163.538 151.577 160.945 151.577 157.554C151.577 154.162 154.178 151.569 157.579 151.569H163.582V163.538Z" fill="#004A9B"/>
<path d="M169.235 163.538H163.232V151.569H175.237V157.554C175.237 160.945 172.636 163.538 169.235 163.538Z" fill="#004A9B"/>
<path d="M192.545 163.538C195.86 163.538 198.547 160.859 198.547 157.554C198.547 154.248 195.86 151.569 192.545 151.569C189.23 151.569 186.543 154.248 186.543 157.554C186.543 160.859 189.23 163.538 192.545 163.538Z" fill="#004A9B"/>
<path d="M221.858 163.538H215.855C212.454 163.538 209.853 160.945 209.853 157.554C209.853 154.162 212.454 151.569 215.855 151.569H221.858V163.538Z" fill="#004A9B"/>
<path d="M233.513 151.569H221.508V163.538H233.513V151.569Z" fill="#004A9B"/>
<path d="M256.823 163.538H250.821C247.42 163.538 244.818 160.945 244.818 157.554V151.569H256.823V163.538Z" fill="#004A9B"/>
<path d="M268.478 163.538H256.474V151.569H262.476C265.877 151.569 268.478 154.162 268.478 157.554V163.538Z" fill="#004A9B"/>
<path d="M315.099 151.569H303.094V163.538H315.099V151.569Z" fill="#004A9B"/>
<path d="M35.375 163.189H23.3702V175.159H35.375V163.189Z" fill="#004A9B"/>
<path d="M58.6854 175.159H52.683C49.2816 175.159 46.6805 172.565 46.6805 169.174C46.6805 165.783 49.2816 163.189 52.683 163.189H58.6854V175.159Z" fill="#004A9B"/>
<path d="M70.3405 163.189H58.3357V175.159H70.3405V163.189Z" fill="#004A9B"/>
<path d="M81.9957 163.189H69.9908V175.159H81.9957V163.189Z" fill="#004A9B"/>
<path d="M93.6509 163.189H81.6461V175.159H93.6509V163.189Z" fill="#004A9B"/>
<path d="M99.3036 175.159H93.3012V163.189H99.3036C102.705 163.189 105.306 165.783 105.306 169.174C105.306 172.565 102.705 175.159 99.3036 175.159Z" fill="#004A9B"/>
<path d="M128.616 175.159H122.614C119.213 175.159 116.612 172.565 116.612 169.174C116.612 165.783 119.213 163.189 122.614 163.189H128.616V175.159Z" fill="#004A9B"/>
<path d="M140.272 163.189H128.267V175.159H140.272V163.189Z" fill="#004A9B"/>
<path d="M145.924 175.159H139.922V163.189H145.924C149.326 163.189 151.927 165.783 151.927 169.174C151.927 172.565 149.326 175.159 145.924 175.159Z" fill="#004A9B"/>
<path d="M233.513 163.189H221.508V175.159H233.513V163.189Z" fill="#004A9B"/>
<path d="M239.166 175.159H233.163V163.189H239.166C242.567 163.189 245.168 165.783 245.168 169.174C245.168 172.565 242.567 175.159 239.166 175.159Z" fill="#004A9B"/>
<path d="M262.476 175.159C259.075 175.159 256.474 172.565 256.474 169.174V163.189H268.478V169.174C268.478 172.565 265.877 175.159 262.476 175.159Z" fill="#004A9B"/>
<path d="M291.789 175.159H285.786C282.385 175.159 279.784 172.565 279.784 169.174C279.784 165.783 282.385 163.189 285.786 163.189H291.789V175.159Z" fill="#004A9B"/>
<path d="M303.444 163.189H291.439V175.159H303.444V163.189Z" fill="#004A9B"/>
<path d="M309.097 175.159H303.094V163.189H315.099V169.174C315.099 172.565 312.498 175.159 309.097 175.159Z" fill="#004A9B"/>
<path d="M35.375 174.81H23.3702V186.779H35.375V174.81Z" fill="#004A9B"/>
<path d="M41.0277 186.779H35.0253V174.81H41.0277C44.4291 174.81 47.0302 177.403 47.0302 180.795C47.0302 184.186 44.4291 186.779 41.0277 186.779Z" fill="#004A9B"/>
<path d="M87.6485 186.779C84.2471 186.779 81.6461 184.186 81.6461 180.795V174.81H93.6509V180.795C93.6509 184.186 91.0498 186.779 87.6485 186.779Z" fill="#004A9B"/>
<path d="M116.961 186.779H104.956V180.795C104.956 177.403 107.557 174.81 110.959 174.81C114.36 174.81 116.961 177.403 116.961 180.795V186.779Z" fill="#004A9B"/>
<path d="M175.237 186.779H169.235C165.833 186.779 163.232 184.186 163.232 180.795C163.232 177.403 165.833 174.81 169.235 174.81H175.237V186.779Z" fill="#004A9B"/>
<path d="M186.892 174.81H174.887V186.779H186.892V174.81Z" fill="#004A9B"/>
<path d="M198.547 186.779H186.543V174.81H192.545C195.946 174.81 198.547 177.403 198.547 180.795V186.779Z" fill="#004A9B"/>
<path d="M227.51 186.779C224.109 186.779 221.508 184.186 221.508 180.795V174.81H233.513V180.795C233.513 184.186 230.912 186.779 227.51 186.779Z" fill="#004A9B"/>
<path d="M256.823 186.779H244.818V180.795C244.818 177.403 247.42 174.81 250.821 174.81C254.222 174.81 256.823 177.403 256.823 180.795V186.779Z" fill="#004A9B"/>
<path d="M280.134 186.779H268.129V180.795C268.129 177.403 270.73 174.81 274.131 174.81C277.533 174.81 280.134 177.403 280.134 180.795V186.779Z" fill="#004A9B"/>
<path d="M303.444 174.81H291.439V186.779H303.444V174.81Z" fill="#004A9B"/>
<path d="M35.375 186.431H23.3702V198.4H35.375V186.431Z" fill="#004A9B"/>
<path d="M58.6854 198.4H46.6805V192.415C46.6805 189.024 49.2816 186.431 52.683 186.431H58.6854V198.4Z" fill="#004A9B"/>
<path d="M70.3405 186.431H58.3357V198.4H70.3405V186.431Z" fill="#004A9B"/>
<path d="M81.9957 198.4H69.9908V186.431H75.9933C79.3946 186.431 81.9957 189.024 81.9957 192.415V198.4Z" fill="#004A9B"/>
<path d="M105.306 198.4H99.3036C95.9023 198.4 93.3012 195.807 93.3012 192.415C93.3012 189.024 95.9023 186.431 99.3036 186.431H105.306V198.4Z" fill="#004A9B"/>
<path d="M110.959 198.4H104.956V186.431H116.961V192.415C116.961 195.807 114.36 198.4 110.959 198.4Z" fill="#004A9B"/>
<path d="M151.927 198.4H139.922V192.415C139.922 189.024 142.523 186.431 145.924 186.431C149.326 186.431 151.927 189.024 151.927 192.415V198.4Z" fill="#004A9B"/>
<path d="M186.892 186.431H174.887V198.4H186.892V186.431Z" fill="#004A9B"/>
<path d="M198.547 186.431H186.543V198.4H198.547V186.431Z" fill="#004A9B"/>
<path d="M210.203 198.4H198.198V186.431H204.2C207.602 186.431 210.203 189.024 210.203 192.415V198.4Z" fill="#004A9B"/>
<path d="M245.168 198.4H239.166C235.764 198.4 233.163 195.807 233.163 192.415C233.163 189.024 235.764 186.431 239.166 186.431H245.168V198.4Z" fill="#004A9B"/>
<path d="M256.823 186.431H244.818V198.4H256.823V186.431Z" fill="#004A9B"/>
<path d="M268.478 186.431H256.474V198.4H268.478V186.431Z" fill="#004A9B"/>
<path d="M274.131 198.4H268.129V186.431H280.134V192.415C280.134 195.807 277.533 198.4 274.131 198.4Z" fill="#004A9B"/>
<path d="M303.444 198.4H297.442C294.04 198.4 291.439 195.807 291.439 192.415V186.431H303.444V198.4Z" fill="#004A9B"/>
<path d="M315.099 198.4H303.094V186.431H309.097C312.498 186.431 315.099 189.024 315.099 192.415V198.4Z" fill="#004A9B"/>
<path d="M35.375 198.052H23.3702V210.021H35.375V198.052Z" fill="#004A9B"/>
<path d="M58.6854 210.021H52.683C49.2816 210.021 46.6805 207.428 46.6805 204.036V198.052H58.6854V210.021Z" fill="#004A9B"/>
<path d="M70.3405 198.052H58.3357V210.021H70.3405V198.052Z" fill="#004A9B"/>
<path d="M81.9957 198.052H69.9908V210.021H81.9957V198.052Z" fill="#004A9B"/>
<path d="M87.6485 210.021H81.6461V198.052H87.6485C91.0498 198.052 93.6509 200.645 93.6509 204.036C93.6509 207.428 91.0498 210.021 87.6485 210.021Z" fill="#004A9B"/>
<path d="M140.272 210.021H134.269C130.868 210.021 128.267 207.428 128.267 204.036C128.267 200.645 130.868 198.052 134.269 198.052H140.272V210.021Z" fill="#004A9B"/>
<path d="M151.927 198.052H139.922V210.021H151.927V198.052Z" fill="#004A9B"/>
<path d="M175.237 210.021H163.232V204.036C163.232 200.645 165.833 198.052 169.235 198.052H175.237V210.021Z" fill="#004A9B"/>
<path d="M180.89 210.021H174.887V198.052H186.892V204.036C186.892 207.428 184.291 210.021 180.89 210.021Z" fill="#004A9B"/>
<path d="M210.203 198.052H198.198V210.021H210.203V198.052Z" fill="#004A9B"/>
<path d="M233.513 210.021H221.508V204.036C221.508 200.645 224.109 198.052 227.51 198.052C230.912 198.052 233.513 200.645 233.513 204.036V210.021Z" fill="#004A9B"/>
<path d="M256.823 198.052H244.818V210.021H256.823V198.052Z" fill="#004A9B"/>
<path d="M268.478 198.052H256.474V210.021H268.478V198.052Z" fill="#004A9B"/>
<path d="M309.097 210.021C305.695 210.021 303.094 207.428 303.094 204.036V198.052H315.099V204.036C315.099 207.428 312.498 210.021 309.097 210.021Z" fill="#004A9B"/>
<path d="M29.3726 221.642C25.9712 221.642 23.3702 219.048 23.3702 215.657V209.672H35.375V215.657C35.375 219.048 32.774 221.642 29.3726 221.642Z" fill="#004A9B"/>
<path d="M75.9933 221.642C72.5919 221.642 69.9908 219.048 69.9908 215.657V209.672H81.9957V215.657C81.9957 219.048 79.3946 221.642 75.9933 221.642Z" fill="#004A9B"/>
<path d="M105.306 221.642H99.3036C95.9023 221.642 93.3012 219.048 93.3012 215.657C93.3012 212.266 95.9023 209.672 99.3036 209.672H105.306V221.642Z" fill="#004A9B"/>
<path d="M110.959 221.642H104.956V209.672H110.959C114.36 209.672 116.961 212.266 116.961 215.657C116.961 219.048 114.36 221.642 110.959 221.642Z" fill="#004A9B"/>
<path d="M145.924 221.642C142.523 221.642 139.922 219.048 139.922 215.657V209.672H151.927V215.657C151.927 219.048 149.326 221.642 145.924 221.642Z" fill="#004A9B"/>
<path d="M169.235 221.642C165.833 221.642 163.232 219.048 163.232 215.657V209.672H175.237V215.657C175.237 219.048 172.636 221.642 169.235 221.642Z" fill="#004A9B"/>
<path d="M198.547 221.642H192.545C189.144 221.642 186.543 219.048 186.543 215.657C186.543 212.266 189.144 209.672 192.545 209.672H198.547V221.642Z" fill="#004A9B"/>
<path d="M210.203 209.672H198.198V221.642H210.203V209.672Z" fill="#004A9B"/>
<path d="M221.858 209.672H209.853V221.642H221.858V209.672Z" fill="#004A9B"/>
<path d="M233.513 209.672H221.508V221.642H233.513V209.672Z" fill="#004A9B"/>
<path d="M245.168 209.672H233.163V221.642H245.168V209.672Z" fill="#004A9B"/>
<path d="M256.823 209.672H244.818V221.642H256.823V209.672Z" fill="#004A9B"/>
<path d="M268.478 209.672H256.474V221.642H268.478V209.672Z" fill="#004A9B"/>
<path d="M285.786 221.642C289.101 221.642 291.789 218.962 291.789 215.657C291.789 212.352 289.101 209.672 285.786 209.672C282.471 209.672 279.784 212.352 279.784 215.657C279.784 218.962 282.471 221.642 285.786 221.642Z" fill="#004A9B"/>
<path d="M122.614 233.262C125.929 233.262 128.616 230.583 128.616 227.278C128.616 223.972 125.929 221.293 122.614 221.293C119.299 221.293 116.612 223.972 116.612 227.278C116.612 230.583 119.299 233.262 122.614 233.262Z" fill="#004A9B"/>
<path d="M221.858 221.293H209.853V233.262H221.858V221.293Z" fill="#004A9B"/>
<path d="M268.478 221.293H256.474V233.262H268.478V221.293Z" fill="#004A9B"/>
<path d="M274.131 233.262H268.129V221.293H274.131C277.533 221.293 280.134 223.886 280.134 227.278C280.134 230.669 277.533 233.262 274.131 233.262Z" fill="#004A9B"/>
<path d="M140.272 244.883H128.267V238.898C128.267 235.507 130.868 232.914 134.269 232.914C137.671 232.914 140.272 235.507 140.272 238.898V244.883Z" fill="#004A9B"/>
<path d="M163.582 244.883H151.577V238.898C151.577 235.507 154.178 232.914 157.579 232.914H163.582V244.883Z" fill="#004A9B"/>
<path d="M169.235 244.883H163.232V232.914H169.235C172.636 232.914 175.237 235.507 175.237 238.898C175.237 242.29 172.636 244.883 169.235 244.883Z" fill="#004A9B"/>
<path d="M221.858 232.914H209.853V244.883H221.858V232.914Z" fill="#004A9B"/>
<path d="M239.166 244.883C242.481 244.883 245.168 242.203 245.168 238.898C245.168 235.593 242.481 232.914 239.166 232.914C235.851 232.914 233.163 235.593 233.163 238.898C233.163 242.203 235.851 244.883 239.166 244.883Z" fill="#004A9B"/>
<path d="M268.478 232.914H256.474V244.883H268.478V232.914Z" fill="#004A9B"/>
<path d="M291.789 244.883H285.786C282.385 244.883 279.784 242.29 279.784 238.898C279.784 235.507 282.385 232.914 285.786 232.914H291.789V244.883Z" fill="#004A9B"/>
<path d="M303.444 232.914H291.439V244.883H303.444V232.914Z" fill="#004A9B"/>
<path d="M309.097 244.883H303.094V232.914H309.097C312.498 232.914 315.099 235.507 315.099 238.898C315.099 242.29 312.498 244.883 309.097 244.883Z" fill="#004A9B"/>
<path d="M128.616 256.503H116.612V250.519C116.612 247.128 119.213 244.534 122.614 244.534H128.616V256.503Z" fill="#004A9B"/>
<path d="M140.272 244.534H128.267V256.503H140.272V244.534Z" fill="#004A9B"/>
<path d="M163.582 244.534H151.577V256.503H163.582V244.534Z" fill="#004A9B"/>
<path d="M192.545 256.503C195.86 256.503 198.547 253.824 198.547 250.519C198.547 247.214 195.86 244.534 192.545 244.534C189.23 244.534 186.543 247.214 186.543 250.519C186.543 253.824 189.23 256.503 192.545 256.503Z" fill="#004A9B"/>
<path d="M221.858 244.534H209.853V256.503H221.858V244.534Z" fill="#004A9B"/>
<path d="M268.478 244.534H256.474V256.503H268.478V244.534Z" fill="#004A9B"/>
<path d="M274.131 256.503H268.129V244.534H274.131C277.533 244.534 280.134 247.128 280.134 250.519C280.134 253.91 277.533 256.503 274.131 256.503Z" fill="#004A9B"/>
<path d="M128.616 256.155H116.612V268.124H128.616V256.155Z" fill="#004A9B"/>
<path d="M134.269 268.124H128.267V256.155H140.272V262.139C140.272 265.531 137.671 268.124 134.269 268.124Z" fill="#004A9B"/>
<path d="M157.579 268.124C154.178 268.124 151.577 265.531 151.577 262.139V256.155H163.582V262.139C163.582 265.531 160.981 268.124 157.579 268.124Z" fill="#004A9B"/>
<path d="M210.203 268.124H204.2C200.799 268.124 198.198 265.531 198.198 262.139C198.198 258.748 200.799 256.155 204.2 256.155H210.203V268.124Z" fill="#004A9B"/>
<path d="M221.858 256.155H209.853V268.124H221.858V256.155Z" fill="#004A9B"/>
<path d="M233.513 256.155H221.508V268.124H233.513V256.155Z" fill="#004A9B"/>
<path d="M245.168 256.155H233.163V268.124H245.168V256.155Z" fill="#004A9B"/>
<path d="M256.823 256.155H244.818V268.124H256.823V256.155Z" fill="#004A9B"/>
<path d="M268.478 256.155H256.474V268.124H268.478V256.155Z" fill="#004A9B"/>
<path d="M291.789 268.124H279.784V262.139C279.784 258.748 282.385 256.155 285.786 256.155C289.188 256.155 291.789 258.748 291.789 262.139V268.124Z" fill="#004A9B"/>
<path d="M315.099 268.124H303.094V262.139C303.094 258.748 305.695 256.155 309.097 256.155C312.498 256.155 315.099 258.748 315.099 262.139V268.124Z" fill="#004A9B"/>
<path d="M128.616 267.776H116.612V279.745H128.616V267.776Z" fill="#004A9B"/>
<path d="M151.927 279.745H139.922V273.761C139.922 270.369 142.523 267.776 145.924 267.776C149.326 267.776 151.927 270.369 151.927 273.761V279.745Z" fill="#004A9B"/>
<path d="M175.237 279.745H169.235C165.833 279.745 163.232 277.152 163.232 273.761C163.232 270.369 165.833 267.776 169.235 267.776H175.237V279.745Z" fill="#004A9B"/>
<path d="M186.892 267.776H174.887V279.745H186.892V267.776Z" fill="#004A9B"/>
<path d="M198.547 279.745H186.543V267.776H192.545C195.946 267.776 198.547 270.369 198.547 273.761V279.745Z" fill="#004A9B"/>
<path d="M233.513 279.745H227.51C224.109 279.745 221.508 277.152 221.508 273.761V267.776H233.513V279.745Z" fill="#004A9B"/>
<path d="M239.166 279.745H233.163V267.776H245.168V273.761C245.168 277.152 242.567 279.745 239.166 279.745Z" fill="#004A9B"/>
<path d="M268.478 279.745H262.476C259.075 279.745 256.474 277.152 256.474 273.761V267.776H268.478V279.745Z" fill="#004A9B"/>
<path d="M280.134 267.776H268.129V279.745H280.134V267.776Z" fill="#004A9B"/>
<path d="M291.789 267.776H279.784V279.745H291.789V267.776Z" fill="#004A9B"/>
<path d="M303.444 267.776H291.439V279.745H303.444V267.776Z" fill="#004A9B"/>
<path d="M315.099 267.776H303.094V279.745H315.099V267.776Z" fill="#004A9B"/>
<path d="M128.616 291.366H122.614C119.213 291.366 116.612 288.772 116.612 285.381V279.396H128.616V291.366Z" fill="#004A9B"/>
<path d="M140.272 279.396H128.267V291.366H140.272V279.396Z" fill="#004A9B"/>
<path d="M151.927 279.396H139.922V291.366H151.927V279.396Z" fill="#004A9B"/>
<path d="M186.892 279.396H174.887V291.366H186.892V279.396Z" fill="#004A9B"/>
<path d="M198.547 279.396H186.543V291.366H198.547V279.396Z" fill="#004A9B"/>
<path d="M210.203 279.396H198.198V291.366H210.203V279.396Z" fill="#004A9B"/>
<path d="M221.858 291.366H209.853V279.396H215.855C219.257 279.396 221.858 281.99 221.858 285.381V291.366Z" fill="#004A9B"/>
<path d="M280.134 279.396H268.129V291.366H280.134V279.396Z" fill="#004A9B"/>
<path d="M285.786 291.366H279.784V279.396H291.789V285.381C291.789 288.772 289.188 291.366 285.786 291.366Z" fill="#004A9B"/>
<path d="M315.099 279.396H303.094V291.366H315.099V279.396Z" fill="#004A9B"/>
<path d="M145.924 302.986C142.523 302.986 139.922 300.393 139.922 297.002V291.017H151.927V297.002C151.927 300.393 149.326 302.986 145.924 302.986Z" fill="#004A9B"/>
<path d="M175.237 302.986H163.232V297.002C163.232 293.61 165.833 291.017 169.235 291.017H175.237V302.986Z" fill="#004A9B"/>
<path d="M180.89 302.986H174.887V291.017H186.892V297.002C186.892 300.393 184.291 302.986 180.89 302.986Z" fill="#004A9B"/>
<path d="M210.203 302.986H204.2C200.799 302.986 198.198 300.393 198.198 297.002V291.017H210.203V302.986Z" fill="#004A9B"/>
<path d="M215.855 302.986H209.853V291.017H221.858V297.002C221.858 300.393 219.257 302.986 215.855 302.986Z" fill="#004A9B"/>
<path d="M256.823 302.986H244.818V297.002C244.818 293.61 247.42 291.017 250.821 291.017H256.823V302.986Z" fill="#004A9B"/>
<path d="M268.478 291.017H256.474V302.986H268.478V291.017Z" fill="#004A9B"/>
<path d="M280.134 291.017H268.129V302.986H280.134V291.017Z" fill="#004A9B"/>
<path d="M315.099 291.017H303.094V302.986H315.099V291.017Z" fill="#004A9B"/>
<path d="M122.614 314.607C125.929 314.607 128.616 311.928 128.616 308.622C128.616 305.317 125.929 302.638 122.614 302.638C119.299 302.638 116.612 305.317 116.612 308.622C116.612 311.928 119.299 314.607 122.614 314.607Z" fill="#004A9B"/>
<path d="M169.235 314.607C165.833 314.607 163.232 312.014 163.232 308.622V302.638H175.237V308.622C175.237 312.014 172.636 314.607 169.235 314.607Z" fill="#004A9B"/>
<path d="M192.545 314.607C195.86 314.607 198.547 311.928 198.547 308.622C198.547 305.317 195.86 302.638 192.545 302.638C189.23 302.638 186.543 305.317 186.543 308.622C186.543 311.928 189.23 314.607 192.545 314.607Z" fill="#004A9B"/>
<path d="M245.168 314.607H239.166C235.764 314.607 233.163 312.014 233.163 308.622C233.163 305.231 235.764 302.638 239.166 302.638H245.168V314.607Z" fill="#004A9B"/>
<path d="M256.823 302.638H244.818V314.607H256.823V302.638Z" fill="#004A9B"/>
<path d="M268.478 302.638H256.474V314.607H268.478V302.638Z" fill="#004A9B"/>
<path d="M280.134 302.638H268.129V314.607H280.134V302.638Z" fill="#004A9B"/>
<path d="M291.789 302.638H279.784V314.607H291.789V302.638Z" fill="#004A9B"/>
<path d="M303.444 302.638H291.439V314.607H303.444V302.638Z" fill="#004A9B"/>
<path d="M309.097 314.607H303.094V302.638H315.099V308.622C315.099 312.014 312.498 314.607 309.097 314.607Z" fill="#004A9B"/>
<path d="M49.5943 105.086H79.315C93.3012 105.086 104.956 93.4653 104.956 79.5205V49.8878C104.956 35.3619 93.3012 23.7412 78.7322 23.7412H49.0116C35.0254 23.7412 23.3702 35.3619 23.3702 49.3067V78.9395C23.3702 93.4653 35.0254 105.086 49.5943 105.086ZM93.3012 51.6309V77.1964C93.3012 85.9119 85.7253 93.4653 76.984 93.4653H51.3426C42.0185 93.4653 35.0254 86.4929 35.0254 77.1964V51.6309C35.0254 42.9153 42.6012 35.3619 51.3426 35.3619H76.984C86.3081 35.3619 93.3012 42.3343 93.3012 51.6309Z" fill="#004A9B"/>
<path d="M259.387 105.086H289.108C303.094 105.086 314.75 93.4653 314.75 79.5205V49.8878C314.75 35.3619 303.094 23.7412 288.525 23.7412H258.805C244.819 23.7412 233.163 35.3619 233.163 49.3067V78.9395C233.163 93.4653 244.819 105.086 259.387 105.086ZM303.094 51.6309V77.1964C303.094 85.9119 295.519 93.4653 286.777 93.4653H261.136C251.812 93.4653 244.819 86.4929 244.819 77.1964V51.6309C244.819 42.9153 252.394 35.3619 261.136 35.3619H286.777C296.101 35.3619 303.094 42.3343 303.094 51.6309Z" fill="#004A9B"/>
<path d="M49.5943 314.258H79.315C93.3012 314.258 104.956 302.638 104.956 288.693V259.06C104.956 244.534 93.3012 232.914 78.7322 232.914H49.0116C35.0254 232.914 23.3702 244.534 23.3702 258.479V288.112C23.3702 302.638 35.0254 314.258 49.5943 314.258ZM93.3012 260.803V286.369C93.3012 295.084 85.7253 302.638 76.984 302.638H51.3426C42.0185 302.638 35.0254 295.665 35.0254 286.369V260.803C35.0254 252.088 42.6012 244.534 51.3426 244.534H76.984C86.3081 244.534 93.3012 251.507 93.3012 260.803Z" fill="#004A9B"/>
<path d="M81.6461 56.86V72.5479C81.6461 77.1962 76.984 81.8445 71.7392 81.8445H56.5874C50.7599 81.8445 46.6805 77.7773 46.6805 71.9669V56.86C46.6805 51.6307 51.3426 46.9824 56.5874 46.9824H72.3219C77.5668 46.9824 81.6461 51.0497 81.6461 56.86Z" fill="#E30613"/>
<path d="M291.439 56.86V72.5479C291.439 77.1962 286.777 81.8445 281.532 81.8445H266.381C260.553 81.8445 256.474 77.7773 256.474 71.9669V56.86C256.474 51.6307 261.136 46.9824 266.381 46.9824H282.115C287.36 46.9824 291.439 51.0497 291.439 56.86Z" fill="#E30613"/>
<path d="M81.6461 266.032V281.72C81.6461 286.369 76.984 291.017 71.7392 291.017H56.5874C50.7599 291.017 46.6805 286.95 46.6805 281.139V266.032C46.6805 260.803 51.3426 256.155 56.5874 256.155H72.3219C77.5668 256.155 81.6461 260.222 81.6461 266.032Z" fill="#E30613"/>
</svg>
