<svg width="622" height="185" viewBox="0 0 622 185" fill="none" xmlns="http://www.w3.org/2000/svg">
<g clip-path="url(#clip0_102_822)">
<path d="M215.733 82.1211V65.7368H87.9556V89.277H94.6695V153.539H125.49V89.277H180.523V153.539H209.356V114.571" fill="white"/>
<path d="M215.733 82.1211V65.7368H87.9556V89.277H94.6695V153.539H125.49V89.277H180.523V153.539H209.356V114.571" stroke="#004A9B" stroke-width="4.1" stroke-miterlimit="10"/>
<path d="M143.201 77.5072C143.196 78.4624 142.908 79.3947 142.372 80.1864C141.837 80.9781 141.079 81.5937 140.194 81.9557C139.308 82.3176 138.336 82.4096 137.398 82.22C136.46 82.0304 135.6 81.5678 134.925 80.8905C134.251 80.2132 133.792 79.3515 133.607 78.4143C133.423 77.477 133.52 76.5061 133.888 75.624C134.255 74.742 134.875 73.9883 135.671 73.4582C136.467 72.928 137.402 72.645 138.359 72.645C138.997 72.6462 139.628 72.7729 140.217 73.018C140.806 73.2631 141.34 73.6217 141.79 74.0733C142.24 74.5249 142.596 75.0607 142.838 75.6499C143.08 76.2391 143.204 76.8703 143.201 77.5072Z" fill="#E30613"/>
<path d="M172.585 77.5072C172.581 78.4649 172.294 79.4002 171.758 80.1947C171.222 80.9892 170.463 81.6074 169.576 81.9711C168.688 82.3347 167.713 82.4276 166.773 82.238C165.833 82.0483 164.97 81.5847 164.294 80.9056C163.617 80.2265 163.158 79.3625 162.973 78.4226C162.788 77.4828 162.887 76.5094 163.256 75.6254C163.625 74.7414 164.248 73.9864 165.046 73.456C165.845 72.9255 166.783 72.6433 167.742 72.645C168.38 72.6462 169.012 72.773 169.6 73.018C170.189 73.2631 170.724 73.6217 171.173 74.0733C171.623 74.5249 171.979 75.0607 172.222 75.6499C172.464 76.2391 172.587 76.8703 172.585 77.5072Z" fill="#E30613"/>
<path d="M157.738 77.5072C157.734 78.4649 157.447 79.4002 156.911 80.1947C156.376 80.9892 155.616 81.6074 154.729 81.9711C153.842 82.3347 152.866 82.4276 151.926 82.238C150.986 82.0483 150.123 81.5847 149.447 80.9056C148.77 80.2265 148.311 79.3625 148.126 78.4226C147.941 77.4828 148.04 76.5094 148.409 75.6254C148.778 74.7414 149.401 73.9864 150.2 73.456C150.998 72.9255 151.936 72.6433 152.895 72.645C153.533 72.6462 154.165 72.773 154.753 73.018C155.342 73.2631 155.877 73.6217 156.326 74.0733C156.776 74.5249 157.132 75.0607 157.375 75.6499C157.617 76.2391 157.74 76.8703 157.738 77.5072Z" fill="#E30613"/>
<path d="M104.133 21.6675H98.6338V65.7368H104.133V21.6675Z" fill="#004A9B"/>
<path d="M89.7205 25.7416V28.6465H113.055V25.7416H89.7205Z" fill="#004A9B"/>
<path d="M89.7114 21.3134V24.2183H113.046V21.3134H89.7114Z" fill="#004A9B"/>
<path d="M166.119 11.8016L139.902 35.5544L138.501 34.2879L164.718 10.5352L166.119 11.8016Z" fill="#004A9B"/>
<path d="M166.713 35.28L140.505 11.5272L141.906 10.2607L168.124 34.0135L166.713 35.28Z" fill="#004A9B"/>
<path d="M166.119 34.5893L137.88 60.1753L136.479 58.9089L164.718 33.314L166.119 34.5893Z" fill="#004A9B"/>
<path d="M168.807 59.9536L140.505 34.3055L141.906 33.0391L170.208 58.6871L168.807 59.9536Z" fill="#004A9B"/>
<path d="M167.192 43.8086H139.432V45.6064H167.192V43.8086Z" fill="#004A9B"/>
<path d="M167.192 20.9502H139.432V22.748H167.192V20.9502Z" fill="#004A9B"/>
<path d="M166.119 0.633789H141.037V2.43163H166.119V0.633789Z" fill="#004A9B"/>
<path d="M138.829 65.1968L134.244 65.737V64.8868L140.186 0.633789H144.807L138.829 65.1968Z" fill="#004A9B"/>
<path d="M168.505 65.1968L173.091 65.737V64.8868L167.175 0.633789H162.554L168.505 65.1968Z" fill="#004A9B"/>
<path d="M134.439 89.2686L125.321 98.4172V107.212L143.201 89.2686H134.439Z" fill="#004A9B"/>
<path d="M171.166 89.2686L180.283 98.4172V107.212L162.394 89.2686H171.166Z" fill="#004A9B"/>
<path d="M226.013 82.2362V27.1938" stroke="#004A9B" stroke-width="3" stroke-miterlimit="10"/>
<path d="M227.485 42.17L227.467 22.0571L249.205 32.1091L227.485 42.17Z" fill="#E30613" stroke="#E30613" stroke-width="6.19" stroke-miterlimit="10"/>
<path d="M256.567 75.2932L250.172 84.4507H211.281L205.206 95.7071L219.822 146.658C220.372 148.583 221.535 150.276 223.136 151.481C224.736 152.686 226.687 153.337 228.691 153.336H550.153C551.429 153.335 552.691 153.071 553.859 152.559C555.026 152.046 556.075 151.298 556.938 150.36L567.005 139.44C568.125 138.222 568.746 136.629 568.746 134.976C568.746 133.323 568.125 131.73 567.005 130.513L565.231 128.6H433.081L398.704 75.0098L256.567 75.2932Z" fill="white" stroke="#004A9B" stroke-width="3" stroke-miterlimit="10"/>
<path d="M308.309 42.0727L322.89 11.1816H368.717V42.0727H282.278L257.844 73.5571L386.571 73.8582L378.739 42.0727H308.309Z" stroke="#004A9B" stroke-width="2" stroke-miterlimit="10"/>
<path d="M305.604 95.9551L205.206 96.1853H299.396L305.604 95.9551Z" fill="#004A9B" stroke="#004A9B" stroke-width="3" stroke-miterlimit="10"/>
<path d="M567.005 131.026L565.231 127.43H433.684L427.049 118.574H392.939L378.748 95.9902H325.116V102.96H305.604V96.1762H209.489C208.989 96.1758 208.495 96.2917 208.047 96.5147C207.598 96.7378 207.208 97.0618 206.907 97.4613C206.606 97.8607 206.402 98.3247 206.312 98.8164C206.221 99.3081 206.246 99.8141 206.385 100.294L219.822 147.162C220.372 149.086 221.536 150.778 223.136 151.982C224.737 153.186 226.687 153.835 228.691 153.831H550.153C551.428 153.833 552.69 153.57 553.858 153.059C555.026 152.548 556.075 151.801 556.938 150.864L567.005 139.944C568.122 138.727 568.742 137.136 568.742 135.485C568.742 133.834 568.122 132.243 567.005 131.026ZM220.726 111.321C219.918 111.451 219.089 111.322 218.358 110.953C217.628 110.583 217.033 109.992 216.659 109.264C216.286 108.536 216.153 107.709 216.28 106.901C216.407 106.093 216.786 105.346 217.365 104.767C217.943 104.188 218.69 103.807 219.499 103.678C220.308 103.549 221.137 103.679 221.867 104.05C222.596 104.421 223.19 105.013 223.562 105.742C223.934 106.47 224.065 107.298 223.937 108.106C223.808 108.91 223.428 109.654 222.852 110.231C222.276 110.808 221.532 111.189 220.726 111.321Z" fill="white" stroke="#004A9B" stroke-width="3" stroke-miterlimit="10"/>
<path d="M215.733 131.93L220.008 146.862C220.561 148.784 221.725 150.475 223.325 151.678C224.925 152.881 226.874 153.531 228.877 153.53H550.348C551.622 153.531 552.882 153.267 554.048 152.757C555.214 152.246 556.262 151.499 557.124 150.564L567.2 139.635C568.146 138.61 568.741 137.311 568.901 135.927C569.06 134.542 568.775 133.142 568.087 131.93H215.733Z" fill="#E30613" stroke="#004A9B" stroke-width="3" stroke-miterlimit="10"/>
<path d="M486.437 146.605C489.303 146.605 491.626 144.285 491.626 141.424C491.626 138.562 489.303 136.243 486.437 136.243C483.572 136.243 481.249 138.562 481.249 141.424C481.249 144.285 483.572 146.605 486.437 146.605Z" fill="#004A9B"/>
<path d="M510.18 146.605C513.046 146.605 515.369 144.285 515.369 141.424C515.369 138.562 513.046 136.243 510.18 136.243C507.315 136.243 504.992 138.562 504.992 141.424C504.992 144.285 507.315 146.605 510.18 146.605Z" fill="#004A9B"/>
<path d="M533.914 146.605C536.78 146.605 539.102 144.285 539.102 141.424C539.102 138.562 536.78 136.243 533.914 136.243C531.049 136.243 528.726 138.562 528.726 141.424C528.726 144.285 531.049 146.605 533.914 146.605Z" fill="#004A9B"/>
<path d="M332.008 22.5532H325.8C325.011 22.5532 324.372 23.1916 324.372 23.9791V30.9579C324.372 31.7454 325.011 32.3838 325.8 32.3838H332.008C332.797 32.3838 333.436 31.7454 333.436 30.9579V23.9791C333.436 23.1916 332.797 22.5532 332.008 22.5532Z" fill="#004A9B"/>
<path d="M346.464 22.7129H340.256C339.467 22.7129 338.828 23.3513 338.828 24.1388V31.1176C338.828 31.9051 339.467 32.5435 340.256 32.5435H346.464C347.253 32.5435 347.892 31.9051 347.892 31.1176V24.1388C347.892 23.3513 347.253 22.7129 346.464 22.7129Z" fill="#004A9B"/>
<path d="M360.93 22.8013H354.722C353.933 22.8013 353.294 23.4397 353.294 24.2271V31.206C353.294 31.9935 353.933 32.6318 354.722 32.6318H360.93C361.719 32.6318 362.358 31.9935 362.358 31.206V24.2271C362.358 23.4397 361.719 22.8013 360.93 22.8013Z" fill="#004A9B"/>
<path d="M381.241 53.8341L273.001 53.8429L277.09 50.1764L379.821 50.1587L381.241 53.8341Z" fill="#004A9B"/>
<path d="M427.103 118.052L519.555 118.025L522.065 122.223H534.082L540.867 114.863H559.218L565.302 127.422L433.888 127.457L427.103 118.052Z" fill="white" stroke="#004A9B" stroke-width="2" stroke-miterlimit="10"/>
<path d="M619.395 165.672V155.842C618.078 155.941 616.757 155.719 615.546 155.195C612.113 153.778 609.453 150.811 605.506 150.767C600.823 150.767 596.69 155.859 592.122 155.939C587.395 156.019 583.049 150.625 578.269 150.767C573.054 150.909 569.16 156.71 563.688 155.842C559.386 155.16 556.087 150.678 551.271 150.767C546.712 150.855 542.322 155.939 537.887 155.939C537.719 155.939 537.559 155.939 537.4 155.939C537.24 155.939 537.08 155.939 536.921 155.895C532.628 155.222 529.329 150.74 524.504 150.82C519.945 150.82 515.803 155.886 511.076 155.983C507.661 155.983 504.486 153.096 501.151 151.644L500.974 151.573C499.958 151.121 498.866 150.866 497.754 150.82H497.4C493.985 150.82 491.67 152.804 489.134 154.292V154.451C487.651 155.347 485.976 155.876 484.247 155.992C478.925 156.063 476.211 150.82 470.633 150.82C466.748 150.82 464.3 153.362 461.329 154.859C460.007 155.607 458.512 155.998 456.992 155.992C452.247 155.859 448.495 150.678 443.493 150.82C438.686 150.944 434.917 155.93 430.349 155.992C425.302 156.054 421.631 150.82 416.726 150.82C411.538 150.82 408.052 155.992 403.218 155.992C398.181 155.992 394.704 150.882 389.835 150.82C384.966 150.758 381.241 155.921 376.336 155.992C371.609 156.054 367.334 150.731 362.473 150.82C357.79 150.909 353.604 155.992 349.17 155.992C344.54 155.992 340.221 150.793 335.547 150.82C330.589 150.82 326.757 156.417 321.356 155.895C317.409 155.514 314.261 151.892 310.482 151.006C304.354 149.58 300.425 155.992 295.068 155.992C290.367 155.992 286.5 150.855 281.684 150.82C276.868 150.785 272.904 155.992 268.061 155.992C263.219 155.992 259.299 150.758 254.438 150.82C249.578 150.882 245.791 155.992 241.055 155.992C236.319 155.992 232.407 150.882 227.671 150.82C222.935 150.758 218.802 155.992 214.048 155.992C209.516 155.992 205.073 150.82 200.549 150.82C196.026 150.82 191.547 155.992 187.042 155.992C182.811 155.992 179.343 151.918 175.21 151.006C173.735 150.679 172.197 150.778 170.776 151.289C167.556 152.396 164.674 155.381 161.099 155.895C155.654 156.683 151.512 150.723 146.279 150.82C140.408 150.935 136.523 158.109 129.552 155.248C126.111 153.831 123.45 150.864 119.512 150.82C114.829 150.82 110.696 155.912 106.128 155.992C101.401 156.072 97.0553 150.678 92.266 150.82C87.0509 150.962 83.1662 156.763 77.6851 155.895C73.3924 155.213 70.0842 150.731 65.2683 150.82C60.7095 150.909 56.3282 155.992 51.8847 155.992C47.4413 155.992 43.1752 150.882 38.5012 150.82C33.8271 150.758 29.7562 155.921 25.0023 155.992C19.6808 156.063 16.958 150.82 11.3793 150.82C7.95584 150.82 5.64986 152.804 3.11328 154.292V165.716L619.395 165.672Z" fill="white"/>
<path d="M621.665 152.388C618.011 151.307 615.022 147.96 611.084 147.65C610.447 147.592 609.806 147.592 609.169 147.65C605.071 148.146 601.275 152.822 596.752 152.724C590.889 152.609 587.448 145.985 580.858 148.031C576.504 149.386 573.027 154.044 567.36 152.352C563.971 151.343 560.867 148.066 557.435 147.65C556.759 147.588 556.079 147.588 555.404 147.65C551.014 148.057 547.422 152.76 542.739 152.724C537.719 152.724 534.677 147.986 529.949 147.65C524.078 147.233 521.151 152.76 515.759 152.724C513.187 152.724 511.165 151.458 509.187 150.289C506.916 148.943 504.442 147.074 500.708 147.747C496.273 148.544 493.613 152.822 488.752 152.724C482.961 152.609 480.327 146.985 474.18 147.65C472.123 147.88 470.375 149.076 468.797 150.006C468.052 150.439 467.289 150.935 466.473 151.387C465.329 151.968 464.112 152.391 462.854 152.645C462.59 152.685 462.323 152.712 462.056 152.724H461.728C461.32 152.724 460.939 152.645 460.646 152.654C455.972 152.007 452.362 147.287 447.475 147.65C443.582 147.951 440.717 151.263 437.196 152.352C431.812 154.017 428.327 149.802 424.052 148.217C417.533 145.79 413.542 152.556 407.919 152.724C402.855 152.884 399.733 148.022 394.899 147.65C390.065 147.278 386.837 151.538 382.482 152.538C376.629 153.885 373.338 148.438 368.38 147.747C367.469 147.614 366.542 147.614 365.631 147.747C361.879 148.394 358.819 151.812 355.236 152.538C349.666 153.672 346.731 149.155 342.447 147.933C335.892 146.073 332.088 152.76 326.553 152.724C321.409 152.724 317.924 147.154 312.212 147.65C308.026 148.022 304.017 152.645 299.795 152.724C294.323 152.831 291.219 147.189 285.338 147.65C280.992 147.995 277.099 152.645 272.789 152.724C267.857 152.822 264.168 147.969 259.769 147.65C258.238 147.55 256.708 147.855 255.334 148.535C252.035 150.023 249.126 152.778 245.534 152.76C240.345 152.76 237.019 147.198 231.201 147.685C227.21 148.022 223.99 151.724 220.319 152.574C214.784 153.858 211.308 148.828 206.704 147.88C199.609 146.41 196.807 154.026 189.853 152.574C185.8 151.733 182.58 147.942 178.616 147.685C177.406 147.618 176.196 147.811 175.068 148.252C171.476 149.598 168.381 152.769 164.558 152.76C159.813 152.76 156.47 148.066 151.769 147.685C151.132 147.628 150.491 147.628 149.853 147.685C145.756 148.181 141.96 152.857 137.436 152.76C131.574 152.645 128.133 146.02 121.543 148.066C117.188 149.421 113.711 154.079 108.044 152.388C104.656 151.378 101.552 148.101 98.1284 147.685C97.4498 147.623 96.767 147.623 96.0885 147.685C91.6539 148.093 88.1062 152.795 83.4233 152.76C78.4123 152.76 75.3613 148.022 70.6429 147.685C64.7626 147.269 61.8447 152.795 56.4523 152.76C53.8802 152.76 51.8669 151.493 49.8802 150.324C47.6186 148.978 45.1352 147.109 41.4013 147.783C36.9667 148.58 34.306 152.857 29.4457 152.76C23.663 152.645 21.02 147.021 14.8737 147.685C12.816 147.915 11.0688 149.111 9.49011 150.041C7.58324 151.166 5.56108 152.698 2.6786 152.76C1.89812 152.76 1.16198 152.521 0.904775 152.857C0.95799 155.514 0.842691 154.345 0.904775 156.869C0.904775 157.188 0.691916 157.711 1.14424 157.905C7.43247 158.924 10.0134 152.919 15.9646 152.919C21.5433 152.919 24.2838 158.162 29.5876 158.091C34.3415 158.029 38.4567 152.866 43.0864 152.919C47.7161 152.972 51.8935 158.091 56.47 158.091C61.0465 158.091 65.3391 153.008 69.8535 152.919C74.6872 152.831 77.9865 157.347 82.2703 157.994C87.7426 158.88 91.6273 153.07 96.8423 152.919C101.632 152.795 105.978 158.171 110.705 158.091C115.272 158.012 119.405 152.884 124.088 152.919C128.035 152.964 130.687 155.922 134.128 157.347C141.091 160.217 144.984 153.043 150.855 152.919C156.088 152.822 160.23 158.782 165.676 157.994C169.223 157.48 172.133 154.496 175.352 153.397C176.772 152.878 178.312 152.78 179.787 153.114C183.911 154 187.379 158.091 191.609 158.091C196.115 158.091 200.478 152.919 205.117 152.919C209.755 152.919 214.092 158.091 218.616 158.091C223.396 158.091 227.538 152.866 232.239 152.919C236.939 152.972 240.904 158.091 245.622 158.091C250.341 158.091 254.154 152.946 258.917 152.857C263.68 152.769 267.786 158.029 272.54 158.029C277.294 158.029 281.321 152.857 286.145 152.857C290.97 152.857 294.837 158.029 299.529 158.029C304.85 158.029 308.815 151.626 314.944 153.052C318.74 153.938 321.87 157.56 325.817 157.932C331.245 158.455 335.077 152.893 340.008 152.857C344.682 152.857 348.992 158.029 353.622 158.029C358.056 158.029 362.207 152.955 366.926 152.857C371.795 152.769 376.061 158.091 380.788 158.029C385.693 157.967 389.338 152.804 394.287 152.857C399.236 152.91 402.642 158.029 407.671 158.029C412.504 158.029 415.999 152.857 421.178 152.857C426.092 152.857 429.755 158.1 434.801 158.029C439.369 157.967 443.138 152.981 447.945 152.857C452.948 152.742 456.699 157.905 461.444 158.029C462.288 158.045 463.13 157.925 463.936 157.675C467.927 156.612 470.535 152.857 475.245 152.857C480.823 152.857 483.555 158.1 488.868 158.029C493.621 157.967 497.781 152.804 502.366 152.857C506.952 152.91 511.173 158.029 515.75 158.029C520.185 158.029 524.575 152.946 529.133 152.857C533.958 152.769 537.266 157.285 541.55 157.932C547.031 158.818 550.916 153.008 556.131 152.857C560.921 152.733 565.266 158.109 569.994 158.029C574.561 157.95 578.694 152.822 583.377 152.857C587.315 152.902 589.976 155.86 593.417 157.285C600.37 160.155 604.273 152.981 610.144 152.857C614.295 152.778 617.763 156.506 621.736 157.657C621.515 155.909 621.491 154.141 621.665 152.388Z" fill="#004A9B"/>
<path d="M545.391 179.294H545.222C540.202 179.294 537.151 174.555 532.433 174.219C526.553 173.803 523.635 179.329 518.242 179.294C515.661 179.294 513.648 178.027 511.67 176.849C509.4 175.503 506.916 173.643 503.182 174.316C498.748 175.104 496.087 179.391 491.236 179.294C485.444 179.178 482.801 173.555 476.655 174.219C474.606 174.44 472.85 175.636 471.28 176.566C470.535 177.009 469.772 177.505 468.948 177.947C467.807 178.53 466.593 178.956 465.338 179.214C465.07 179.251 464.801 179.275 464.531 179.285H464.211C463.795 179.285 463.413 179.196 463.12 179.214C458.446 178.567 454.846 173.838 449.95 174.21C446.065 174.502 443.191 177.823 439.679 178.913C434.287 180.569 430.81 176.353 426.535 174.777C420.016 172.35 416.016 179.116 410.402 179.285C405.329 179.435 402.207 174.582 397.373 174.21C392.54 173.838 389.311 178.089 384.957 179.099C379.112 180.445 375.813 174.998 370.855 174.307C369.943 174.17 369.017 174.17 368.105 174.307C364.354 174.945 361.294 178.372 357.711 179.099C352.141 180.223 349.214 175.716 344.921 174.493C338.367 172.625 334.571 179.32 329.037 179.285C323.893 179.285 320.407 173.714 314.695 174.21C310.5 174.573 306.5 179.205 302.279 179.285C296.797 179.391 293.702 173.741 287.813 174.21C283.476 174.555 279.573 179.205 275.272 179.285C270.332 179.382 266.642 174.529 262.243 174.21C260.712 174.104 259.181 174.41 257.809 175.096C254.5 176.575 251.6 179.338 248.008 179.32C242.811 179.32 239.485 173.758 233.667 174.245C229.684 174.582 226.465 178.284 222.793 179.134C217.25 180.418 213.782 175.379 209.17 174.431C202.075 172.97 199.281 180.631 192.319 179.134C188.266 178.248 185.046 174.502 181.09 174.245C179.881 174.173 178.67 174.367 177.543 174.812C173.995 176.15 170.847 179.329 167.024 179.32C162.279 179.32 158.935 174.617 154.235 174.245C153.6 174.188 152.962 174.188 152.328 174.245C148.23 174.733 144.434 179.409 139.911 179.32C134.04 179.205 130.598 172.58 124.017 174.626C119.654 175.972 116.177 180.64 110.51 178.948C107.122 177.93 104.026 174.653 100.594 174.245C99.9185 174.183 99.2386 174.183 98.563 174.245C94.1284 174.653 90.5808 179.347 85.8979 179.32C80.8779 179.32 77.827 174.582 73.1086 174.245C67.2283 173.829 64.3104 179.356 58.9179 179.32C58.4476 179.314 57.9786 179.267 57.5166 179.178C57.8904 180.742 58.1161 182.337 58.1907 183.943C58.1907 184.165 58.1907 184.377 58.1907 184.599C58.429 184.629 58.6688 184.647 58.9091 184.652C63.3436 184.652 67.7339 179.568 72.2926 179.48C77.1174 179.391 80.4256 183.908 84.7094 184.554C90.1905 185.44 94.0752 179.621 99.2903 179.48C104.071 179.347 108.426 184.731 113.153 184.652C117.72 184.572 121.845 179.435 126.536 179.48C130.474 179.48 133.135 182.482 136.567 183.908C143.53 186.777 147.423 179.604 153.303 179.48C158.536 179.382 162.678 185.342 168.115 184.554C171.663 184.041 174.58 181.056 177.8 179.949C179.222 179.437 180.759 179.339 182.235 179.665C186.359 180.551 189.827 184.652 194.066 184.652C198.572 184.652 202.935 179.48 207.565 179.48C212.195 179.48 216.54 184.652 221.073 184.652C225.844 184.652 229.995 179.426 234.696 179.48C239.396 179.533 243.352 184.652 248.079 184.652C252.806 184.652 256.709 179.542 261.463 179.48C266.217 179.418 270.332 184.652 275.086 184.652C279.84 184.652 283.751 179.426 288.593 179.426C293.436 179.426 297.276 184.599 301.977 184.599C307.298 184.599 311.263 178.186 317.392 179.612C321.188 180.498 324.309 184.12 328.265 184.501C333.693 185.024 337.524 179.462 342.456 179.426C347.13 179.426 351.449 184.599 356.079 184.599C360.513 184.599 364.664 179.515 369.338 179.426C374.207 179.338 378.473 184.66 383.201 184.599C388.105 184.528 391.75 179.364 396.708 179.426C401.666 179.488 405.054 184.599 410.092 184.599C414.917 184.599 418.411 179.426 423.591 179.426C428.504 179.426 432.167 184.66 437.214 184.599C441.79 184.537 445.56 179.542 450.358 179.426C455.369 179.302 459.112 184.466 463.866 184.599C464.707 184.611 465.546 184.488 466.349 184.235C470.34 183.173 472.948 179.426 477.657 179.426C483.307 179.426 485.967 184.74 491.289 184.634C496.043 184.563 500.202 179.409 504.797 179.462C509.391 179.515 513.595 184.634 518.18 184.634C522.615 184.634 527.005 179.55 531.564 179.462C536.388 179.373 539.688 183.89 543.98 184.537C544.5 184.614 545.026 184.635 545.55 184.599C545.284 182.843 545.231 181.062 545.391 179.294Z" fill="#004A9B"/>
<path d="M251.121 110.48L249.09 121.16C249.063 121.298 248.987 121.421 248.876 121.507C248.765 121.593 248.627 121.637 248.487 121.63H246.784C246.641 121.64 246.498 121.596 246.386 121.505C246.274 121.415 246.201 121.285 246.181 121.143L244.647 112.951C244.54 112.393 244.469 111.967 244.434 111.693H244.106L243.875 112.951L242.359 121.143C242.334 121.281 242.258 121.404 242.146 121.488C242.035 121.577 241.898 121.627 241.755 121.63H240.035C239.896 121.64 239.758 121.598 239.649 121.51C239.541 121.423 239.469 121.298 239.449 121.16L237.418 110.48H239.05L240.567 118.973C240.567 119.159 240.665 119.637 240.753 120.399H241.108C241.161 119.938 241.241 119.46 241.339 118.973L242.864 111.002C242.873 110.855 242.94 110.717 243.049 110.618C243.158 110.519 243.302 110.466 243.449 110.471H245.09C245.232 110.471 245.368 110.525 245.472 110.621C245.578 110.724 245.65 110.857 245.676 111.002L247.183 118.973C247.263 119.407 247.343 119.859 247.414 120.381H247.769C247.769 120.23 247.822 120 247.857 119.69C247.893 119.38 247.937 119.141 247.964 118.991L249.489 110.462L251.121 110.48Z" fill="#004A9B" stroke="#004A9B" stroke-width="0.78" stroke-miterlimit="10"/>
<path d="M265.746 110.48L263.715 121.16C263.69 121.297 263.615 121.42 263.506 121.506C263.397 121.593 263.26 121.636 263.121 121.63H261.409C261.267 121.64 261.125 121.595 261.015 121.505C260.904 121.414 260.833 121.284 260.815 121.143L259.272 112.951C259.174 112.393 259.094 111.967 259.059 111.693H258.731L258.5 112.951L256.984 121.143C256.973 121.212 256.949 121.278 256.913 121.337C256.876 121.397 256.828 121.448 256.771 121.488C256.66 121.577 256.523 121.627 256.38 121.63H254.66C254.521 121.64 254.383 121.598 254.274 121.51C254.166 121.423 254.094 121.298 254.074 121.16L252.043 110.48H253.675L255.201 118.973C255.201 119.159 255.29 119.637 255.378 120.399H255.733C255.786 119.938 255.866 119.46 255.964 118.973L257.489 111.002C257.498 110.855 257.565 110.717 257.674 110.618C257.783 110.519 257.927 110.466 258.074 110.471H259.715C259.857 110.469 259.994 110.523 260.097 110.621C260.203 110.724 260.275 110.857 260.301 111.002L261.808 118.973C261.888 119.407 261.968 119.859 262.039 120.381H262.394C262.394 120.23 262.447 120 262.491 119.69C262.514 119.455 262.549 119.222 262.598 118.991L264.114 110.462L265.746 110.48Z" fill="#004A9B" stroke="#004A9B" stroke-width="0.78" stroke-miterlimit="10"/>
<path d="M280.372 110.48L278.341 121.16C278.315 121.297 278.241 121.42 278.131 121.506C278.022 121.593 277.885 121.636 277.746 121.63H276.035C275.892 121.64 275.751 121.595 275.64 121.505C275.53 121.414 275.458 121.284 275.44 121.143L273.897 112.951C273.8 112.393 273.729 111.967 273.684 111.693H273.365L273.134 112.951L271.609 121.143C271.6 121.212 271.577 121.279 271.54 121.339C271.503 121.398 271.454 121.449 271.396 121.488C271.285 121.577 271.148 121.627 271.006 121.63H269.285C269.146 121.64 269.008 121.598 268.9 121.51C268.791 121.423 268.72 121.298 268.7 121.16L266.669 110.48H268.301L269.826 118.973C269.826 119.159 269.915 119.637 270.012 120.399H270.358C270.411 119.938 270.491 119.46 270.589 118.973L272.114 111.002C272.124 110.855 272.19 110.717 272.299 110.618C272.408 110.519 272.552 110.466 272.7 110.471H274.349C274.488 110.471 274.622 110.525 274.722 110.621C274.828 110.724 274.9 110.857 274.926 111.002L276.434 118.973C276.522 119.407 276.593 119.859 276.664 120.381H277.019C277.019 120.23 277.072 120 277.117 119.69C277.139 119.455 277.175 119.222 277.223 118.991L278.748 110.462L280.372 110.48Z" fill="#004A9B" stroke="#004A9B" stroke-width="0.78" stroke-miterlimit="10"/>
<path d="M281.977 119.619H282.456C282.533 119.601 282.614 119.604 282.69 119.626C282.767 119.649 282.836 119.69 282.891 119.748C282.947 119.805 282.986 119.875 283.006 119.952C283.026 120.029 283.026 120.109 283.006 120.186V121.072C283.022 121.231 282.982 121.391 282.89 121.523C282.769 121.623 282.613 121.671 282.456 121.656H281.977C281.901 121.665 281.823 121.657 281.75 121.634C281.677 121.611 281.609 121.574 281.551 121.523C281.453 121.394 281.409 121.233 281.427 121.072V120.186C281.407 120.109 281.406 120.029 281.427 119.952C281.447 119.875 281.486 119.805 281.542 119.748C281.597 119.69 281.666 119.649 281.742 119.626C281.819 119.604 281.899 119.601 281.977 119.619Z" fill="#004A9B" stroke="#004A9B" stroke-width="0.78" stroke-miterlimit="10"/>
<path d="M293.773 110.48H295.449C295.848 110.48 296.061 110.701 296.079 111.144L296.513 121.63H294.97L294.598 111.817H294.296L292.141 119.788C292.119 119.946 292.039 120.09 291.915 120.191C291.792 120.293 291.635 120.345 291.476 120.337H290.137C289.976 120.345 289.818 120.293 289.693 120.192C289.569 120.09 289.487 119.946 289.463 119.788L287.298 111.817H287.006L286.651 121.63H285.125L285.525 111.144C285.525 110.701 285.755 110.48 286.154 110.48H287.866C288.021 110.481 288.171 110.537 288.289 110.637C288.407 110.738 288.487 110.876 288.514 111.029L290.287 117.556C290.385 117.945 290.509 118.441 290.633 119.061H290.917C291.041 118.486 291.157 117.981 291.281 117.538L293.055 111.029C293.083 110.863 293.173 110.715 293.306 110.613C293.439 110.512 293.606 110.464 293.773 110.48Z" fill="#004A9B" stroke="#004A9B" stroke-width="0.78" stroke-miterlimit="10"/>
<path d="M311.751 110.48L309.72 121.16C309.692 121.298 309.616 121.421 309.505 121.507C309.395 121.593 309.257 121.637 309.117 121.63H307.414C307.27 121.64 307.128 121.596 307.016 121.505C306.904 121.415 306.83 121.285 306.811 121.143L305.276 112.951C305.17 112.393 305.099 111.967 305.063 111.693H304.735L304.505 112.951L302.988 121.143C302.964 121.281 302.888 121.404 302.775 121.488C302.664 121.577 302.527 121.627 302.385 121.63H300.664C300.525 121.64 300.388 121.598 300.279 121.51C300.17 121.423 300.099 121.298 300.079 121.16L298.048 110.48H299.715L301.232 118.973C301.232 119.159 301.329 119.637 301.418 120.399H301.773C301.826 119.938 301.906 119.46 302.003 118.973L303.529 111.002C303.538 110.855 303.604 110.717 303.714 110.618C303.823 110.519 303.967 110.466 304.114 110.471H305.755C305.897 110.471 306.033 110.525 306.137 110.621C306.243 110.724 306.314 110.857 306.341 111.002L307.848 118.973C307.928 119.407 308.008 119.859 308.079 120.381H308.434C308.434 120.23 308.487 120 308.522 119.69C308.558 119.38 308.602 119.141 308.629 118.991L310.154 110.462L311.751 110.48Z" fill="#004A9B" stroke="#004A9B" stroke-width="0.78" stroke-miterlimit="10"/>
<path d="M317.285 117.024L315.139 116.395C314.477 116.249 313.897 115.856 313.516 115.297C313.158 114.667 312.988 113.948 313.028 113.225C313.011 112.704 313.076 112.184 313.223 111.684C313.332 111.319 313.568 111.005 313.888 110.798C314.211 110.59 314.573 110.452 314.952 110.391C315.472 110.319 315.997 110.286 316.522 110.293C317.596 110.275 318.669 110.388 319.715 110.63L319.626 111.817C318.136 111.755 317.125 111.728 316.584 111.728C316.036 111.681 315.485 111.769 314.979 111.985C314.713 112.156 314.58 112.59 314.58 113.287C314.544 113.694 314.643 114.102 314.864 114.447C315.138 114.714 315.483 114.898 315.857 114.978L317.968 115.589C318.639 115.74 319.232 116.131 319.635 116.688C319.985 117.32 320.151 118.038 320.114 118.76C320.174 119.203 320.133 119.653 319.995 120.078C319.857 120.502 319.625 120.89 319.316 121.213C318.464 121.7 317.482 121.913 316.505 121.824C315.385 121.825 314.269 121.719 313.17 121.506L313.276 120.31C314.873 120.363 315.937 120.39 316.531 120.39C317.089 120.437 317.648 120.327 318.145 120.071C318.306 119.892 318.426 119.681 318.496 119.452C318.567 119.222 318.586 118.98 318.553 118.742C318.592 118.326 318.493 117.909 318.27 117.556C318.004 117.282 317.66 117.096 317.285 117.024Z" fill="#004A9B" stroke="#004A9B" stroke-width="0.78" stroke-miterlimit="10"/>
<path d="M329.87 110.479V121.63H328.327V116.378H323.662V121.63H322.127V110.479H323.662V114.987H328.309V110.479H329.87Z" fill="#004A9B" stroke="#004A9B" stroke-width="0.78" stroke-miterlimit="10"/>
<path d="M334.003 121.63H332.469V110.479H334.003V121.63Z" fill="#004A9B" stroke="#004A9B" stroke-width="0.78" stroke-miterlimit="10"/>
<path d="M336.593 121.629V110.479C337.82 110.368 339.051 110.321 340.283 110.338C341.253 110.233 342.228 110.495 343.015 111.073C343.604 111.873 343.87 112.866 343.76 113.854C343.871 114.843 343.615 115.838 343.041 116.652C342.314 117.226 341.391 117.493 340.469 117.396C339.686 117.394 338.904 117.344 338.128 117.246V121.629H336.593ZM338.128 116.006H340.247C340.801 116.06 341.354 115.899 341.791 115.554C342.126 115.054 342.274 114.452 342.207 113.854C342.276 113.258 342.128 112.658 341.791 112.162C341.355 111.817 340.8 111.658 340.247 111.719H338.128V116.006Z" fill="#004A9B" stroke="#004A9B" stroke-width="0.78" stroke-miterlimit="10"/>
<path d="M344.77 119.619H345.249C345.327 119.601 345.408 119.604 345.484 119.626C345.56 119.649 345.629 119.69 345.685 119.748C345.74 119.805 345.78 119.875 345.8 119.952C345.82 120.029 345.82 120.109 345.799 120.186V121.072C345.818 121.233 345.773 121.394 345.675 121.523C345.617 121.574 345.549 121.611 345.476 121.634C345.403 121.657 345.326 121.665 345.249 121.656H344.77C344.694 121.665 344.617 121.657 344.544 121.634C344.47 121.611 344.403 121.574 344.345 121.523C344.247 121.394 344.202 121.233 344.221 121.072V120.186C344.2 120.109 344.2 120.029 344.22 119.952C344.24 119.875 344.28 119.805 344.335 119.748C344.39 119.69 344.46 119.649 344.536 119.626C344.612 119.604 344.693 119.601 344.77 119.619Z" fill="#004A9B" stroke="#004A9B" stroke-width="0.78" stroke-miterlimit="10"/>
<path d="M354.89 120.204L355.05 121.435C354.021 121.713 352.958 121.841 351.892 121.816C351.284 121.882 350.669 121.798 350.1 121.573C349.531 121.348 349.026 120.987 348.629 120.523C348.037 119.661 347.742 118.17 347.742 116.05C347.742 113.934 348.052 112.437 348.629 111.578C349.028 111.115 349.533 110.756 350.101 110.531C350.67 110.306 351.284 110.221 351.892 110.285C352.881 110.27 353.867 110.38 354.828 110.612L354.677 111.852C353.752 111.759 352.822 111.714 351.892 111.719C351.502 111.678 351.107 111.743 350.751 111.909C350.395 112.074 350.09 112.333 349.87 112.658C349.128 114.859 349.128 117.242 349.87 119.442C350.089 119.769 350.393 120.029 350.75 120.194C351.106 120.36 351.502 120.425 351.892 120.381C352.895 120.399 353.897 120.34 354.89 120.204Z" fill="#004A9B" stroke="#004A9B" stroke-width="0.78" stroke-miterlimit="10"/>
<path d="M360.549 110.267C362.127 110.267 363.209 110.692 363.857 111.533C364.504 112.375 364.797 113.88 364.797 116.05C364.797 118.22 364.487 119.734 363.857 120.576C363.227 121.417 362.127 121.833 360.549 121.833C358.97 121.833 357.888 121.417 357.258 120.576C356.628 119.734 356.327 118.229 356.327 116.05C356.327 113.872 356.637 112.366 357.258 111.533C357.666 111.076 358.178 110.723 358.75 110.503C359.322 110.283 359.939 110.202 360.549 110.267ZM362.615 112.641C362.381 112.322 362.066 112.072 361.703 111.917C361.339 111.761 360.941 111.705 360.549 111.755C360.159 111.706 359.763 111.762 359.403 111.918C359.042 112.073 358.73 112.323 358.5 112.641C357.755 114.853 357.755 117.248 358.5 119.46C358.723 119.789 359.032 120.05 359.393 120.215C359.754 120.381 360.154 120.444 360.549 120.399C360.946 120.444 361.348 120.38 361.712 120.215C362.076 120.049 362.388 119.789 362.615 119.46C363.372 117.25 363.372 114.851 362.615 112.641Z" fill="#004A9B" stroke="#004A9B" stroke-width="0.78" stroke-miterlimit="10"/>
<path d="M375.44 110.479H377.116C377.516 110.479 377.728 110.701 377.746 111.144L378.181 121.629H376.637L376.274 111.817H375.99L373.835 119.787C373.815 119.945 373.736 120.089 373.615 120.19C373.493 120.292 373.337 120.344 373.179 120.336H371.839C371.678 120.347 371.519 120.296 371.394 120.194C371.269 120.092 371.187 119.947 371.165 119.787L368.992 111.817H368.7L368.345 121.629H366.819L367.227 111.144C367.227 110.701 367.458 110.479 367.857 110.479H369.56C369.715 110.481 369.865 110.537 369.983 110.637C370.101 110.737 370.18 110.876 370.207 111.028L371.981 117.556C372.079 117.945 372.203 118.441 372.336 119.061H372.611C372.735 118.485 372.859 117.981 372.983 117.538L374.757 111.028C374.787 110.871 374.872 110.729 374.997 110.628C375.122 110.527 375.279 110.474 375.44 110.479Z" fill="#004A9B" stroke="#004A9B" stroke-width="0.78" stroke-miterlimit="10"/>
</g>
<defs>
<clipPath id="clip0_102_822">
<rect width="621" height="184" fill="white" transform="translate(0.745117 0.633789)"/>
</clipPath>
</defs>
</svg>
