<svg width="572" height="311" viewBox="0 0 572 311" fill="none" xmlns="http://www.w3.org/2000/svg">
<g clip-path="url(#clip0_102_954)">
<path d="M361.723 86.4255C361.723 89.5057 361.55 92.5835 361.203 95.6441L334.954 99.8152C333.838 99.9942 332.792 100.477 331.932 101.209C331.072 101.942 330.431 102.897 330.078 103.97C329.271 106.386 328.282 108.738 327.12 111.006C326.611 112.017 326.39 113.148 326.482 114.276C326.574 115.404 326.974 116.485 327.64 117.4L343.259 138.864C339.383 143.721 334.976 148.131 330.119 152.011L308.584 136.422C307.675 135.766 306.605 135.371 305.488 135.278C304.371 135.185 303.25 135.398 302.245 135.894C299.937 137.04 297.553 138.027 295.11 138.848C294.039 139.202 293.087 139.844 292.357 140.703C291.628 141.562 291.149 142.605 290.974 143.717L286.813 169.969C280.635 170.63 274.405 170.63 268.227 169.969L264.034 143.742C263.858 142.632 263.381 141.591 262.655 140.733C261.929 139.874 260.981 139.231 259.914 138.873C257.49 138.078 255.132 137.095 252.86 135.935C251.847 135.415 250.708 135.186 249.572 135.273C248.436 135.361 247.346 135.761 246.424 136.43L224.889 152.035C220.039 148.154 215.632 143.751 211.748 138.905L227.367 117.408C228.033 116.491 228.432 115.408 228.523 114.279C228.613 113.15 228.39 112.017 227.879 111.006C226.728 108.736 225.747 106.385 224.946 103.97C224.592 102.898 223.95 101.944 223.09 101.212C222.23 100.479 221.186 99.9959 220.07 99.8152L193.764 95.6684C193.423 92.602 193.252 89.519 193.252 86.4336C193.252 86.4336 193.252 86.3849 193.252 86.3606C193.252 86.3362 193.252 86.3606 193.252 86.3038C193.253 83.2265 193.424 80.1516 193.764 77.0933L220.029 72.9303C221.145 72.7487 222.189 72.2654 223.048 71.5329C223.908 70.8004 224.55 69.8467 224.905 68.7754C225.715 66.3586 226.696 64.0021 227.839 61.7235C228.352 60.7155 228.576 59.5853 228.485 58.4581C228.395 57.3309 227.994 56.2507 227.327 55.337L211.708 33.8648C215.586 29.0098 219.994 24.6006 224.848 20.7186L246.392 36.348C247.299 37.0048 248.369 37.4017 249.486 37.4961C250.603 37.5905 251.725 37.3787 252.73 36.8836C255.039 35.7357 257.422 34.7461 259.865 33.9216C260.936 33.5682 261.889 32.9267 262.619 32.0677C263.349 31.2087 263.827 30.1655 264.002 29.0526L268.195 2.80882C274.374 2.13534 280.609 2.13534 286.788 2.80882L290.974 29.0364C291.147 30.1474 291.623 31.1893 292.35 32.0481C293.076 32.9069 294.026 33.5495 295.094 33.9054C297.522 34.698 299.884 35.683 302.156 36.8511C303.168 37.3721 304.306 37.601 305.441 37.5121C306.577 37.4233 307.665 37.0201 308.584 36.348L330.119 20.751C334.969 24.6288 339.376 29.0294 343.259 33.8729L327.64 55.3776C326.973 56.2945 326.573 57.3774 326.482 58.507C326.392 59.6367 326.616 60.7693 327.128 61.7803C328.282 64.0427 329.263 66.3893 330.062 68.7998C330.413 69.8723 331.055 70.8271 331.915 71.5589C332.775 72.2906 333.822 72.7708 334.938 72.9465L361.186 77.1339C361.534 80.1944 361.708 83.2722 361.707 86.3524C361.707 86.3524 361.707 86.3525 361.707 86.4174C361.707 86.4823 361.723 86.4011 361.723 86.4255Z" fill="#004A9B" stroke="#004A9B" stroke-width="4" stroke-miterlimit="10"/>
<path d="M277.484 57.7227C271.81 57.7243 266.264 59.4059 261.548 62.5549C256.831 65.7038 253.155 70.1787 250.986 75.4137C248.816 80.6487 248.25 86.4086 249.358 91.965C250.466 97.5214 253.2 102.625 257.213 106.63C261.226 110.635 266.338 113.362 271.903 114.466C277.468 115.569 283.236 115 288.477 112.831C293.718 110.661 298.197 106.988 301.348 102.277C304.499 97.5649 306.18 92.026 306.178 86.3604C306.17 78.765 303.143 71.4834 297.763 66.1142C292.383 60.745 285.09 57.727 277.484 57.7227ZM277.484 103.718C274.046 103.718 270.685 102.7 267.826 100.793C264.968 98.8857 262.74 96.1747 261.424 93.003C260.109 89.8312 259.764 86.3411 260.435 82.974C261.106 79.6069 262.761 76.514 265.192 74.0865C267.623 71.6589 270.721 70.0058 274.092 69.336C277.464 68.6662 280.959 69.01 284.136 70.3238C287.312 71.6375 290.027 73.8623 291.937 76.7168C293.847 79.5713 294.866 82.9273 294.866 86.3604C294.858 90.9599 293.023 95.3683 289.764 98.6191C286.506 101.87 282.09 103.698 277.484 103.702V103.718Z" fill="white" stroke="#004A9B" stroke-miterlimit="10"/>
<path d="M180.185 224.234H71.8751V282.889H180.185V224.234Z" stroke="#004A99" stroke-width="7.74" stroke-miterlimit="10"/>
<path d="M484.246 224.234H375.936V282.889H484.246V224.234Z" stroke="#004A99" stroke-width="7.74" stroke-miterlimit="10"/>
<path d="M180.185 253.561H251.471" stroke="#004A99" stroke-width="7.74" stroke-miterlimit="10"/>
<path d="M307.348 224.234H257.208C240.988 224.234 227.839 237.364 227.839 253.561C227.839 269.759 240.988 282.889 257.208 282.889H307.348C323.569 282.889 336.718 269.759 336.718 253.561C336.718 237.364 323.569 224.234 307.348 224.234Z" fill="#E30613" stroke="#E30613" stroke-width="7.74" stroke-miterlimit="10"/>
<path d="M193.252 86.7256H126.233V222.554" stroke="#004A99" stroke-width="7.74" stroke-miterlimit="10"/>
<path d="M361.723 86.7256H428.742V222.554" stroke="#004A99" stroke-width="7.74" stroke-miterlimit="10"/>
<path d="M571.5 305.935V284.025C570.261 284.149 569.016 283.845 567.973 283.165C564.82 281.282 562.382 277.354 558.774 277.306C554.483 277.249 550.696 284.057 546.511 284.163C542.18 284.268 538.198 277.135 533.81 277.306C529.031 277.492 525.472 285.185 520.449 284.041C516.516 283.14 513.485 277.184 509.072 277.306C504.895 277.419 500.881 284.163 496.81 284.163C496.66 284.157 496.511 284.143 496.363 284.122C496.218 284.114 496.074 284.098 495.932 284.074C491.999 283.173 488.967 277.225 484.555 277.338C480.37 277.281 476.575 284.057 472.251 284.187C469.114 284.147 466.213 280.357 463.158 278.434L462.995 278.336C462.116 277.747 461.094 277.402 460.037 277.338H459.875H459.72C456.583 277.338 454.471 279.967 452.146 281.947V282.158C450.692 283.278 449.213 284.163 447.669 284.195C442.793 284.293 440.298 277.338 435.186 277.338C431.635 277.338 429.384 280.714 426.662 282.694C425.558 283.646 424.154 284.177 422.696 284.195C418.34 284.025 414.911 277.176 410.319 277.338C405.923 277.492 402.469 284.114 398.276 284.195C393.652 284.285 390.296 277.338 385.793 277.338C381.048 277.338 377.846 284.195 373.425 284.195C368.809 284.195 365.624 277.419 361.162 277.338C356.701 277.257 353.279 284.106 348.785 284.195C344.454 284.285 340.545 277.216 336.084 277.338C331.801 277.46 327.957 284.195 323.935 284.195C319.693 284.195 315.735 277.298 311.452 277.338C306.91 277.379 303.391 284.763 298.45 284.074C294.826 283.57 291.949 278.758 288.487 277.582C282.871 275.683 279.271 284.187 274.363 284.187C270.056 284.187 266.513 277.371 262.1 277.33C257.687 277.289 254.047 284.187 249.618 284.187C245.189 284.187 241.581 277.249 237.136 277.33C232.69 277.411 229.212 284.187 224.873 284.187C220.533 284.187 216.925 277.363 212.553 277.281C208.181 277.2 204.426 284.138 200.071 284.138C195.918 284.138 191.838 277.281 187.694 277.281C183.549 277.281 179.454 284.138 175.325 284.138C171.441 284.138 168.263 278.734 164.485 277.533C163.818 277.314 163.113 277.234 162.414 277.298C161.715 277.362 161.037 277.569 160.421 277.906C157.463 279.375 154.822 283.327 151.547 284.017C146.566 285.056 142.771 277.143 137.976 277.281C132.588 277.427 129.037 286.954 122.641 283.14C119.496 281.258 117.058 277.33 113.45 277.281C109.151 277.225 105.373 284.033 101.187 284.138C96.856 284.244 92.8659 277.111 88.4857 277.281C83.7073 277.468 80.1398 285.161 75.1257 284.017C71.1925 283.116 68.1613 277.16 63.7486 277.281C59.5716 277.395 55.549 284.138 51.4858 284.138C47.2844 284.138 43.4974 277.354 39.2229 277.281C34.9484 277.208 31.202 284.057 26.8462 284.138C21.9703 284.236 19.4836 277.281 14.3639 277.281C11.2352 277.281 9.11422 279.911 6.79005 281.891L4.64465 305.935H571.5Z" fill="white"/>
<path d="M569.452 278.985C566.104 278.003 563.366 274.928 559.757 274.652C559.173 274.599 558.586 274.599 558.002 274.652C554.248 275.098 550.769 279.383 546.625 279.302C541.253 279.196 538.1 273.126 532.062 275.001C528.072 276.234 524.887 280.511 519.694 278.961C516.589 278.028 513.745 275.025 510.6 274.652C509.981 274.595 509.358 274.595 508.739 274.652C504.676 275.025 501.425 279.326 497.135 279.302C492.535 279.302 489.748 274.96 485.416 274.652C480.036 274.27 477.355 279.334 472.414 279.302C470.057 279.302 468.204 278.141 466.392 277.062C464.312 275.828 462.044 274.124 458.623 274.741C454.56 275.471 452.122 279.391 447.669 279.302C442.362 279.196 439.948 274.043 434.309 274.652C432.431 274.855 430.831 275.958 429.384 276.802C428.701 277.208 428.003 277.662 427.255 278.068C426.207 278.603 425.092 278.993 423.939 279.229C423.697 279.263 423.453 279.285 423.208 279.294H422.907C422.533 279.294 422.184 279.212 421.916 279.229C417.633 278.636 414.326 274.311 409.848 274.644C406.28 274.911 403.656 277.955 400.429 278.953C395.497 280.47 392.303 276.616 388.386 275.163C382.413 272.939 378.756 279.139 373.604 279.294C368.964 279.431 366.103 274.985 361.674 274.644C357.245 274.303 354.287 278.198 350.297 279.123C344.942 280.357 341.927 275.366 337.384 274.733C336.549 274.607 335.7 274.607 334.865 274.733C331.427 275.317 328.615 278.458 325.34 279.123C320.237 280.162 317.547 276.023 313.622 274.903C307.617 273.191 304.13 279.326 299.059 279.294C294.346 279.294 291.152 274.189 285.919 274.644C282.083 274.976 278.41 279.221 274.542 279.294C269.528 279.391 266.683 274.214 261.296 274.644C257.314 274.96 253.746 279.221 249.797 279.294C245.278 279.383 241.898 274.936 237.867 274.644C236.464 274.548 235.061 274.828 233.804 275.455C230.781 276.818 228.115 279.342 224.865 279.326C220.111 279.326 217.063 274.23 211.724 274.676C208.075 274.984 205.125 278.377 201.761 279.156C196.69 280.332 193.504 275.723 189.287 274.847C182.786 273.508 180.218 280.527 173.846 279.156C170.124 278.344 167.183 274.911 163.55 274.676C162.442 274.611 161.332 274.788 160.3 275.195C157.049 276.421 154.172 279.334 150.661 279.326C146.322 279.326 143.258 275.017 138.951 274.676C138.367 274.623 137.78 274.623 137.196 274.676C133.441 275.122 129.963 279.407 125.819 279.326C120.447 279.22 117.294 273.15 111.256 275.025C107.266 276.259 104.08 280.535 98.8876 278.985C95.7833 278.052 92.939 275.049 89.7941 274.676C89.175 274.619 88.5521 274.619 87.9331 274.676C83.8698 275.049 80.6192 279.35 76.3285 279.326C71.7289 279.326 68.9415 274.984 64.6182 274.676C59.2303 274.295 56.5486 279.358 51.6158 279.326C49.2591 279.326 47.4144 278.166 45.5941 277.086C43.5218 275.853 41.2464 274.149 37.8251 274.765C33.7619 275.496 31.3239 279.415 26.8706 279.326C21.564 279.22 19.1504 274.067 13.5188 274.676C11.6334 274.879 10.0325 275.983 8.586 276.827C6.83068 277.865 4.98596 279.261 2.34485 279.326C1.62972 279.326 0.955223 279.107 0.719555 279.415C0.768313 281.85 0.662669 280.77 0.719555 283.091C0.719555 283.375 0.524519 283.862 0.93897 284.041C6.70065 284.974 9.06546 279.472 14.5183 279.472C19.6299 279.472 22.1329 284.276 27.0006 284.211C31.3564 284.146 35.1678 279.423 39.3692 279.472C43.5706 279.521 47.4388 284.211 51.632 284.211C55.8253 284.211 59.7585 279.553 63.8949 279.472C68.3157 279.391 71.3469 283.53 75.272 284.122C80.2942 284.933 83.8536 279.602 88.632 279.472C93.0203 279.35 97.0023 284.284 101.334 284.211C105.519 284.138 109.306 279.431 113.597 279.472C117.205 279.472 119.643 282.223 122.796 283.53C129.175 286.159 132.743 279.586 138.122 279.472C142.917 279.383 146.712 284.844 151.702 284.122C154.952 283.651 157.618 280.876 160.568 279.902C161.87 279.433 163.279 279.343 164.631 279.642C168.41 280.454 171.587 284.211 175.464 284.211C179.592 284.211 183.59 279.472 187.84 279.472C192.09 279.472 196.064 284.211 200.209 284.211C204.581 284.211 208.384 279.423 212.691 279.472C216.998 279.521 220.631 284.211 224.954 284.211C229.277 284.211 232.869 279.529 237.217 279.472C241.564 279.415 245.343 284.211 249.699 284.211C254.055 284.211 257.761 279.448 262.181 279.472C266.602 279.496 270.145 284.211 274.444 284.211C279.32 284.211 282.953 278.336 288.568 279.642C292.046 280.454 294.915 283.773 298.531 284.122C303.505 284.601 307.015 279.505 311.534 279.472C315.816 279.472 319.766 284.211 324.008 284.211C328.071 284.211 331.874 279.553 336.197 279.472C340.659 279.391 344.568 284.268 348.899 284.211C353.393 284.146 356.733 279.415 361.268 279.472C365.802 279.529 368.923 284.211 373.531 284.211C377.96 284.211 381.161 279.472 385.907 279.472C390.401 279.472 393.766 284.268 398.39 284.211C402.575 284.154 406.028 279.586 410.433 279.472C415.016 279.358 418.454 284.089 422.802 284.211C423.576 284.223 424.347 284.11 425.085 283.879C428.742 282.905 431.131 279.472 435.446 279.472C440.558 279.472 443.061 284.276 447.929 284.211C452.284 284.146 456.096 279.423 460.297 279.472C464.499 279.521 468.367 284.211 472.56 284.211C476.753 284.211 480.646 279.553 484.823 279.472C489.244 279.391 492.275 283.53 496.2 284.122C501.222 284.933 504.782 279.602 509.56 279.472C513.94 279.35 517.93 284.284 522.262 284.211C526.447 284.138 530.234 279.431 534.525 279.472C538.133 279.472 540.571 282.223 543.724 283.53C550.095 286.159 553.671 279.586 559.05 279.472C562.854 279.399 566.031 282.815 569.672 283.87C569.413 282.256 569.34 280.617 569.452 278.985Z" fill="#004A9B"/>
<path d="M484.904 305.765H484.742C480.142 305.765 477.355 301.423 473.023 301.115C467.644 300.725 464.962 305.797 460.021 305.765C457.664 305.765 455.811 304.604 453.999 303.525C451.919 302.292 449.651 300.587 446.222 301.196C442.159 301.926 439.721 305.854 435.276 305.765C429.969 305.659 427.556 300.506 421.916 301.115C420.039 301.318 418.438 302.413 416.991 303.265C416.308 303.671 415.61 304.117 414.862 304.531C413.814 305.066 412.699 305.456 411.546 305.692C411.301 305.726 411.054 305.748 410.807 305.757H410.514C410.14 305.757 409.791 305.684 409.515 305.692C405.24 305.107 401.933 300.774 397.455 301.115C393.887 301.383 391.263 304.426 388.036 305.416C383.104 306.941 379.91 303.079 375.993 301.626C370.02 299.403 366.355 305.611 361.211 305.765C356.562 305.903 353.71 301.456 349.273 301.115C344.836 300.774 341.886 304.669 337.896 305.586C332.541 306.82 329.518 301.829 324.975 301.196C324.142 301.074 323.296 301.074 322.464 301.196C319.026 301.788 316.214 304.921 312.931 305.586C307.836 306.625 305.146 302.486 301.221 301.375C295.183 299.654 291.689 305.765 286.626 305.765C281.913 305.765 278.719 300.66 273.485 301.115C269.65 301.448 265.976 305.692 262.108 305.765C257.094 305.854 254.25 300.685 248.862 301.115C244.88 301.431 241.313 305.684 237.363 305.765C232.845 305.846 229.456 301.399 225.425 301.115C224.023 301.019 222.62 301.299 221.362 301.926C218.339 303.29 215.673 305.813 212.382 305.805C207.628 305.805 204.581 300.709 199.242 301.155C195.593 301.456 192.643 304.856 189.279 305.627C184.2 306.803 181.022 302.194 176.796 301.326C170.295 299.979 167.735 306.958 161.356 305.627C157.634 304.856 154.684 301.383 151.06 301.155C149.952 301.092 148.844 301.266 147.809 301.667C144.518 302.9 141.682 305.805 138.171 305.805C133.823 305.805 130.76 301.496 126.461 301.155C125.877 301.099 125.289 301.099 124.705 301.155C120.951 301.602 117.473 305.886 113.328 305.805C107.957 305.692 104.804 299.622 98.7657 301.496C94.7756 302.738 91.59 307.014 86.389 305.456C83.2929 304.531 80.4486 301.529 77.3036 301.155C76.6848 301.095 76.0615 301.095 75.4427 301.155C71.3794 301.529 68.1288 305.83 63.838 305.805C59.2384 305.805 56.451 301.464 52.1196 301.155C46.7399 300.766 44.0581 305.838 39.1172 305.805C38.686 305.797 38.2563 305.751 37.8333 305.667C38.1791 307.102 38.386 308.567 38.4509 310.041C38.4509 310.244 38.4509 310.439 38.4509 310.642C38.6701 310.654 38.8899 310.654 39.1091 310.642C43.1724 310.642 47.2356 305.992 51.372 305.911C55.7928 305.822 58.824 309.968 62.7491 310.561C67.7713 311.372 71.3307 306.041 76.109 305.911C80.4892 305.789 84.4793 310.715 88.8108 310.642C92.9959 310.577 96.7828 305.87 101.074 305.911C104.682 305.911 107.12 308.654 110.273 309.968C116.644 312.606 120.22 306.024 125.599 305.911C130.394 305.813 134.189 311.275 139.179 310.561C142.429 310.082 145.095 307.355 148.045 306.341C149.346 305.868 150.757 305.777 152.108 306.081C155.895 306.893 159.064 310.642 162.949 310.642C167.077 310.642 171.075 305.911 175.325 305.911C179.576 305.911 183.493 310.634 187.67 310.634C192.042 310.634 195.845 305.846 200.152 305.903C204.459 305.959 208.083 310.634 212.415 310.634C216.746 310.634 220.322 305.951 224.678 305.903C229.033 305.854 232.804 310.634 237.16 310.634C241.516 310.634 245.221 305.87 249.642 305.903C254.063 305.935 257.557 310.634 261.881 310.634C266.757 310.634 270.389 304.767 276.005 306.073C279.483 306.885 282.351 310.204 285.968 310.553C290.941 311.023 294.452 305.927 298.97 305.903C303.253 305.903 307.21 310.634 311.452 310.634C315.516 310.634 319.319 305.984 323.642 305.903C328.095 305.813 332.012 310.691 336.344 310.634C340.838 310.577 344.178 305.846 348.712 305.903C353.247 305.959 356.359 310.634 360.975 310.634C365.404 310.634 368.598 305.903 373.344 305.903C377.846 305.903 381.21 310.699 385.826 310.634C390.019 310.577 393.473 306.008 397.878 305.903C402.461 305.789 405.898 310.52 410.246 310.634C411.017 310.648 411.785 310.539 412.522 310.309C416.187 309.335 418.576 305.903 422.891 305.903C428.003 305.903 430.505 310.699 435.373 310.634C439.721 310.577 443.5 305.846 447.742 305.903C451.984 305.959 455.844 310.634 459.996 310.634C464.06 310.634 468.082 305.984 472.259 305.903C476.68 305.813 479.711 309.96 483.636 310.553C484.12 310.634 484.61 310.661 485.099 310.634C484.838 309.025 484.772 307.39 484.904 305.765Z" fill="#004A9B"/>
</g>
<defs>
<clipPath id="clip0_102_954">
<rect width="571" height="310" fill="white" transform="translate(0.500122 0.633789)"/>
</clipPath>
</defs>
</svg>
