<svg width="684" height="119" viewBox="0 0 684 119" fill="none" xmlns="http://www.w3.org/2000/svg">
<g clip-path="url(#clip0_105_970)">
<path d="M673.505 55.0015L653.431 55.2566L621.58 59.7704L583.551 69.3786H517.449H314.773L7.50708 68.2612L11.2059 79.7963H33.0192L52.4931 86.2898L653.581 87.7592L663.141 76.9279L668.606 67.0821L673.505 55.0015Z" fill="#E30613"/>
<path d="M675.226 8.96627C674.767 9.01906 656.759 8.96627 656.759 8.96627L657.977 10.4797L676.577 18.6537L677.204 8.57031L675.226 8.96627Z" fill="#E30613"/>
<path d="M588.556 5.64893H250.198V7.69024H588.556V5.64893Z" fill="#004A9B"/>
<path d="M554.022 15.6006H275.878V17.8355H554.022V15.6006Z" fill="#004A9B"/>
<path d="M605.699 19.6743H554.719V21.9092H605.699V19.6743Z" fill="#004A9B"/>
<path d="M554.719 15.6006H550.773V29.7138H554.719V15.6006Z" fill="#004A9B"/>
<path d="M251.991 7.69043H250.198V16.19H251.991V7.69043Z" fill="#004A9B"/>
<path d="M258.223 7.69043H256.431V16.19H258.223V7.69043Z" fill="#004A9B"/>
<path d="M277.158 15.6006H139.834V17.8355H277.158V15.6006Z" fill="#004A9B"/>
<path d="M141.212 15.6006H45.7488V17.8355H141.212V15.6006Z" fill="#004A9B"/>
<path d="M141.212 21.3813H45.7488V23.6162H141.212V21.3813Z" fill="#004A9B"/>
<path d="M139.402 8.96631H137.61V16.1901H139.402V8.96631Z" fill="#004A9B"/>
<path d="M173.521 7.49658H171.729V15.5914H173.521V7.49658Z" fill="#004A9B"/>
<path d="M129.003 3.22949H79.7883V5.46437H129.003V3.22949Z" fill="#004A9B"/>
<path d="M629.755 35.917H1.6543V38.1519H629.755V35.917Z" fill="#004A9B"/>
<path d="M629.755 46.5811H22.0288L23.7679 44.355H629.755V46.5811Z" fill="#004A9B"/>
<path d="M134.926 23.2554H133.134V30.4791H134.926V23.2554Z" fill="#004A9B"/>
<path d="M127.123 23.2554H125.331V30.4791H127.123V23.2554Z" fill="#004A9B"/>
<path d="M108.832 23.2554H107.04V30.4791H108.832V23.2554Z" fill="#004A9B"/>
<path d="M86.8682 23.2554H85.0762V30.4791H86.8682V23.2554Z" fill="#004A9B"/>
<path d="M68.4449 23.2554H66.6528V30.4791H68.4449V23.2554Z" fill="#004A9B"/>
<path d="M54.2852 23.2554H52.4932V30.4791H54.2852V23.2554Z" fill="#004A9B"/>
<path d="M50.1892 23.2554H48.3972V30.4791H50.1892V23.2554Z" fill="#004A9B"/>
<path d="M554.719 64.0198H121.155L124.907 59.77H554.719V64.0198Z" fill="#004A9B"/>
<path d="M629.755 29.749H1.6543V31.5968H629.755V29.749Z" fill="#004A9B"/>
<path d="M661.738 20.7915H629.755V23.6247H661.738V20.7915Z" fill="#004A9B"/>
<path d="M631.423 44.3549V22.2173H629.764V44.3549H631.423Z" fill="#004A9B"/>
<path d="M661.746 44.3462V22.2085H660.087V44.3462H661.746Z" fill="#004A9B"/>
<path d="M683.745 43.2373H629.755V45.4722H683.745V43.2373Z" fill="#004A9B"/>
<path d="M678.378 44.0467V1.6543L676.03 1.6543V44.0467H678.378Z" fill="#004A9B"/>
<path d="M676.03 7.94531H653.554V9.98662H676.03V7.94531Z" fill="#004A9B"/>
<path d="M676.03 18.6534L653.554 9.98662V7.94531L676.03 16.7001V18.6534Z" fill="#004A9B"/>
<path d="M588.565 7.69043L582.8 19.6743H578.713L584.848 7.69043H588.565Z" fill="#004A9B"/>
<path d="M554.719 59.7702L559.778 50.2852H563.229L554.719 64.5655V59.7702Z" fill="#004A9B"/>
<path d="M423.601 11.729H421.686V15.6005H423.601V11.729Z" fill="#004A9B"/>
<path d="M431.785 11.729H429.869V15.6005H431.785V11.729Z" fill="#004A9B"/>
<path d="M431.546 11.729H421.686V13.6647H431.546V11.729Z" fill="#004A9B"/>
<path d="M439.553 11.729H437.637V15.6005H439.553V11.729Z" fill="#004A9B"/>
<path d="M447.736 11.729H445.821V15.6005H447.736V11.729Z" fill="#004A9B"/>
<path d="M447.498 11.729H437.637V13.6647H447.498V11.729Z" fill="#004A9B"/>
<path d="M406.758 11.729H404.842V15.6005H406.758V11.729Z" fill="#004A9B"/>
<path d="M414.941 11.729H413.026V15.6005H414.941V11.729Z" fill="#004A9B"/>
<path d="M414.703 11.729H404.842V13.6647H414.703V11.729Z" fill="#004A9B"/>
<path d="M455.84 11.729H453.925V15.6005H455.84V11.729Z" fill="#004A9B"/>
<path d="M464.032 11.729H462.117V15.6005H464.032V11.729Z" fill="#004A9B"/>
<path d="M463.785 11.729H453.925V13.6647H463.785V11.729Z" fill="#004A9B"/>
<path d="M472.56 11.729H470.644V15.6005H472.56V11.729Z" fill="#004A9B"/>
<path d="M480.743 11.729H478.827V15.6005H480.743V11.729Z" fill="#004A9B"/>
<path d="M480.505 11.729H470.644V13.6647H480.505V11.729Z" fill="#004A9B"/>
<path d="M490.127 11.729H488.211V15.6005H490.127V11.729Z" fill="#004A9B"/>
<path d="M498.319 11.729H496.403V15.6005H498.319V11.729Z" fill="#004A9B"/>
<path d="M498.072 11.729H488.211V13.6647H498.072V11.729Z" fill="#004A9B"/>
<path d="M389.35 11.729H387.434V15.6005H389.35V11.729Z" fill="#004A9B"/>
<path d="M397.542 11.729H395.626V15.6005H397.542V11.729Z" fill="#004A9B"/>
<path d="M397.295 11.729H387.434V13.6647H397.295V11.729Z" fill="#004A9B"/>
<path d="M373.151 11.729H371.235V15.6005H373.151V11.729Z" fill="#004A9B"/>
<path d="M381.334 11.729H379.419V15.6005H381.334V11.729Z" fill="#004A9B"/>
<path d="M381.096 11.729H371.235V13.6647H381.096V11.729Z" fill="#004A9B"/>
<path d="M356.943 11.729H355.028V15.6005H356.943V11.729Z" fill="#004A9B"/>
<path d="M365.127 11.729H363.211V15.6005H365.127V11.729Z" fill="#004A9B"/>
<path d="M364.888 11.729H355.028V13.6647H364.888V11.729Z" fill="#004A9B"/>
<path d="M340.691 11.729H338.776V15.6005H340.691V11.729Z" fill="#004A9B"/>
<path d="M348.884 11.729H346.968V15.6005H348.884V11.729Z" fill="#004A9B"/>
<path d="M348.636 11.729H338.776V13.6647H348.636V11.729Z" fill="#004A9B"/>
<path d="M322.701 11.729H320.785V15.6005H322.701V11.729Z" fill="#004A9B"/>
<path d="M330.884 11.729H328.968V15.6005H330.884V11.729Z" fill="#004A9B"/>
<path d="M330.645 11.729H320.785V13.6647H330.645V11.729Z" fill="#004A9B"/>
<path d="M306.581 11.729H304.666V15.6005H306.581V11.729Z" fill="#004A9B"/>
<path d="M314.765 11.729H312.849V15.6005H314.765V11.729Z" fill="#004A9B"/>
<path d="M314.526 11.729H304.666V13.6647H314.526V11.729Z" fill="#004A9B"/>
<path d="M322.701 25.8862H320.785V29.7577H322.701V25.8862Z" fill="#004A9B"/>
<path d="M330.884 25.8862H328.968V29.7577H330.884V25.8862Z" fill="#004A9B"/>
<path d="M330.645 25.8862H320.785V27.822H330.645V25.8862Z" fill="#004A9B"/>
<path d="M306.458 25.8862H304.542V29.7577H306.458V25.8862Z" fill="#004A9B"/>
<path d="M314.641 25.8862H312.725V29.7577H314.641V25.8862Z" fill="#004A9B"/>
<path d="M314.403 25.8862H304.542V27.822H314.403V25.8862Z" fill="#004A9B"/>
<path d="M290.338 25.8862H288.423V29.7577H290.338V25.8862Z" fill="#004A9B"/>
<path d="M298.522 25.8862H296.606V29.7577H298.522V25.8862Z" fill="#004A9B"/>
<path d="M298.283 25.8862H288.423V27.822H298.283V25.8862Z" fill="#004A9B"/>
<path d="M340.568 25.8862H338.652V29.7577H340.568V25.8862Z" fill="#004A9B"/>
<path d="M348.76 25.8862H346.844V29.7577H348.76V25.8862Z" fill="#004A9B"/>
<path d="M348.513 25.8862H338.652V27.822H348.513V25.8862Z" fill="#004A9B"/>
<path d="M356.943 25.8862H355.028V29.7577H356.943V25.8862Z" fill="#004A9B"/>
<path d="M365.127 25.8862H363.211V29.7577H365.127V25.8862Z" fill="#004A9B"/>
<path d="M364.888 25.8862H355.028V27.822H364.888V25.8862Z" fill="#004A9B"/>
<path d="M506.405 11.729H504.49V15.6005H506.405V11.729Z" fill="#004A9B"/>
<path d="M514.597 11.729H512.682V15.6005H514.597V11.729Z" fill="#004A9B"/>
<path d="M514.35 11.729H504.49V13.6647H514.35V11.729Z" fill="#004A9B"/>
<path d="M522.533 11.729H520.618V15.6005H522.533V11.729Z" fill="#004A9B"/>
<path d="M530.717 11.729H528.801V15.6005H530.717V11.729Z" fill="#004A9B"/>
<path d="M530.478 11.729H520.618V13.6647H530.478V11.729Z" fill="#004A9B"/>
<path d="M539.421 11.729H537.505V15.6005H539.421V11.729Z" fill="#004A9B"/>
<path d="M547.604 11.729H545.688V15.6005H547.604V11.729Z" fill="#004A9B"/>
<path d="M547.366 11.729H537.505V13.6647H547.366V11.729Z" fill="#004A9B"/>
<path d="M539.421 25.8862H537.505V29.7577H539.421V25.8862Z" fill="#004A9B"/>
<path d="M547.604 25.8862H545.688V29.7577H547.604V25.8862Z" fill="#004A9B"/>
<path d="M547.366 25.8862H537.505V27.822H547.366V25.8862Z" fill="#004A9B"/>
<path d="M539.421 40.4834H537.505V44.3548H539.421V40.4834Z" fill="#004A9B"/>
<path d="M547.604 40.4834H545.688V44.3548H547.604V40.4834Z" fill="#004A9B"/>
<path d="M547.366 40.4834H537.505V42.4191H547.366V40.4834Z" fill="#004A9B"/>
<path d="M522.533 25.8862H520.618V29.7577H522.533V25.8862Z" fill="#004A9B"/>
<path d="M530.717 25.8862H528.801V29.7577H530.717V25.8862Z" fill="#004A9B"/>
<path d="M530.478 25.8862H520.618V27.822H530.478V25.8862Z" fill="#004A9B"/>
<path d="M506.405 25.8862H504.49V29.7577H506.405V25.8862Z" fill="#004A9B"/>
<path d="M514.597 25.8862H512.682V29.7577H514.597V25.8862Z" fill="#004A9B"/>
<path d="M514.35 25.8862H504.49V27.822H514.35V25.8862Z" fill="#004A9B"/>
<path d="M490.127 25.8862H488.211V29.7577H490.127V25.8862Z" fill="#004A9B"/>
<path d="M498.319 25.8862H496.403V29.7577H498.319V25.8862Z" fill="#004A9B"/>
<path d="M498.072 25.8862H488.211V27.822H498.072V25.8862Z" fill="#004A9B"/>
<path d="M472.56 25.8862H470.644V29.7577H472.56V25.8862Z" fill="#004A9B"/>
<path d="M480.743 25.8862H478.827V29.7577H480.743V25.8862Z" fill="#004A9B"/>
<path d="M480.505 25.8862H470.644V27.822H480.505V25.8862Z" fill="#004A9B"/>
<path d="M455.84 25.8862H453.925V29.7577H455.84V25.8862Z" fill="#004A9B"/>
<path d="M464.032 25.8862H462.117V29.7577H464.032V25.8862Z" fill="#004A9B"/>
<path d="M463.785 25.8862H453.925V27.822H463.785V25.8862Z" fill="#004A9B"/>
<path d="M439.553 25.8862H437.637V29.7577H439.553V25.8862Z" fill="#004A9B"/>
<path d="M447.736 25.8862H445.821V29.7577H447.736V25.8862Z" fill="#004A9B"/>
<path d="M447.498 25.8862H437.637V27.822H447.498V25.8862Z" fill="#004A9B"/>
<path d="M423.601 25.8862H421.686V29.7577H423.601V25.8862Z" fill="#004A9B"/>
<path d="M431.785 25.8862H429.869V29.7577H431.785V25.8862Z" fill="#004A9B"/>
<path d="M431.546 25.8862H421.686V27.822H431.546V25.8862Z" fill="#004A9B"/>
<path d="M406.758 25.8862H404.842V29.7577H406.758V25.8862Z" fill="#004A9B"/>
<path d="M414.941 25.8862H413.026V29.7577H414.941V25.8862Z" fill="#004A9B"/>
<path d="M414.703 25.8862H404.842V27.822H414.703V25.8862Z" fill="#004A9B"/>
<path d="M389.35 25.8862H387.434V29.7577H389.35V25.8862Z" fill="#004A9B"/>
<path d="M397.542 25.8862H395.626V29.7577H397.542V25.8862Z" fill="#004A9B"/>
<path d="M397.295 25.8862H387.434V27.822H397.295V25.8862Z" fill="#004A9B"/>
<path d="M373.151 25.8862H371.235V29.7577H373.151V25.8862Z" fill="#004A9B"/>
<path d="M381.334 25.8862H379.419V29.7577H381.334V25.8862Z" fill="#004A9B"/>
<path d="M381.096 25.8862H371.235V27.822H381.096V25.8862Z" fill="#004A9B"/>
<path d="M284.15 7.69043H282.358V16.19H284.15V7.69043Z" fill="#004A9B"/>
<path d="M296.606 7.69043H294.814V16.19H296.606V7.69043Z" fill="#004A9B"/>
<path d="M272.736 25.8862H270.82V29.7577H272.736V25.8862Z" fill="#004A9B"/>
<path d="M280.928 25.8862H279.012V29.7577H280.928V25.8862Z" fill="#004A9B"/>
<path d="M280.681 25.8862H270.82V27.822H280.681V25.8862Z" fill="#004A9B"/>
<path d="M255.725 25.8862H253.809V29.7577H255.725V25.8862Z" fill="#004A9B"/>
<path d="M263.908 25.8862H261.992V29.7577H263.908V25.8862Z" fill="#004A9B"/>
<path d="M263.67 25.8862H253.809V27.822H263.67V25.8862Z" fill="#004A9B"/>
<path d="M239.985 25.8862H238.069V29.7577H239.985V25.8862Z" fill="#004A9B"/>
<path d="M248.168 25.8862H246.252V29.7577H248.168V25.8862Z" fill="#004A9B"/>
<path d="M247.93 25.8862H238.069V27.822H247.93V25.8862Z" fill="#004A9B"/>
<path d="M223.036 25.8862H221.12V29.7577H223.036V25.8862Z" fill="#004A9B"/>
<path d="M231.219 25.8862H229.303V29.7577H231.219V25.8862Z" fill="#004A9B"/>
<path d="M230.981 25.8862H221.12V27.822H230.981V25.8862Z" fill="#004A9B"/>
<path d="M206.016 25.8862H204.1V29.7577H206.016V25.8862Z" fill="#004A9B"/>
<path d="M214.208 25.8862H212.292V29.7577H214.208V25.8862Z" fill="#004A9B"/>
<path d="M213.961 25.8862H204.1V27.822H213.961V25.8862Z" fill="#004A9B"/>
<path d="M189.508 25.8862H187.593V29.7577H189.508V25.8862Z" fill="#004A9B"/>
<path d="M197.7 25.8862H195.785V29.7577H197.7V25.8862Z" fill="#004A9B"/>
<path d="M197.453 25.8862H187.593V27.822H197.453V25.8862Z" fill="#004A9B"/>
<path d="M173.645 25.8862H171.729V29.7577H173.645V25.8862Z" fill="#004A9B"/>
<path d="M181.837 25.8862H179.921V29.7577H181.837V25.8862Z" fill="#004A9B"/>
<path d="M181.59 25.8862H171.729V27.822H181.59V25.8862Z" fill="#004A9B"/>
<path d="M173.645 40.4834H171.729V44.3548H173.645V40.4834Z" fill="#004A9B"/>
<path d="M181.837 40.4834H179.921V44.3548H181.837V40.4834Z" fill="#004A9B"/>
<path d="M181.59 40.4834H171.729V42.4191H181.59V40.4834Z" fill="#004A9B"/>
<path d="M189.508 40.4834H187.593V44.3548H189.508V40.4834Z" fill="#004A9B"/>
<path d="M197.7 40.4834H195.785V44.3548H197.7V40.4834Z" fill="#004A9B"/>
<path d="M197.453 40.4834H187.593V42.4191H197.453V40.4834Z" fill="#004A9B"/>
<path d="M206.016 40.4834H204.1V44.3548H206.016V40.4834Z" fill="#004A9B"/>
<path d="M214.208 40.4834H212.292V44.3548H214.208V40.4834Z" fill="#004A9B"/>
<path d="M213.961 40.4834H204.1V42.4191H213.961V40.4834Z" fill="#004A9B"/>
<path d="M223.036 40.4834H221.12V44.3548H223.036V40.4834Z" fill="#004A9B"/>
<path d="M231.219 40.4834H229.303V44.3548H231.219V40.4834Z" fill="#004A9B"/>
<path d="M230.981 40.4834H221.12V42.4191H230.981V40.4834Z" fill="#004A9B"/>
<path d="M239.985 40.4834H238.069V44.3548H239.985V40.4834Z" fill="#004A9B"/>
<path d="M248.168 40.4834H246.252V44.3548H248.168V40.4834Z" fill="#004A9B"/>
<path d="M247.93 40.4834H238.069V42.4191H247.93V40.4834Z" fill="#004A9B"/>
<path d="M255.725 40.4834H253.809V44.3548H255.725V40.4834Z" fill="#004A9B"/>
<path d="M263.908 40.4834H261.992V44.3548H263.908V40.4834Z" fill="#004A9B"/>
<path d="M263.67 40.4834H253.809V42.4191H263.67V40.4834Z" fill="#004A9B"/>
<path d="M272.736 40.4834H270.82V44.3548H272.736V40.4834Z" fill="#004A9B"/>
<path d="M280.928 40.4834H279.012V44.3548H280.928V40.4834Z" fill="#004A9B"/>
<path d="M280.681 40.4834H270.82V42.4191H280.681V40.4834Z" fill="#004A9B"/>
<path d="M290.338 40.4834H288.423V44.3548H290.338V40.4834Z" fill="#004A9B"/>
<path d="M298.522 40.4834H296.606V44.3548H298.522V40.4834Z" fill="#004A9B"/>
<path d="M298.283 40.4834H288.423V42.4191H298.283V40.4834Z" fill="#004A9B"/>
<path d="M306.458 40.4834H304.542V44.3548H306.458V40.4834Z" fill="#004A9B"/>
<path d="M314.641 40.4834H312.725V44.3548H314.641V40.4834Z" fill="#004A9B"/>
<path d="M314.403 40.4834H304.542V42.4191H314.403V40.4834Z" fill="#004A9B"/>
<path d="M322.701 40.4834H320.785V44.3548H322.701V40.4834Z" fill="#004A9B"/>
<path d="M330.884 40.4834H328.968V44.3548H330.884V40.4834Z" fill="#004A9B"/>
<path d="M330.645 40.4834H320.785V42.4191H330.645V40.4834Z" fill="#004A9B"/>
<path d="M340.568 40.4834H338.652V44.3548H340.568V40.4834Z" fill="#004A9B"/>
<path d="M348.76 40.4834H346.844V44.3548H348.76V40.4834Z" fill="#004A9B"/>
<path d="M348.513 40.4834H338.652V42.4191H348.513V40.4834Z" fill="#004A9B"/>
<path d="M356.943 40.4834H355.028V44.3548H356.943V40.4834Z" fill="#004A9B"/>
<path d="M365.127 40.4834H363.211V44.3548H365.127V40.4834Z" fill="#004A9B"/>
<path d="M364.888 40.4834H355.028V42.4191H364.888V40.4834Z" fill="#004A9B"/>
<path d="M373.151 40.4834H371.235V44.3548H373.151V40.4834Z" fill="#004A9B"/>
<path d="M381.334 40.4834H379.419V44.3548H381.334V40.4834Z" fill="#004A9B"/>
<path d="M381.096 40.4834H371.235V42.4191H381.096V40.4834Z" fill="#004A9B"/>
<path d="M389.35 40.4834H387.434V44.3548H389.35V40.4834Z" fill="#004A9B"/>
<path d="M397.542 40.4834H395.626V44.3548H397.542V40.4834Z" fill="#004A9B"/>
<path d="M397.295 40.4834H387.434V42.4191H397.295V40.4834Z" fill="#004A9B"/>
<path d="M406.758 40.4834H404.842V44.3548H406.758V40.4834Z" fill="#004A9B"/>
<path d="M414.941 40.4834H413.026V44.3548H414.941V40.4834Z" fill="#004A9B"/>
<path d="M414.703 40.4834H404.842V42.4191H414.703V40.4834Z" fill="#004A9B"/>
<path d="M423.601 40.4834H421.686V44.3548H423.601V40.4834Z" fill="#004A9B"/>
<path d="M431.785 40.4834H429.869V44.3548H431.785V40.4834Z" fill="#004A9B"/>
<path d="M431.546 40.4834H421.686V42.4191H431.546V40.4834Z" fill="#004A9B"/>
<path d="M439.553 40.4834H437.637V44.3548H439.553V40.4834Z" fill="#004A9B"/>
<path d="M447.736 40.4834H445.821V44.3548H447.736V40.4834Z" fill="#004A9B"/>
<path d="M447.498 40.4834H437.637V42.4191H447.498V40.4834Z" fill="#004A9B"/>
<path d="M455.84 40.4834H453.925V44.3548H455.84V40.4834Z" fill="#004A9B"/>
<path d="M464.032 40.4834H462.117V44.3548H464.032V40.4834Z" fill="#004A9B"/>
<path d="M463.785 40.4834H453.925V42.4191H463.785V40.4834Z" fill="#004A9B"/>
<path d="M472.56 40.4834H470.644V44.3548H472.56V40.4834Z" fill="#004A9B"/>
<path d="M480.743 40.4834H478.827V44.3548H480.743V40.4834Z" fill="#004A9B"/>
<path d="M480.505 40.4834H470.644V42.4191H480.505V40.4834Z" fill="#004A9B"/>
<path d="M490.127 40.4834H488.211V44.3548H490.127V40.4834Z" fill="#004A9B"/>
<path d="M498.319 40.4834H496.403V44.3548H498.319V40.4834Z" fill="#004A9B"/>
<path d="M498.072 40.4834H488.211V42.4191H498.072V40.4834Z" fill="#004A9B"/>
<path d="M506.405 40.4834H504.49V44.3548H506.405V40.4834Z" fill="#004A9B"/>
<path d="M514.597 40.4834H512.682V44.3548H514.597V40.4834Z" fill="#004A9B"/>
<path d="M514.35 40.4834H504.49V42.4191H514.35V40.4834Z" fill="#004A9B"/>
<path d="M522.533 40.4834H520.618V44.3548H522.533V40.4834Z" fill="#004A9B"/>
<path d="M530.717 40.4834H528.801V44.3548H530.717V40.4834Z" fill="#004A9B"/>
<path d="M530.478 40.4834H520.618V42.4191H530.478V40.4834Z" fill="#004A9B"/>
<path d="M563.512 49.854H19.3628V52.0889H562.152L563.512 49.854Z" fill="#004A9B"/>
<path d="M632.068 49.854H569.885V52.0889H632.068V49.854Z" fill="#004A9B"/>
<path d="M121.155 64.02L128.102 52.0889H131.563L124.774 64.02H121.155Z" fill="#004A9B"/>
<path d="M124.774 64.02H121.155L128.102 52.0889" fill="#004A9B"/>
<path d="M103.623 64.02L110.58 52.0889H114.031L107.251 64.02H103.623Z" fill="#004A9B"/>
<path d="M107.04 59.77H44.4687L41.5732 64.0198H107.04V59.77Z" fill="#004A9B"/>
<path d="M40.9377 64.02L47.8852 52.0889H51.3368L44.5571 64.02H40.9377Z" fill="#004A9B"/>
<path d="M40.9377 64.02L47.8852 52.0889H51.3368L44.5571 64.02H40.9377Z" fill="#004A9B"/>
<path d="M27.2283 45.4635L34.1845 36.4536H37.6361L30.8565 45.4635H27.2283Z" fill="#004A9B"/>
<path d="M28.6936 59.7702L33.999 52.0889H30.6445L25.2419 59.7702H28.6936Z" fill="#004A9B"/>
<path d="M28.6937 55.9341H12.0623V59.7791H28.6937V55.9341Z" fill="#004A9B"/>
<path d="M4.42627 67.8652L11.3825 55.9253H14.8341L8.05446 67.8652H4.42627Z" fill="#004A9B"/>
<path d="M14.8341 79.7963L7.88673 67.8652H4.42627L11.206 79.7963H14.8341Z" fill="#004A9B"/>
<path d="M555.893 68.2607H7.50708V70.4956H555.893V68.2607Z" fill="#004A9B"/>
<path d="M683.754 45.4634C679.73 48.7003 676.311 52.6202 673.655 57.0425C671.835 60.2165 670.378 63.584 669.312 67.0819C667.334 72.6163 663.344 80.2008 654.349 88.7004L651.392 88.1901C654.598 85.8725 657.465 83.1214 659.91 80.0161C663.238 75.7927 665.03 71.798 667.22 66.9147C669.789 61.1867 669.497 60.4916 671.219 57.2361C673.634 52.7122 676.936 48.7178 680.929 45.4898L683.754 45.4634Z" fill="#004A9B"/>
<path d="M603.484 21.9092H601.436V30.6727H603.484V21.9092Z" fill="#004A9B"/>
<path d="M135.739 9.73169L248.751 3.3526L254.763 5.81625H257.79L248.751 0.633789L135.739 8.61425V9.73169Z" fill="#004A9B"/>
<path d="M79.7442 3.22949C79.55 3.39667 75.7717 6.74898 76.6722 8.66711C77.0429 9.4414 78.1111 9.79337 79.8325 10.3653C82.2424 11.1748 83.2753 10.946 83.5843 11.5619C83.8932 12.1778 83.443 13.3217 80.4328 16.0669L82.9045 16.234C86.3473 12.8817 86.7799 11.4123 86.4356 10.7084C86.0913 10.0045 85.085 10.0925 80.6358 8.7551C79.3823 8.37676 78.7643 8.16561 78.5878 7.64648C78.1729 6.44985 80.4681 4.70768 80.9801 4.32934L79.7442 3.22949Z" fill="#004A9B"/>
<path d="M131.139 3.22949H129.003V15.6005H131.139V3.22949Z" fill="#004A9B"/>
<path d="M19.3628 49.854L22.938 45.4634H25.242L21.5344 49.854H19.3628Z" fill="#004A9B"/>
<path d="M554.719 70.496C570.405 71.1936 586.113 69.755 601.409 66.2198C613.388 63.3954 617.299 61.0109 631.511 58.6969C645.097 56.4796 660.316 55.5909 664.174 55.3798C668.032 55.1686 671.236 55.063 673.478 55.0014L674.644 53.4704C671.995 53.3648 668.332 53.268 663.918 53.3384C652.765 53.569 641.653 54.7642 630.708 56.9107C615.542 59.7791 611.861 61.8996 600.694 64.4336C585.779 67.7664 570.478 69.0541 555.214 68.2611C555.09 69.009 554.913 69.7481 554.719 70.496Z" fill="#004A9B"/>
<path d="M12.4066 77.9131L37.6538 78.0803C41.4367 79.3856 45.0401 81.1592 48.3795 83.3595C50.7205 84.7927 52.881 86.5001 54.8149 88.4452C53.1112 88.278 52.8993 89.2459 51.1955 89.0787C49.6506 87.3663 47.9049 85.8449 45.996 84.5473C43.2764 82.6537 40.2021 81.3251 36.9564 80.6407L11.2148 79.84L12.4066 77.9131Z" fill="#004A9B"/>
<path d="M48.3971 15.6006H45.7488V22.4988H48.3971V15.6006Z" fill="#0055A6"/>
<path d="M141.159 15.6006H138.51V22.4988H141.159V15.6006Z" fill="#0055A6"/>
<path d="M2.21052 29.749H0.745117V38.143H2.21052V29.749Z" fill="#0055A6"/>
<path d="M654.252 86.8174H51.3367V88.7003H654.252V86.8174Z" fill="#004A9B"/>
<path d="M659.513 99.7957V90.0291C658.203 90.1236 656.889 89.9034 655.682 89.3868C652.266 87.9702 649.617 84.9874 645.689 84.9874C641.028 84.9435 636.914 90.0467 632.368 90.1171C627.663 90.1963 623.337 84.8379 618.57 84.9874C613.38 85.1282 609.513 90.8826 604.066 90.0291C599.785 89.3516 596.501 84.8995 591.708 84.9874C587.179 85.0754 582.809 90.1171 578.387 90.1171H577.91C577.751 90.1171 577.592 90.1171 577.433 90.0731C573.16 89.3956 569.877 84.9522 565.074 85.0314C560.528 84.9874 556.414 90.0643 551.709 90.1611C548.31 90.1611 545.15 87.2927 541.831 85.8497L541.654 85.7793C540.646 85.3231 539.557 85.0689 538.45 85.0314H538.097C534.689 85.0314 532.394 87.0024 529.869 88.4806V88.6389C528.393 89.5267 526.725 90.0487 525.005 90.1611C519.709 90.2403 517.007 85.0314 511.446 85.0314C507.588 85.0314 505.152 87.5567 502.186 89.0437C500.872 89.7843 499.387 90.1695 497.878 90.1611C493.155 90.0379 489.421 84.8819 484.433 85.0314C479.657 85.1458 475.906 90.0995 471.351 90.1611C466.328 90.2315 462.682 85.0314 457.791 85.0314C452.636 85.0314 449.158 90.1611 444.355 90.1611C439.341 90.1611 435.881 85.093 431.034 85.0314C426.188 84.9698 422.48 90.0995 417.599 90.1611C412.893 90.2315 408.638 84.9346 403.801 85.0314C399.14 85.1194 394.973 90.1611 390.559 90.1611C385.951 90.1611 381.652 85.005 377 85.0314C372.065 85.0314 368.252 90.5835 362.876 90.0731C358.938 89.6948 355.813 86.0961 352.053 85.2162C345.953 83.7996 342.042 90.1611 336.71 90.1611C332.032 90.1611 328.183 85.0578 323.389 85.0314C318.596 85.005 314.65 90.1611 309.83 90.1611C305.01 90.1611 301.108 84.9698 296.271 85.0314C291.433 85.093 287.663 90.1611 282.949 90.1611C278.236 90.1611 274.342 85.093 269.628 85.0314C264.914 84.9698 260.801 90.1611 256.069 90.1611C251.558 90.1611 247.135 85.0314 242.633 85.0314C238.131 85.0314 233.673 90.1611 229.189 90.1611C224.969 90.1611 221.526 86.1137 217.413 85.2162C215.944 84.8917 214.414 84.9894 212.999 85.4978C209.794 86.5976 206.925 89.5628 203.359 90.0731C197.947 90.8474 193.825 84.9346 188.617 85.0314C182.773 85.1458 178.906 92.2728 171.968 89.4308C168.542 88.0142 165.894 85.0314 161.975 85.0314C157.314 84.9874 153.2 90.0907 148.654 90.1611C143.948 90.2403 139.614 84.8819 134.856 85.0314C129.665 85.1722 125.799 90.9266 120.343 90.0731C116.07 89.3956 112.778 84.9434 107.984 85.0314C103.447 85.1194 99.0771 90.1611 94.6632 90.1611C90.1082 90.1611 85.9944 85.0842 81.3422 85.0314C76.69 84.9786 72.6293 90.0995 67.9065 90.1611C62.6098 90.2403 59.8997 85.0314 54.3471 85.0314C50.9396 85.0314 48.6444 87.0024 46.1108 88.4806V99.8309L659.513 99.7957Z" fill="white"/>
<path d="M661.799 86.5977C658.162 85.5242 655.187 82.1983 651.268 81.8903C650.634 81.8332 649.995 81.8332 649.361 81.8903C645.283 82.3743 641.504 87.02 637.002 86.932C631.167 86.8176 627.733 80.2362 621.183 82.2687C616.84 83.6061 613.388 88.243 607.739 86.5625C604.375 85.5506 601.285 82.2951 597.869 81.8903C597.197 81.8287 596.52 81.8287 595.848 81.8903C591.434 82.2951 587.903 86.9584 583.242 86.932C578.245 86.932 575.217 82.2247 570.512 81.8903C564.668 81.4768 561.755 86.9672 556.388 86.932C553.828 86.932 551.815 85.6738 549.846 84.5036C547.586 83.1661 545.124 81.3184 541.398 81.9871C536.984 82.779 534.336 87.0288 529.507 86.932C523.743 86.8176 521.121 81.2304 514.995 81.8903C512.955 82.1103 511.216 83.3069 509.645 84.222C508.903 84.662 508.144 85.1547 507.332 85.5946C506.194 86.1745 504.983 86.5978 503.73 86.8528C503.467 86.8902 503.202 86.9136 502.936 86.9232H502.609C502.203 86.9232 501.824 86.8352 501.532 86.8528C496.88 86.2105 493.287 81.5208 488.423 81.8815C484.548 82.1719 481.696 85.4714 478.192 86.5537C472.833 88.199 469.364 84.0196 465.109 82.4447C458.621 80.0338 454.648 86.756 449.052 86.9232C444.002 87.0728 440.904 82.2511 436.092 81.8815C431.281 81.512 428.059 85.7354 423.734 86.7384C417.916 88.0759 414.632 82.6646 409.706 81.9783C408.799 81.8417 407.877 81.8417 406.97 81.9783C403.236 82.6118 400.181 86.0169 396.615 86.7384C391.08 87.8647 388.158 83.3773 383.894 82.1631C377.371 80.3066 373.583 86.9584 368.075 86.9232C362.955 86.9232 359.486 81.3888 353.801 81.8815C349.634 82.2423 345.644 86.844 341.442 86.9232C335.995 87.0288 332.905 81.4152 327.053 81.8815C322.727 82.2247 318.852 86.844 314.561 86.9232C309.653 87.02 305.972 82.1983 301.593 81.8815C300.07 81.7768 298.546 82.0806 297.18 82.7614C293.896 84.2396 291 86.976 287.425 86.9584C282.261 86.9584 278.95 81.4328 273.151 81.9167C269.187 82.2511 265.982 85.929 262.328 86.7736C256.819 88.0495 253.359 83.0518 248.768 82.1015C241.706 80.6497 238.926 88.2166 231.996 86.7736C227.953 85.8938 224.757 82.1719 220.811 81.9167C219.607 81.8458 218.402 82.038 217.28 82.4799C213.705 83.8085 210.624 86.9672 206.81 86.9584C202.096 86.9584 198.759 82.2863 194.09 81.9167C193.455 81.8596 192.817 81.8596 192.183 81.9167C188.104 82.4007 184.326 87.0464 179.824 86.9584C173.989 86.844 170.564 80.2626 164.005 82.2951C159.67 83.6325 156.21 88.2694 150.569 86.5889C147.197 85.577 144.107 82.3215 140.691 81.9167C140.018 81.8551 139.342 81.8551 138.669 81.9167C134.299 82.3215 130.724 86.9848 126.063 86.9584C121.067 86.9584 118.039 82.2511 113.334 81.9167C107.49 81.5032 104.577 86.9936 99.2093 86.9584C96.6493 86.9584 94.6366 85.7002 92.668 84.5299C90.4081 83.1925 87.9452 81.3448 84.2287 82.0135C79.8149 82.8054 77.1665 87.0552 72.329 86.9584C66.5645 86.844 63.9426 81.2568 57.825 81.9167C55.777 82.1367 54.0379 83.3333 52.4666 84.2484C50.5598 85.3747 48.5471 86.888 45.6869 86.9584C44.9101 86.9584 44.1774 86.7209 43.9214 87.0552C43.9744 89.6948 43.8596 88.5246 43.9214 91.041C43.9214 91.349 43.7095 91.8769 44.1597 92.0705C50.4186 93.0823 52.9874 87.1168 58.9108 87.1168C64.4635 87.1168 67.1824 92.3256 72.4702 92.2552C77.2019 92.1937 81.2979 87.064 85.906 87.1168C90.514 87.1696 94.6719 92.2552 99.227 92.2552C103.641 92.2552 108.011 87.2048 112.548 87.1168C117.35 87.0288 120.643 91.5162 124.907 92.1585C130.362 93.0384 134.229 87.2576 139.42 87.1168C144.187 86.9848 148.512 92.3344 153.217 92.2552C157.764 92.1761 161.877 87.0728 166.538 87.1168C170.458 87.1168 173.106 90.0996 176.531 91.5162C183.452 94.367 187.336 87.24 193.18 87.1168C198.389 87.02 202.511 92.9416 207.931 92.1585C211.463 91.6481 214.358 88.639 217.562 87.5831C218.977 87.0747 220.508 86.9771 221.976 87.3016C226.09 88.1815 229.542 92.2552 233.752 92.2552C238.237 92.2552 242.58 87.1168 247.197 87.1168C251.814 87.1168 256.122 92.2552 260.633 92.2552C265.382 92.2552 269.514 87.064 274.192 87.1168C278.871 87.1696 282.808 92.2552 287.513 92.2552C292.218 92.2552 296.111 87.1784 300.834 87.1168C305.557 87.0552 309.662 92.2552 314.394 92.2552C319.125 92.2552 323.151 87.0904 327.953 87.1168C332.755 87.1432 336.595 92.2552 341.274 92.2552C346.571 92.2552 350.517 85.885 356.617 87.3016C360.395 88.1815 363.511 91.7801 367.439 92.1585C372.842 92.6776 376.655 87.152 381.564 87.1168C386.216 87.1168 390.515 92.2552 395.123 92.2552C399.537 92.2552 403.668 87.2048 408.365 87.1168C413.202 87.0288 417.457 92.3168 422.162 92.2552C427.044 92.1849 430.672 87.0552 435.598 87.1168C440.524 87.1784 443.914 92.2552 448.919 92.2552C453.73 92.2552 457.2 87.1168 462.364 87.1168C467.245 87.1168 470.9 92.3168 475.923 92.2552C480.469 92.1937 484.221 87.24 489.006 87.1168C493.985 86.9936 497.719 92.1233 502.442 92.2552C503.282 92.2676 504.12 92.1459 504.922 91.8945C508.895 90.8387 511.49 87.1168 516.177 87.1168C521.73 87.1168 524.449 92.3256 529.737 92.2552C534.46 92.1937 538.565 87.064 543.173 87.1168C547.781 87.1696 551.939 92.2552 556.494 92.2552C561.049 92.2552 565.321 87.2048 569.815 87.1168C574.617 87.0288 577.91 91.5162 582.173 92.1585C587.629 93.0384 591.495 87.2576 596.686 87.1168C601.444 86.9848 605.779 92.3344 610.484 92.2552C615.03 92.1761 619.144 87.0728 623.805 87.1168C627.724 87.1168 630.373 90.0996 633.798 91.5162C640.719 94.367 644.603 87.24 650.447 87.1168C654.578 87.0376 658.03 90.7419 661.985 91.8857C661.717 90.1362 661.655 88.3615 661.799 86.5977Z" fill="#004A9B"/>
<path d="M585.837 113.328H585.66C580.673 113.328 577.636 108.621 572.94 108.287C567.087 107.873 564.182 113.363 558.815 113.328C556.255 113.328 554.251 112.07 552.274 110.9C550.023 109.562 547.551 107.715 543.835 108.375C539.421 109.166 536.772 113.425 531.944 113.328C526.179 113.214 523.549 107.627 517.431 108.287C515.383 108.507 513.644 109.694 512.081 110.618C511.34 111.058 510.581 111.542 509.76 111.991C508.625 112.57 507.416 112.993 506.167 113.249C505.9 113.286 505.632 113.31 505.363 113.319H505.037C504.631 113.319 504.251 113.24 503.96 113.249C499.308 112.616 495.724 107.917 490.851 108.287C486.975 108.577 484.124 111.876 480.619 112.95C475.261 114.604 471.792 110.416 467.537 108.85C461.048 106.43 457.076 113.161 451.488 113.328C446.439 113.478 443.331 108.656 438.52 108.287C433.709 107.917 430.496 112.14 426.161 113.135C420.344 114.481 417.06 109.07 412.125 108.375C411.218 108.242 410.296 108.242 409.389 108.375C405.654 109.017 402.609 112.413 399.043 113.135C393.499 114.261 390.586 109.774 386.313 108.568C379.789 106.712 376.002 113.363 370.494 113.328C365.374 113.328 361.904 107.794 356.228 108.287C352.053 108.647 348.062 113.249 343.869 113.328C338.423 113.434 335.342 107.82 329.48 108.287C325.163 108.63 321.279 113.24 316.989 113.328C312.081 113.416 308.408 108.595 304.03 108.287C302.506 108.184 300.983 108.488 299.616 109.166C296.332 110.645 293.437 113.381 289.906 113.372C284.732 113.372 281.422 107.847 275.631 108.331C271.667 108.656 268.454 112.343 264.808 113.179C259.291 114.455 255.831 109.457 251.249 108.515C244.187 107.055 241.397 114.622 234.476 113.179C230.442 112.299 227.238 108.577 223.3 108.331C222.054 108.236 220.801 108.422 219.637 108.876C216.062 110.205 212.981 113.355 209.176 113.355C204.453 113.355 201.125 108.683 196.447 108.313C195.815 108.251 195.18 108.251 194.549 108.313C190.461 108.797 186.692 113.443 182.19 113.355C176.355 113.24 172.93 106.65 166.371 108.683C162.036 110.029 158.576 114.666 152.935 112.976C149.563 111.973 146.473 108.718 143.065 108.313C142.393 108.251 141.716 108.251 141.044 108.313C136.63 108.718 133.099 113.381 128.438 113.355C123.441 113.355 120.405 108.647 115.708 108.313C109.856 107.899 106.951 113.39 101.584 113.355C101.116 113.346 100.649 113.296 100.189 113.205C100.557 114.762 100.781 116.35 100.86 117.948C100.86 118.168 100.86 118.379 100.86 118.599C101.097 118.627 101.336 118.641 101.575 118.643C105.989 118.643 110.359 113.601 114.896 113.513C119.698 113.416 122.982 117.912 127.255 118.555C132.702 119.435 136.577 113.654 141.768 113.513C146.526 113.381 150.851 118.722 155.557 118.643C160.103 118.572 164.217 113.469 168.878 113.513C172.806 113.513 175.454 116.487 178.871 117.912C185.8 120.772 189.676 113.645 195.52 113.513C200.737 113.416 204.851 119.329 210.271 118.555C213.802 118.044 216.697 115.035 219.902 113.979C221.317 113.471 222.847 113.373 224.316 113.698C228.421 114.578 231.872 118.643 236.092 118.643C240.576 118.643 244.92 113.513 249.528 113.513C254.136 113.513 258.461 118.643 262.972 118.643C267.721 118.643 271.844 113.451 276.532 113.513C281.219 113.575 285.147 118.643 289.853 118.643C294.558 118.643 298.442 113.566 303.174 113.513C307.905 113.46 312.001 118.643 316.733 118.643C321.465 118.643 325.481 113.478 330.283 113.513C335.086 113.548 338.935 118.643 343.604 118.643C348.901 118.643 352.856 112.281 358.947 113.698C362.725 114.578 365.842 118.176 369.77 118.555C375.172 119.065 378.995 113.539 383.894 113.513C388.546 113.513 392.837 118.643 397.454 118.643C401.867 118.643 405.999 113.601 410.651 113.513C415.497 113.416 419.744 118.713 424.449 118.643C429.33 118.581 432.959 113.451 437.893 113.513C442.828 113.575 446.2 118.643 451.214 118.643C456.017 118.643 459.495 113.513 464.65 113.513C469.541 113.513 473.186 118.713 478.209 118.643C482.765 118.581 486.516 113.627 491.292 113.513C496.28 113.39 500.005 118.52 504.728 118.643C505.569 118.663 506.407 118.544 507.208 118.291C511.181 117.235 513.776 113.513 518.464 113.513C524.016 113.513 526.744 118.713 532.023 118.643C536.755 118.581 540.851 113.451 545.459 113.513C550.067 113.575 554.225 118.643 558.78 118.643C563.335 118.643 567.608 113.601 572.101 113.513C576.912 113.416 580.196 117.912 584.46 118.555C584.977 118.629 585.501 118.647 586.022 118.608C585.747 116.862 585.685 115.089 585.837 113.328Z" fill="#004A9B"/>
<path d="M629.755 30.6729H1.6543V35.9081H629.755V30.6729Z" fill="#0055A6"/>
</g>
<defs>
<clipPath id="clip0_105_970">
<rect width="683" height="118" fill="white" transform="translate(0.745117 0.633789)"/>
</clipPath>
</defs>
</svg>
