<svg width="575" height="243" viewBox="0 0 575 243" fill="none" xmlns="http://www.w3.org/2000/svg">
<g clip-path="url(#clip0_102_638)">
<path d="M62.0211 178.886V176.646H59.5771V167.974H55.222V176.646H53.3794V167.974H49.0243V176.646H46.5726V178.886H2.41235V197.494C9.94402 197.5 17.2398 200.123 23.0535 204.915L29.411 210.143C35.2028 214.916 42.4656 217.538 49.9684 217.564H526.633C534.136 217.537 541.398 214.915 547.19 210.143L553.548 204.915C559.36 200.125 566.652 197.502 574.181 197.494V178.886H530.021V176.646H527.554V167.974H523.199V176.646H521.357V167.974H517.002V176.646H514.55V178.886H62.0211Z" fill="white"/>
<path d="M7.14813 198.53C12.4435 199.573 17.3981 201.914 21.5687 205.342L27.9263 210.562C33.7152 215.34 40.9799 217.963 48.4837 217.983H525.156C532.66 217.963 539.924 215.34 545.713 210.562L552.071 205.342C556.242 201.914 561.196 199.573 566.491 198.53H7.14813Z" fill="#E30613"/>
<path fill-rule="evenodd" clip-rule="evenodd" d="M329.594 20.3695H409.882C414.656 20.3695 418.524 25.0862 418.524 30.9002V178.878H436.95V13.5269C436.95 6.82899 432.495 1.396 426.991 1.396H312.509C307.004 1.396 302.542 6.82899 302.542 13.5269V66.1041H320.945V30.9002C320.945 25.0862 324.821 20.3695 329.594 20.3695Z" stroke="#004A9B" stroke-width="2" stroke-miterlimit="10"/>
<path fill-rule="evenodd" clip-rule="evenodd" d="M169.506 80.9243H192.005C198.469 80.9243 203.699 84.8181 203.699 89.6186V178.39H157.803V89.6186C157.803 84.8333 163.042 80.9243 169.506 80.9243Z" stroke="#004A9B" stroke-width="2" stroke-miterlimit="10"/>
<path fill-rule="evenodd" clip-rule="evenodd" d="M255.146 178.116H369.735V80.2617C369.757 76.55 368.313 72.9796 365.718 70.328C363.123 67.6764 359.586 66.1582 355.877 66.104H269.003C267.164 66.1209 265.346 66.5008 263.654 67.2218C261.961 67.9429 260.427 68.9909 259.14 70.306C257.853 71.6211 256.838 73.1774 256.152 74.8858C255.467 76.5941 255.125 78.421 255.146 80.2617V178.116Z" stroke="#004A9B" stroke-width="2" stroke-miterlimit="10"/>
<path fill-rule="evenodd" clip-rule="evenodd" d="M288.289 66.1116H336.592V51.3442H288.289V66.1116Z" fill="#004A9B" stroke="#004A9B" stroke-width="2" stroke-miterlimit="10"/>
<path d="M60.5516 179.32V177.08H58.1V168.393H53.7449V177.072H51.9023V168.393H47.5472V177.072H45.0955V179.32H0.935242V197.928C8.46691 197.934 15.7627 200.557 21.5764 205.349L27.9263 210.562C33.7179 215.334 40.9814 217.954 48.4837 217.976H525.156C532.658 217.954 539.922 215.334 545.713 210.562L552.071 205.334C557.885 200.542 565.18 197.919 572.712 197.913V179.32H528.552V177.08H526.1V168.393H521.745V177.072H519.902V168.393H515.524V177.072H513.088V179.32H60.5516Z" stroke="#004A9B" stroke-width="2" stroke-miterlimit="10"/>
<path d="M208.983 109.271H152.512C151.179 109.271 150.098 110.352 150.098 111.686C150.098 113.02 151.179 114.102 152.512 114.102H208.983C210.316 114.102 211.397 113.02 211.397 111.686C211.397 110.352 210.316 109.271 208.983 109.271Z" fill="#004A9B" stroke="#004A9B" stroke-width="2" stroke-miterlimit="10"/>
<path d="M209.311 145.458H152.184C151.032 145.458 150.098 146.392 150.098 147.545V148.193C150.098 149.346 151.032 150.281 152.184 150.281H209.311C210.463 150.281 211.397 149.346 211.397 148.193V147.545C211.397 146.392 210.463 145.458 209.311 145.458Z" fill="#004A9B" stroke="#004A9B" stroke-width="2" stroke-miterlimit="10"/>
<path d="M572.689 187.984H0.927673V189.432H572.689V187.984Z" fill="#004A9B"/>
<path d="M70.0156 192.769C72.2569 192.769 74.0738 190.951 74.0738 188.708C74.0738 186.465 72.2569 184.646 70.0156 184.646C67.7744 184.646 65.9575 186.465 65.9575 188.708C65.9575 190.951 67.7744 192.769 70.0156 192.769Z" fill="#004A9B"/>
<path d="M70.0157 190.986C71.273 190.986 72.2922 189.966 72.2922 188.708C72.2922 187.45 71.273 186.43 70.0157 186.43C68.7584 186.43 67.7391 187.45 67.7391 188.708C67.7391 189.966 68.7584 190.986 70.0157 190.986Z" fill="#004A9B"/>
<path d="M82.0075 192.769C84.2487 192.769 86.0656 190.951 86.0656 188.708C86.0656 186.465 84.2487 184.646 82.0075 184.646C79.7662 184.646 77.9493 186.465 77.9493 188.708C77.9493 190.951 79.7662 192.769 82.0075 192.769Z" fill="#004A9B"/>
<path d="M82.0074 190.986C83.2647 190.986 84.284 189.966 84.284 188.708C84.284 187.45 83.2647 186.43 82.0074 186.43C80.7501 186.43 79.7309 187.45 79.7309 188.708C79.7309 189.966 80.7501 190.986 82.0074 190.986Z" fill="#004A9B"/>
<path d="M168.737 192.769C170.978 192.769 172.795 190.951 172.795 188.708C172.795 186.465 170.978 184.646 168.737 184.646C166.495 184.646 164.679 186.465 164.679 188.708C164.679 190.951 166.495 192.769 168.737 192.769Z" fill="#004A9B"/>
<path d="M168.737 190.986C169.994 190.986 171.013 189.966 171.013 188.708C171.013 187.45 169.994 186.43 168.737 186.43C167.479 186.43 166.46 187.45 166.46 188.708C166.46 189.966 167.479 190.986 168.737 190.986Z" fill="#004A9B"/>
<path d="M404.21 192.769C406.451 192.769 408.268 190.951 408.268 188.708C408.268 186.465 406.451 184.646 404.21 184.646C401.969 184.646 400.152 186.465 400.152 188.708C400.152 190.951 401.969 192.769 404.21 192.769Z" fill="#004A9B"/>
<path d="M404.21 190.986C405.467 190.986 406.487 189.966 406.487 188.708C406.487 187.45 405.467 186.43 404.21 186.43C402.953 186.43 401.933 187.45 401.933 188.708C401.933 189.966 402.953 190.986 404.21 190.986Z" fill="#004A9B"/>
<path d="M492.721 192.769C494.962 192.769 496.779 190.951 496.779 188.708C496.779 186.465 494.962 184.646 492.721 184.646C490.48 184.646 488.663 186.465 488.663 188.708C488.663 190.951 490.48 192.769 492.721 192.769Z" fill="#004A9B"/>
<path d="M492.721 190.986C493.978 190.986 494.998 189.966 494.998 188.708C494.998 187.45 493.978 186.43 492.721 186.43C491.464 186.43 490.444 187.45 490.444 188.708C490.444 189.966 491.464 190.986 492.721 190.986Z" fill="#004A9B"/>
<path d="M503.601 192.769C505.842 192.769 507.659 190.951 507.659 188.708C507.659 186.465 505.842 184.646 503.601 184.646C501.36 184.646 499.543 186.465 499.543 188.708C499.543 190.951 501.36 192.769 503.601 192.769Z" fill="#004A9B"/>
<path d="M503.601 190.986C504.858 190.986 505.878 189.966 505.878 188.708C505.878 187.45 504.858 186.43 503.601 186.43C502.344 186.43 501.325 187.45 501.325 188.708C501.325 189.966 502.344 190.986 503.601 190.986Z" fill="#004A9B"/>
<path d="M562.174 192.769C564.416 192.769 566.233 190.951 566.233 188.708C566.233 186.465 564.416 184.646 562.174 184.646C559.933 184.646 558.116 186.465 558.116 188.708C558.116 190.951 559.933 192.769 562.174 192.769Z" fill="#004A9B"/>
<path d="M562.174 190.986C563.432 190.986 564.451 189.966 564.451 188.708C564.451 187.45 563.432 186.43 562.174 186.43C560.917 186.43 559.898 187.45 559.898 188.708C559.898 189.966 560.917 190.986 562.174 190.986Z" fill="#004A9B"/>
<path d="M256.562 111.686H369.735" stroke="#004A9B" stroke-width="2" stroke-miterlimit="10"/>
<path d="M256.562 131.178H369.735" stroke="#004A9B" stroke-width="2" stroke-miterlimit="10"/>
<path d="M256.562 150.677H369.735" stroke="#004A9B" stroke-width="2" stroke-miterlimit="10"/>
<path d="M558.055 226.32V217.862C556.925 217.947 555.791 217.756 554.751 217.305C551.797 216.086 549.513 213.496 546.132 213.496C542.112 213.457 538.564 217.877 534.643 217.946C530.585 218.014 526.854 213.374 522.742 213.496C518.265 213.617 514.931 218.609 510.225 217.862C506.54 217.275 503.7 213.419 499.566 213.496C495.652 213.572 491.891 217.946 488.077 217.946C487.94 217.946 487.802 217.946 487.658 217.946C487.521 217.946 487.391 217.946 487.254 217.946C483.569 217.366 480.729 213.511 476.595 213.579C472.674 213.579 469.118 217.938 465.068 218.022C462.129 218.022 459.41 215.538 456.548 214.288L456.395 214.227C455.523 213.84 454.585 213.62 453.632 213.579H453.327C450.388 213.579 448.408 215.286 446.231 216.566V216.658C444.958 217.428 443.52 217.883 442.036 217.984C437.467 218.045 435.13 213.534 430.341 213.534C427.014 213.534 424.905 215.721 422.354 217.008C421.222 217.652 419.941 217.989 418.638 217.984C414.557 217.869 411.344 213.412 407.042 213.534C402.923 213.64 399.687 217.93 395.759 217.984C391.426 218.037 388.282 213.534 384.064 213.534C379.617 213.534 376.617 217.984 372.476 217.984C368.151 217.984 365.166 213.587 360.986 213.534C356.806 213.48 353.601 217.923 349.39 217.984C345.332 218.037 341.67 213.457 337.49 213.534C333.477 213.61 329.876 217.984 326.107 217.984C322.133 217.984 318.425 213.511 314.412 213.534C310.156 213.534 306.867 218.349 302.23 217.9C298.834 217.572 296.139 214.456 292.896 213.694C287.634 212.467 284.262 217.984 279.663 217.984C275.627 217.984 272.308 213.564 268.173 213.534C264.039 213.503 260.628 217.984 256.479 217.984C252.329 217.984 248.956 213.48 244.784 213.534C240.611 213.587 237.36 217.984 233.294 217.984C229.229 217.984 225.871 213.587 221.805 213.534C217.739 213.48 214.191 217.984 210.11 217.984C206.22 217.984 202.398 213.534 198.514 213.534C194.631 213.534 190.794 217.984 186.926 217.984C183.287 217.984 180.31 214.478 176.769 213.694C175.503 213.413 174.183 213.497 172.962 213.937C170.191 214.89 167.716 217.458 164.648 217.9C159.981 218.578 156.425 213.45 151.933 213.534C146.885 213.633 143.558 219.805 137.566 217.344C134.619 216.124 132.335 213.534 128.954 213.534C124.927 213.496 121.386 217.915 117.465 217.984C113.407 218.052 109.669 213.412 105.565 213.534C101.088 213.656 97.7529 218.647 93.0475 217.9C89.3624 217.313 86.5225 213.457 82.3881 213.534C78.4746 213.61 74.7058 217.984 70.8988 217.984C66.9625 217.984 63.4144 213.587 59.4096 213.534C55.4047 213.48 51.8947 217.923 47.8137 217.984C43.2454 218.045 40.9155 213.534 36.1188 213.534C33.1875 213.534 31.2003 215.241 29.0227 216.521V226.35L558.055 226.32Z" fill="white"/>
<path d="M560.027 214.89C556.89 213.96 554.317 211.08 550.936 210.813C550.392 210.763 549.844 210.763 549.299 210.813C545.782 211.24 542.523 215.263 538.64 215.179C533.6 215.08 530.646 209.38 524.996 211.141C521.25 212.307 518.265 216.315 513.4 214.859C510.492 213.991 507.834 211.171 504.888 210.813C504.308 210.76 503.724 210.76 503.144 210.813C499.337 211.164 496.292 215.21 492.272 215.179C487.962 215.179 485.343 211.103 481.293 210.813C476.245 210.455 473.74 215.21 469.11 215.179C466.902 215.179 465.166 214.09 463.469 213.084C461.519 211.925 459.388 210.318 456.182 210.897C452.375 211.583 450.091 215.263 445.926 215.179C440.954 215.08 438.693 210.242 433.409 210.813C431.65 211.011 430.15 212.04 428.795 212.84C428.156 213.213 427.501 213.602 426.8 214.029C425.818 214.527 424.773 214.891 423.694 215.111C423.464 215.145 423.233 215.168 423.001 215.179H422.727C422.377 215.179 422.042 215.111 421.79 215.118C417.786 214.562 414.687 210.501 410.484 210.813C407.149 211.072 404.682 213.922 401.667 214.859C397.038 216.292 394.053 212.665 390.383 211.301C384.787 209.213 381.353 215.034 376.534 215.179C372.179 215.316 369.506 211.133 365.349 210.813C361.192 210.493 358.428 214.158 354.69 215.019C349.672 216.177 346.84 211.491 342.584 210.897C341.801 210.782 341.006 210.782 340.223 210.897C337.01 211.453 334.376 214.394 331.3 215.019C326.518 215.995 324.006 212.108 320.328 211.057C314.694 209.457 311.435 215.21 306.684 215.179C302.268 215.179 299.276 210.386 294.373 210.813C290.779 211.133 287.338 215.111 283.713 215.179C279.016 215.271 276.351 210.417 271.303 210.813C267.572 211.11 264.23 215.111 260.529 215.179C256.296 215.263 253.121 211.087 249.344 210.813C248.031 210.726 246.717 210.989 245.538 211.575C242.705 212.855 240.208 215.225 237.124 215.21C232.663 215.21 229.807 210.424 224.813 210.843C221.394 211.133 218.63 214.318 215.478 215.05C210.719 216.155 207.742 211.826 203.783 211.011C197.692 209.746 195.294 216.299 189.317 215.05C185.837 214.288 183.074 211.064 179.678 210.843C178.639 210.785 177.601 210.951 176.632 211.331C173.587 212.489 170.891 215.217 167.602 215.21C163.529 215.21 160.658 211.171 156.631 210.843C156.084 210.794 155.533 210.794 154.986 210.843C151.469 211.27 148.21 215.293 144.327 215.21C139.294 215.111 136.332 209.411 130.683 211.171C126.937 212.337 123.96 216.345 119.087 214.89C116.186 214.021 113.521 211.202 110.575 210.843C109.995 210.79 109.411 210.79 108.831 210.843C105.024 211.194 101.979 215.24 97.9584 215.21C93.649 215.21 91.0374 211.133 86.9793 210.843C81.9389 210.485 79.4263 215.24 74.7971 215.21C72.5891 215.21 70.8531 214.12 69.1553 213.114C67.2061 211.956 65.0819 210.348 61.8688 210.927C58.0619 211.613 55.7777 215.293 51.613 215.21C46.6411 215.111 44.3798 210.272 39.0958 210.843C37.337 211.042 35.8371 212.07 34.4818 212.87C32.8372 213.838 31.1013 215.156 28.6344 215.21C27.9644 215.21 27.3324 215.004 27.1116 215.294C27.1573 217.579 27.0507 216.574 27.1116 218.745C27.1116 219.02 26.9289 219.469 27.3172 219.637C32.7078 220.513 34.931 215.347 40.0399 215.347C44.829 215.347 47.1741 219.858 51.7348 219.797C55.8082 219.744 59.3486 215.301 63.3231 215.347C67.2975 215.393 70.8836 219.797 74.8123 219.797C78.6193 219.797 82.4262 215.423 86.3016 215.347C90.4436 215.271 93.2835 219.157 96.961 219.713C101.666 220.475 105.001 215.476 109.478 215.347C113.582 215.24 117.32 219.865 121.379 219.797C125.3 219.728 128.848 215.316 132.868 215.347C136.248 215.347 138.533 217.93 141.487 219.157C147.456 221.626 150.806 215.454 155.846 215.347C160.339 215.263 163.894 220.391 168.562 219.713C171.607 219.271 174.112 216.665 176.876 215.758C178.095 215.31 179.417 215.226 180.683 215.514C184.231 216.276 187.2 219.797 190.84 219.797C194.708 219.797 198.454 215.347 202.436 215.347C206.418 215.347 210.133 219.797 214.024 219.797C218.12 219.797 221.683 215.301 225.719 215.347C229.754 215.393 233.15 219.797 237.208 219.797C241.266 219.797 244.616 215.4 248.697 215.347C252.778 215.294 256.311 219.797 260.392 219.797C264.473 219.797 267.945 215.324 272.087 215.347C276.229 215.37 279.541 219.797 283.576 219.797C288.145 219.797 291.548 214.288 296.809 215.514C300.068 216.276 302.748 219.393 306.144 219.713C310.803 220.163 314.093 215.377 318.326 215.347C322.338 215.347 326.046 219.797 330.021 219.797C333.828 219.797 337.391 215.431 341.441 215.347C345.614 215.271 349.276 219.85 353.342 219.797C357.552 219.744 360.682 215.301 364.93 215.347C369.179 215.393 372.095 219.797 376.419 219.797C380.561 219.797 383.561 215.347 388.008 215.347C392.226 215.347 395.37 219.858 399.703 219.797C403.631 219.744 406.867 215.454 410.986 215.347C415.288 215.248 418.509 219.69 422.582 219.797C423.305 219.81 424.024 219.707 424.714 219.492C428.148 218.578 430.379 215.347 434.422 215.347C439.218 215.347 441.564 219.858 446.117 219.797C450.198 219.744 453.73 215.301 457.712 215.347C461.695 215.393 465.265 219.797 469.202 219.797C473.009 219.797 476.778 215.423 480.691 215.347C484.833 215.271 487.673 219.157 491.35 219.713C496.056 220.475 499.391 215.476 503.868 215.347C507.971 215.24 511.71 219.865 515.768 219.797C519.689 219.728 523.23 215.316 527.257 215.347C530.638 215.347 532.922 217.93 535.869 219.157C541.845 221.626 545.188 215.454 550.236 215.347C553.799 215.278 556.776 218.486 560.18 219.477C559.951 217.959 559.9 216.419 560.027 214.89Z" fill="#004A9B"/>
<path d="M494.51 238.039H494.358C490.049 238.039 487.437 233.962 483.386 233.673C478.338 233.315 475.826 238.07 471.204 238.039C468.996 238.039 467.268 236.949 465.562 235.936C463.613 234.778 461.489 233.178 458.284 233.757C454.477 234.435 452.193 238.123 448.02 238.039C443.048 237.94 440.787 233.101 435.511 233.673C433.744 233.863 432.244 234.892 430.889 235.692C430.249 236.073 429.595 236.5 428.894 236.881C427.904 237.394 426.849 237.768 425.757 237.993C425.53 238.026 425.301 238.046 425.072 238.054H424.767C424.417 238.054 424.09 237.978 423.839 237.993C419.826 237.437 416.727 233.368 412.532 233.688C409.19 233.94 406.73 236.797 403.708 237.734C399.086 239.159 396.094 235.532 392.424 234.176C386.828 232.088 383.401 237.91 378.574 238.054C374.227 238.184 371.547 234.008 367.397 233.688C363.248 233.368 360.476 237.026 356.738 237.894C351.72 239.052 348.888 234.366 344.632 233.772C343.849 233.654 343.054 233.654 342.271 233.772C339.051 234.321 336.424 237.269 333.348 237.894C328.567 238.862 326.046 234.983 322.369 233.932C316.742 232.324 313.476 238.085 308.725 238.054C304.309 238.054 301.317 233.261 296.413 233.688C292.82 234 289.378 237.986 285.754 238.054C281.056 238.146 278.391 233.284 273.343 233.688C269.613 233.985 266.27 237.986 262.57 238.054C258.336 238.138 255.169 233.962 251.393 233.688C250.079 233.598 248.764 233.861 247.586 234.45C244.753 235.723 242.256 238.1 239.172 238.085C234.718 238.085 231.863 233.299 226.868 233.719C223.45 234.008 220.678 237.193 217.534 237.925C212.775 239.03 209.791 234.694 205.839 233.879C199.748 232.621 197.342 239.212 191.373 237.925C187.893 237.163 185.129 233.94 181.726 233.719C180.687 233.657 179.648 233.824 178.68 234.206C175.635 235.357 172.94 238.092 169.658 238.085C165.585 238.085 162.714 234.039 158.679 233.719C158.132 233.669 157.581 233.669 157.034 233.719C153.517 234.138 150.258 238.161 146.375 238.085C141.342 237.986 138.388 232.286 132.731 234.046C128.993 235.204 126.008 239.22 121.143 237.765C118.234 236.888 115.569 234.069 112.63 233.719C112.048 233.665 111.462 233.665 110.879 233.719C107.072 234.069 104.027 238.108 100.007 238.085C95.7048 238.085 93.0856 234.008 89.0351 233.719C83.9871 233.36 81.4821 238.115 76.8529 238.085C76.4516 238.08 76.0516 238.039 75.6575 237.963C75.9759 239.308 76.1671 240.681 76.2286 242.062C76.2286 242.253 76.2286 242.436 76.2286 242.626C76.4331 242.653 76.639 242.668 76.8453 242.672C80.6522 242.672 84.4591 238.298 88.3346 238.222C92.4841 238.146 95.3165 242.032 98.994 242.588C103.692 243.35 107.027 238.344 111.504 238.222C115.615 238.108 119.346 242.741 123.404 242.672C127.325 242.603 130.873 238.184 134.893 238.222C138.281 238.222 140.566 240.805 143.512 242.032C149.489 244.501 152.831 238.329 157.872 238.222C162.364 238.138 165.92 243.266 170.595 242.588C173.64 242.146 176.137 239.54 178.901 238.626C180.122 238.186 181.442 238.101 182.708 238.382C186.249 239.144 189.226 242.672 192.857 242.672C196.725 242.672 200.471 238.222 204.453 238.222C208.435 238.222 212.158 242.672 216.042 242.672C220.145 242.672 223.701 238.176 227.736 238.222C231.772 238.268 235.175 242.672 239.226 242.672C243.276 242.672 246.642 238.275 250.715 238.222C254.788 238.169 258.329 242.672 262.41 242.672C266.491 242.672 269.963 238.199 274.105 238.222C278.247 238.245 281.566 242.672 285.594 242.672C290.162 242.672 293.566 237.155 298.827 238.382C302.086 239.144 304.773 242.26 308.161 242.588C312.821 243.038 316.11 238.252 320.344 238.222C324.356 238.222 328.056 242.672 332.031 242.672C335.838 242.672 339.401 238.298 343.452 238.222C347.632 238.146 351.294 242.725 355.352 242.672C359.562 242.611 362.692 238.169 366.94 238.222C371.189 238.275 374.113 242.672 378.43 242.672C382.579 242.672 385.579 238.222 390.025 238.222C394.244 238.222 397.388 242.725 401.72 242.672C405.641 242.619 408.877 238.321 413.004 238.222C417.306 238.115 420.519 242.558 424.592 242.672C425.318 242.683 426.04 242.577 426.732 242.36C430.158 241.445 432.397 238.222 436.439 238.222C441.229 238.222 443.574 242.733 448.134 242.672C452.215 242.611 455.786 238.176 459.723 238.222C463.659 238.268 467.283 242.672 471.212 242.672C475.019 242.672 478.788 238.298 482.701 238.222C486.843 238.146 489.683 242.032 493.361 242.588C493.807 242.655 494.258 242.673 494.708 242.641C494.456 241.121 494.39 239.576 494.51 238.039Z" fill="#004A9B"/>
</g>
<defs>
<clipPath id="clip0_102_638">
<rect width="574" height="242" fill="white" transform="translate(0.16626 0.633789)"/>
</clipPath>
</defs>
</svg>
