<svg width="582" height="283" viewBox="0 0 582 283" fill="none" xmlns="http://www.w3.org/2000/svg">
<g clip-path="url(#clip0_102_873)">
<path d="M557.523 236.897C557.523 236.897 558.247 220.404 558.31 213.268L58.5487 213.331L53.0367 223.208L55.4935 235.392L557.523 236.897Z" fill="#E30613"/>
<path d="M200.025 163.057H147.874L155.961 145.265H200.025V163.057Z" fill="#004A9B"/>
<path fill-rule="evenodd" clip-rule="evenodd" d="M199.93 138.176H157.583L151.795 154.567H199.93V138.176Z" stroke="#004A9B" stroke-width="3" stroke-miterlimit="10"/>
<path d="M140.071 104.08V131.426L120.739 121.006L123.188 126.299L140.071 178.502V128.67" stroke="#004A9B" stroke-width="3" stroke-miterlimit="10"/>
<path d="M199.931 138.176V189.671" stroke="#004A9B" stroke-width="3" stroke-miterlimit="10"/>
<path d="M115.598 196.822H66.3678L63.1709 205.525" stroke="#004A9B" stroke-width="3" stroke-miterlimit="10"/>
<path d="M537.64 155.488H564.342" stroke="#004A9B" stroke-width="3" stroke-miterlimit="10"/>
<path d="M564.342 155.488H537.641L522.073 189.616" stroke="#004A9B" stroke-width="3" stroke-miterlimit="10"/>
<path d="M128.204 189.671H564.342" stroke="#004A9B" stroke-width="3" stroke-miterlimit="10"/>
<path d="M332.351 143.39H318.249L308.083 159.087" stroke="#004A9B" stroke-width="3" stroke-miterlimit="10"/>
<path fill-rule="evenodd" clip-rule="evenodd" d="M55.336 237.527L55.1707 243.638L88.1873 264.117L483.206 267.582C483.206 267.582 506.041 261.809 522.672 254.539C538.696 247.608 544.499 236.967 544.499 236.967H55.336V237.527Z" fill="#E30613" stroke="#004A9B" stroke-width="3" stroke-miterlimit="10"/>
<path d="M92.6442 212.795L125.873 189.671H131.905" stroke="#004A9B" stroke-width="3" stroke-miterlimit="10"/>
<path d="M125.873 189.671L92.6442 212.795L563.413 213.3" stroke="#004A9B" stroke-width="3" stroke-miterlimit="10"/>
<path d="M544.302 236.96H564.342V213.315V205.526L563.933 143.335H539.79V151.022L521.246 189.616" stroke="#004A9B" stroke-width="3" stroke-miterlimit="10"/>
<path d="M55.336 236.96L52.2887 223.192L63.1709 205.526" stroke="#004A9B" stroke-width="3" stroke-miterlimit="10"/>
<path d="M92.6441 212.795L58.3755 213.315" stroke="#004A9B" stroke-width="3" stroke-miterlimit="10"/>
<path fill-rule="evenodd" clip-rule="evenodd" d="M376.943 136.191H366.077C365.921 136.193 365.766 136.226 365.623 136.288C365.479 136.35 365.349 136.439 365.24 136.551C365.132 136.663 365.046 136.795 364.988 136.94C364.93 137.085 364.901 137.24 364.903 137.396V147.084H378.093V137.396C378.099 137.084 377.982 136.783 377.766 136.557C377.551 136.331 377.255 136.2 376.943 136.191Z" stroke="#004A9B" stroke-width="3" stroke-miterlimit="10"/>
<path fill-rule="evenodd" clip-rule="evenodd" d="M419.866 136.191H409.015C408.859 136.193 408.705 136.226 408.562 136.288C408.419 136.35 408.29 136.439 408.182 136.551C408.073 136.663 407.988 136.796 407.931 136.941C407.874 137.086 407.846 137.241 407.85 137.396V147.084H421.039V137.396C421.041 137.24 421.012 137.085 420.954 136.94C420.897 136.795 420.811 136.663 420.702 136.551C420.593 136.439 420.463 136.35 420.32 136.288C420.176 136.226 420.022 136.193 419.866 136.191Z" stroke="#004A9B" stroke-width="3" stroke-miterlimit="10"/>
<path fill-rule="evenodd" clip-rule="evenodd" d="M462.788 136.191H451.906C451.592 136.198 451.293 136.328 451.075 136.554C450.857 136.779 450.736 137.082 450.741 137.396V147.084H463.93V137.396C463.934 137.086 463.817 136.787 463.604 136.562C463.391 136.337 463.098 136.204 462.788 136.191Z" stroke="#004A9B" stroke-width="3" stroke-miterlimit="10"/>
<path d="M483.355 126.566L483.395 189.671" stroke="#004A9B" stroke-width="3" stroke-miterlimit="10"/>
<path d="M332.351 143.39H336.115L345.36 126.566H483.355V134.529" stroke="#004A9B" stroke-width="3" stroke-miterlimit="10"/>
<path d="M502.175 81.4201L404.534 81.2153" stroke="#004A9B" stroke-width="3" stroke-miterlimit="10"/>
<path fill-rule="evenodd" clip-rule="evenodd" d="M441.228 0.633789H439.047V21.1277H436.055V4.00481H433.874L433.897 23.4118H439.047V49.8129H436.055V32.6979H433.874L433.897 52.1049H439.047V67.5501H441.228V0.633789Z" fill="#004A9B"/>
<path fill-rule="evenodd" clip-rule="evenodd" d="M454.465 38.7151V67.55H456.646V38.7151H466.418V36.3838H444.693V38.7151H454.465Z" fill="#004A9B"/>
<path d="M354.746 126.567L363.738 108.908H411.101L411.424 91.9193L403.668 81.1131L410.968 67.5503H497.584L502.175 81.4203L490.537 108.908H480.828V126.181" stroke="#004A9B" stroke-width="3" stroke-miterlimit="10"/>
<path fill-rule="evenodd" clip-rule="evenodd" d="M426.834 86.8784H436.724C437.233 86.8888 437.717 87.0999 438.071 87.4657C438.425 87.8316 438.62 88.3226 438.614 88.8317V96.4323C438.62 96.9406 438.425 97.4308 438.071 97.7954C437.717 98.16 437.233 98.3694 436.724 98.3777H426.834C426.326 98.3694 425.842 98.16 425.488 97.7954C425.133 97.4308 424.938 96.9406 424.944 96.4323V88.8317C424.938 88.3226 425.133 87.8316 425.487 87.4657C425.841 87.0999 426.325 86.8888 426.834 86.8784Z" stroke="#004A9B" stroke-width="3" stroke-miterlimit="10"/>
<path fill-rule="evenodd" clip-rule="evenodd" d="M449.024 86.8784H458.922C459.431 86.8888 459.915 87.0999 460.269 87.4657C460.623 87.8316 460.818 88.3226 460.812 88.8317V96.4323C460.818 96.9406 460.623 97.4308 460.269 97.7954C459.914 98.16 459.43 98.3694 458.922 98.3777H449.024C448.516 98.3694 448.032 98.16 447.677 97.7954C447.323 97.4308 447.128 96.9406 447.134 96.4323V88.8317C447.128 88.3226 447.323 87.8316 447.677 87.4657C448.031 87.0999 448.515 86.8888 449.024 86.8784Z" stroke="#004A9B" stroke-width="3" stroke-miterlimit="10"/>
<path fill-rule="evenodd" clip-rule="evenodd" d="M472.379 86.8784H479.97C480.479 86.8888 480.963 87.0999 481.317 87.4657C481.671 87.8316 481.866 88.3226 481.859 88.8317V96.4323C481.866 96.9406 481.671 97.4308 481.316 97.7954C480.962 98.16 480.478 98.3694 479.97 98.3777H472.379C471.872 98.3673 471.39 98.157 471.037 97.7927C470.685 97.4283 470.491 96.9393 470.497 96.4323V88.8317C470.491 88.324 470.685 87.8341 471.037 87.4685C471.389 87.1028 471.871 86.8908 472.379 86.8784Z" stroke="#004A9B" stroke-width="3" stroke-miterlimit="10"/>
<path fill-rule="evenodd" clip-rule="evenodd" d="M203.639 195.105H198.253C198.119 195.108 197.986 195.136 197.863 195.189C197.739 195.243 197.628 195.32 197.534 195.416C197.44 195.513 197.367 195.627 197.317 195.752C197.268 195.877 197.243 196.011 197.245 196.145V206.605C197.243 206.876 197.348 207.137 197.536 207.331C197.725 207.526 197.982 207.638 198.253 207.644H203.639C203.774 207.642 203.906 207.614 204.03 207.56C204.153 207.507 204.265 207.43 204.358 207.333C204.452 207.237 204.526 207.123 204.575 206.998C204.625 206.873 204.649 206.739 204.647 206.605V196.161C204.651 196.025 204.628 195.89 204.58 195.763C204.531 195.636 204.458 195.52 204.364 195.422C204.27 195.324 204.158 195.245 204.034 195.191C203.909 195.137 203.775 195.107 203.639 195.105Z" stroke="#004A9B" stroke-width="3" stroke-miterlimit="10"/>
<path fill-rule="evenodd" clip-rule="evenodd" d="M217.325 195.106H211.939C211.668 195.116 211.413 195.233 211.229 195.43C211.045 195.628 210.946 195.891 210.954 196.161V206.621C210.952 206.892 211.057 207.152 211.245 207.347C211.434 207.541 211.691 207.654 211.962 207.66H217.348C217.483 207.658 217.615 207.63 217.739 207.576C217.862 207.523 217.974 207.446 218.067 207.349C218.161 207.253 218.235 207.139 218.284 207.014C218.334 206.889 218.358 206.755 218.356 206.621V196.161C218.36 196.023 218.337 195.886 218.287 195.758C218.237 195.629 218.161 195.512 218.065 195.414C217.969 195.315 217.853 195.237 217.726 195.184C217.599 195.131 217.462 195.104 217.325 195.106Z" stroke="#004A9B" stroke-width="3" stroke-miterlimit="10"/>
<path fill-rule="evenodd" clip-rule="evenodd" d="M230.876 195.105H225.498C225.226 195.11 224.966 195.221 224.776 195.416C224.586 195.611 224.48 195.873 224.482 196.145V206.605C224.48 206.877 224.586 207.139 224.776 207.334C224.966 207.529 225.226 207.64 225.498 207.644H230.876C231.149 207.64 231.408 207.529 231.598 207.334C231.789 207.139 231.894 206.877 231.892 206.605V196.161C231.895 196.025 231.871 195.889 231.822 195.762C231.772 195.636 231.698 195.52 231.604 195.422C231.51 195.323 231.397 195.245 231.272 195.191C231.147 195.136 231.012 195.108 230.876 195.105Z" stroke="#004A9B" stroke-width="3" stroke-miterlimit="10"/>
<path fill-rule="evenodd" clip-rule="evenodd" d="M316.847 195.105H311.469C311.197 195.11 310.937 195.221 310.747 195.416C310.557 195.611 310.451 195.873 310.453 196.145V206.605C310.451 206.877 310.557 207.139 310.747 207.334C310.937 207.529 311.197 207.64 311.469 207.644H316.847C317.119 207.64 317.379 207.529 317.569 207.334C317.759 207.139 317.865 206.877 317.863 206.605V196.161C317.866 196.025 317.842 195.889 317.793 195.762C317.743 195.636 317.669 195.52 317.575 195.422C317.48 195.323 317.367 195.245 317.242 195.191C317.118 195.136 316.983 195.108 316.847 195.105Z" stroke="#004A9B" stroke-width="3" stroke-miterlimit="10"/>
<path fill-rule="evenodd" clip-rule="evenodd" d="M404.661 196.751H393.826C393.511 196.758 393.211 196.888 392.992 197.113C392.772 197.339 392.65 197.642 392.652 197.957V207.644H405.85V197.957C405.851 197.799 405.821 197.643 405.761 197.498C405.702 197.352 405.615 197.22 405.505 197.108C405.394 196.996 405.263 196.907 405.118 196.846C404.973 196.784 404.818 196.752 404.661 196.751Z" stroke="#004A9B" stroke-width="3" stroke-miterlimit="10"/>
<path fill-rule="evenodd" clip-rule="evenodd" d="M428.929 196.751H418.047C417.732 196.758 417.432 196.888 417.213 197.113C416.993 197.339 416.871 197.642 416.873 197.957V207.644H430.094V197.957C430.098 197.642 429.978 197.339 429.76 197.114C429.541 196.888 429.243 196.758 428.929 196.751Z" stroke="#004A9B" stroke-width="3" stroke-miterlimit="10"/>
<path fill-rule="evenodd" clip-rule="evenodd" d="M450.622 196.751H439.772C439.457 196.758 439.157 196.888 438.938 197.113C438.718 197.339 438.596 197.642 438.598 197.957V207.644H451.788V197.957C451.792 197.642 451.672 197.339 451.453 197.114C451.235 196.888 450.936 196.758 450.622 196.751Z" stroke="#004A9B" stroke-width="3" stroke-miterlimit="10"/>
<path d="M139.716 189.671V180.708L141.37 177.132L157.583 138.176" stroke="#004A9B" stroke-width="3" stroke-miterlimit="10"/>
<path fill-rule="evenodd" clip-rule="evenodd" d="M563.626 257.044C566.834 255.015 570.546 253.923 574.342 253.893C574.681 253.893 575.012 253.893 575.35 253.893V142.13H551.476V255.595C552.836 255.936 554.156 256.421 555.413 257.044H563.626Z" fill="#004A9B"/>
<path d="M176.513 166.727C188.324 166.727 197.899 161.099 197.899 154.157C197.899 147.214 188.324 141.586 176.513 141.586C164.701 141.586 155.126 147.214 155.126 154.157C155.126 161.099 164.701 166.727 176.513 166.727Z" fill="white" stroke="#004A9B" stroke-width="3" stroke-miterlimit="10"/>
<path d="M182.111 147.328H179.749V145.202H177.67V143.083H175.308V145.202H173.245V147.328H170.882V148.266C170.882 148.266 171.796 148.533 172.772 148.848C176.41 150.014 176.599 150.006 180.158 148.848C180.158 148.848 182.08 148.242 182.087 148.266C182.095 148.289 182.111 147.328 182.111 147.328ZM175.111 147.076H173.946V145.832H175.15L175.111 147.076ZM177.174 144.926H175.993V143.713H177.174V144.926ZM179.245 147.068H178.048V145.832H179.245V147.068Z" fill="#004A9B"/>
<path d="M164.709 148.533C166.907 148.533 169.092 148.868 171.19 149.526C174.016 150.526 174.796 150.935 176.505 150.935C178.521 150.935 181.678 149.565 182.371 149.36C182.922 149.195 183.891 148.714 188.316 148.573L186.851 149.809C184.651 149.899 182.492 150.435 180.505 151.384C179.23 151.899 177.878 152.198 176.505 152.267V153.495C177.667 153.46 178.821 153.277 179.938 152.952C181.473 152.448 184.261 151.377 185.332 151.377C185.332 151.377 184.387 152.085 183.245 153.101C181.576 154.582 179.221 156.543 176.505 156.52V154.685C175.706 154.642 174.914 154.512 174.142 154.299C172.749 153.913 169.512 152.55 167.347 152.566L164.709 148.533Z" fill="#004A9B"/>
<path d="M165.197 158.623H164.496C164.425 158.618 164.354 158.641 164.299 158.686C164.243 158.731 164.207 158.796 164.197 158.867L163.685 160.82C163.685 160.946 163.615 161.104 163.583 161.293C163.52 161.009 163.481 160.852 163.481 160.828L162.969 158.867C162.957 158.797 162.921 158.733 162.866 158.688C162.81 158.643 162.741 158.62 162.67 158.623H161.992C161.953 158.619 161.914 158.624 161.877 158.637C161.84 158.651 161.806 158.672 161.778 158.7C161.751 158.728 161.729 158.761 161.716 158.798C161.703 158.835 161.697 158.875 161.701 158.914L161.567 162.309H162.268L162.386 159.221L163.016 161.584C163.026 161.657 163.063 161.724 163.12 161.771C163.177 161.817 163.25 161.841 163.323 161.836H163.819C163.892 161.839 163.964 161.815 164.021 161.769C164.077 161.722 164.115 161.657 164.126 161.584L164.741 159.221L164.859 162.277H165.567L165.418 158.883C165.418 158.686 165.315 158.591 165.134 158.591L165.197 158.623ZM167.678 158.552C167.462 158.53 167.244 158.556 167.04 158.628C166.836 158.7 166.65 158.817 166.497 158.969C166.279 159.438 166.166 159.949 166.166 160.466C166.166 160.983 166.279 161.493 166.497 161.962C166.832 162.231 167.248 162.377 167.678 162.377C168.107 162.377 168.524 162.231 168.859 161.962C169.077 161.493 169.189 160.983 169.189 160.466C169.189 159.949 169.077 159.438 168.859 158.969C168.704 158.816 168.517 158.698 168.311 158.626C168.106 158.554 167.887 158.529 167.67 158.552H167.678ZM168.276 161.482C168.202 161.567 168.111 161.635 168.008 161.682C167.906 161.729 167.794 161.753 167.682 161.753C167.569 161.753 167.457 161.729 167.355 161.682C167.252 161.635 167.161 161.567 167.087 161.482C166.867 160.822 166.867 160.109 167.087 159.45C167.161 159.365 167.252 159.296 167.355 159.25C167.457 159.203 167.569 159.179 167.682 159.179C167.794 159.179 167.906 159.203 168.008 159.25C168.111 159.296 168.202 159.365 168.276 159.45C168.496 160.109 168.496 160.822 168.276 161.482ZM172.04 160.749C171.978 160.685 171.903 160.634 171.82 160.6C171.999 160.573 172.16 160.477 172.268 160.332C172.39 160.133 172.447 159.903 172.434 159.67C172.452 159.514 172.434 159.356 172.382 159.207C172.33 159.058 172.246 158.923 172.134 158.812C171.841 158.627 171.495 158.544 171.15 158.575C170.583 158.575 170.142 158.575 169.835 158.623V162.293H170.552V160.844H171.166C171.255 160.839 171.342 160.866 171.412 160.921C171.482 160.977 171.529 161.056 171.544 161.143L171.843 162.293H172.631L172.292 161.12C172.267 160.974 172.199 160.839 172.095 160.734L172.04 160.749ZM171.583 160.135C171.454 160.229 171.294 160.272 171.134 160.253H170.52V159.182H171.134C171.292 159.166 171.451 159.205 171.583 159.292C171.631 159.35 171.666 159.417 171.686 159.488C171.707 159.56 171.712 159.636 171.701 159.71C171.711 159.785 171.705 159.861 171.685 159.934C171.665 160.007 171.63 160.075 171.583 160.135ZM176.418 161.301C176.418 161.356 176.418 161.435 176.418 161.545C176.412 161.613 176.412 161.681 176.418 161.75H176.308C176.308 161.608 176.308 161.458 176.237 161.293L175.796 158.859C175.782 158.793 175.749 158.733 175.701 158.686C175.653 158.645 175.592 158.623 175.528 158.623H174.89C174.823 158.618 174.756 158.641 174.705 158.685C174.653 158.729 174.621 158.791 174.615 158.859L174.174 161.285C174.174 161.403 174.127 161.561 174.095 161.75H174.048C174.048 161.561 174.048 161.403 173.993 161.285L173.568 158.646H172.78L173.41 162.12C173.414 162.151 173.424 162.182 173.44 162.209C173.456 162.236 173.478 162.259 173.505 162.277C173.555 162.314 173.616 162.334 173.678 162.332H174.355C174.422 162.335 174.488 162.315 174.544 162.277C174.592 162.236 174.625 162.181 174.638 162.12L175.087 159.592C175.087 159.513 175.087 159.387 175.15 159.198H175.198C175.212 159.33 175.233 159.461 175.261 159.592L175.709 162.12C175.719 162.184 175.753 162.242 175.805 162.281C175.856 162.321 175.921 162.339 175.985 162.332H176.67C176.732 162.334 176.793 162.314 176.843 162.277C176.892 162.238 176.926 162.182 176.938 162.12L177.568 158.646H176.78L176.339 161.324L176.418 161.301ZM178.828 159.284C178.85 159.262 178.877 159.245 178.907 159.234C178.937 159.223 178.969 159.219 179.001 159.221H180.442V158.654C180.127 158.654 179.591 158.607 178.867 158.607C178.655 158.598 178.447 158.668 178.284 158.804C178.21 158.87 178.151 158.952 178.112 159.043C178.073 159.134 178.053 159.232 178.056 159.332V161.6C178.053 161.699 178.073 161.798 178.112 161.889C178.151 161.98 178.21 162.062 178.284 162.128C178.448 162.261 178.656 162.328 178.867 162.317C179.599 162.317 180.135 162.317 180.442 162.317V161.75H179.001C178.97 161.753 178.938 161.75 178.908 161.741C178.878 161.731 178.851 161.715 178.828 161.694C178.79 161.63 178.773 161.556 178.78 161.482V160.694H180.245V160.119H178.772V159.521C178.765 159.447 178.782 159.372 178.82 159.308L178.828 159.284ZM183.332 160.993C183.332 161.159 183.332 161.34 183.332 161.545C183.332 161.474 183.261 161.372 183.198 161.246C183.159 161.164 183.124 161.079 183.095 160.993L182.111 158.843C182.089 158.778 182.048 158.72 181.993 158.678C181.942 158.637 181.877 158.618 181.812 158.623H181.308C181.27 158.618 181.232 158.621 181.196 158.633C181.16 158.645 181.127 158.665 181.099 158.692C181.072 158.718 181.051 158.751 181.038 158.787C181.025 158.822 181.021 158.861 181.024 158.898V162.293H181.733V159.844C181.742 159.681 181.742 159.518 181.733 159.355C181.791 159.527 181.86 159.696 181.938 159.859L182.946 162.073C182.966 162.138 183.007 162.194 183.063 162.234C183.118 162.274 183.185 162.294 183.253 162.293H183.765C183.802 162.298 183.84 162.295 183.876 162.283C183.912 162.271 183.944 162.251 183.971 162.224C183.998 162.197 184.018 162.165 184.03 162.129C184.042 162.093 184.046 162.055 184.04 162.017V158.607H183.339V160.97L183.332 160.993ZM187.048 160.993C187.048 161.159 187.048 161.34 187.048 161.545L186.914 161.246L186.804 160.993L185.828 158.843C185.806 158.778 185.765 158.72 185.71 158.678C185.658 158.639 185.594 158.619 185.529 158.623H185.025C184.987 158.618 184.949 158.621 184.912 158.633C184.876 158.645 184.843 158.665 184.816 158.692C184.789 158.718 184.768 158.751 184.755 158.787C184.742 158.822 184.737 158.861 184.741 158.898V162.293H185.45V159.844C185.459 159.681 185.459 159.518 185.45 159.355C185.508 159.527 185.576 159.696 185.655 159.859L186.662 162.073C186.683 162.138 186.724 162.194 186.779 162.234C186.835 162.274 186.901 162.294 186.97 162.293H187.481C187.519 162.298 187.557 162.295 187.593 162.283C187.629 162.271 187.661 162.251 187.688 162.224C187.715 162.197 187.735 162.165 187.747 162.129C187.759 162.093 187.762 162.055 187.757 162.017V158.607H187.048V160.97V160.993ZM190.363 158.82C190.352 158.759 190.318 158.705 190.268 158.669C190.218 158.632 190.157 158.616 190.096 158.623H189.458C189.398 158.618 189.338 158.635 189.29 158.671C189.242 158.708 189.209 158.761 189.198 158.82L188.119 162.293H188.859L189.151 161.269H190.434L190.733 162.293H191.474L190.379 158.804L190.363 158.82ZM189.316 160.718L189.663 159.513L189.741 159.229H189.828C189.828 159.229 189.828 159.339 189.899 159.513L190.245 160.718H189.316Z" fill="#E30613"/>
<path fill-rule="evenodd" clip-rule="evenodd" d="M482.111 188.938H200.049L219.616 157.851H482.111V188.938Z" stroke="#004A9B" stroke-width="3" stroke-miterlimit="10"/>
<path d="M252.688 163.23L249.215 181.102C249.168 181.334 249.039 181.542 248.851 181.687C248.663 181.832 248.429 181.903 248.192 181.889H245.278C245.039 181.914 244.8 181.847 244.609 181.7C244.419 181.553 244.292 181.339 244.255 181.102L241.625 167.397C241.451 166.46 241.325 165.759 241.255 165.294H240.703L240.31 167.397L237.711 181.102C237.674 181.335 237.547 181.544 237.357 181.684C237.166 181.834 236.93 181.914 236.687 181.913H233.743C233.507 181.934 233.272 181.864 233.087 181.717C232.901 181.571 232.778 181.359 232.743 181.125L229.278 163.254H232.057L234.664 177.479C234.711 177.778 234.813 178.573 234.979 179.841H235.577C235.672 179.054 235.798 178.266 235.971 177.479L238.577 164.152C238.594 163.901 238.707 163.667 238.894 163.499C239.081 163.331 239.326 163.243 239.577 163.254H242.381C242.5 163.252 242.619 163.274 242.73 163.319C242.84 163.364 242.941 163.43 243.026 163.514C243.212 163.681 243.337 163.906 243.381 164.152L245.963 177.502C246.097 178.219 246.231 179.007 246.357 179.865H246.955C246.995 179.613 247.042 179.227 247.113 178.707C247.184 178.187 247.247 177.794 247.302 177.542L249.9 163.27L252.688 163.23Z" fill="#004A9B"/>
<path d="M277.649 163.231L274.184 181.102C274.136 181.335 274.005 181.543 273.815 181.688C273.626 181.832 273.391 181.904 273.153 181.889H270.24C270.001 181.912 269.762 181.844 269.572 181.698C269.382 181.551 269.255 181.338 269.216 181.102L266.586 167.397C266.413 166.46 266.287 165.759 266.224 165.294H265.665L265.271 167.397L262.672 181.102C262.656 181.218 262.616 181.329 262.555 181.429C262.494 181.53 262.413 181.616 262.318 181.685C262.128 181.835 261.891 181.915 261.649 181.913H258.704C258.468 181.934 258.234 181.864 258.048 181.717C257.862 181.571 257.739 181.359 257.704 181.125L254.263 163.231H257.05L259.649 177.455C259.704 177.754 259.806 178.55 259.964 179.818H260.562C260.654 179.024 260.785 178.236 260.956 177.455L263.554 164.128C263.572 163.878 263.687 163.645 263.873 163.478C264.06 163.31 264.304 163.222 264.554 163.231H267.365C267.606 163.229 267.838 163.323 268.011 163.49C268.191 163.662 268.315 163.885 268.365 164.128L270.94 177.479C271.082 178.195 271.208 178.983 271.334 179.842H271.932C271.969 179.589 272.024 179.204 272.098 178.684C272.169 178.164 272.224 177.77 272.279 177.518L274.877 163.246L277.649 163.231Z" fill="#004A9B"/>
<path d="M302.634 163.23L299.146 181.102C299.099 181.334 298.969 181.542 298.781 181.687C298.593 181.832 298.359 181.903 298.122 181.889H295.209C294.97 181.912 294.731 181.844 294.541 181.698C294.351 181.551 294.224 181.338 294.185 181.102L291.563 167.397C291.382 166.46 291.264 165.759 291.193 165.294H290.642L290.248 167.397L287.642 181.102C287.626 181.218 287.587 181.33 287.526 181.43C287.465 181.531 287.384 181.617 287.287 181.684C287.097 181.836 286.861 181.917 286.618 181.913H283.681C283.445 181.935 283.209 181.866 283.023 181.72C282.837 181.573 282.714 181.36 282.681 181.125L279.208 163.254H281.996L284.594 177.479C284.649 177.778 284.752 178.573 284.909 179.841H285.516C285.607 179.048 285.739 178.259 285.909 177.479L288.516 164.152C288.53 163.902 288.642 163.668 288.828 163.5C289.013 163.332 289.258 163.243 289.508 163.254H292.319C292.438 163.252 292.557 163.274 292.668 163.319C292.779 163.364 292.88 163.43 292.965 163.514C293.147 163.684 293.272 163.907 293.319 164.152L295.894 177.502C296.035 178.219 296.169 179.007 296.287 179.865H296.894C296.894 179.613 296.98 179.227 297.051 178.707C297.122 178.187 297.185 177.794 297.232 177.542L299.839 163.27L302.634 163.23Z" fill="#004A9B"/>
<path d="M305.445 178.534H306.233C306.493 178.507 306.753 178.577 306.965 178.731C307.13 178.943 307.206 179.212 307.178 179.479V180.913C307.213 181.193 307.137 181.476 306.965 181.7C306.758 181.863 306.495 181.94 306.233 181.913H305.445C305.183 181.941 304.92 181.864 304.713 181.7C304.541 181.476 304.465 181.193 304.5 180.913V179.479C304.472 179.212 304.548 178.943 304.713 178.731C304.924 178.576 305.185 178.506 305.445 178.534Z" fill="#004A9B"/>
<path d="M325.525 163.23H328.391C329.068 163.23 329.43 163.6 329.469 164.341L330.202 181.881H327.572L326.942 165.443H326.414L322.769 178.746C322.73 179.013 322.593 179.255 322.384 179.426C322.176 179.596 321.911 179.683 321.643 179.668H319.351C319.079 179.687 318.809 179.603 318.596 179.432C318.383 179.261 318.242 179.016 318.201 178.746L314.461 165.443H313.965L313.359 181.85H310.752L311.437 164.309C311.477 163.569 311.831 163.199 312.516 163.199H315.438C315.7 163.198 315.955 163.29 316.156 163.459C316.358 163.627 316.494 163.862 316.54 164.12L319.611 175.037C319.784 175.69 319.989 176.525 320.217 177.557H320.69C320.902 176.596 321.107 175.753 321.32 175.013L324.343 164.152C324.398 163.882 324.547 163.641 324.763 163.472C324.98 163.303 325.25 163.217 325.525 163.23Z" fill="#004A9B"/>
<path d="M356.242 163.23L352.769 181.102C352.722 181.334 352.593 181.542 352.405 181.687C352.217 181.832 351.983 181.903 351.746 181.889H348.832C348.594 181.912 348.355 181.844 348.165 181.698C347.975 181.551 347.847 181.338 347.809 181.102L345.179 167.397C345.005 166.46 344.879 165.759 344.808 165.294H344.257L343.864 167.397L341.265 181.102C341.228 181.335 341.101 181.544 340.911 181.684C340.72 181.835 340.484 181.915 340.241 181.913H337.296C337.061 181.934 336.826 181.864 336.64 181.717C336.455 181.571 336.332 181.359 336.296 181.125L332.832 163.254H335.611L338.218 177.479C338.265 177.778 338.375 178.573 338.533 179.841H339.139C339.227 179.047 339.358 178.258 339.533 177.479L342.131 164.152C342.147 163.901 342.261 163.667 342.448 163.499C342.635 163.331 342.88 163.243 343.131 163.254H345.942C346.061 163.253 346.178 163.275 346.287 163.32C346.397 163.364 346.496 163.43 346.58 163.514C346.766 163.681 346.89 163.906 346.935 164.152L349.541 177.479C349.675 178.195 349.809 178.983 349.935 179.841H350.533C350.533 179.589 350.62 179.203 350.691 178.684C350.761 178.164 350.824 177.77 350.88 177.518L353.478 163.246L356.242 163.23Z" fill="#004A9B"/>
<path d="M365.699 174.178L362.021 173.123C360.902 172.885 359.913 172.236 359.25 171.303C358.648 170.248 358.362 169.043 358.423 167.83C358.397 166.957 358.509 166.085 358.754 165.247C358.941 164.626 359.347 164.095 359.895 163.75C360.446 163.402 361.063 163.171 361.707 163.073C362.593 162.948 363.488 162.892 364.384 162.907C366.222 162.875 368.057 163.065 369.848 163.475L369.691 165.451C367.155 165.357 365.423 165.31 364.494 165.31C363.562 165.229 362.625 165.375 361.762 165.735C361.305 166.013 361.077 166.738 361.077 167.909C361.009 168.594 361.181 169.282 361.565 169.854C362.028 170.313 362.617 170.623 363.258 170.744L366.864 171.745C368.007 171.987 369.02 172.64 369.715 173.58C370.318 174.631 370.605 175.835 370.541 177.045C370.541 179.093 370.087 180.461 369.179 181.149C368.271 181.837 366.667 182.178 364.368 182.173C362.455 182.173 360.546 181.993 358.667 181.637L358.848 179.637C361.578 179.726 363.436 179.77 364.423 179.77C365.369 179.85 366.319 179.662 367.163 179.227C367.628 178.888 367.864 178.148 367.864 177.014C367.931 176.318 367.765 175.62 367.392 175.029C366.921 174.589 366.333 174.294 365.699 174.178Z" fill="#004A9B"/>
<path d="M387.219 163.23V181.881H384.589V173.099H376.66V181.881H374.03V163.23H376.66V170.776H384.589V163.23H387.219Z" fill="#004A9B"/>
<path d="M394.259 181.881H391.629V163.23H394.259V181.881Z" fill="#004A9B"/>
<path d="M398.676 181.881V163.23C400.162 163.073 402.261 162.994 404.975 162.994C407.233 162.994 408.787 163.406 409.637 164.231C410.487 165.066 410.913 166.594 410.913 168.878C410.913 171.162 410.503 172.729 409.692 173.556C408.881 174.383 407.409 174.801 405.29 174.801C403.953 174.8 402.617 174.719 401.29 174.556V181.881H398.676ZM401.298 172.477H404.928C405.873 172.559 406.814 172.277 407.558 171.689C408.031 171.201 408.267 170.256 408.267 168.846C408.267 167.436 408.031 166.483 407.558 166.011C406.809 165.437 405.866 165.174 404.928 165.278C403.172 165.278 401.967 165.278 401.298 165.278V172.477Z" fill="#004A9B"/>
<path d="M412.653 178.534H413.44C413.703 178.506 413.966 178.576 414.18 178.731C414.343 178.945 414.416 179.213 414.385 179.479V180.913C414.423 181.192 414.35 181.475 414.18 181.7C413.971 181.865 413.705 181.941 413.44 181.913H412.653C412.388 181.941 412.122 181.865 411.913 181.7C411.747 181.473 411.674 181.192 411.708 180.913V179.479C411.678 179.349 411.681 179.213 411.718 179.085C411.755 178.956 411.824 178.839 411.918 178.744C412.013 178.65 412.13 178.581 412.258 178.544C412.387 178.507 412.523 178.504 412.653 178.534Z" fill="#004A9B"/>
<path d="M429.945 179.502L430.204 181.558C428.449 182.028 426.635 182.245 424.818 182.204C422.194 182.204 420.338 181.485 419.251 180.046C418.165 178.607 417.64 176.11 417.677 172.556C417.677 169.011 418.202 166.517 419.251 165.073C420.301 163.629 422.157 162.907 424.818 162.907C426.506 162.884 428.191 163.067 429.834 163.451L429.575 165.53C428.004 165.378 426.428 165.304 424.85 165.309C423.181 165.309 422.028 165.835 421.393 166.885C420.755 167.924 420.433 169.823 420.433 172.556C420.433 175.289 420.755 177.187 421.393 178.234C422.031 179.282 423.181 179.81 424.85 179.81C426.554 179.84 428.257 179.738 429.945 179.502Z" fill="#004A9B"/>
<path d="M439.614 162.884C442.307 162.884 444.189 163.585 445.26 164.987C446.331 166.389 446.856 168.912 446.835 172.556C446.835 176.195 446.299 178.723 445.26 180.125C444.22 181.527 442.307 182.236 439.614 182.236C436.921 182.236 435.055 181.535 433.992 180.125C432.929 178.715 432.417 176.187 432.417 172.556C432.417 168.925 432.952 166.397 433.992 164.987C435.031 163.577 436.945 162.884 439.614 162.884ZM443.134 166.822C442.488 165.782 441.315 165.247 439.614 165.247C437.913 165.247 436.748 165.774 436.102 166.822C435.456 167.869 435.141 169.768 435.141 172.524C435.141 175.281 435.464 177.187 436.102 178.227C436.74 179.266 437.913 179.802 439.614 179.802C441.315 179.802 442.488 179.282 443.134 178.227C443.779 177.171 444.102 175.281 444.102 172.524C444.102 169.768 443.779 167.901 443.134 166.853V166.822Z" fill="#004A9B"/>
<path d="M465.048 163.23H467.914C468.591 163.23 468.954 163.6 468.993 164.341L469.725 181.881H467.095L466.465 165.475H465.938L462.261 178.746C462.222 179.013 462.085 179.255 461.876 179.426C461.668 179.596 461.403 179.683 461.134 179.668H458.843C458.571 179.687 458.301 179.603 458.088 179.432C457.875 179.261 457.734 179.016 457.693 178.746L453.985 165.443H453.481L452.874 181.85H450.268L450.953 164.309C450.992 163.569 451.347 163.199 452.032 163.199H454.953C455.216 163.198 455.47 163.29 455.672 163.459C455.874 163.627 456.009 163.862 456.056 164.12L459.127 175.037C459.3 175.69 459.505 176.525 459.733 177.557H460.205C460.418 176.596 460.623 175.753 460.835 175.013L463.883 164.12C463.943 163.859 464.092 163.628 464.305 163.465C464.518 163.303 464.781 163.22 465.048 163.23Z" fill="#004A9B"/>
<path d="M52.2887 223.192L0.807007 236.96" stroke="#004A9B" stroke-width="3" stroke-miterlimit="10"/>
<path d="M588.309 270.058V258.331C587.102 258.45 585.89 258.185 584.779 257.56C581.63 255.87 579.19 252.331 575.57 252.278C571.274 252.278 567.484 258.352 563.294 258.447C558.958 258.543 554.972 252.109 550.587 252.278C545.795 252.447 542.232 259.367 537.213 258.331C533.268 257.518 530.241 252.172 525.824 252.278C521.643 252.383 517.616 258.447 513.548 258.447C513.394 258.447 513.247 258.447 513.101 258.447C512.954 258.447 512.808 258.447 512.661 258.395C508.724 257.592 505.698 252.246 501.272 252.341C497.091 252.341 493.292 258.384 488.956 258.5C485.824 258.5 482.912 255.056 479.853 253.324L479.69 253.239C478.758 252.7 477.756 252.395 476.737 252.341H476.412C473.272 252.341 471.157 254.708 468.83 256.482V256.673C467.47 257.742 465.933 258.372 464.348 258.511C459.466 258.595 456.977 252.341 451.852 252.341C448.297 252.341 446.052 255.373 443.318 257.159C442.109 258.052 440.74 258.519 439.349 258.511C434.996 258.352 431.555 252.172 426.967 252.341C422.558 252.478 419.1 258.437 414.903 258.511C410.282 258.585 406.914 252.341 402.407 252.341C397.656 252.341 394.459 258.511 390.026 258.511C385.405 258.511 382.216 252.415 377.75 252.341C373.284 252.267 369.867 258.426 365.368 258.511C361.033 258.585 357.111 252.235 352.653 252.341C348.358 252.447 344.518 258.511 340.451 258.511C336.204 258.511 332.243 252.309 327.955 252.341C323.408 252.341 319.894 259.018 314.939 258.395C311.319 257.94 308.431 253.619 304.966 252.563C299.345 250.862 295.741 258.511 290.827 258.511C286.516 258.511 282.969 252.383 278.551 252.341C274.134 252.299 270.498 258.511 266.056 258.511C261.614 258.511 258.019 252.267 253.561 252.341C249.103 252.415 245.629 258.511 241.285 258.511C236.941 258.511 233.353 252.415 229.009 252.341C224.665 252.267 220.874 258.511 216.514 258.511C212.357 258.511 208.281 252.341 204.132 252.341C199.983 252.341 195.875 258.511 191.742 258.511C187.854 258.511 184.681 253.641 180.89 252.563C179.537 252.173 178.127 252.291 176.823 252.901C173.87 254.222 171.226 257.782 167.947 258.395C162.952 259.335 159.153 252.225 154.354 252.341C148.968 252.478 145.405 261.036 139.011 257.623C135.855 255.933 133.414 252.394 129.802 252.341C125.507 252.341 121.716 258.416 117.526 258.511C113.19 258.606 109.196 252.172 104.811 252.341C100.028 252.51 96.4648 259.43 91.4374 258.395C87.5 257.581 84.4656 252.235 80.0483 252.341C75.8669 252.447 71.8482 258.511 67.7725 258.511C63.5749 258.511 59.7839 252.415 55.4968 252.341C51.2096 252.267 47.4756 258.426 43.1152 258.511C38.2342 258.595 35.7368 252.341 30.6198 252.341C27.4797 252.341 25.3646 254.708 23.038 256.482V270.111L588.309 270.058Z" fill="white"/>
<path d="M581.453 253.957C578.208 252.996 575.555 250.018 572.059 249.743C571.493 249.692 570.924 249.692 570.358 249.743C566.72 250.176 563.35 254.343 559.334 254.256C554.129 254.153 551.074 248.262 545.223 250.081C541.357 251.287 538.27 255.429 533.239 253.925C530.231 253.027 527.475 250.105 524.427 249.743C523.828 249.688 523.224 249.688 522.624 249.743C518.727 250.105 515.537 254.287 511.38 254.256C506.923 254.256 504.222 250.042 500.025 249.743C494.812 249.373 492.214 254.287 487.426 254.256C485.143 254.256 483.348 253.13 481.592 252.082C479.576 250.885 477.379 249.231 474.064 249.829C470.127 250.538 467.764 254.343 463.449 254.256C458.308 254.153 455.969 249.152 450.504 249.743C448.685 249.948 447.134 251.011 445.732 251.838C445.071 252.224 444.394 252.625 443.669 253.067C442.654 253.583 441.573 253.959 440.457 254.185C440.231 254.216 439.995 254.24 439.748 254.256H439.457C439.094 254.256 438.756 254.185 438.496 254.193C434.346 253.618 431.141 249.42 426.803 249.743C423.346 250.011 420.803 252.956 417.677 253.925C412.897 255.398 409.802 251.657 406.007 250.247C400.219 248.089 396.676 254.106 391.684 254.256C387.188 254.39 384.416 250.074 380.124 249.743C375.833 249.412 372.967 253.2 369.1 254.09C363.911 255.288 360.99 250.444 356.588 249.829C355.779 249.711 354.957 249.711 354.147 249.829C350.816 250.404 348.092 253.445 344.919 254.09C339.974 255.099 337.367 251.082 333.564 249.995C327.745 248.341 324.367 254.287 319.453 254.256C314.886 254.256 311.792 249.302 306.721 249.743C303.004 250.074 299.445 254.185 295.697 254.256C290.838 254.35 288.082 249.325 282.862 249.743C279.004 250.05 275.547 254.185 271.72 254.256C267.342 254.343 264.066 250.026 260.16 249.743C258.802 249.654 257.443 249.926 256.223 250.53C253.294 251.854 250.711 254.303 247.522 254.287C242.916 254.287 239.963 249.341 234.79 249.774C231.254 250.074 228.396 253.366 225.136 254.122C220.222 255.264 217.136 250.79 213.049 249.948C206.75 248.64 204.261 255.414 198.088 254.122C194.482 253.374 191.631 250.003 188.111 249.774C187.037 249.715 185.963 249.887 184.962 250.278C181.812 251.476 179.024 254.295 175.623 254.287C171.418 254.287 168.449 250.113 164.276 249.774C163.71 249.723 163.141 249.723 162.575 249.774C158.937 250.207 155.567 254.374 151.551 254.287C146.346 254.185 143.291 248.294 137.441 250.113C133.574 251.318 130.488 255.461 125.456 253.957C122.448 253.059 119.692 250.137 116.645 249.774C116.045 249.719 115.441 249.719 114.842 249.774C110.904 250.137 107.755 254.319 103.597 254.287C99.1403 254.287 96.4395 250.074 92.2504 249.774C87.0298 249.404 84.4313 254.319 79.6516 254.287C77.3681 254.287 75.5806 253.161 73.8168 252.114C71.8089 250.916 69.6041 249.262 66.2891 249.861C62.3519 250.57 59.9897 254.374 55.6746 254.287C50.5327 254.185 48.1941 249.184 42.7372 249.774C40.9104 249.979 39.3592 251.042 37.9576 251.869C36.2567 252.87 34.4693 254.232 31.9102 254.287C31.2172 254.287 30.5637 254.075 30.3353 254.374C30.3826 256.737 30.2802 255.697 30.3353 257.942C30.3353 258.225 30.1463 258.73 30.5479 258.863C36.1308 259.769 38.4222 254.429 43.7058 254.429C48.6587 254.429 51.0839 259.092 55.8006 259.029C60.0212 258.974 63.6748 254.382 67.7852 254.429C71.8955 254.476 75.6043 259.029 79.6674 259.029C83.7305 259.029 87.5416 254.508 91.5496 254.429C95.8332 254.35 98.7702 258.367 102.574 258.942C107.44 259.73 110.889 254.555 115.519 254.429C119.771 254.319 123.629 259.1 127.826 259.029C131.881 258.958 135.551 254.398 139.708 254.429C143.205 254.429 145.567 257.099 148.622 258.367C154.803 260.919 158.26 254.539 163.473 254.429C168.119 254.342 171.796 259.643 176.631 258.942C179.78 258.485 182.363 255.831 185.221 254.854C186.482 254.392 187.849 254.305 189.159 254.602C192.82 255.39 195.899 259.029 199.655 259.029C203.655 259.029 207.529 254.429 211.647 254.429C215.766 254.429 219.616 259.029 223.632 259.029C227.868 259.029 231.553 254.382 235.727 254.429C239.9 254.476 243.42 259.029 247.609 259.029C251.798 259.029 255.278 254.484 259.491 254.429C263.704 254.374 267.365 259.029 271.586 259.029C275.807 259.029 279.397 254.405 283.681 254.429C287.964 254.453 291.398 259.029 295.563 259.029C300.288 259.029 303.807 253.326 309.248 254.602C312.619 255.39 315.398 258.611 318.902 258.942C323.721 259.407 327.123 254.461 331.501 254.429C335.651 254.429 339.478 259.029 343.588 259.029C347.525 259.029 351.21 254.516 355.399 254.429C359.722 254.35 363.51 259.084 367.707 259.029C372.061 258.966 375.297 254.382 379.691 254.429C384.085 254.476 387.109 259.029 391.573 259.029C395.865 259.029 398.967 254.429 403.566 254.429C407.92 254.429 411.18 259.092 415.661 259.029C419.716 258.974 423.062 254.539 427.33 254.429C431.771 254.327 435.102 258.919 439.315 259.029C440.065 259.042 440.812 258.936 441.528 258.714C445.071 257.769 447.386 254.429 451.567 254.429C456.52 254.429 458.945 259.092 463.662 259.029C467.883 258.974 471.536 254.382 475.647 254.429C479.757 254.476 483.466 259.029 487.529 259.029C491.466 259.029 495.364 254.508 499.411 254.429C503.695 254.35 506.632 258.367 510.435 258.942C515.301 259.73 518.75 254.555 523.38 254.429C527.624 254.319 531.491 259.1 535.688 259.029C539.743 258.958 543.412 254.398 547.57 254.429C551.066 254.429 553.428 257.099 556.483 258.367C562.657 260.919 566.122 254.539 571.334 254.429C575.019 254.358 578.098 257.674 581.626 258.698C581.388 257.129 581.33 255.539 581.453 253.957Z" fill="#004A9B"/>
<path d="M513.695 277.885H513.537C509.089 277.885 506.38 273.671 502.191 273.371C496.97 273.001 494.379 277.916 489.592 277.885C487.301 277.885 485.513 276.758 483.757 275.711C481.741 274.513 479.537 272.859 476.221 273.458C472.284 274.159 469.922 277.971 465.615 277.885C460.473 277.782 458.126 272.781 452.67 273.371C450.851 273.568 449.292 274.632 447.898 275.459C447.236 275.852 446.559 276.294 445.827 276.687C444.814 277.206 443.736 277.585 442.622 277.814C442.385 277.847 442.145 277.868 441.906 277.877H441.622C441.252 277.877 440.913 277.798 440.654 277.814C436.504 277.239 433.307 273.033 428.96 273.364C425.511 273.623 422.96 276.577 419.842 277.538C415.054 279.019 411.968 275.27 408.165 273.868C402.385 271.71 398.834 277.727 393.849 277.877C389.345 278.011 386.573 273.694 382.282 273.364C377.99 273.033 375.124 276.813 371.258 277.711C366.069 278.908 363.14 274.065 358.738 273.45C357.929 273.328 357.106 273.328 356.297 273.45C352.966 274.017 350.25 277.065 347.068 277.711C342.123 278.711 339.525 274.703 335.714 273.616C329.895 271.954 326.525 277.908 321.611 277.877C317.044 277.877 313.949 272.923 308.878 273.364C305.154 273.687 301.603 277.806 297.854 277.877C292.996 277.971 290.248 272.946 285.019 273.364C281.169 273.671 277.704 277.806 273.885 277.877C269.499 277.963 266.224 273.639 262.318 273.364C260.959 273.268 259.599 273.54 258.381 274.151C255.452 275.467 252.869 277.924 249.719 277.908C245.105 277.908 242.152 272.962 236.987 273.395C233.451 273.694 230.585 276.987 227.333 277.743C222.411 278.877 219.333 274.403 215.238 273.56C208.939 272.253 206.458 279.027 200.277 277.743C196.678 276.955 193.82 273.623 190.308 273.395C189.234 273.331 188.159 273.503 187.159 273.899C183.969 275.088 181.213 277.916 177.82 277.908C173.607 277.908 170.638 273.726 166.465 273.395C165.902 273.344 165.335 273.344 164.772 273.395C161.134 273.828 157.764 277.987 153.748 277.908C148.535 277.806 145.48 271.914 139.638 273.726C135.763 274.931 132.677 279.082 127.645 277.569C124.637 276.672 121.889 273.757 118.842 273.395C118.242 273.34 117.638 273.34 117.038 273.395C113.101 273.757 109.952 277.932 105.794 277.908C101.337 277.908 98.6285 273.694 94.4395 273.395C89.2188 273.025 86.6282 277.94 81.8407 277.908C81.4231 277.903 81.0067 277.861 80.5966 277.782C80.8685 279.176 81.0135 280.592 81.0296 282.012C81.0296 282.209 81.0296 282.398 81.0296 282.594C81.2412 282.622 81.4541 282.638 81.6675 282.642C85.6046 282.642 89.5417 278.121 93.5497 278.042C97.8333 277.963 100.77 281.98 104.574 282.555C109.432 283.343 112.889 278.168 117.519 278.042C121.763 277.924 125.629 282.713 129.826 282.642C133.881 282.571 137.543 278.003 141.708 278.042C145.205 278.042 147.567 280.712 150.614 281.98C156.795 284.532 160.252 278.152 165.473 278.042C170.119 277.955 173.796 283.256 178.623 282.555C181.773 282.098 184.355 279.444 187.222 278.459C188.484 278.004 189.849 277.917 191.159 278.207C194.82 278.995 197.899 282.642 201.663 282.642C205.663 282.642 209.537 278.042 213.647 278.042C217.758 278.042 221.616 282.642 225.64 282.642C229.876 282.642 233.561 277.995 237.735 278.042C241.908 278.089 245.42 282.642 249.617 282.642C253.814 282.642 257.279 278.097 261.499 278.042C265.72 277.987 269.373 282.642 273.594 282.642C277.814 282.642 281.429 278.011 285.76 278.074C290.09 278.137 293.468 282.673 297.642 282.673C302.366 282.673 305.886 276.971 311.327 278.239C314.69 279.027 317.469 282.248 320.981 282.587C325.792 283.051 329.202 278.105 333.58 278.074C337.73 278.074 341.564 282.673 345.675 282.673C349.612 282.673 353.297 278.152 357.447 278.074C361.77 277.995 365.557 282.728 369.754 282.673C374.108 282.61 377.345 278.018 381.746 278.074C386.148 278.129 389.156 282.673 393.629 282.673C397.912 282.673 401.015 278.074 405.613 278.074C409.976 278.074 413.228 282.728 417.708 282.673C421.771 282.618 425.118 278.176 429.378 278.074C433.827 277.963 437.15 282.555 441.37 282.673C442.118 282.684 442.862 282.575 443.575 282.35C447.118 281.405 449.433 278.074 453.615 278.074C458.567 278.074 461.001 282.736 465.709 282.673C469.93 282.61 473.584 278.026 477.702 278.074C481.82 278.121 485.513 282.673 489.584 282.673C493.521 282.673 497.419 278.152 501.466 278.074C505.75 277.995 508.679 282.012 512.49 282.587C512.951 282.656 513.419 282.674 513.884 282.642C513.629 281.069 513.565 279.472 513.695 277.885Z" fill="#004A9B"/>
<path fill-rule="evenodd" clip-rule="evenodd" d="M410.968 67.5503L403.668 81.1131L502.175 81.4203L497.584 67.5503H410.968Z" fill="#004A9B"/>
</g>
<defs>
<clipPath id="clip0_102_873">
<rect width="581" height="282" fill="white" transform="translate(0.499878 0.633789)"/>
</clipPath>
</defs>
</svg>
