<svg width="523" height="240" viewBox="0 0 523 240" fill="none" xmlns="http://www.w3.org/2000/svg">
<g clip-path="url(#clip0_102_935)">
<path d="M254.457 156.327C199.869 156.327 141.883 146.152 141.883 127.282C141.883 126.633 142.141 126.01 142.601 125.551C143.061 125.092 143.685 124.834 144.335 124.834H364.578C365.228 124.834 365.852 125.092 366.312 125.551C366.772 126.01 367.03 126.633 367.03 127.282C367.03 146.167 309.014 156.327 254.457 156.327ZM147.385 129.729C153.103 140.447 195.463 151.433 254.419 151.433C313.375 151.433 355.743 140.447 361.461 129.729H147.385Z" fill="#004A9B"/>
<path d="M254.457 201.499C192.362 201.499 141.883 168.206 141.883 127.282C141.883 126.633 142.141 126.01 142.601 125.551C143.061 125.092 143.685 124.834 144.335 124.834H364.578C365.228 124.834 365.852 125.092 366.312 125.551C366.772 126.01 367.03 126.633 367.03 127.282C367.03 168.206 316.514 201.499 254.457 201.499ZM146.788 129.729C148.801 166.822 196.306 196.597 254.419 196.597C312.533 196.597 360.045 166.845 362.058 129.729H146.788Z" fill="#004A9B"/>
<path d="M254.457 239.634C192.362 239.634 141.883 189.234 141.883 127.319C141.883 126.67 142.141 126.048 142.601 125.589C143.061 125.13 143.685 124.872 144.335 124.872H364.578C365.228 124.872 365.852 125.13 366.312 125.589C366.772 126.048 367.03 126.67 367.03 127.319C367.03 189.234 316.514 239.634 254.457 239.634ZM146.751 129.729C148.056 187.858 195.851 234.74 254.419 234.74C312.988 234.74 360.79 187.88 362.095 129.729H146.751Z" fill="#004A9B"/>
<path d="M254.457 239.634C213.453 239.634 180.076 189.234 180.076 127.319C180.076 126.67 180.334 126.048 180.794 125.589C181.254 125.13 181.878 124.872 182.529 124.872H326.414C326.737 124.871 327.057 124.934 327.355 125.056C327.654 125.179 327.925 125.359 328.154 125.586C328.382 125.814 328.563 126.084 328.687 126.381C328.811 126.678 328.875 126.997 328.875 127.319C328.808 189.234 295.46 239.634 254.457 239.634ZM184.966 129.729C185.809 187.858 216.644 234.74 254.419 234.74C292.195 234.74 323.007 187.88 323.88 129.729H184.966Z" fill="#004A9B"/>
<path d="M254.457 239.634C235.55 239.634 225.344 181.751 225.344 127.319C225.344 126.997 225.408 126.678 225.531 126.381C225.655 126.084 225.836 125.814 226.065 125.586C226.293 125.359 226.565 125.179 226.863 125.056C227.162 124.934 227.481 124.871 227.804 124.872H281.116C281.439 124.871 281.759 124.934 282.057 125.056C282.356 125.179 282.627 125.359 282.856 125.586C283.084 125.814 283.265 126.084 283.389 126.381C283.513 126.678 283.577 126.997 283.577 127.319C283.532 181.751 273.333 239.634 254.457 239.634ZM230.227 129.729C230.548 191.74 243.125 234.74 254.419 234.74C265.714 234.74 278.276 191.74 278.619 129.729H230.227Z" fill="#004A9B"/>
<path d="M318.885 121.882C318.683 122.864 318.504 123.86 318.296 124.857H256.879V121.882H251.966V127.282C251.966 127.606 252.031 127.928 252.157 128.227C252.282 128.526 252.466 128.798 252.698 129.025C252.93 129.253 253.205 129.433 253.506 129.553C253.808 129.674 254.131 129.734 254.457 129.729H320.316C320.875 129.73 321.417 129.54 321.852 129.191C322.287 128.842 322.59 128.354 322.709 127.81C323.142 125.861 323.544 123.875 323.932 121.859L318.885 121.882Z" fill="#004A9B"/>
<path d="M251.966 121.882V124.857H190.558C190.349 123.868 190.163 122.886 189.969 121.882H184.959C185.339 123.853 185.742 125.824 186.182 127.832C186.301 128.377 186.603 128.864 187.039 129.213C187.474 129.562 188.016 129.752 188.575 129.751H254.457C254.779 129.752 255.099 129.69 255.397 129.567C255.696 129.445 255.967 129.265 256.196 129.037C256.424 128.81 256.606 128.54 256.729 128.242C256.853 127.945 256.917 127.626 256.917 127.304V121.904L251.966 121.882Z" fill="#004A9B"/>
<path d="M173.299 96.347L178.629 110.427L184.72 110.182L193.86 106.083L203.754 110.427L214.154 106.79L231.547 112.681L240.299 108.687L249.059 110.427L258.035 108.798L258.229 66.3418L173.299 96.347Z" fill="#E30613"/>
<path d="M345.105 98.9353L339.774 113.016L333.683 112.77L324.543 108.664L314.65 113.016L304.25 109.378L286.857 115.269L278.105 111.275L269.345 113.016L260.369 111.387L260.167 68.9302L345.105 98.9353Z" fill="#E30613"/>
<path d="M322.746 90.7834C322.399 90.7853 322.053 90.7274 321.725 90.6123L258.087 68.4245L194.442 90.6123C193.941 90.7873 193.404 90.8303 192.881 90.737C192.359 90.6437 191.87 90.4173 191.461 90.0798C191.052 89.7423 190.738 89.3051 190.548 88.8107C190.358 88.3162 190.3 87.7812 190.379 87.2577L197.678 38.7466C198.43 33.573 201.034 28.846 205.008 25.4389C208.982 22.0317 214.058 20.1747 219.298 20.211H296.951C302.184 20.184 307.25 22.0453 311.215 25.4518C315.18 28.8582 317.777 33.58 318.527 38.7466L325.833 87.2577C325.91 87.7813 325.851 88.316 325.66 88.8099C325.469 89.3038 325.154 89.7402 324.744 90.0767C324.185 90.5443 323.476 90.7951 322.746 90.7834ZM219.26 26.3622C215.503 26.3395 211.865 27.6734 209.016 30.1177C206.167 32.562 204.301 35.9518 203.761 39.6615L197.215 83.1296L257.066 62.2658C257.725 62.035 258.442 62.035 259.101 62.2658L318.937 83.1296L312.391 39.6615C311.854 35.9613 309.997 32.5787 307.16 30.1354C304.324 27.6922 300.699 26.3523 296.951 26.3622H219.26Z" fill="#004A9B"/>
<path d="M299.561 57.3417C299.281 57.3412 299.003 57.3037 298.733 57.2302L257.26 45.7904C256.868 45.6825 256.502 45.4987 256.181 45.2494C255.861 45.0002 255.593 44.6904 255.392 44.3378C254.988 43.6257 254.883 42.7824 255.101 41.9933C255.32 41.2042 255.844 40.534 256.557 40.1302C257.271 39.7264 258.116 39.622 258.907 39.84L300.381 51.2797C301.094 51.4834 301.71 51.9364 302.115 52.556C302.521 53.1756 302.69 53.9202 302.59 54.6536C302.49 55.387 302.129 56.06 301.573 56.5496C301.017 57.0391 300.302 57.3124 299.561 57.3194V57.3417Z" fill="#004A9B"/>
<path d="M216.614 57.3414C215.864 57.3476 215.138 57.0809 214.572 56.5913C214.006 56.1018 213.638 55.4229 213.537 54.682C213.436 53.941 213.61 53.189 214.026 52.5667C214.441 51.9444 215.07 51.4946 215.794 51.3017L257.26 39.8619C258.051 39.6439 258.896 39.7484 259.61 40.1522C260.323 40.556 260.847 41.2262 261.066 42.0153C261.284 42.8043 261.179 43.6477 260.775 44.3598C260.37 45.0719 259.698 45.5944 258.907 45.8124L217.434 57.2521C217.166 57.3177 216.89 57.3477 216.614 57.3414Z" fill="#004A9B"/>
<path d="M280.095 26.3621H236.072C234.171 26.3621 232.635 24.5472 232.635 22.3083C232.635 10.3554 240.888 0.633789 251.042 0.633789H265.125C275.279 0.633789 283.539 10.3554 283.539 22.3083C283.532 24.5472 281.996 26.3621 280.095 26.3621Z" fill="#004A9B"/>
<path d="M340.766 118.319H258.087C257.269 118.319 256.484 117.995 255.905 117.417C255.326 116.84 255.001 116.056 255.001 115.24V65.1666C255 64.6753 255.118 64.1912 255.344 63.7546C255.57 63.3181 255.897 62.942 256.299 62.6579C256.7 62.3737 257.165 62.1898 257.652 62.1216C258.14 62.0533 258.637 62.1028 259.101 62.2658L345.507 92.3899C346.187 92.6266 346.761 93.0932 347.132 93.7088C347.502 94.3243 347.645 95.0498 347.535 95.7594C346.476 102.595 345.216 109.371 343.77 115.902C343.622 116.587 343.243 117.2 342.696 117.64C342.149 118.08 341.468 118.32 340.766 118.319ZM261.166 112.168H338.276C339.297 107.326 340.229 102.357 341.049 97.3511L261.166 69.4956V112.168Z" fill="#004A9B"/>
<path d="M258.087 118.319H175.431C174.734 118.315 174.058 118.074 173.517 117.636C172.975 117.198 172.598 116.589 172.449 115.909C170.958 109.215 169.728 102.61 168.669 95.7668C168.56 95.0564 168.703 94.3305 169.074 93.714C169.444 93.0976 170.018 92.6293 170.697 92.3899L257.103 62.2658C257.568 62.1028 258.065 62.0533 258.552 62.1216C259.04 62.1898 259.504 62.3737 259.906 62.6579C260.307 62.942 260.635 63.3181 260.861 63.7546C261.086 64.1912 261.204 64.6753 261.204 65.1666V115.24C261.205 115.647 261.124 116.05 260.968 116.426C260.811 116.802 260.581 117.143 260.291 117.43C260.001 117.716 259.657 117.943 259.279 118.095C258.9 118.248 258.495 118.324 258.087 118.319ZM177.906 112.168H255.001V69.4956L175.126 97.3511C175.938 102.357 176.855 107.244 177.906 112.168Z" fill="#004A9B"/>
<path d="M520.191 135.01V114.927C519.054 115.037 517.913 114.759 516.955 114.139C514.07 112.413 511.833 108.806 508.516 108.761C504.579 108.709 501.105 114.957 497.266 115.054C493.292 115.15 489.639 108.605 485.621 108.761C481.237 108.94 477.964 115.991 473.364 114.935C469.749 114.109 466.975 108.65 462.927 108.761C459.095 108.873 455.405 115.054 451.677 115.054C451.541 115.019 451.406 114.977 451.275 114.927C451.14 114.917 451.005 114.9 450.872 114.875C447.264 114.05 444.49 108.605 440.435 108.702C436.603 108.657 433.121 114.86 429.147 114.987C426.277 114.942 423.608 111.476 420.805 109.706L420.656 109.624C419.851 109.085 418.917 108.767 417.95 108.702H417.801H417.652C414.781 108.702 412.835 111.112 410.703 112.926V113.12C409.369 114.146 408.019 114.964 406.595 114.994C402.122 115.076 399.841 108.702 395.152 108.702C391.886 108.702 389.829 111.796 387.331 113.611C386.319 114.488 385.027 114.979 383.685 114.994C379.697 114.838 376.543 108.553 372.339 108.702C368.298 108.85 365.129 114.912 361.29 114.994C357.048 115.076 353.961 108.702 349.839 108.702C345.477 108.702 342.548 114.994 338.484 114.994C334.25 114.994 331.327 108.776 327.234 108.702C323.142 108.627 320.01 114.912 315.888 114.994C311.914 115.069 308.321 108.59 304.235 108.702C300.299 108.813 296.78 114.994 293.052 114.994C289.161 114.994 285.53 108.664 281.601 108.702C277.434 108.739 274.213 115.507 269.673 114.875C266.355 114.414 263.708 110.011 260.533 108.925C255.381 107.192 252.078 114.987 247.575 114.987C243.624 114.987 240.374 108.731 236.325 108.694C232.277 108.657 228.945 114.987 224.874 114.987C220.804 114.987 217.508 108.627 213.423 108.694C209.338 108.761 206.154 114.987 202.173 114.987C198.192 114.987 194.904 108.769 190.923 108.694C186.942 108.62 183.468 114.987 179.472 114.987C175.662 114.987 171.927 108.694 168.125 108.694C164.323 108.694 160.521 115.002 156.741 115.002C153.185 115.002 150.27 110.04 146.796 108.94C146.184 108.741 145.537 108.669 144.896 108.727C144.256 108.786 143.633 108.975 143.068 109.282C140.362 110.628 137.939 114.258 134.934 114.883C130.357 115.842 126.875 108.59 122.477 108.709C117.541 108.85 114.276 117.575 108.416 114.087C105.524 112.361 103.287 108.754 99.9768 108.709C96.0405 108.657 92.5663 114.905 88.7269 115.002C84.7533 115.098 81.1002 108.553 77.0744 108.709C72.6907 108.888 69.4253 115.939 64.818 114.883C61.2097 114.057 58.4289 108.597 54.3807 108.709C50.5487 108.821 46.8658 115.002 43.1307 115.002C39.3957 115.002 35.8097 108.783 31.8808 108.709C27.9519 108.635 24.5374 114.927 20.5414 115.002C16.0683 115.083 13.7795 108.709 9.09017 108.709C6.21245 108.709 4.27409 111.119 2.1419 112.934L0.16626 135.01H520.191Z" fill="white"/>
<path d="M522.099 110.055C519.028 109.148 516.515 106.336 513.205 106.083C512.67 106.027 512.13 106.027 511.595 106.083C508.15 106.492 504.96 110.419 501.157 110.338C496.23 110.241 493.337 104.677 487.798 106.396C484.137 107.534 481.215 111.446 476.451 110.025C473.603 109.177 470.994 106.425 468.108 106.083C467.541 106.024 466.969 106.024 466.401 106.083C462.711 106.418 459.691 110.367 455.755 110.338C451.535 110.338 448.978 106.366 445.005 106.083C440.069 105.726 437.609 110.367 433.076 110.338C430.914 110.338 429.215 109.274 427.552 108.292C425.643 107.162 423.563 105.592 420.425 106.157C416.697 106.827 414.461 110.419 410.375 110.338C405.507 110.241 403.293 105.518 398.126 106.083C396.397 106.269 394.928 107.273 393.601 108.054C392.975 108.419 392.334 108.835 391.648 109.215C390.686 109.702 389.663 110.057 388.606 110.271C388.384 110.305 388.16 110.327 387.935 110.338H387.659C387.316 110.338 386.996 110.271 386.75 110.278C382.821 109.743 379.786 105.771 375.678 106.083C372.406 106.329 369.998 109.118 367.038 110.025C362.513 111.424 359.583 107.883 355.989 106.552C350.51 104.514 347.155 110.196 342.428 110.338C338.171 110.472 335.547 106.388 331.484 106.083C327.421 105.778 324.707 109.341 321.047 110.181C316.126 111.312 313.36 106.738 309.193 106.157C308.427 106.046 307.648 106.046 306.882 106.157C303.728 106.7 301.156 109.572 298.144 110.181C293.462 111.134 290.995 107.34 287.394 106.314C281.884 104.752 278.686 110.367 274.034 110.338C269.71 110.338 266.78 105.659 261.979 106.083C258.46 106.388 255.09 110.271 251.542 110.338C246.942 110.427 244.332 105.689 239.39 106.083C235.736 106.373 232.464 110.271 228.84 110.338C224.695 110.419 221.594 106.343 217.896 106.083C216.613 105.984 215.326 106.228 214.169 106.79C211.395 108.039 208.95 110.353 205.93 110.338C201.569 110.338 198.773 105.674 193.883 106.083C190.528 106.358 187.822 109.467 184.735 110.181C180.083 111.26 177.161 107.035 173.291 106.239C167.327 105.005 164.971 111.401 159.127 110.181C155.72 109.475 153.013 106.291 149.681 106.083C148.664 106.021 147.647 106.181 146.699 106.552C143.679 107.682 141.077 110.345 137.864 110.338C133.876 110.338 131.065 106.395 127.114 106.083C126.578 106.027 126.039 106.027 125.503 106.083C122.059 106.492 118.868 110.419 115.066 110.338C110.138 110.241 107.246 104.677 101.706 106.396C98.0459 107.534 95.1234 111.446 90.3596 110.025C87.5117 109.177 84.9023 106.425 82.0246 106.083C81.4546 106.024 80.8799 106.024 80.3099 106.083C76.5823 106.418 73.6002 110.367 69.6638 110.338C65.4516 110.338 62.887 106.366 58.9209 106.083C53.9781 105.726 51.5253 110.367 46.9925 110.338C44.8305 110.338 43.1382 109.274 41.4682 108.292C39.5671 107.162 37.4796 105.592 34.341 106.157C30.6134 106.827 28.3768 110.419 24.2913 110.338C19.4305 110.241 17.2089 105.518 12.0424 106.083C10.3128 106.269 8.84411 107.273 7.51708 108.054C5.91421 108.999 4.21442 110.286 1.79147 110.338C1.13541 110.338 0.516625 110.137 0.300423 110.419C0.345154 112.651 0.248237 111.669 0.300423 113.789C0.300423 114.057 0.121498 114.496 0.501715 114.659C5.78747 115.515 7.95694 110.479 12.9594 110.479C17.6487 110.479 19.9524 114.875 24.4106 114.815C28.4066 114.763 31.8659 110.427 35.7575 110.479C39.6491 110.531 43.1605 114.815 47.0074 114.815C50.8543 114.815 54.4626 110.546 58.2574 110.479C62.3204 110.397 65.0938 114.198 68.6947 114.741C73.2945 115.485 76.5599 110.598 80.9436 110.479C84.9694 110.367 88.6225 114.882 92.5961 114.815C96.4356 114.748 99.9097 110.442 103.846 110.479C107.164 110.479 109.393 112.993 112.285 114.198C118.138 116.615 121.411 110.583 126.346 110.479C130.745 110.39 134.226 115.396 138.804 114.741C141.786 114.302 144.231 111.803 146.937 110.873C148.131 110.437 149.425 110.354 150.665 110.635C154.132 111.379 157.047 114.815 160.603 114.815C164.39 114.815 168.058 110.479 171.957 110.479C175.856 110.479 179.502 114.815 183.304 114.815C187.322 114.815 190.804 110.427 194.755 110.479C198.706 110.531 202.039 114.815 206.005 114.815C209.971 114.815 213.266 110.524 217.255 110.479C221.244 110.434 224.71 114.815 228.706 114.815C232.702 114.815 236.012 110.464 240.068 110.464C244.124 110.464 247.374 114.801 251.318 114.801C255.791 114.801 259.124 109.423 264.275 110.62C267.466 111.364 270.098 114.406 273.415 114.726C277.978 115.158 281.198 110.486 285.344 110.464C289.272 110.464 292.896 114.801 296.787 114.801C300.515 114.801 304.004 110.539 307.97 110.464C312.063 110.382 315.649 114.853 319.623 114.801C323.745 114.748 326.81 110.412 330.97 110.464C335.13 110.516 337.992 114.801 342.219 114.801C346.283 114.801 349.22 110.464 353.574 110.464C357.704 110.464 360.783 114.86 365.025 114.801C368.864 114.748 372.033 110.561 376.074 110.464C380.278 110.36 383.432 114.696 387.421 114.801C388.13 114.813 388.837 114.713 389.515 114.503C392.87 113.61 395.062 110.464 399.021 110.464C403.71 110.464 406.006 114.86 410.472 114.801C414.468 114.748 417.965 110.412 421.819 110.464C425.673 110.516 429.222 114.801 433.069 114.801C436.796 114.801 440.487 110.531 444.319 110.464C448.374 110.382 451.155 114.183 454.756 114.726C459.363 115.47 462.629 110.583 467.012 110.464C471.038 110.353 474.691 114.867 478.665 114.801C482.504 114.734 485.979 110.427 489.915 110.464C493.225 110.464 495.462 112.978 498.354 114.183C504.199 116.601 507.479 110.568 512.415 110.464C515.904 110.397 518.819 113.521 522.159 114.496C521.972 113.022 521.952 111.533 522.099 110.055Z" fill="#004A9B"/>
<path d="M444.565 134.549H444.416C440.196 134.549 437.639 130.569 433.665 130.287C428.73 129.937 426.27 134.578 421.737 134.549C419.575 134.549 417.875 133.485 416.213 132.496C414.304 131.365 412.224 129.803 409.078 130.369C405.35 131.038 403.114 134.631 399.036 134.549C394.167 134.452 391.953 129.729 386.779 130.287C385.057 130.473 383.589 131.477 382.261 132.258C381.635 132.63 380.994 133.046 380.308 133.418C379.347 133.908 378.324 134.266 377.266 134.482C377.044 134.513 376.82 134.533 376.596 134.541H376.32C375.977 134.541 375.656 134.467 375.41 134.482C371.481 133.939 368.447 129.967 364.339 130.279C361.066 130.525 358.658 133.314 355.698 134.229C351.173 135.62 348.243 132.079 344.65 130.755C339.17 128.717 335.815 134.4 331.089 134.541C326.824 134.668 324.208 130.592 320.137 130.279C316.067 129.967 313.36 133.537 309.7 134.385C304.787 135.516 302.013 130.941 297.853 130.361C297.087 130.246 296.308 130.246 295.542 130.361C292.389 130.897 289.809 133.775 286.797 134.385C282.123 135.33 279.655 131.544 276.054 130.517C270.545 128.948 267.347 134.571 262.695 134.541C258.371 134.541 255.441 129.863 250.639 130.279C247.121 130.584 243.751 134.474 240.202 134.541C235.602 134.631 232.993 129.885 228.05 130.279C224.397 130.569 221.124 134.474 217.501 134.541C213.356 134.623 210.247 130.547 206.549 130.279C205.262 130.191 203.975 130.448 202.822 131.023C200.048 132.273 197.603 134.586 194.584 134.571C190.222 134.571 187.427 129.9 182.529 130.309C179.181 130.592 176.475 133.701 173.388 134.415C168.736 135.493 165.814 131.269 161.937 130.465C155.973 129.238 153.625 135.635 147.772 134.415C144.358 133.671 141.659 130.525 138.326 130.309C137.31 130.249 136.292 130.412 135.344 130.785C132.362 131.908 129.723 134.578 126.502 134.571C122.521 134.571 119.703 130.621 115.76 130.309C115.224 130.261 114.685 130.261 114.149 130.309C110.705 130.718 107.514 134.645 103.712 134.571C98.784 134.474 95.8913 128.911 90.3521 130.629C86.6916 131.759 83.7691 135.679 79.0052 134.259C76.1574 133.403 73.548 130.651 70.6628 130.309C70.095 130.257 69.5235 130.257 68.9556 130.309C65.2653 130.651 62.2459 134.593 58.3095 134.571C54.0899 134.571 51.5327 130.592 47.5591 130.309C42.6237 129.959 40.1635 134.601 35.6307 134.571C35.2354 134.566 34.8412 134.526 34.4528 134.452C34.7707 135.765 34.9604 137.105 35.0194 138.454C35.0194 138.64 35.0194 138.826 35.0194 139.004C35.2197 139.03 35.4213 139.045 35.6233 139.049C39.3509 139.049 43.0412 134.779 46.8732 134.705C50.9289 134.631 53.7097 138.424 57.3105 138.967C61.9179 139.711 65.1833 134.824 69.5669 134.705C73.5928 134.593 77.2458 139.116 81.2195 139.049C85.0589 138.982 88.533 134.668 92.4694 134.705C95.7795 134.705 98.0161 137.226 100.909 138.424C106.754 140.834 110.034 134.809 114.969 134.705C119.368 134.623 122.849 139.629 127.427 138.967C130.409 138.536 132.854 136.029 135.561 135.099C136.755 134.669 138.048 134.587 139.288 134.861C142.762 135.605 145.677 139.049 149.233 139.049C153.021 139.049 156.689 134.705 160.588 134.705C164.487 134.705 168.125 139.049 171.935 139.049C175.946 139.049 179.435 134.66 183.386 134.705C187.337 134.75 190.662 139.049 194.636 139.049C198.609 139.049 201.897 134.757 205.886 134.705C209.874 134.653 213.341 139.049 217.337 139.049C221.333 139.049 224.733 134.683 228.788 134.705C232.844 134.727 236.087 139.049 240.038 139.049C244.511 139.049 247.844 133.664 252.995 134.861C256.186 135.605 258.818 138.647 262.135 138.967C266.698 139.406 269.919 134.735 274.064 134.705C277.993 134.705 281.623 139.049 285.515 139.049C289.243 139.049 292.732 134.779 296.698 134.705C300.783 134.631 304.377 139.101 308.35 139.049C312.473 138.989 315.537 134.653 319.697 134.705C323.857 134.757 326.72 139.049 330.947 139.049C335.01 139.049 337.94 134.705 342.301 134.705C346.424 134.705 349.511 139.101 353.753 139.049C357.592 138.997 360.761 134.802 364.801 134.705C369.006 134.601 372.16 138.937 376.148 139.049C376.858 139.059 377.566 138.956 378.243 138.744C381.598 137.851 383.79 134.705 387.749 134.705C392.438 134.705 394.734 139.108 399.2 139.049C403.188 138.989 406.655 134.66 410.547 134.705C414.438 134.75 417.95 139.049 421.797 139.049C425.524 139.049 429.214 134.779 433.046 134.705C437.102 134.631 439.883 138.424 443.484 138.967C443.92 139.032 444.363 139.049 444.803 139.019C444.544 137.544 444.464 136.043 444.565 134.549Z" fill="#004A9B"/>
</g>
<defs>
<clipPath id="clip0_102_935">
<rect width="522" height="239" fill="white" transform="translate(0.16626 0.633789)"/>
</clipPath>
</defs>
</svg>
