<svg width="158" height="59" viewBox="0 0 158 59" fill="none" xmlns="http://www.w3.org/2000/svg">
<g id="ico_MAP_vessel 4" clip-path="url(#clip0_182_9471)">
<g id="&#208;&#161;&#208;&#187;&#208;&#190;&#208;&#185; 2">
<g id="&#208;&#161;&#208;&#187;&#208;&#190;&#208;&#185; 1">
<g id="&#208;&#159;&#208;&#176;&#209;&#128;&#208;&#190;&#209;&#133;&#208;&#190;&#208;&#180;&#209;&#139;">
<path id="Vector" d="M88.1375 14.9529H118.98L114.659 27.0949H91.766L88.1375 14.9529Z" fill="white"/>
<path id="Vector_2" d="M47.9824 42.7534H76.9686V38.4923L83.5335 33.2797H120.375L122.136 47.8418L47.9824 47.8108V42.7534Z" fill="white"/>
<path id="Vector_3" d="M139.408 49.2071L128.219 51.5859L122.357 52.5477L12.7144 52.858L16.5736 57.2328C16.9019 57.1706 17.2355 57.1394 17.5699 57.1398C18.6261 57.1371 19.6618 57.4274 20.5587 57.9775H21.4081C22.3419 57.3679 23.4345 57.0375 24.5542 57.026C25.6758 57.0259 26.7717 57.3573 27.7004 57.9775H28.5183C29.468 57.326 30.5918 56.9661 31.7484 56.9432C32.9211 56.9469 34.064 57.3081 35.0203 57.9775H35.8907C36.8246 57.3679 37.9171 57.0375 39.0369 57.026C40.1582 57.0272 41.2537 57.3585 42.183 57.9775H42.4347C43.3486 57.4077 44.4052 57.0997 45.4864 57.088C46.5831 57.0834 47.6577 57.3923 48.5801 57.9775H49.2617C50.2504 57.2684 51.4372 56.8782 52.6596 56.8605C53.8917 56.8583 55.0913 57.2502 56.0783 57.9775H56.2147C57.0891 57.4801 58.0787 57.213 59.0881 57.2018C60.109 57.2018 61.1116 57.4695 61.993 57.9775H63.3144C64.162 57.5133 65.1135 57.2645 66.083 57.2535C67.0674 57.2526 68.0353 57.5019 68.8935 57.9775H69.6486C70.5824 57.3679 71.6749 57.0375 72.7947 57.026C73.9161 57.0272 75.0116 57.3585 75.9408 57.9775H76.9895C77.9233 57.3679 79.0159 57.0375 80.1356 57.026C81.257 57.0272 82.3525 57.3585 83.2818 57.9775H83.8376C84.7082 57.4801 85.6944 57.2129 86.7005 57.2018C87.7218 57.1993 88.725 57.4672 89.6054 57.9775H90.413C91.3269 57.4077 92.3835 57.0997 93.4647 57.088C94.5614 57.0834 95.636 57.3923 96.5584 57.9775H97.8168C98.664 57.5121 99.6157 57.2632 100.585 57.2535C101.57 57.2526 102.538 57.5019 103.396 57.9775H103.941C104.894 57.3241 106.022 56.9641 107.182 56.9432C108.351 56.9483 109.49 57.3095 110.443 57.9775H110.884C111.833 57.326 112.957 56.9661 114.114 56.9432C115.286 56.9469 116.429 57.3081 117.386 57.9775H117.449C118.319 57.4801 119.305 57.2129 120.312 57.2018C121.333 57.1993 122.336 57.4672 123.216 57.9775H124.454C125.388 57.3679 126.48 57.0375 127.6 57.026C128.577 57.0212 129.538 57.2672 130.39 57.7396C133.137 57.0467 140.877 54.7403 145.522 49.8794L145.753 47.9453L139.408 49.2071Z" fill="#D0202D"/>
<path id="Vector_4" d="M61.4372 36.7961H50.8873L49.073 40.5505H62.6537L61.4372 36.7961Z" fill="#004A9B"/>
<path id="Vector_5" d="M56.1519 40.4056C58.4455 40.4056 60.3048 39.6277 60.3048 38.6681C60.3048 37.7085 58.4455 36.9305 56.1519 36.9305C53.8583 36.9305 51.999 37.7085 51.999 38.6681C51.999 39.6277 53.8583 40.4056 56.1519 40.4056Z" fill="white"/>
<path id="Vector_6" d="M86.8999 14.8598L90.455 10.516H116.505L120.207 14.8598H86.8999Z" fill="#004A9B" stroke="#004A9B" stroke-width="0.21" stroke-miterlimit="10"/>
<path id="Vector_7" d="M47.9819 42.7535H22.1943L17.2339 47.811H47.9819V42.7535Z" stroke="#004A9B" stroke-width="0.64" stroke-miterlimit="10"/>
<path id="Vector_8" d="M26.8401 42.7535V47.811" stroke="#004A9B" stroke-width="0.64" stroke-miterlimit="10"/>
<path id="Vector_9" d="M34.3706 42.7535V47.811" stroke="#004A9B" stroke-width="0.64" stroke-miterlimit="10"/>
<path id="Vector_10" d="M41.2498 42.7534V47.8109" stroke="#004A9B" stroke-width="0.64" stroke-miterlimit="10"/>
<path id="Vector_11" d="M147.704 38.8129H145.68V51.5858H147.704V38.8129Z" fill="#004A9B"/>
<path id="Vector_12" d="M140.552 39.0403L137.616 44.739L121.549 47.8417H17.4969L12.4316 52.5785H122.357L133.431 50.4066L146.205 47.8417L146.351 45.2044V38.9989L140.552 39.0403ZM130.956 49.5275L130.159 49.7344C129.955 49.7722 129.743 49.7316 129.568 49.6209C129.392 49.5101 129.266 49.3375 129.215 49.1383C129.165 48.9391 129.193 48.7283 129.294 48.5489C129.395 48.3694 129.562 48.2349 129.761 48.1727L130.558 47.9761C130.766 47.924 130.988 47.9558 131.172 48.0644C131.357 48.173 131.491 48.3496 131.544 48.5553C131.596 48.761 131.564 48.979 131.454 49.1614C131.344 49.3437 131.165 49.4754 130.956 49.5275Z" fill="#004A9B"/>
<path id="Vector_13" d="M27.6789 51.2757C28.2118 51.2757 28.6437 50.8497 28.6437 50.3242C28.6437 49.7987 28.2118 49.3727 27.6789 49.3727C27.1461 49.3727 26.7141 49.7987 26.7141 50.3242C26.7141 50.8497 27.1461 51.2757 27.6789 51.2757Z" stroke="#004A9B" stroke-width="0.21" stroke-miterlimit="10"/>
<path id="Vector_14" d="M43.6298 51.2757C44.1627 51.2757 44.5947 50.8497 44.5947 50.3242C44.5947 49.7987 44.1627 49.3727 43.6298 49.3727C43.097 49.3727 42.665 49.7987 42.665 50.3242C42.665 50.8497 43.097 51.2757 43.6298 51.2757Z" stroke="#004A9B" stroke-width="0.21" stroke-miterlimit="10"/>
<path id="Vector_15" d="M90.0359 16.9697L91.0112 20.1035H95.5101V16.9697H90.0359Z" fill="#004A9B" stroke="#004A9B" stroke-width="0.43" stroke-miterlimit="10"/>
<path id="Vector_16" d="M117.092 16.9697L116.106 20.1035H111.617V16.9697H117.092Z" fill="#004A9B" stroke="#004A9B" stroke-width="0.43" stroke-miterlimit="10"/>
<path id="Vector_17" d="M97.7331 16.9696L97.7122 20.1034H102.211V16.9696H97.7331Z" fill="#004A9B" stroke="#004A9B" stroke-width="0.43" stroke-miterlimit="10"/>
<path id="Vector_18" d="M104.927 16.9696L104.906 20.1034H109.405V16.9696H104.927Z" fill="#004A9B" stroke="#004A9B" stroke-width="0.43" stroke-miterlimit="10"/>
<path id="Vector_19" d="M60.7661 34.5415H52.0829L47.9824 42.7534H63.4613L60.7661 34.5415Z" stroke="#004A9B" stroke-width="0.43" stroke-miterlimit="10"/>
<path id="Vector_20" d="M88.1375 14.9529H118.98L114.659 27.0949H91.766L88.1375 14.9529Z" stroke="#004A9B" stroke-width="0.43" stroke-miterlimit="10"/>
<path id="Vector_21" d="M105.115 27.095H100.606V33.2798H105.115V27.095Z" stroke="#004A9B" stroke-width="0.43" stroke-miterlimit="10"/>
<path id="Vector_22" d="M120.375 33.2797H83.5335L76.9686 38.4923V42.7534H47.9824V47.8418H122.136L120.375 33.2797Z" stroke="#004A9B" stroke-width="0.43" stroke-miterlimit="10"/>
<path id="Vector_23" d="M140.552 39.0405L137.616 44.7392L122.357 47.8419H17.2347L12.4316 52.5788L16.574 57.2639C16.9023 57.2016 17.236 57.1704 17.5703 57.1708C18.6235 57.1588 19.6589 57.4383 20.5591 57.9775H21.4086C22.3424 57.368 23.4349 57.0375 24.5547 57.026C25.6762 57.0259 26.7721 57.3574 27.7008 57.9775H28.5188C29.4684 57.326 30.5922 56.9662 31.7488 56.9433C32.9215 56.9469 34.0644 57.3081 35.0208 57.9775H35.8912C36.825 57.368 37.9175 57.0375 39.0373 57.026C40.1587 57.0272 41.2542 57.3585 42.1834 57.9775H42.4351C43.3491 57.4077 44.4057 57.0998 45.4868 57.0881C46.5836 57.0834 47.6581 57.3924 48.5805 57.9775H49.2622C50.2508 57.2684 51.4377 56.8783 52.66 56.8605C53.8921 56.8583 55.0917 57.2502 56.0788 57.9775H56.2151C57.0896 57.4801 58.0791 57.213 59.0886 57.2018C60.1095 57.2018 61.112 57.4695 61.9935 57.9775H63.3148C64.1625 57.5133 65.1139 57.2645 66.0834 57.2535C67.0678 57.2526 68.0358 57.502 68.894 57.9775H69.649C70.5828 57.368 71.6754 57.0375 72.7951 57.026C73.9165 57.0272 75.012 57.3585 75.9413 57.9775H76.99C77.9238 57.368 79.0163 57.0375 80.1361 57.026C81.2575 57.0272 82.3529 57.3585 83.2822 57.9775H83.838C84.7087 57.4801 85.6948 57.2129 86.701 57.2018C87.7222 57.1993 88.7254 57.4672 89.6059 57.9775H90.4134C91.3273 57.4077 92.3839 57.0998 93.4651 57.0881C94.5618 57.0834 95.6364 57.3924 96.5588 57.9775H97.8173C98.6644 57.5121 99.6162 57.2632 100.586 57.2535C101.57 57.2526 102.538 57.502 103.396 57.9775H103.942C104.894 57.3241 106.022 56.9641 107.182 56.9433C108.351 56.9483 109.491 57.3096 110.444 57.9775H110.884C111.834 57.326 112.958 56.9662 114.114 56.9433C115.287 56.9469 116.43 57.3081 117.386 57.9775H117.449C118.32 57.4801 119.306 57.2129 120.312 57.2018C121.333 57.1993 122.336 57.4672 123.217 57.9775H124.454C125.388 57.368 126.481 57.0375 127.6 57.026C128.594 57.0254 129.571 57.2822 130.432 57.7707C144.694 54.792 147.138 47.3041 147.138 47.3041V39.0302L140.552 39.0405Z" stroke="#004A9B" stroke-width="0.43" stroke-miterlimit="10"/>
<path id="Vector_24" d="M121.665 47.842L17.0459 47.8213L12.4316 52.5478H17.2347H122.357L145.858 47.9454" stroke="#004A9B" stroke-width="0.43" stroke-miterlimit="10"/>
<path id="Vector_25" d="M90.3394 35.9583H86.6584V40.7882H90.3394V35.9583Z" fill="#004A9B" stroke="#004A9B" stroke-width="0.43" stroke-miterlimit="10"/>
<path id="Vector_26" d="M104.287 35.9583H100.606V40.7882H104.287V35.9583Z" fill="#004A9B" stroke="#004A9B" stroke-width="0.43" stroke-miterlimit="10"/>
<path id="Vector_27" d="M117.564 35.9583H113.883V40.7882H117.564V35.9583Z" fill="#004A9B" stroke="#004A9B" stroke-width="0.43" stroke-miterlimit="10"/>
<path id="Vector_28" d="M113.894 5.62399C113.723 5.66733 113.543 5.66322 113.375 5.61211C113.207 5.56099 113.056 5.46487 112.939 5.3344C112.698 5.09397 112.37 4.95657 112.027 4.95173H111.817C111.62 5.03338 111.442 5.15293 111.293 5.30338C111.116 5.4895 110.897 5.63133 110.653 5.71707C110.543 5.75945 110.425 5.78052 110.307 5.77913C109.939 5.79622 109.575 5.7063 109.258 5.52057C108.786 5.26749 108.277 5.08948 107.748 4.9931C107.108 4.8576 106.443 4.88969 105.819 5.08618C105.257 5.27939 104.743 5.58584 104.308 5.98598L104.225 6.05838L103.983 0.545849C105.023 0.502265 106.059 0.704383 107.004 1.13537C107.702 1.41251 108.339 1.81986 108.881 2.33509C109.129 2.5913 109.429 2.7923 109.762 2.92461C109.983 2.99572 110.222 2.99572 110.443 2.92461C110.528 2.89503 110.608 2.85691 110.685 2.81085C110.794 2.74712 110.91 2.69511 111.031 2.65571H111.23C111.901 2.52126 112.079 2.99701 112.279 3.53482C112.551 4.27947 112.887 5.21029 114.743 4.94139H114.827L114.764 5.00345C114.527 5.27466 114.229 5.48721 113.894 5.62399Z" fill="#D0202D" stroke="#004A9B" stroke-width="0.43" stroke-miterlimit="10"/>
<path id="Vector_29" d="M103.983 0.566524C105.019 0.521758 106.05 0.720267 106.993 1.1457C108.503 1.73522 109.09 2.74878 109.73 2.93495C109.959 3.00565 110.204 3.00565 110.433 2.93495C110.621 2.87289 110.758 2.74878 111.02 2.66604L111.209 2.61433C112.782 2.3144 111.513 5.35508 114.711 4.90001C114.477 5.19246 114.17 5.42041 113.82 5.56193C113.065 5.81015 112.771 4.83796 111.953 4.88967H111.744C111.303 5.03446 111.093 5.48953 110.579 5.65501C110.473 5.69734 110.359 5.71843 110.244 5.71706C109.258 5.71706 109.3 5.28268 107.664 4.93104C107.017 4.79474 106.344 4.82682 105.713 5.02412C105.107 5.25302 104.557 5.60544 104.098 6.05837L103.983 0.566524ZM103.92 0.566524L104.046 6.09974V6.18248H104.119L104.214 6.09974C104.644 5.70106 105.155 5.39777 105.713 5.21029C106.319 5.00005 106.97 4.95012 107.601 5.06549C108.124 5.16402 108.629 5.33828 109.101 5.58261C109.415 5.7737 109.781 5.86738 110.149 5.85152C110.271 5.85138 110.392 5.83038 110.506 5.78946C110.75 5.694 110.972 5.54961 111.156 5.36542C111.335 5.19786 111.556 5.08009 111.796 5.02412H111.995C112.33 5.02939 112.65 5.16292 112.887 5.39645C113.011 5.52599 113.167 5.62167 113.34 5.67422C113.512 5.72678 113.696 5.73441 113.872 5.69638C114.228 5.54046 114.544 5.30709 114.795 5.01378L114.911 4.88967H114.743C114.437 4.9646 114.118 4.97571 113.808 4.92228C113.497 4.86885 113.201 4.75207 112.939 4.5794C112.642 4.29398 112.426 3.93767 112.31 3.54515C112.111 3.01769 111.932 2.51091 111.261 2.64536H111.062C110.942 2.68714 110.826 2.73904 110.716 2.80049C110.642 2.85089 110.561 2.8893 110.475 2.91426C110.257 2.98677 110.021 2.98677 109.803 2.91426C109.477 2.78526 109.184 2.58759 108.943 2.33508C108.386 1.80434 107.731 1.38314 107.014 1.09399C106.065 0.664423 105.026 0.462412 103.983 0.504469L103.92 0.566524Z" fill="#004A9B" stroke="#004A9B" stroke-width="0.43" stroke-miterlimit="10"/>
<path id="Vector_30" d="M104.152 6.36865L104.162 12.3466" stroke="#004A9B" stroke-width="0.43" stroke-miterlimit="10"/>
<path id="Vector_31" d="M64.605 37.6238H74.7774C74.7774 37.6238 73.2778 41.5332 69.6912 42.795C68.5215 42.3356 67.4636 41.6374 66.587 40.7461C65.7104 39.8549 65.0349 38.7908 64.605 37.6238Z" stroke="#004A9B" stroke-width="0.21" stroke-miterlimit="10"/>
<path id="Vector_32" d="M61.7834 37.6238H78.0594" stroke="#004A9B" stroke-width="0.21" stroke-miterlimit="10"/>
<path id="Vector_33" d="M57.6205 38.1612H57.0647V37.6751H56.5718V37.189H55.995V37.6751H55.5126V38.1612H54.9463V38.3783L55.3972 38.5025C55.6715 38.6349 55.9728 38.7037 56.2781 38.7037C56.5835 38.7037 56.8848 38.6349 57.1591 38.5025L57.6205 38.3783V38.1612ZM55.953 38.0991H55.6594V37.8199H55.953V38.0991ZM56.4459 37.613H56.2152V37.3338H56.4984L56.4459 37.613ZM56.9388 38.0991H56.6557V37.8199H56.9388V38.0991Z" fill="#18509B"/>
<path id="Vector_34" d="M53.4675 38.4405C53.9934 38.4409 54.5164 38.5175 55.0196 38.6681C55.4166 38.8592 55.8477 38.9716 56.2885 38.999C56.7689 38.9402 57.2385 38.8149 57.6833 38.6267C58.1467 38.495 58.6274 38.4323 59.1096 38.4405L58.753 38.7301C58.2306 38.7444 57.7166 38.8641 57.2429 39.0818C56.9369 39.197 56.6153 39.2667 56.2885 39.2886V39.5679C56.5653 39.5588 56.8399 39.5172 57.1065 39.4438C57.5226 39.2794 57.9549 39.158 58.3964 39.0818C58.3964 39.0818 58.1657 39.2473 57.8931 39.4748C57.4673 39.9131 56.8999 40.191 56.2885 40.2608V39.8368C56.0978 39.825 55.9083 39.7973 55.7222 39.754C55.2065 39.5544 54.6675 39.4189 54.1177 39.3507L53.4675 38.4405Z" fill="#18509B"/>
<path id="Vector_35" d="M19.7198 53.5095C20.4785 53.5095 21.0936 52.9029 21.0936 52.1547C21.0936 51.4064 20.4785 50.7998 19.7198 50.7998C18.961 50.7998 18.3459 51.4064 18.3459 52.1547C18.3459 52.9029 18.961 53.5095 19.7198 53.5095Z" fill="white" stroke="#004A9B" stroke-width="0.21" stroke-miterlimit="10"/>
<path id="Vector_36" d="M19.7197 52.8683C20.1193 52.8683 20.4433 52.5488 20.4433 52.1547C20.4433 51.7605 20.1193 51.441 19.7197 51.441C19.3201 51.441 18.9961 51.7605 18.9961 52.1547C18.9961 52.5488 19.3201 52.8683 19.7197 52.8683Z" fill="#004A9B" stroke="#004A9B" stroke-width="0.21" stroke-miterlimit="10"/>
<path id="Vector_37" d="M34.2022 53.5095C34.9609 53.5095 35.576 52.9029 35.576 52.1547C35.576 51.4064 34.9609 50.7998 34.2022 50.7998C33.4434 50.7998 32.8284 51.4064 32.8284 52.1547C32.8284 52.9029 33.4434 53.5095 34.2022 53.5095Z" fill="white" stroke="#004A9B" stroke-width="0.21" stroke-miterlimit="10"/>
<path id="Vector_38" d="M34.2024 52.8683C34.602 52.8683 34.926 52.5488 34.926 52.1547C34.926 51.7605 34.602 51.441 34.2024 51.441C33.8027 51.441 33.4788 51.7605 33.4788 52.1547C33.4788 52.5488 33.8027 52.8683 34.2024 52.8683Z" fill="#004A9B" stroke="#004A9B" stroke-width="0.21" stroke-miterlimit="10"/>
<path id="Vector_39" d="M48.6956 53.5095C49.4543 53.5095 50.0694 52.9029 50.0694 52.1547C50.0694 51.4064 49.4543 50.7998 48.6956 50.7998C47.9369 50.7998 47.3218 51.4064 47.3218 52.1547C47.3218 52.9029 47.9369 53.5095 48.6956 53.5095Z" fill="white" stroke="#004A9B" stroke-width="0.21" stroke-miterlimit="10"/>
<path id="Vector_40" d="M48.6955 52.8683C49.0952 52.8683 49.4191 52.5488 49.4191 52.1547C49.4191 51.7605 49.0952 51.441 48.6955 51.441C48.2959 51.441 47.9719 51.7605 47.9719 52.1547C47.9719 52.5488 48.2959 52.8683 48.6955 52.8683Z" fill="#004A9B" stroke="#004A9B" stroke-width="0.21" stroke-miterlimit="10"/>
<path id="Vector_41" d="M63.189 53.5095C63.9477 53.5095 64.5628 52.9029 64.5628 52.1547C64.5628 51.4064 63.9477 50.7998 63.189 50.7998C62.4303 50.7998 61.8152 51.4064 61.8152 52.1547C61.8152 52.9029 62.4303 53.5095 63.189 53.5095Z" fill="white" stroke="#004A9B" stroke-width="0.21" stroke-miterlimit="10"/>
<path id="Vector_42" d="M63.1892 52.8684C63.5888 52.8684 63.9128 52.5489 63.9128 52.1548C63.9128 51.7607 63.5888 51.4412 63.1892 51.4412C62.7895 51.4412 62.4656 51.7607 62.4656 52.1548C62.4656 52.5489 62.7895 52.8684 63.1892 52.8684Z" fill="#004A9B" stroke="#004A9B" stroke-width="0.21" stroke-miterlimit="10"/>
<path id="Vector_43" d="M77.6712 53.5095C78.4299 53.5095 79.045 52.9029 79.045 52.1547C79.045 51.4064 78.4299 50.7998 77.6712 50.7998C76.9124 50.7998 76.2974 51.4064 76.2974 52.1547C76.2974 52.9029 76.9124 53.5095 77.6712 53.5095Z" fill="white" stroke="#004A9B" stroke-width="0.21" stroke-miterlimit="10"/>
<path id="Vector_44" d="M77.6714 52.8683C78.071 52.8683 78.395 52.5488 78.395 52.1547C78.395 51.7605 78.071 51.441 77.6714 51.441C77.2717 51.441 76.9478 51.7605 76.9478 52.1547C76.9478 52.5488 77.2717 52.8683 77.6714 52.8683Z" fill="#004A9B" stroke="#004A9B" stroke-width="0.21" stroke-miterlimit="10"/>
<path id="Vector_45" d="M92.1643 53.5095C92.9231 53.5095 93.5381 52.9029 93.5381 52.1547C93.5381 51.4064 92.9231 50.7998 92.1643 50.7998C91.4056 50.7998 90.7905 51.4064 90.7905 52.1547C90.7905 52.9029 91.4056 53.5095 92.1643 53.5095Z" fill="white" stroke="#004A9B" stroke-width="0.21" stroke-miterlimit="10"/>
<path id="Vector_46" d="M92.1648 52.8684C92.5644 52.8684 92.8884 52.5489 92.8884 52.1548C92.8884 51.7607 92.5644 51.4412 92.1648 51.4412C91.7651 51.4412 91.4412 51.7607 91.4412 52.1548C91.4412 52.5489 91.7651 52.8684 92.1648 52.8684Z" fill="#004A9B" stroke="#004A9B" stroke-width="0.21" stroke-miterlimit="10"/>
<path id="Vector_47" d="M106.658 53.5095C107.417 53.5095 108.032 52.9029 108.032 52.1547C108.032 51.4064 107.417 50.7998 106.658 50.7998C105.899 50.7998 105.284 51.4064 105.284 52.1547C105.284 52.9029 105.899 53.5095 106.658 53.5095Z" fill="white" stroke="#004A9B" stroke-width="0.21" stroke-miterlimit="10"/>
<path id="Vector_48" d="M106.657 52.8684C107.057 52.8684 107.381 52.5489 107.381 52.1548C107.381 51.7607 107.057 51.4412 106.657 51.4412C106.258 51.4412 105.934 51.7607 105.934 52.1548C105.934 52.5489 106.258 52.8684 106.657 52.8684Z" fill="#004A9B" stroke="#004A9B" stroke-width="0.21" stroke-miterlimit="10"/>
<path id="Vector_49" d="M157.939 57.2328C157.006 56.9639 156.251 56.1261 155.255 56.0537C155.094 56.0382 154.933 56.0382 154.772 56.0537C153.723 56.1778 152.769 57.3465 151.626 57.3259C150.137 57.3259 149.266 55.64 147.599 56.1468C146.55 56.4881 145.617 57.6568 144.18 57.1811C143.32 56.9225 142.534 56.1468 141.663 56.002C141.492 55.9865 141.32 55.9865 141.149 56.002C140.038 56.1055 139.136 57.2741 137.94 57.2741C136.745 57.2741 135.916 56.1158 134.689 56.0537C133.2 55.9503 132.466 57.3259 131.092 57.3259C130.491 57.2726 129.916 57.0619 129.425 56.7157C128.837 56.2405 128.085 56.0104 127.327 56.0744C126.205 56.2709 125.524 57.3465 124.297 57.3259C122.839 57.3259 122.199 55.8883 120.605 56.0537C120.113 56.1507 119.648 56.3518 119.242 56.6433L118.655 56.9846C118.366 57.1303 118.059 57.2381 117.742 57.3052H117.459H117.176C116.001 57.1397 115.079 55.9607 113.841 56.0537C112.855 56.1261 112.132 56.9535 111.24 57.2328C109.877 57.6465 108.986 56.5915 107.916 56.1985C106.259 55.5883 105.252 57.2845 103.826 57.3259C102.4 57.3672 101.729 56.1468 100.523 56.0537C99.3166 55.9607 98.4881 57.0259 97.3765 57.2741C95.8978 57.6154 95.0588 56.2399 93.8109 56.0744C93.5777 56.0433 93.3414 56.0433 93.1082 56.0744C92.1644 56.2399 91.3884 57.1087 90.476 57.2741C89.0707 57.5534 88.3261 56.4261 87.2355 56.1261C85.5785 55.6607 84.6137 57.3259 83.2085 57.3259C81.8032 57.3259 81.0271 55.9296 79.5799 56.0537C78.5312 56.1468 77.4825 57.3052 76.4338 57.3259C75.0495 57.3259 74.263 55.94 72.7738 56.0537C71.7251 56.1365 70.6764 57.3052 69.6277 57.3259C68.579 57.3465 67.352 56.1158 66.2404 56.0537C65.8546 56.0266 65.4681 56.0979 65.1183 56.2606C64.2793 56.6329 63.5452 57.2948 62.6328 57.2948C61.322 57.2948 60.5354 55.8986 59.0043 56.0227C57.9556 56.1055 57.1796 57.057 56.2462 57.2431C54.8514 57.5637 53.9705 56.302 52.796 56.0641C50.9922 55.7021 50.2896 57.6051 48.5278 57.2431C47.479 57.0363 46.6925 56.0848 45.6858 56.0227C45.3746 56.0062 45.0635 56.0555 44.7734 56.1675C43.8715 56.4985 43.085 57.2948 42.1097 57.2948C40.9142 57.2948 40.0647 56.1158 38.8797 56.0227C38.7157 56.0072 38.5507 56.0072 38.3868 56.0227C37.3381 56.1468 36.3942 57.3155 35.2407 57.2948C33.762 57.2948 32.8811 55.609 31.2136 56.1158C30.1125 56.4571 29.2316 57.6258 27.7948 57.15C26.9349 56.8915 26.1484 56.1158 25.2884 55.971C25.1175 55.9555 24.9455 55.9555 24.7746 55.971C23.7049 56.1158 22.7506 57.3259 21.6075 57.3259C20.4644 57.3259 19.5101 56.1158 18.325 56.0537C16.8359 55.9503 16.0913 57.3259 14.7175 57.3259C14.1193 57.2743 13.5466 57.0633 13.0605 56.7157C12.4729 56.2405 11.7203 56.0104 10.9631 56.0744C9.841 56.2709 9.15934 57.3465 7.93236 57.3259C6.46417 57.3259 5.83495 55.8883 4.24091 56.0537C3.74735 56.1468 3.28137 56.3483 2.8776 56.6433C2.37416 57.0212 1.77607 57.2571 1.14723 57.3259C0.958465 57.3259 0.769698 57.2638 0.696289 57.3259C0.696289 57.9878 0.696289 57.6982 0.696289 58.3601C0.696289 58.4428 0.696289 58.567 0.759211 58.6187C2.35324 58.8772 3.00344 57.3672 4.51358 57.3672C6.02371 57.3672 6.61099 58.6807 7.96382 58.6704C9.31665 58.66 10.2185 57.3569 11.3826 57.3672C12.5467 57.3776 13.6163 58.6704 14.7699 58.6704C15.9235 58.6704 17.0037 57.3983 18.1677 57.3672C19.3318 57.3362 20.2651 58.4739 21.3138 58.6394C22.6981 58.8565 23.6839 57.4086 25.0053 57.3672C26.3267 57.3259 27.3229 58.6807 28.5185 58.6704C29.714 58.66 30.7207 57.3569 31.9058 57.3672C32.902 57.3672 33.5732 58.1222 34.4436 58.4739C36.216 59.1978 37.2017 57.4396 38.6909 57.3672C40.0123 57.3672 41.061 58.8359 42.4348 58.6394C43.3471 58.5152 44.0708 57.7706 44.8887 57.4913C45.2491 57.3669 45.6371 57.3419 46.0109 57.4189C47.0596 57.6465 47.93 58.6704 49.0102 58.6704C50.0903 58.6704 51.2544 57.3672 52.4289 57.3672C53.6035 57.3672 54.7046 58.6704 55.8477 58.6704C56.9908 58.6704 58.1129 57.3569 59.298 57.3672C60.483 57.3776 61.4898 58.6704 62.6853 58.6704C63.8808 58.6704 64.8771 57.3879 66.0831 57.3672C67.2891 57.3465 68.3168 58.6704 69.5333 58.6704C70.7498 58.6704 71.7566 57.3672 72.9836 57.3672C74.2106 57.3672 75.1859 58.6704 76.3709 58.6704C77.7237 58.6704 78.72 57.0673 80.2721 57.4189C81.2369 57.6361 82.0339 58.5463 83.0302 58.6394C84.404 58.7738 85.3793 57.3776 86.6377 57.3672C87.8962 57.3569 88.9134 58.6704 90.088 58.6704C91.2625 58.6704 92.2588 57.3983 93.4438 57.3672C94.6289 57.3362 95.7615 58.6807 96.957 58.6704C98.1525 58.66 99.1173 57.3569 100.376 57.3672C101.634 57.3776 102.473 58.6704 103.763 58.6704C105.053 58.6704 105.86 57.3672 107.182 57.3672C108.503 57.3672 109.363 58.6807 110.632 58.6704C111.901 58.66 112.73 57.3983 113.967 57.3672C115.204 57.3362 116.18 58.629 117.386 58.6704C117.599 58.6711 117.811 58.6397 118.015 58.5773C119.064 58.3084 119.693 57.3672 120.878 57.3672C122.294 57.3672 122.975 58.6807 124.328 58.6704C125.681 58.66 126.593 57.3569 127.757 57.3672C128.922 57.3776 129.981 58.6704 131.145 58.6704C132.309 58.6704 133.379 57.3983 134.532 57.3672C135.686 57.3362 136.63 58.4739 137.678 58.6394C139.073 58.8565 140.048 57.4086 141.37 57.3672C142.691 57.3259 143.687 58.6807 144.883 58.6704C146.078 58.66 147.085 57.3569 148.27 57.3672C149.319 57.3672 149.948 58.1222 150.819 58.4739C152.58 59.1978 153.566 57.4396 155.013 57.3672C156.062 57.3672 156.943 58.2877 157.95 58.5773C157.893 58.1311 157.889 57.6798 157.939 57.2328Z" fill="#004A9B"/>
</g>
</g>
</g>
</g>
<defs>
<clipPath id="clip0_182_9471">
<rect width="157.306" height="58.3935" fill="white" transform="translate(0.633789 0.266724)"/>
</clipPath>
</defs>
</svg>
