<svg width="612" height="165" viewBox="0 0 612 165" fill="none" xmlns="http://www.w3.org/2000/svg">
<path d="M540.61 9.19685C538.335 7.90383 535.757 7.21929 533.102 7.29534H481.382C478.803 7.21929 476.301 7.90383 474.101 9.19685C472.205 10.3378 471.068 12.0111 471.068 13.7605V32.4713H476.225V13.7605C476.301 12.7717 476.907 11.935 477.741 11.4787C478.803 10.7941 480.092 10.4899 481.382 10.4899H533.102C534.392 10.4899 535.681 10.7941 536.818 11.4026C537.729 11.859 538.259 12.6956 538.335 13.6844V46.9227C538.259 47.9115 537.653 48.7481 536.818 49.2045C535.681 49.889 534.392 50.1933 533.102 50.1172H502.464V53.3878H533.102C535.681 53.4639 538.335 52.7793 540.61 51.5624C542.506 50.3454 542.203 48.7481 542.203 46.9987V13.8365C542.203 12.0111 542.582 10.4138 540.61 9.19685Z" fill="url(#paint0_linear_179_251)"/>
<path d="M413.432 49.889H365.958C361.256 49.889 359.739 52.7793 359.739 56.5063C359.739 60.2332 361.256 63.1235 365.958 63.1235H413.432V49.889Z" fill="url(#paint1_linear_179_251)"/>
<path d="M413.432 49.889H365.958C361.256 49.889 359.739 52.7793 359.739 56.5063C359.739 60.2332 361.256 63.1235 365.958 63.1235H413.432V49.889Z" fill="white"/>
<path d="M375.817 50.1172H375.513V62.8953H375.817V50.1172Z" fill="#EFAF78"/>
<path d="M405.621 50.5736H405.317V62.9714H405.621V50.5736Z" fill="#EFAF78"/>
<path d="M397.582 50.5736H397.278V62.9714H397.582V50.5736Z" fill="#EFAF78"/>
<path d="M389.543 50.5736H389.24V62.9714H389.543V50.5736Z" fill="#EFAF78"/>
<path d="M367.778 50.1172H367.475V62.8953H367.778V50.1172Z" fill="#EFAF78"/>
<path d="M350.866 17.3353H178.413C176.896 17.4113 175.455 18.0959 174.469 19.2368L173.256 20.6819C172.346 21.8989 170.905 22.5834 169.313 22.5834H131.546C128.285 22.5834 125.555 26.4625 125.555 31.0261V74.9889C125.555 79.5525 128.285 83.4316 131.546 83.4316H169.464C170.981 83.5076 172.422 84.1922 173.408 85.3331L174.621 86.7782C175.607 87.9952 176.972 88.6797 178.565 88.6797H351.018C364.972 88.6797 376.196 72.7071 376.196 52.9314C376.044 33.3079 364.82 17.3353 350.866 17.3353Z" fill="url(#paint2_linear_179_251)"/>
<path d="M200.027 18.0959H199.344V88.1473H200.027V18.0959Z" fill="#EFAF78"/>
<path d="M183.039 18.0959H182.357V88.1473H183.039V18.0959Z" fill="#EFAF78"/>
<path d="M217.014 18.0959H216.331V88.1473H217.014V18.0959Z" fill="#EFAF78"/>
<path d="M234.077 18.0959H233.395V88.1473H234.077V18.0959Z" fill="#EFAF78"/>
<path d="M251.065 18.0959H250.382V88.1473H251.065V18.0959Z" fill="#EFAF78"/>
<path d="M268.128 18.0959H267.446V88.1473H268.128V18.0959Z" fill="#EFAF78"/>
<path d="M285.116 18.0959H284.433V88.1473H285.116V18.0959Z" fill="#EFAF78"/>
<path d="M302.179 18.0959H301.496V88.1473H302.179V18.0959Z" fill="#EFAF78"/>
<path d="M319.166 18.0959H318.484V88.1473H319.166V18.0959Z" fill="#EFAF78"/>
<path d="M336.23 18.0959H335.547V88.1473H336.23V18.0959Z" fill="#EFAF78"/>
<path d="M353.217 18.0959H352.535V88.1473H353.217V18.0959Z" fill="#EFAF78"/>
<path d="M345.937 14.9014H345.406V18.4762H345.937V14.9014Z" fill="#F6B800"/>
<path d="M342.903 14.9014H342.372V18.4762H342.903V14.9014Z" fill="#F6B800"/>
<path d="M339.794 14.9014H339.263V18.4762H339.794V14.9014Z" fill="#F6B800"/>
<path d="M355.189 14.9014H354.658V18.4762H355.189V14.9014Z" fill="#F6B800"/>
<path d="M352.155 14.9014H351.625V18.4762H352.155V14.9014Z" fill="#F6B800"/>
<path d="M349.046 14.9014H348.515V18.4762H349.046V14.9014Z" fill="#F6B800"/>
<path d="M364.441 14.9014H363.91V18.4762H364.441V14.9014Z" fill="#F6B800"/>
<path d="M361.332 14.9014H360.801V18.4762H361.332V14.9014Z" fill="#F6B800"/>
<path d="M358.298 14.9014H357.767V18.4762H358.298V14.9014Z" fill="#F6B800"/>
<path d="M373.693 14.9014H373.162V18.4762H373.693V14.9014Z" fill="#F6B800"/>
<path d="M370.584 14.9014H370.053V18.4762H370.584V14.9014Z" fill="#F6B800"/>
<path d="M367.474 14.9014H366.944V18.4762H367.474V14.9014Z" fill="#F6B800"/>
<path d="M382.869 14.9014H382.339V18.4762H382.869V14.9014Z" fill="#F6B800"/>
<path d="M379.836 14.9014H379.305V18.4762H379.836V14.9014Z" fill="#F6B800"/>
<path d="M376.727 14.9014H376.196V18.4762H376.727V14.9014Z" fill="#F6B800"/>
<path d="M392.122 14.9014H391.591V18.4762H392.122V14.9014Z" fill="#F6B800"/>
<path d="M389.012 14.9014H388.481V18.4762H389.012V14.9014Z" fill="#F6B800"/>
<path d="M385.979 14.9014H385.448V18.4762H385.979V14.9014Z" fill="#F6B800"/>
<path d="M392.349 14.9014H339.036V15.662H392.349V14.9014Z" fill="#F6B800"/>
<path d="M392.046 17.3353H339.036V18.0959H392.046V17.3353Z" fill="#F6B800"/>
<path d="M345.937 17.7916H345.406V21.3665H345.937V17.7916Z" fill="#F6B800"/>
<path d="M342.903 17.7916H342.372V21.3665H342.903V17.7916Z" fill="#F6B800"/>
<path d="M339.794 17.7916H339.263V21.3665H339.794V17.7916Z" fill="#F6B800"/>
<path d="M355.189 17.7916H354.658V21.3665H355.189V17.7916Z" fill="#F6B800"/>
<path d="M352.155 17.7916H351.625V21.3665H352.155V17.7916Z" fill="#F6B800"/>
<path d="M349.046 17.7916H348.515V21.3665H349.046V17.7916Z" fill="#F6B800"/>
<path d="M364.441 17.7916H363.91V21.3665H364.441V17.7916Z" fill="#F6B800"/>
<path d="M361.332 17.7916H360.801V21.3665H361.332V17.7916Z" fill="#F6B800"/>
<path d="M358.298 17.7916H357.767V21.3665H358.298V17.7916Z" fill="#F6B800"/>
<path d="M373.693 17.7916H373.162V21.3665H373.693V17.7916Z" fill="#F6B800"/>
<path d="M370.584 17.7916H370.053V21.3665H370.584V17.7916Z" fill="#F6B800"/>
<path d="M367.474 17.7916H366.944V21.3665H367.474V17.7916Z" fill="#F6B800"/>
<path d="M382.869 17.7916H382.339V21.3665H382.869V17.7916Z" fill="#F6B800"/>
<path d="M379.836 17.7916H379.305V21.3665H379.836V17.7916Z" fill="#F6B800"/>
<path d="M376.727 17.7916H376.196V21.3665H376.727V17.7916Z" fill="#F6B800"/>
<path d="M392.122 17.7916H391.591V21.3665H392.122V17.7916Z" fill="#F6B800"/>
<path d="M389.088 17.7916H388.557V21.3665H389.088V17.7916Z" fill="#F6B800"/>
<path d="M385.979 17.7916H385.448V21.3665H385.979V17.7916Z" fill="#F6B800"/>
<path d="M392.349 17.7916H339.036V18.5522H392.349V17.7916Z" fill="#F6B800"/>
<path d="M392.046 20.2256H339.036V20.9862H392.046V20.2256Z" fill="#F6B800"/>
<path d="M527.718 25.7019H114.027V28.5161H527.718V25.7019Z" fill="url(#paint3_linear_179_251)"/>
<path d="M94.689 104.881H95.7507V103.588H87.3328V104.881H88.3945L85.2852 113.627H97.7983L94.689 104.881Z" fill="#13110C"/>
<path d="M144.286 104.881H145.348V103.588H137.006V104.881H137.992L134.958 113.627H147.396L144.286 104.881Z" fill="#13110C"/>
<path d="M193.96 104.881H195.021V103.588H186.603V104.881H187.665L184.556 113.627H197.069L193.96 104.881Z" fill="#13110C"/>
<path d="M243.633 104.881H244.619V103.588H236.277V104.881H237.338L234.229 113.627H246.742L243.633 104.881Z" fill="#13110C"/>
<path d="M293.23 104.881H294.292V103.588H285.95V104.881H286.936L283.826 113.627H296.339L293.23 104.881Z" fill="#13110C"/>
<path d="M342.903 104.881H343.965V103.588H335.547V104.881H336.609L333.5 113.627H346.013L342.903 104.881Z" fill="#13110C"/>
<path d="M392.577 104.881H393.562V103.588H385.22V104.881H386.282L383.173 113.627H395.686L392.577 104.881Z" fill="#13110C"/>
<path d="M442.174 104.881H443.236V103.588H434.818V104.881H435.879L432.77 113.627H445.283L442.174 104.881Z" fill="#13110C"/>
<path d="M491.847 104.881H492.909V103.588H484.491V104.881H485.553L482.443 113.627H494.956L491.847 104.881Z" fill="#13110C"/>
<path d="M541.52 104.881H542.506V103.588H534.164V104.881H535.15L532.117 113.627H544.63L541.52 104.881Z" fill="#13110C"/>
<path fill-rule="evenodd" clip-rule="evenodd" d="M567.532 147.398L577.695 125.113V115.605H87.5603L87.4087 115.833H16.5769V124.96C16.5769 124.96 23.4781 138.727 30.8343 147.322H567.532V147.398Z" fill="#A01A16"/>
<path d="M25.374 107.619H21.5822V115.681H25.374V107.619Z" fill="#772121"/>
<path d="M34.4745 107.619H30.4551V115.681H34.4745V107.619Z" fill="#772121"/>
<path d="M68.6769 107.619H64.8851V115.681H68.6769V107.619Z" fill="#772121"/>
<path d="M79.9008 107.619H76.1089V115.681H79.9008V107.619Z" fill="#772121"/>
<path fill-rule="evenodd" clip-rule="evenodd" d="M45.0916 115.681C40.9206 115.529 37.7355 112.106 37.8113 107.923C37.963 103.968 41.1481 100.773 45.0916 100.621H55.9363V115.681H45.0916Z" fill="#772121"/>
<path d="M559.418 106.858H555.626V114.92H559.418V106.858Z" fill="#772121"/>
<path d="M568.291 106.858H564.499V114.92H568.291V106.858Z" fill="#772121"/>
<path d="M577.619 110.889H16.5769V121.386H577.619V110.889Z" fill="#13110C"/>
<path d="M274.498 113.019L273.437 119.408C273.437 119.56 273.361 119.636 273.285 119.712C273.209 119.788 273.058 119.864 272.906 119.788H271.465C271.313 119.788 271.237 119.712 271.086 119.636C271.01 119.56 270.934 119.484 270.934 119.332L270.176 114.844C270.1 114.54 270.1 114.236 270.1 114.008H269.948C269.948 114.008 269.948 114.16 269.872 114.388C269.797 114.616 269.797 114.768 269.797 114.92L269.038 119.408C269.038 119.56 268.962 119.636 268.886 119.712C268.811 119.788 268.659 119.864 268.507 119.864H267.066C266.915 119.864 266.839 119.788 266.687 119.788C266.611 119.712 266.536 119.636 266.536 119.484L265.474 113.095H266.991L267.673 117.811C267.749 118.115 267.749 118.419 267.749 118.8H267.976C267.976 118.647 268.052 118.267 268.128 117.811L268.886 113.551C268.886 113.399 268.962 113.323 269.038 113.247C269.114 113.171 269.266 113.095 269.417 113.095H270.707C270.858 113.095 270.934 113.171 271.086 113.247C271.162 113.323 271.237 113.475 271.237 113.551L271.996 117.811C272.072 118.267 272.147 118.647 272.147 118.8H272.375C272.375 118.419 272.451 118.115 272.451 117.811L273.133 113.019H274.498Z" fill="#FCFCFD"/>
<path d="M284.054 113.019L282.992 119.408C282.992 119.56 282.916 119.636 282.84 119.712C282.765 119.788 282.613 119.864 282.461 119.788H281.02C280.869 119.788 280.793 119.712 280.641 119.636C280.565 119.56 280.49 119.484 280.49 119.332L279.731 114.844C279.655 114.54 279.655 114.236 279.579 114.008H279.428C279.428 114.008 279.428 114.16 279.428 114.388C279.428 114.616 279.352 114.768 279.352 114.92L278.594 119.408C278.594 119.56 278.518 119.636 278.442 119.712C278.366 119.788 278.214 119.864 278.063 119.864H276.622C276.47 119.864 276.394 119.788 276.243 119.788C276.167 119.712 276.091 119.636 276.015 119.484L274.953 113.095H276.47L277.153 117.811C277.153 118.115 277.229 118.419 277.229 118.8H277.456C277.456 118.647 277.532 118.267 277.608 117.811L278.366 113.551C278.366 113.399 278.442 113.323 278.518 113.247C278.594 113.171 278.745 113.095 278.897 113.095H280.186C280.338 113.095 280.414 113.171 280.565 113.247C280.641 113.323 280.717 113.475 280.717 113.551L281.475 117.811C281.551 118.343 281.627 118.647 281.627 118.8H281.855C281.855 118.419 281.93 118.115 281.93 117.811L282.613 113.019H284.054Z" fill="#FCFCFD"/>
<path d="M293.685 113.019L292.623 119.408C292.623 119.56 292.548 119.636 292.472 119.712C292.396 119.788 292.244 119.864 292.093 119.788H290.576C290.424 119.788 290.348 119.712 290.197 119.636C290.121 119.56 290.045 119.484 290.045 119.332L289.287 114.844C289.211 114.54 289.211 114.236 289.211 114.008H289.059C289.059 114.008 289.059 114.16 288.983 114.388C288.907 114.616 288.907 114.768 288.907 114.92L288.149 119.408C288.149 119.56 288.073 119.636 287.997 119.712C287.922 119.788 287.77 119.864 287.618 119.864H286.177C286.026 119.864 285.95 119.788 285.798 119.788C285.722 119.712 285.646 119.636 285.646 119.484L284.585 113.095H286.101L286.784 117.811C286.784 118.115 286.86 118.419 286.86 118.8H287.087C287.087 118.647 287.163 118.267 287.239 117.811L287.997 113.551C287.997 113.399 288.073 113.323 288.149 113.247C288.225 113.171 288.377 113.095 288.528 113.095H289.817C289.969 113.095 290.045 113.171 290.197 113.247C290.272 113.323 290.348 113.475 290.348 113.551L291.107 117.811C291.183 118.267 291.258 118.647 291.258 118.8H291.486C291.486 118.419 291.562 118.115 291.562 117.811L292.244 113.019H293.685Z" fill="#FCFCFD"/>
<path d="M294.747 118.343H295.126C295.278 118.343 295.429 118.343 295.505 118.419C295.581 118.495 295.657 118.647 295.581 118.8V119.256C295.581 119.408 295.581 119.56 295.505 119.636C295.354 119.712 295.278 119.788 295.126 119.712H294.747C294.595 119.712 294.444 119.712 294.368 119.636C294.292 119.484 294.216 119.408 294.292 119.256V118.8C294.292 118.647 294.292 118.495 294.368 118.419C294.444 118.343 294.595 118.267 294.747 118.343Z" fill="#FCFCFD"/>
<path d="M302.331 113.019H303.771C304.151 113.019 304.302 113.171 304.302 113.551L304.606 119.788H303.165L302.937 114.16H302.786L301.724 118.419C301.648 118.723 301.421 118.952 301.117 118.876H300.131C299.828 118.876 299.525 118.723 299.525 118.419L298.463 114.16H298.311L298.084 119.788H296.643L296.87 113.551C296.87 113.171 297.098 113.019 297.401 113.019H298.842C299.145 113.019 299.373 113.171 299.449 113.475L300.283 116.898C300.359 117.126 300.359 117.43 300.435 117.887H300.586C300.586 117.887 300.586 117.735 300.662 117.507C300.738 117.278 300.738 117.05 300.738 116.974L301.572 113.551C301.724 113.171 302.027 112.943 302.331 113.019Z" fill="#FCFCFD"/>
<path d="M314.464 113.019L313.403 119.408C313.403 119.56 313.327 119.636 313.251 119.712C313.175 119.788 313.024 119.864 312.872 119.788H311.431C311.279 119.788 311.203 119.712 311.052 119.636C310.976 119.56 310.9 119.484 310.9 119.332L310.142 114.844C310.066 114.54 310.066 114.236 309.99 114.008H309.838C309.838 114.008 309.838 114.16 309.838 114.388C309.838 114.616 309.763 114.768 309.763 114.92L309.004 119.408C309.004 119.56 308.928 119.636 308.853 119.712C308.777 119.788 308.625 119.864 308.473 119.864H307.032C306.881 119.864 306.805 119.788 306.653 119.788C306.577 119.712 306.502 119.636 306.426 119.484L305.364 113.095H306.881L307.563 117.811C307.563 118.115 307.639 118.419 307.639 118.8H307.867C307.867 118.647 307.943 118.267 308.018 117.811L308.777 113.551C308.777 113.399 308.853 113.323 308.928 113.247C309.004 113.171 309.156 113.095 309.308 113.095H310.597C310.748 113.095 310.824 113.171 310.976 113.247C311.052 113.323 311.128 113.475 311.128 113.551L311.886 117.811C311.962 118.343 312.038 118.647 312.038 118.8H312.265C312.265 118.419 312.341 118.115 312.341 117.811L313.024 113.019H314.464Z" fill="#FCFCFD"/>
<path d="M317.953 117.202L316.588 116.746C315.678 116.518 315.071 115.681 315.147 114.768C315.071 114.236 315.299 113.627 315.678 113.247C316.285 112.943 316.967 112.791 317.574 112.867C318.332 112.867 319.091 112.943 319.849 113.171L319.773 114.236C319.166 114.236 318.484 114.236 317.65 114.236C317.422 114.236 317.119 114.236 316.891 114.312C316.74 114.388 316.664 114.54 316.664 114.844C316.664 114.997 316.664 115.225 316.815 115.301C316.967 115.453 317.195 115.529 317.422 115.605L318.711 116.061C319.166 116.213 319.546 116.442 319.849 116.822C320.076 117.202 320.228 117.659 320.152 118.039C320.228 118.647 320.001 119.18 319.621 119.636C319.015 119.94 318.332 120.093 317.65 120.016C316.891 120.016 316.057 119.94 315.299 119.788L315.375 118.723L317.65 118.8C317.953 118.8 318.18 118.8 318.484 118.647C318.636 118.571 318.711 118.419 318.711 118.115C318.711 117.963 318.711 117.735 318.56 117.659C318.332 117.354 318.18 117.278 317.953 117.202Z" fill="#FCFCFD"/>
<path d="M326.598 113.019V119.864H325.082V116.822H322.655V119.864H321.138V113.019H322.655V115.605H325.082V113.019H326.598Z" fill="#FCFCFD"/>
<path d="M329.48 119.788H327.963V112.943H329.48V119.788Z" fill="#FCFCFD"/>
<path d="M330.845 119.788V112.943C331.452 112.867 332.286 112.867 333.424 112.867C334.106 112.791 334.789 112.943 335.395 113.323C335.775 113.78 336.002 114.464 335.926 115.073C336.002 115.681 335.85 116.366 335.395 116.822C334.865 117.202 334.258 117.354 333.575 117.278C333.12 117.278 332.741 117.278 332.286 117.202V119.712L330.845 119.788ZM332.362 116.213H333.424C333.727 116.213 333.955 116.137 334.182 115.985C334.334 115.757 334.41 115.453 334.41 115.149C334.41 114.844 334.334 114.54 334.182 114.312C333.955 114.16 333.727 114.084 333.424 114.084H332.362V116.213Z" fill="#FCFCFD"/>
<path d="M336.533 118.343H336.912C337.064 118.343 337.216 118.343 337.291 118.419C337.367 118.495 337.443 118.647 337.367 118.8V119.256C337.367 119.408 337.367 119.56 337.291 119.636C337.216 119.712 337.064 119.788 336.912 119.712H336.533C336.381 119.712 336.23 119.712 336.154 119.636C336.078 119.484 336.002 119.408 336.078 119.256V118.8C336.078 118.647 336.078 118.495 336.154 118.419C336.23 118.343 336.381 118.267 336.533 118.343Z" fill="#FCFCFD"/>
<path d="M343.283 118.571L343.434 119.712C342.752 119.94 341.993 120.017 341.235 120.017C340.401 120.093 339.567 119.864 339.036 119.256C338.201 117.507 338.201 115.529 339.036 113.78C339.642 113.171 340.477 112.943 341.235 113.019C341.917 113.019 342.6 113.095 343.283 113.247L343.131 114.388C342.6 114.388 341.993 114.312 341.235 114.312C340.856 114.236 340.477 114.464 340.249 114.768C340.022 115.301 339.946 115.909 339.946 116.518C339.87 117.126 340.022 117.735 340.249 118.267C340.477 118.571 340.856 118.8 341.235 118.723C341.917 118.647 342.6 118.647 343.283 118.571Z" fill="#FCFCFD"/>
<path d="M344.723 113.627C346.088 112.639 347.909 112.639 349.274 113.627C350.108 115.377 350.108 117.43 349.274 119.18C347.909 120.169 346.088 120.169 344.723 119.18C343.889 117.43 343.889 115.377 344.723 113.627ZM348.06 114.54C347.833 114.16 347.454 114.008 346.999 114.084C346.619 114.008 346.164 114.236 345.937 114.54C345.558 115.757 345.558 117.05 345.937 118.191C346.164 118.571 346.543 118.723 346.999 118.647C347.378 118.723 347.833 118.495 348.06 118.191C348.439 117.05 348.439 115.757 348.06 114.54Z" fill="#FCFCFD"/>
<path d="M356.554 113.019H357.995C358.374 113.019 358.526 113.171 358.526 113.551L358.829 119.788H357.388L357.161 114.16H357.009L355.947 118.419C355.947 118.723 355.644 118.952 355.341 118.876H354.355C354.051 118.876 353.748 118.723 353.748 118.419L352.686 114.16H352.535L352.307 119.788H350.866L351.094 113.551C351.094 113.171 351.321 113.019 351.625 113.019H353.066C353.369 113.019 353.596 113.171 353.672 113.475L354.506 116.898C354.582 117.126 354.582 117.43 354.658 117.887H354.81C354.81 117.887 354.81 117.735 354.886 117.507C354.961 117.278 354.961 117.05 354.961 116.974L355.796 113.551C355.947 113.171 356.251 112.943 356.554 113.019Z" fill="#FCFCFD"/>
<path d="M291.41 9.57715V3.03598H292.017V0.906291H291.41V0.754171H289.742V0.830231H282.158V0.754171H280.49V0.830231H272.906V0.754171H271.237V0.830231H263.654V0.754171H261.985V0.830231H254.402V0.754171H252.733V0.830231H245.15V0.754171H243.481V0.830231H239.689V0.602051H238.931V0.906291H235.897V0.754171H234.229V0.830231H226.645V0.754171H224.977V0.830231H217.393V0.754171H215.725V0.830231H208.141V0.754171H206.397V0.830231H198.813V0.754171H197.145V0.830231H189.561V0.754171H187.893V0.830231H180.309V0.754171H178.641V0.830231H171.057V0.754171H169.388V0.830231H161.805V0.754171H160.136V0.830231H152.553V0.754171H150.884V0.830231H143.3V0.754171H141.632V0.830231H134.048V0.754171H132.38V0.830231H131.622V2.95992H132.38V8.05595H131.622V11.6308H292.017V9.50109H291.41V9.57715ZM289.742 3.03598V8.13201H282.158V3.03598H289.742ZM280.49 3.03598V8.13201H272.906V3.03598H280.49ZM271.237 3.03598V8.13201H263.654V3.03598H271.237ZM261.985 3.03598V8.13201H254.402V3.03598H261.985ZM252.733 3.03598V8.13201H245.15V3.03598H252.733ZM243.481 3.03598V8.13201H235.897V3.03598H243.481ZM234.229 3.03598V8.13201H226.645V3.03598H234.229ZM224.977 3.03598V8.13201H217.393V3.03598H224.977ZM215.649 3.03598V8.13201H208.065V3.03598H215.649ZM206.397 3.03598V8.13201H198.813V3.03598H206.397ZM197.145 3.03598V8.13201H189.561V3.03598H197.145ZM187.893 3.03598V8.13201H180.309V3.03598H187.893ZM178.641 3.03598V8.13201H171.057V3.03598H178.641ZM169.388 3.03598V8.13201H161.805V3.03598H169.388ZM160.136 3.03598V8.13201H152.553V3.03598H160.136ZM150.884 3.03598V8.13201H143.3V3.03598H150.884ZM133.973 3.03598H141.556V8.13201H133.973V3.03598Z" fill="#F6B800"/>
<path d="M407.82 27.6034C395.838 27.6034 392.197 36.1221 392.197 46.9227C392.197 57.7232 396.065 66.242 407.82 66.242H527.566V27.6034H407.82Z" fill="url(#paint4_linear_179_251)"/>
<path d="M407.82 27.6034C395.838 27.6034 392.197 36.1221 392.197 46.9227C392.197 57.7232 396.065 66.242 407.82 66.242H527.566V27.6034H407.82Z" fill="white"/>
<path d="M507.849 29.581H507.015V65.7856H507.849V29.581Z" fill="#EFAF78"/>
<path d="M487.524 29.581H486.69V65.7856H487.524V29.581Z" fill="#EFAF78"/>
<path d="M467.276 29.581H466.442V65.7856H467.276V29.581Z" fill="#EFAF78"/>
<path d="M402.132 42.0548L401.07 43.1197L398.719 41.2942L399.781 40.1533L419.499 19.6931L420.56 18.6283L421.698 19.541L422.911 18.6283L423.897 19.6931L443.691 40.1533L444.677 41.2942L442.326 43.1197L441.34 42.0548L421.698 21.6707L402.132 42.0548Z" fill="url(#paint5_linear_179_251)"/>
<path d="M402.132 88.5274L401.07 89.5923L398.719 87.6908L399.781 86.6259L419.499 66.1657L420.56 65.1009L421.698 66.0136L422.911 65.1009L423.897 66.1657L443.691 86.6259L444.677 87.6908L442.326 89.5923L441.34 88.5274L421.698 68.1433L402.132 88.5274Z" fill="url(#paint6_linear_179_251)"/>
<path d="M402.132 63.732L401.07 64.7968L398.719 62.8953L399.781 61.8305L419.499 41.3703L420.56 40.3055L421.698 41.2182L422.911 40.3055L423.897 41.3703L443.691 61.8305L444.677 62.8953L442.326 64.7968L441.34 63.732L421.698 43.3479L402.132 63.732Z" fill="url(#paint7_linear_179_251)"/>
<path d="M400.691 15.8141H395.913V90.8094H400.691V15.8141Z" fill="url(#paint8_linear_179_251)"/>
<path d="M447.331 15.8141H442.553V90.8094H447.331V15.8141Z" fill="url(#paint9_linear_179_251)"/>
<path d="M494.122 15.8141H489.344V90.8094H494.122V15.8141Z" fill="url(#paint10_linear_179_251)"/>
<path d="M535.908 39.4688H297.78V42.6633H535.908V39.4688Z" fill="url(#paint11_linear_179_251)"/>
<path d="M442.553 64.3405H400.691V67.0786H442.553V64.3405Z" fill="url(#paint12_linear_179_251)"/>
<path d="M535.984 18.4001H300.283V21.2144H535.984V18.4001Z" fill="url(#paint13_linear_179_251)"/>
<path d="M535.909 58.9399H447.331V61.3739H535.909V58.9399Z" fill="url(#paint14_linear_179_251)"/>
<path d="M535.908 65.7095H447.331V73.3916H535.908V65.7095Z" fill="url(#paint15_linear_179_251)"/>
<path d="M508.455 33.3079H507.394V40.0773H508.455V33.3079Z" fill="url(#paint16_linear_179_251)"/>
<path d="M502.54 33.3079H501.478V40.0773H502.54V33.3079Z" fill="url(#paint17_linear_179_251)"/>
<path d="M496.549 33.3079H495.487V40.0773H496.549V33.3079Z" fill="url(#paint18_linear_179_251)"/>
<path d="M490.634 33.3079H489.572V40.0773H490.634V33.3079Z" fill="url(#paint19_linear_179_251)"/>
<path d="M484.718 33.3079H483.657V40.0773H484.718V33.3079Z" fill="url(#paint20_linear_179_251)"/>
<path d="M478.803 33.3079H477.741V40.0773H478.803V33.3079Z" fill="url(#paint21_linear_179_251)"/>
<path d="M472.888 33.3079H471.826V40.0773H472.888V33.3079Z" fill="url(#paint22_linear_179_251)"/>
<path d="M466.973 33.3079H465.911V40.0773H466.973V33.3079Z" fill="url(#paint23_linear_179_251)"/>
<path d="M461.057 33.3079H459.996V40.0773H461.057V33.3079Z" fill="url(#paint24_linear_179_251)"/>
<path d="M455.142 33.3079H454.08V40.0773H455.142V33.3079Z" fill="url(#paint25_linear_179_251)"/>
<path d="M449.227 33.3079H448.165V40.0773H449.227V33.3079Z" fill="url(#paint26_linear_179_251)"/>
<path d="M443.311 33.3079H442.25V40.0773H443.311V33.3079Z" fill="url(#paint27_linear_179_251)"/>
<path d="M437.396 33.3079H436.334V40.0773H437.396V33.3079Z" fill="url(#paint28_linear_179_251)"/>
<path d="M431.481 33.3079H430.419V40.0773H431.481V33.3079Z" fill="url(#paint29_linear_179_251)"/>
<path d="M425.49 33.3079H424.428V40.0773H425.49V33.3079Z" fill="url(#paint30_linear_179_251)"/>
<path d="M419.574 33.3079H418.513V40.0773H419.574V33.3079Z" fill="url(#paint31_linear_179_251)"/>
<path d="M413.659 33.3079H412.598V40.0773H413.659V33.3079Z" fill="url(#paint32_linear_179_251)"/>
<path d="M407.744 33.3079H406.682V40.0773H407.744V33.3079Z" fill="url(#paint33_linear_179_251)"/>
<path d="M401.829 33.3079H400.767V40.0773H401.829V33.3079Z" fill="url(#paint34_linear_179_251)"/>
<path d="M395.913 33.3079H394.852V40.0773H395.913V33.3079Z" fill="url(#paint35_linear_179_251)"/>
<path d="M389.998 33.3079H388.936V40.0773H389.998V33.3079Z" fill="url(#paint36_linear_179_251)"/>
<path d="M384.083 33.3079H383.021V40.0773H384.083V33.3079Z" fill="url(#paint37_linear_179_251)"/>
<path d="M378.168 33.3079H377.106V40.0773H378.168V33.3079Z" fill="url(#paint38_linear_179_251)"/>
<path d="M372.252 33.3079H371.19V40.0773H372.252V33.3079Z" fill="url(#paint39_linear_179_251)"/>
<path fill-rule="evenodd" clip-rule="evenodd" d="M300.283 33.3079V34.2967H513.309V36.5785H300.283V37.5673H513.309V40.0773H514.371V33.3079H300.283Z" fill="url(#paint40_linear_179_251)"/>
<path d="M395.913 56.8105H376.272C375.362 56.8105 374.527 57.1908 373.845 57.7993C373.238 58.4078 372.859 59.3205 372.859 60.2332V92.7109H369.446V60.2332C369.446 58.4078 370.129 56.6584 371.418 55.4414C372.707 54.1484 374.451 53.4639 376.272 53.4639H395.913V56.8105Z" fill="url(#paint41_linear_179_251)"/>
<path d="M356.099 92.7109V70.9577C356.099 69.1323 356.781 67.3829 358.071 66.1659C359.36 64.8729 361.104 64.1883 362.848 64.1883H395.838V67.535H362.848C361.938 67.535 361.104 67.9153 360.422 68.5238C359.815 69.1323 359.436 70.045 359.436 70.9577V92.7109H356.099Z" fill="url(#paint42_linear_179_251)"/>
<path d="M393.866 88.5274L392.804 89.5923L390.453 87.6908L391.515 86.6259L411.233 66.1657L412.294 65.1009L413.432 66.0136L414.645 65.1009L415.707 66.1657L435.425 86.6259L436.41 87.6908L434.059 89.5923L433.074 88.5274L413.432 68.1433L393.866 88.5274Z" fill="url(#paint43_linear_179_251)"/>
<path d="M393.866 42.0548L392.804 43.1197L390.453 41.2942L391.515 40.1533L411.232 19.6931L412.294 18.6283L413.432 19.541L414.645 18.6283L415.707 19.6931L435.424 40.1533L436.41 41.2942L434.059 43.1197L433.074 42.0548L413.432 21.6707L393.866 42.0548Z" fill="url(#paint44_linear_179_251)"/>
<path d="M393.866 63.732L392.804 64.7968L390.453 62.8953L391.515 61.8305L411.232 41.3703L412.294 40.3055L413.432 41.2182L414.645 40.3055L415.707 41.3703L435.424 61.8305L436.41 62.8953L434.059 64.7968L433.074 63.732L413.432 43.3479L393.866 63.732Z" fill="url(#paint45_linear_179_251)"/>
<path d="M392.425 15.8141H387.647V90.8094H392.425V15.8141Z" fill="url(#paint46_linear_179_251)"/>
<path d="M439.065 15.8141H434.287V90.8094H439.065V15.8141Z" fill="url(#paint47_linear_179_251)"/>
<path d="M485.856 15.8141H481.078V90.8094H485.856V15.8141Z" fill="url(#paint48_linear_179_251)"/>
<path d="M532.496 15.8141H527.718V90.8094H532.496V15.8141Z" fill="url(#paint49_linear_179_251)"/>
<path d="M342.524 15.8141H337.746V42.8154H342.524V15.8141Z" fill="url(#paint50_linear_179_251)"/>
<path d="M434.363 64.3405H392.501V67.0786H434.363V64.3405Z" fill="url(#paint51_linear_179_251)"/>
<path d="M527.718 18.4001H292.017V21.2144H527.718V18.4001Z" fill="url(#paint52_linear_179_251)"/>
<path d="M527.642 58.9399H439.065V61.3739H527.642V58.9399Z" fill="url(#paint53_linear_179_251)"/>
<path d="M527.642 65.7095H439.065V73.3916H527.642V65.7095Z" fill="url(#paint54_linear_179_251)"/>
<path fill-rule="evenodd" clip-rule="evenodd" d="M506.104 38.9364V33.3079H291.865V38.9364H289.59V43.1197H527.718V38.9364H506.104ZM292.927 38.9364V34.2967H297.78V38.9364H292.927ZM298.842 38.9364V34.2967H303.696V38.9364H298.842ZM304.757 38.9364V34.2967H309.611V38.9364H304.757ZM310.673 38.9364V34.2967H315.526V38.9364H310.673ZM316.588 38.9364V34.2967H321.441V38.9364H316.588ZM322.503 38.9364V34.2967H327.357V38.9364H322.503ZM328.418 38.9364V34.2967H333.272V38.9364H328.418ZM334.334 38.9364V34.2967H339.187V38.9364H334.334ZM340.249 38.9364V34.2967H345.178V38.9364H340.249ZM346.164 38.9364V34.2967H351.018V38.9364H346.164ZM352.08 38.9364V34.2967H356.933V38.9364H352.08ZM358.071 38.9364V34.2967H362.924V38.9364H358.071ZM363.986 38.9364V34.2967H368.84V38.9364H363.986ZM369.901 38.9364V34.2967H374.755V38.9364H369.901ZM375.817 38.9364V34.2967H380.67V38.9364H375.817ZM381.732 38.9364V34.2967H386.585V38.9364H381.732ZM387.647 38.9364V34.2967H392.501V38.9364H387.647ZM393.562 38.9364V34.2967H398.416V38.9364H393.562ZM399.478 38.9364V34.2967H404.331V38.9364H399.478ZM405.393 38.9364V34.2967H410.247V38.9364H405.393ZM411.308 38.9364V34.2967H416.162V38.9364H411.308ZM417.224 38.9364V34.2967H422.077V38.9364H417.224ZM423.139 38.9364V34.2967H427.992V38.9364H423.139ZM429.13 38.9364V34.2967H433.983V38.9364H429.13ZM435.045 38.9364V34.2967H439.899V38.9364H435.045ZM440.96 38.9364V34.2967H445.814V38.9364H440.96ZM446.876 38.9364V34.2967H451.729V38.9364H446.876ZM452.791 38.9364V34.2967H457.645V38.9364H452.791ZM458.706 38.9364V34.2967H463.56V38.9364H458.706ZM464.622 38.9364V34.2967H469.475V38.9364H464.622ZM470.537 38.9364V34.2967H475.39V38.9364H470.537ZM476.452 38.9364V34.2967H481.306V38.9364H476.452ZM482.367 38.9364V34.2967H487.221V38.9364H482.367ZM488.283 38.9364V34.2967H493.136V38.9364H488.283ZM494.198 38.9364V34.2967H499.127V38.9364H494.198ZM500.189 38.9364V34.2967H505.043V38.9364H500.189Z" fill="url(#paint55_linear_179_251)"/>
<path d="M506.104 36.5785H292.017V37.5673H506.104V36.5785Z" fill="url(#paint56_linear_179_251)"/>
<path d="M520.134 85.9415H519.073V92.7109H520.134V85.9415Z" fill="url(#paint57_linear_179_251)"/>
<path d="M514.219 85.9415H513.157V92.7109H514.219V85.9415Z" fill="url(#paint58_linear_179_251)"/>
<path d="M508.304 85.9415H507.242V92.7109H508.304V85.9415Z" fill="url(#paint59_linear_179_251)"/>
<path d="M502.313 85.9415H501.251V92.7109H502.313V85.9415Z" fill="url(#paint60_linear_179_251)"/>
<path d="M496.397 85.9415H495.336V92.7109H496.397V85.9415Z" fill="url(#paint61_linear_179_251)"/>
<path d="M490.482 85.9415H489.42V92.7109H490.482V85.9415Z" fill="url(#paint62_linear_179_251)"/>
<path d="M484.567 85.9415H483.505V92.7109H484.567V85.9415Z" fill="url(#paint63_linear_179_251)"/>
<path d="M478.651 85.9415H477.59V92.7109H478.651V85.9415Z" fill="url(#paint64_linear_179_251)"/>
<path d="M472.736 85.9415H471.674V92.7109H472.736V85.9415Z" fill="url(#paint65_linear_179_251)"/>
<path d="M466.821 85.9415H465.759V92.7109H466.821V85.9415Z" fill="url(#paint66_linear_179_251)"/>
<path d="M460.906 85.9415H459.844V92.7109H460.906V85.9415Z" fill="url(#paint67_linear_179_251)"/>
<path d="M454.99 85.9415H453.929V92.7109H454.99V85.9415Z" fill="url(#paint68_linear_179_251)"/>
<path d="M449.075 85.9415H448.013V92.7109H449.075V85.9415Z" fill="url(#paint69_linear_179_251)"/>
<path d="M443.16 85.9415H442.098V92.7109H443.16V85.9415Z" fill="url(#paint70_linear_179_251)"/>
<path d="M437.245 85.9415H436.183V92.7109H437.245V85.9415Z" fill="url(#paint71_linear_179_251)"/>
<path d="M431.329 85.9415H430.268V92.7109H431.329V85.9415Z" fill="url(#paint72_linear_179_251)"/>
<path d="M425.338 85.9415H424.276V92.7109H425.338V85.9415Z" fill="url(#paint73_linear_179_251)"/>
<path d="M419.423 85.9415H418.361V92.7109H419.423V85.9415Z" fill="url(#paint74_linear_179_251)"/>
<path d="M413.508 85.9415H412.446V92.7109H413.508V85.9415Z" fill="url(#paint75_linear_179_251)"/>
<path d="M407.592 85.9415H406.531V92.7109H407.592V85.9415Z" fill="url(#paint76_linear_179_251)"/>
<path d="M401.677 85.9415H400.615V92.7109H401.677V85.9415Z" fill="url(#paint77_linear_179_251)"/>
<path d="M395.762 85.9415H394.7V92.7109H395.762V85.9415Z" fill="url(#paint78_linear_179_251)"/>
<path d="M389.846 85.9415H388.785V92.7109H389.846V85.9415Z" fill="url(#paint79_linear_179_251)"/>
<path d="M383.931 85.9415H382.869V92.7109H383.931V85.9415Z" fill="url(#paint80_linear_179_251)"/>
<path d="M378.016 85.9415H376.954V92.7109H378.016V85.9415Z" fill="url(#paint81_linear_179_251)"/>
<path d="M372.101 85.9415H371.039V92.7109H372.101V85.9415Z" fill="url(#paint82_linear_179_251)"/>
<path d="M366.185 85.9415H365.124V92.7109H366.185V85.9415Z" fill="url(#paint83_linear_179_251)"/>
<path d="M360.27 85.9415H359.208V92.7109H360.27V85.9415Z" fill="url(#paint84_linear_179_251)"/>
<path d="M354.279 85.9415H353.217V92.7109H354.279V85.9415Z" fill="url(#paint85_linear_179_251)"/>
<path d="M348.364 85.9415H347.302V92.7109H348.364V85.9415Z" fill="url(#paint86_linear_179_251)"/>
<path d="M342.448 85.9415H341.387V92.7109H342.448V85.9415Z" fill="url(#paint87_linear_179_251)"/>
<path d="M336.533 85.9415H335.471V92.7109H336.533V85.9415Z" fill="url(#paint88_linear_179_251)"/>
<path d="M330.618 85.9415H329.556V92.7109H330.618V85.9415Z" fill="url(#paint89_linear_179_251)"/>
<path d="M324.702 85.9415H323.641V92.7109H324.702V85.9415Z" fill="url(#paint90_linear_179_251)"/>
<path d="M318.787 85.9415H317.725V92.7109H318.787V85.9415Z" fill="url(#paint91_linear_179_251)"/>
<path d="M312.872 85.9415H311.81V92.7109H312.872V85.9415Z" fill="url(#paint92_linear_179_251)"/>
<path d="M306.957 85.9415H305.895V92.7109H306.957V85.9415Z" fill="url(#paint93_linear_179_251)"/>
<path d="M520.134 85.9415H306.047V86.9303H520.134L520.134 85.9415Z" fill="url(#paint94_linear_179_251)"/>
<path d="M387.647 56.8105H368.005C367.095 56.8105 366.261 57.1908 365.579 57.7993C364.972 58.4078 364.593 59.3205 364.593 60.2332V92.7109H361.18V60.2332C361.18 58.4078 361.863 56.6584 363.152 55.4414C364.441 54.1484 366.185 53.4639 367.93 53.4639H387.647V56.8105Z" fill="url(#paint95_linear_179_251)"/>
<path d="M347.833 92.7109V70.9577C347.833 69.1323 348.515 67.3829 349.805 66.1659C351.094 64.8729 352.762 64.1883 354.582 64.1883H387.647V67.535H354.658C353.748 67.535 352.914 67.9153 352.231 68.5238C351.549 69.1323 351.245 70.045 351.245 70.9577V92.7109H347.833Z" fill="url(#paint96_linear_179_251)"/>
<path d="M131.773 18.4762H102.197V22.1271H131.773V18.4762Z" fill="url(#paint97_linear_179_251)"/>
<path d="M131.773 42.2833H102.197V45.9342H131.773V42.2833Z" fill="url(#paint98_linear_179_251)"/>
<path d="M131.773 65.5574H102.197V69.2083H131.773V65.5574Z" fill="url(#paint99_linear_179_251)"/>
<path d="M126.92 11.7068H125.858V18.4762H126.92V11.7068Z" fill="url(#paint100_linear_179_251)"/>
<path d="M121.004 11.7068H119.943V18.4762H121.004V11.7068Z" fill="url(#paint101_linear_179_251)"/>
<path d="M115.089 11.7068H114.027V42.3591H115.089V11.7068Z" fill="url(#paint102_linear_179_251)"/>
<path d="M109.174 11.7068H108.112V18.4762H109.174V11.7068Z" fill="url(#paint103_linear_179_251)"/>
<path d="M103.259 11.7068H102.197V42.3591H103.259V11.7068Z" fill="url(#paint104_linear_179_251)"/>
<path d="M131.773 11.7068H102.197V12.6956H131.773V11.7068Z" fill="url(#paint105_linear_179_251)"/>
<path d="M131.773 14.9774H102.197V15.9662H131.773V14.9774Z" fill="url(#paint106_linear_179_251)"/>
<path d="M126.92 35.5137H125.858V42.283H126.92V35.5137Z" fill="url(#paint107_linear_179_251)"/>
<path d="M121.004 35.5137H119.943V42.283H121.004V35.5137Z" fill="url(#paint108_linear_179_251)"/>
<path d="M115.089 35.5137H114.027V42.283H115.089V35.5137Z" fill="url(#paint109_linear_179_251)"/>
<path d="M109.174 35.5137H108.112V42.283H109.174V35.5137Z" fill="url(#paint110_linear_179_251)"/>
<path d="M103.259 35.5137H102.197L102.197 42.2833L103.259 42.283V35.5137Z" fill="url(#paint111_linear_179_251)"/>
<path d="M131.773 35.5137H102.197V36.5024H131.773V35.5137Z" fill="url(#paint112_linear_179_251)"/>
<path d="M131.773 38.7842H102.197V39.773H131.773V38.7842Z" fill="url(#paint113_linear_179_251)"/>
<path d="M126.92 58.712H125.858V65.4814H126.92V58.712Z" fill="url(#paint114_linear_179_251)"/>
<path d="M114.027 22.9637H103.259V23.9525H114.027V22.9637Z" fill="url(#paint115_linear_179_251)"/>
<path d="M114.027 25.5498H103.259V26.5386H114.027V25.5498Z" fill="url(#paint116_linear_179_251)"/>
<path d="M114.027 28.1358H103.259V29.1246H114.027V28.1358Z" fill="url(#paint117_linear_179_251)"/>
<path d="M114.027 30.7219H103.259V31.7107H114.027V30.7219Z" fill="url(#paint118_linear_179_251)"/>
<path d="M114.027 33.3079H103.259V34.2967H114.027V33.3079Z" fill="url(#paint119_linear_179_251)"/>
<path d="M114.027 46.8466H103.259V47.8354H114.027V46.8466Z" fill="url(#paint120_linear_179_251)"/>
<path d="M131.773 59.7769V58.7881H115.089L115.089 35.5137H114.027V58.712H103.259V58.1035H114.027V57.1147H103.259V55.5936H114.027V54.6048H103.259V53.0075H114.027V52.0187H103.259V50.4215H114.027V49.4327H103.259V35.5137H102.197V66.0898H103.259V62.9714H108.112V65.4814H109.174V62.9714H114.027V66.0898H115.089V62.9714H119.943V65.4814H121.004V62.9714H131.773V61.9826H121.004V59.7008H131.773V59.7769ZM108.112 61.9826H103.259V59.7008H108.112V61.9826ZM114.027 61.9826H109.174V59.7008H114.027V61.9826ZM119.943 61.9826H115.089V59.7008H119.943V61.9826Z" fill="url(#paint121_linear_179_251)"/>
<path d="M104.093 66.8504L137.385 88.4515L135.717 90.7333L102.424 69.1323L104.093 66.8504Z" fill="url(#paint122_linear_179_251)"/>
<path d="M134.883 72.631L106.368 93.4715L108.036 95.8294L136.551 74.9889L134.883 72.631Z" fill="url(#paint123_linear_179_251)"/>
<path d="M540.838 88.8318H86.6503V103.816H540.838V88.8318Z" fill="url(#paint124_linear_179_251)"/>
<path d="M3.15381 162.99C7.249 160.557 41.6031 127.318 197.145 133.251C354.506 139.184 478.727 151.049 608.788 130.969C608.788 130.969 551.607 167.934 418.589 163.447C302.179 159.492 247.121 153.483 134.579 154.776C55.3296 155.765 3.15381 162.99 3.15381 162.99Z" fill="#B8D8EB"/>
<path fill-rule="evenodd" clip-rule="evenodd" d="M131.773 41.1421H158.316H131.773ZM131.773 67.6871H155.434V70.121H131.773V67.6871ZM190.774 73.4677H198.813V89.3643H190.774V73.4677ZM166.734 22.9637H182.508V42.283H166.734V22.9637ZM209.885 22.9637H225.659V42.283H209.885V22.9637ZM298.16 64.1123H317.422V86.9303H298.16V64.1123ZM131.773 11.0984H292.017V46.9987H342.524V90.7333H131.697L131.773 11.0984Z" fill="#D9D8D6"/>
<path d="M520.134 85.9415H519.073V92.7109H520.134V85.9415ZM520.134 85.9415H306.047V86.9303H520.134L520.134 85.9415ZM102.197 42.2833H131.773V45.9342H102.197V42.2833ZM102.197 42.2833L103.259 42.283V35.5137M102.197 42.2833L102.197 35.5137M102.197 11.7068H103.259V42.3591H102.197V11.7068ZM102.197 11.7068H131.773V12.6956H102.197V11.7068ZM114.027 35.5137H115.089M114.027 35.5137V42.283H115.089V35.5137M114.027 35.5137V58.712H103.259V58.1035H114.027V57.1148H103.259V55.5936H114.027V54.6048H103.259V53.0075H114.027V52.0187H103.259V50.4215H114.027V49.4327H103.259V35.5137M115.089 35.5137L115.089 58.7881H131.773V59.7769V59.7008H121.004V61.9826H131.773V62.9714H121.004V65.4814H119.943V62.9714H115.089V66.0898H114.027V62.9714H109.174V65.4814H108.112V62.9714H103.259V66.0898H102.197V35.5137M102.197 35.5137H103.259M102.197 35.5137H131.773V36.5024H102.197V35.5137ZM131.773 41.1421H158.316M540.61 9.19685C538.335 7.90383 535.757 7.21928 533.102 7.29534H481.382C478.803 7.21928 476.301 7.90383 474.101 9.19685C472.205 10.3378 471.068 12.0111 471.068 13.7605V32.4713H476.225V13.7605C476.301 12.7717 476.907 11.935 477.741 11.4787C478.803 10.7941 480.092 10.4899 481.382 10.4899H533.102C534.392 10.4899 535.681 10.7941 536.818 11.4026C537.728 11.859 538.259 12.6956 538.335 13.6844V46.9227C538.259 47.9115 537.653 48.7481 536.818 49.2045C535.681 49.889 534.392 50.1933 533.102 50.1172H502.464V53.3878H533.102C535.681 53.4639 538.335 52.7793 540.61 51.5624C542.506 50.3454 542.203 48.7481 542.203 46.9987V13.8365C542.203 12.0111 542.582 10.4138 540.61 9.19685ZM413.432 49.889H365.958C361.256 49.889 359.739 52.7793 359.739 56.5063C359.739 60.2332 361.256 63.1235 365.958 63.1235H413.432V49.889ZM375.513 50.1172H375.817V62.8953H375.513V50.1172ZM405.317 50.5736H405.621V62.9714H405.317V50.5736ZM397.278 50.5736H397.582V62.9714H397.278V50.5736ZM389.24 50.5736H389.543V62.9714H389.24V50.5736ZM367.475 50.1172H367.778V62.8953H367.475V50.1172ZM350.866 17.3353H178.413C176.896 17.4113 175.455 18.0959 174.469 19.2368L173.256 20.6819C172.346 21.8989 170.905 22.5834 169.313 22.5834H131.546C128.285 22.5834 125.555 26.4625 125.555 31.0261V74.9889C125.555 79.5525 128.285 83.4316 131.546 83.4316H169.464C170.981 83.5076 172.422 84.1922 173.408 85.3331L174.621 86.7782C175.607 87.9952 176.972 88.6797 178.565 88.6797H351.018C364.972 88.6797 376.196 72.7071 376.196 52.9314C376.044 33.3079 364.82 17.3353 350.866 17.3353ZM199.344 18.0959H200.027V88.1473H199.344V18.0959ZM182.357 18.0959H183.039V88.1473H182.357V18.0959ZM216.331 18.0959H217.014V88.1473H216.331V18.0959ZM233.395 18.0959H234.077V88.1473H233.395V18.0959ZM250.382 18.0959H251.065V88.1473H250.382V18.0959ZM267.446 18.0959H268.128V88.1473H267.446V18.0959ZM284.433 18.0959H285.116V88.1473H284.433V18.0959ZM301.496 18.0959H302.179V88.1473H301.496V18.0959ZM318.484 18.0959H319.166V88.1473H318.484V18.0959ZM335.547 18.0959H336.23V88.1473H335.547V18.0959ZM352.535 18.0959H353.217V88.1473H352.535V18.0959ZM345.406 14.9014H345.937V18.4762H345.406V14.9014ZM342.372 14.9014H342.903V18.4762H342.372V14.9014ZM339.263 14.9014H339.794V18.4762H339.263V14.9014ZM354.658 14.9014H355.189V18.4762H354.658V14.9014ZM351.625 14.9014H352.155V18.4762H351.625V14.9014ZM348.515 14.9014H349.046V18.4762H348.515V14.9014ZM363.91 14.9014H364.441V18.4762H363.91V14.9014ZM360.801 14.9014H361.332V18.4762H360.801V14.9014ZM357.767 14.9014H358.298V18.4762H357.767V14.9014ZM373.162 14.9014H373.693V18.4762H373.162V14.9014ZM370.053 14.9014H370.584V18.4762H370.053V14.9014ZM366.944 14.9014H367.474V18.4762H366.944V14.9014ZM382.339 14.9014H382.869V18.4762H382.339V14.9014ZM379.305 14.9014H379.836V18.4762H379.305V14.9014ZM376.196 14.9014H376.727V18.4762H376.196V14.9014ZM391.591 14.9014H392.122V18.4762H391.591V14.9014ZM388.481 14.9014H389.012V18.4762H388.481V14.9014ZM385.448 14.9014H385.979V18.4762H385.448V14.9014ZM339.036 14.9014H392.349V15.662H339.036V14.9014ZM339.036 17.3353H392.046V18.0959H339.036V17.3353ZM345.406 17.7916H345.937V21.3665H345.406V17.7916ZM342.372 17.7916H342.903V21.3665H342.372V17.7916ZM339.263 17.7916H339.794V21.3665H339.263V17.7916ZM354.658 17.7916H355.189V21.3665H354.658V17.7916ZM351.625 17.7916H352.155V21.3665H351.625V17.7916ZM348.515 17.7916H349.046V21.3665H348.515V17.7916ZM363.91 17.7916H364.441V21.3665H363.91V17.7916ZM360.801 17.7916H361.332V21.3665H360.801V17.7916ZM357.767 17.7916H358.298V21.3665H357.767V17.7916ZM373.162 17.7916H373.693V21.3665H373.162V17.7916ZM370.053 17.7916H370.584V21.3665H370.053V17.7916ZM366.944 17.7916H367.474V21.3665H366.944V17.7916ZM382.339 17.7916H382.869V21.3665H382.339V17.7916ZM379.305 17.7916H379.836V21.3665H379.305V17.7916ZM376.196 17.7916H376.727V21.3665H376.196V17.7916ZM391.591 17.7916H392.122V21.3665H391.591V17.7916ZM388.557 17.7916H389.088V21.3665H388.557V17.7916ZM385.448 17.7916H385.979V21.3665H385.448V17.7916ZM339.036 17.7916H392.349V18.5522H339.036V17.7916ZM339.036 20.2256H392.046V20.9862H339.036V20.2256ZM114.027 25.7019H527.718V28.5161H114.027V25.7019ZM94.689 104.881H95.7507V103.588H87.3328V104.881H88.3945L85.2852 113.627H97.7983L94.689 104.881ZM144.286 104.881H145.348V103.588H137.006V104.881H137.992L134.958 113.627H147.396L144.286 104.881ZM193.96 104.881H195.021V103.588H186.603V104.881H187.665L184.556 113.627H197.069L193.96 104.881ZM243.633 104.881H244.619V103.588H236.277V104.881H237.338L234.229 113.627H246.742L243.633 104.881ZM293.23 104.881H294.292V103.588H285.95V104.881H286.936L283.826 113.627H296.339L293.23 104.881ZM342.903 104.881H343.965V103.588H335.547V104.881H336.609L333.5 113.627H346.013L342.903 104.881ZM392.577 104.881H393.562V103.588H385.22V104.881H386.282L383.173 113.627H395.686L392.577 104.881ZM442.174 104.881H443.236V103.588H434.818V104.881H435.879L432.77 113.627H445.283L442.174 104.881ZM491.847 104.881H492.909V103.588H484.491V104.881H485.553L482.443 113.627H494.956L491.847 104.881ZM541.52 104.881H542.506V103.588H534.164V104.881H535.15L532.117 113.627H544.63L541.52 104.881ZM567.532 147.398L577.695 125.113V115.605H87.5603L87.4087 115.833H16.5769V124.96C16.5769 124.96 23.4781 138.727 30.8343 147.322H567.532V147.398ZM21.5822 107.619H25.374V115.681H21.5822V107.619ZM30.4551 107.619H34.4745V115.681H30.4551V107.619ZM64.8851 107.619H68.6769V115.681H64.8851V107.619ZM76.109 107.619H79.9008V115.681H76.109V107.619ZM45.0916 115.681C40.9206 115.529 37.7355 112.106 37.8113 107.923C37.963 103.968 41.1481 100.773 45.0916 100.621H55.9363V115.681H45.0916ZM555.626 106.858H559.418V114.92H555.626V106.858ZM564.499 106.858H568.291V114.92H564.499V106.858ZM16.5769 110.889H577.619V121.386H16.5769V110.889ZM274.498 113.019L273.437 119.408C273.437 119.56 273.361 119.636 273.285 119.712C273.209 119.788 273.058 119.864 272.906 119.788H271.465C271.313 119.788 271.237 119.712 271.086 119.636C271.01 119.56 270.934 119.484 270.934 119.332L270.176 114.844C270.1 114.54 270.1 114.236 270.1 114.008H269.948C269.948 114.008 269.948 114.16 269.872 114.388C269.797 114.616 269.797 114.768 269.797 114.92L269.038 119.408C269.038 119.56 268.962 119.636 268.886 119.712C268.811 119.788 268.659 119.864 268.507 119.864H267.066C266.915 119.864 266.839 119.788 266.687 119.788C266.611 119.712 266.536 119.636 266.536 119.484L265.474 113.095H266.991L267.673 117.811C267.749 118.115 267.749 118.419 267.749 118.8H267.976C267.976 118.647 268.052 118.267 268.128 117.811L268.886 113.551C268.886 113.399 268.962 113.323 269.038 113.247C269.114 113.171 269.266 113.095 269.417 113.095H270.707C270.858 113.095 270.934 113.171 271.086 113.247C271.162 113.323 271.237 113.475 271.237 113.551L271.996 117.811C272.072 118.267 272.147 118.647 272.147 118.8H272.375C272.375 118.419 272.451 118.115 272.451 117.811L273.133 113.019H274.498ZM284.054 113.019L282.992 119.408C282.992 119.56 282.916 119.636 282.84 119.712C282.765 119.788 282.613 119.864 282.461 119.788H281.02C280.869 119.788 280.793 119.712 280.641 119.636C280.565 119.56 280.49 119.484 280.49 119.332L279.731 114.844C279.655 114.54 279.655 114.236 279.579 114.008H279.428C279.428 114.008 279.428 114.16 279.428 114.388C279.428 114.616 279.352 114.768 279.352 114.92L278.594 119.408C278.594 119.56 278.518 119.636 278.442 119.712C278.366 119.788 278.214 119.864 278.063 119.864H276.622C276.47 119.864 276.394 119.788 276.243 119.788C276.167 119.712 276.091 119.636 276.015 119.484L274.953 113.095H276.47L277.153 117.811C277.153 118.115 277.229 118.419 277.229 118.8H277.456C277.456 118.647 277.532 118.267 277.608 117.811L278.366 113.551C278.366 113.399 278.442 113.323 278.518 113.247C278.594 113.171 278.745 113.095 278.897 113.095H280.186C280.338 113.095 280.414 113.171 280.565 113.247C280.641 113.323 280.717 113.475 280.717 113.551L281.475 117.811C281.551 118.343 281.627 118.647 281.627 118.8H281.855C281.855 118.419 281.93 118.115 281.93 117.811L282.613 113.019H284.054ZM293.685 113.019L292.623 119.408C292.623 119.56 292.548 119.636 292.472 119.712C292.396 119.788 292.244 119.864 292.093 119.788H290.576C290.424 119.788 290.348 119.712 290.197 119.636C290.121 119.56 290.045 119.484 290.045 119.332L289.287 114.844C289.211 114.54 289.211 114.236 289.211 114.008H289.059C289.059 114.008 289.059 114.16 288.983 114.388C288.907 114.616 288.907 114.768 288.907 114.92L288.149 119.408C288.149 119.56 288.073 119.636 287.997 119.712C287.922 119.788 287.77 119.864 287.618 119.864H286.177C286.026 119.864 285.95 119.788 285.798 119.788C285.722 119.712 285.646 119.636 285.646 119.484L284.585 113.095H286.101L286.784 117.811C286.784 118.115 286.86 118.419 286.86 118.8H287.087C287.087 118.647 287.163 118.267 287.239 117.811L287.997 113.551C287.997 113.399 288.073 113.323 288.149 113.247C288.225 113.171 288.377 113.095 288.528 113.095H289.817C289.969 113.095 290.045 113.171 290.197 113.247C290.272 113.323 290.348 113.475 290.348 113.551L291.107 117.811C291.183 118.267 291.258 118.647 291.258 118.8H291.486C291.486 118.419 291.562 118.115 291.562 117.811L292.244 113.019H293.685ZM294.747 118.343H295.126C295.278 118.343 295.429 118.343 295.505 118.419C295.581 118.495 295.657 118.647 295.581 118.8V119.256C295.581 119.408 295.581 119.56 295.505 119.636C295.354 119.712 295.278 119.788 295.126 119.712H294.747C294.595 119.712 294.444 119.712 294.368 119.636C294.292 119.484 294.216 119.408 294.292 119.256V118.8C294.292 118.647 294.292 118.495 294.368 118.419C294.444 118.343 294.595 118.267 294.747 118.343ZM302.331 113.019H303.771C304.151 113.019 304.302 113.171 304.302 113.551L304.606 119.788H303.165L302.937 114.16H302.786L301.724 118.419C301.648 118.723 301.421 118.952 301.117 118.876H300.131C299.828 118.876 299.525 118.723 299.525 118.419L298.463 114.16H298.311L298.084 119.788H296.643L296.87 113.551C296.87 113.171 297.098 113.019 297.401 113.019H298.842C299.145 113.019 299.373 113.171 299.449 113.475L300.283 116.898C300.359 117.126 300.359 117.43 300.435 117.887H300.586C300.586 117.887 300.586 117.735 300.662 117.506C300.738 117.278 300.738 117.05 300.738 116.974L301.572 113.551C301.724 113.171 302.027 112.943 302.331 113.019ZM314.464 113.019L313.403 119.408C313.403 119.56 313.327 119.636 313.251 119.712C313.175 119.788 313.024 119.864 312.872 119.788H311.431C311.279 119.788 311.203 119.712 311.052 119.636C310.976 119.56 310.9 119.484 310.9 119.332L310.142 114.844C310.066 114.54 310.066 114.236 309.99 114.008H309.838C309.838 114.008 309.838 114.16 309.838 114.388C309.838 114.616 309.763 114.768 309.763 114.92L309.004 119.408C309.004 119.56 308.928 119.636 308.853 119.712C308.777 119.788 308.625 119.864 308.473 119.864H307.032C306.881 119.864 306.805 119.788 306.653 119.788C306.577 119.712 306.502 119.636 306.426 119.484L305.364 113.095H306.881L307.563 117.811C307.563 118.115 307.639 118.419 307.639 118.8H307.867C307.867 118.647 307.942 118.267 308.018 117.811L308.777 113.551C308.777 113.399 308.853 113.323 308.928 113.247C309.004 113.171 309.156 113.095 309.308 113.095H310.597C310.748 113.095 310.824 113.171 310.976 113.247C311.052 113.323 311.128 113.475 311.128 113.551L311.886 117.811C311.962 118.343 312.038 118.647 312.038 118.8H312.265C312.265 118.419 312.341 118.115 312.341 117.811L313.024 113.019H314.464ZM317.953 117.202L316.588 116.746C315.678 116.518 315.071 115.681 315.147 114.768C315.071 114.236 315.299 113.627 315.678 113.247C316.285 112.943 316.967 112.791 317.574 112.867C318.332 112.867 319.091 112.943 319.849 113.171L319.773 114.236C319.166 114.236 318.484 114.236 317.65 114.236C317.422 114.236 317.119 114.236 316.891 114.312C316.74 114.388 316.664 114.54 316.664 114.844C316.664 114.997 316.664 115.225 316.815 115.301C316.967 115.453 317.195 115.529 317.422 115.605L318.711 116.061C319.166 116.213 319.546 116.442 319.849 116.822C320.076 117.202 320.228 117.659 320.152 118.039C320.228 118.647 320.001 119.18 319.621 119.636C319.015 119.94 318.332 120.093 317.65 120.016C316.891 120.016 316.057 119.94 315.299 119.788L315.375 118.723L317.65 118.8C317.953 118.8 318.18 118.8 318.484 118.647C318.636 118.571 318.711 118.419 318.711 118.115C318.711 117.963 318.711 117.735 318.56 117.659C318.332 117.354 318.18 117.278 317.953 117.202ZM326.598 113.019V119.864H325.082V116.822H322.655V119.864H321.138V113.019H322.655V115.605H325.082V113.019H326.598ZM329.48 119.788H327.963V112.943H329.48V119.788ZM330.845 119.788V112.943C331.452 112.867 332.286 112.867 333.424 112.867C334.106 112.791 334.789 112.943 335.395 113.323C335.775 113.78 336.002 114.464 335.926 115.073C336.002 115.681 335.85 116.366 335.395 116.822C334.865 117.202 334.258 117.354 333.575 117.278C333.12 117.278 332.741 117.278 332.286 117.202V119.712L330.845 119.788ZM332.362 116.213H333.424C333.727 116.213 333.955 116.137 334.182 115.985C334.334 115.757 334.41 115.453 334.41 115.149C334.41 114.844 334.334 114.54 334.182 114.312C333.955 114.16 333.727 114.084 333.424 114.084H332.362V116.213ZM336.533 118.343H336.912C337.064 118.343 337.216 118.343 337.291 118.419C337.367 118.495 337.443 118.647 337.367 118.8V119.256C337.367 119.408 337.367 119.56 337.291 119.636C337.216 119.712 337.064 119.788 336.912 119.712H336.533C336.381 119.712 336.23 119.712 336.154 119.636C336.078 119.484 336.002 119.408 336.078 119.256V118.8C336.078 118.647 336.078 118.495 336.154 118.419C336.23 118.343 336.381 118.267 336.533 118.343ZM343.283 118.571L343.434 119.712C342.752 119.94 341.993 120.016 341.235 120.016C340.401 120.093 339.567 119.864 339.036 119.256C338.201 117.507 338.201 115.529 339.036 113.78C339.642 113.171 340.477 112.943 341.235 113.019C341.917 113.019 342.6 113.095 343.283 113.247L343.131 114.388C342.6 114.388 341.993 114.312 341.235 114.312C340.856 114.236 340.477 114.464 340.249 114.768C340.022 115.301 339.946 115.909 339.946 116.518C339.87 117.126 340.022 117.735 340.249 118.267C340.477 118.571 340.856 118.8 341.235 118.723C341.917 118.647 342.6 118.647 343.283 118.571ZM344.723 113.627C346.088 112.639 347.909 112.639 349.274 113.627C350.108 115.377 350.108 117.43 349.274 119.18C347.909 120.169 346.088 120.169 344.723 119.18C343.889 117.43 343.889 115.377 344.723 113.627ZM348.06 114.54C347.833 114.16 347.454 114.008 346.999 114.084C346.619 114.008 346.164 114.236 345.937 114.54C345.558 115.757 345.558 117.05 345.937 118.191C346.164 118.571 346.543 118.723 346.999 118.647C347.378 118.723 347.833 118.495 348.06 118.191C348.439 117.05 348.439 115.757 348.06 114.54ZM356.554 113.019H357.995C358.374 113.019 358.526 113.171 358.526 113.551L358.829 119.788H357.388L357.161 114.16H357.009L355.947 118.419C355.947 118.723 355.644 118.952 355.341 118.876H354.355C354.051 118.876 353.748 118.723 353.748 118.419L352.686 114.16H352.535L352.307 119.788H350.866L351.094 113.551C351.094 113.171 351.321 113.019 351.625 113.019H353.066C353.369 113.019 353.596 113.171 353.672 113.475L354.506 116.898C354.582 117.126 354.582 117.43 354.658 117.887H354.81C354.81 117.887 354.81 117.735 354.886 117.506C354.961 117.278 354.961 117.05 354.961 116.974L355.796 113.551C355.947 113.171 356.251 112.943 356.554 113.019ZM291.41 9.57715V3.03598H292.017V0.906291H291.41V0.754171H289.742V0.830231H282.158V0.754171H280.49V0.830231H272.906V0.754171H271.237V0.830231H263.654V0.754171H261.985V0.830231H254.402V0.754171H252.733V0.830231H245.15V0.754171H243.481V0.830231H239.689V0.602051H238.931V0.906291H235.897V0.754171H234.229V0.830231H226.645V0.754171H224.977V0.830231H217.393V0.754171H215.725V0.830231H208.141V0.754171H206.397V0.830231H198.813V0.754171H197.145V0.830231H189.561V0.754171H187.893V0.830231H180.309V0.754171H178.641V0.830231H171.057V0.754171H169.388V0.830231H161.805V0.754171H160.136V0.830231H152.553V0.754171H150.884V0.830231H143.3V0.754171H141.632V0.830231H134.048V0.754171H132.38V0.830231H131.622V2.95992H132.38V8.05595H131.622V11.6308H292.017V9.50109H291.41V9.57715ZM289.742 3.03598V8.13201H282.158V3.03598H289.742ZM280.49 3.03598V8.13201H272.906V3.03598H280.49ZM271.237 3.03598V8.13201H263.654V3.03598H271.237ZM261.985 3.03598V8.13201H254.402V3.03598H261.985ZM252.733 3.03598V8.13201H245.15V3.03598H252.733ZM243.481 3.03598V8.13201H235.897V3.03598H243.481ZM234.229 3.03598V8.13201H226.645V3.03598H234.229ZM224.977 3.03598V8.13201H217.393V3.03598H224.977ZM215.649 3.03598V8.13201H208.065V3.03598H215.649ZM206.397 3.03598V8.13201H198.813V3.03598H206.397ZM197.145 3.03598V8.13201H189.561V3.03598H197.145ZM187.893 3.03598V8.13201H180.309V3.03598H187.893ZM178.641 3.03598V8.13201H171.057V3.03598H178.641ZM169.388 3.03598V8.13201H161.805V3.03598H169.388ZM160.136 3.03598V8.13201H152.553V3.03598H160.136ZM150.884 3.03598V8.13201H143.3V3.03598H150.884ZM133.973 3.03598H141.556V8.13201H133.973V3.03598ZM407.82 27.6034C395.838 27.6034 392.197 36.1221 392.197 46.9227C392.197 57.7232 396.065 66.242 407.82 66.242H527.566V27.6034H407.82ZM507.015 29.581H507.849V65.7856H507.015V29.581ZM486.69 29.581H487.524V65.7856H486.69V29.581ZM466.442 29.581H467.276V65.7856H466.442V29.581ZM402.132 42.0548L401.07 43.1197L398.719 41.2942L399.781 40.1533L419.499 19.6932L420.56 18.6283L421.698 19.541L422.911 18.6283L423.897 19.6932L443.691 40.1533L444.677 41.2942L442.326 43.1197L441.34 42.0548L421.698 21.6707L402.132 42.0548ZM402.132 88.5274L401.07 89.5923L398.719 87.6908L399.781 86.6259L419.499 66.1657L420.56 65.1009L421.698 66.0136L422.911 65.1009L423.897 66.1657L443.691 86.6259L444.677 87.6908L442.326 89.5923L441.34 88.5274L421.698 68.1433L402.132 88.5274ZM402.132 63.732L401.07 64.7968L398.719 62.8953L399.781 61.8305L419.499 41.3703L420.56 40.3055L421.698 41.2182L422.911 40.3055L423.897 41.3703L443.691 61.8305L444.677 62.8953L442.326 64.7968L441.34 63.732L421.698 43.3479L402.132 63.732ZM395.913 15.8141H400.691V90.8094H395.913V15.8141ZM442.553 15.8141H447.331V90.8094H442.553V15.8141ZM489.344 15.8141H494.122V90.8094H489.344V15.8141ZM297.78 39.4688H535.908V42.6633H297.78V39.4688ZM400.691 64.3405H442.553V67.0786H400.691V64.3405ZM300.283 18.4001H535.984V21.2144H300.283V18.4001ZM447.331 58.9399H535.909V61.3739H447.331V58.9399ZM447.331 65.7095H535.908V73.3916H447.331V65.7095ZM507.394 33.3079H508.455V40.0773H507.394V33.3079ZM501.478 33.3079H502.54V40.0773H501.478V33.3079ZM495.487 33.3079H496.549V40.0773H495.487V33.3079ZM489.572 33.3079H490.634V40.0773H489.572V33.3079ZM483.657 33.3079H484.718V40.0773H483.657V33.3079ZM477.741 33.3079H478.803V40.0773H477.741V33.3079ZM471.826 33.3079H472.888V40.0773H471.826V33.3079ZM465.911 33.3079H466.973V40.0773H465.911V33.3079ZM459.996 33.3079H461.057V40.0773H459.996V33.3079ZM454.08 33.3079H455.142V40.0773H454.08V33.3079ZM448.165 33.3079H449.227V40.0773H448.165V33.3079ZM442.25 33.3079H443.311V40.0773H442.25V33.3079ZM436.334 33.3079H437.396V40.0773H436.334V33.3079ZM430.419 33.3079H431.481V40.0773H430.419V33.3079ZM424.428 33.3079H425.49V40.0773H424.428V33.3079ZM418.513 33.3079H419.574V40.0773H418.513V33.3079ZM412.597 33.3079H413.659V40.0773H412.597V33.3079ZM406.682 33.3079H407.744V40.0773H406.682V33.3079ZM400.767 33.3079H401.829V40.0773H400.767V33.3079ZM394.852 33.3079H395.913V40.0773H394.852V33.3079ZM388.936 33.3079H389.998V40.0773H388.936V33.3079ZM383.021 33.3079H384.083V40.0773H383.021V33.3079ZM377.106 33.3079H378.168V40.0773H377.106V33.3079ZM371.191 33.3079H372.252V40.0773H371.191V33.3079ZM300.283 33.3079V34.2967H513.309V36.5785H300.283V37.5673H513.309V40.0773H514.371V33.3079H300.283ZM395.913 56.8105H376.272C375.362 56.8105 374.527 57.1908 373.845 57.7993C373.238 58.4078 372.859 59.3205 372.859 60.2332V92.7109H369.446V60.2332C369.446 58.4078 370.129 56.6584 371.418 55.4414C372.707 54.1484 374.451 53.4639 376.272 53.4639H395.913V56.8105ZM356.099 92.7109V70.9577C356.099 69.1323 356.781 67.3829 358.071 66.1659C359.36 64.8729 361.104 64.1883 362.848 64.1883H395.838V67.535H362.848C361.938 67.535 361.104 67.9153 360.422 68.5238C359.815 69.1323 359.436 70.045 359.436 70.9577V92.7109H356.099ZM393.866 88.5274L392.804 89.5923L390.453 87.6908L391.515 86.6259L411.233 66.1657L412.294 65.1009L413.432 66.0136L414.645 65.1009L415.707 66.1657L435.425 86.6259L436.41 87.6908L434.059 89.5923L433.074 88.5274L413.432 68.1433L393.866 88.5274ZM393.866 42.0548L392.804 43.1197L390.453 41.2942L391.515 40.1533L411.232 19.6932L412.294 18.6283L413.432 19.541L414.645 18.6283L415.707 19.6932L435.424 40.1533L436.41 41.2942L434.059 43.1197L433.074 42.0548L413.432 21.6707L393.866 42.0548ZM393.866 63.732L392.804 64.7968L390.453 62.8953L391.515 61.8305L411.232 41.3703L412.294 40.3055L413.432 41.2182L414.645 40.3055L415.707 41.3703L435.424 61.8305L436.41 62.8953L434.059 64.7968L433.074 63.732L413.432 43.3479L393.866 63.732ZM387.647 15.8141H392.425V90.8094H387.647V15.8141ZM434.287 15.8141H439.065V90.8094H434.287V15.8141ZM481.078 15.8141H485.856V90.8094H481.078V15.8141ZM527.718 15.8141H532.496V90.8094H527.718V15.8141ZM337.746 15.8141H342.524V42.8154H337.746V15.8141ZM392.501 64.3405H434.363V67.0786H392.501V64.3405ZM292.017 18.4001H527.718V21.2144H292.017V18.4001ZM439.065 58.9399H527.642V61.3739H439.065V58.9399ZM439.065 65.7095H527.642V73.3916H439.065V65.7095ZM506.104 38.9364V33.3079H291.865V38.9364H289.59V43.1197H527.718V38.9364H506.104ZM292.927 38.9364V34.2967H297.78V38.9364H292.927ZM298.842 38.9364V34.2967H303.696V38.9364H298.842ZM304.757 38.9364V34.2967H309.611V38.9364H304.757ZM310.673 38.9364V34.2967H315.526V38.9364H310.673ZM316.588 38.9364V34.2967H321.441V38.9364H316.588ZM322.503 38.9364V34.2967H327.357V38.9364H322.503ZM328.418 38.9364V34.2967H333.272V38.9364H328.418ZM334.334 38.9364V34.2967H339.187V38.9364H334.334ZM340.249 38.9364V34.2967H345.178V38.9364H340.249ZM346.164 38.9364V34.2967H351.018V38.9364H346.164ZM352.08 38.9364V34.2967H356.933V38.9364H352.08ZM358.071 38.9364V34.2967H362.924V38.9364H358.071ZM363.986 38.9364V34.2967H368.84V38.9364H363.986ZM369.901 38.9364V34.2967H374.755V38.9364H369.901ZM375.817 38.9364V34.2967H380.67V38.9364H375.817ZM381.732 38.9364V34.2967H386.585V38.9364H381.732ZM387.647 38.9364V34.2967H392.501V38.9364H387.647ZM393.562 38.9364V34.2967H398.416V38.9364H393.562ZM399.478 38.9364V34.2967H404.331V38.9364H399.478ZM405.393 38.9364V34.2967H410.247V38.9364H405.393ZM411.308 38.9364V34.2967H416.162V38.9364H411.308ZM417.224 38.9364V34.2967H422.077V38.9364H417.224ZM423.139 38.9364V34.2967H427.992V38.9364H423.139ZM429.13 38.9364V34.2967H433.983V38.9364H429.13ZM435.045 38.9364V34.2967H439.899V38.9364H435.045ZM440.96 38.9364V34.2967H445.814V38.9364H440.96ZM446.876 38.9364V34.2967H451.729V38.9364H446.876ZM452.791 38.9364V34.2967H457.645V38.9364H452.791ZM458.706 38.9364V34.2967H463.56V38.9364H458.706ZM464.622 38.9364V34.2967H469.475V38.9364H464.622ZM470.537 38.9364V34.2967H475.39V38.9364H470.537ZM476.452 38.9364V34.2967H481.306V38.9364H476.452ZM482.367 38.9364V34.2967H487.221V38.9364H482.367ZM488.283 38.9364V34.2967H493.136V38.9364H488.283ZM494.198 38.9364V34.2967H499.127V38.9364H494.198ZM500.189 38.9364V34.2967H505.043V38.9364H500.189ZM292.017 36.5785H506.105V37.5673H292.017V36.5785ZM513.157 85.9415H514.219V92.7109H513.157V85.9415ZM507.242 85.9415H508.304V92.7109H507.242V85.9415ZM501.251 85.9415H502.313V92.7109H501.251V85.9415ZM495.336 85.9415H496.397V92.7109H495.336V85.9415ZM489.42 85.9415H490.482V92.7109H489.42V85.9415ZM483.505 85.9415H484.567V92.7109H483.505V85.9415ZM477.59 85.9415H478.651V92.7109H477.59V85.9415ZM471.674 85.9415H472.736V92.7109H471.674V85.9415ZM465.759 85.9415H466.821V92.7109H465.759V85.9415ZM459.844 85.9415H460.906V92.7109H459.844V85.9415ZM453.929 85.9415H454.99V92.7109H453.929V85.9415ZM448.013 85.9415H449.075V92.7109H448.013V85.9415ZM442.098 85.9415H443.16V92.7109H442.098V85.9415ZM436.183 85.9415H437.245V92.7109H436.183V85.9415ZM430.268 85.9415H431.329V92.7109H430.268V85.9415ZM424.276 85.9415H425.338V92.7109H424.276V85.9415ZM418.361 85.9415H419.423V92.7109H418.361V85.9415ZM412.446 85.9415H413.508V92.7109H412.446V85.9415ZM406.531 85.9415H407.592V92.7109H406.531V85.9415ZM400.615 85.9415H401.677V92.7109H400.615V85.9415ZM394.7 85.9415H395.762V92.7109H394.7V85.9415ZM388.785 85.9415H389.846V92.7109H388.785V85.9415ZM382.869 85.9415H383.931V92.7109H382.869V85.9415ZM376.954 85.9415H378.016V92.7109H376.954V85.9415ZM371.039 85.9415H372.101V92.7109H371.039V85.9415ZM365.124 85.9415H366.185V92.7109H365.124V85.9415ZM359.208 85.9415H360.27V92.7109H359.208V85.9415ZM353.217 85.9415H354.279V92.7109H353.217V85.9415ZM347.302 85.9415H348.364V92.7109H347.302V85.9415ZM341.387 85.9415H342.448V92.7109H341.387V85.9415ZM335.471 85.9415H336.533V92.7109H335.471V85.9415ZM329.556 85.9415H330.618V92.7109H329.556V85.9415ZM323.641 85.9415H324.702V92.7109H323.641V85.9415ZM317.725 85.9415H318.787V92.7109H317.725V85.9415ZM311.81 85.9415H312.872V92.7109H311.81V85.9415ZM305.895 85.9415H306.957V92.7109H305.895V85.9415ZM387.647 56.8105H368.005C367.095 56.8105 366.261 57.1908 365.579 57.7993C364.972 58.4078 364.593 59.3205 364.593 60.2332V92.7109H361.18V60.2332C361.18 58.4078 361.863 56.6584 363.152 55.4414C364.441 54.1484 366.185 53.4639 367.93 53.4639H387.647V56.8105ZM347.833 92.7109V70.9577C347.833 69.1323 348.515 67.3829 349.805 66.1659C351.094 64.8729 352.762 64.1883 354.582 64.1883H387.647V67.535H354.658C353.748 67.535 352.914 67.9153 352.231 68.5238C351.549 69.1323 351.245 70.045 351.245 70.9577V92.7109H347.833ZM102.197 18.4762H131.773V22.1271H102.197V18.4762ZM102.197 65.5574H131.773V69.2083H102.197V65.5574ZM125.858 11.7068H126.92V18.4762H125.858V11.7068ZM119.943 11.7068H121.004V18.4762H119.943V11.7068ZM114.027 11.7068H115.089V42.3591H114.027V11.7068ZM108.112 11.7068H109.174V18.4762H108.112V11.7068ZM102.197 14.9774H131.773V15.9662H102.197V14.9774ZM125.858 35.5137H126.92V42.283H125.858V35.5137ZM119.943 35.5137H121.004V42.283H119.943V35.5137ZM108.112 35.5137H109.174V42.283H108.112V35.5137ZM102.197 38.7842H131.773V39.773H102.197V38.7842ZM125.858 58.712H126.92V65.4814H125.858V58.712ZM103.259 22.9637H114.027V23.9525H103.259V22.9637ZM103.259 25.5498H114.027V26.5386H103.259V25.5498ZM103.259 28.1358H114.027V29.1246H103.259V28.1358ZM103.259 30.7219H114.027V31.7107H103.259V30.7219ZM103.259 33.3079H114.027V34.2967H103.259V33.3079ZM103.259 46.8466H114.027V47.8354H103.259V46.8466ZM108.112 61.9826H103.259V59.7008H108.112V61.9826ZM114.027 61.9826H109.174V59.7008H114.027V61.9826ZM119.943 61.9826H115.089V59.7008H119.943V61.9826ZM104.093 66.8505L137.385 88.4515L135.717 90.7333L102.424 69.1323L104.093 66.8505ZM134.883 72.631L106.368 93.4715L108.036 95.8294L136.551 74.9889L134.883 72.631ZM86.6503 88.8318H540.838V103.816H86.6503V88.8318ZM3.15381 162.99C7.249 160.557 41.6031 127.318 197.145 133.251C354.506 139.184 478.727 151.049 608.788 130.969C608.788 130.969 551.607 167.934 418.589 163.447C302.179 159.492 247.121 153.483 134.579 154.776C55.3296 155.765 3.15381 162.99 3.15381 162.99ZM131.773 67.6871H155.434V70.121H131.773V67.6871ZM190.774 73.4677H198.813V89.3643H190.774V73.4677ZM166.734 22.9637H182.508V42.283H166.734V22.9637ZM209.885 22.9637H225.659V42.283H209.885V22.9637ZM298.16 64.1123H317.422V86.9303H298.16V64.1123ZM131.773 11.0984H292.017V46.9987H342.524V90.7333H131.697L131.773 11.0984Z" stroke="#044978" stroke-miterlimit="10"/>
<defs>
<linearGradient id="paint0_linear_179_251" x1="525.476" y1="82.2573" x2="607.7" y2="82.2573" gradientUnits="userSpaceOnUse">
<stop stop-color="#1E2623"/>
<stop offset="0.99" stop-color="#777B7D"/>
</linearGradient>
<linearGradient id="paint1_linear_179_251" x1="306.185" y1="180.151" x2="306.185" y2="37.8431" gradientUnits="userSpaceOnUse">
<stop stop-color="#31313A"/>
<stop offset="0.99" stop-color="#777B7D"/>
</linearGradient>
<linearGradient id="paint2_linear_179_251" x1="306.09" y1="185.263" x2="306.09" y2="67.7008" gradientUnits="userSpaceOnUse">
<stop stop-color="#1E2623"/>
<stop offset="0.99" stop-color="#777B7D"/>
</linearGradient>
<linearGradient id="paint3_linear_179_251" x1="3.15381" y1="81.5521" x2="608.765" y2="81.5521" gradientUnits="userSpaceOnUse">
<stop stop-color="#1E2623"/>
<stop offset="0.99" stop-color="#777B7D"/>
</linearGradient>
<linearGradient id="paint4_linear_179_251" x1="305.767" y1="180.373" x2="305.767" y2="37.5848" gradientUnits="userSpaceOnUse">
<stop stop-color="#31313A"/>
<stop offset="0.99" stop-color="#777B7D"/>
</linearGradient>
<linearGradient id="paint5_linear_179_251" x1="3.35369" y1="82.1627" x2="609.087" y2="82.1627" gradientUnits="userSpaceOnUse">
<stop stop-color="#1E2623"/>
<stop offset="0.99" stop-color="#777B7D"/>
</linearGradient>
<linearGradient id="paint6_linear_179_251" x1="3.35369" y1="82.036" x2="609.087" y2="82.036" gradientUnits="userSpaceOnUse">
<stop stop-color="#1E2623"/>
<stop offset="0.99" stop-color="#777B7D"/>
</linearGradient>
<linearGradient id="paint7_linear_179_251" x1="3.35369" y1="82.1627" x2="609.087" y2="82.1627" gradientUnits="userSpaceOnUse">
<stop stop-color="#1E2623"/>
<stop offset="0.99" stop-color="#777B7D"/>
</linearGradient>
<linearGradient id="paint8_linear_179_251" x1="5.07646" y1="82.1141" x2="613.594" y2="82.1141" gradientUnits="userSpaceOnUse">
<stop stop-color="#1E2623"/>
<stop offset="0.99" stop-color="#777B7D"/>
</linearGradient>
<linearGradient id="paint9_linear_179_251" x1="4.11513" y1="82.1141" x2="611.672" y2="82.1141" gradientUnits="userSpaceOnUse">
<stop stop-color="#1E2623"/>
<stop offset="0.99" stop-color="#777B7D"/>
</linearGradient>
<linearGradient id="paint10_linear_179_251" x1="2.19249" y1="82.1141" x2="610.71" y2="82.1141" gradientUnits="userSpaceOnUse">
<stop stop-color="#1E2623"/>
<stop offset="0.99" stop-color="#777B7D"/>
</linearGradient>
<linearGradient id="paint11_linear_179_251" x1="3.23096" y1="81.0473" x2="608.942" y2="81.0473" gradientUnits="userSpaceOnUse">
<stop stop-color="#1E2623"/>
<stop offset="0.99" stop-color="#777B7D"/>
</linearGradient>
<linearGradient id="paint12_linear_179_251" x1="3.70239" y1="81.9867" x2="608.897" y2="81.9867" gradientUnits="userSpaceOnUse">
<stop stop-color="#1E2623"/>
<stop offset="0.99" stop-color="#777B7D"/>
</linearGradient>
<linearGradient id="paint13_linear_179_251" x1="3.13432" y1="82.8754" x2="608.729" y2="82.8754" gradientUnits="userSpaceOnUse">
<stop stop-color="#1E2623"/>
<stop offset="0.99" stop-color="#777B7D"/>
</linearGradient>
<linearGradient id="paint14_linear_179_251" x1="3.30937" y1="82.4683" x2="609.15" y2="82.4683" gradientUnits="userSpaceOnUse">
<stop stop-color="#1E2623"/>
<stop offset="0.99" stop-color="#777B7D"/>
</linearGradient>
<linearGradient id="paint15_linear_179_251" x1="3.30937" y1="82.9406" x2="609.15" y2="82.9406" gradientUnits="userSpaceOnUse">
<stop stop-color="#1E2623"/>
<stop offset="0.99" stop-color="#777B7D"/>
</linearGradient>
<linearGradient id="paint16_linear_179_251" x1="-14.15" y1="82.5802" x2="587.158" y2="82.5802" gradientUnits="userSpaceOnUse">
<stop stop-color="#1E2623"/>
<stop offset="0.99" stop-color="#777B7D"/>
</linearGradient>
<linearGradient id="paint17_linear_179_251" x1="-14.15" y1="82.5802" x2="582.832" y2="82.5802" gradientUnits="userSpaceOnUse">
<stop stop-color="#1E2623"/>
<stop offset="0.99" stop-color="#777B7D"/>
</linearGradient>
<linearGradient id="paint18_linear_179_251" x1="24.7836" y1="82.5802" x2="621.766" y2="82.5802" gradientUnits="userSpaceOnUse">
<stop stop-color="#1E2623"/>
<stop offset="0.99" stop-color="#777B7D"/>
</linearGradient>
<linearGradient id="paint19_linear_179_251" x1="20.4576" y1="82.5802" x2="617.44" y2="82.5802" gradientUnits="userSpaceOnUse">
<stop stop-color="#1E2623"/>
<stop offset="0.99" stop-color="#777B7D"/>
</linearGradient>
<linearGradient id="paint20_linear_179_251" x1="16.1317" y1="82.5802" x2="617.44" y2="82.5802" gradientUnits="userSpaceOnUse">
<stop stop-color="#1E2623"/>
<stop offset="0.99" stop-color="#777B7D"/>
</linearGradient>
<linearGradient id="paint21_linear_179_251" x1="11.8057" y1="82.5802" x2="613.114" y2="82.5802" gradientUnits="userSpaceOnUse">
<stop stop-color="#1E2623"/>
<stop offset="0.99" stop-color="#777B7D"/>
</linearGradient>
<linearGradient id="paint22_linear_179_251" x1="11.8057" y1="82.5802" x2="608.788" y2="82.5802" gradientUnits="userSpaceOnUse">
<stop stop-color="#1E2623"/>
<stop offset="0.99" stop-color="#777B7D"/>
</linearGradient>
<linearGradient id="paint23_linear_179_251" x1="7.47976" y1="82.5802" x2="604.462" y2="82.5802" gradientUnits="userSpaceOnUse">
<stop stop-color="#1E2623"/>
<stop offset="0.99" stop-color="#777B7D"/>
</linearGradient>
<linearGradient id="paint24_linear_179_251" x1="3.15381" y1="82.5802" x2="600.136" y2="82.5802" gradientUnits="userSpaceOnUse">
<stop stop-color="#1E2623"/>
<stop offset="0.99" stop-color="#777B7D"/>
</linearGradient>
<linearGradient id="paint25_linear_179_251" x1="-1.17215" y1="82.5802" x2="595.81" y2="82.5802" gradientUnits="userSpaceOnUse">
<stop stop-color="#1E2623"/>
<stop offset="0.99" stop-color="#777B7D"/>
</linearGradient>
<linearGradient id="paint26_linear_179_251" x1="-5.4981" y1="82.5802" x2="595.81" y2="82.5802" gradientUnits="userSpaceOnUse">
<stop stop-color="#1E2623"/>
<stop offset="0.99" stop-color="#777B7D"/>
</linearGradient>
<linearGradient id="paint27_linear_179_251" x1="-9.82406" y1="82.5802" x2="591.484" y2="82.5802" gradientUnits="userSpaceOnUse">
<stop stop-color="#1E2623"/>
<stop offset="0.99" stop-color="#777B7D"/>
</linearGradient>
<linearGradient id="paint28_linear_179_251" x1="-9.82406" y1="82.5802" x2="587.158" y2="82.5802" gradientUnits="userSpaceOnUse">
<stop stop-color="#1E2623"/>
<stop offset="0.99" stop-color="#777B7D"/>
</linearGradient>
<linearGradient id="paint29_linear_179_251" x1="-14.15" y1="82.5802" x2="582.832" y2="82.5802" gradientUnits="userSpaceOnUse">
<stop stop-color="#1E2623"/>
<stop offset="0.99" stop-color="#777B7D"/>
</linearGradient>
<linearGradient id="paint30_linear_179_251" x1="24.7836" y1="82.5802" x2="621.766" y2="82.5802" gradientUnits="userSpaceOnUse">
<stop stop-color="#1E2623"/>
<stop offset="0.99" stop-color="#777B7D"/>
</linearGradient>
<linearGradient id="paint31_linear_179_251" x1="20.4576" y1="82.5802" x2="617.44" y2="82.5802" gradientUnits="userSpaceOnUse">
<stop stop-color="#1E2623"/>
<stop offset="0.99" stop-color="#777B7D"/>
</linearGradient>
<linearGradient id="paint32_linear_179_251" x1="16.1317" y1="82.5802" x2="617.44" y2="82.5802" gradientUnits="userSpaceOnUse">
<stop stop-color="#1E2623"/>
<stop offset="0.99" stop-color="#777B7D"/>
</linearGradient>
<linearGradient id="paint33_linear_179_251" x1="11.8057" y1="82.5802" x2="613.114" y2="82.5802" gradientUnits="userSpaceOnUse">
<stop stop-color="#1E2623"/>
<stop offset="0.99" stop-color="#777B7D"/>
</linearGradient>
<linearGradient id="paint34_linear_179_251" x1="11.8057" y1="82.5802" x2="608.788" y2="82.5802" gradientUnits="userSpaceOnUse">
<stop stop-color="#1E2623"/>
<stop offset="0.99" stop-color="#777B7D"/>
</linearGradient>
<linearGradient id="paint35_linear_179_251" x1="7.47976" y1="82.5802" x2="604.462" y2="82.5802" gradientUnits="userSpaceOnUse">
<stop stop-color="#1E2623"/>
<stop offset="0.99" stop-color="#777B7D"/>
</linearGradient>
<linearGradient id="paint36_linear_179_251" x1="3.15381" y1="82.5802" x2="600.136" y2="82.5802" gradientUnits="userSpaceOnUse">
<stop stop-color="#1E2623"/>
<stop offset="0.99" stop-color="#777B7D"/>
</linearGradient>
<linearGradient id="paint37_linear_179_251" x1="-1.17215" y1="82.5802" x2="595.81" y2="82.5802" gradientUnits="userSpaceOnUse">
<stop stop-color="#1E2623"/>
<stop offset="0.99" stop-color="#777B7D"/>
</linearGradient>
<linearGradient id="paint38_linear_179_251" x1="-5.4981" y1="82.5802" x2="595.81" y2="82.5802" gradientUnits="userSpaceOnUse">
<stop stop-color="#1E2623"/>
<stop offset="0.99" stop-color="#777B7D"/>
</linearGradient>
<linearGradient id="paint39_linear_179_251" x1="-5.4981" y1="82.5802" x2="591.484" y2="82.5802" gradientUnits="userSpaceOnUse">
<stop stop-color="#1E2623"/>
<stop offset="0.99" stop-color="#777B7D"/>
</linearGradient>
<linearGradient id="paint40_linear_179_251" x1="3.13236" y1="82.5801" x2="608.702" y2="82.5801" gradientUnits="userSpaceOnUse">
<stop stop-color="#1E2623"/>
<stop offset="0.99" stop-color="#777B7D"/>
</linearGradient>
<linearGradient id="paint41_linear_179_251" x1="3.15381" y1="82.0869" x2="608.614" y2="82.0869" gradientUnits="userSpaceOnUse">
<stop stop-color="#1E2623"/>
<stop offset="0.99" stop-color="#777B7D"/>
</linearGradient>
<linearGradient id="paint42_linear_179_251" x1="3.50055" y1="82.0175" x2="610.059" y2="82.0175" gradientUnits="userSpaceOnUse">
<stop stop-color="#1E2623"/>
<stop offset="0.99" stop-color="#777B7D"/>
</linearGradient>
<linearGradient id="paint43_linear_179_251" x1="3.45363" y1="82.036" x2="609.087" y2="82.036" gradientUnits="userSpaceOnUse">
<stop stop-color="#146447"/>
<stop offset="0.65" stop-color="#1A674B"/>
<stop offset="0.99" stop-color="#959CA2"/>
</linearGradient>
<linearGradient id="paint44_linear_179_251" x1="3.45363" y1="82.1627" x2="609.087" y2="82.1627" gradientUnits="userSpaceOnUse">
<stop stop-color="#146447"/>
<stop offset="0.65" stop-color="#1A674B"/>
<stop offset="0.99" stop-color="#959CA2"/>
</linearGradient>
<linearGradient id="paint45_linear_179_251" x1="3.45363" y1="82.1627" x2="609.087" y2="82.1627" gradientUnits="userSpaceOnUse">
<stop stop-color="#146447"/>
<stop offset="0.65" stop-color="#1A674B"/>
<stop offset="0.99" stop-color="#959CA2"/>
</linearGradient>
<linearGradient id="paint46_linear_179_251" x1="6.03778" y1="82.1141" x2="614.556" y2="82.1141" gradientUnits="userSpaceOnUse">
<stop stop-color="#146447"/>
<stop offset="0.65" stop-color="#1A674B"/>
<stop offset="0.99" stop-color="#959CA2"/>
</linearGradient>
<linearGradient id="paint47_linear_179_251" x1="5.07646" y1="82.1141" x2="612.633" y2="82.1141" gradientUnits="userSpaceOnUse">
<stop stop-color="#146447"/>
<stop offset="0.65" stop-color="#1A674B"/>
<stop offset="0.99" stop-color="#959CA2"/>
</linearGradient>
<linearGradient id="paint48_linear_179_251" x1="3.15381" y1="82.1141" x2="610.71" y2="82.1141" gradientUnits="userSpaceOnUse">
<stop stop-color="#146447"/>
<stop offset="0.65" stop-color="#1A674B"/>
<stop offset="0.99" stop-color="#959CA2"/>
</linearGradient>
<linearGradient id="paint49_linear_179_251" x1="1.23116" y1="82.1141" x2="609.749" y2="82.1141" gradientUnits="userSpaceOnUse">
<stop stop-color="#146447"/>
<stop offset="0.65" stop-color="#1A674B"/>
<stop offset="0.99" stop-color="#959CA2"/>
</linearGradient>
<linearGradient id="paint50_linear_179_251" x1="3.15381" y1="82.0295" x2="610.71" y2="82.0295" gradientUnits="userSpaceOnUse">
<stop stop-color="#146447"/>
<stop offset="0.65" stop-color="#1A674B"/>
<stop offset="0.99" stop-color="#959CA2"/>
</linearGradient>
<linearGradient id="paint51_linear_179_251" x1="2.71494" y1="81.9867" x2="607.91" y2="81.9867" gradientUnits="userSpaceOnUse">
<stop stop-color="#146447"/>
<stop offset="0.65" stop-color="#1A674B"/>
<stop offset="0.99" stop-color="#959CA2"/>
</linearGradient>
<linearGradient id="paint52_linear_179_251" x1="3.15381" y1="82.8754" x2="608.749" y2="82.8754" gradientUnits="userSpaceOnUse">
<stop stop-color="#146447"/>
<stop offset="0.65" stop-color="#1A674B"/>
<stop offset="0.99" stop-color="#959CA2"/>
</linearGradient>
<linearGradient id="paint53_linear_179_251" x1="3.36122" y1="82.4684" x2="609.203" y2="82.4684" gradientUnits="userSpaceOnUse">
<stop stop-color="#146447"/>
<stop offset="0.65" stop-color="#1A674B"/>
<stop offset="0.99" stop-color="#959CA2"/>
</linearGradient>
<linearGradient id="paint54_linear_179_251" x1="3.36122" y1="82.9406" x2="609.203" y2="82.9406" gradientUnits="userSpaceOnUse">
<stop stop-color="#146447"/>
<stop offset="0.65" stop-color="#1A674B"/>
<stop offset="0.99" stop-color="#959CA2"/>
</linearGradient>
<linearGradient id="paint55_linear_179_251" x1="3.11523" y1="82.2135" x2="608.749" y2="82.2135" gradientUnits="userSpaceOnUse">
<stop stop-color="#146447"/>
<stop offset="0.65" stop-color="#1A674B"/>
<stop offset="0.99" stop-color="#959CA2"/>
</linearGradient>
<linearGradient id="paint56_linear_179_251" x1="3.15381" y1="83.4684" x2="608.723" y2="83.4684" gradientUnits="userSpaceOnUse">
<stop stop-color="#146447"/>
<stop offset="0.65" stop-color="#1A674B"/>
<stop offset="0.99" stop-color="#959CA2"/>
</linearGradient>
<linearGradient id="paint57_linear_179_251" x1="-9.82406" y1="81.8466" x2="591.484" y2="81.8466" gradientUnits="userSpaceOnUse">
<stop stop-color="#146447"/>
<stop offset="0.65" stop-color="#1A674B"/>
<stop offset="0.99" stop-color="#959CA2"/>
</linearGradient>
<linearGradient id="paint58_linear_179_251" x1="-9.82406" y1="81.8466" x2="587.158" y2="81.8466" gradientUnits="userSpaceOnUse">
<stop stop-color="#146447"/>
<stop offset="0.65" stop-color="#1A674B"/>
<stop offset="0.99" stop-color="#959CA2"/>
</linearGradient>
<linearGradient id="paint59_linear_179_251" x1="-14.15" y1="81.8466" x2="582.832" y2="81.8466" gradientUnits="userSpaceOnUse">
<stop stop-color="#146447"/>
<stop offset="0.65" stop-color="#1A674B"/>
<stop offset="0.99" stop-color="#959CA2"/>
</linearGradient>
<linearGradient id="paint60_linear_179_251" x1="24.7836" y1="81.8466" x2="621.766" y2="81.8466" gradientUnits="userSpaceOnUse">
<stop stop-color="#146447"/>
<stop offset="0.65" stop-color="#1A674B"/>
<stop offset="0.99" stop-color="#959CA2"/>
</linearGradient>
<linearGradient id="paint61_linear_179_251" x1="20.4576" y1="81.8466" x2="621.766" y2="81.8466" gradientUnits="userSpaceOnUse">
<stop stop-color="#146447"/>
<stop offset="0.65" stop-color="#1A674B"/>
<stop offset="0.99" stop-color="#959CA2"/>
</linearGradient>
<linearGradient id="paint62_linear_179_251" x1="16.1317" y1="81.8466" x2="617.44" y2="81.8466" gradientUnits="userSpaceOnUse">
<stop stop-color="#146447"/>
<stop offset="0.65" stop-color="#1A674B"/>
<stop offset="0.99" stop-color="#959CA2"/>
</linearGradient>
<linearGradient id="paint63_linear_179_251" x1="11.8057" y1="81.8466" x2="613.114" y2="81.8466" gradientUnits="userSpaceOnUse">
<stop stop-color="#146447"/>
<stop offset="0.65" stop-color="#1A674B"/>
<stop offset="0.99" stop-color="#959CA2"/>
</linearGradient>
<linearGradient id="paint64_linear_179_251" x1="11.8057" y1="81.8466" x2="608.788" y2="81.8466" gradientUnits="userSpaceOnUse">
<stop stop-color="#146447"/>
<stop offset="0.65" stop-color="#1A674B"/>
<stop offset="0.99" stop-color="#959CA2"/>
</linearGradient>
<linearGradient id="paint65_linear_179_251" x1="7.47976" y1="81.8466" x2="604.462" y2="81.8466" gradientUnits="userSpaceOnUse">
<stop stop-color="#146447"/>
<stop offset="0.65" stop-color="#1A674B"/>
<stop offset="0.99" stop-color="#959CA2"/>
</linearGradient>
<linearGradient id="paint66_linear_179_251" x1="3.15381" y1="81.8466" x2="600.136" y2="81.8466" gradientUnits="userSpaceOnUse">
<stop stop-color="#146447"/>
<stop offset="0.65" stop-color="#1A674B"/>
<stop offset="0.99" stop-color="#959CA2"/>
</linearGradient>
<linearGradient id="paint67_linear_179_251" x1="-1.17215" y1="81.8466" x2="600.136" y2="81.8466" gradientUnits="userSpaceOnUse">
<stop stop-color="#146447"/>
<stop offset="0.65" stop-color="#1A674B"/>
<stop offset="0.99" stop-color="#959CA2"/>
</linearGradient>
<linearGradient id="paint68_linear_179_251" x1="-5.4981" y1="81.8466" x2="595.81" y2="81.8466" gradientUnits="userSpaceOnUse">
<stop stop-color="#146447"/>
<stop offset="0.65" stop-color="#1A674B"/>
<stop offset="0.99" stop-color="#959CA2"/>
</linearGradient>
<linearGradient id="paint69_linear_179_251" x1="-5.4981" y1="81.8466" x2="591.484" y2="81.8466" gradientUnits="userSpaceOnUse">
<stop stop-color="#146447"/>
<stop offset="0.65" stop-color="#1A674B"/>
<stop offset="0.99" stop-color="#959CA2"/>
</linearGradient>
<linearGradient id="paint70_linear_179_251" x1="-9.82406" y1="81.8466" x2="587.158" y2="81.8466" gradientUnits="userSpaceOnUse">
<stop stop-color="#146447"/>
<stop offset="0.65" stop-color="#1A674B"/>
<stop offset="0.99" stop-color="#959CA2"/>
</linearGradient>
<linearGradient id="paint71_linear_179_251" x1="-14.15" y1="81.8466" x2="582.832" y2="81.8466" gradientUnits="userSpaceOnUse">
<stop stop-color="#146447"/>
<stop offset="0.65" stop-color="#1A674B"/>
<stop offset="0.99" stop-color="#959CA2"/>
</linearGradient>
<linearGradient id="paint72_linear_179_251" x1="-18.476" y1="81.8466" x2="578.506" y2="81.8466" gradientUnits="userSpaceOnUse">
<stop stop-color="#146447"/>
<stop offset="0.65" stop-color="#1A674B"/>
<stop offset="0.99" stop-color="#959CA2"/>
</linearGradient>
<linearGradient id="paint73_linear_179_251" x1="20.4576" y1="81.8466" x2="621.766" y2="81.8466" gradientUnits="userSpaceOnUse">
<stop stop-color="#146447"/>
<stop offset="0.65" stop-color="#1A674B"/>
<stop offset="0.99" stop-color="#959CA2"/>
</linearGradient>
<linearGradient id="paint74_linear_179_251" x1="16.1317" y1="81.8466" x2="617.44" y2="81.8466" gradientUnits="userSpaceOnUse">
<stop stop-color="#146447"/>
<stop offset="0.65" stop-color="#1A674B"/>
<stop offset="0.99" stop-color="#959CA2"/>
</linearGradient>
<linearGradient id="paint75_linear_179_251" x1="16.1317" y1="81.8466" x2="613.114" y2="81.8466" gradientUnits="userSpaceOnUse">
<stop stop-color="#146447"/>
<stop offset="0.65" stop-color="#1A674B"/>
<stop offset="0.99" stop-color="#959CA2"/>
</linearGradient>
<linearGradient id="paint76_linear_179_251" x1="11.8057" y1="81.8466" x2="608.788" y2="81.8466" gradientUnits="userSpaceOnUse">
<stop stop-color="#146447"/>
<stop offset="0.65" stop-color="#1A674B"/>
<stop offset="0.99" stop-color="#959CA2"/>
</linearGradient>
<linearGradient id="paint77_linear_179_251" x1="7.47976" y1="81.8466" x2="604.462" y2="81.8466" gradientUnits="userSpaceOnUse">
<stop stop-color="#146447"/>
<stop offset="0.65" stop-color="#1A674B"/>
<stop offset="0.99" stop-color="#959CA2"/>
</linearGradient>
<linearGradient id="paint78_linear_179_251" x1="3.15381" y1="81.8466" x2="604.462" y2="81.8466" gradientUnits="userSpaceOnUse">
<stop stop-color="#146447"/>
<stop offset="0.65" stop-color="#1A674B"/>
<stop offset="0.99" stop-color="#959CA2"/>
</linearGradient>
<linearGradient id="paint79_linear_179_251" x1="-1.17215" y1="81.8466" x2="600.136" y2="81.8466" gradientUnits="userSpaceOnUse">
<stop stop-color="#146447"/>
<stop offset="0.65" stop-color="#1A674B"/>
<stop offset="0.99" stop-color="#959CA2"/>
</linearGradient>
<linearGradient id="paint80_linear_179_251" x1="-5.4981" y1="81.8466" x2="595.81" y2="81.8466" gradientUnits="userSpaceOnUse">
<stop stop-color="#146447"/>
<stop offset="0.65" stop-color="#1A674B"/>
<stop offset="0.99" stop-color="#959CA2"/>
</linearGradient>
<linearGradient id="paint81_linear_179_251" x1="-5.4981" y1="81.8466" x2="591.484" y2="81.8466" gradientUnits="userSpaceOnUse">
<stop stop-color="#146447"/>
<stop offset="0.65" stop-color="#1A674B"/>
<stop offset="0.99" stop-color="#959CA2"/>
</linearGradient>
<linearGradient id="paint82_linear_179_251" x1="-9.82406" y1="81.8466" x2="587.158" y2="81.8466" gradientUnits="userSpaceOnUse">
<stop stop-color="#146447"/>
<stop offset="0.65" stop-color="#1A674B"/>
<stop offset="0.99" stop-color="#959CA2"/>
</linearGradient>
<linearGradient id="paint83_linear_179_251" x1="-14.15" y1="81.8466" x2="582.832" y2="81.8466" gradientUnits="userSpaceOnUse">
<stop stop-color="#146447"/>
<stop offset="0.65" stop-color="#1A674B"/>
<stop offset="0.99" stop-color="#959CA2"/>
</linearGradient>
<linearGradient id="paint84_linear_179_251" x1="-18.476" y1="81.8466" x2="582.832" y2="81.8466" gradientUnits="userSpaceOnUse">
<stop stop-color="#146447"/>
<stop offset="0.65" stop-color="#1A674B"/>
<stop offset="0.99" stop-color="#959CA2"/>
</linearGradient>
<linearGradient id="paint85_linear_179_251" x1="20.4576" y1="81.8466" x2="621.766" y2="81.8466" gradientUnits="userSpaceOnUse">
<stop stop-color="#146447"/>
<stop offset="0.65" stop-color="#1A674B"/>
<stop offset="0.99" stop-color="#959CA2"/>
</linearGradient>
<linearGradient id="paint86_linear_179_251" x1="20.4576" y1="81.8466" x2="617.44" y2="81.8466" gradientUnits="userSpaceOnUse">
<stop stop-color="#146447"/>
<stop offset="0.65" stop-color="#1A674B"/>
<stop offset="0.99" stop-color="#959CA2"/>
</linearGradient>
<linearGradient id="paint87_linear_179_251" x1="16.1317" y1="81.8466" x2="613.114" y2="81.8466" gradientUnits="userSpaceOnUse">
<stop stop-color="#146447"/>
<stop offset="0.65" stop-color="#1A674B"/>
<stop offset="0.99" stop-color="#959CA2"/>
</linearGradient>
<linearGradient id="paint88_linear_179_251" x1="11.8057" y1="81.8466" x2="608.788" y2="81.8466" gradientUnits="userSpaceOnUse">
<stop stop-color="#146447"/>
<stop offset="0.65" stop-color="#1A674B"/>
<stop offset="0.99" stop-color="#959CA2"/>
</linearGradient>
<linearGradient id="paint89_linear_179_251" x1="7.47976" y1="81.8466" x2="604.462" y2="81.8466" gradientUnits="userSpaceOnUse">
<stop stop-color="#146447"/>
<stop offset="0.65" stop-color="#1A674B"/>
<stop offset="0.99" stop-color="#959CA2"/>
</linearGradient>
<linearGradient id="paint90_linear_179_251" x1="3.15381" y1="81.8466" x2="604.462" y2="81.8466" gradientUnits="userSpaceOnUse">
<stop stop-color="#146447"/>
<stop offset="0.65" stop-color="#1A674B"/>
<stop offset="0.99" stop-color="#959CA2"/>
</linearGradient>
<linearGradient id="paint91_linear_179_251" x1="-1.17215" y1="81.8466" x2="600.136" y2="81.8466" gradientUnits="userSpaceOnUse">
<stop stop-color="#146447"/>
<stop offset="0.65" stop-color="#1A674B"/>
<stop offset="0.99" stop-color="#959CA2"/>
</linearGradient>
<linearGradient id="paint92_linear_179_251" x1="-1.17215" y1="81.8466" x2="595.81" y2="81.8466" gradientUnits="userSpaceOnUse">
<stop stop-color="#146447"/>
<stop offset="0.65" stop-color="#1A674B"/>
<stop offset="0.99" stop-color="#959CA2"/>
</linearGradient>
<linearGradient id="paint93_linear_179_251" x1="-5.4981" y1="81.8466" x2="591.484" y2="81.8466" gradientUnits="userSpaceOnUse">
<stop stop-color="#146447"/>
<stop offset="0.65" stop-color="#1A674B"/>
<stop offset="0.99" stop-color="#959CA2"/>
</linearGradient>
<linearGradient id="paint94_linear_179_251" x1="3.13236" y1="80.9588" x2="608.702" y2="80.9588" gradientUnits="userSpaceOnUse">
<stop stop-color="#146447"/>
<stop offset="0.65" stop-color="#1A674B"/>
<stop offset="0.99" stop-color="#959CA2"/>
</linearGradient>
<linearGradient id="paint95_linear_179_251" x1="3.67441" y1="82.0868" x2="608.788" y2="82.0868" gradientUnits="userSpaceOnUse">
<stop stop-color="#146447"/>
<stop offset="0.65" stop-color="#1A674B"/>
<stop offset="0.99" stop-color="#959CA2"/>
</linearGradient>
<linearGradient id="paint96_linear_179_251" x1="3.61524" y1="82.0175" x2="608.788" y2="82.0175" gradientUnits="userSpaceOnUse">
<stop stop-color="#146447"/>
<stop offset="0.65" stop-color="#1A674B"/>
<stop offset="0.99" stop-color="#959CA2"/>
</linearGradient>
<linearGradient id="paint97_linear_179_251" x1="2.84323" y1="81.5333" x2="608.166" y2="81.5333" gradientUnits="userSpaceOnUse">
<stop stop-color="#146447"/>
<stop offset="0.65" stop-color="#1A674B"/>
<stop offset="0.99" stop-color="#959CA2"/>
</linearGradient>
<linearGradient id="paint98_linear_179_251" x1="2.84323" y1="82.5534" x2="608.166" y2="82.5534" gradientUnits="userSpaceOnUse">
<stop stop-color="#146447"/>
<stop offset="0.65" stop-color="#1A674B"/>
<stop offset="0.99" stop-color="#959CA2"/>
</linearGradient>
<linearGradient id="paint99_linear_179_251" x1="2.84323" y1="80.5132" x2="608.166" y2="80.5132" gradientUnits="userSpaceOnUse">
<stop stop-color="#146447"/>
<stop offset="0.65" stop-color="#1A674B"/>
<stop offset="0.99" stop-color="#959CA2"/>
</linearGradient>
<linearGradient id="paint100_linear_179_251" x1="7.47976" y1="81.8466" x2="608.788" y2="81.8466" gradientUnits="userSpaceOnUse">
<stop stop-color="#146447"/>
<stop offset="0.65" stop-color="#1A674B"/>
<stop offset="0.99" stop-color="#959CA2"/>
</linearGradient>
<linearGradient id="paint101_linear_179_251" x1="7.47976" y1="81.8466" x2="604.462" y2="81.8466" gradientUnits="userSpaceOnUse">
<stop stop-color="#146447"/>
<stop offset="0.65" stop-color="#1A674B"/>
<stop offset="0.99" stop-color="#959CA2"/>
</linearGradient>
<linearGradient id="paint102_linear_179_251" x1="3.15381" y1="82.0109" x2="600.136" y2="82.0109" gradientUnits="userSpaceOnUse">
<stop stop-color="#146447"/>
<stop offset="0.65" stop-color="#1A674B"/>
<stop offset="0.99" stop-color="#959CA2"/>
</linearGradient>
<linearGradient id="paint103_linear_179_251" x1="-1.17215" y1="81.8466" x2="595.81" y2="81.8466" gradientUnits="userSpaceOnUse">
<stop stop-color="#146447"/>
<stop offset="0.65" stop-color="#1A674B"/>
<stop offset="0.99" stop-color="#959CA2"/>
</linearGradient>
<linearGradient id="paint104_linear_179_251" x1="-5.4981" y1="82.0109" x2="591.484" y2="82.0109" gradientUnits="userSpaceOnUse">
<stop stop-color="#146447"/>
<stop offset="0.65" stop-color="#1A674B"/>
<stop offset="0.99" stop-color="#959CA2"/>
</linearGradient>
<linearGradient id="paint105_linear_179_251" x1="2.84323" y1="80.9579" x2="608.166" y2="80.9579" gradientUnits="userSpaceOnUse">
<stop stop-color="#146447"/>
<stop offset="0.65" stop-color="#1A674B"/>
<stop offset="0.99" stop-color="#959CA2"/>
</linearGradient>
<linearGradient id="paint106_linear_179_251" x1="2.84323" y1="79.7024" x2="608.166" y2="79.7024" gradientUnits="userSpaceOnUse">
<stop stop-color="#146447"/>
<stop offset="0.65" stop-color="#1A674B"/>
<stop offset="0.99" stop-color="#959CA2"/>
</linearGradient>
<linearGradient id="paint107_linear_179_251" x1="7.47976" y1="82.5802" x2="608.788" y2="82.5802" gradientUnits="userSpaceOnUse">
<stop stop-color="#146447"/>
<stop offset="0.65" stop-color="#1A674B"/>
<stop offset="0.99" stop-color="#959CA2"/>
</linearGradient>
<linearGradient id="paint108_linear_179_251" x1="7.47976" y1="82.5802" x2="604.462" y2="82.5802" gradientUnits="userSpaceOnUse">
<stop stop-color="#146447"/>
<stop offset="0.65" stop-color="#1A674B"/>
<stop offset="0.99" stop-color="#959CA2"/>
</linearGradient>
<linearGradient id="paint109_linear_179_251" x1="3.15381" y1="82.5802" x2="600.136" y2="82.5802" gradientUnits="userSpaceOnUse">
<stop stop-color="#146447"/>
<stop offset="0.65" stop-color="#1A674B"/>
<stop offset="0.99" stop-color="#959CA2"/>
</linearGradient>
<linearGradient id="paint110_linear_179_251" x1="-1.17215" y1="82.5802" x2="595.81" y2="82.5802" gradientUnits="userSpaceOnUse">
<stop stop-color="#146447"/>
<stop offset="0.65" stop-color="#1A674B"/>
<stop offset="0.99" stop-color="#959CA2"/>
</linearGradient>
<linearGradient id="paint111_linear_179_251" x1="-5.4981" y1="82.5802" x2="591.484" y2="82.5802" gradientUnits="userSpaceOnUse">
<stop stop-color="#146447"/>
<stop offset="0.65" stop-color="#1A674B"/>
<stop offset="0.99" stop-color="#959CA2"/>
</linearGradient>
<linearGradient id="paint112_linear_179_251" x1="2.84323" y1="85.9801" x2="608.166" y2="85.9801" gradientUnits="userSpaceOnUse">
<stop stop-color="#146447"/>
<stop offset="0.65" stop-color="#1A674B"/>
<stop offset="0.99" stop-color="#959CA2"/>
</linearGradient>
<linearGradient id="paint113_linear_179_251" x1="2.84323" y1="84.7245" x2="608.166" y2="84.7245" gradientUnits="userSpaceOnUse">
<stop stop-color="#146447"/>
<stop offset="0.65" stop-color="#1A674B"/>
<stop offset="0.99" stop-color="#959CA2"/>
</linearGradient>
<linearGradient id="paint114_linear_179_251" x1="7.47976" y1="83.3138" x2="608.788" y2="83.3138" gradientUnits="userSpaceOnUse">
<stop stop-color="#146447"/>
<stop offset="0.65" stop-color="#1A674B"/>
<stop offset="0.99" stop-color="#959CA2"/>
</linearGradient>
<linearGradient id="paint115_linear_179_251" x1="1.4478" y1="87.2356" x2="608.361" y2="87.2356" gradientUnits="userSpaceOnUse">
<stop stop-color="#146447"/>
<stop offset="0.65" stop-color="#1A674B"/>
<stop offset="0.99" stop-color="#959CA2"/>
</linearGradient>
<linearGradient id="paint116_linear_179_251" x1="1.4478" y1="87.2356" x2="608.361" y2="87.2356" gradientUnits="userSpaceOnUse">
<stop stop-color="#146447"/>
<stop offset="0.65" stop-color="#1A674B"/>
<stop offset="0.99" stop-color="#959CA2"/>
</linearGradient>
<linearGradient id="paint117_linear_179_251" x1="1.4478" y1="87.2356" x2="608.361" y2="87.2356" gradientUnits="userSpaceOnUse">
<stop stop-color="#146447"/>
<stop offset="0.65" stop-color="#1A674B"/>
<stop offset="0.99" stop-color="#959CA2"/>
</linearGradient>
<linearGradient id="paint118_linear_179_251" x1="1.4478" y1="85.98" x2="608.361" y2="85.98" gradientUnits="userSpaceOnUse">
<stop stop-color="#146447"/>
<stop offset="0.65" stop-color="#1A674B"/>
<stop offset="0.99" stop-color="#959CA2"/>
</linearGradient>
<linearGradient id="paint119_linear_179_251" x1="1.4478" y1="85.98" x2="608.361" y2="85.98" gradientUnits="userSpaceOnUse">
<stop stop-color="#146447"/>
<stop offset="0.65" stop-color="#1A674B"/>
<stop offset="0.99" stop-color="#959CA2"/>
</linearGradient>
<linearGradient id="paint120_linear_179_251" x1="1.4478" y1="79.7023" x2="608.361" y2="79.7023" gradientUnits="userSpaceOnUse">
<stop stop-color="#146447"/>
<stop offset="0.65" stop-color="#1A674B"/>
<stop offset="0.99" stop-color="#959CA2"/>
</linearGradient>
<linearGradient id="paint121_linear_179_251" x1="2.84323" y1="82.3758" x2="608.166" y2="82.3758" gradientUnits="userSpaceOnUse">
<stop stop-color="#146447"/>
<stop offset="0.65" stop-color="#1A674B"/>
<stop offset="0.99" stop-color="#959CA2"/>
</linearGradient>
<linearGradient id="paint122_linear_179_251" x1="2.75969" y1="82.1874" x2="608.525" y2="82.1874" gradientUnits="userSpaceOnUse">
<stop stop-color="#146447"/>
<stop offset="0.65" stop-color="#1A674B"/>
<stop offset="0.99" stop-color="#959CA2"/>
</linearGradient>
<linearGradient id="paint123_linear_179_251" x1="3.45815" y1="82.2134" x2="608.331" y2="82.2134" gradientUnits="userSpaceOnUse">
<stop stop-color="#146447"/>
<stop offset="0.65" stop-color="#1A674B"/>
<stop offset="0.99" stop-color="#959CA2"/>
</linearGradient>
<linearGradient id="paint124_linear_179_251" x1="3.19426" y1="82.2547" x2="608.788" y2="82.2547" gradientUnits="userSpaceOnUse">
<stop stop-color="#146447"/>
<stop offset="0.65" stop-color="#1A674B"/>
<stop offset="0.99" stop-color="#959CA2"/>
</linearGradient>
</defs>
</svg>
