<svg width="615" height="113" viewBox="0 0 615 113" fill="none" xmlns="http://www.w3.org/2000/svg">
<g opacity="0.8">
<path d="M157.038 65.321V57.9813H153.313V65.321L150.312 67.4919H160.039L157.038 65.321Z" fill="#EDA977"/>
<path d="M201.948 23.3504H73.944C61.1126 23.3504 57.2839 32.4474 57.2839 43.9222C57.2839 55.3969 61.423 64.494 73.944 64.494H201.948V23.3504Z" fill="url(#paint0_linear_182_10185)"/>
<path d="M335.747 32.0339H201.224V55.6036H335.747V32.0339Z" fill="url(#paint1_linear_182_10185)"/>
<path d="M201.224 23.3504V64.2872H214.055C215.814 64.2872 217.573 63.8737 219.229 62.9433L231.543 55.8104V32.2407L218.918 25.1078C217.366 24.2807 215.711 23.7639 213.951 23.7639L201.224 23.3504Z" fill="url(#paint2_linear_182_10185)"/>
<path d="M201.948 23.3504H73.944C61.1126 23.3504 57.2839 32.4474 57.2839 43.9222C57.2839 55.3969 61.423 64.494 73.944 64.494H201.948V23.3504Z" fill="white"/>
<path d="M335.747 32.0339H232.06V55.6036H335.747V32.0339Z" fill="white"/>
<path d="M201.224 23.3504V64.2872H214.055C215.814 64.2872 217.573 63.8737 219.229 62.9433L231.543 55.8104V32.2407L218.918 25.1078C217.366 24.2807 215.711 23.7639 213.951 23.7639L201.224 23.3504Z" fill="white"/>
<path d="M215.607 65.321V57.9813H211.882V65.321L208.881 67.4919H218.608L215.607 65.321Z" fill="#EDA977"/>
<path d="M326.227 65.321V57.9813H322.501V65.321L319.5 67.4919H329.227L326.227 65.321Z" fill="#EDA977"/>
<path d="M100.642 23.9706H99.8138V63.8737H100.642V23.9706Z" fill="#EDA977"/>
<path d="M577.164 72.2472C577.164 75.2451 574.991 76.1755 572.611 77.2092C567.851 79.1734 563.298 81.3442 558.537 83.3084C552.018 86.0995 545.499 88.8907 538.773 91.992C534.634 93.7494 530.495 95.9202 526.148 97.3675C523.561 98.4013 520.561 99.1249 517.663 99.1249C463.854 99.3316 410.045 99.3316 356.339 99.3316C300.15 99.3316 243.753 99.3316 187.564 99.3316C146.379 99.3316 104.884 99.3316 63.2857 99.5384C57.6978 99.5384 56.9734 98.9181 56.5595 93.4392C56.3525 90.2346 56.1456 86.7198 55.9386 83.5151C55.9386 82.1712 55.7317 81.1375 55.7317 79.7936C55.7317 78.9666 55.3177 77.6227 54.6969 77.2092C50.3507 73.2809 50.1438 72.6607 52.1099 67.4919H576.543C576.957 69.0425 577.164 70.7999 577.164 72.2472Z" fill="#B11F24"/>
<path d="M576.75 67.4919H52.3168C50.1438 72.8674 50.3507 73.5911 54.9038 77.2092C55.5247 77.8295 55.7317 78.9666 55.9386 79.7936C55.9386 81.1375 56.1456 82.1712 56.1456 83.5151H558.641C563.401 81.551 567.954 79.3801 572.714 77.416C575.094 76.3822 577.267 75.4518 577.267 72.4539C577.164 70.7999 576.957 69.0425 576.75 67.4919Z" fill="#221F1F"/>
<path d="M524.907 0.607666H305.117C303.358 0.607666 301.598 1.22792 300.15 2.36506L298.598 3.70894C297.252 4.7427 295.597 5.46633 293.631 5.46633H245.513C241.373 5.46633 237.959 8.98111 237.959 13.0128V52.399C237.959 56.534 241.477 59.9454 245.513 59.9454H293.837C295.597 59.9454 297.356 60.5657 298.805 61.7028L300.357 63.0467C301.702 64.0805 303.358 64.8041 305.324 64.8041H525.01C542.809 64.8041 557.089 50.5382 557.089 32.7576C556.985 14.8735 542.705 0.607666 524.907 0.607666Z" fill="url(#paint3_linear_182_10185)"/>
<path d="M439.019 64.0805V52.0889H435.294V64.0805L432.293 67.4919H442.02L439.019 64.0805Z" fill="#EF8229"/>
<path d="M373.93 64.0805V52.0889H370.205V64.0805L367.204 67.4919H376.931L373.93 64.0805Z" fill="#EF8229"/>
<path d="M308.842 64.0805V52.0889H305.117V64.0805L302.116 67.4919H311.843L308.842 64.0805Z" fill="#EF8229"/>
<path d="M504.004 64.0805V52.0889H500.382V64.0805L497.381 67.4919H507.108L504.004 64.0805Z" fill="#EF8229"/>
<path d="M332.642 1.22792H331.814V64.0805H332.642V1.22792Z" fill="#EDA977"/>
<path d="M311.015 1.22792H310.187V64.0805H311.015V1.22792Z" fill="#EDA977"/>
<path d="M354.373 1.22792H353.545V64.0805H354.373V1.22792Z" fill="#EDA977"/>
<path d="M376 1.22792H375.172V64.0805H376V1.22792Z" fill="#EDA977"/>
<path d="M397.731 1.22792H396.903V64.0805H397.731V1.22792Z" fill="#EDA977"/>
<path d="M419.461 1.22792H418.633V64.0805H419.461V1.22792Z" fill="#EDA977"/>
<path d="M441.088 1.22792H440.261V64.0805H441.088V1.22792Z" fill="#EDA977"/>
<path d="M462.819 1.22792H461.991V64.0805H462.819V1.22792Z" fill="#EDA977"/>
<path d="M484.446 1.22792H483.618V64.0805H484.446V1.22792Z" fill="#EDA977"/>
<path d="M506.177 1.22792H505.349V64.0805H506.177V1.22792Z" fill="#EDA977"/>
<path d="M527.908 1.22792H527.08V64.0805H527.908V1.22792Z" fill="#EDA977"/>
<path d="M228.335 38.65C228.335 37.823 227.714 37.3061 226.783 37.6162L219.022 40.4074V40.2006C219.022 31.7238 205.984 25.0044 200.603 25.0044H119.889C118.854 25.0044 117.509 25.6246 116.888 26.555C116.267 27.382 115.129 28.1057 113.887 28.1057H96.0886C93.9155 28.1057 92.3633 29.863 92.3633 31.8272V58.0847C92.3633 60.2556 94.1225 61.8062 96.0886 61.8062H113.887C114.922 61.8062 116.267 62.4265 116.888 63.3568C117.509 64.2872 118.647 64.9075 119.889 64.9075H200.603C205.984 64.9075 219.022 58.188 219.022 49.7112V49.5045L226.783 52.2956C227.404 52.5024 228.335 52.0889 228.335 51.2618V38.65Z" fill="url(#paint4_linear_182_10185)"/>
<path d="M202.569 25.5213H201.741V64.0805H202.569V25.5213Z" fill="#EDA977"/>
<path d="M180.838 25.5213H180.01V64.0805H180.838V25.5213Z" fill="#EDA977"/>
<path d="M159.107 25.5213H158.28V64.0805H159.107V25.5213Z" fill="#EDA977"/>
<path d="M137.48 25.5213H136.652V64.0805H137.48V25.5213Z" fill="#EDA977"/>
<path d="M78.911 23.9706H78.0832V63.8737H78.911V23.9706Z" fill="#EDA977"/>
<path d="M196.05 64.0805V52.0889H192.428V64.0805L189.323 67.4919H199.05L196.05 64.0805Z" fill="#EF8229"/>
<path d="M135.307 64.0805V52.0889H131.685V64.0805L128.581 67.4919H138.412L135.307 64.0805Z" fill="#EF8229"/>
<path d="M83.2571 65.321V57.9813H79.6354V65.321L76.531 67.4919H86.3615L83.2571 65.321Z" fill="#EDA977"/>
<path d="M264.221 71.4056L263.229 77.3026C263.205 77.4179 263.147 77.5119 263.056 77.5847C262.965 77.6515 262.856 77.6848 262.728 77.6848H261.4C261.272 77.6848 261.163 77.6484 261.072 77.5756C260.981 77.5028 260.927 77.4088 260.908 77.2935L260.226 73.1892C260.177 72.9223 260.141 72.6584 260.117 72.3975H259.944C259.944 72.4157 259.929 72.528 259.898 72.7342C259.874 72.9405 259.853 73.0952 259.835 73.1983L259.161 77.2935C259.143 77.4088 259.085 77.5028 258.988 77.5756C258.897 77.6484 258.788 77.6848 258.661 77.6848H257.332C257.211 77.6848 257.101 77.6515 257.004 77.5847C256.913 77.5119 256.856 77.4179 256.831 77.3026L255.839 71.4056H257.259L257.869 75.7647C257.905 76.0377 257.932 76.341 257.951 76.6747H258.133C258.151 76.5048 258.196 76.2015 258.269 75.7647L258.943 71.8333C258.961 71.7059 259.012 71.6027 259.097 71.5239C259.188 71.445 259.301 71.4056 259.434 71.4056H260.635C260.763 71.4056 260.869 71.445 260.954 71.5239C261.045 71.6027 261.099 71.7059 261.118 71.8333L261.791 75.7738C261.864 76.2227 261.906 76.523 261.918 76.6747H262.11C262.134 76.3289 262.161 76.0316 262.191 75.7829L262.81 71.4056H264.221Z" fill="#F9F9F9"/>
<path d="M273.072 71.4056L272.08 77.3026C272.056 77.4179 271.999 77.5119 271.908 77.5847C271.817 77.6515 271.707 77.6848 271.58 77.6848H270.251C270.124 77.6848 270.015 77.6484 269.924 77.5756C269.833 77.5028 269.778 77.4088 269.76 77.2935L269.077 73.1892C269.029 72.9223 268.992 72.6584 268.968 72.3975H268.795C268.795 72.4157 268.78 72.528 268.75 72.7342C268.725 72.9405 268.704 73.0952 268.686 73.1983L268.013 77.2935C267.994 77.4088 267.937 77.5028 267.84 77.5756C267.749 77.6484 267.639 77.6848 267.512 77.6848H266.183C266.062 77.6848 265.953 77.6515 265.856 77.5847C265.765 77.5119 265.707 77.4179 265.683 77.3026L264.691 71.4056H266.111L266.72 75.7647C266.757 76.0377 266.784 76.341 266.802 76.6747H266.984C267.002 76.5048 267.048 76.2015 267.121 75.7647L267.794 71.8333C267.812 71.7059 267.864 71.6027 267.949 71.5239C268.04 71.445 268.152 71.4056 268.286 71.4056H269.487C269.614 71.4056 269.72 71.445 269.805 71.5239C269.896 71.6027 269.951 71.7059 269.969 71.8333L270.643 75.7738C270.715 76.2227 270.758 76.523 270.77 76.6747H270.961C270.985 76.3289 271.013 76.0316 271.043 75.7829L271.662 71.4056H273.072Z" fill="#F9F9F9"/>
<path d="M281.924 71.4056L280.932 77.3026C280.908 77.4179 280.85 77.5119 280.759 77.5847C280.668 77.6515 280.559 77.6848 280.432 77.6848H279.103C278.975 77.6848 278.866 77.6484 278.775 77.5756C278.684 77.5028 278.63 77.4088 278.611 77.2935L277.929 73.1892C277.88 72.9223 277.844 72.6584 277.82 72.3975H277.647C277.647 72.4157 277.632 72.528 277.601 72.7342C277.577 72.9405 277.556 73.0952 277.538 73.1983L276.864 77.2935C276.846 77.4088 276.788 77.5028 276.691 77.5756C276.6 77.6484 276.491 77.6848 276.364 77.6848H275.035C274.914 77.6848 274.804 77.6515 274.707 77.5847C274.616 77.5119 274.559 77.4179 274.534 77.3026L273.543 71.4056H274.962L275.572 75.7647C275.608 76.0377 275.636 76.341 275.654 76.6747H275.836C275.854 76.5048 275.9 76.2015 275.972 75.7647L276.646 71.8333C276.664 71.7059 276.716 71.6027 276.8 71.5239C276.891 71.445 277.004 71.4056 277.137 71.4056H278.338C278.466 71.4056 278.572 71.445 278.657 71.5239C278.748 71.6027 278.803 71.7059 278.821 71.8333L279.494 75.7738C279.567 76.2227 279.609 76.523 279.622 76.6747H279.813C279.837 76.3289 279.864 76.0316 279.895 75.7829L280.513 71.4056H281.924Z" fill="#F9F9F9"/>
<path d="M282.917 76.3107H283.281C283.457 76.3107 283.578 76.344 283.645 76.4108C283.718 76.4775 283.754 76.5989 283.754 76.7748V77.2116C283.754 77.3876 283.718 77.5119 283.645 77.5847C283.578 77.6515 283.457 77.6848 283.281 77.6848H282.917C282.741 77.6848 282.617 77.6515 282.544 77.5847C282.477 77.5119 282.444 77.3876 282.444 77.2116V76.7748C282.444 76.5989 282.477 76.4775 282.544 76.4108C282.617 76.344 282.741 76.3107 282.917 76.3107Z" fill="#F9F9F9"/>
<path d="M289.898 71.4056H291.236C291.569 71.4056 291.742 71.5785 291.754 71.9243L292 77.6848H290.69L290.48 72.4885H290.326L289.379 76.3744C289.319 76.6717 289.13 76.8203 288.815 76.8203H287.905C287.589 76.8203 287.401 76.6717 287.341 76.3744L286.385 72.4885H286.23L286.048 77.6848H284.738L284.965 71.9243C284.984 71.5785 285.157 71.4056 285.484 71.4056H286.822C287.119 71.4056 287.301 71.5542 287.368 71.8515L288.132 74.982C288.181 75.1822 288.236 75.4765 288.296 75.8648H288.415C288.421 75.8344 288.442 75.7101 288.478 75.4916C288.521 75.2732 288.554 75.1034 288.578 74.982L289.334 71.8515C289.406 71.5542 289.595 71.4056 289.898 71.4056Z" fill="#F9F9F9"/>
<path d="M301.111 71.4056L300.119 77.3026C300.095 77.4179 300.037 77.5119 299.946 77.5847C299.855 77.6515 299.746 77.6848 299.619 77.6848H298.29C298.163 77.6848 298.053 77.6484 297.962 77.5756C297.871 77.5028 297.817 77.4088 297.799 77.2935L297.116 73.1892C297.068 72.9223 297.031 72.6584 297.007 72.3975H296.834C296.834 72.4157 296.819 72.528 296.789 72.7342C296.764 72.9405 296.743 73.0952 296.725 73.1983L296.051 77.2935C296.033 77.4088 295.976 77.5028 295.879 77.5756C295.788 77.6484 295.678 77.6848 295.551 77.6848H294.222C294.101 77.6848 293.992 77.6515 293.895 77.5847C293.804 77.5119 293.746 77.4179 293.722 77.3026L292.73 71.4056H294.149L294.759 75.7647C294.796 76.0377 294.823 76.341 294.841 76.6747H295.023C295.041 76.5048 295.087 76.2015 295.16 75.7647L295.833 71.8333C295.851 71.7059 295.903 71.6027 295.988 71.5239C296.079 71.445 296.191 71.4056 296.324 71.4056H297.526C297.653 71.4056 297.759 71.445 297.844 71.5239C297.935 71.6027 297.99 71.7059 298.008 71.8333L298.681 75.7738C298.754 76.2227 298.797 76.523 298.809 76.6747H299C299.024 76.3289 299.051 76.0316 299.082 75.7829L299.701 71.4056H301.111Z" fill="#F9F9F9"/>
<path d="M304.302 75.3096L303.037 74.8637C302.57 74.6938 302.237 74.4633 302.036 74.1721C301.836 73.8809 301.736 73.4987 301.736 73.0254C301.736 72.3338 301.903 71.8727 302.237 71.6422C302.576 71.4056 303.171 71.2873 304.02 71.2873C304.821 71.2873 305.51 71.3692 306.086 71.533L305.995 72.4794C305.467 72.4612 304.812 72.4521 304.029 72.4521C303.665 72.4521 303.423 72.4855 303.301 72.5522C303.18 72.6129 303.119 72.7706 303.119 73.0254C303.119 73.2317 303.165 73.3804 303.256 73.4714C303.347 73.5624 303.52 73.6503 303.775 73.7353L304.967 74.1448C305.452 74.3147 305.795 74.5482 305.995 74.8455C306.195 75.1367 306.295 75.519 306.295 75.9922C306.295 76.6959 306.125 77.1752 305.786 77.43C305.446 77.6788 304.839 77.8031 303.966 77.8031C303.256 77.8031 302.537 77.7243 301.809 77.5665L301.891 76.5655C303.183 76.5958 303.875 76.611 303.966 76.611C304.336 76.611 304.581 76.5716 304.703 76.4927C304.83 76.4138 304.894 76.25 304.894 76.0013C304.894 75.7889 304.851 75.6403 304.766 75.5554C304.681 75.4643 304.527 75.3824 304.302 75.3096Z" fill="#F9F9F9"/>
<path d="M312.265 71.4056V77.6848H310.882V74.8819H308.662V77.6848H307.278V71.4056H308.662V73.8081H310.882V71.4056H312.265Z" fill="#F9F9F9"/>
<path d="M314.927 77.6848H313.544V71.4056H314.927V77.6848Z" fill="#F9F9F9"/>
<path d="M316.201 77.6848V71.4056C316.765 71.351 317.56 71.3237 318.585 71.3237C319.465 71.3237 320.066 71.4662 320.387 71.7514C320.715 72.0365 320.879 72.5765 320.879 73.3713C320.879 74.166 320.724 74.709 320.415 75.0002C320.111 75.2854 319.562 75.4279 318.767 75.4279C318.367 75.4279 317.973 75.4037 317.584 75.3551V77.6848H316.201ZM317.584 74.3632H318.558C318.916 74.3571 319.159 74.2874 319.286 74.1539C319.42 74.0204 319.486 73.7595 319.486 73.3713C319.486 72.983 319.42 72.7221 319.286 72.5886C319.159 72.4552 318.916 72.3884 318.558 72.3884L317.584 72.3975V74.3632Z" fill="#F9F9F9"/>
<path d="M321.434 76.3107H321.798C321.974 76.3107 322.095 76.344 322.162 76.4108C322.235 76.4775 322.271 76.5989 322.271 76.7748V77.2116C322.271 77.3876 322.235 77.5119 322.162 77.5847C322.095 77.6515 321.974 77.6848 321.798 77.6848H321.434C321.258 77.6848 321.133 77.6515 321.061 77.5847C320.994 77.5119 320.961 77.3876 320.961 77.2116V76.7748C320.961 76.5989 320.994 76.4775 321.061 76.4108C321.133 76.344 321.258 76.3107 321.434 76.3107Z" fill="#F9F9F9"/>
<path d="M327.696 76.5109L327.814 77.5392C327.268 77.7091 326.598 77.794 325.803 77.794C324.832 77.794 324.15 77.5514 323.755 77.066C323.361 76.5807 323.164 75.7404 323.164 74.5452C323.164 73.35 323.361 72.5098 323.755 72.0244C324.15 71.539 324.832 71.2964 325.803 71.2964C326.507 71.2964 327.134 71.3661 327.687 71.5057L327.568 72.5431C327.077 72.5128 326.488 72.4976 325.803 72.4976C325.348 72.4976 325.035 72.6432 324.865 72.9344C324.702 73.2196 324.62 73.7565 324.62 74.5452C324.62 75.3339 324.702 75.8739 324.865 76.1651C325.035 76.4502 325.348 76.5928 325.803 76.5928C326.646 76.5928 327.277 76.5655 327.696 76.5109Z" fill="#F9F9F9"/>
<path d="M328.989 71.988C329.384 71.5209 330.085 71.2873 331.092 71.2873C332.099 71.2873 332.799 71.5209 333.194 71.988C333.588 72.4491 333.785 73.3015 333.785 74.5452C333.785 75.7889 333.588 76.6444 333.194 77.1115C332.799 77.5726 332.099 77.8031 331.092 77.8031C330.085 77.8031 329.384 77.5726 328.989 77.1115C328.601 76.6444 328.407 75.7889 328.407 74.5452C328.407 73.3015 328.601 72.4491 328.989 71.988ZM332.056 72.8525C331.886 72.5553 331.565 72.4066 331.092 72.4066C330.618 72.4066 330.294 72.5553 330.118 72.8525C329.948 73.1498 329.863 73.714 329.863 74.5452C329.863 75.3764 329.948 75.9406 330.118 76.2379C330.294 76.5352 330.618 76.6838 331.092 76.6838C331.565 76.6838 331.886 76.5352 332.056 76.2379C332.232 75.9406 332.32 75.3764 332.32 74.5452C332.32 73.714 332.232 73.1498 332.056 72.8525Z" fill="#F9F9F9"/>
<path d="M339.879 71.4056H341.217C341.55 71.4056 341.723 71.5785 341.735 71.9243L341.981 77.6848H340.671L340.461 72.4885H340.307L339.36 76.3744C339.3 76.6717 339.111 76.8203 338.796 76.8203H337.886C337.57 76.8203 337.382 76.6717 337.322 76.3744L336.366 72.4885H336.211L336.029 77.6848H334.719L334.947 71.9243C334.965 71.5785 335.138 71.4056 335.465 71.4056H336.803C337.1 71.4056 337.282 71.5542 337.349 71.8515L338.113 74.982C338.162 75.1822 338.217 75.4765 338.277 75.8648H338.396C338.402 75.8344 338.423 75.7101 338.459 75.4916C338.502 75.2732 338.535 75.1034 338.559 74.982L339.315 71.8515C339.388 71.5542 339.576 71.4056 339.879 71.4056Z" fill="#F9F9F9"/>
<path d="M0.0598145 111.944C4.19899 109.773 39.0715 80.4139 196.877 85.5826C356.546 90.8548 482.48 101.296 614.416 83.6185C614.416 83.6185 556.468 116.389 421.531 112.357C303.461 108.842 247.582 103.57 133.445 104.707C52.9377 105.534 0.0598145 111.944 0.0598145 111.944Z" fill="#B8D8EB"/>
</g>
<defs>
<linearGradient id="paint0_linear_182_10185" x1="307.119" y1="124.051" x2="307.119" y2="26.0052" gradientUnits="userSpaceOnUse">
<stop stop-color="#292D38"/>
<stop offset="0.995" stop-color="#70777A"/>
</linearGradient>
<linearGradient id="paint1_linear_182_10185" x1="307.342" y1="125.044" x2="307.342" y2="26.0852" gradientUnits="userSpaceOnUse">
<stop stop-color="#2C2920"/>
<stop offset="0.995" stop-color="#90897E"/>
</linearGradient>
<linearGradient id="paint2_linear_182_10185" x1="308.662" y1="124.675" x2="308.662" y2="26.1335" gradientUnits="userSpaceOnUse">
<stop stop-color="#2C2920"/>
<stop offset="0.995" stop-color="#90897E"/>
</linearGradient>
<linearGradient id="paint3_linear_182_10185" x1="307.306" y1="126.971" x2="307.306" y2="46.4858" gradientUnits="userSpaceOnUse">
<stop stop-color="#132120"/>
<stop offset="0.995" stop-color="#70777A"/>
</linearGradient>
<linearGradient id="paint4_linear_182_10185" x1="307.407" y1="117.109" x2="307.407" y2="40.1707" gradientUnits="userSpaceOnUse">
<stop stop-color="#2C2920"/>
<stop offset="0.995" stop-color="#90897E"/>
</linearGradient>
</defs>
</svg>
