<svg width="384" height="275" viewBox="0 0 384 275" fill="none" xmlns="http://www.w3.org/2000/svg">
<g clip-path="url(#clip0_182_10186)">
<path d="M276.287 213.737C276.287 213.737 286.213 216.928 290.983 217.743C295.752 218.557 334.723 220.413 334.723 220.413L342.218 200.667C339.009 203.808 335.418 206.535 331.53 208.784C326.319 211.454 281.724 212.055 278.398 211.801C275.071 211.548 276.287 213.737 276.287 213.737Z" fill="#BCBC75"/>
<path d="M328.257 243.71C326.6 240.813 306.654 229.331 304.209 225.246C301.764 221.16 302.138 220.119 302.138 220.119L138.881 178.064L79.3762 191.869L80.4717 192.336C84.5999 197.276 84.119 203.097 97.9731 206.675C111.827 210.253 170.824 212.015 191.412 211.468C211.999 210.92 237.463 213.444 249.327 220.119C261.19 226.794 304.196 274.858 305.959 274.858C307.723 274.858 329.927 246.607 328.257 243.71ZM289.754 235.806C288.418 237.141 286.734 237.435 285.893 236.594C285.051 235.753 285.385 234.017 286.681 232.736C287.977 231.454 289.687 231.093 290.542 231.948C291.397 232.802 291.036 234.525 289.754 235.806ZM300.014 244.444C298.678 245.779 296.995 246.086 296.14 245.232C295.285 244.378 295.645 242.655 296.928 241.374C298.21 240.092 299.947 239.731 300.789 240.586C301.631 241.44 301.297 243.163 300.014 244.444ZM310.929 251.707C309.874 253.189 308.257 253.83 307.255 253.136C306.253 252.441 306.32 250.679 307.375 249.13C308.431 247.582 310.047 247.008 311.049 247.702C312.051 248.396 311.971 250.225 310.929 251.707Z" fill="#2B56A3"/>
<path d="M2.51682 181.802C2.51682 181.802 37.4528 174.953 41.1535 173.017C45.7811 170.545 49.4004 166.536 51.3871 161.682C53.7251 155.995 84.1054 -3.34796 216.314 2.63323C337.889 11.4315 366.172 107.451 369.953 160.441C371.289 208.13 375.069 207.85 375.069 207.85C376.902 209.231 378.55 210.842 379.972 212.642C381.041 214.485 384.742 220.76 374.762 222.522C364.782 224.284 315.618 224.792 282.766 218.677C282.766 218.677 189.461 199.986 162.114 196.755C134.766 193.524 70.3314 193.724 39.7106 194.472C9.08986 195.22 -2.55992 183.337 2.51682 181.802Z" fill="white"/>
<path d="M2.51682 181.802C8.60891 180.591 14.6921 179.332 20.7664 178.024C26.8451 176.689 32.9238 175.434 38.909 173.738C39.6509 173.532 40.3783 173.278 41.0867 172.977C43.1482 171.892 45.0205 170.481 46.631 168.798C48.7989 166.58 50.4622 163.921 51.5074 161.001C53.0838 155.007 54.6336 148.985 56.4238 143.031C63.3175 119.103 73.3821 96.2035 86.3498 74.9415C92.8929 64.3194 100.464 54.3653 108.955 45.2225C117.473 36.053 127.126 28.0045 137.678 21.271C148.295 14.5486 159.822 9.38265 171.906 5.93083C184.037 2.57551 196.566 0.873458 209.154 0.87085H216.234C217.022 0.87085 217.797 0.991007 218.572 1.05776L227.924 1.91222L237.276 3.2473C240.362 3.72794 243.435 4.40883 246.521 4.98292C258.861 7.51821 270.879 11.4231 282.352 16.6249C305.481 27.1714 325.387 43.6767 340.027 64.4477C347.289 74.7776 353.354 85.8991 358.102 97.5979C362.869 109.262 366.489 121.361 368.911 133.725C370.166 139.88 371.061 146.115 371.756 152.417C371.93 153.979 372.104 155.541 372.21 157.129C372.317 158.718 372.504 160.307 372.518 161.856C372.625 164.966 372.691 168.104 372.838 171.201C373.061 177.378 373.422 183.538 373.921 189.679C374.161 192.736 374.482 195.794 374.896 198.784C375.123 200.28 375.363 201.775 375.671 203.19C375.831 203.884 376.005 204.605 376.205 205.193L376.352 205.647L376.499 205.994C376.499 206.154 376.579 206.127 376.579 206.167C376.579 206.207 376.579 206.167 376.459 206.034L376.205 205.847C375.831 205.74 376.205 205.62 374.869 205.526L376.526 206.02C378.377 207.407 380.062 209.002 381.549 210.773C381.778 211.059 381.984 211.362 382.164 211.681L382.578 212.442C382.873 212.999 383.132 213.574 383.353 214.164C383.891 215.534 384.057 217.022 383.834 218.477C383.524 220.061 382.656 221.482 381.389 222.482C380.837 222.905 380.241 223.267 379.612 223.563C379.043 223.854 378.448 224.091 377.835 224.271C377.263 224.464 376.678 224.616 376.085 224.725C375.532 224.865 374.969 224.963 374.401 225.019L372.731 225.232L371.128 225.366C362.591 226.02 354.215 226.02 345.745 225.913C328.9 225.724 312.079 224.579 295.365 222.482L289.112 221.561L282.86 220.466L270.529 217.929L245.906 212.923C229.474 209.625 213.028 206.381 196.555 203.324C188.326 201.788 180.083 200.293 171.813 198.971C169.755 198.637 167.685 198.304 165.614 198.023C163.543 197.743 161.486 197.436 159.401 197.236C157.317 197.035 155.247 196.808 153.162 196.635C151.078 196.461 148.994 196.301 146.91 196.167C130.197 195.033 113.43 194.686 96.677 194.445C79.9238 194.205 63.1572 194.218 46.4039 194.445C42.2089 194.445 38.0273 194.699 33.8323 194.552C29.6389 194.43 25.4598 194.007 21.3275 193.284C17.1948 192.585 13.159 191.402 9.30362 189.759C7.37456 188.94 5.55661 187.882 3.89289 186.608C3.04845 185.981 2.32812 185.202 1.76867 184.312C1.46872 183.875 1.34908 183.339 1.43468 182.817C1.50998 182.567 1.64964 182.342 1.83962 182.164C2.02959 181.986 2.26316 181.861 2.51682 181.802ZM2.51682 181.802C2.25983 181.856 2.02176 181.977 1.82694 182.153C1.63211 182.329 1.48753 182.553 1.40796 182.803C1.33434 183.327 1.45812 183.86 1.75531 184.299C2.31126 185.188 3.03228 185.963 3.87953 186.582C5.54361 187.855 7.36709 188.905 9.30362 189.706C13.1595 191.339 17.1957 192.508 21.3275 193.19C25.4563 193.899 29.631 194.31 33.8189 194.418C38.0006 194.552 42.1956 194.338 46.3906 194.272C63.1438 193.96 79.9015 193.822 96.6637 193.858C113.43 193.938 130.197 194.178 146.963 194.993C149.048 195.086 151.145 195.206 153.243 195.366C155.34 195.527 157.438 195.66 159.522 195.874C161.606 196.087 163.703 196.301 165.787 196.568C167.872 196.835 169.956 197.115 172.027 197.409C180.336 198.611 188.619 199.972 196.876 201.414C213.415 204.218 229.915 207.195 246.401 210.239L271.117 214.859L283.461 217.195L289.607 218.17L295.792 218.971C312.385 220.78 329.067 221.649 345.758 221.574C349.926 221.574 354.094 221.574 358.263 221.387C362.431 221.2 366.613 221.053 370.621 220.653C372.538 220.546 374.438 220.228 376.285 219.705C376.678 219.593 377.059 219.441 377.421 219.251C377.74 219.098 378.044 218.914 378.329 218.704C378.709 218.409 378.97 217.987 379.064 217.515C379.123 216.886 379.022 216.253 378.77 215.673C378.617 215.286 378.443 214.907 378.249 214.538L377.902 213.937C377.822 213.795 377.728 213.66 377.621 213.537C376.38 212.129 374.992 210.858 373.48 209.745L375.136 210.239C373.64 210.146 373.947 209.959 373.506 209.799C373.329 209.692 373.168 209.561 373.025 209.412C372.84 209.238 372.678 209.04 372.544 208.824C372.356 208.561 372.195 208.279 372.063 207.983L371.743 207.262L371.516 206.621C371.242 205.806 371.01 204.977 370.821 204.138C370.447 202.522 370.18 200.947 369.939 199.372C369.458 196.221 369.111 193.097 368.83 190.026C368.256 183.791 367.882 177.556 367.628 171.335C367.468 168.211 367.401 165.14 367.294 161.989C367.294 160.427 367.094 158.945 366.973 157.423C366.853 155.901 366.693 154.393 366.519 152.871C365.824 146.783 364.929 140.708 363.687 134.7C358.784 110.668 349.806 87.3845 335.751 67.3716C334.923 66.0365 333.934 64.915 333.079 63.6734C332.224 62.4317 331.276 61.2168 330.301 60.0419C328.31 57.7322 326.453 55.289 324.329 53.0995L321.189 49.7618L317.929 46.5709C315.792 44.3814 313.441 42.4321 311.143 40.4295C301.819 32.5298 291.486 25.9032 280.415 20.7236C269.302 15.5216 257.655 11.5463 245.679 8.86802C242.66 8.25388 239.667 7.53294 236.635 7.0256L227.51 5.59706L218.318 4.62244C217.544 4.62244 216.782 4.44888 216.021 4.39548H213.723H209.127C196.824 4.2031 184.551 5.67161 172.641 8.76122C160.745 11.9659 149.367 16.8527 138.854 23.2736C128.33 29.7236 118.669 37.4848 110.104 46.3706C101.525 55.3038 93.8508 65.0617 87.1915 75.5022C73.7916 96.343 63.9988 119.413 56.6643 143.111C54.8206 149.039 53.2709 155.047 51.6677 161.055C50.6006 163.995 48.915 166.672 46.7245 168.905C45.6345 170.019 44.4349 171.021 43.1441 171.896C42.4995 172.33 41.8304 172.726 41.1401 173.084C40.4199 173.393 39.6788 173.652 38.9224 173.858C32.9372 175.527 26.8985 176.782 20.7664 178.09C14.6342 179.399 8.56883 180.6 2.51682 181.802Z" fill="#B3B3B3"/>
<mask id="mask0_182_10186" style="mask-type:luminance" maskUnits="userSpaceOnUse" x="1" y="2" width="381" height="222">
<path d="M2.71735 181.802C2.71735 181.802 37.6533 174.953 41.354 173.017C45.9817 170.545 49.6009 166.536 51.5877 161.682C53.9924 155.995 84.3059 -3.34796 216.515 2.63323C338.089 11.4315 366.372 107.451 370.153 160.441C371.489 208.13 375.27 207.85 375.27 207.85C377.128 209.235 378.799 210.855 380.24 212.669C381.309 214.512 385.009 220.787 375.029 222.549C365.05 224.311 315.885 224.818 283.034 218.704C283.034 218.704 189.728 200.013 162.381 196.782C135.033 193.551 70.5987 193.751 39.978 194.499C9.35719 195.246 -2.35939 183.337 2.71735 181.802Z" fill="white"/>
</mask>
<g mask="url(#mask0_182_10186)">
<path d="M98.2134 76.0496L95.5415 74.848L97.1847 70.9896L94.8334 69.9349L96.4767 66.0765L93.8047 64.8616L92.1614 68.7066L89.8235 67.6519L88.1802 71.497L85.5082 70.2954L84.7734 72.0043C84.7734 72.0043 85.6018 72.9522 86.4568 74.0336C89.6631 78.0389 89.8769 78.0389 94.8067 77.8119C94.8067 77.8119 97.4787 77.7051 97.4787 77.8119L98.2134 76.0496ZM90.4914 72.0443L89.1555 71.4302L90.0639 69.1205L91.3999 69.748L90.4914 72.0443ZM94.4994 69.214L93.1634 68.5998L94.112 66.3969L95.4479 67.0111L94.4994 69.214ZM95.1808 74.1538L93.8448 73.5396L94.7933 71.31L96.1293 71.9242L95.1808 74.1538Z" fill="#294B96"/>
<path d="M77.5724 69.3743C80.1314 70.551 82.3782 72.3116 84.1321 74.5144C86.5368 77.772 87.1113 78.9201 89.0351 79.7879C91.3197 80.8293 95.9422 79.9615 96.9041 79.9214C97.6522 79.9214 99.1218 79.5209 104.252 81.4969L101.58 82.9922C101.58 82.9922 98.534 81.4568 93.2168 82.5382C91.4688 82.8106 89.6808 82.6548 88.0064 82.0843L87.0579 84.3139C88.4282 84.8476 89.8892 85.1106 91.3598 85.0882C93.484 84.9547 97.4786 84.4207 98.6676 85.0081C98.6676 85.0081 97.051 85.8092 94.9669 87.0642C91.9476 88.8932 87.7526 91.2563 84.7065 89.8145L86.1227 86.4901C85.2504 85.9767 84.4619 85.3329 83.7847 84.5809C82.4487 83.1657 79.9104 79.0269 77.4521 77.9055L77.5724 69.3743Z" fill="#294B96"/>
<path d="M66.1765 99.2267C66.2666 99.4088 66.4114 99.5582 66.5906 99.654C66.6339 99.6753 66.6814 99.6867 66.7297 99.6872C66.7779 99.6876 66.8256 99.6772 66.8693 99.6567C66.913 99.6361 66.9514 99.606 66.9818 99.5686C67.0122 99.5311 67.0338 99.4873 67.0448 99.4403C67.1384 99.2401 67.0448 99.0932 66.9112 98.8396C66.7834 98.6695 66.7036 98.4684 66.6801 98.257C66.6566 98.0457 66.6903 97.8319 66.7776 97.638C67.0181 97.0772 67.4857 96.7835 67.94 96.9971C68.1252 97.0747 68.28 97.2107 68.3808 97.3843L68.0335 97.9317C67.9569 97.7858 67.835 97.6687 67.6861 97.5979C67.6471 97.5784 67.6043 97.5675 67.5607 97.5658C67.517 97.5641 67.4735 97.5717 67.4331 97.5881C67.3926 97.6045 67.3562 97.6294 67.3261 97.661C67.296 97.6926 67.273 97.7303 67.2586 97.7715C67.1784 97.9851 67.2586 98.1186 67.4323 98.399C67.5592 98.5703 67.6353 98.7738 67.6519 98.9863C67.6684 99.1988 67.6247 99.4117 67.5258 99.6006C67.2987 100.148 66.8445 100.495 66.3101 100.241C66.1004 100.153 65.9297 99.9916 65.8291 99.7875L66.1765 99.2267Z" fill="#294B96"/>
<path d="M68.8486 97.264L69.3028 97.4643L68.7284 98.7994C68.8093 98.7266 68.905 98.6719 69.0089 98.6392C69.0949 98.6063 69.1901 98.6063 69.2761 98.6392C69.5567 98.7727 69.6368 99.1999 69.2761 99.9075L68.6883 101.243L68.2474 101.042L68.8085 99.7073C68.9288 99.4002 68.9555 99.1599 68.8085 99.0798C68.6616 98.9997 68.568 99.0798 68.4745 99.24C68.4425 99.2906 68.4156 99.3442 68.3944 99.4002L67.7932 100.735L67.3523 100.535L68.8085 97.1172L68.8486 97.264Z" fill="#294B96"/>
<path d="M70.8391 98.6525C70.7589 98.8528 70.5986 98.973 70.4516 98.9196C70.3047 98.8661 70.2913 98.6392 70.3715 98.4389C70.4516 98.2387 70.6253 98.1052 70.7723 98.1719C70.9192 98.2387 70.9326 98.4389 70.7723 98.6525H70.8391ZM69.1023 101.456L70.1043 99.1065L70.5452 99.3067L69.5432 101.656L69.1023 101.456Z" fill="#294B96"/>
<path d="M70.5719 100.255C70.7055 99.952 70.8124 99.685 70.8925 99.4536L71.28 99.6405L71.1597 99.9743C71.2355 99.8825 71.3378 99.8166 71.4527 99.7855C71.5676 99.7544 71.6893 99.7597 71.801 99.8007C72.1216 99.9476 72.2018 100.522 71.8812 101.269C71.5605 102.017 71.0128 102.391 70.6921 102.244C70.6118 102.203 70.5451 102.139 70.5 102.061C70.455 101.983 70.4335 101.893 70.4383 101.803L69.9306 102.978L69.4897 102.778L70.5719 100.255ZM70.7723 101.016C70.7665 101.069 70.7665 101.123 70.7723 101.176C70.7723 101.376 70.7723 101.576 70.8792 101.63C70.986 101.683 71.3067 101.51 71.467 101.109C71.6273 100.709 71.654 100.402 71.467 100.308C71.28 100.215 71.1597 100.308 71.0395 100.562V100.682L70.8925 101.016H70.7723Z" fill="#294B96"/>
<path d="M72.3088 101.042L72.6428 100.255L73.0302 100.428L72.8966 100.762C72.9728 100.671 73.0759 100.606 73.1911 100.577C73.3064 100.549 73.4278 100.557 73.5379 100.602C73.8452 100.735 73.9387 101.323 73.618 102.07C73.2974 102.818 72.7497 103.178 72.429 103.032C72.3497 102.993 72.2835 102.932 72.2384 102.856C72.1933 102.78 72.1714 102.693 72.1752 102.604L71.6809 103.779L71.24 103.579L72.3088 101.056V101.042ZM72.5225 101.803L72.4557 101.964C72.4222 102.044 72.4159 102.133 72.4375 102.217C72.4592 102.302 72.5078 102.377 72.576 102.431C72.763 102.511 72.9901 102.297 73.1638 101.897C73.3375 101.496 73.3375 101.189 73.1638 101.096C72.9901 101.002 72.8565 101.096 72.7363 101.349V101.483L72.6027 101.803H72.5225Z" fill="#294B96"/>
<path d="M75.1277 100.602C75.0475 100.802 74.8872 100.922 74.7402 100.855C74.5933 100.789 74.5799 100.588 74.6601 100.388C74.7402 100.188 74.9139 100.054 75.0475 100.121C75.1811 100.188 75.2212 100.388 75.1277 100.602ZM73.3909 103.405L74.3929 101.042L74.8337 101.256L73.8317 103.606L73.3909 103.405Z" fill="#294B96"/>
<path d="M74.8738 102.164C74.9941 101.87 75.1009 101.616 75.1811 101.403L75.5685 101.576L75.4483 101.91C75.5171 101.821 75.6117 101.755 75.7193 101.722C75.8269 101.688 75.9422 101.689 76.0495 101.723C76.3434 101.857 76.4102 102.284 76.0495 102.978L75.4617 104.313L75.0208 104.113L75.5685 102.778C75.7021 102.484 75.7289 102.244 75.5685 102.164C75.4082 102.084 75.3147 102.164 75.2212 102.337C75.182 102.395 75.1505 102.458 75.1277 102.524L74.5532 103.859L74.1123 103.659L74.7937 102.057L74.8738 102.164Z" fill="#294B96"/>
<path d="M78.2673 102.805C78.1871 102.952 78.107 103.152 77.96 103.499L77.3989 104.834C77.2661 105.226 77.0254 105.574 76.7042 105.835C76.5978 105.894 76.4783 105.924 76.3568 105.924C76.2354 105.924 76.1159 105.894 76.0095 105.835C75.8174 105.748 75.6615 105.597 75.5686 105.408L75.8892 104.901C75.9594 105.061 76.0819 105.193 76.2366 105.275C76.437 105.368 76.6775 105.275 76.8645 104.807L76.9313 104.66C76.8714 104.737 76.7878 104.792 76.6935 104.816C76.5993 104.84 76.4997 104.832 76.4103 104.794C76.0629 104.647 76.0095 104.06 76.3034 103.379C76.5973 102.698 77.1317 102.271 77.4791 102.431C77.5673 102.48 77.638 102.555 77.6811 102.646C77.7243 102.737 77.7377 102.839 77.7195 102.938L77.8531 102.671L78.2406 102.845L78.2673 102.805ZM77.3989 103.566C77.4024 103.517 77.4024 103.468 77.3989 103.419C77.3989 103.219 77.3989 103.045 77.292 102.992C77.1851 102.938 76.9046 103.098 76.7176 103.526C76.5305 103.953 76.5572 104.193 76.7176 104.287C76.8779 104.38 76.9714 104.287 77.0783 104.086L77.1718 103.913L77.3187 103.566H77.3989Z" fill="#294B96"/>
<path d="M79.6833 106.156C79.4911 106.182 79.2955 106.149 79.1222 106.062C78.4409 105.755 78.4008 104.901 78.7882 103.98C79.1756 103.058 80.004 102.471 80.5918 102.738C80.7682 102.811 80.9176 102.937 81.0193 103.099L80.6853 103.646C80.6051 103.522 80.4948 103.421 80.3647 103.352C80.004 103.192 79.5764 103.432 79.2692 104.14C78.9619 104.847 79.0554 105.315 79.4429 105.475C79.5829 105.512 79.7303 105.512 79.8704 105.475L79.6833 106.076V106.156Z" fill="#294B96"/>
<path d="M81.7943 105.835C81.4336 106.69 80.8858 106.93 80.4583 106.757C80.0308 106.583 79.9239 105.956 80.2445 105.195C80.5652 104.434 81.0862 104.087 81.5805 104.3C82.0748 104.514 82.1016 105.128 81.7943 105.835ZM80.7522 105.395C80.5785 105.795 80.5518 106.143 80.7522 106.236C80.9526 106.329 81.153 106.076 81.34 105.649C81.5271 105.221 81.5538 104.901 81.34 104.821C81.1263 104.741 80.8992 105.048 80.7522 105.395Z" fill="#294B96"/>
<path d="M82.2351 105.502C82.3554 105.221 82.4623 104.968 82.5424 104.754L82.9165 104.914L82.8096 105.248C82.8812 105.163 82.9767 105.1 83.0838 105.07C83.1908 105.039 83.3047 105.04 83.4108 105.074C83.5026 105.135 83.5727 105.223 83.6111 105.327C83.6495 105.43 83.6542 105.542 83.6246 105.648C83.7161 105.566 83.8198 105.499 83.9318 105.448C83.981 105.421 84.0361 105.407 84.0922 105.407C84.1482 105.407 84.2033 105.421 84.2525 105.448C84.533 105.568 84.5998 105.996 84.2525 106.69L83.6513 108.025L83.2238 107.825L83.7715 106.49C83.9185 106.156 83.9318 105.929 83.7715 105.862C83.6112 105.795 83.5444 105.862 83.4642 106.022C83.4209 106.08 83.385 106.143 83.3574 106.209L82.7829 107.544L82.342 107.357L82.9031 106.022C83.0367 105.729 83.0635 105.502 82.9031 105.435C82.7428 105.368 82.6627 105.435 82.5825 105.595C82.5462 105.65 82.5149 105.708 82.489 105.769L81.9011 107.104L81.4736 106.917L82.155 105.301L82.2351 105.502Z" fill="#294B96"/>
<path d="M84.7201 106.69C84.8537 106.383 84.9606 106.103 85.0407 105.889L85.4282 106.062L85.3079 106.396C85.381 106.301 85.4834 106.233 85.5992 106.201C85.7151 106.17 85.838 106.177 85.9492 106.223C86.2565 106.37 86.35 106.944 86.0294 107.691C85.7087 108.439 85.161 108.799 84.8403 108.666C84.76 108.625 84.6932 108.561 84.6482 108.483C84.6032 108.405 84.5817 108.315 84.5865 108.225L84.0788 109.387L83.6379 109.187L84.7201 106.677V106.69ZM84.9205 107.438C84.9167 107.491 84.9167 107.545 84.9205 107.598C84.9205 107.811 84.9205 108.012 85.0274 108.065C85.1342 108.119 85.4549 107.932 85.6152 107.531C85.7755 107.131 85.8022 106.837 85.6152 106.743C85.4282 106.65 85.3079 106.743 85.1877 106.984V107.117L85.0407 107.438H84.9205Z" fill="#294B96"/>
<path d="M86.6171 109.413V109.16C86.5474 109.226 86.4601 109.272 86.3654 109.291C86.2708 109.31 86.1727 109.301 86.0827 109.267C85.7888 109.133 85.7754 108.706 85.9357 108.332C85.9664 108.208 86.0255 108.092 86.1084 107.994C86.1914 107.897 86.2959 107.819 86.4138 107.769C86.5316 107.718 86.6596 107.696 86.7876 107.703C86.9156 107.711 87.0402 107.748 87.1515 107.811C87.1742 107.776 87.1888 107.737 87.1942 107.696C87.1997 107.654 87.1959 107.612 87.1831 107.573C87.1703 107.533 87.1489 107.497 87.1203 107.466C87.0917 107.436 87.0567 107.413 87.0179 107.397C86.8678 107.337 86.7003 107.337 86.5503 107.397L86.6705 106.89C86.8759 106.806 87.1064 106.806 87.3118 106.89C87.7928 107.104 87.7527 107.638 87.5122 108.225L87.1648 109.053C87.0761 109.239 87.0002 109.431 86.9377 109.627L86.5369 109.453L86.6171 109.413ZM87.0446 108.279C86.8041 108.158 86.5904 108.172 86.4701 108.452C86.3499 108.733 86.4701 108.773 86.4701 108.813C86.4701 108.853 86.724 108.813 86.8175 108.652V108.532L86.9377 108.279H87.0446Z" fill="#294B96"/>
<path d="M88.0333 108.132C88.1536 107.851 88.2605 107.598 88.3406 107.384L88.728 107.558L88.6078 107.891C88.6805 107.807 88.776 107.746 88.8827 107.716C88.9894 107.685 89.1027 107.686 89.209 107.718C89.5029 107.851 89.5831 108.265 89.2892 108.959L88.7013 110.295L88.2471 110.081L88.8082 108.746C88.9418 108.439 88.9685 108.198 88.8082 108.132C88.6479 108.065 88.5544 108.132 88.4609 108.305C88.4241 108.36 88.3928 108.418 88.3673 108.479L87.7929 109.814L87.3386 109.614L88.0333 107.998V108.132Z" fill="#294B96"/>
<path d="M90.3312 108.292L90.0506 109.534C90.0506 109.694 89.9704 109.881 89.9437 110.014L90.1976 109.6L90.8655 108.532L91.3465 108.746L90.3445 110.081C90.0473 110.597 89.6526 111.051 89.1822 111.416C89.1029 111.476 89.0121 111.518 88.9156 111.541C88.819 111.564 88.7188 111.567 88.6211 111.55L88.7948 110.882C88.873 110.907 88.957 110.907 89.0353 110.882C89.1522 110.834 89.2571 110.762 89.3425 110.669L89.4093 110.575C89.4148 110.531 89.4148 110.486 89.4093 110.442L89.7968 108.052L90.2911 108.279L90.3312 108.292Z" fill="#294B96"/>
<path d="M70.2914 87.932L69.5432 87.5848C69.3562 87.5047 69.1825 87.5848 69.0088 87.8786L66.9113 91.1495L66.417 91.9639L66.6575 91.0561L67.606 87.2377C67.6862 86.9307 67.606 86.717 67.4591 86.6369L66.6842 86.2898C66.4838 86.1964 66.2968 86.2898 66.1364 86.6636L63.3442 92.765L64.1458 93.1255L66.6708 87.5848L65.5353 92.2176C65.4551 92.538 65.5353 92.7516 65.6956 92.8317L66.2567 93.0854C66.4304 93.1655 66.6174 93.0854 66.7911 92.7917L69.3295 88.7864L67.0984 94.3938L67.9 94.7543L70.3715 88.5194C70.5051 88.1723 70.4784 87.932 70.2646 87.8385L70.2914 87.932ZM73.1637 89.0801C72.9032 88.9382 72.6061 88.8775 72.3108 88.9061C72.0155 88.9347 71.7355 89.0511 71.5071 89.2404C70.8176 89.9675 70.2895 90.8319 69.9574 91.777C69.5077 92.6764 69.2441 93.6573 69.1825 94.6608C69.2029 94.9562 69.3083 95.2394 69.4861 95.4763C69.6639 95.7132 69.9064 95.8936 70.1845 95.9959C70.4452 96.1426 70.7442 96.2071 71.0422 96.1809C71.3403 96.1547 71.6234 96.039 71.8545 95.849C72.5388 95.1204 73.0623 94.2562 73.3908 93.3124C73.8428 92.413 74.1108 91.4326 74.1791 90.4286C74.1528 90.1331 74.0435 89.851 73.8639 89.6148C73.6843 89.3786 73.4416 89.1979 73.1637 89.0935V89.0801ZM71.5605 94.7142C71.4549 94.8386 71.3102 94.9234 71.15 94.955C70.9899 94.9865 70.8237 94.9628 70.6788 94.8878C70.5272 94.8232 70.4001 94.7121 70.316 94.5704C70.2319 94.4288 70.1952 94.264 70.2112 94.1001C70.315 93.4287 70.5176 92.7763 70.8124 92.1642C71.0527 91.5338 71.3811 90.9404 71.7877 90.4019C71.8933 90.2775 72.038 90.1927 72.1982 90.1611C72.3583 90.1296 72.5245 90.1533 72.6694 90.2283C72.8237 90.2892 72.9534 90.3997 73.038 90.5422C73.1227 90.6848 73.1575 90.8515 73.137 91.016C73.0398 91.6889 72.8369 92.3422 72.5358 92.9519C72.3018 93.5852 71.9729 94.1794 71.5605 94.7142ZM76.3834 95.315C76.3681 95.1777 76.3225 95.0454 76.2499 94.9278C76.3814 94.9414 76.5143 94.9257 76.639 94.8819C76.7638 94.838 76.8772 94.7671 76.9713 94.6742C77.2727 94.3483 77.5086 93.9676 77.666 93.5527C77.946 93.0293 78.0624 92.434 78 91.8438C77.9262 91.6268 77.8035 91.4297 77.6413 91.2676C77.4792 91.1056 77.2819 90.983 77.0648 90.9092C76.5747 90.6705 76.0652 90.474 75.5418 90.3218L72.6828 96.9972L73.4977 97.3577L74.62 94.6875L75.3147 95.0079C75.5284 95.1147 75.5952 95.3551 75.5151 95.7422L74.9539 97.9852L75.8223 98.3724L76.3434 96.076C76.4311 95.8186 76.4585 95.5446 76.4235 95.2749L76.3834 95.315ZM76.3834 93.9799C76.2909 94.029 76.1877 94.0547 76.0829 94.0547C75.978 94.0547 75.8748 94.029 75.7823 93.9799L75.0875 93.6728L75.9159 91.7236L76.6106 92.044C76.8644 92.1508 77.0114 92.2977 77.0381 92.4713C77.053 92.7549 76.9882 93.037 76.851 93.2857C76.7638 93.564 76.6021 93.8133 76.3834 94.0066V93.9799ZM80.9525 98.5726L80.7254 98.9998L80.5384 99.3603C80.6319 99.1067 80.7254 98.8129 80.8189 98.4925L82.048 93.8197C82.0804 93.7017 82.0804 93.5772 82.048 93.4592C82.048 93.3524 82.048 93.2857 81.9011 93.259L81.1796 92.9252C81.006 92.8451 80.8456 92.9252 80.6853 93.2189L78.3073 97.3977L77.853 98.1988C77.9866 97.825 78.0801 97.5313 78.1469 97.3176L79.71 92.3111L78.8684 91.9239L76.8778 98.5993C76.8447 98.7081 76.8447 98.8243 76.8778 98.9331C76.8864 98.9753 76.9057 99.0146 76.9337 99.0473C76.9618 99.08 76.9977 99.105 77.0381 99.12L77.7996 99.4671C77.8382 99.4894 77.882 99.5011 77.9265 99.5011C77.9711 99.5011 78.0148 99.4894 78.0534 99.4671C78.1479 99.4129 78.2263 99.3346 78.2805 99.2402L80.7388 94.8878L81.1262 94.1935C81.0059 94.5273 80.9391 94.781 80.8857 94.9412L79.4429 99.7608C79.3627 100.028 79.4429 100.215 79.5765 100.295L80.3513 100.642C80.3883 100.662 80.4296 100.672 80.4716 100.672C80.5135 100.672 80.5548 100.662 80.5918 100.642C80.6863 100.588 80.7647 100.509 80.8189 100.415L84.2257 94.4205L83.384 94.0333L80.8189 98.6794L80.9525 98.5726ZM85.2277 96.1428C85.2637 96.1203 85.3054 96.1083 85.3479 96.1083C85.3904 96.1083 85.4321 96.1203 85.4681 96.1428L87.098 96.8771L87.579 95.8624C87.0157 95.5264 86.4311 95.2276 85.8289 94.9679C85.7041 94.8989 85.5639 94.8627 85.4214 94.8627C85.2788 94.8627 85.1386 94.8989 85.0139 94.9679C84.7164 95.1765 84.4884 95.4695 84.3593 95.809L82.5958 99.9211C82.4324 100.257 82.3765 100.634 82.4355 101.002C82.4609 101.143 82.5205 101.275 82.6091 101.386C82.6976 101.498 82.8123 101.586 82.9431 101.643C83.5358 101.929 84.1473 102.175 84.7734 102.378L85.1742 101.336L83.5443 100.602C83.5111 100.598 83.4793 100.586 83.4514 100.568C83.4236 100.549 83.4005 100.524 83.384 100.495C83.3851 100.351 83.4218 100.208 83.4909 100.081L84.0787 98.6794L85.7487 99.4271L86.1896 98.3857L84.533 97.6381L85.0005 96.5433C85.0456 96.4094 85.1184 96.2866 85.2143 96.1828L85.2277 96.1428ZM88.9818 101.563L88.581 102.578C88.581 102.418 88.581 102.217 88.6745 101.95C88.768 101.683 88.6745 101.51 88.6745 101.456L89.2356 97.0373C89.2563 96.918 89.2563 96.7961 89.2356 96.6768C89.2244 96.6321 89.2028 96.5908 89.1727 96.556C89.1425 96.5212 89.1046 96.494 89.0619 96.4765L88.5008 96.2229C88.2871 96.1294 88.1 96.2229 87.9664 96.5833L85.2945 102.778L86.0961 103.139L87.9931 98.6928C88.1244 98.4009 88.2404 98.1023 88.3405 97.7983C88.3405 98.0119 88.247 98.3456 88.1802 98.8129L87.6057 103.352C87.6057 103.646 87.6057 103.833 87.7794 103.9L88.3672 104.167C88.5721 104.256 88.7458 104.135 88.8883 103.806L91.5602 97.6113L90.7586 97.2509L88.915 101.563H88.9818ZM93.2035 103.472C93.0699 103.766 92.9363 104.113 92.7893 104.487C92.7893 104.34 92.7893 104.127 92.8829 103.873C92.9764 103.619 92.8829 103.419 92.8829 103.366L93.444 98.9464C93.4641 98.8271 93.4641 98.7053 93.444 98.586C93.4309 98.5438 93.4086 98.505 93.3785 98.4727C93.3484 98.4403 93.3114 98.4152 93.2703 98.3991L92.7092 98.132C92.4954 98.0386 92.3084 98.132 92.1748 98.4925L89.5028 104.687L90.3044 105.048L92.2015 100.602C92.3351 100.311 92.4511 100.012 92.5489 99.7074C92.5489 99.9211 92.4553 100.255 92.3885 100.722L91.8141 105.261C91.8141 105.555 91.8141 105.742 91.9877 105.822L92.5756 106.076C92.7715 106.174 92.9452 106.054 93.0966 105.715L95.7686 99.5205L94.967 99.1601L93.1367 103.472H93.2035ZM98.6276 101.229C98.6944 100.976 98.6276 100.802 98.4806 100.722L97.7592 100.402C97.5989 100.402 97.4519 100.402 97.305 100.629L93.297 106.396L94.1387 106.783L95.2609 105.074L96.7171 105.729L96.2495 107.745L97.0912 108.118L98.5608 101.229H98.6276ZM95.9556 104.06L97.2916 102.044L97.5989 101.577H97.6924L97.5588 102.137L97.011 104.5L95.9556 104.02V104.06Z" fill="#C10E1A"/>
</g>
<path d="M2.71735 181.802C2.71735 181.802 37.6533 174.953 41.354 173.017C45.9817 170.545 49.6009 166.536 51.5877 161.682C53.9924 155.995 84.3059 -3.34796 216.515 2.63323C338.089 11.4315 366.372 107.451 370.153 160.441C371.489 208.13 375.27 207.85 375.27 207.85C377.128 209.235 378.799 210.855 380.24 212.669C381.309 214.512 385.009 220.787 375.029 222.549C365.05 224.311 315.885 224.818 283.034 218.704C283.034 218.704 189.728 200.013 162.381 196.782C135.033 193.551 70.5987 193.751 39.978 194.499C9.35719 195.246 -2.35939 183.337 2.71735 181.802Z" stroke="#4D4D4D" stroke-miterlimit="10"/>
<path d="M186.335 194.645C186.442 192.416 188.58 164.953 189.782 163.418C190.984 161.882 187.457 196.528 187.457 196.528C187.457 196.528 186.255 196.875 186.335 194.645Z" fill="#CCCCCC"/>
<path d="M261.471 205.5C261.685 203.457 264.971 178.331 266.04 177.009C267.109 175.687 262.286 207.316 262.286 207.316C262.286 207.316 261.257 207.542 261.471 205.5Z" fill="#CCCCCC"/>
<path d="M289.366 206.995C289.366 205.406 290.609 185.634 291.624 184.499C292.639 183.364 290.381 208.25 290.381 208.25C290.381 208.25 289.326 208.637 289.366 206.995Z" fill="#CCCCCC"/>
<path d="M314.79 207.195C314.79 205.967 315.191 190.881 315.845 189.999C316.5 189.118 315.498 208.17 315.498 208.17C315.498 208.17 314.803 208.41 314.79 207.195Z" fill="#CCCCCC"/>
<path d="M290.889 213.977C290.889 211.948 292.225 186.755 293.788 185.099C295.351 183.444 292.452 215.419 292.452 215.419C292.452 215.419 290.863 216.06 290.889 213.977Z" stroke="#666666" stroke-width="2" stroke-miterlimit="10"/>
<path d="M315.979 214.204C315.979 214.204 316.353 190.613 317.115 189.398C317.876 188.184 316.807 215.7 316.807 215.7L315.979 214.204Z" stroke="#666666" stroke-width="2" stroke-miterlimit="10"/>
<path d="M189.047 192.99C189.047 192.99 190.664 169.466 191.492 168.278C192.32 167.089 189.795 194.525 189.795 194.525L189.047 192.99Z" stroke="#666666" stroke-width="2" stroke-miterlimit="10"/>
<path d="M141.085 40.2026C145.093 33.2201 165.521 15.5703 212.814 13.8213C271.598 14.3153 309.125 51.4574 312.345 54.5281C315.565 57.5988 316.353 64.568 309.673 62.2316C302.993 59.8952 261.11 26.7182 219.254 26.8517C193.775 27.0508 168.625 32.6288 145.454 43.2199C145.454 43.2199 137.064 47.1851 141.085 40.2026Z" fill="#B3B3B3"/>
<path d="M141.085 65.9696C145.093 60.3222 160.217 46.8378 207.51 45.4226C266.294 45.8231 303.822 75.8493 307.041 78.3325C310.261 80.8158 311.049 86.4498 304.369 84.5674C297.689 82.6849 255.806 55.8363 213.95 55.9564C172.094 56.0766 145.454 68.4529 145.454 68.4529C145.454 68.4529 137.064 71.617 141.085 65.9696Z" fill="#B3B3B3"/>
<path d="M211.946 191.321C215.045 191.321 217.557 188.811 217.557 185.714C217.557 182.617 215.045 180.106 211.946 180.106C208.847 180.106 206.335 182.617 206.335 185.714C206.335 188.811 208.847 191.321 211.946 191.321Z" fill="#2B56A3"/>
<path d="M211.438 180.894C210.845 180.899 210.256 180.989 209.688 181.161C210.921 181.271 212.074 181.819 212.937 182.706C213.8 183.593 214.316 184.759 214.391 185.994C214.339 187.086 213.932 188.131 213.234 188.972C212.535 189.812 211.581 190.403 210.516 190.654C210.821 190.701 211.129 190.728 211.438 190.734C212.142 190.831 212.858 190.776 213.538 190.573C214.219 190.371 214.848 190.025 215.383 189.558C215.919 189.092 216.348 188.517 216.642 187.871C216.936 187.225 217.088 186.524 217.088 185.814C217.088 185.104 216.936 184.403 216.642 183.757C216.348 183.111 215.919 182.536 215.383 182.069C214.848 181.603 214.219 181.257 213.538 181.054C212.858 180.852 212.142 180.797 211.438 180.894Z" fill="#999999"/>
<path d="M207.43 192.242C208.246 192.453 209.087 192.547 209.929 192.523C208.267 191.913 206.881 190.726 206.022 189.18C205.164 187.633 204.891 185.83 205.253 184.098C205.72 182.61 206.66 181.315 207.931 180.409C209.201 179.503 210.733 179.036 212.293 179.078C211.895 178.897 211.484 178.746 211.064 178.624C206.802 177.49 202.527 179.612 201.512 183.377C200.497 187.142 203.155 191.108 207.43 192.242Z" fill="#4D4D4D"/>
<path d="M226.334 195.78C227.149 195.993 227.991 196.083 228.833 196.047C227.174 195.438 225.79 194.253 224.932 192.71C224.073 191.166 223.798 189.365 224.157 187.636C224.627 186.147 225.569 184.851 226.842 183.945C228.115 183.04 229.649 182.573 231.211 182.616C230.808 182.435 230.393 182.283 229.968 182.162C225.706 181.028 221.431 183.15 220.429 186.915C219.427 190.68 222.046 194.645 226.334 195.78Z" fill="#4D4D4D"/>
<path d="M246.214 200.052C247.034 200.263 247.879 200.357 248.725 200.333C247.062 199.725 245.674 198.539 244.816 196.992C243.957 195.445 243.685 193.64 244.049 191.908C244.517 190.42 245.457 189.125 246.728 188.219C247.998 187.313 249.53 186.846 251.09 186.889C250.691 186.714 250.28 186.567 249.861 186.448C245.586 185.3 241.311 187.423 240.309 191.187C239.307 194.952 241.952 198.918 246.214 200.052Z" fill="#4D4D4D"/>
<path d="M236.1 189.946C235.96 191.045 235.497 192.078 234.769 192.914C234.042 193.751 233.083 194.353 232.013 194.645C230.943 194.937 229.811 194.906 228.759 194.555C227.707 194.205 226.783 193.55 226.103 192.675C225.423 191.8 225.017 190.743 224.938 189.638C224.858 188.532 225.108 187.428 225.656 186.465C226.204 185.502 227.026 184.722 228.016 184.225C229.007 183.727 230.124 183.535 231.224 183.671C231.957 183.762 232.665 183.996 233.307 184.361C233.949 184.726 234.513 185.213 234.966 185.796C235.419 186.379 235.753 187.046 235.947 187.758C236.142 188.47 236.194 189.214 236.1 189.946Z" fill="#2B56A3"/>
<path d="M230.623 184.432C230.038 184.345 229.444 184.345 228.859 184.432C230.056 184.697 231.117 185.382 231.852 186.361C232.587 187.341 232.948 188.551 232.867 189.772C232.683 190.849 232.151 191.835 231.352 192.58C230.553 193.325 229.532 193.788 228.445 193.898C228.743 193.985 229.047 194.052 229.354 194.098C230.04 194.284 230.758 194.321 231.46 194.205C232.162 194.09 232.83 193.826 233.421 193.43C234.012 193.035 234.511 192.517 234.884 191.912C235.257 191.308 235.496 190.63 235.585 189.925C235.674 189.22 235.61 188.504 235.399 187.826C235.187 187.147 234.832 186.522 234.358 185.993C233.884 185.463 233.301 185.042 232.65 184.756C231.999 184.471 231.294 184.328 230.583 184.339L230.623 184.432Z" fill="#999999"/>
<path d="M255.953 194.993C255.721 196.074 255.174 197.062 254.381 197.833C253.588 198.605 252.584 199.124 251.496 199.327C250.409 199.53 249.285 199.407 248.267 198.973C247.249 198.54 246.382 197.815 245.775 196.891C245.168 195.966 244.849 194.883 244.856 193.777C244.864 192.671 245.198 191.592 245.817 190.676C246.437 189.76 247.314 189.047 248.337 188.627C249.361 188.207 250.486 188.1 251.571 188.317C252.298 188.467 252.988 188.758 253.603 189.175C254.217 189.591 254.742 190.125 255.149 190.745C255.557 191.366 255.837 192.06 255.975 192.789C256.113 193.518 256.105 194.267 255.953 194.993Z" fill="#2B56A3"/>
<path d="M250.903 189.051C250.322 188.939 249.728 188.912 249.14 188.971C250.328 189.322 251.349 190.088 252.017 191.131C252.684 192.173 252.953 193.421 252.774 194.645C252.51 195.705 251.906 196.648 251.054 197.331C250.202 198.013 249.149 198.397 248.058 198.424C248.344 198.535 248.639 198.624 248.939 198.691C249.61 198.928 250.323 199.018 251.031 198.956C251.739 198.894 252.426 198.681 253.044 198.331C253.663 197.981 254.199 197.503 254.617 196.928C255.035 196.353 255.325 195.695 255.467 194.999C255.608 194.303 255.599 193.585 255.439 192.893C255.28 192.2 254.973 191.55 254.541 190.987C254.108 190.423 253.56 189.958 252.932 189.625C252.305 189.291 251.613 189.095 250.903 189.051Z" fill="#999999"/>
<path d="M378.41 214.471C377.007 211.427 372.398 210.933 372.398 210.933C372.398 210.933 366.827 210.6 367.361 202.082C367.094 95.5151 327.642 66.7974 327.642 66.7974C327.642 66.7974 348.871 153.805 346.787 184.018C346.489 189.014 345.308 193.919 343.3 198.504C341.536 201.174 334.015 209.051 306.975 209.411C274.497 209.852 263.689 209.291 263.582 211.2C263.475 213.11 298.999 218.784 317.689 219.919C336.38 221.053 364.115 221.561 370.26 220.973C376.406 220.386 379.799 217.502 378.41 214.471Z" fill="#CCCCCC"/>
<path d="M11.3612 185.66C10.8802 183.831 32.0422 179.359 25.4291 179.519C23.5854 179.879 8.0613 181.762 6.95244 183.431C5.84357 185.099 7.11275 186.808 13.0445 188.691C18.9763 190.573 11.8421 187.476 11.3612 185.66Z" fill="#F9F9E8"/>
<path d="M66.8447 122.537C66.8447 122.537 58.6551 149.867 54.8208 164.179C50.9865 178.491 126.964 186.234 126.964 186.234C126.964 186.234 173.042 191.802 181.806 195.153C190.57 198.504 187.805 194.806 181.178 192.763C174.552 190.72 66.1232 172.056 62.2756 165.14C58.428 158.224 66.9248 124.58 67.6195 122.844C68.3142 121.109 67.4191 120.601 66.8447 122.537Z" fill="#999999"/>
<path d="M154.792 50.99C157.664 49.365 160.657 47.9635 163.744 46.7978C166.816 45.5829 169.956 44.5415 173.095 43.6203C179.468 41.8116 185.978 40.5257 192.561 39.7753C199.154 39.0166 205.794 38.7444 212.427 38.9609C219.053 39.2023 225.658 39.8667 232.199 40.9501C238.729 42.0715 245.191 43.5512 251.558 45.3826C257.906 47.2302 264.149 49.4185 270.262 51.9379C282.514 56.8799 294.134 63.2621 304.877 70.9496C299.265 67.5152 293.467 64.3952 287.509 61.604C281.586 58.7647 275.565 56.1924 269.447 53.8871C257.22 49.2455 244.571 45.8026 231.678 43.607C218.808 41.3927 205.71 40.8141 192.694 41.8847C186.181 42.4273 179.716 43.4402 173.349 44.9154C166.975 46.3102 160.757 48.3454 154.792 50.99Z" fill="#666666"/>
<path d="M160.938 19.7357C163.836 18.0975 166.855 16.6826 169.969 15.5035C173.082 14.2885 176.248 13.2338 179.455 12.2992C185.895 10.4927 192.472 9.21569 199.12 8.4809C202.434 8.09372 205.8 7.8267 209.127 7.73325C212.454 7.63979 215.807 7.61309 219.16 7.73325C225.881 7.98395 232.576 8.69319 239.2 9.85604C245.786 11.0609 252.282 12.7204 258.639 14.8226C264.948 16.9448 271.115 19.4689 277.102 22.3792C289.174 28.1249 300.41 35.4817 310.501 44.2479C305.216 40.2471 299.678 36.5903 293.922 33.3002C288.212 29.9744 282.33 26.9529 276.3 24.2483C264.291 18.8039 251.662 14.845 238.692 12.4595C225.716 10.1539 212.499 9.51678 199.361 10.5636C192.785 11.0986 186.257 12.1115 179.829 13.5943C173.338 14.9891 167.008 17.047 160.938 19.7357Z" fill="#666666"/>
<path d="M263.662 210.253C263.822 207.97 267.296 179.546 269.326 177.69C271.357 175.834 265.572 211.895 265.572 211.895C265.572 211.895 263.501 212.549 263.662 210.253Z" stroke="#666666" stroke-width="2" stroke-miterlimit="10"/>
</g>
<defs>
<clipPath id="clip0_182_10186">
<rect width="383" height="274" fill="white" transform="translate(0.900391 0.87085)"/>
</clipPath>
</defs>
</svg>
