<svg width="526" height="255" viewBox="0 0 526 255" fill="none" xmlns="http://www.w3.org/2000/svg">
<path d="M285.137 153.995L444.706 153.191L443.901 189.813L284.78 200.799L285.137 153.995Z" fill="white"/>
<path d="M28.1635 224.469L27.5374 227.773L52.3135 228.309V244.208H68.8607V238.313L76.5529 238.134L77.5368 236.348L98.6457 236.169L146.141 247.245H438.982L446.227 246.441L455.529 243.494L498.641 224.379H28.1635V224.469ZM77.4474 233.222L76.4635 231.703H68.7713V229.381L85.5868 233.401L77.4474 233.222Z" fill="#A01A16"/>
<path d="M196.766 139.168V145.867H230.04V135.774L196.766 139.168Z" fill="#004A99"/>
<path d="M29.2368 208.391L26.1063 205.89L38.0918 190.974L41.2224 193.475L41.4013 193.296C41.4013 193.296 40.1491 191.956 41.3118 190.438C42.5641 189.009 43.7268 190.438 43.7268 190.438L29.2368 208.391Z" fill="#4358A3"/>
<path d="M418.052 123.984L410.986 120.768H329.77V123.984H418.052Z" fill="#4358A3"/>
<path d="M508.301 189.902C508.927 189.634 509.375 189.009 509.375 188.294C509.375 187.58 508.927 186.954 508.212 186.776" fill="#302F2F"/>
<path d="M426.549 185.347H429.948H426.728H426.549Z" fill="#FAE800"/>
<path d="M430.127 185.436L426.37 185.347H429.948L430.127 185.436Z" fill="#FAE800"/>
<path d="M429.59 185.525L426.281 185.436H430.127L429.59 185.525ZM426.191 185.525H429.59L426.281 185.436L426.191 185.525Z" fill="#FAE800"/>
<path d="M426.46 190.08H426.102V186.15L426.46 190.08Z" fill="#FAE800"/>
<path d="M168.681 184.185L202.759 182.667H284.511L284.958 200.442H168.323L168.681 184.185Z" fill="#004A99"/>
<path d="M339.251 202.853L390.056 201.335V224.469H339.251V202.853Z" fill="#302F2F"/>
<path d="M443.096 177.933L522.702 176.325V185.793L435.046 189.277L443.096 177.933Z" fill="#004A99"/>
<path d="M28.253 224.111L27.5374 228.577L52.3135 228.22V244.208H68.7713V229.292L68.5924 224.469L28.253 224.111Z" fill="#E20613"/>
<path d="M221.632 247.334V224.469H68.5924L68.7713 229.292L146.051 247.334L221.632 247.334Z" fill="#E20613"/>
<path d="M68.7713 225.808V229.292L146.051 247.245H221.632C221.632 247.334 154.817 249.478 68.7713 225.808Z" fill="#7F1715"/>
<path d="M76.4635 238.134L77.9841 235.991H99.7191C99.7191 235.991 101.955 234.74 99.7191 233.043C94.6207 233.133 77.4474 233.311 77.4474 233.311L76.6424 231.614L68.8607 231.346V238.224H76.4635L76.4635 238.134Z" fill="#E20613"/>
<path d="M265.549 224.469H221.632V247.334H265.549V224.469Z" fill="#E20613"/>
<path d="M308.751 224.469H265.638V247.334H308.751V224.469Z" fill="#E20613"/>
<path d="M343.008 224.469H308.661V247.334H343.008V224.469Z" fill="#E20613"/>
<path d="M498.552 224.469H343.008L343.187 247.334H440.592C440.681 247.334 462.237 244.03 498.552 224.469Z" fill="#E20613"/>
<path d="M28.4318 199.28L338.804 199.816V224.111H28.4318V199.28Z" fill="#302F2F"/>
<path d="M369.126 239.206H454.187L439.608 244.119L353.205 243.94L369.126 239.206Z" fill="white"/>
<path d="M446.227 191.331L522.255 189.634C522.255 189.634 526.011 192.224 521.897 193.564C520.376 193.653 520.376 193.653 520.376 193.653C520.376 193.653 514.473 215.358 509.285 219.199C502.577 222.771 498.641 224.469 498.641 224.469L390.056 224.469V201.335L431.111 200.62L441.755 191.152L446.227 191.331Z" fill="#302F2F"/>
<path d="M339.251 206.247V200.888L35.8557 200.799L29.3263 204.997L339.251 206.247Z" fill="#004A99"/>
<path d="M26.1063 205.89L38.0918 190.884L41.0435 193.207L29.2368 208.391L26.1063 205.89Z" fill="#004A99"/>
<path d="M329.77 120.768V123.984H418.052L410.986 120.768H329.77Z" fill="#004A99"/>
<path d="M307.499 182.667H300.432V199.28H307.499V182.667Z" fill="white"/>
<path d="M326.64 189.098C327.973 189.098 329.055 188.018 329.055 186.686C329.055 185.354 327.973 184.275 326.64 184.275C325.306 184.275 324.225 185.354 324.225 186.686C324.225 188.018 325.306 189.098 326.64 189.098Z" fill="white"/>
<path d="M398.016 188.741C399.35 188.741 400.431 187.661 400.431 186.329C400.431 184.997 399.35 183.917 398.016 183.917C396.683 183.917 395.601 184.997 395.601 186.329C395.601 187.661 396.683 188.741 398.016 188.741Z" fill="white"/>
<path d="M336.031 153.191L335.584 134.345L333.795 123.984H409.197L401.773 142.92L401.952 153.191H336.031Z" fill="white"/>
<path d="M345.423 133.988H338.446C338.089 133.988 337.82 133.72 337.82 133.362V126.396C337.82 126.038 338.089 125.77 338.446 125.77H345.423C345.781 125.77 346.049 126.038 346.049 126.396V133.362C346.049 133.72 345.781 133.988 345.423 133.988Z" fill="white"/>
<path d="M358.75 133.72H349.18C348.822 133.72 348.553 133.452 348.553 133.094V126.485C348.553 126.128 348.822 125.86 349.18 125.86H358.75C359.108 125.86 359.376 126.128 359.376 126.485V133.094C359.376 133.452 359.108 133.72 358.75 133.72Z" fill="white"/>
<path d="M382.185 133.898H372.614C372.256 133.898 371.988 133.63 371.988 133.273V126.663C371.988 126.306 372.256 126.038 372.614 126.038H382.185C382.542 126.038 382.811 126.306 382.811 126.663V133.273C382.721 133.63 382.453 133.898 382.185 133.898Z" fill="white"/>
<path d="M366.353 133.898H363.401C363.222 133.898 363.133 133.809 363.133 133.63V126.217C363.133 126.038 363.222 125.949 363.401 125.949H366.353C366.532 125.949 366.621 126.038 366.621 126.217V133.63C366.621 133.72 366.532 133.898 366.353 133.898Z" fill="white"/>
<path d="M388.804 133.809H385.136C384.957 133.809 384.779 133.63 384.779 133.452V126.306C384.779 126.128 384.957 125.949 385.136 125.949H388.804C388.982 125.949 389.161 126.128 389.161 126.306V133.452C389.161 133.63 388.982 133.809 388.804 133.809Z" fill="white"/>
<path d="M395.154 125.592L399.805 125.502L396.496 133.988H392.113L395.154 125.592Z" fill="white"/>
<path d="M401.326 125.592L405.977 125.502L402.757 133.809H398.374L401.326 125.592Z" fill="white"/>
<path d="M196.766 139.168L230.04 135.774V145.867V181.774L196.766 182.488V145.867V139.168Z" fill="white"/>
<path d="M196.409 153.817H230.04V161.855H196.409" fill="#004A99"/>
<path d="M213.135 171.77C221.582 171.77 228.43 166.891 228.43 160.873C228.43 154.855 221.582 149.976 213.135 149.976C204.687 149.976 197.84 154.855 197.84 160.873C197.84 166.891 204.687 171.77 213.135 171.77Z" fill="white"/>
<path d="M225.567 148.457H200.702V173.288H225.567V148.457Z" fill="black"/>
<path d="M225.567 148.457H200.702V173.288H225.567V148.457Z" fill="black"/>
<path d="M217.696 155.156H215.997V153.638H214.476V152.12H212.687V153.638H211.167V155.156H209.378V155.871C209.378 155.871 210.094 156.05 210.809 156.318C213.492 157.122 213.671 157.122 216.265 156.318L217.696 155.871V155.156ZM212.508 154.978H211.614V154.085H212.508V154.978ZM214.029 153.459H213.135V152.566H214.029V153.459ZM215.55 154.978H214.655V154.085H215.55V154.978Z" fill="#004A99"/>
<path d="M225.567 148.457H200.702V173.288H225.567V148.457Z" fill="black"/>
<path d="M204.727 156.05C204.727 156.05 207.41 156.05 209.557 156.764C211.614 157.479 212.24 157.747 213.492 157.747C215.013 157.747 217.339 156.764 217.875 156.586C218.322 156.496 219.038 156.139 222.258 155.96L221.185 156.854C221.185 156.854 219.127 156.764 216.444 157.925C216.444 157.925 214.745 158.551 213.492 158.551V159.444C213.492 159.444 214.924 159.444 216.086 159.087C217.249 158.729 219.306 157.925 220.111 157.925C220.111 157.925 219.396 158.461 218.591 159.176C217.339 160.248 215.639 161.677 213.582 161.677V160.337C213.582 160.337 212.777 160.337 211.882 160.069C210.809 159.801 208.394 158.819 206.784 158.819L204.727 156.05Z" fill="#004A99"/>
<path d="M225.567 148.457H200.702V173.288H225.567V148.457Z" fill="black"/>
<path d="M205.532 167.751C205.621 167.751 205.711 167.84 205.89 167.84C206.068 167.84 206.069 167.751 206.069 167.661C206.069 167.572 205.979 167.572 205.89 167.483C205.711 167.393 205.532 167.304 205.532 167.125C205.532 166.947 205.711 166.768 205.979 166.768C206.158 166.768 206.247 166.768 206.337 166.857L206.247 167.125C206.158 167.125 206.069 167.036 205.979 167.036C205.89 167.036 205.8 167.125 205.8 167.125C205.8 167.215 205.89 167.215 206.069 167.304C206.337 167.393 206.426 167.483 206.426 167.661C206.426 167.84 206.247 168.019 205.89 168.019C205.711 168.019 205.621 168.019 205.532 167.929V167.751Z" fill="#004A99"/>
<path d="M225.567 148.457H200.702V173.288H225.567V148.457Z" fill="black"/>
<path d="M206.516 166.679H206.784V167.215L206.873 167.125C206.873 167.125 206.963 167.125 207.052 167.125C207.231 167.125 207.41 167.215 207.41 167.572V168.108H207.142V167.572C207.142 167.483 207.142 167.393 206.963 167.393C206.873 167.393 206.874 167.483 206.784 167.483C206.784 167.483 206.784 167.483 206.784 167.572V168.108H206.516V166.679Z" fill="#004A99"/>
<path d="M225.567 148.457H200.702V173.288H225.567V148.457Z" fill="black"/>
<path d="M207.947 166.857C207.947 166.947 207.857 167.036 207.768 167.036C207.678 167.036 207.589 166.947 207.589 166.857C207.589 166.768 207.678 166.679 207.768 166.679C207.857 166.679 207.947 166.768 207.947 166.857ZM207.679 168.019V167.125H207.947V168.019H207.679Z" fill="#004A99"/>
<path d="M225.567 148.457H200.702V173.288H225.567V148.457Z" fill="black"/>
<path d="M208.126 167.393C208.126 167.304 208.126 167.125 208.126 167.036H208.394V167.125C208.484 167.036 208.573 166.947 208.662 166.947C208.841 166.947 209.02 167.125 209.02 167.393C209.02 167.751 208.841 167.929 208.573 167.929C208.484 167.929 208.394 167.84 208.305 167.84V168.286H208.036V167.393H208.126ZM208.484 167.661C208.484 167.84 208.573 167.84 208.662 167.84C208.752 167.84 208.841 167.751 208.841 167.572C208.841 167.393 208.752 167.304 208.662 167.304C208.573 167.304 208.484 167.393 208.484 167.483C208.484 167.483 208.484 167.483 208.484 167.572V167.661Z" fill="#004A99"/>
<path d="M225.567 148.457H200.702V173.288H225.567V148.457Z" fill="black"/>
<path d="M209.288 167.393C209.288 167.304 209.288 167.125 209.288 167.036H209.557V167.125C209.646 167.036 209.736 166.947 209.825 166.947C210.004 166.947 210.183 167.125 210.183 167.393C210.183 167.751 210.004 167.929 209.736 167.929C209.646 167.929 209.557 167.84 209.467 167.84V168.286H209.199V167.393H209.288ZM209.646 167.661C209.646 167.84 209.736 167.84 209.825 167.84C209.915 167.84 210.004 167.751 210.004 167.572C210.004 167.393 209.915 167.304 209.825 167.304C209.736 167.304 209.646 167.393 209.646 167.483C209.646 167.483 209.646 167.483 209.646 167.572V167.661Z" fill="#004A99"/>
<path d="M225.567 148.457H200.702V173.288H225.567V148.457Z" fill="black"/>
<path d="M210.809 166.857C210.809 166.947 210.72 167.036 210.63 167.036C210.541 167.036 210.451 166.947 210.451 166.857C210.451 166.768 210.541 166.679 210.63 166.679C210.72 166.679 210.809 166.768 210.809 166.857ZM210.451 168.019V167.125H210.72V168.019H210.451Z" fill="#004A99"/>
<path d="M225.567 148.457H200.702V173.288H225.567V148.457Z" fill="black"/>
<path d="M210.988 167.393C210.988 167.304 210.988 167.215 210.988 167.125H211.256V167.215C211.256 167.125 211.435 167.036 211.525 167.036C211.704 167.036 211.882 167.125 211.882 167.483V168.019H211.614V167.483C211.614 167.393 211.614 167.304 211.435 167.304C211.346 167.304 211.346 167.393 211.256 167.393V168.019H210.988V167.393Z" fill="#004A99"/>
<path d="M225.567 148.457H200.702V173.288H225.567V148.457Z" fill="black"/>
<path d="M213.045 167.125C213.045 167.215 213.045 167.304 213.045 167.393V167.929C213.045 168.108 213.045 168.286 212.866 168.376C212.777 168.465 212.598 168.465 212.508 168.465C212.419 168.465 212.24 168.465 212.151 168.376L212.24 168.197C212.33 168.197 212.419 168.286 212.508 168.286C212.687 168.286 212.777 168.197 212.777 168.019V167.929C212.687 168.019 212.598 168.019 212.508 168.019C212.24 168.019 212.151 167.84 212.151 167.572C212.151 167.304 212.33 167.036 212.598 167.036C212.687 167.036 212.777 167.125 212.866 167.125V167.036L213.045 167.125ZM212.687 167.483C212.687 167.393 212.598 167.304 212.508 167.304C212.419 167.304 212.33 167.393 212.33 167.572C212.33 167.751 212.419 167.84 212.508 167.84C212.598 167.84 212.598 167.751 212.687 167.751V167.483Z" fill="#004A99"/>
<path d="M225.567 148.457H200.702V173.288H225.567V148.457Z" fill="black"/>
<path d="M214.566 168.019C214.476 168.019 214.387 168.108 214.208 168.108C213.761 168.108 213.492 167.84 213.492 167.483C213.492 167.036 213.85 166.768 214.208 166.768C214.387 166.768 214.476 166.768 214.566 166.857L214.476 167.125C214.387 167.125 214.297 167.036 214.208 167.036C213.94 167.036 213.761 167.215 213.761 167.483C213.761 167.751 213.94 167.929 214.208 167.929C214.297 167.929 214.387 167.929 214.476 167.929L214.566 168.019Z" fill="#004A99"/>
<path d="M225.567 148.457H200.702V173.288H225.567V148.457Z" fill="black"/>
<path d="M215.639 167.572C215.639 167.929 215.371 168.108 215.102 168.108C214.834 168.108 214.655 167.929 214.655 167.661C214.655 167.393 214.834 167.125 215.192 167.125C215.46 167.036 215.639 167.304 215.639 167.572ZM215.013 167.572C215.013 167.751 215.102 167.84 215.192 167.84C215.281 167.84 215.371 167.751 215.371 167.572C215.371 167.393 215.281 167.304 215.192 167.304C215.013 167.304 215.013 167.393 215.013 167.572Z" fill="#004A99"/>
<path d="M225.567 148.457H200.702V173.288H225.567V148.457Z" fill="black"/>
<path d="M215.818 167.393C215.818 167.304 215.818 167.215 215.818 167.125H216.086V167.215C216.086 167.125 216.176 167.036 216.355 167.036C216.444 167.036 216.534 167.125 216.623 167.215C216.623 167.125 216.712 167.125 216.712 167.125C216.802 167.125 216.802 167.036 216.891 167.036C217.07 167.036 217.249 167.125 217.249 167.483V168.019H216.981V167.483C216.981 167.304 216.981 167.304 216.802 167.304C216.712 167.304 216.712 167.393 216.712 167.393V168.019H216.444V167.483C216.444 167.393 216.444 167.304 216.265 167.304C216.176 167.304 216.176 167.393 216.176 167.393V168.019H215.907L215.818 167.393Z" fill="#004A99"/>
<path d="M225.567 148.457H200.702V173.288H225.567V148.457Z" fill="black"/>
<path d="M217.517 167.393C217.517 167.304 217.517 167.125 217.517 167.036H217.786V167.125C217.875 167.036 217.965 166.947 218.143 166.947C218.322 166.947 218.501 167.125 218.501 167.393C218.501 167.751 218.322 167.929 218.054 167.929C217.965 167.929 217.875 167.84 217.786 167.84V168.286H217.517V167.393ZM217.786 167.661C217.786 167.84 217.875 167.84 217.965 167.84C218.054 167.84 218.143 167.751 218.143 167.572C218.143 167.393 218.054 167.304 217.965 167.304C217.875 167.304 217.786 167.393 217.786 167.483C217.786 167.483 217.786 167.483 217.786 167.572V167.661Z" fill="#004A99"/>
<path d="M225.567 148.457H200.702V173.288H225.567V148.457Z" fill="black"/>
<path d="M219.217 167.929C219.127 168.019 219.038 168.019 218.949 168.019C218.77 168.019 218.68 167.84 218.68 167.751C218.68 167.483 218.859 167.393 219.217 167.393C219.217 167.304 219.217 167.304 219.038 167.304C218.949 167.304 218.859 167.304 218.77 167.393L218.68 167.215C218.77 167.215 218.859 167.125 219.038 167.125C219.396 167.125 219.485 167.304 219.485 167.572V167.929C219.485 168.019 219.485 168.108 219.485 168.197H219.217V167.929ZM219.127 167.572C218.949 167.572 218.859 167.572 218.859 167.751C218.859 167.84 218.949 167.84 218.949 167.84C219.038 167.84 219.038 167.751 219.127 167.751C219.127 167.751 219.127 167.751 219.127 167.572Z" fill="#004A99"/>
<path d="M225.567 148.457H200.702V173.288H225.567V148.457Z" fill="black"/>
<path d="M219.664 167.393C219.664 167.304 219.664 167.215 219.664 167.125H219.932V167.215C219.932 167.125 220.022 167.036 220.201 167.036C220.38 167.036 220.559 167.125 220.559 167.483V168.019H220.29V167.483C220.29 167.393 220.29 167.304 220.111 167.304C220.022 167.304 220.022 167.393 219.932 167.393V168.019H219.664V167.393Z" fill="#004A99"/>
<path d="M225.567 148.457H200.702V173.288H225.567V148.457Z" fill="black"/>
<path d="M221.006 167.125L221.185 167.572C221.185 167.661 221.185 167.661 221.274 167.751C221.274 167.661 221.274 167.661 221.274 167.572L221.363 167.125H221.721L221.542 167.751C221.453 168.108 221.274 168.286 221.185 168.376C221.095 168.465 221.006 168.465 220.916 168.465L220.827 168.197C220.827 168.197 220.916 168.197 220.916 168.108C221.006 168.108 221.006 168.019 221.006 168.019C221.006 168.019 221.006 168.019 221.006 167.929L220.648 167.036H221.006V167.125Z" fill="#004A99"/>
<path d="M225.567 148.457H200.702V173.288H225.567V148.457Z" fill="black"/>
<path d="M205.085 163.374H204.548C204.459 163.374 204.369 163.463 204.28 163.553L203.922 164.982C203.922 165.071 203.832 165.16 203.832 165.339C203.743 165.16 203.743 164.982 203.743 164.982L203.385 163.553C203.385 163.463 203.296 163.374 203.206 163.374H202.67C202.491 163.374 202.491 163.463 202.491 163.553L202.401 165.964H202.938L203.027 163.731L203.475 165.428C203.475 165.518 203.564 165.607 203.743 165.607H204.101C204.19 165.607 204.28 165.518 204.369 165.428L204.816 163.731L204.906 165.964H205.442L205.353 163.553C205.353 163.463 205.264 163.374 205.085 163.374ZM206.963 163.285C206.516 163.285 206.247 163.374 206.069 163.553C205.89 163.731 205.8 164.088 205.8 164.624C205.8 165.16 205.89 165.518 206.069 165.696C206.247 165.875 206.516 165.964 206.963 165.964C207.41 165.964 207.678 165.875 207.857 165.696C208.036 165.518 208.126 165.16 208.126 164.624C208.126 164.088 208.036 163.731 207.857 163.553C207.678 163.374 207.41 163.285 206.963 163.285ZM207.41 165.428C207.321 165.518 207.142 165.607 206.963 165.607C206.784 165.607 206.605 165.518 206.516 165.428C206.426 165.339 206.426 165.071 206.426 164.714C206.426 164.356 206.426 164.088 206.516 163.999C206.605 163.91 206.784 163.82 206.963 163.82C207.142 163.82 207.321 163.91 207.41 163.999C207.5 164.088 207.5 164.356 207.5 164.714C207.5 165.071 207.5 165.25 207.41 165.428ZM210.183 164.892C210.094 164.803 210.094 164.803 210.004 164.803C210.183 164.803 210.272 164.714 210.362 164.624C210.451 164.535 210.451 164.356 210.451 164.178C210.451 163.91 210.362 163.642 210.272 163.553C210.094 163.463 209.915 163.374 209.557 163.374C209.11 163.374 208.841 163.374 208.573 163.374V166.053H209.11V164.982H209.557C209.736 164.982 209.825 165.071 209.825 165.16L210.004 165.964H210.541L210.272 165.16C210.362 165.071 210.272 164.982 210.183 164.892ZM209.825 164.446C209.736 164.535 209.646 164.535 209.467 164.535H209.02V163.731H209.467C209.646 163.731 209.736 163.731 209.825 163.82C209.915 163.91 209.915 163.999 209.915 164.088C209.915 164.267 209.915 164.356 209.825 164.446ZM213.492 165.25C213.492 165.25 213.492 165.339 213.492 165.428C213.492 165.518 213.492 165.518 213.492 165.607C213.492 165.518 213.492 165.428 213.403 165.25L213.045 163.463C213.045 163.374 213.045 163.374 212.956 163.374L212.866 163.285H212.419C212.33 163.285 212.24 163.374 212.24 163.463L211.882 165.25C211.882 165.339 211.882 165.428 211.793 165.607C211.793 165.428 211.793 165.339 211.793 165.25L211.435 163.374H210.898L211.346 165.875C211.346 165.964 211.346 165.964 211.435 165.964H212.061C212.151 165.964 212.151 165.964 212.24 165.964L212.33 165.875L212.687 164.088C212.687 163.999 212.687 163.91 212.777 163.82C212.777 163.91 212.777 163.999 212.866 164.088L213.224 165.875C213.224 165.964 213.314 166.053 213.403 166.053H213.94C214.029 166.053 214.029 166.053 214.029 166.053L214.119 165.964L214.566 163.463H214.029L213.492 165.25ZM215.281 163.82H216.444V163.374C216.176 163.374 215.818 163.374 215.281 163.374C215.102 163.374 214.924 163.463 214.834 163.553C214.745 163.642 214.655 163.731 214.655 163.91V165.518C214.655 165.696 214.745 165.786 214.834 165.875C214.924 165.964 215.102 166.053 215.281 166.053C215.818 166.053 216.265 166.053 216.444 166.053V165.607H215.371C215.281 165.607 215.281 165.607 215.281 165.607C215.281 165.607 215.281 165.518 215.281 165.428V164.892H216.355V164.446H215.281V163.999C215.192 163.91 215.192 163.82 215.281 163.82ZM218.591 165.071C218.591 165.16 218.591 165.339 218.591 165.428C218.591 165.339 218.501 165.339 218.501 165.25C218.412 165.16 218.412 165.071 218.412 165.071L217.696 163.553C217.696 163.463 217.607 163.463 217.607 163.463C217.607 163.463 217.517 163.463 217.428 163.463H217.07C216.891 163.463 216.891 163.553 216.891 163.642V166.143H217.428V164.356C217.428 164.178 217.428 164.088 217.428 163.999C217.428 164.088 217.517 164.178 217.607 164.356L218.322 165.964C218.412 166.053 218.412 166.143 218.591 166.143H218.949C219.038 166.143 219.127 166.053 219.127 165.964V163.463H218.591V165.071ZM221.363 165.071C221.363 165.16 221.363 165.339 221.363 165.428C221.363 165.339 221.274 165.339 221.274 165.25C221.185 165.16 221.185 165.071 221.185 165.071L220.469 163.553C220.469 163.463 220.38 163.463 220.38 163.463C220.38 163.463 220.29 163.463 220.201 163.463H219.843C219.664 163.463 219.664 163.553 219.664 163.642V166.143H220.201V164.356C220.201 164.178 220.201 164.088 220.201 163.999C220.201 164.088 220.29 164.178 220.38 164.356L221.095 165.964C221.185 166.053 221.185 166.143 221.363 166.143H221.721C221.811 166.143 221.9 166.053 221.9 165.964V163.463H221.363V165.071ZM223.868 163.463C223.868 163.374 223.778 163.285 223.689 163.285H223.242C223.152 163.285 223.063 163.374 223.063 163.463L222.258 165.964H222.795L222.973 165.25H223.957L224.136 165.964H224.673L223.868 163.463ZM223.063 164.803L223.331 163.91L223.421 163.731H223.51C223.51 163.731 223.51 163.82 223.6 163.91L223.868 164.803H223.063Z" fill="#E20613"/>
<path d="M43.9952 190.08L68.503 189.009V200.442H35.6768L43.9952 190.08Z" fill="#004A99"/>
<path d="M69.1291 188.83L70.5602 188.562V200.442H69.1291V188.83Z" fill="#004A99"/>
<path d="M133.171 185.347V200.442H168.77L168.681 184.007L133.171 185.347Z" fill="#004A99"/>
<path d="M68.0557 188.83L101.597 187.401V200.442H68.0557V188.83Z" fill="#004A99"/>
<path d="M102.492 187.133H103.833V200.441H102.402L102.492 187.133Z" fill="#004A99"/>
<path d="M101.15 187.401L133.976 185.882V200.442H101.15V187.401Z" fill="#004A99"/>
<path d="M135.944 185.614H134.692V200.352H135.944V185.614Z" fill="#004A99"/>
<path d="M136.839 185.525L138.717 185.436V200.352L136.839 200.442V185.525Z" fill="#004A99"/>
<path d="M522.523 186.597L509.553 187.222C509.553 187.222 510.09 188.562 509.553 189.366C509.017 190.17 522.881 189.187 522.881 189.187C522.881 189.187 524.759 187.579 522.523 186.597Z" fill="#004A99"/>
<path d="M428.696 189.455L443.633 177.486L434.957 189.634L428.696 189.455Z" fill="#004A99"/>
<path d="M441.218 191.599L431.111 200.62L340.593 202.317L349.985 191.42L435.404 189.991C435.404 189.991 434.152 192.403 441.218 191.599Z" fill="#004A99"/>
<path d="M435.762 189.634L523.328 186.24L436.209 189.455" fill="#302F2F"/>
<path d="M453.561 189.455C453.561 189.455 453.919 190.527 453.293 190.706C451.951 190.795 436.12 191.152 436.12 191.152C436.12 191.152 435.046 189.991 436.03 190.08C436.925 190.08 453.561 189.455 453.561 189.455Z" fill="#004A99"/>
<path d="M454.277 189.366V190.795C458.123 190.795 474.312 190.259 474.312 190.259C474.312 190.259 475.117 188.919 474.133 188.562C471.361 188.651 454.277 189.366 454.277 189.366Z" fill="#004A99"/>
<path d="M475.028 188.562C475.028 188.562 475.207 189.634 474.939 190.259C478.337 190.259 490.591 189.902 490.591 189.902C490.591 189.902 491.933 188.919 490.591 187.937C489.071 188.026 475.028 188.562 475.028 188.562Z" fill="#004A99"/>
<path d="M491.665 187.937C491.665 187.937 492.112 189.008 491.665 189.812C495.69 189.723 508.212 189.455 508.212 189.455C508.212 189.455 509.822 187.937 508.212 187.133C503.113 187.401 491.665 187.937 491.665 187.937Z" fill="#004A99"/>
<path d="M197.124 139.436L229.682 136.221V145.778H197.124V139.436Z" fill="#004A99"/>
<path d="M518.945 182.756L510.448 183.114C509.553 183.114 508.838 182.488 508.749 181.595V180.881C508.749 179.987 509.375 179.273 510.269 179.183L518.766 178.826C519.661 178.826 520.376 179.451 520.466 180.345V181.059C520.555 181.952 519.84 182.667 518.945 182.756Z" fill="white"/>
<path d="M450.162 184.9L446.942 184.989C446.048 184.989 445.332 184.364 445.243 183.471V182.756C445.243 181.863 445.869 181.148 446.764 181.059L449.984 180.97C450.878 180.97 451.594 181.595 451.683 182.488V183.203C451.772 184.185 451.057 184.9 450.162 184.9Z" fill="white"/>
<path d="M500.251 183.471L497.926 183.56C497.031 183.56 496.316 182.935 496.226 182.042V181.327C496.226 180.434 496.852 179.719 497.747 179.63L500.072 179.541C500.967 179.541 501.682 180.166 501.772 181.059V181.774C501.861 182.667 501.146 183.382 500.251 183.471Z" fill="white"/>
<path d="M0.256836 254.123C3.83461 251.8 33.6196 220.003 168.591 225.63C305.173 231.346 412.954 242.69 525.743 223.486C525.743 223.486 479.5 255.284 364.117 250.997C263.045 247.245 214.655 260.375 117.519 250.282C49.0935 243.136 0.256836 254.123 0.256836 254.123Z" fill="#B8D8EB"/>
<path d="M306.783 166.679L305.173 176.415C305.173 176.593 304.994 176.772 304.905 176.861C304.726 176.95 304.547 177.04 304.368 177.04H302.221C302.042 177.04 301.864 176.95 301.685 176.861C301.506 176.772 301.416 176.593 301.416 176.415L300.254 169.626C300.164 169.18 300.075 168.733 300.075 168.286H299.717C299.717 168.286 299.717 168.465 299.627 168.822C299.627 169.18 299.538 169.448 299.538 169.626L298.465 176.325C298.465 176.504 298.375 176.683 298.196 176.772C298.017 176.861 297.839 176.95 297.66 176.95H295.513C295.334 176.95 295.155 176.861 294.976 176.772C294.797 176.683 294.708 176.504 294.708 176.325L293.098 166.589H295.424L296.407 173.735C296.497 174.182 296.497 174.717 296.586 175.253H296.855C296.855 174.985 296.944 174.45 297.123 173.735L298.196 167.304C298.196 167.125 298.286 166.947 298.465 166.768C298.643 166.679 298.822 166.589 299.001 166.589H300.969C301.148 166.589 301.327 166.679 301.506 166.768C301.685 166.857 301.774 167.036 301.774 167.304L302.847 173.824C302.937 174.539 303.026 175.075 303.026 175.343H303.384C303.384 174.807 303.474 174.271 303.563 173.914L304.547 166.679H306.783Z" fill="#004A99"/>
<path d="M321.362 166.679L319.752 176.415C319.752 176.593 319.574 176.772 319.484 176.861C319.305 176.95 319.126 177.04 318.947 177.04H316.711C316.532 177.04 316.354 176.95 316.175 176.861C315.996 176.772 315.906 176.593 315.906 176.415L314.743 169.626C314.654 169.18 314.565 168.733 314.565 168.286H314.296C314.296 168.286 314.296 168.465 314.207 168.822C314.207 169.18 314.117 169.448 314.117 169.626L313.044 176.325C313.044 176.504 312.955 176.683 312.776 176.772C312.597 176.861 312.418 176.95 312.239 176.95H310.092C309.914 176.95 309.735 176.861 309.556 176.772C309.377 176.683 309.287 176.504 309.287 176.325L307.677 166.589H310.003L310.987 173.735C311.076 174.182 311.076 174.717 311.166 175.253H311.434C311.434 174.985 311.523 174.45 311.702 173.735L312.776 167.304C312.776 167.125 312.865 166.947 313.044 166.768C313.223 166.679 313.402 166.589 313.581 166.589H315.549C315.727 166.589 315.906 166.679 316.085 166.768C316.264 166.857 316.354 167.036 316.354 167.304L317.427 173.824C317.516 174.539 317.606 175.075 317.606 175.343H317.964C317.964 174.807 318.053 174.271 318.142 173.914L319.126 166.679H321.362Z" fill="#004A99"/>
<path d="M335.942 166.679L334.332 176.415C334.332 176.593 334.153 176.772 334.064 176.861C333.885 176.95 333.706 177.04 333.527 177.04H331.38C331.201 177.04 331.022 176.95 330.844 176.861C330.665 176.772 330.575 176.593 330.575 176.415L329.412 169.626C329.323 169.18 329.233 168.733 329.233 168.286H328.965C328.965 168.286 328.965 168.465 328.876 168.822C328.876 169.18 328.786 169.448 328.786 169.626L327.713 176.325C327.713 176.504 327.624 176.683 327.445 176.772C327.266 176.861 327.087 176.95 326.908 176.95H324.761C324.582 176.95 324.404 176.861 324.225 176.772C324.046 176.683 323.956 176.504 323.956 176.325L322.346 166.589H324.672L325.656 173.735C325.745 174.182 325.745 174.717 325.835 175.253H326.103C326.103 174.985 326.192 174.45 326.371 173.735L327.445 167.304C327.445 167.125 327.534 166.947 327.713 166.768C327.892 166.679 328.071 166.589 328.25 166.589H330.217C330.396 166.589 330.575 166.679 330.754 166.768C330.933 166.857 331.022 167.036 331.022 167.304L332.096 173.824C332.185 174.539 332.275 175.075 332.275 175.343H332.632C332.632 174.807 332.722 174.271 332.811 173.914L333.795 166.679H335.942Z" fill="#004A99"/>
<path d="M337.641 174.717H338.267C338.536 174.717 338.715 174.807 338.893 174.896C338.983 174.985 339.072 175.164 339.072 175.521V176.236C339.072 176.504 338.983 176.683 338.893 176.861C338.804 176.95 338.536 177.04 338.267 177.04H337.641C337.373 177.04 337.105 176.95 337.015 176.861C336.926 176.772 336.836 176.504 336.836 176.236V175.521C336.836 175.253 336.926 175.075 337.015 174.896C337.105 174.807 337.284 174.717 337.641 174.717Z" fill="#004A99"/>
<path d="M351.505 166.589H353.741C354.278 166.589 354.546 166.857 354.636 167.483L355.083 176.95H352.936L352.579 168.376H352.31L350.79 174.807C350.7 175.253 350.342 175.521 349.895 175.521H348.375C347.838 175.521 347.57 175.253 347.48 174.807L345.87 168.376H345.602L345.333 176.95H343.187L343.545 167.483C343.545 166.947 343.902 166.589 344.439 166.589H346.675C347.122 166.589 347.48 166.857 347.57 167.304L348.822 172.484C348.911 172.842 349.001 173.288 349.09 173.914H349.269C349.269 173.824 349.359 173.646 349.359 173.288C349.448 172.931 349.448 172.663 349.537 172.484L350.79 167.304C350.7 166.768 351.058 166.589 351.505 166.589Z" fill="#004A99"/>
<path d="M370.02 166.589L368.41 176.325C368.41 176.504 368.231 176.683 368.142 176.772C367.963 176.861 367.784 176.95 367.605 176.95H365.458C365.28 176.95 365.101 176.861 364.922 176.772C364.743 176.683 364.654 176.504 364.654 176.325L363.491 169.537C363.401 169.09 363.312 168.644 363.312 168.197H363.043C363.043 168.197 363.044 168.376 362.954 168.733C362.954 169.09 362.865 169.358 362.865 169.537L361.791 176.236C361.791 176.415 361.702 176.593 361.523 176.682C361.344 176.772 361.165 176.861 360.986 176.861H358.84C358.661 176.861 358.482 176.772 358.303 176.682C358.124 176.593 358.035 176.415 358.035 176.236L356.425 166.5H358.75L359.734 173.646C359.824 174.092 359.823 174.628 359.913 175.164H360.181C360.181 174.896 360.271 174.36 360.45 173.646L361.523 167.215C361.523 167.036 361.612 166.857 361.791 166.679C361.97 166.589 362.149 166.5 362.328 166.5H364.296C364.475 166.5 364.653 166.589 364.832 166.679C365.011 166.768 365.101 166.947 365.101 167.215L366.174 173.735C366.263 174.45 366.353 174.985 366.353 175.253H366.711C366.711 174.717 366.8 174.182 366.89 173.824L367.874 166.589H370.02Z" fill="#004A99"/>
<path d="M375.297 173.02L373.24 172.306C372.435 172.038 371.898 171.681 371.63 171.145C371.272 170.698 371.094 170.073 371.094 169.269C371.094 168.108 371.362 167.393 371.899 166.947C372.435 166.589 373.419 166.411 374.85 166.411C376.192 166.411 377.265 166.589 378.249 166.857L378.07 168.376C377.176 168.376 376.102 168.286 374.85 168.286C374.224 168.286 373.866 168.376 373.687 168.465C373.509 168.554 373.419 168.822 373.419 169.269C373.419 169.626 373.509 169.894 373.687 169.984C373.866 170.162 374.135 170.251 374.582 170.43L376.55 171.145C377.355 171.413 377.891 171.77 378.249 172.306C378.607 172.752 378.786 173.378 378.786 174.182C378.786 175.343 378.517 176.147 377.981 176.504C377.444 176.95 376.46 177.129 374.94 177.129C373.777 177.129 372.614 177.04 371.362 176.772L371.541 175.164C373.687 175.253 374.85 175.253 374.94 175.253C375.566 175.253 375.923 175.164 376.192 175.075C376.371 174.985 376.46 174.717 376.46 174.271C376.46 173.914 376.371 173.646 376.281 173.556C375.923 173.199 375.655 173.11 375.297 173.02Z" fill="#004A99"/>
<path d="M388.356 166.589V176.95H386.12V172.306H382.453V176.95H380.217V166.589H382.453V170.519H386.12V166.589H388.356Z" fill="#004A99"/>
<path d="M392.739 176.861H390.503V166.5H392.739V176.861Z" fill="#004A99"/>
<path d="M394.886 176.861V166.5C395.78 166.411 397.122 166.321 398.821 166.321C400.252 166.321 401.236 166.589 401.773 167.036C402.31 167.483 402.578 168.376 402.578 169.716C402.578 171.055 402.31 171.949 401.862 172.395C401.326 172.842 400.431 173.11 399.179 173.11C398.553 173.11 397.837 173.11 397.211 173.02V176.861H394.886ZM397.122 171.413H398.732C399.358 171.413 399.716 171.323 399.895 171.055C400.074 170.787 400.252 170.43 400.252 169.805C400.252 169.18 400.163 168.733 399.895 168.554C399.626 168.376 399.268 168.197 398.732 168.197H397.122V171.413Z" fill="#004A99"/>
<path d="M403.472 174.628H404.099C404.367 174.628 404.546 174.717 404.725 174.807C404.814 174.896 404.904 175.075 404.904 175.432V176.147C404.904 176.415 404.814 176.593 404.725 176.772C404.635 176.861 404.367 176.95 404.099 176.95H403.472C403.204 176.95 402.936 176.861 402.846 176.772C402.757 176.683 402.667 176.415 402.667 176.147V175.432C402.667 175.164 402.757 174.985 402.846 174.807C403.025 174.717 403.204 174.628 403.472 174.628Z" fill="#004A99"/>
<path d="M413.758 174.985L413.937 176.682C413.043 176.95 411.97 177.129 410.628 177.129C409.018 177.129 407.945 176.772 407.229 175.968C406.603 175.164 406.245 173.824 406.245 171.859C406.245 169.894 406.603 168.554 407.229 167.751C407.855 166.947 409.018 166.589 410.628 166.589C411.791 166.589 412.864 166.679 413.758 166.947L413.58 168.644C412.775 168.554 411.791 168.554 410.628 168.554C409.912 168.554 409.376 168.822 409.107 169.269C408.839 169.716 408.66 170.609 408.66 171.949C408.66 173.288 408.839 174.092 409.107 174.628C409.376 175.075 409.912 175.343 410.628 175.343C412.059 175.075 413.132 175.075 413.758 174.985Z" fill="#004A99"/>
<path d="M415.905 167.483C416.531 166.679 417.694 166.321 419.393 166.321C421.093 166.321 422.166 166.679 422.882 167.483C423.508 168.286 423.866 169.626 423.866 171.681C423.866 173.735 423.508 175.164 422.882 175.879C422.256 176.683 421.093 177.04 419.393 177.04C417.694 177.04 416.621 176.683 415.905 175.879C415.279 175.075 414.921 173.735 414.921 171.681C414.921 169.716 415.279 168.286 415.905 167.483ZM421.004 168.912C420.735 168.465 420.198 168.197 419.393 168.197C418.589 168.197 418.052 168.465 417.784 168.912C417.515 169.358 417.336 170.341 417.336 171.681C417.336 173.02 417.515 174.003 417.784 174.45C418.052 174.896 418.589 175.164 419.393 175.164C420.198 175.164 420.735 174.896 421.004 174.45C421.272 174.003 421.451 173.02 421.451 171.681C421.361 170.341 421.272 169.448 421.004 168.912Z" fill="#004A99"/>
<path d="M433.884 166.589H436.12C436.656 166.589 436.925 166.857 437.014 167.483L437.461 176.95H435.315L434.957 168.376H434.689L433.168 174.807C433.079 175.253 432.721 175.521 432.273 175.521H430.753C430.216 175.521 429.948 175.253 429.858 174.807L428.249 168.376H427.98L427.712 176.95H425.565L425.923 167.483C425.923 166.947 426.281 166.589 426.817 166.589H429.053C429.501 166.589 429.859 166.857 429.948 167.304L431.2 172.484C431.29 172.842 431.379 173.288 431.469 173.914H431.647C431.647 173.824 431.737 173.646 431.737 173.288C431.826 172.931 431.826 172.663 431.916 172.484L433.168 167.304C433.079 166.768 433.347 166.589 433.884 166.589Z" fill="#004A99"/>
<path d="M295.692 23.5886C296.139 27.34 296.586 31.0914 297.123 34.9322C290.057 34.2176 282.096 33.8603 273.51 34.039C255.8 34.3962 243.993 37.7011 243.725 36.8079C243.546 35.8254 257.32 31.538 271.274 28.3225C281.56 25.9109 289.967 24.3924 295.692 23.5886Z" fill="#E30613"/>
<path d="M293.813 11.4411L295.692 23.5886C290.415 24.3031 284.869 25.2856 279.145 26.5361C265.907 29.305 254.1 32.9671 243.725 36.8972C250.88 32.0739 259.198 26.9827 268.858 22.1594C277.803 17.6041 286.211 14.1207 293.813 11.4411Z" fill="#004A9B"/>
<path d="M320.021 13.6741H318.142V11.977H316.443V10.2799H314.565V11.977H312.865V13.6741H310.987V14.3886C310.987 14.3886 311.702 14.5673 312.507 14.8352C315.459 15.7284 315.638 15.7284 318.5 14.8352C318.5 14.8352 320.021 14.2993 320.021 14.3886V13.6741ZM314.386 13.4954H313.402V12.5129H314.386V13.4954ZM316.085 11.7984H315.191V10.9052H316.085V11.7984ZM317.785 13.4954H316.711V12.5129H317.695V13.4954H317.785Z" fill="#004A9B"/>
<path d="M305.978 14.6566C305.978 14.6566 308.84 14.5673 311.166 15.4605C313.491 16.2643 314.117 16.5323 315.459 16.5323C317.069 16.5323 319.574 15.4605 320.2 15.2818C320.647 15.1925 321.452 14.7459 324.94 14.6566L323.777 15.6391C323.777 15.6391 321.631 15.5498 318.679 16.8003C318.679 16.8003 316.89 17.5148 315.459 17.5148V18.408C315.459 18.408 316.98 18.3187 318.232 17.9614C319.484 17.6041 321.72 16.7109 322.615 16.7109C322.615 16.7109 321.899 17.2469 320.915 18.0507C319.574 19.2119 317.695 20.7303 315.549 20.7303V19.2119C315.549 19.2119 314.654 19.2119 313.67 18.9439C312.597 18.676 309.914 17.6041 308.214 17.6041L305.978 14.6566Z" fill="#004A9B"/>
<path d="M306.783 27.2507C306.872 27.34 306.962 27.34 307.141 27.34C307.23 27.34 307.409 27.2507 307.409 27.2507C307.409 27.1613 307.32 27.1614 307.141 27.072C306.872 26.9827 306.783 26.8934 306.783 26.6254C306.783 26.3575 306.962 26.1788 307.32 26.1788C307.499 26.1788 307.588 26.2682 307.677 26.2682L307.588 26.5361C307.499 26.5361 307.499 26.4468 307.32 26.4468C307.23 26.4468 307.141 26.5361 307.141 26.5361C307.141 26.6254 307.23 26.6254 307.409 26.7148C307.677 26.8041 307.767 26.9827 307.767 27.1614C307.767 27.4293 307.588 27.6079 307.23 27.6079C307.051 27.6079 306.962 27.5186 306.872 27.5186L306.783 27.2507Z" fill="#004A9B"/>
<path d="M307.946 26.0895H308.214V26.6254C308.303 26.5361 308.304 26.5361 308.304 26.5361C308.393 26.5361 308.393 26.4468 308.482 26.4468C308.661 26.4468 308.84 26.5361 308.84 26.8934V27.5186H308.661V26.9827C308.661 26.8934 308.572 26.7148 308.482 26.7148C308.393 26.7148 308.393 26.8041 308.304 26.8041V27.5186H308.035L307.946 26.0895Z" fill="#004A9B"/>
<path d="M309.466 26.2682C309.466 26.3575 309.377 26.4468 309.287 26.4468C309.198 26.4468 309.109 26.3575 309.109 26.2682C309.109 26.1788 309.198 26.0895 309.287 26.0895C309.377 26.0895 309.466 26.1788 309.466 26.2682ZM309.198 27.6079V26.6254H309.466V27.6079H309.198Z" fill="#004A9B"/>
<path d="M309.735 26.8934C309.735 26.8041 309.735 26.6254 309.735 26.6254H310.003V26.7148C310.092 26.6254 310.182 26.5361 310.271 26.5361C310.54 26.5361 310.719 26.7148 310.719 27.072C310.719 27.4293 310.45 27.6079 310.271 27.6079C310.182 27.6079 310.003 27.5186 310.003 27.5186V28.0545H309.735V26.8934ZM310.092 27.1614C310.092 27.2507 310.182 27.34 310.271 27.34C310.361 27.34 310.54 27.2507 310.54 27.072C310.54 26.8934 310.45 26.8041 310.361 26.8041C310.271 26.8041 310.182 26.8934 310.182 26.9827L310.092 27.1614Z" fill="#004A9B"/>
<path d="M310.987 26.8934C310.987 26.8041 310.987 26.6254 310.987 26.6254H311.255V26.7148C311.345 26.6254 311.434 26.5361 311.524 26.5361C311.792 26.5361 311.971 26.7148 311.971 27.072C311.971 27.4293 311.702 27.6079 311.524 27.6079C311.434 27.6079 311.255 27.5186 311.255 27.5186V28.0545H310.987V26.8934ZM311.255 27.1614C311.255 27.2507 311.345 27.34 311.434 27.34C311.523 27.34 311.702 27.2507 311.702 27.072C311.702 26.8934 311.613 26.8041 311.524 26.8041C311.434 26.8041 311.345 26.8934 311.345 26.9827L311.255 27.1614Z" fill="#004A9B"/>
<path d="M312.507 26.2682C312.507 26.3575 312.418 26.4468 312.329 26.4468C312.239 26.4468 312.15 26.3575 312.15 26.2682C312.15 26.1788 312.239 26.0895 312.329 26.0895C312.507 26.0895 312.507 26.1788 312.507 26.2682ZM312.239 27.6079V26.6254H312.507V27.6079H312.239Z" fill="#004A9B"/>
<path d="M312.776 26.8041C312.776 26.7148 312.776 26.5361 312.776 26.5361H313.044V26.6254C313.133 26.5361 313.134 26.4468 313.312 26.4468C313.491 26.4468 313.67 26.5361 313.67 26.8934V27.5186H313.402V26.9827C313.402 26.8934 313.312 26.7148 313.223 26.7148C313.134 26.7148 313.133 26.8041 313.044 26.8041V27.4293H312.776V26.8041Z" fill="#004A9B"/>
<path d="M314.922 26.5361C314.922 26.6254 314.922 26.6254 314.922 26.8041V27.34C314.922 27.5186 314.833 27.6973 314.833 27.7866C314.743 27.8759 314.565 27.8759 314.386 27.8759C314.296 27.8759 314.117 27.8759 314.028 27.7866L314.117 27.5186C314.207 27.6079 314.296 27.6079 314.386 27.6079C314.475 27.6079 314.654 27.5186 314.654 27.34V27.2507C314.565 27.34 314.475 27.34 314.386 27.34C314.117 27.34 313.939 27.1613 313.939 26.8041C313.939 26.5361 314.117 26.2682 314.386 26.2682C314.475 26.2682 314.654 26.3575 314.654 26.3575V26.2682L314.922 26.5361ZM314.654 26.9827C314.654 26.8934 314.565 26.8041 314.475 26.8041C314.386 26.8041 314.296 26.8934 314.296 27.072C314.296 27.1614 314.386 27.34 314.475 27.34C314.565 27.34 314.565 27.2507 314.654 27.2507V26.9827Z" fill="#004A9B"/>
<path d="M316.711 27.5186C316.622 27.5186 316.532 27.6079 316.354 27.6079C315.817 27.6079 315.638 27.34 315.638 26.8934C315.638 26.3575 315.906 26.1788 316.354 26.1788C316.532 26.1788 316.622 26.2682 316.711 26.2682L316.622 26.5361C316.532 26.5361 316.532 26.4468 316.354 26.4468C316.085 26.4468 315.906 26.5361 315.906 26.8934C315.906 27.1613 316.085 27.34 316.354 27.34C316.443 27.34 316.532 27.34 316.622 27.2507L316.711 27.5186Z" fill="#004A9B"/>
<path d="M317.785 27.072C317.785 27.4293 317.516 27.6079 317.248 27.6079C316.98 27.6079 316.711 27.4293 316.711 27.072C316.711 26.8041 316.98 26.5361 317.248 26.5361C317.606 26.5361 317.785 26.7148 317.785 27.072ZM317.159 27.072C317.159 27.2507 317.248 27.34 317.337 27.34C317.427 27.34 317.516 27.2507 317.516 27.072C317.516 26.9827 317.427 26.8041 317.337 26.8041C317.159 26.8041 317.159 26.8934 317.159 27.072Z" fill="#004A9B"/>
<path d="M318.053 26.8041C318.053 26.7148 318.053 26.5361 318.053 26.5361H318.321V26.6254C318.411 26.5361 318.411 26.4468 318.59 26.4468C318.679 26.4468 318.858 26.5361 318.858 26.6254C318.947 26.5361 318.947 26.5361 318.947 26.5361C319.037 26.4468 319.037 26.4468 319.126 26.4468C319.305 26.4468 319.484 26.5361 319.484 26.8934V27.5186H319.216V26.9827C319.216 26.8934 319.126 26.7148 319.126 26.7148L319.037 26.8041V27.5186H318.768V26.9827C318.768 26.8934 318.679 26.8041 318.679 26.8041C318.59 26.8041 318.59 26.8934 318.59 26.8934V27.6079H318.321L318.053 26.8041Z" fill="#004A9B"/>
<path d="M319.752 26.8934C319.752 26.8041 319.752 26.6254 319.752 26.6254H320.021V26.7148C320.11 26.6254 320.2 26.5361 320.289 26.5361C320.557 26.5361 320.736 26.7148 320.736 27.072C320.736 27.4293 320.468 27.6079 320.289 27.6079C320.2 27.6079 320.11 27.5186 320.021 27.5186V28.0545H319.752V26.8934ZM320.11 27.1614C320.11 27.2507 320.2 27.34 320.289 27.34C320.379 27.34 320.468 27.2507 320.468 27.072C320.468 26.8934 320.379 26.8041 320.289 26.8041C320.2 26.8041 320.11 26.8934 320.11 26.9827V27.1614Z" fill="#004A9B"/>
<path d="M321.631 27.6079C321.541 27.6079 321.452 27.6079 321.362 27.6079C321.184 27.6079 321.094 27.5186 321.094 27.34C321.094 27.072 321.362 26.9827 321.72 26.9827C321.72 26.8934 321.72 26.8934 321.541 26.8934C321.452 26.8934 321.362 26.9827 321.273 26.9827L321.184 26.8041C321.273 26.7148 321.362 26.7148 321.541 26.7148C321.81 26.7148 321.988 26.8934 321.988 27.1614V27.5186C321.988 27.6079 321.988 27.6973 321.988 27.7866L321.631 27.6079ZM321.631 27.072C321.452 27.072 321.362 27.1613 321.362 27.2507C321.362 27.34 321.452 27.34 321.452 27.34C321.452 27.34 321.541 27.2507 321.631 27.2507V27.072Z" fill="#004A9B"/>
<path d="M322.167 26.8041C322.167 26.7148 322.167 26.5361 322.167 26.5361H322.436V26.6254C322.525 26.5361 322.525 26.4468 322.704 26.4468C322.883 26.4468 323.062 26.5361 323.062 26.8934V27.5186H322.793V26.9827C322.793 26.8934 322.704 26.7148 322.615 26.7148C322.525 26.7148 322.525 26.8041 322.436 26.8041V27.4293H322.078L322.167 26.8041Z" fill="#004A9B"/>
<path d="M323.599 26.5361L323.688 27.072C323.688 27.1614 323.777 27.1613 323.777 27.2507C323.777 27.1613 323.867 27.1614 323.867 27.072L323.956 26.5361H324.225L323.956 27.2507C323.867 27.6973 323.688 27.7866 323.599 27.9652C323.509 28.0545 323.33 28.0545 323.33 28.0545L323.241 27.7866C323.33 27.7866 323.33 27.7866 323.33 27.6973C323.42 27.6973 323.42 27.6079 323.42 27.6079V27.5186C323.42 27.5186 323.42 27.5186 323.42 27.4293L323.062 26.5361H323.599Z" fill="#004A9B"/>
<path d="M306.425 22.5167H305.888C305.799 22.5167 305.71 22.606 305.62 22.6954L305.173 24.2138C305.173 24.3031 305.084 24.4818 305.084 24.5711C304.994 24.3031 304.994 24.2138 304.994 24.2138L304.547 22.6954C304.547 22.606 304.457 22.5167 304.279 22.5167H303.742C303.652 22.5167 303.474 22.606 303.474 22.7847L303.384 25.4643H303.921L304.01 23.0526L304.547 24.9284C304.636 25.0177 304.636 25.107 304.815 25.107H305.173C305.262 25.107 305.352 25.0177 305.441 24.9284L305.978 23.0526H306.067L306.157 25.4643H306.693L306.604 22.7847C306.604 22.606 306.604 22.5167 306.425 22.5167ZM308.482 22.4274C308.035 22.4274 307.767 22.5167 307.588 22.6954C307.409 22.874 307.32 23.3206 307.32 23.8565C307.32 24.3924 307.409 24.7497 307.588 25.0177C307.767 25.2856 308.125 25.2856 308.482 25.2856C308.93 25.2856 309.198 25.1963 309.377 25.0177C309.556 24.839 309.645 24.3924 309.645 23.8565C309.645 23.3206 309.556 22.9633 309.377 22.6954C309.198 22.606 308.84 22.4274 308.482 22.4274ZM308.93 24.7497C308.84 24.839 308.661 24.9284 308.393 24.9284C308.125 24.9284 308.035 24.839 307.856 24.7497C307.767 24.6604 307.767 24.3031 307.767 23.9458C307.767 23.5886 307.856 23.2313 307.856 23.142C307.946 23.0526 308.125 22.9633 308.393 22.9633C308.661 22.9633 308.751 23.0526 308.93 23.142C309.019 23.2313 309.019 23.5886 309.019 23.9458C309.019 24.3031 309.019 24.5711 308.93 24.7497ZM311.881 24.2138C311.792 24.1245 311.792 24.1245 311.702 24.1245C311.881 24.0352 311.971 24.0352 312.06 23.9458C312.15 23.8565 312.15 23.6779 312.15 23.4099C312.15 23.142 312.06 22.874 311.881 22.6954C311.702 22.606 311.434 22.5167 311.076 22.5167C310.629 22.5167 310.271 22.5167 310.003 22.606V25.4643H310.54V24.3924H311.076C311.255 24.3924 311.345 24.4818 311.345 24.6604L311.613 25.5536H312.239L311.971 24.6604C312.06 24.3031 312.06 24.2138 311.881 24.2138ZM311.613 23.6779C311.523 23.7672 311.434 23.7672 311.255 23.7672H310.719V22.9633H311.255C311.434 22.9633 311.523 22.9633 311.613 23.0526C311.702 23.142 311.702 23.2313 311.702 23.3206C311.702 23.4992 311.702 23.5886 311.613 23.6779ZM315.459 24.5711C315.459 24.6604 315.459 24.6604 315.459 24.7497C315.459 24.839 315.459 24.839 315.459 24.9284H315.37C315.37 24.839 315.37 24.6604 315.28 24.5711L314.922 22.6954C314.922 22.606 314.833 22.606 314.833 22.606C314.743 22.5167 314.743 22.5167 314.743 22.5167H314.207C314.117 22.5167 314.028 22.606 313.939 22.6954L313.581 24.5711C313.581 24.6604 313.491 24.7497 313.491 24.9284H313.402C313.402 24.839 313.402 24.6604 313.312 24.5711L312.955 22.5167H312.329L312.865 25.2856C312.865 25.375 312.955 25.375 312.955 25.375C313.044 25.375 313.044 25.4643 313.044 25.4643H313.581C313.67 25.4643 313.67 25.4643 313.67 25.375C313.76 25.375 313.76 25.2856 313.76 25.2856L314.117 23.3206C314.117 23.2313 314.117 23.142 314.207 23.0526H314.296C314.296 23.142 314.386 23.3206 314.386 23.3206L314.743 25.2856C314.743 25.375 314.833 25.4643 315.012 25.4643H315.549C315.638 25.4643 315.638 25.4643 315.638 25.375C315.727 25.375 315.727 25.2856 315.727 25.2856L316.264 22.5167H315.638L315.459 24.5711ZM317.337 22.9633L317.427 22.874H318.59V22.4274C318.321 22.4274 317.874 22.3381 317.248 22.3381C317.069 22.3381 316.89 22.4274 316.711 22.4274C316.622 22.5167 316.532 22.6954 316.532 22.874V24.6604C316.532 24.839 316.622 24.9284 316.711 25.107C316.801 25.1963 316.98 25.1963 317.248 25.1963C317.874 25.1963 318.232 25.1963 318.59 25.107V24.6604H317.427C317.337 24.6604 317.337 24.6604 317.337 24.5711C317.337 24.5711 317.248 24.4818 317.248 24.3924V23.7672H318.411V23.5886H317.248L317.337 22.9633C317.337 23.142 317.337 23.0526 317.337 22.9633ZM321.005 24.3924C321.005 24.4818 321.005 24.6604 321.005 24.839C321.005 24.7497 320.915 24.7497 320.915 24.5711C320.826 24.4818 320.826 24.3924 320.826 24.3924L320.021 22.6954C320.021 22.606 319.931 22.606 319.931 22.606C319.842 22.606 319.842 22.5167 319.842 22.5167H319.395C319.305 22.5167 319.126 22.606 319.126 22.6954V25.375H319.663V23.4992C319.663 23.4099 319.663 23.2313 319.663 23.142C319.663 23.2313 319.752 23.3206 319.842 23.4992L320.647 25.1963C320.736 25.2856 320.736 25.375 320.915 25.375H321.362C321.452 25.375 321.631 25.2856 321.631 25.1963V22.5167H321.094L321.005 24.3924ZM324.046 24.3924C324.046 24.4818 324.046 24.6604 324.046 24.839C324.046 24.7497 323.956 24.7497 323.956 24.5711C323.867 24.4818 323.867 24.3924 323.867 24.3924L322.972 22.6954C322.972 22.606 322.883 22.606 322.883 22.606C322.794 22.606 322.793 22.5167 322.793 22.5167H322.346C322.257 22.5167 322.078 22.606 322.078 22.6954V25.375H322.615V23.4992C322.615 23.4099 322.615 23.2313 322.615 23.142C322.615 23.2313 322.704 23.3206 322.793 23.4992L323.599 25.1963C323.688 25.2856 323.688 25.375 323.867 25.375H324.314C324.404 25.375 324.582 25.2856 324.582 25.1963V22.5167H324.046V24.3924ZM326.64 22.606C326.64 22.5167 326.55 22.5167 326.461 22.5167H325.924C325.835 22.5167 325.745 22.606 325.745 22.606L324.851 25.375H325.477L325.745 24.5711H326.819L327.087 25.375H327.713L326.64 22.606ZM325.835 24.1245L326.103 23.2313L326.192 22.9633H326.282C326.282 22.9633 326.282 23.0526 326.371 23.2313L326.64 24.1245H325.835Z" fill="#E30613"/>
</svg>
