<svg width="545" height="284" viewBox="0 0 545 284" fill="none" xmlns="http://www.w3.org/2000/svg">
<g opacity="0.8">
<path d="M509.091 167.074L509.345 167.201H508.964L497.161 187.622V188.637L500.461 188.383L469.619 193.33L414.027 200.686L22.4723 200.433L13.5877 212.102L10.5416 216.161H428.496L458.703 212.229H459.084L459.719 212.102L460.734 211.975L462.003 211.848L463.399 211.595L466.446 211.087L469.746 210.58L471.269 210.326L472.665 210.199L473.934 210.073L474.949 209.946L475.584 209.819H475.965L507.441 205.506L510.741 203.477L531.81 206.521L528.891 207.282V226.181H537.141V187.495L537.268 187.622V167.201H509.091V167.074ZM47.8567 216.288H33.3876V214.766C33.3876 214.385 33.6414 214.131 34.0222 214.131H47.0951C47.4759 214.131 47.7297 214.385 47.7297 214.766V216.288H47.8567ZM507.315 204.999L510.107 203.477L510.614 203.604L507.315 204.999Z" fill="#004A9B"/>
<path d="M175.033 182.802L175.413 183.817L175.667 184.578H175.794V200.56H188.74V183.817L189.121 182.802H175.033Z" fill="#1C1A18"/>
<path d="M289.897 165.045L281.139 175.446V178.743L281.52 178.236L283.932 175.446L292.562 165.045V161.747L289.897 165.045Z" fill="#101820"/>
<path d="M278.855 179.251H280.124V176.714L278.855 178.236V179.251Z" fill="#101820"/>
<path d="M484.595 206.648H511.63L480.915 207.155L420.627 216.161H415.296V216.288H10.5416L9.14544 220.854V225.547L11.3031 227.069L13.7146 228.718H525.591L526.987 227.069L529.018 224.025V206.648H534.095V199.925L484.595 206.648Z" fill="#1C1A18"/>
<path d="M530.795 200.433L498.811 204.999L418.596 216.288L419.231 220.854L451.215 216.288L531.43 204.999L530.795 200.433Z" fill="#322E2C"/>
<path d="M509.345 153.883H506.299L509.345 154.137V153.883Z" fill="#322E2C"/>
<path d="M505.03 154.137H509.345L506.299 153.883L505.03 154.137Z" fill="#1C1A18"/>
<path d="M504.776 154.517H509.345L505.03 154.137L504.776 154.517Z" fill="#1C1A18"/>
<path d="M509.345 154.517L509.345 154.137H505.03L509.345 154.517Z" fill="#1C1A18"/>
<path d="M504.522 154.771H505.411L504.776 154.517L504.522 154.771Z" fill="#1C1A18"/>
<path d="M505.411 154.771L506.299 154.517L504.776 154.517L505.411 154.771Z" fill="#1C1A18"/>
<path d="M504.268 155.024H505.157L504.522 154.771L504.268 155.024Z" fill="#1C1A18"/>
<path d="M505.157 155.024L505.411 154.771H504.522L505.157 155.024Z" fill="#1C1A18"/>
<path d="M504.015 155.405H504.776L504.268 155.024L504.015 155.405Z" fill="#1C1A18"/>
<path d="M504.776 155.405L505.157 155.024H504.268L504.776 155.405Z" fill="#1C1A18"/>
<path d="M492.591 175.192H493.353L504.015 155.405L492.591 175.192Z" fill="#1C1A18"/>
<path d="M493.353 175.192L504.776 155.405H504.015L493.353 175.192Z" fill="#1C1A18"/>
<path d="M493.226 175.192H493.353H492.591H493.226Z" fill="#1C1A18"/>
<path d="M492.972 175.699L493.226 175.192H492.591L492.972 175.699Z" fill="#1C1A18"/>
<path d="M492.465 175.699H492.972L492.591 175.192L492.465 175.699Z" fill="#1C1A18"/>
<path d="M492.338 176.08H492.972L492.465 175.699L492.338 176.08Z" fill="#1C1A18"/>
<path d="M492.972 176.08L492.972 175.699H492.465L492.972 176.08Z" fill="#1C1A18"/>
<path d="M492.338 189.651L492.972 189.525H492.338V189.651Z" fill="#1C1A18"/>
<path d="M492.338 189.525H492.972L492.338 176.08V189.525Z" fill="#1C1A18"/>
<path d="M492.972 189.525V176.08H492.338L492.972 189.525Z" fill="#1C1A18"/>
<path d="M510.107 164.157H536.253L510.107 163.776V164.157Z" fill="#1C1A18"/>
<path d="M536.253 164.157V163.776H510.107L536.253 164.157Z" fill="#1C1A18"/>
<path d="M510.107 159.464H536.253L510.107 159.083V159.464Z" fill="#1C1A18"/>
<path d="M536.253 159.464V159.083H510.107L536.253 159.464Z" fill="#1C1A18"/>
<path d="M509.345 166.948H510.107L509.345 153.249V166.948Z" fill="#1C1A18"/>
<path d="M520.895 166.947H521.022L520.895 154.517V166.947Z" fill="#1C1A18"/>
<path d="M521.022 166.947V154.517H520.895L521.022 166.947Z" fill="#1C1A18"/>
<path d="M509.345 153.249L510.107 166.948V153.249H509.345Z" fill="#1C1A18"/>
<path d="M509.345 154.517L509.345 154.137H505.03L509.345 154.517Z" fill="#1C1A18"/>
<path d="M510.107 153.883V154.517H536.253L510.107 153.883Z" fill="#1C1A18"/>
<path d="M536.253 154.517V153.883H510.107L536.253 154.517Z" fill="#1C1A18"/>
<path d="M494.622 186.988H497.034L506.045 167.201L494.622 186.988Z" fill="#1C1A18"/>
<path d="M497.034 186.988L508.457 167.201H506.045L497.034 186.988Z" fill="#1C1A18"/>
<path d="M494.622 187.495H496.78L494.622 186.988V187.495Z" fill="#1C1A18"/>
<path d="M496.78 187.495L497.034 186.988H494.622L496.78 187.495Z" fill="#1C1A18"/>
<path d="M494.622 189.271L496.78 189.017H494.622V189.271Z" fill="#1C1A18"/>
<path d="M494.622 189.017H496.78L494.622 187.495V189.017Z" fill="#1C1A18"/>
<path d="M496.78 189.017V187.495H494.622L496.78 189.017Z" fill="#1C1A18"/>
<path d="M174.017 154.39H174.271H173.763H174.017Z" fill="#F6B800"/>
<path d="M205.113 165.933V165.298L204.986 165.172L204.605 164.791L204.352 164.664L204.225 164.537L204.098 164.664L203.59 164.791L202.321 164.664L200.671 164.791L199.529 165.933L198.64 167.074H205.621L205.113 165.933Z" fill="#F6B800"/>
<path d="M174.271 181.153H190.263L174.271 180.773V181.153Z" fill="#F6B800"/>
<path d="M190.263 181.153V180.773H174.271L190.263 181.153Z" fill="#F6B800"/>
<path d="M174.398 182.168H190.263L174.398 181.153V182.168Z" fill="#F6B800"/>
<path d="M190.263 182.168L190.263 181.153H174.398L190.263 182.168Z" fill="#F6B800"/>
<path d="M192.04 181.153L206.382 186.227L206.002 181.153H192.04Z" fill="#F6B800"/>
<path d="M204.732 186.607L206.382 187.876V186.607H204.732Z" fill="#F6B800"/>
<path d="M204.098 186.227L204.732 186.607H206.382L204.098 186.227Z" fill="#F6B800"/>
<path d="M206.382 186.607V186.227L204.098 186.227L206.382 186.607Z" fill="#F6B800"/>
<path d="M203.844 186.607L204.098 186.227L198.894 186.227L203.844 186.607Z" fill="#F6B800"/>
<path d="M201.179 187.876H202.828L199.529 186.607L201.179 187.876Z" fill="#F6B800"/>
<path d="M206.002 179.631L205.875 179.251V178.997L205.113 178.49L205.367 178.109L205.748 177.729L205.875 177.348V176.968L206.002 176.333V175.699L205.875 175.065L205.494 174.431L204.225 173.036L203.971 172.782L204.352 171.387L205.875 168.85V168.089V167.455L205.621 167.074H198.64L197.498 165.933L193.309 161.24L188.613 156.166L187.725 155.151L185.186 155.024L174.271 154.39H173.763L172.621 155.024V155.151L172.494 156.166L173.256 161.24L173.89 165.933L174.144 167.074V167.455L174.271 168.089L174.398 168.85L174.652 171.387L174.779 172.782L174.906 173.036L175.033 174.431L175.286 175.699V176.333L175.413 176.968V177.348L175.54 177.729V178.49L175.667 178.997L175.794 179.631L176.048 180.519L189.629 180.773L189.629 179.251L190.009 179.631L192.04 181.153H206.002L206.002 179.631Z" fill="#F6B800"/>
<path d="M192.04 181.153L198.894 186.227L199.529 186.607L201.179 187.876L202.194 188.637L202.828 187.876L203.844 186.607L204.098 186.227L206.382 186.227L192.04 181.153Z" fill="#F6B800"/>
<path d="M194.832 167.582H245.347L195.086 167.455L194.832 167.582Z" fill="#1C1A18"/>
<path d="M245.347 167.582L245.347 167.455H195.086L245.347 167.582Z" fill="#1C1A18"/>
<path d="M194.832 167.835H245.347L194.832 167.582V167.835Z" fill="#1C1A18"/>
<path d="M245.347 167.835V167.582H194.832L245.347 167.835Z" fill="#1C1A18"/>
<path d="M194.832 168.089H245.347L194.832 167.835V168.089Z" fill="#1C1A18"/>
<path d="M245.347 168.089V167.835H194.832L245.347 168.089Z" fill="#1C1A18"/>
<path d="M195.086 168.089L245.347 168.089H194.832L195.086 168.089Z" fill="#1C1A18"/>
<path d="M194.959 172.909H245.347L194.959 172.782V172.909Z" fill="#1C1A18"/>
<path d="M245.347 172.909L245.347 172.782H194.959L245.347 172.909Z" fill="#1C1A18"/>
<path d="M194.959 173.036H245.347L194.959 172.909V173.036Z" fill="#1C1A18"/>
<path d="M245.347 173.036V172.909H194.959L245.347 173.036Z" fill="#1C1A18"/>
<path d="M195.086 173.036H245.347H194.959H195.086Z" fill="#1C1A18"/>
<path d="M194.832 168.089L195.086 168.089L194.832 167.962V168.089Z" fill="#1C1A18"/>
<path d="M194.706 168.216H195.467L194.832 168.089L194.706 168.216Z" fill="#1C1A18"/>
<path d="M194.832 168.089L195.467 168.216L195.34 168.089L194.832 168.089Z" fill="#1C1A18"/>
<path d="M195.467 180.646V168.216H194.706L195.467 180.646Z" fill="#1C1A18"/>
<path d="M194.706 180.646H195.467L194.706 168.216V180.646Z" fill="#1C1A18"/>
<path d="M195.467 181.534V181.28H194.959L195.467 181.534Z" fill="#1C1A18"/>
<path d="M194.959 181.28H195.467L194.706 180.646L194.959 181.28Z" fill="#1C1A18"/>
<path d="M195.467 181.28L195.467 180.646H194.706L195.467 181.28Z" fill="#1C1A18"/>
<path d="M245.094 181.026V180.392H195.467L245.094 181.026Z" fill="#1C1A18"/>
<path d="M195.467 181.026H245.094L195.467 180.392V181.026Z" fill="#1C1A18"/>
<path d="M194.959 177.475H245.347L195.213 177.348L194.959 177.475Z" fill="#1C1A18"/>
<path d="M245.347 177.475L245.347 177.348H195.213L245.347 177.475Z" fill="#1C1A18"/>
<path d="M194.959 177.602H245.347L194.959 177.475V177.602Z" fill="#1C1A18"/>
<path d="M245.347 177.602V177.475H194.959L245.347 177.602Z" fill="#1C1A18"/>
<path d="M194.959 177.729H245.347L194.959 177.602V177.729Z" fill="#1C1A18"/>
<path d="M245.347 177.729V177.602H194.959L245.347 177.729Z" fill="#1C1A18"/>
<path d="M195.086 177.729H245.347H194.959H195.086Z" fill="#1C1A18"/>
<path d="M269.209 138.282H271.62L269.209 138.155V138.282Z" fill="#959CA2"/>
<path d="M269.209 138.155L271.62 138.282L271.493 138.155H269.209Z" fill="#959CA2"/>
<path d="M271.874 138.282H272.001H271.747H271.874Z" fill="#959CA2"/>
<path d="M271.62 138.282L272.128 138.282H271.747L271.62 138.282Z" fill="#959CA2"/>
<path d="M269.209 138.409H272.509L269.209 138.282V138.409Z" fill="#959CA2"/>
<path d="M269.209 138.282L272.509 138.409L272.255 138.282L269.209 138.282Z" fill="#959CA2"/>
<path d="M269.209 138.662H272.889L269.209 138.409V138.662Z" fill="#959CA2"/>
<path d="M269.209 138.409L272.889 138.662L272.509 138.409H269.209Z" fill="#959CA2"/>
<path d="M268.193 141.58H278.22L269.209 138.662L268.193 141.58Z" fill="#959CA2"/>
<path d="M269.209 138.662L278.22 141.58L272.889 138.662H269.209Z" fill="#959CA2"/>
<path d="M268.193 141.706H268.32H278.22L268.193 141.58V141.706Z" fill="#959CA2"/>
<path d="M268.193 141.58L278.22 141.706V141.58H268.193Z" fill="#959CA2"/>
<path d="M268.32 141.833H270.859H278.601L268.32 141.706V141.833Z" fill="#959CA2"/>
<path d="M268.32 141.706L278.601 141.833L278.22 141.706H268.32Z" fill="#959CA2"/>
<path d="M284.059 149.317H292.055L270.859 141.833L284.059 149.317Z" fill="#959CA2"/>
<path d="M270.859 141.833L292.055 149.317L278.601 141.833H270.859Z" fill="#959CA2"/>
<path d="M284.82 149.951H293.07L284.059 149.317L284.82 149.951Z" fill="#959CA2"/>
<path d="M284.059 149.317L293.07 149.951L292.055 149.317H284.059Z" fill="#959CA2"/>
<path d="M291.801 153.756H300.178L284.82 149.951L291.801 153.756Z" fill="#959CA2"/>
<path d="M284.82 149.951L300.178 153.756L293.07 149.951H284.82Z" fill="#959CA2"/>
<path d="M305.382 156.039H307.412L305.508 155.912L305.382 156.039Z" fill="#959CA2"/>
<path d="M305.508 155.912L307.412 156.039L307.412 155.912H305.508Z" fill="#959CA2"/>
<path d="M305.382 156.42H307.412L305.382 156.039V156.42Z" fill="#959CA2"/>
<path d="M307.412 156.42V156.039H305.382L307.412 156.42Z" fill="#959CA2"/>
<path d="M293.07 156.42H305.001L291.801 153.756L293.07 156.42Z" fill="#959CA2"/>
<path d="M291.801 153.756L305.001 156.42L300.305 153.756L291.801 153.756Z" fill="#959CA2"/>
<path d="M293.07 156.547H308.301L293.07 156.42L293.07 156.547Z" fill="#959CA2"/>
<path d="M308.301 156.547V156.42H293.07L308.301 156.547Z" fill="#959CA2"/>
<path d="M308.681 156.547H293.07H308.174H308.681Z" fill="#959CA2"/>
<path d="M293.197 156.673H309.316L293.07 156.547L293.197 156.673Z" fill="#959CA2"/>
<path d="M309.316 156.673V156.547H293.07L309.316 156.673Z" fill="#959CA2"/>
<path d="M293.705 157.688H310.458L293.197 156.673L293.705 157.688Z" fill="#959CA2"/>
<path d="M293.197 156.673L310.458 157.688L309.316 156.673H293.197Z" fill="#959CA2"/>
<path d="M294.339 158.956H310.712L293.705 157.688L294.339 158.956Z" fill="#959CA2"/>
<path d="M293.705 157.688L310.712 158.956L310.458 157.688H293.705Z" fill="#959CA2"/>
<path d="M294.847 160.225H310.458L294.339 158.956L294.847 160.225Z" fill="#959CA2"/>
<path d="M310.458 160.225L310.712 158.956H294.339L310.458 160.225Z" fill="#959CA2"/>
<path d="M295.228 160.986H309.951L294.847 160.225L295.228 160.986Z" fill="#959CA2"/>
<path d="M309.951 160.986L310.458 160.225H294.847L309.951 160.986Z" fill="#959CA2"/>
<path d="M295.482 161.366H309.316L295.228 160.986L295.482 161.366Z" fill="#959CA2"/>
<path d="M309.316 161.366L309.951 160.986H295.228L309.316 161.366Z" fill="#959CA2"/>
<path d="M308.555 161.366H308.681L295.482 161.366L308.555 161.366Z" fill="#959CA2"/>
<path d="M308.301 161.366L295.482 161.366L308.428 161.366H308.301Z" fill="#959CA2"/>
<path d="M295.609 161.62H308.301L295.482 161.366L295.609 161.62Z" fill="#959CA2"/>
<path d="M308.301 161.62V161.366L295.482 161.366L308.301 161.62Z" fill="#959CA2"/>
<path d="M295.609 161.62L308.555 161.874L308.301 161.62H295.609Z" fill="#959CA2"/>
<path d="M295.735 161.874H308.555L295.609 161.62L295.735 161.874Z" fill="#959CA2"/>
<path d="M296.116 162.635H308.935L295.735 161.874L296.116 162.635Z" fill="#959CA2"/>
<path d="M295.735 161.874L308.935 162.635L308.555 161.874H295.735Z" fill="#959CA2"/>
<path d="M296.37 163.142H309.189L296.116 162.635L296.37 163.142Z" fill="#959CA2"/>
<path d="M296.116 162.635L309.189 163.142L308.935 162.635H296.116Z" fill="#959CA2"/>
<path d="M296.624 163.65H309.189L296.37 163.142L296.624 163.65Z" fill="#959CA2"/>
<path d="M309.189 163.65V163.142H296.37L309.189 163.65Z" fill="#959CA2"/>
<path d="M296.878 164.157H308.935L296.624 163.65L296.878 164.157Z" fill="#959CA2"/>
<path d="M308.935 164.157L309.189 163.65H296.624L308.935 164.157Z" fill="#959CA2"/>
<path d="M297.005 164.411H308.935L296.878 164.157L297.005 164.411Z" fill="#959CA2"/>
<path d="M308.935 164.411L308.935 164.157H296.878L308.935 164.411Z" fill="#959CA2"/>
<path d="M297.385 165.172H308.301L297.005 164.411L297.385 165.172Z" fill="#959CA2"/>
<path d="M308.301 165.172L308.935 164.411H297.005L308.301 165.172Z" fill="#959CA2"/>
<path d="M297.512 165.425H308.174L297.385 165.172L297.512 165.425Z" fill="#959CA2"/>
<path d="M308.174 165.425V165.172H297.385L308.174 165.425Z" fill="#959CA2"/>
<path d="M298.274 166.947H308.174L297.512 165.425L298.274 166.947Z" fill="#959CA2"/>
<path d="M308.174 166.947L308.174 165.425H297.512L308.174 166.947Z" fill="#959CA2"/>
<path d="M298.274 167.328H308.174L298.274 166.947L298.274 167.328Z" fill="#959CA2"/>
<path d="M308.174 167.328L308.174 166.947H298.274L308.174 167.328Z" fill="#959CA2"/>
<path d="M298.274 167.455H308.301L298.274 167.328V167.455Z" fill="#959CA2"/>
<path d="M298.274 167.328L308.301 167.455L308.174 167.328H298.274Z" fill="#959CA2"/>
<path d="M305.635 167.835H307.666L305.635 167.455V167.835Z" fill="#959CA2"/>
<path d="M307.666 167.835V167.455H305.635L307.666 167.835Z" fill="#959CA2"/>
<path d="M298.274 167.835H304.493L298.274 167.455V167.835Z" fill="#959CA2"/>
<path d="M304.493 167.835V167.455L298.274 167.455L304.493 167.835Z" fill="#959CA2"/>
<path d="M305.635 167.962H307.666L305.635 167.835V167.962Z" fill="#959CA2"/>
<path d="M307.666 167.962V167.835H305.635L307.666 167.962Z" fill="#959CA2"/>
<path d="M298.274 167.962H304.493L298.274 167.835V167.962Z" fill="#959CA2"/>
<path d="M304.493 167.962V167.835H298.274L304.493 167.962Z" fill="#959CA2"/>
<path d="M304.366 167.962L304.493 167.962H298.274L304.366 167.962Z" fill="#959CA2"/>
<path d="M298.274 168.089H303.478L298.274 167.962V168.089Z" fill="#959CA2"/>
<path d="M303.478 168.089V167.962L298.274 167.962L303.478 168.089Z" fill="#959CA2"/>
<path d="M297.512 168.469H303.478L297.512 168.089V168.469Z" fill="#959CA2"/>
<path d="M303.478 168.469L303.478 168.089L297.512 168.089L303.478 168.469Z" fill="#959CA2"/>
<path d="M297.512 168.723H305.762L297.512 168.469V168.723Z" fill="#959CA2"/>
<path d="M305.762 168.723V168.469L297.512 168.469L305.762 168.723Z" fill="#959CA2"/>
<path d="M297.766 168.85H305.762L297.766 168.723V168.85Z" fill="#959CA2"/>
<path d="M305.762 168.85L305.762 168.723H297.766L305.762 168.85Z" fill="#959CA2"/>
<path d="M298.02 171.64H305.762L298.02 168.85V171.64Z" fill="#959CA2"/>
<path d="M305.762 171.64L305.762 168.85L298.02 168.85L305.762 171.64Z" fill="#959CA2"/>
<path d="M298.02 171.767H302.843L298.02 171.64V171.767Z" fill="#959CA2"/>
<path d="M302.843 171.767L302.97 171.64H298.02L302.843 171.767Z" fill="#959CA2"/>
<path d="M298.02 177.729H302.843L298.02 171.767V177.729Z" fill="#959CA2"/>
<path d="M302.843 177.729V171.767H298.02L302.843 177.729Z" fill="#959CA2"/>
<path d="M302.716 178.109H303.224H302.843H302.716Z" fill="#959CA2"/>
<path d="M302.589 178.109V177.729H298.274L302.589 178.109Z" fill="#959CA2"/>
<path d="M298.274 178.109H302.589L298.274 177.729V178.109Z" fill="#959CA2"/>
<path d="M302.716 178.236H303.224L302.716 178.109V178.236Z" fill="#959CA2"/>
<path d="M303.224 178.236L303.224 178.109H302.716L303.224 178.236Z" fill="#959CA2"/>
<path d="M297.766 178.236H298.147L297.766 178.109V178.236Z" fill="#959CA2"/>
<path d="M298.147 178.236V178.109H297.766L298.147 178.236Z" fill="#959CA2"/>
<path d="M298.147 178.236H302.716L298.274 178.109L298.147 178.236Z" fill="#959CA2"/>
<path d="M298.274 178.109L302.716 178.236L302.589 178.109H298.274Z" fill="#959CA2"/>
<path d="M297.512 178.236L303.478 178.363L303.351 178.236H297.512Z" fill="#959CA2"/>
<path d="M297.512 178.363H303.478L297.512 178.236V178.363Z" fill="#959CA2"/>
<path d="M297.512 179.124H303.478L297.512 178.363L297.512 179.124Z" fill="#959CA2"/>
<path d="M303.478 179.124L303.478 178.363H297.512L303.478 179.124Z" fill="#959CA2"/>
<path d="M297.512 180.392H303.478L297.893 179.124L297.512 180.392Z" fill="#959CA2"/>
<path d="M297.893 179.124L303.478 180.392L303.097 179.124H297.893Z" fill="#959CA2"/>
<path d="M297.512 180.773H303.478L297.512 180.392V180.773Z" fill="#959CA2"/>
<path d="M303.478 180.773V180.392H297.512L303.478 180.773Z" fill="#959CA2"/>
<path d="M304.62 136.252H305.508L305.001 135.745L304.62 136.252Z" fill="#1C1A18"/>
<path d="M305.255 140.692H305.762V140.311L305.255 140.692Z" fill="#1C1A18"/>
<path d="M293.705 150.205L293.959 149.951H293.07L293.705 150.205Z" fill="#1C1A18"/>
<path d="M293.959 149.951L304.62 136.252L293.07 149.951H293.959Z" fill="#1C1A18"/>
<path d="M293.959 149.951L305.508 136.252H304.62L293.959 149.951Z" fill="#1C1A18"/>
<path d="M296.497 151.726L296.624 151.6H296.116L296.497 151.726Z" fill="#1C1A18"/>
<path d="M296.624 151.6L305.255 140.692L296.116 151.6H296.624Z" fill="#1C1A18"/>
<path d="M296.624 151.6L305.762 140.692H305.255L296.624 151.6Z" fill="#1C1A18"/>
<path d="M290.151 153.376H291.039L290.405 152.995L290.151 153.376Z" fill="#1C1A18"/>
<path d="M292.435 156.039H292.816L292.689 155.659L292.435 156.039Z" fill="#1C1A18"/>
<path d="M281.266 165.045L281.647 164.537H280.886L281.266 165.045Z" fill="#1C1A18"/>
<path d="M281.647 164.537L290.151 153.376L280.886 164.537H281.647Z" fill="#1C1A18"/>
<path d="M281.647 164.537L291.039 153.376H290.151L281.647 164.537Z" fill="#1C1A18"/>
<path d="M282.155 168.723L292.435 156.039L281.774 168.723H282.155Z" fill="#1C1A18"/>
<path d="M281.774 169.357L282.155 168.723H281.774V169.357Z" fill="#1C1A18"/>
<path d="M282.155 168.723L292.816 156.039H292.435L282.155 168.723Z" fill="#1C1A18"/>
<path d="M299.67 142.975H299.924L299.797 142.848L299.67 142.975Z" fill="#1C1A18"/>
<path d="M304.747 147.287H305.001L299.67 142.975L304.747 147.287Z" fill="#1C1A18"/>
<path d="M304.874 147.414L305.001 147.287H304.747L304.874 147.414Z" fill="#1C1A18"/>
<path d="M299.67 142.975L305.001 147.287L299.924 142.975H299.67Z" fill="#1C1A18"/>
<path d="M283.932 162.001H284.185L284.059 161.874L283.932 162.001Z" fill="#1C1A18"/>
<path d="M288.882 166.186L289.009 166.059H288.755L288.882 166.186Z" fill="#1C1A18"/>
<path d="M288.755 166.059H289.009L283.932 162.001L288.755 166.059Z" fill="#1C1A18"/>
<path d="M283.932 162.001L289.009 166.059L284.185 162.001H283.932Z" fill="#1C1A18"/>
<path d="M312.997 141.58H313.758L313.378 141.453L312.997 141.58Z" fill="#1C1A18"/>
<path d="M312.87 141.833H313.885L312.997 141.58L312.87 141.833Z" fill="#1C1A18"/>
<path d="M312.997 141.58L313.885 141.833L313.758 141.58H312.997Z" fill="#1C1A18"/>
<path d="M312.87 179.504H313.885L312.87 141.833V179.504Z" fill="#1C1A18"/>
<path d="M313.885 179.504V141.833H312.87L313.885 179.504Z" fill="#1C1A18"/>
<path d="M312.235 133.842V133.335L311.093 133.842H312.235Z" fill="#1C1A18"/>
<path d="M311.093 133.969H312.235L311.093 133.842V133.969Z" fill="#1C1A18"/>
<path d="M312.235 133.969V133.842H311.093L312.235 133.969Z" fill="#1C1A18"/>
<path d="M310.966 134.223H311.601L311.093 133.969L310.966 134.223Z" fill="#1C1A18"/>
<path d="M311.601 134.223L312.235 133.969H311.093L311.601 134.223Z" fill="#1C1A18"/>
<path d="M310.585 134.984H311.22L310.966 134.223L310.585 134.984Z" fill="#1C1A18"/>
<path d="M311.22 134.984L311.601 134.223H310.966L311.22 134.984Z" fill="#1C1A18"/>
<path d="M310.585 148.048H311.22L310.585 134.984V148.048Z" fill="#1C1A18"/>
<path d="M311.22 148.048V134.984H310.585L311.22 148.048Z" fill="#1C1A18"/>
<path d="M310.966 148.809H311.601L310.585 148.048L310.966 148.809Z" fill="#1C1A18"/>
<path d="M310.585 148.048L311.601 148.809L311.22 148.048H310.585Z" fill="#1C1A18"/>
<path d="M311.093 149.063H312.235L310.966 148.809L311.093 149.063Z" fill="#1C1A18"/>
<path d="M310.966 148.809L312.235 149.063L311.601 148.809H310.966Z" fill="#1C1A18"/>
<path d="M311.093 149.063L313.251 149.317L313.124 149.063H311.093Z" fill="#1C1A18"/>
<path d="M311.093 149.317H313.251L311.093 149.063V149.317Z" fill="#1C1A18"/>
<path d="M312.235 149.697H313.251L311.093 149.317L312.235 149.697Z" fill="#1C1A18"/>
<path d="M313.251 149.824V149.697H312.235L313.251 149.824Z" fill="#1C1A18"/>
<path d="M313.251 149.697V149.317H311.093L313.251 149.697Z" fill="#1C1A18"/>
<path d="M361.735 138.662H362.496L361.735 132.828V138.662Z" fill="#1C1A18"/>
<path d="M362.496 138.662V132.828H361.735L362.496 138.662Z" fill="#1C1A18"/>
<path d="M355.896 138.662V132.828H355.135L355.896 138.662Z" fill="#1C1A18"/>
<path d="M355.135 138.662H355.896L355.135 132.828V138.662Z" fill="#1C1A18"/>
<path d="M355.516 146.526V138.662H355.135L355.516 146.526Z" fill="#1C1A18"/>
<path d="M355.135 146.526H355.516L355.135 138.662V146.526Z" fill="#1C1A18"/>
<path d="M309.697 133.969H355.135L309.697 133.335V133.969Z" fill="#1C1A18"/>
<path d="M355.135 133.969V133.335H309.697L355.135 133.969Z" fill="#1C1A18"/>
<path d="M309.697 139.043H355.135L309.697 138.662V139.043Z" fill="#1C1A18"/>
<path d="M355.135 139.043V138.662H309.697L355.135 139.043Z" fill="#1C1A18"/>
<path d="M317.566 146.526V132.828H316.931L317.566 146.526Z" fill="#1C1A18"/>
<path d="M316.931 146.526H317.566L316.931 132.828V146.526Z" fill="#1C1A18"/>
<path d="M324.293 146.526V133.969H324.039L324.293 146.526Z" fill="#1C1A18"/>
<path d="M324.039 146.526H324.293L324.039 133.969V146.526Z" fill="#1C1A18"/>
<path d="M308.935 146.526H309.697L308.935 132.828V146.526Z" fill="#1C1A18"/>
<path d="M309.697 146.526V132.828H308.935L309.697 146.526Z" fill="#1C1A18"/>
<path d="M309.697 143.609H355.135L309.697 143.228V143.609Z" fill="#1C1A18"/>
<path d="M355.135 143.609V143.228H309.697L355.135 143.609Z" fill="#1C1A18"/>
<path d="M157.263 185.339L162.087 185.466H157.01L157.263 185.339ZM161.452 185.339H157.263L162.087 185.466L161.452 185.339Z" fill="#1C1A18"/>
<path d="M157.01 185.339L162.848 185.593H156.883L157.01 185.339ZM162.213 185.339H157.01L162.848 185.593L162.213 185.339Z" fill="#1C1A18"/>
<path d="M156.883 185.593L163.483 185.846H156.756L156.883 185.593ZM162.975 185.593L156.883 185.593L163.483 185.846L162.975 185.593Z" fill="#1C1A18"/>
<path d="M163.483 185.846H156.756L163.61 185.973L163.483 185.846Z" fill="#1C1A18"/>
<path d="M156.756 185.973L163.99 186.227H156.756V185.973ZM163.737 185.973H156.883L164.117 186.227L163.737 185.973Z" fill="#1C1A18"/>
<path d="M156.756 186.227L164.244 186.481H156.756V186.227ZM163.99 186.227H156.756L164.244 186.481L163.99 186.227Z" fill="#1C1A18"/>
<path d="M156.756 186.481L164.625 186.861H156.883L156.756 186.481ZM164.371 186.48H156.883L164.752 186.861L164.371 186.48Z" fill="#1C1A18"/>
<path d="M156.883 186.861L164.879 187.115H157.01L156.883 186.861ZM164.625 186.861H156.883L164.879 187.115L164.625 186.861Z" fill="#1C1A18"/>
<path d="M157.01 187.115H164.879L157.263 187.115L157.01 187.115Z" fill="#1C1A18"/>
<path d="M161.833 187.115L165.006 187.242H162.213L161.833 187.115Z" fill="#1C1A18"/>
<path d="M162.213 187.242L165.26 187.495H162.594L162.213 187.242ZM165.133 187.242H162.34L165.386 187.495L165.133 187.242Z" fill="#1C1A18"/>
<path d="M162.594 187.495L165.513 187.749H162.975L162.594 187.495ZM165.26 187.495H162.594L165.513 187.749L165.26 187.495Z" fill="#1C1A18"/>
<path d="M162.975 187.749L167.036 189.144H164.498L162.975 187.749ZM165.513 187.749H162.975L167.036 189.144L165.513 187.749Z" fill="#1C1A18"/>
<path d="M158.913 187.115L160.69 189.144H158.913V187.115ZM160.817 187.115H159.04L160.817 189.144V187.115Z" fill="#1C1A18"/>
<path d="M43.5413 189.144H167.925H43.0336H43.5413Z" fill="#1C1A18"/>
<path d="M42.6529 189.271L168.179 189.398H42.0182L42.6529 189.271ZM168.179 189.271H42.7798L168.306 189.398L168.179 189.271Z" fill="#1C1A18"/>
<path d="M42.1451 189.398L168.433 189.651H41.0028L42.1451 189.398ZM168.306 189.398L42.1451 189.398L168.433 189.651L168.306 189.398Z" fill="#1C1A18"/>
<path d="M41.0029 189.778L168.433 190.159H39.7337L41.0029 189.778ZM168.433 189.778H41.0029L168.433 190.159V189.778Z" fill="#1C1A18"/>
<path d="M39.7337 190.032L168.433 190.412H38.4645L39.7337 190.032ZM168.433 190.032H39.7337L168.433 190.412V190.032Z" fill="#1C1A18"/>
<path d="M38.4645 190.412L168.306 190.793H37.3221L38.4645 190.412ZM168.433 190.412H38.4645L168.306 190.793L168.433 190.412Z" fill="#1C1A18"/>
<path d="M37.3221 190.793L168.052 191.047H36.5606L37.3221 190.793ZM168.306 190.793H37.3221L168.052 191.047L168.306 190.793Z" fill="#1C1A18"/>
<path d="M36.5606 190.92H167.925H36.3067H36.5606ZM168.052 190.92H36.5606H167.925H168.052Z" fill="#1C1A18"/>
<path d="M36.3068 191.047H43.1606H36.0529H36.3068ZM43.5413 191.047H36.3068H43.1606H43.5413Z" fill="#1C1A18"/>
<path d="M36.0529 191.047L36.8144 192.696H29.7068L36.0529 191.047ZM43.1606 191.047H36.0529L36.8144 192.696L43.1606 191.047Z" fill="#1C1A18"/>
<path d="M29.8337 192.696L36.0529 192.949H29.1991L29.8337 192.696ZM36.9414 192.696H29.8337L36.0529 192.949L36.9414 192.696Z" fill="#1C1A18"/>
<path d="M29.0722 192.949L34.7837 193.203H28.3107L29.0722 192.949ZM35.926 192.949H29.0722L34.7837 193.203L35.926 192.949Z" fill="#1C1A18"/>
<path d="M28.3107 193.33L33.2606 193.71H27.6761L28.3107 193.33ZM34.7837 193.33H28.3107L33.2606 193.71L34.7837 193.33Z" fill="#1C1A18"/>
<path d="M27.803 193.71L32.4991 193.964H27.5491L27.803 193.71ZM33.3875 193.71H27.803L32.4991 193.964L33.3875 193.71Z" fill="#1C1A18"/>
<path d="M27.5491 193.964L31.6107 194.218H27.4222L27.5491 193.964ZM32.4991 193.964H27.5491L31.6107 194.218L32.4991 193.964Z" fill="#1C1A18"/>
<path d="M27.2953 194.091L30.2145 194.471H26.9145L27.2953 194.091ZM31.4837 194.091H27.2953L30.2145 194.471L31.4837 194.091Z" fill="#1C1A18"/>
<path d="M27.0414 194.471L29.7068 194.725H26.9145L27.0414 194.471ZM30.2145 194.471H26.9145L29.5799 194.725L30.2145 194.471Z" fill="#1C1A18"/>
<path d="M26.9145 194.725L29.3261 194.979H26.7876L26.9145 194.725ZM29.7068 194.725H26.9145L29.3261 194.979L29.7068 194.725Z" fill="#1C1A18"/>
<path d="M26.6606 194.852L28.8183 195.106H26.5337L26.6606 194.852ZM29.326 194.852H26.7875L28.9452 195.106L29.326 194.852Z" fill="#1C1A18"/>
<path d="M71.2103 191.047L72.9872 198.277H71.2103V191.047ZM72.9872 191.047H71.2103L72.9872 198.277V191.047Z" fill="#1C1A18"/>
<path d="M55.472 191.047L57.2489 198.277H55.472V191.047ZM57.2489 191.047H55.472L57.2489 198.277V191.047Z" fill="#1C1A18"/>
<path d="M71.2103 198.15L72.9872 199.925H71.2103V198.15ZM72.9872 198.15H71.2103L72.9872 199.925V198.15Z" fill="#1C1A18"/>
<path d="M55.472 198.15L57.2489 199.925H55.472V198.15ZM57.2489 198.15H55.472L57.2489 199.925V198.15Z" fill="#1C1A18"/>
<path d="M24.8838 200.306H22.5992L26.4068 195.232L24.8838 200.306Z" fill="#1C1A18"/>
<path d="M26.4068 195.232L28.8184 195.232L24.8838 200.306L26.4068 195.232Z" fill="#1C1A18"/>
<path d="M55.472 199.925V200.306H57.2489L55.472 199.925Z" fill="#1C1A18"/>
<path d="M55.472 199.925H57.2489V200.306L55.472 199.925Z" fill="#1C1A18"/>
<path d="M72.9872 200.433H71.2103V200.052L72.9872 200.433Z" fill="#1C1A18"/>
<path d="M71.2103 199.925H72.9872V200.433L71.2103 199.925Z" fill="#1C1A18"/>
<path d="M82.5064 200.433H80.7295V190.92L82.5064 200.433Z" fill="#1C1A18"/>
<path d="M80.7295 191.047H82.5064V200.433L80.7295 191.047Z" fill="#1C1A18"/>
<path d="M96.5947 200.433H94.8178V190.92L96.5947 200.433Z" fill="#1C1A18"/>
<path d="M94.8178 191.047H96.5947V200.433L94.8178 191.047Z" fill="#1C1A18"/>
<path d="M122.868 200.433H121.091V190.92L122.868 200.433Z" fill="#1C1A18"/>
<path d="M121.091 191.047H122.868V200.433L121.091 191.047Z" fill="#1C1A18"/>
<path d="M143.937 200.56H142.16V191.047L143.937 200.56Z" fill="#1C1A18"/>
<path d="M142.033 191.047H143.937L143.937 200.56L142.033 191.047Z" fill="#1C1A18"/>
<path d="M167.544 200.56H165.767V190.92L167.544 200.56Z" fill="#1C1A18"/>
<path d="M165.64 191.047H167.544V200.56L165.64 191.047Z" fill="#1C1A18"/>
<path d="M174.271 180.773L190.263 181.153H174.271V180.773ZM190.263 180.773H174.271L190.263 181.153V180.773Z" fill="#1C1A18"/>
<path d="M174.398 181.153L190.263 182.168H174.398V181.153ZM190.263 181.153H174.398L190.263 182.168L190.263 181.153Z" fill="#1C1A18"/>
<path d="M174.906 182.168L189.629 182.675H174.906V182.168ZM189.629 182.168H174.906L189.629 182.675V182.168Z" fill="#1C1A18"/>
<path d="M175.033 182.675L189.121 182.929H175.033V182.675ZM189.121 182.675H175.033L189.121 182.929V182.675Z" fill="#1C1A18"/>
<path d="M525.591 228.718H13.7146L522.164 232.523L525.591 228.718Z" fill="#772121"/>
<path d="M73.368 250.154H111.698L111.825 250.28L73.368 250.154Z" fill="#772121"/>
<path d="M109.668 247.236L218.948 262.837H120.583L109.668 247.236Z" fill="#772121"/>
<path d="M12.8058 223.589L12.9669 223.575C12.9745 223.64 12.9921 223.693 13.0197 223.734C13.0479 223.776 13.0914 223.809 13.1501 223.835C13.2088 223.86 13.2748 223.873 13.3482 223.873C13.4133 223.873 13.4709 223.863 13.5208 223.844C13.5706 223.824 13.6076 223.798 13.6317 223.764C13.6563 223.73 13.6687 223.693 13.6687 223.653C13.6687 223.613 13.6569 223.578 13.6335 223.548C13.61 223.517 13.5712 223.492 13.5172 223.471C13.4826 223.458 13.406 223.437 13.2874 223.409C13.1688 223.38 13.0858 223.353 13.0382 223.328C12.9766 223.295 12.9305 223.255 12.9 223.208C12.8701 223.16 12.8551 223.106 12.8551 223.047C12.8551 222.982 12.8736 222.921 12.9106 222.865C12.9475 222.808 13.0015 222.764 13.0726 222.735C13.1436 222.706 13.2226 222.691 13.3094 222.691C13.4051 222.691 13.4893 222.707 13.5621 222.738C13.6355 222.768 13.6919 222.813 13.7312 222.873C13.7705 222.933 13.7917 223.001 13.7946 223.077L13.6308 223.089C13.622 223.007 13.5921 222.946 13.541 222.904C13.4905 222.862 13.4157 222.842 13.3165 222.842C13.2132 222.842 13.1377 222.861 13.0902 222.899C13.0432 222.936 13.0197 222.982 13.0197 223.035C13.0197 223.082 13.0365 223.12 13.0699 223.15C13.1028 223.18 13.1885 223.211 13.327 223.242C13.4662 223.273 13.5615 223.301 13.6132 223.324C13.6883 223.359 13.7438 223.403 13.7796 223.456C13.8154 223.509 13.8333 223.57 13.8333 223.639C13.8333 223.708 13.8137 223.773 13.7743 223.834C13.735 223.894 13.6784 223.942 13.6044 223.976C13.531 224.009 13.4483 224.026 13.3561 224.026C13.2393 224.026 13.1412 224.009 13.062 223.975C12.9833 223.941 12.9214 223.89 12.8762 223.822C12.8316 223.753 12.8081 223.675 12.8058 223.589Z" fill="#13110C"/>
<path d="M14.3951 224.004V222.865H13.9698V222.713H14.993V222.865H14.5659V224.004H14.3951Z" fill="#13110C"/>
<path d="M15.1726 224.004V222.713H16.1059V222.865H15.3434V223.261H16.0575V223.412H15.3434V223.852H16.1359V224.004H15.1726Z" fill="#13110C"/>
<path d="M16.3745 224.004V222.713H16.9468C17.0619 222.713 17.1493 222.725 17.2092 222.748C17.2691 222.771 17.3169 222.812 17.3527 222.871C17.3886 222.929 17.4065 222.994 17.4065 223.065C17.4065 223.157 17.3768 223.234 17.3175 223.297C17.2582 223.36 17.1667 223.4 17.0428 223.417C17.088 223.438 17.1223 223.46 17.1458 223.481C17.1957 223.527 17.243 223.584 17.2876 223.653L17.5121 224.004H17.2973L17.1265 223.735C17.0766 223.658 17.0355 223.599 17.0032 223.557C16.9709 223.516 16.9418 223.488 16.916 223.471C16.8908 223.455 16.8649 223.443 16.8385 223.437C16.8192 223.433 16.7875 223.431 16.7434 223.431H16.5453V224.004H16.3745ZM16.5453 223.283H16.9125C16.9906 223.283 17.0516 223.275 17.0956 223.259C17.1397 223.243 17.1731 223.217 17.196 223.182C17.2189 223.146 17.2304 223.107 17.2304 223.065C17.2304 223.004 17.208 222.954 17.1634 222.915C17.1194 222.875 17.0496 222.856 16.9539 222.856H16.5453V223.283Z" fill="#13110C"/>
<path d="M17.6733 224.004V222.713H17.8485L18.5265 223.727V222.713H18.6902V224.004H18.515L17.837 222.99V224.004H17.6733Z" fill="#13110C"/>
<path d="M360.212 125.978H350.185C348.535 125.978 348.408 125.725 347.9 123.695L344.854 112.914C344.854 111.646 345.743 111.519 346.885 111.519H356.912C358.308 111.519 358.816 112.407 359.196 113.802L361.989 124.71C362.116 125.978 361.481 125.978 360.212 125.978Z" fill="url(#paint0_radial_179_253)"/>
<path d="M375.189 125.978H365.416C364.146 125.978 363.512 125.598 363.004 123.568L360.085 112.66C360.085 111.392 360.846 111.519 362.116 111.519H372.142C373.412 111.519 373.919 112.153 374.3 113.675L377.346 124.583C377.219 126.105 376.458 125.978 375.189 125.978Z" fill="url(#paint1_radial_179_253)"/>
<path d="M405.015 125.978C405.015 125.978 408.823 126.232 410.219 125.725C411.108 125.471 411.108 124.076 411.234 123.568C411.742 120.651 413.265 115.704 413.519 112.787C413.646 111.519 413.265 111.899 412.631 111.265H407.554C406.538 111.772 406.284 111.899 406.031 113.421L404.127 124.203C404 125.725 404.635 125.852 405.015 125.978Z" fill="url(#paint2_radial_179_253)"/>
<path d="M412.885 125.978H417.454C418.596 125.344 418.85 123.568 418.85 123.568L421.134 113.041C421.134 111.772 420.881 111.519 420.373 111.519H415.296C414.661 111.519 414.408 112.28 414.154 113.802L411.742 124.583C411.742 125.852 412.25 125.978 412.885 125.978Z" fill="url(#paint3_radial_179_253)"/>
<path d="M420.373 125.978H425.069C425.704 125.978 426.465 123.822 426.465 123.822L429.257 113.041C429.257 111.772 428.623 111.519 427.988 111.519L422.657 111.646C422.023 111.646 421.896 112.153 421.642 113.548L419.231 124.329C419.358 125.598 419.865 125.725 420.373 125.978Z" fill="url(#paint4_radial_179_253)"/>
<path d="M388.008 125.978H381.662C380.519 125.978 380.012 125.725 379.504 123.695L376.585 112.914C376.585 111.646 377.473 111.519 378.742 111.519H388.135C389.277 111.519 390.292 111.392 390.292 112.914C390.292 116.085 390.292 124.329 390.292 124.329C390.419 125.852 389.277 126.105 388.008 125.978Z" fill="url(#paint5_radial_179_253)"/>
<path d="M393.846 125.852H400.065C401.081 125.852 401.588 125.598 401.969 123.568C402.477 120.905 403.365 112.787 403.365 112.787C403.365 111.519 402.477 111.392 401.461 111.392H393.592C392.577 111.392 391.689 111.265 391.689 112.787C391.689 115.958 391.562 124.456 391.562 124.456C391.689 125.852 392.577 125.852 393.846 125.852Z" fill="url(#paint6_radial_179_253)"/>
<path d="M362.75 92.4929H363.766L362.75 91.0977V92.4929Z" fill="#1C1A18"/>
<path d="M362.75 91.0977L363.766 92.4929L363.639 91.0977H362.75Z" fill="#1C1A18"/>
<path d="M378.616 100.737H379.377L378.616 91.0977V100.737Z" fill="#1C1A18"/>
<path d="M379.377 100.737V91.0977H378.616L379.377 100.737Z" fill="#1C1A18"/>
<path d="M362.75 101.498L363.766 101.372H362.75V101.498Z" fill="#1C1A18"/>
<path d="M362.75 101.372H363.766L362.75 92.4929V101.372Z" fill="#1C1A18"/>
<path d="M363.766 101.372V92.4929H362.75L363.766 101.372Z" fill="#1C1A18"/>
<path d="M347.266 102.006H348.027L347.266 91.0977V102.006Z" fill="#1C1A18"/>
<path d="M348.027 102.006V91.0977H347.266L348.027 102.006Z" fill="#1C1A18"/>
<path d="M348.027 92.3661H378.616L348.027 91.7319V92.3661Z" fill="#1C1A18"/>
<path d="M378.616 92.3661V91.7319H348.027L378.616 92.3661Z" fill="#1C1A18"/>
<path d="M348.027 97.3128H380.266L348.027 96.9323V97.3128Z" fill="#1C1A18"/>
<path d="M380.266 97.3128V96.9323H348.027L380.266 97.3128Z" fill="#1C1A18"/>
<path d="M410.219 92.3661H410.727L410.6 92.2393L410.219 92.3661Z" fill="#1C1A18"/>
<path d="M418.342 92.3661H418.723V92.2393L418.342 92.3661Z" fill="#1C1A18"/>
<path d="M410.092 92.4929H410.854L410.219 92.3661L410.092 92.4929Z" fill="#1C1A18"/>
<path d="M410.219 92.3661L410.854 92.4929L410.727 92.3661H410.219Z" fill="#1C1A18"/>
<path d="M418.215 92.4929H418.85L418.342 92.3661L418.215 92.4929Z" fill="#1C1A18"/>
<path d="M418.342 92.3661L418.85 92.4929L418.723 92.3661H418.342Z" fill="#1C1A18"/>
<path d="M425.831 98.8349H426.592L425.831 91.0977V98.8349Z" fill="#1C1A18"/>
<path d="M426.592 98.8349V91.0977H425.831L426.592 98.8349Z" fill="#1C1A18"/>
<path d="M418.215 99.2154L418.723 99.0886H418.215V99.2154Z" fill="#1C1A18"/>
<path d="M418.85 99.0884L418.85 92.4929H418.215L418.85 99.0884Z" fill="#1C1A18"/>
<path d="M418.215 99.0886L418.85 99.0884L418.215 92.4929V99.0886Z" fill="#1C1A18"/>
<path d="M410.092 99.4691H410.854L410.092 92.4929V99.4691Z" fill="#1C1A18"/>
<path d="M410.854 99.4691V92.4929H410.092L410.854 99.4691Z" fill="#1C1A18"/>
<path d="M402.35 99.7228H403.112L402.35 91.0977V99.7228Z" fill="#1C1A18"/>
<path d="M403.112 99.7228V91.0977H402.35L403.112 99.7228Z" fill="#1C1A18"/>
<path d="M401.969 92.3661H426.211L401.969 91.7319V92.3661Z" fill="#1C1A18"/>
<path d="M426.211 92.3661V91.7319H401.969L426.211 92.3661Z" fill="#1C1A18"/>
<path d="M401.969 97.3128H426.211L401.969 96.9323V97.3128Z" fill="#1C1A18"/>
<path d="M426.211 97.3128V96.9323H401.969L426.211 97.3128Z" fill="#1C1A18"/>
<path d="M410.346 99.3422H411.869L410.346 78.5407V99.3422Z" fill="#1C1A18"/>
<path d="M411.869 99.3422V78.5407H410.346L411.869 99.3422Z" fill="#1C1A18"/>
<path d="M338 108.855L341.808 98.708H430.146L435.984 108.855H338Z" fill="#004A9B"/>
<path d="M6.73393 221.361H23.1069H7.11468H6.73393Z" fill="#322E2C"/>
<path d="M6.35315 221.488H23.1069L6.73393 221.361L6.35315 221.488Z" fill="#322E2C"/>
<path d="M23.1069 221.488L23.1069 221.361H6.73393L23.1069 221.488Z" fill="#322E2C"/>
<path d="M6.09931 221.742H23.1069L6.35315 221.488L6.09931 221.742Z" fill="#322E2C"/>
<path d="M23.1069 221.742L23.1069 221.488H6.35315L23.1069 221.742Z" fill="#322E2C"/>
<path d="M5.71854 221.995H23.1069L6.09931 221.742L5.71854 221.995Z" fill="#322E2C"/>
<path d="M23.1069 221.995V221.742H6.09931L23.1069 221.995Z" fill="#322E2C"/>
<path d="M5.4647 222.249H23.1069L5.71854 221.995L5.4647 222.249Z" fill="#322E2C"/>
<path d="M23.1069 222.249L23.1069 221.995H5.71854L23.1069 222.249Z" fill="#322E2C"/>
<path d="M5.33779 222.63H23.1069L5.4647 222.249L5.33779 222.63Z" fill="#322E2C"/>
<path d="M23.1069 222.63L23.1069 222.249H5.4647L23.1069 222.63Z" fill="#322E2C"/>
<path d="M5.21085 223.01H23.1069L5.33779 222.63L5.21085 223.01Z" fill="#322E2C"/>
<path d="M23.1069 223.01L23.1069 222.63H5.33779L23.1069 223.01Z" fill="#322E2C"/>
<path d="M5.21085 223.391H23.1069L5.21085 223.01V223.391Z" fill="#322E2C"/>
<path d="M23.1069 223.391V223.01H5.21085L23.1069 223.391Z" fill="#322E2C"/>
<path d="M23.1069 223.771V223.391H5.21085L23.1069 223.771Z" fill="#322E2C"/>
<path d="M5.21085 223.771H23.1069L5.21085 223.391V223.771Z" fill="#322E2C"/>
<path d="M5.33778 224.025H23.1069L5.21085 223.771L5.33778 224.025Z" fill="#322E2C"/>
<path d="M23.1069 224.025V223.771H5.21085L23.1069 224.025Z" fill="#322E2C"/>
<path d="M5.46471 224.405H23.1069L5.33778 224.025L5.46471 224.405Z" fill="#322E2C"/>
<path d="M23.1069 224.405L23.1069 224.025H5.33778L23.1069 224.405Z" fill="#322E2C"/>
<path d="M5.71854 224.786H23.1069L5.46471 224.405L5.71854 224.786Z" fill="#322E2C"/>
<path d="M23.1069 224.786L23.1069 224.405H5.46471L23.1069 224.786Z" fill="#322E2C"/>
<path d="M6.09931 225.04H23.1069L5.71854 224.786L6.09931 225.04Z" fill="#322E2C"/>
<path d="M23.1069 225.04L23.1069 224.786H5.71854L23.1069 225.04Z" fill="#322E2C"/>
<path d="M6.35315 225.166H23.1069L6.09931 225.04L6.35315 225.166Z" fill="#322E2C"/>
<path d="M23.1069 225.166L23.1069 225.04H6.09931L23.1069 225.166Z" fill="#322E2C"/>
<path d="M6.73392 225.293L23.1069 225.293L6.35315 225.166L6.73392 225.293Z" fill="#322E2C"/>
<path d="M23.1069 225.293L23.1069 225.166H6.35315L23.1069 225.293Z" fill="#322E2C"/>
<path d="M340.031 168.85L338.635 175.826C338.508 176.08 338.381 176.08 338.254 176.08H337.112C336.858 176.08 336.731 175.953 336.731 175.826L335.589 170.499C335.462 170.118 335.462 169.865 335.462 169.738H335.208L335.081 170.499L334.066 175.826C334.066 175.953 334.066 175.953 333.939 176.08C333.812 176.08 333.812 176.207 333.685 176.207H332.416C332.162 176.207 332.035 176.08 332.035 175.953L330.639 168.977H331.781L332.797 174.558C332.797 174.685 332.924 174.938 332.924 175.446H333.177C333.177 175.192 333.304 174.811 333.304 174.558L334.32 169.357C334.32 169.104 334.447 168.977 334.701 168.977H335.843C335.97 168.977 335.97 168.977 336.097 169.104C336.224 169.23 336.224 169.23 336.224 169.357L337.239 174.558C337.239 174.811 337.366 175.192 337.366 175.446H337.62C337.62 175.319 337.62 175.192 337.747 174.938C337.747 174.685 337.747 174.558 337.874 174.431L338.889 168.85H340.031Z" fill="#13110C"/>
<path d="M350.312 168.85L348.916 175.826C348.789 176.08 348.662 176.08 348.535 176.08H347.393C347.139 176.08 347.012 175.953 347.012 175.826L345.743 170.372C345.616 169.991 345.616 169.738 345.616 169.611H345.362L345.235 170.372L344.22 175.699C344.22 175.826 344.22 175.826 344.093 175.953C343.966 175.953 343.966 176.08 343.839 176.08H342.57C342.316 176.08 342.189 175.953 342.189 175.826L340.793 168.85H341.935L342.95 174.431C342.95 174.558 343.077 174.811 343.077 175.319H343.331C343.331 175.065 343.458 174.684 343.458 174.431L344.473 169.23C344.473 168.977 344.6 168.85 344.854 168.85H345.997C346.124 168.85 346.123 168.85 346.25 168.977C346.377 169.104 346.377 169.104 346.377 169.23L347.393 174.431C347.393 174.684 347.52 175.065 347.52 175.319H347.773C347.773 175.192 347.773 175.065 347.9 174.811C347.9 174.558 347.9 174.431 348.027 174.304L349.043 168.723H350.312V168.85Z" fill="#13110C"/>
<path d="M360.593 168.85L359.196 175.826C359.07 176.08 358.943 176.08 358.816 176.08H357.673C357.42 176.08 357.293 175.953 357.293 175.826L356.15 170.499C356.023 170.118 356.023 169.865 356.023 169.738H355.77L355.643 170.499L354.627 175.826C354.627 175.953 354.627 175.953 354.5 176.08C354.373 176.08 354.373 176.207 354.247 176.207H352.977C352.723 176.207 352.596 176.08 352.596 175.953L351.2 168.977H352.343L353.358 174.558C353.358 174.685 353.485 174.938 353.485 175.446H353.739C353.739 175.192 353.866 174.811 353.866 174.558L354.881 169.357C354.881 169.104 355.008 168.977 355.262 168.977H356.404C356.531 168.977 356.531 168.977 356.658 169.104C356.785 169.23 356.785 169.23 356.785 169.357L357.8 174.558C357.8 174.811 357.927 175.192 357.927 175.446H358.181C358.181 175.319 358.181 175.192 358.308 174.938C358.308 174.685 358.308 174.558 358.435 174.431L359.45 168.85H360.593Z" fill="#13110C"/>
<path d="M361.735 174.811H362.116C362.243 174.811 362.37 174.811 362.37 174.938C362.37 175.065 362.496 175.065 362.496 175.192V175.699C362.496 175.826 362.496 175.953 362.37 175.953C362.37 175.953 362.243 176.08 362.116 176.08H361.735C361.608 176.08 361.481 176.08 361.481 175.953C361.481 175.953 361.354 175.826 361.354 175.699V175.192C361.354 175.065 361.354 174.938 361.481 174.938C361.608 174.938 361.608 174.811 361.735 174.811Z" fill="#13110C"/>
<path d="M369.985 168.85H371.127C371.381 168.85 371.508 168.977 371.508 169.23L371.762 176.08H370.619L370.366 169.611H370.112L368.589 174.811C368.462 175.065 368.335 175.192 368.081 175.192H367.193C366.939 175.192 366.812 175.065 366.685 174.811L365.162 169.611H364.908L364.654 176.08H363.639L363.893 169.23C363.893 168.977 364.02 168.85 364.273 168.85H365.416C365.669 168.85 365.796 168.977 365.923 169.23L367.193 173.543C367.319 173.797 367.319 174.177 367.446 174.558H367.7C367.827 174.177 367.827 173.797 367.954 173.543L369.223 169.23C369.604 168.85 369.731 168.85 369.985 168.85Z" fill="#13110C"/>
<path d="M382.677 168.85L381.281 175.826C381.154 176.08 381.027 176.08 380.9 176.08H379.758C379.504 176.08 379.377 175.953 379.377 175.826L378.235 170.499C378.108 170.118 378.108 169.865 378.108 169.738H377.854L377.473 170.372L376.458 175.699C376.458 175.826 376.458 175.826 376.331 175.953C376.204 175.953 376.204 176.08 376.077 176.08H374.808C374.554 176.08 374.427 175.953 374.427 175.826L373.031 168.85H374.173L375.189 174.431C375.189 174.558 375.316 174.811 375.316 175.319H375.569C375.569 175.065 375.696 174.684 375.696 174.431L376.712 169.23C376.712 168.977 376.839 168.85 377.092 168.85H378.235C378.362 168.85 378.362 168.85 378.489 168.977C378.615 169.104 378.615 169.104 378.615 169.23L379.631 174.431C379.631 174.684 379.758 175.065 379.758 175.319H380.012C380.012 175.192 380.012 175.065 380.139 174.811C380.139 174.558 380.139 174.431 380.266 174.304L381.281 168.723H382.677V168.85Z" fill="#13110C"/>
<path d="M386.485 173.036L384.962 172.655C384.454 172.528 384.073 172.275 383.819 171.894C383.565 171.514 383.439 171.133 383.439 170.499C383.439 170.118 383.439 169.738 383.565 169.484C383.692 169.23 383.819 168.977 384.073 168.85C384.327 168.723 384.581 168.596 384.835 168.596C385.089 168.596 385.469 168.596 385.977 168.596C386.866 168.596 387.627 168.723 388.262 168.85L388.135 169.611C387.119 169.611 386.358 169.611 385.977 169.611C385.469 169.611 385.089 169.611 384.835 169.738C384.708 169.865 384.581 170.118 384.581 170.626C384.581 171.006 384.708 171.26 384.835 171.387C384.962 171.514 385.215 171.64 385.469 171.767L386.992 172.148C387.5 172.275 387.881 172.528 388.135 172.909C388.389 173.289 388.515 173.67 388.515 174.304C388.515 175.065 388.389 175.699 388.008 175.953C387.627 176.207 386.992 176.333 385.977 176.333C385.216 176.333 384.454 176.207 383.692 176.08L383.819 175.319C384.962 175.319 385.723 175.319 386.104 175.319C386.612 175.319 386.992 175.192 387.246 175.065C387.5 174.938 387.5 174.685 387.5 174.177C387.5 173.797 387.373 173.543 387.246 173.416C387.119 173.289 386.865 173.162 386.485 173.036Z" fill="#13110C"/>
<path d="M395.369 168.85V176.08H394.227V172.655H390.927V176.08H389.785V168.85H390.927V171.767H394.227V168.85H395.369Z" fill="#13110C"/>
<path d="M398.288 176.08H397.146V168.85H398.288V176.08Z" fill="#13110C"/>
<path d="M400.065 176.08V168.85C400.7 168.723 401.588 168.723 402.604 168.723C403.492 168.723 404.127 168.85 404.508 169.23C404.888 169.611 405.015 170.118 405.015 171.006C405.015 171.894 404.888 172.528 404.508 172.782C404.127 173.162 403.619 173.289 402.731 173.289C402.223 173.289 401.588 173.289 401.081 173.162V176.08H400.065ZM401.081 172.401H402.604C403.111 172.401 403.492 172.275 403.746 172.148C404 172.021 404 171.64 404 171.006C404 170.499 403.873 170.118 403.746 169.865C403.492 169.738 403.238 169.611 402.604 169.611C401.842 169.611 401.335 169.611 401.081 169.611V172.401Z" fill="#13110C"/>
<path d="M405.777 174.811H406.158C406.285 174.811 406.411 174.811 406.411 174.938C406.411 174.938 406.538 175.065 406.538 175.192V175.699C406.538 175.826 406.538 175.953 406.411 175.953C406.411 175.953 406.285 176.08 406.158 176.08H405.777C405.65 176.08 405.523 176.08 405.523 175.953C405.523 175.953 405.396 175.826 405.396 175.699V175.192C405.396 175.065 405.396 174.938 405.523 174.938C405.523 174.811 405.65 174.811 405.777 174.811Z" fill="#13110C"/>
<path d="M412.884 175.192L413.011 175.953C412.377 176.08 411.615 176.207 410.854 176.207C409.711 176.207 408.95 175.953 408.569 175.319C408.188 174.684 407.935 173.797 407.935 172.401C407.935 171.006 408.188 169.991 408.569 169.484C408.95 168.977 409.711 168.596 410.854 168.596C411.615 168.596 412.377 168.723 412.884 168.85L412.758 169.611C412.123 169.611 411.488 169.484 410.854 169.484C410.219 169.484 409.711 169.738 409.458 170.118C409.204 170.499 409.077 171.26 409.077 172.275C409.077 173.289 409.204 174.05 409.458 174.431C409.711 174.811 410.219 175.065 410.854 175.065C411.742 175.319 412.377 175.192 412.884 175.192Z" fill="#13110C"/>
<path d="M416.819 168.596C417.961 168.596 418.723 168.85 419.104 169.357C419.484 169.865 419.738 170.879 419.738 172.275C419.738 173.67 419.484 174.685 419.104 175.192C418.723 175.699 417.834 175.953 416.819 175.953C415.677 175.953 414.915 175.699 414.534 175.192C414.154 174.685 413.9 173.67 413.9 172.275C413.9 170.879 414.154 169.865 414.534 169.357C415.042 168.977 415.804 168.596 416.819 168.596ZM418.342 170.245C418.088 169.865 417.581 169.611 416.946 169.611C416.311 169.611 415.804 169.865 415.55 170.245C415.296 170.626 415.169 171.387 415.169 172.528C415.169 173.543 415.296 174.304 415.55 174.811C415.804 175.192 416.311 175.446 416.946 175.446C417.581 175.446 418.088 175.192 418.342 174.811C418.596 174.431 418.723 173.67 418.723 172.528C418.723 171.387 418.596 170.626 418.342 170.245Z" fill="#13110C"/>
<path d="M427.354 168.85H428.496C428.75 168.85 428.877 168.977 428.877 169.23L429.131 176.08H427.988L427.734 169.611H427.48L425.957 174.811C425.831 175.065 425.704 175.192 425.45 175.192H424.561C424.307 175.192 424.181 175.065 424.054 174.811L422.531 169.611H422.277L422.023 176.08H421.008L421.261 169.23C421.261 168.977 421.388 168.85 421.642 168.85H422.784C423.038 168.85 423.165 168.977 423.292 169.23L424.561 173.543C424.688 173.797 424.688 174.177 424.815 174.558H425.069C425.196 174.177 425.196 173.797 425.323 173.543L426.592 169.23C426.973 168.85 427.1 168.85 427.354 168.85Z" fill="#13110C"/>
<path d="M523.56 59.1343C520.134 60.2759 517.849 58.5001 515.438 56.5976C513.28 54.9487 510.995 53.1729 507.568 53.2998C506.934 53.2998 506.426 53.4266 505.791 53.6803C504.015 54.3145 502.745 55.456 501.349 56.7244C499.826 58.1196 498.176 59.5148 495.891 60.2759C495.003 60.5296 493.988 60.7832 492.972 60.7832C488.657 61.0369 486.626 59.8954 483.707 58.5001C481.042 57.1049 477.615 55.456 470.888 54.0608C465.176 52.9192 459.719 53.1729 454.388 54.8218C447.788 56.9781 443.473 60.9101 441.569 62.559C441.188 62.8127 440.934 63.0663 440.807 63.1932L440.427 63.4469L439.411 15.2481H439.665C446.519 14.4871 454.642 16.136 465.303 20.3217C472.665 23.239 477.361 27.2978 481.042 30.5956C483.834 33.0055 486.119 35.035 488.53 35.6692C491.068 36.3034 492.845 36.4302 494.368 35.9228C495.13 35.6692 495.765 35.2886 496.399 34.9081C497.161 34.4008 498.049 34.0203 499.318 33.5129C499.826 33.3861 500.334 33.2592 500.968 33.1324C506.807 31.9908 508.203 36.0497 509.853 40.7427C512.138 47.0847 515.057 55.0755 530.795 52.7924L531.557 52.6656L531.049 53.1729C528.384 56.4707 525.845 58.3733 523.56 59.1343Z" fill="white"/>
<path d="M439.919 15.5018C446.392 14.8676 454.388 16.136 465.43 20.4485C478.376 25.5221 482.819 34.1471 488.784 35.796C491.703 36.557 493.353 36.557 494.749 36.0497C496.399 35.5423 497.542 34.4008 499.699 33.7666C500.207 33.6397 500.715 33.5129 501.349 33.3861C514.803 30.7224 504.015 56.9781 531.176 53.0461C528.003 56.4707 525.591 58.1196 523.561 58.7538C517.088 60.9101 514.93 52.4119 507.695 53.0461C507.061 53.0461 506.426 53.1729 505.918 53.4266C502.238 54.695 500.334 58.627 496.018 60.0222C495.13 60.2759 494.242 60.5296 493.099 60.5296C484.722 60.9101 485.103 56.7244 471.142 53.8071C464.669 52.4119 459.084 53.1729 454.515 54.5681C446.646 57.1049 441.95 62.1785 440.807 62.9395C440.934 63.0663 439.919 15.5018 439.919 15.5018ZM439.411 15.1213V15.6286C440.427 63.1932 440.427 63.1932 440.427 63.32L440.68 64.0811L441.315 63.5737C441.442 63.4469 441.696 63.1932 442.077 62.9395C443.98 61.2906 448.296 57.4854 454.769 55.2023C459.973 53.5534 465.43 53.1729 471.015 54.4413C477.742 55.8365 481.042 57.6123 483.707 58.8807C486.626 60.2759 488.657 61.4174 493.099 61.1638C494.115 61.1638 495.13 60.9101 496.145 60.6564C498.557 59.8954 500.08 58.3733 501.603 56.9781C502.999 55.7097 504.268 54.5681 505.918 54.0608C506.426 53.9339 507.061 53.8071 507.568 53.6803C510.868 53.4266 513.026 55.2023 515.184 56.8512C517.468 58.7538 520.007 60.6564 523.561 59.388C525.845 58.627 528.384 56.7244 531.43 53.5534L532.445 52.4119L530.922 52.6656C523.941 53.6803 518.991 52.7924 515.564 50.0019C512.645 47.592 511.376 43.9137 510.234 40.7427C508.584 36.1765 507.061 31.864 500.968 33.0055C500.334 33.1324 499.826 33.2592 499.318 33.3861C498.049 33.7666 497.161 34.2739 496.399 34.7813C495.765 35.1618 495.13 35.5423 494.368 35.796C492.845 36.3034 491.195 36.1765 488.657 35.5423C486.245 34.9081 484.088 33.0055 481.295 30.4688C477.488 27.171 472.919 23.1121 465.43 20.1948C454.769 16.0091 446.519 14.3602 439.665 15.1213H439.411Z" fill="#004A98"/>
<path d="M501.222 33.3861C495.638 34.5276 495.891 37.8254 488.657 35.9228C487.007 35.4155 485.484 34.5276 483.834 33.1324L487.007 59.6417C488.657 60.2759 490.307 60.5296 492.972 60.4027C500.334 60.0222 501.603 53.4266 507.568 52.9192C517.088 52.285 517.849 66.9984 531.049 52.9192C503.888 57.1049 514.676 30.8493 501.222 33.3861Z" fill="#004A98"/>
<path d="M487.007 60.0222C485.992 59.6417 484.976 59.1343 483.834 58.627C481.169 57.2318 477.742 55.5829 471.015 54.1876C465.303 53.0461 459.846 53.2998 454.515 54.9487C447.915 57.1049 443.6 61.0369 441.696 62.6858C441.315 62.9395 441.061 63.1932 440.934 63.32L440.553 63.5737L439.538 15.375H439.792C446.646 14.6139 454.769 16.2628 465.43 20.4485C472.792 23.3658 477.488 27.4246 481.169 30.7225C482.184 31.6103 483.072 32.3714 483.961 33.1324L484.088 33.2592L487.388 60.4027L487.007 60.0222Z" fill="white"/>
<path d="M439.919 15.5018C446.392 14.8676 454.388 16.136 465.43 20.4485C474.822 24.1268 479.645 29.7077 483.961 33.1324L487.134 59.6417C483.58 58.3733 480.788 55.7097 471.142 53.6803C464.669 52.285 459.084 53.0461 454.515 54.4413C446.646 56.9781 441.95 62.0516 440.807 62.8127L439.919 15.5018ZM439.411 15.1213V15.6286L440.427 63.0663V64.0811L441.188 63.4469C441.315 63.32 441.569 63.0663 441.95 62.8127C443.853 61.1638 448.169 57.3586 454.642 55.0755C459.846 53.4266 465.303 53.0461 470.888 54.3145C477.615 55.7097 480.915 57.4854 483.58 58.7538C484.722 59.388 485.738 59.7685 486.753 60.2759L487.515 60.5296L487.388 59.6417L484.215 33.1324V32.8787L484.088 32.7519C483.199 31.9908 482.311 31.2298 481.295 30.3419C477.488 27.0441 472.919 22.9853 465.43 20.068C454.769 15.8823 446.519 14.2334 439.665 14.9944L439.411 15.1213Z" fill="#004A98"/>
<path d="M504.649 42.899C518.357 42.0111 510.488 65.2226 531.049 53.1729C503.888 57.1049 514.676 30.8493 501.222 33.3861C495.638 34.5276 495.891 37.8254 488.657 35.9228C487.007 35.4155 485.484 34.5276 483.834 33.1324L485.611 47.7188C486.626 47.9725 487.768 48.0994 489.292 48.353C498.811 50.0019 497.795 43.2795 504.649 42.899Z" fill="#004A98"/>
<path d="M504.649 42.899C497.668 43.4063 498.811 50.0019 489.418 48.4799C487.895 48.2262 486.626 47.9725 485.738 47.8457L487.134 59.7685C488.784 60.4027 490.434 60.6564 493.099 60.5296C500.461 60.1491 501.73 53.5534 507.695 53.0461C517.214 52.4119 517.976 67.1252 531.176 53.0461C510.488 65.2226 518.357 42.0111 504.649 42.899Z" fill="#F32735"/>
<path d="M469.111 28.8199H466.319V26.2831H463.78V23.7463H460.861V26.2831H458.323V28.8199H455.403V29.9614C455.403 29.9614 456.546 30.2151 457.688 30.5956C462.13 31.9908 462.384 31.9908 466.699 30.5956C466.699 30.5956 468.984 29.8346 469.111 29.9614V28.8199ZM460.48 28.5662H458.957V27.0441H460.48V28.5662ZM463.019 26.0294H461.623V24.6342H463.019V26.0294ZM465.557 28.5662H464.034V27.0441H465.557V28.5662Z" fill="#004A9B"/>
<path d="M447.788 30.3419C447.788 30.3419 452.103 30.3419 455.657 31.4835C459.084 32.625 460.1 33.1324 462.13 33.1324C464.542 33.1324 468.476 31.4835 469.238 31.2298C469.872 30.9761 471.142 30.4688 476.472 30.2151L474.696 31.7372C474.696 31.7372 471.396 31.6103 466.953 33.5129C466.953 33.5129 464.161 34.6545 462.13 34.5276V35.9228C462.13 35.9228 464.415 35.9228 466.319 35.2886C468.223 34.6545 471.649 33.3861 472.919 33.3861C472.919 33.3861 471.776 34.2739 470.38 35.4155C468.349 37.1912 465.43 39.4743 462.13 39.4743V37.3181C462.13 37.3181 460.861 37.3181 459.338 36.8107C457.688 36.3034 453.626 34.7813 451.088 34.7813L447.788 30.3419Z" fill="#004A9B"/>
<path d="M449.057 49.4946C449.184 49.6214 449.438 49.6214 449.565 49.6214C449.819 49.6214 449.946 49.4946 449.946 49.3678C449.946 49.2409 449.819 49.1141 449.565 49.1141C449.184 48.9872 448.93 48.7336 448.93 48.4799C448.93 48.0994 449.184 47.8457 449.692 47.8457C449.946 47.8457 450.073 47.8457 450.2 47.9725L450.073 48.353C449.946 48.353 449.819 48.2262 449.692 48.2262C449.438 48.2262 449.438 48.353 449.438 48.4799C449.438 48.6067 449.565 48.7336 449.819 48.7336C450.2 48.8604 450.326 49.1141 450.326 49.3678C450.326 49.7483 450.073 50.0019 449.438 50.0019C449.184 50.0019 448.93 50.0019 448.803 49.8751L449.057 49.4946Z" fill="#004A9B"/>
<path d="M451.215 47.7188V48.6067C451.215 48.4799 451.342 48.4799 451.342 48.4799C451.469 48.4799 451.469 48.4799 451.596 48.4799C451.85 48.4799 452.103 48.7336 452.103 49.1141V50.0019H451.596V49.1141C451.596 48.8604 451.469 48.7336 451.342 48.7336C451.215 48.7336 451.088 48.8604 451.088 48.8604V49.8751H450.58V47.7188H451.215Z" fill="#004A9B"/>
<path d="M452.992 48.0994C452.992 48.2262 452.865 48.353 452.738 48.353C452.611 48.353 452.484 48.2262 452.484 48.0994C452.484 47.9725 452.611 47.8457 452.738 47.8457C452.992 47.8457 452.992 47.8457 452.992 48.0994ZM452.484 50.0019V48.4799H452.992V50.0019H452.484Z" fill="#004A9B"/>
<path d="M453.373 48.9872C453.373 48.7336 453.373 48.6067 453.373 48.4799H453.753V48.7336C453.88 48.6067 454.007 48.4799 454.261 48.4799C454.642 48.4799 454.896 48.7336 454.896 49.2409C454.896 49.7483 454.515 50.1288 454.134 50.1288C454.007 50.1288 453.753 50.0019 453.753 50.0019V50.763H453.246V48.9872H453.373ZM453.88 49.3678C453.88 49.6214 454.007 49.7483 454.134 49.7483C454.388 49.7483 454.515 49.6214 454.515 49.3678C454.515 49.1141 454.388 48.9872 454.134 48.9872C454.007 48.9872 453.88 49.1141 453.88 49.2409C453.88 49.2409 453.88 49.2409 453.88 49.3678Z" fill="#004A9B"/>
<path d="M455.276 48.9872C455.276 48.7336 455.276 48.6067 455.276 48.4799H455.657V48.7336C455.784 48.6067 455.911 48.4799 456.165 48.4799C456.546 48.4799 456.8 48.7336 456.8 49.2409C456.8 49.7483 456.419 50.1288 456.038 50.1288C455.911 50.1288 455.657 50.0019 455.657 50.0019V50.763H455.15V48.9872H455.276ZM455.784 49.3678C455.784 49.6214 455.911 49.7483 456.038 49.7483C456.292 49.7483 456.419 49.6214 456.419 49.3678C456.419 49.1141 456.292 48.9872 456.038 48.9872C455.911 48.9872 455.784 49.1141 455.784 49.2409C455.784 49.2409 455.784 49.2409 455.784 49.3678Z" fill="#004A9B"/>
<path d="M457.688 48.0994C457.688 48.2262 457.561 48.353 457.434 48.353C457.307 48.353 457.18 48.2262 457.18 48.0994C457.18 47.9725 457.307 47.8457 457.434 47.8457C457.561 47.8457 457.688 47.8457 457.688 48.0994ZM457.18 50.0019V48.4799H457.688V50.0019H457.18Z" fill="#004A9B"/>
<path d="M458.069 48.9872C458.069 48.8604 458.069 48.6067 458.069 48.4799H458.449V48.7336C458.449 48.6067 458.703 48.4799 458.957 48.4799C459.211 48.4799 459.465 48.7336 459.465 49.1141V50.0019H458.957V49.1141C458.957 48.8604 458.83 48.7336 458.703 48.7336C458.576 48.7336 458.449 48.8604 458.449 48.8604V49.8751H457.942V48.9872H458.069Z" fill="#004A9B"/>
<path d="M461.369 48.4799C461.369 48.6067 461.369 48.7336 461.369 48.9872V49.8751C461.369 50.1288 461.369 50.3825 461.115 50.5093C460.988 50.6361 460.734 50.6361 460.48 50.6361C460.226 50.6361 460.099 50.6361 459.973 50.5093L460.099 50.1288C460.226 50.1288 460.353 50.2556 460.607 50.2556C460.861 50.2556 460.988 50.1288 460.988 49.8751V49.7483C460.861 49.8751 460.734 50.0019 460.607 50.0019C460.226 50.0019 459.973 49.7483 459.973 49.2409C459.973 48.7336 460.353 48.4799 460.734 48.4799C460.988 48.4799 461.115 48.6067 461.115 48.7336V48.6067H461.369V48.4799ZM460.861 49.1141C460.861 48.8604 460.734 48.8604 460.607 48.8604C460.48 48.8604 460.353 48.9872 460.353 49.2409C460.353 49.4946 460.48 49.6214 460.607 49.6214C460.734 49.6214 460.861 49.4946 460.861 49.3678V49.1141Z" fill="#004A9B"/>
<path d="M463.907 50.0019C463.78 50.0019 463.653 50.1288 463.399 50.1288C462.638 50.1288 462.257 49.6214 462.257 49.1141C462.257 48.353 462.765 47.9725 463.399 47.9725C463.653 47.9725 463.78 47.9725 463.907 48.0994L463.78 48.4799C463.653 48.4799 463.526 48.353 463.399 48.353C463.019 48.353 462.765 48.6067 462.765 49.1141C462.765 49.4946 463.019 49.7483 463.399 49.7483C463.526 49.7483 463.653 49.7483 463.78 49.6214L463.907 50.0019Z" fill="#004A9B"/>
<path d="M465.684 49.2409C465.684 49.7483 465.303 50.0019 464.922 50.0019C464.415 50.0019 464.161 49.7483 464.161 49.2409C464.161 48.7336 464.542 48.4799 464.922 48.4799C465.43 48.4799 465.684 48.7336 465.684 49.2409ZM464.542 49.2409C464.542 49.4946 464.669 49.7483 464.796 49.7483C464.923 49.7483 465.049 49.6214 465.049 49.2409C465.049 48.9872 464.923 48.7336 464.796 48.7336C464.669 48.7336 464.542 48.9872 464.542 49.2409Z" fill="#004A9B"/>
<path d="M465.938 48.9872C465.938 48.8604 465.938 48.6067 465.938 48.4799H466.319V48.7336C466.446 48.6067 466.573 48.4799 466.826 48.4799C467.08 48.4799 467.207 48.6067 467.207 48.7336C467.207 48.6067 467.334 48.6067 467.461 48.6067C467.588 48.6067 467.588 48.4799 467.715 48.4799C467.969 48.4799 468.223 48.7336 468.223 49.1141V50.0019H467.715V49.1141C467.715 48.8604 467.588 48.7336 467.461 48.7336C467.334 48.7336 467.334 48.8604 467.207 48.8604V49.8751H466.699V48.9872C466.699 48.7336 466.573 48.6067 466.446 48.6067C466.319 48.6067 466.192 48.7336 466.192 48.7336V49.7483H465.684V48.9872H465.938Z" fill="#004A9B"/>
<path d="M468.73 48.9872C468.73 48.7336 468.73 48.6067 468.73 48.4799H469.111V48.7336C469.238 48.6067 469.365 48.4799 469.619 48.4799C469.999 48.4799 470.253 48.7336 470.253 49.2409C470.253 49.7483 469.872 50.1288 469.492 50.1288C469.365 50.1288 469.111 50.0019 469.111 50.0019V50.763H468.603V48.9872H468.73ZM469.238 49.3678C469.238 49.6214 469.365 49.7483 469.492 49.7483C469.746 49.7483 469.872 49.6214 469.872 49.3678C469.872 49.1141 469.746 48.9872 469.492 48.9872C469.365 48.9872 469.238 49.1141 469.238 49.2409C469.238 49.2409 469.238 49.2409 469.238 49.3678Z" fill="#004A9B"/>
<path d="M471.522 49.8751C471.396 50.0019 471.269 50.0019 471.142 50.0019C470.888 50.0019 470.634 49.7483 470.634 49.4946C470.634 49.1141 471.015 48.8604 471.522 48.8604C471.522 48.7336 471.522 48.6067 471.269 48.6067C471.142 48.6067 470.888 48.6067 470.888 48.7336L470.761 48.4799C470.888 48.4799 471.015 48.353 471.396 48.353C471.903 48.353 472.03 48.6067 472.03 48.9872V49.4946C472.03 49.6214 472.03 49.7483 472.03 49.8751H471.522ZM471.396 49.2409C471.142 49.2409 470.888 49.2409 470.888 49.4946C470.888 49.6214 471.015 49.6214 471.015 49.6214C471.142 49.6214 471.269 49.4946 471.269 49.4946C471.269 49.4946 471.269 49.4946 471.269 49.3678V49.2409H471.396Z" fill="#004A9B"/>
<path d="M472.284 48.9872C472.284 48.8604 472.284 48.6067 472.284 48.4799H472.665V48.7336C472.665 48.6067 472.919 48.4799 473.172 48.4799C473.426 48.4799 473.68 48.7336 473.68 49.1141V50.0019H473.172V49.1141C473.172 48.8604 473.046 48.7336 472.919 48.7336C472.792 48.7336 472.665 48.8604 472.665 48.8604V49.8751H472.157V48.9872H472.284Z" fill="#004A9B"/>
<path d="M474.442 48.4799L474.696 49.2409C474.696 49.3678 474.696 49.4946 474.822 49.4946C474.822 49.3678 474.822 49.2409 474.949 49.2409L475.076 48.4799H475.584L475.203 49.4946C474.949 50.1288 474.822 50.3825 474.696 50.5093C474.569 50.6361 474.315 50.763 474.188 50.763L474.061 50.3825C474.061 50.3825 474.188 50.3825 474.315 50.2556C474.442 50.2556 474.442 50.1288 474.569 50.1288C474.569 50.1288 474.569 50.1288 474.569 50.0019C474.569 50.0019 474.569 50.0019 474.569 49.8751L474.061 48.4799H474.442Z" fill="#004A9B"/>
<path d="M448.423 42.2648H447.661C447.407 42.2648 447.28 42.3916 447.28 42.5185L446.646 44.8016C446.646 44.9284 446.519 45.1821 446.519 45.3089C446.392 44.9284 446.392 44.8016 446.392 44.8016L445.757 42.5185C445.757 42.2648 445.63 42.2648 445.377 42.2648H444.488C444.234 42.2648 444.107 42.3916 444.107 42.6453L443.98 46.7041H444.869L444.996 43.0258L445.757 45.8163C445.757 46.0699 445.884 46.0699 446.138 46.0699H446.773C447.027 46.0699 447.153 45.9431 447.153 45.8163L447.915 43.0258L448.042 46.7041H448.93L448.803 42.6453C448.803 42.3916 448.677 42.2648 448.423 42.2648ZM451.469 42.2648C450.834 42.2648 450.326 42.3916 450.073 42.7721C449.819 43.1527 449.692 43.66 449.692 44.5479C449.692 45.4357 449.819 45.9431 450.073 46.3236C450.326 46.7041 450.834 46.831 451.469 46.831C452.103 46.831 452.611 46.7041 452.865 46.3236C453.119 45.9431 453.246 45.4357 453.246 44.5479C453.246 43.66 453.119 43.1527 452.865 42.7721C452.611 42.3916 452.103 42.2648 451.469 42.2648ZM452.103 45.6894C451.976 45.9431 451.723 45.9431 451.342 45.9431C450.961 45.9431 450.707 45.8163 450.58 45.6894C450.453 45.4358 450.326 45.0552 450.326 44.421C450.326 43.7868 450.453 43.4063 450.58 43.1527C450.707 42.899 450.961 42.899 451.342 42.899C451.723 42.899 451.976 43.0258 452.103 43.1527C452.23 43.4063 452.357 43.7868 452.357 44.421C452.357 45.0552 452.357 45.4358 452.103 45.6894ZM456.8 44.8016C456.673 44.6747 456.673 44.6747 456.546 44.6747C456.799 44.6747 456.926 44.5479 457.053 44.2942C457.18 44.1674 457.307 43.7868 457.307 43.5332C457.307 43.0258 457.18 42.6453 456.926 42.5185C456.673 42.3916 456.292 42.2648 455.784 42.2648C455.15 42.2648 454.515 42.2648 454.134 42.2648V46.5773H455.023V44.8016H455.784C456.038 44.8016 456.165 44.9284 456.292 45.1821L456.673 46.5773H457.561L457.18 45.1821C456.926 45.0552 456.926 44.9284 456.8 44.8016ZM456.165 44.1674C456.038 44.2942 455.911 44.2942 455.657 44.2942H454.896V43.0258H455.657C455.911 43.0258 456.165 43.0258 456.165 43.1527C456.292 43.2795 456.292 43.4063 456.292 43.66C456.292 43.9137 456.292 44.0405 456.165 44.1674ZM462.13 45.4357C462.13 45.4357 462.13 45.5626 462.13 45.6894C462.13 45.8163 462.13 45.8163 462.13 45.9431H462.003C462.003 45.8163 462.003 45.5626 461.876 45.4357L461.369 42.5185C461.369 42.3916 461.369 42.3916 461.242 42.2648C461.242 42.2648 461.115 42.1379 460.988 42.1379H460.226C460.099 42.1379 459.973 42.2648 459.846 42.3916L459.338 45.3089C459.338 45.4358 459.338 45.6894 459.211 45.8163C459.211 45.5626 459.211 45.4358 459.084 45.3089L458.576 42.1379H457.688L458.449 46.3236C458.449 46.4505 458.449 46.4505 458.576 46.4505C458.576 46.4505 458.703 46.5773 458.83 46.5773H459.719C459.846 46.5773 459.846 46.5773 459.973 46.4505L460.099 46.3236L460.607 43.2795C460.607 43.1526 460.607 43.0258 460.734 42.7721C460.734 43.0258 460.734 43.1526 460.861 43.2795L461.369 46.3236C461.369 46.4505 461.496 46.5773 461.749 46.5773H462.638C462.765 46.5773 462.765 46.5773 462.892 46.4505L463.019 46.3236L463.78 42.1379H462.892L462.13 45.4357ZM465.049 43.1527C465.049 43.1527 465.176 43.0258 465.303 43.0258H467.08V42.3916C466.699 42.3916 466.065 42.3916 465.176 42.3916C464.923 42.3916 464.669 42.5185 464.415 42.6453C464.288 42.7721 464.161 43.0258 464.161 43.2795V45.9431C464.161 46.1968 464.288 46.4505 464.415 46.5773C464.542 46.7041 464.796 46.831 465.176 46.831C466.065 46.831 466.699 46.831 467.08 46.831V46.1968H465.303C465.176 46.1968 465.176 46.1968 465.049 46.0699C465.049 46.0699 465.049 45.9431 465.049 45.8163V44.9284H466.826V44.2942H465.049V43.5332C464.923 43.2795 465.049 43.1527 465.049 43.1527ZM470.507 45.1821C470.507 45.4357 470.507 45.5626 470.507 45.8163C470.507 45.6894 470.38 45.5626 470.38 45.4357C470.253 45.3089 470.253 45.1821 470.253 45.1821L469.111 42.6453C469.111 42.5185 468.984 42.5185 468.984 42.3916C468.984 42.3916 468.857 42.2648 468.73 42.2648H468.096C467.842 42.2648 467.715 42.3916 467.715 42.6453V46.7041H468.603V43.7868C468.603 43.5332 468.603 43.4063 468.603 43.1527C468.603 43.2795 468.73 43.5332 468.857 43.7868L470.126 46.4505C470.253 46.5773 470.38 46.7041 470.507 46.7041H471.142C471.396 46.7041 471.522 46.5773 471.522 46.3236V42.2648H470.634V45.1821H470.507ZM475.076 45.1821C475.076 45.4357 475.076 45.5626 475.076 45.8163C475.076 45.6894 474.949 45.5626 474.949 45.4357C474.822 45.3089 474.822 45.1821 474.822 45.1821L473.68 42.6453C473.68 42.5185 473.553 42.5185 473.553 42.3916C473.553 42.3916 473.426 42.2648 473.299 42.2648H472.665C472.411 42.2648 472.284 42.3916 472.284 42.6453V46.7041H473.172V43.7868C473.172 43.5332 473.172 43.4063 473.172 43.1527C473.172 43.2795 473.299 43.5332 473.426 43.7868L474.696 46.4505C474.822 46.5773 474.949 46.7041 475.076 46.7041H475.711C475.965 46.7041 476.092 46.5773 476.092 46.3236V42.2648H475.203V45.1821H475.076ZM479.138 42.5185C479.138 42.3916 479.011 42.2648 478.757 42.2648H477.996C477.869 42.2648 477.742 42.3916 477.615 42.5185L476.219 46.7041H477.107L477.488 45.4357H479.011L479.392 46.7041H480.28L479.138 42.5185ZM477.869 44.8016L478.249 43.4063L478.376 43.0258H478.503C478.503 43.0258 478.503 43.1527 478.63 43.4063L479.011 44.8016H477.869Z" fill="#E30613"/>
<path d="M240.905 148.048H218.694L214.759 156.42H244.459L240.905 148.048Z" fill="#004A98"/>
<path d="M229.99 156.166C234.967 156.166 239.001 154.406 239.001 152.234C239.001 150.062 234.967 148.302 229.99 148.302C225.013 148.302 220.978 150.062 220.978 152.234C220.978 154.406 225.013 156.166 229.99 156.166Z" fill="white"/>
<path d="M234.432 148.809H225.167V155.532H234.432V148.809Z" fill="black"/>
<path d="M234.432 148.809H225.167V155.532H234.432V148.809Z" fill="black"/>
<path d="M231.513 150.078H230.751V149.444H230.117V148.809H229.355V149.444H228.721V150.078H227.959V150.331C227.959 150.331 228.213 150.458 228.594 150.458C229.736 150.839 229.736 150.839 230.878 150.458L231.513 150.331V150.078ZM229.355 149.951H228.974V149.57H229.355V149.951ZM229.99 149.317H229.609V148.936H229.99V149.317ZM230.624 149.951H230.244V149.57H230.624V149.951Z" fill="#004A9B"/>
<path d="M234.432 148.809H225.167V155.532H234.432V148.809Z" fill="black"/>
<path d="M226.182 150.458C226.182 150.458 227.324 150.458 228.213 150.712C229.101 150.966 229.355 151.092 229.863 151.092C230.498 151.092 231.513 150.712 231.64 150.585C231.767 150.585 232.147 150.331 233.417 150.331L232.909 150.712C232.909 150.712 232.021 150.712 231.005 151.219C231.005 151.219 230.371 151.473 229.736 151.473V151.854C229.736 151.854 230.371 151.854 230.751 151.727C231.259 151.6 232.021 151.219 232.401 151.219C232.401 151.219 232.147 151.473 231.767 151.727C231.259 152.107 230.497 152.741 229.736 152.741V152.234C229.736 152.234 229.355 152.234 228.974 152.107C228.594 151.98 227.578 151.6 226.944 151.6L226.182 150.458Z" fill="#004A9B"/>
<path d="M234.432 148.809H225.167V155.532H234.432V148.809Z" fill="black"/>
<path d="M226.436 155.278H226.69C226.69 155.278 226.69 155.278 226.563 155.151C226.436 155.151 226.436 155.024 226.436 155.024C226.436 154.898 226.563 154.898 226.69 154.898H226.817V155.024C226.817 155.024 226.817 155.024 226.69 155.024H226.563C226.563 155.024 226.563 155.024 226.69 155.151C226.817 155.151 226.817 155.278 226.817 155.278C226.817 155.405 226.69 155.405 226.563 155.405C226.563 155.405 226.436 155.405 226.436 155.278Z" fill="#004A9B"/>
<path d="M234.432 148.809H225.167V155.532H234.432V148.809Z" fill="black"/>
<path d="M226.817 154.771L226.944 155.024C227.071 155.024 227.071 155.024 227.071 155.151V155.405H226.944V155.024V155.278H226.817V154.771Z" fill="#004A9B"/>
<path d="M234.432 148.809H225.167V155.532H234.432V148.809Z" fill="black"/>
<path d="M227.451 154.898C227.324 154.898 227.324 154.898 227.324 154.898C227.324 154.771 227.324 154.771 227.451 154.898C227.451 154.771 227.451 154.771 227.451 154.898ZM227.324 155.405V155.024H227.451L227.324 155.405Z" fill="#004A9B"/>
<path d="M234.432 148.809H225.167V155.532H234.432V148.809Z" fill="black"/>
<path d="M227.578 155.151V155.024H227.705L227.578 155.151C227.705 155.024 227.705 155.024 227.832 155.024C227.959 155.024 227.959 155.151 227.959 155.278C227.959 155.405 227.832 155.532 227.832 155.532H227.705V155.786H227.578V155.151ZM227.705 155.151C227.705 155.278 227.705 155.278 227.705 155.151C227.832 155.278 227.832 155.151 227.832 155.151C227.832 155.151 227.832 155.024 227.705 155.024C227.705 155.024 227.705 155.024 227.705 155.151Z" fill="#004A9B"/>
<path d="M234.432 148.809H225.167V155.532H234.432V148.809Z" fill="black"/>
<path d="M228.086 155.151V155.024H228.213L228.086 155.151C228.213 155.024 228.213 155.024 228.34 155.024C228.467 155.024 228.467 155.151 228.467 155.278C228.467 155.405 228.34 155.532 228.34 155.532H228.213V155.786H228.086V155.151ZM228.086 155.151C228.213 155.278 228.213 155.278 228.086 155.151C228.213 155.278 228.213 155.151 228.213 155.151C228.213 155.151 228.213 155.024 228.086 155.024C228.213 155.024 228.213 155.024 228.086 155.151Z" fill="#004A9B"/>
<path d="M234.432 148.809H225.167V155.532H234.432V148.809Z" fill="black"/>
<path d="M228.594 154.898C228.467 154.898 228.467 154.898 228.467 154.898C228.467 154.771 228.467 154.771 228.594 154.898C228.594 154.771 228.594 154.771 228.594 154.898ZM228.467 155.405V155.024H228.594L228.467 155.405Z" fill="#004A9B"/>
<path d="M234.432 148.809H225.167V155.532H234.432V148.809Z" fill="black"/>
<path d="M228.721 155.151C228.721 155.024 228.721 155.024 228.721 155.151C228.847 155.024 228.848 155.024 228.974 155.024C229.101 155.024 229.101 155.024 229.101 155.151V155.405H228.974V155.024C228.848 155.024 228.847 155.024 228.721 155.151C228.847 155.151 228.847 155.151 228.721 155.151L228.848 155.405H228.721V155.151Z" fill="#004A9B"/>
<path d="M234.432 148.809H225.167V155.532H234.432V148.809Z" fill="black"/>
<path d="M229.609 155.024V155.405C229.609 155.532 229.609 155.532 229.609 155.532H229.355V155.405H229.482C229.482 155.405 229.609 155.405 229.609 155.278C229.609 155.278 229.609 155.278 229.482 155.278C229.355 155.278 229.355 155.151 229.355 155.151C229.355 155.024 229.482 154.898 229.482 154.898C229.355 154.898 229.482 155.024 229.609 155.024ZM229.482 155.151C229.355 155.024 229.355 155.024 229.482 155.151C229.355 155.024 229.355 155.151 229.355 155.151C229.355 155.151 229.355 155.278 229.482 155.278C229.355 155.278 229.355 155.278 229.482 155.151Z" fill="#004A9B"/>
<path d="M234.432 148.809H225.167V155.532H234.432V148.809Z" fill="black"/>
<path d="M230.244 155.278H230.117C229.99 155.278 229.863 155.151 229.863 155.024C229.863 154.898 229.99 154.771 230.117 154.771H230.244V154.898C230.244 154.898 230.244 154.898 230.117 154.898C229.99 154.898 229.99 154.898 229.99 155.024C229.863 155.151 229.99 155.278 230.244 155.278C230.117 155.278 230.117 155.278 230.244 155.278Z" fill="#004A9B"/>
<path d="M234.432 148.809H225.167V155.532H234.432V148.809Z" fill="black"/>
<path d="M230.624 155.151C230.624 155.278 230.498 155.405 230.371 155.405C230.244 155.405 230.117 155.278 230.117 155.151C230.117 155.024 230.244 154.898 230.371 154.898C230.624 154.898 230.624 155.024 230.624 155.151ZM230.371 155.151C230.371 155.278 230.371 155.278 230.371 155.151C230.498 155.278 230.498 155.278 230.498 155.151C230.498 155.151 230.498 155.024 230.371 155.151Z" fill="#004A9B"/>
<path d="M234.432 148.809H225.167V155.532H234.432V148.809Z" fill="black"/>
<path d="M230.751 155.151C230.751 155.024 230.751 155.024 230.751 155.151C230.878 155.024 230.878 155.024 231.005 155.024C231.005 155.024 231.132 155.024 231.132 155.151C231.132 155.151 231.132 155.151 231.259 155.151C231.386 155.151 231.386 155.151 231.386 155.278V155.532H231.259V155.151V155.024V155.278H231.132V155.151V155.024C230.878 155.024 230.878 155.024 230.751 155.151C230.878 155.151 230.878 155.151 230.751 155.151L230.878 155.405H230.751V155.151Z" fill="#004A9B"/>
<path d="M234.432 148.809H225.167V155.532H234.432V148.809Z" fill="black"/>
<path d="M231.386 155.151V155.024H231.513L231.386 155.151C231.513 155.024 231.513 155.024 231.64 155.024C231.767 155.024 231.767 155.151 231.767 155.278C231.767 155.405 231.64 155.532 231.64 155.532H231.513V155.786H231.386V155.151ZM231.513 155.151C231.513 155.278 231.513 155.278 231.513 155.151C231.64 155.278 231.64 155.151 231.64 155.151C231.64 155.151 231.64 155.024 231.513 155.024C231.513 155.024 231.513 155.024 231.513 155.151Z" fill="#004A9B"/>
<path d="M234.432 148.809H225.167V155.532H234.432V148.809Z" fill="black"/>
<path d="M232.147 155.405C232.021 155.405 232.021 155.405 232.147 155.405C231.894 155.405 231.894 155.405 231.894 155.278C231.894 155.151 232.021 155.151 232.147 155.151C232.147 155.151 232.147 155.151 232.021 155.151H231.894V155.024H232.021C232.147 155.024 232.147 155.151 232.147 155.151V155.405C232.147 155.278 232.147 155.278 232.147 155.405ZM232.147 155.151C232.021 155.151 232.021 155.151 232.147 155.151C232.147 155.278 232.147 155.278 232.147 155.151Z" fill="#004A9B"/>
<path d="M234.432 148.809H225.167V155.532H234.432V148.809Z" fill="black"/>
<path d="M232.274 155.151C232.274 155.024 232.274 155.024 232.274 155.151C232.401 155.024 232.401 155.024 232.528 155.024C232.655 155.024 232.655 155.024 232.655 155.151V155.405H232.528V155.024C232.401 155.024 232.401 155.024 232.274 155.151C232.401 155.151 232.401 155.151 232.274 155.151L232.401 155.405H232.274V155.151Z" fill="#004A9B"/>
<path d="M234.432 148.809H225.167V155.532H234.432V148.809Z" fill="black"/>
<path d="M232.782 155.024V155.151C232.782 155.151 232.782 155.151 232.782 155.278C232.782 155.278 232.782 155.278 232.782 155.151V155.024H232.909L232.782 155.278C232.782 155.405 232.655 155.532 232.655 155.532H232.528V155.405L232.401 155.024H232.782Z" fill="#004A9B"/>
<path d="M234.432 148.809H225.167V155.532H234.432V148.809Z" fill="black"/>
<path d="M226.309 153.376H226.055C226.055 153.376 225.928 153.376 225.928 153.502L225.801 154.137V154.263C225.801 154.137 225.801 154.137 225.801 154.137L225.674 153.502C225.674 153.502 225.674 153.376 225.548 153.376H225.294C225.294 153.376 225.167 153.376 225.167 153.502V154.517H225.421V153.629L225.674 154.39C225.674 154.39 225.674 154.517 225.801 154.517H225.928C225.928 154.517 226.055 154.517 226.055 154.39L226.182 153.629V154.517H226.436L226.309 153.376ZM227.071 153.376C226.944 153.376 226.817 153.376 226.69 153.502C226.563 153.629 226.563 153.756 226.563 154.01C226.563 154.263 226.563 154.39 226.69 154.517C226.817 154.644 226.944 154.644 227.071 154.644C227.198 154.644 227.324 154.644 227.451 154.517C227.578 154.39 227.578 154.263 227.578 154.01C227.578 153.756 227.578 153.629 227.451 153.502C227.324 153.376 227.198 153.376 227.071 153.376ZM227.198 154.263L227.071 154.39C226.944 154.39 226.944 154.39 226.944 154.263C226.944 154.263 226.944 154.137 226.944 154.01C226.944 153.883 226.944 153.756 226.944 153.756L227.071 153.629C227.198 153.629 227.198 153.629 227.198 153.756C227.198 153.756 227.198 153.883 227.198 154.01C227.324 154.137 227.324 154.263 227.198 154.263ZM228.34 154.01C228.467 153.883 228.467 153.756 228.467 153.629C228.467 153.502 228.467 153.376 228.34 153.376C228.34 153.376 228.213 153.249 228.086 153.249C227.959 153.249 227.832 153.249 227.705 153.249V154.39H227.959V154.01H228.086C228.086 154.01 228.213 154.01 228.213 154.137L228.34 154.517H228.594L228.34 154.01C228.467 154.137 228.467 154.137 228.34 154.01ZM228.213 153.883H227.959V153.502H228.086C228.213 153.502 228.213 153.502 228.213 153.502C228.213 153.502 228.213 153.502 228.213 153.629C228.34 153.756 228.34 153.883 228.213 153.883ZM229.736 154.263C229.736 154.39 229.736 154.39 229.736 154.39C229.736 154.263 229.736 154.263 229.736 154.263L229.482 153.502H229.228C229.228 153.502 229.101 153.502 229.101 153.629L228.974 154.39L228.848 153.629H228.594L228.848 154.644H229.101L229.228 153.883C229.228 153.883 229.228 153.883 229.228 153.756V153.883L229.355 154.644C229.355 154.644 229.355 154.771 229.482 154.771H229.736L229.99 153.756H229.736V154.263ZM230.498 153.629H231.005V153.502C230.878 153.502 230.751 153.502 230.498 153.502C230.371 153.502 230.371 153.502 230.371 153.502L230.244 153.629V154.263C230.244 154.39 230.244 154.39 230.371 154.39H230.498C230.751 154.39 230.878 154.39 231.005 154.39V154.263H230.624C230.624 154.263 230.624 154.263 230.624 154.137V153.883L230.498 153.629ZM231.894 154.137V154.263C231.894 154.263 231.894 154.263 231.894 154.137C231.767 154.137 231.767 154.137 231.894 154.137L231.513 153.502H231.386C231.386 153.502 231.259 153.502 231.259 153.629V154.644H231.513V153.883L231.767 154.517C231.767 154.517 231.767 154.644 231.894 154.644H232.021C232.021 154.644 232.147 154.644 232.147 154.517V153.502H231.894V154.137ZM233.036 154.137V154.263C233.036 154.263 233.036 154.263 233.036 154.137C232.909 154.137 232.909 154.137 233.036 154.137L232.655 153.502H232.528C232.528 153.502 232.401 153.502 232.401 153.629V154.644H232.655V153.883L232.909 154.517C232.909 154.517 232.909 154.644 233.036 154.644H233.163C233.163 154.644 233.29 154.644 233.29 154.517V153.502H233.036V154.137ZM234.051 153.502C234.051 153.376 234.051 153.376 234.051 153.502H233.797H233.671L233.29 154.517H233.544L233.671 154.263H234.051L234.178 154.517H234.432L234.051 153.502ZM233.671 154.01L233.797 153.629V153.502C233.797 153.502 233.797 153.502 233.797 153.629L233.924 154.01H233.671Z" fill="#E30613"/>
<path d="M524.83 228.845H12.6993L21.5838 235.44L47.4759 239.499V259.54L69.4334 261.569L69.6873 250.915L110.81 250.788L119.695 263.345L459.973 263.091C459.846 263.218 500.207 263.218 524.83 228.845Z" fill="#A01A16"/>
<path d="M481.295 248.251C481.295 245.334 478.884 242.924 475.965 242.924C473.046 242.924 470.634 245.334 470.634 248.251C470.634 251.168 473.046 253.578 475.965 253.578C478.884 253.578 481.295 251.168 481.295 248.251Z" fill="white"/>
<path d="M335.843 163.776H332.035C331.654 163.776 331.274 163.396 331.274 163.015V156.8C331.274 156.42 331.654 156.039 332.035 156.039H335.843C336.224 156.039 336.604 156.42 336.604 156.8V163.015C336.604 163.396 336.35 163.776 335.843 163.776Z" fill="url(#paint7_radial_179_253)"/>
<path d="M381.027 163.776H377.219C376.839 163.776 376.458 163.396 376.458 163.015V156.8C376.458 156.42 376.839 156.039 377.219 156.039H381.027C381.408 156.039 381.789 156.42 381.789 156.8V163.015C381.789 163.396 381.408 163.776 381.027 163.776Z" fill="url(#paint8_radial_179_253)"/>
<path d="M426.084 163.776H422.277C421.896 163.776 421.515 163.396 421.515 163.015V156.8C421.515 156.42 421.896 156.039 422.277 156.039H426.084C426.465 156.039 426.846 156.42 426.846 156.8V163.015C426.846 163.396 426.592 163.776 426.084 163.776Z" fill="url(#paint9_radial_179_253)"/>
<path d="M355.389 196.628C356.931 196.628 358.181 195.378 358.181 193.837C358.181 192.296 356.931 191.047 355.389 191.047C353.847 191.047 352.596 192.296 352.596 193.837C352.596 195.378 353.847 196.628 355.389 196.628Z" fill="url(#paint10_radial_179_253)"/>
<path d="M410.346 196.628C411.888 196.628 413.138 195.378 413.138 193.837C413.138 192.296 411.888 191.047 410.346 191.047C408.804 191.047 407.554 192.296 407.554 193.837C407.554 195.378 408.804 196.628 410.346 196.628Z" fill="url(#paint11_radial_179_253)"/>
<path d="M317.058 196.628C318.6 196.628 319.851 195.378 319.851 193.837C319.851 192.296 318.6 191.047 317.058 191.047C315.516 191.047 314.266 192.296 314.266 193.837C314.266 195.378 315.516 196.628 317.058 196.628Z" fill="url(#paint12_radial_179_253)"/>
<path d="M377.6 195.993C378.862 195.993 379.885 194.971 379.885 193.71C379.885 192.449 378.862 191.427 377.6 191.427C376.338 191.427 375.316 192.449 375.316 193.71C375.316 194.971 376.338 195.993 377.6 195.993Z" fill="url(#paint13_radial_179_253)"/>
<path d="M468.603 198.911L469.365 199.291L469.619 199.545L469.746 199.799V200.052L469.872 200.306L469.746 200.56V200.813L469.619 201.067L469.365 201.321L468.603 201.701H466.826L466.446 201.574L466.192 201.447L465.811 201.067L465.684 200.813V200.56L465.557 200.306L465.684 200.052V199.799L465.811 199.545L466.192 199.164L466.446 199.038L466.826 198.911H468.603Z" fill="white"/>
<path d="M135.56 208.17C136.541 208.17 137.337 207.659 137.337 207.029C137.337 206.398 136.541 205.887 135.56 205.887C134.578 205.887 133.783 206.398 133.783 207.029C133.783 207.659 134.578 208.17 135.56 208.17Z" fill="white"/>
<path d="M85.5525 213.244H65.3719C64.8642 213.244 64.3565 213.751 64.3565 214.258V216.288H86.441V214.258C86.441 213.624 86.0602 213.244 85.5525 213.244Z" fill="white"/>
<path d="M124.137 213.244H105.733C105.225 213.244 104.718 213.751 104.718 214.258V216.288H125.152V214.258C125.152 213.624 124.644 213.244 124.137 213.244Z" fill="white"/>
<path d="M155.867 213.244H143.937C143.429 213.244 142.921 213.751 142.921 214.258V216.288H156.883V214.258C156.883 213.624 156.375 213.244 155.867 213.244Z" fill="white"/>
<path d="M198.767 213.244H176.809C176.302 213.244 175.794 213.751 175.794 214.258V216.288H199.782V214.258C199.782 213.624 199.402 213.244 198.767 213.244Z" fill="white"/>
<path d="M247.759 213.244H223.771C223.263 213.244 222.755 213.751 222.755 214.258V216.288H248.774V214.258C248.774 213.624 248.267 213.244 247.759 213.244Z" fill="white"/>
<path d="M294.339 213.244H271.62C271.113 213.244 270.605 213.751 270.605 214.258V216.288H295.355V214.258C295.355 213.624 294.974 213.244 294.339 213.244Z" fill="white"/>
<path d="M340.412 213.244H316.804C316.297 213.244 315.789 213.751 315.789 214.258V216.288H341.427V214.258C341.427 213.624 341.047 213.244 340.412 213.244Z" fill="white"/>
<path d="M387.5 213.244H364.527C364.019 213.244 363.512 213.751 363.512 214.258V216.288H388.515V214.258C388.515 213.624 388.008 213.244 387.5 213.244Z" fill="white"/>
<path d="M40.6221 212.99C37.8298 212.99 35.4183 215.273 35.4183 218.19C35.4183 220.981 37.7029 223.391 40.6221 223.391C43.5413 223.391 45.8259 221.107 45.8259 218.19C45.8259 215.273 43.5413 212.99 40.6221 212.99ZM40.6221 221.107C38.9721 221.107 37.576 219.712 37.576 218.063C37.576 216.414 38.9721 215.019 40.6221 215.019C42.2721 215.019 43.6682 216.414 43.6682 218.063C43.6682 219.712 42.399 221.107 40.6221 221.107Z" fill="#322E2C"/>
<path d="M71.718 212.99C68.9257 212.99 66.5142 215.273 66.5142 218.19C66.5142 220.981 68.7988 223.391 71.718 223.391C74.5103 223.391 76.9218 221.107 76.9218 218.19C76.7949 215.273 74.5103 212.99 71.718 212.99ZM71.718 221.107C70.068 221.107 68.6719 219.712 68.6719 218.063C68.6719 216.414 70.068 215.019 71.718 215.019C73.368 215.019 74.7641 216.414 74.7641 218.063C74.7641 219.712 73.368 221.107 71.718 221.107Z" fill="#322E2C"/>
<path d="M102.814 212.99C100.022 212.99 97.6101 215.273 97.6101 218.19C97.6101 220.981 99.8947 223.391 102.814 223.391C105.606 223.391 108.018 221.107 108.018 218.19C107.891 215.273 105.606 212.99 102.814 212.99ZM102.814 221.107C101.164 221.107 99.7678 219.712 99.7678 218.063C99.7678 216.414 101.164 215.019 102.814 215.019C104.464 215.019 105.86 216.414 105.86 218.063C105.86 219.712 104.464 221.107 102.814 221.107Z" fill="#322E2C"/>
<path d="M133.91 212.99C131.118 212.99 128.706 215.273 128.706 218.19C128.706 220.981 130.991 223.391 133.91 223.391C136.702 223.391 139.114 221.107 139.114 218.19C139.114 215.273 136.702 212.99 133.91 212.99ZM133.91 221.107C132.26 221.107 130.864 219.712 130.864 218.063C130.864 216.414 132.26 215.019 133.91 215.019C135.56 215.019 136.956 216.414 136.956 218.063C136.956 219.712 135.56 221.107 133.91 221.107Z" fill="#322E2C"/>
<path d="M165.767 212.99C162.975 212.99 160.563 215.273 160.563 218.19C160.563 220.981 162.848 223.391 165.767 223.391C168.56 223.391 170.971 221.107 170.971 218.19C170.971 215.273 168.56 212.99 165.767 212.99ZM165.767 221.107C164.117 221.107 162.721 219.712 162.721 218.063C162.721 216.414 164.117 215.019 165.767 215.019C167.417 215.019 168.813 216.414 168.813 218.063C168.813 219.712 167.417 221.107 165.767 221.107Z" fill="#322E2C"/>
<path d="M204.225 212.99C201.432 212.99 199.021 215.273 199.021 218.19C199.021 220.981 201.305 223.391 204.225 223.391C207.017 223.391 209.428 221.107 209.428 218.19C209.302 215.273 207.017 212.99 204.225 212.99ZM204.225 221.107C202.575 221.107 201.179 219.712 201.179 218.063C201.179 216.414 202.575 215.019 204.225 215.019C205.875 215.019 207.271 216.414 207.271 218.063C207.271 219.712 205.875 221.107 204.225 221.107Z" fill="#322E2C"/>
<path d="M234.813 212.99C232.021 212.99 229.609 215.273 229.609 218.19C229.609 220.981 231.894 223.391 234.813 223.391C237.605 223.391 240.017 221.107 240.017 218.19C240.017 215.273 237.732 212.99 234.813 212.99ZM234.813 221.107C233.163 221.107 231.767 219.712 231.767 218.063C231.767 216.414 233.163 215.019 234.813 215.019C236.463 215.019 237.859 216.414 237.859 218.063C237.859 219.712 236.59 221.107 234.813 221.107Z" fill="#322E2C"/>
<path d="M266.924 212.99C264.132 212.99 261.72 215.273 261.72 218.19C261.72 220.981 264.005 223.391 266.924 223.391C269.716 223.391 272.128 221.107 272.128 218.19C272.128 215.273 269.716 212.99 266.924 212.99ZM266.924 221.107C265.274 221.107 263.878 219.712 263.878 218.063C263.878 216.414 265.274 215.019 266.924 215.019C268.574 215.019 269.97 216.414 269.97 218.063C269.97 219.712 268.574 221.107 266.924 221.107Z" fill="#322E2C"/>
<path d="M297.639 212.99C294.847 212.99 292.435 215.273 292.435 218.19C292.435 220.981 294.72 223.391 297.639 223.391C300.559 223.391 302.843 221.107 302.843 218.19C302.843 215.273 300.559 212.99 297.639 212.99ZM297.639 221.107C295.989 221.107 294.593 219.712 294.593 218.063C294.593 216.414 295.989 215.019 297.639 215.019C299.289 215.019 300.685 216.414 300.685 218.063C300.685 219.712 299.289 221.107 297.639 221.107Z" fill="#322E2C"/>
<path d="M329.37 212.99C326.578 212.99 324.166 215.273 324.166 218.19C324.166 220.981 326.451 223.391 329.37 223.391C332.289 223.391 334.574 221.107 334.574 218.19C334.574 215.273 332.289 212.99 329.37 212.99ZM329.37 221.107C327.72 221.107 326.324 219.712 326.324 218.063C326.324 216.414 327.72 215.019 329.37 215.019C331.02 215.019 332.416 216.414 332.416 218.063C332.416 219.712 331.147 221.107 329.37 221.107Z" fill="#322E2C"/>
<path d="M359.704 212.99C356.912 212.99 354.5 215.273 354.5 218.19C354.5 220.981 356.785 223.391 359.704 223.391C362.496 223.391 364.908 221.107 364.908 218.19C364.781 215.273 362.496 212.99 359.704 212.99ZM359.704 221.107C358.054 221.107 356.658 219.712 356.658 218.063C356.658 216.414 358.054 215.019 359.704 215.019C361.354 215.019 362.75 216.414 362.75 218.063C362.75 219.712 361.354 221.107 359.704 221.107Z" fill="#322E2C"/>
<path d="M399.558 212.99C396.765 212.99 394.354 215.273 394.354 218.19C394.354 220.981 396.638 223.391 399.558 223.391C402.35 223.391 404.762 221.107 404.762 218.19C404.635 215.273 402.35 212.99 399.558 212.99ZM399.558 221.107C397.908 221.107 396.512 219.712 396.512 218.063C396.512 216.414 397.908 215.019 399.558 215.019C401.208 215.019 402.604 216.414 402.604 218.063C402.604 219.712 401.208 221.107 399.558 221.107Z" fill="#322E2C"/>
<path d="M222.882 136.633L225.801 138.028L229.863 139.931V144.116L225.04 145.131V142.975L224.532 142.721" fill="url(#paint14_linear_179_253)"/>
<path d="M0.387817 282.624C4.06856 279.58 34.9106 237.343 174.652 244.826C316.043 252.31 427.607 267.404 544.503 241.909C544.503 241.909 493.099 288.966 373.666 283.259C269.082 278.312 219.582 270.575 118.552 272.224C47.2221 273.492 0.387817 282.624 0.387817 282.624Z" fill="#B8D8EB"/>
</g>
<defs>
<radialGradient id="paint0_radial_179_253" cx="0" cy="0" r="1" gradientUnits="userSpaceOnUse" gradientTransform="translate(277.947 141.539) scale(246.682 159.021)">
<stop stop-color="#F0F6FD"/>
<stop offset="1" stop-color="#4C92CD"/>
</radialGradient>
<radialGradient id="paint1_radial_179_253" cx="0" cy="0" r="1" gradientUnits="userSpaceOnUse" gradientTransform="translate(271.961 142.382) scale(246.092 159.6)">
<stop stop-color="#F0F6FD"/>
<stop offset="1" stop-color="#4C92CD"/>
</radialGradient>
<radialGradient id="paint2_radial_179_253" cx="0" cy="0" r="1" gradientUnits="userSpaceOnUse" gradientTransform="translate(274.193 143.529) rotate(180) scale(243.506 165.919)">
<stop stop-color="#F0F6FD"/>
<stop offset="1" stop-color="#4C92CD"/>
</radialGradient>
<radialGradient id="paint3_radial_179_253" cx="0" cy="0" r="1" gradientUnits="userSpaceOnUse" gradientTransform="translate(275.348 143.535) rotate(180) scale(241.004 167.089)">
<stop stop-color="#F0F6FD"/>
<stop offset="1" stop-color="#4C92CD"/>
</radialGradient>
<radialGradient id="paint4_radial_179_253" cx="0" cy="0" r="1" gradientUnits="userSpaceOnUse" gradientTransform="translate(277.824 141.949) rotate(180) scale(234.171 173.321)">
<stop stop-color="#F0F6FD"/>
<stop offset="1" stop-color="#4C92CD"/>
</radialGradient>
<radialGradient id="paint5_radial_179_253" cx="0" cy="0" r="1" gradientUnits="userSpaceOnUse" gradientTransform="translate(273.394 141.919) scale(265.827 144.511)">
<stop stop-color="#F0F6FD"/>
<stop offset="1" stop-color="#4C92CD"/>
</radialGradient>
<radialGradient id="paint6_radial_179_253" cx="0" cy="0" r="1" gradientUnits="userSpaceOnUse" gradientTransform="translate(277.259 144.052) rotate(180) scale(275.027 140.797)">
<stop stop-color="#F0F6FD"/>
<stop offset="1" stop-color="#4C92CD"/>
</radialGradient>
<radialGradient id="paint7_radial_179_253" cx="0" cy="0" r="1" gradientUnits="userSpaceOnUse" gradientTransform="translate(280.205 141.175) scale(334.462 120.021)">
<stop stop-color="#F0F6FD"/>
<stop offset="1" stop-color="#4C92CD"/>
</radialGradient>
<radialGradient id="paint8_radial_179_253" cx="0" cy="0" r="1" gradientUnits="userSpaceOnUse" gradientTransform="translate(273.533 141.175) scale(334.462 120.021)">
<stop stop-color="#F0F6FD"/>
<stop offset="1" stop-color="#4C92CD"/>
</radialGradient>
<radialGradient id="paint9_radial_179_253" cx="0" cy="0" r="1" gradientUnits="userSpaceOnUse" gradientTransform="translate(279.843 141.175) scale(334.462 120.021)">
<stop stop-color="#F0F6FD"/>
<stop offset="1" stop-color="#4C92CD"/>
</radialGradient>
<radialGradient id="paint10_radial_179_253" cx="0" cy="0" r="1" gradientUnits="userSpaceOnUse" gradientTransform="translate(268.315 140.393) scale(276.039 143.868)">
<stop stop-color="#F0F6FD"/>
<stop offset="1" stop-color="#4C92CD"/>
</radialGradient>
<radialGradient id="paint11_radial_179_253" cx="0" cy="0" r="1" gradientUnits="userSpaceOnUse" gradientTransform="translate(272.124 140.393) scale(276.039 143.868)">
<stop stop-color="#F0F6FD"/>
<stop offset="1" stop-color="#4C92CD"/>
</radialGradient>
<radialGradient id="paint12_radial_179_253" cx="0" cy="0" r="1" gradientUnits="userSpaceOnUse" gradientTransform="translate(273.175 140.393) scale(276.039 143.868)">
<stop stop-color="#F0F6FD"/>
<stop offset="1" stop-color="#4C92CD"/>
</radialGradient>
<radialGradient id="paint13_radial_179_253" cx="0" cy="0" r="1" gradientUnits="userSpaceOnUse" gradientTransform="translate(279.655 145.657) scale(265.241 138.24)">
<stop stop-color="#F0F6FD"/>
<stop offset="1" stop-color="#4C92CD"/>
</radialGradient>
<linearGradient id="paint14_linear_179_253" x1="268.478" y1="279.066" x2="268.478" y2="94.5456" gradientUnits="userSpaceOnUse">
<stop offset="0.0960495" stop-color="#1E2623"/>
<stop offset="0.5862" stop-color="#777B7D"/>
</linearGradient>
</defs>
</svg>
